G04 #@! TF.GenerationSoftware,KiCad,Pcbnew,8.0.4*
G04 #@! TF.CreationDate,2024-10-04T00:04:43-04:00*
G04 #@! TF.ProjectId,BlueSTM32,426c7565-5354-44d3-9332-2e6b69636164,rev?*
G04 #@! TF.SameCoordinates,Original*
G04 #@! TF.FileFunction,Soldermask,Top*
G04 #@! TF.FilePolarity,Negative*
%FSLAX46Y46*%
G04 Gerber Fmt 4.6, Leading zero omitted, Abs format (unit mm)*
G04 Created by KiCad (PCBNEW 8.0.4) date 2024-10-04 00:04:43*
%MOMM*%
%LPD*%
G01*
G04 APERTURE LIST*
G04 Aperture macros list*
%AMRoundRect*
0 Rectangle with rounded corners*
0 $1 Rounding radius*
0 $2 $3 $4 $5 $6 $7 $8 $9 X,Y pos of 4 corners*
0 Add a 4 corners polygon primitive as box body*
4,1,4,$2,$3,$4,$5,$6,$7,$8,$9,$2,$3,0*
0 Add four circle primitives for the rounded corners*
1,1,$1+$1,$2,$3*
1,1,$1+$1,$4,$5*
1,1,$1+$1,$6,$7*
1,1,$1+$1,$8,$9*
0 Add four rect primitives between the rounded corners*
20,1,$1+$1,$2,$3,$4,$5,0*
20,1,$1+$1,$4,$5,$6,$7,0*
20,1,$1+$1,$6,$7,$8,$9,0*
20,1,$1+$1,$8,$9,$2,$3,0*%
G04 Aperture macros list end*
%ADD10C,0.010000*%
%ADD11R,0.576580X0.351536*%
%ADD12R,0.351536X0.576580*%
%ADD13RoundRect,0.150000X-0.512500X-0.150000X0.512500X-0.150000X0.512500X0.150000X-0.512500X0.150000X0*%
%ADD14RoundRect,0.200000X-0.017678X-0.300520X0.300520X0.017678X0.017678X0.300520X-0.300520X-0.017678X0*%
%ADD15RoundRect,0.300000X-0.700000X0.300000X-0.700000X-0.300000X0.700000X-0.300000X0.700000X0.300000X0*%
%ADD16R,6.400000X6.400000*%
%ADD17RoundRect,0.062500X-0.062500X-0.400000X0.062500X-0.400000X0.062500X0.400000X-0.062500X0.400000X0*%
%ADD18RoundRect,0.062500X-0.400000X-0.062500X0.400000X-0.062500X0.400000X0.062500X-0.400000X0.062500X0*%
%ADD19R,0.863600X0.431800*%
%ADD20R,4.343400X3.454400*%
%ADD21R,1.460500X0.533400*%
%ADD22RoundRect,0.102000X-0.450000X-0.750000X0.450000X-0.750000X0.450000X0.750000X-0.450000X0.750000X0*%
%ADD23RoundRect,0.102000X-0.380000X-0.110000X0.380000X-0.110000X0.380000X0.110000X-0.380000X0.110000X0*%
%ADD24RoundRect,0.160000X-0.160000X0.197500X-0.160000X-0.197500X0.160000X-0.197500X0.160000X0.197500X0*%
%ADD25R,0.736600X0.965200*%
%ADD26R,0.736600X0.355600*%
%ADD27RoundRect,0.160000X0.197500X0.160000X-0.197500X0.160000X-0.197500X-0.160000X0.197500X-0.160000X0*%
%ADD28RoundRect,0.160000X0.160000X-0.197500X0.160000X0.197500X-0.160000X0.197500X-0.160000X-0.197500X0*%
%ADD29RoundRect,0.250000X-0.450000X0.325000X-0.450000X-0.325000X0.450000X-0.325000X0.450000X0.325000X0*%
%ADD30RoundRect,0.250001X-1.074999X0.462499X-1.074999X-0.462499X1.074999X-0.462499X1.074999X0.462499X0*%
%ADD31R,2.100000X2.799999*%
%ADD32R,0.600000X1.900000*%
%ADD33C,0.787400*%
%ADD34C,0.990600*%
%ADD35RoundRect,0.250000X0.300000X0.300000X-0.300000X0.300000X-0.300000X-0.300000X0.300000X-0.300000X0*%
%ADD36RoundRect,0.237500X-0.287500X-0.237500X0.287500X-0.237500X0.287500X0.237500X-0.287500X0.237500X0*%
%ADD37RoundRect,0.155000X-0.212500X-0.155000X0.212500X-0.155000X0.212500X0.155000X-0.212500X0.155000X0*%
%ADD38RoundRect,0.155000X-0.155000X0.212500X-0.155000X-0.212500X0.155000X-0.212500X0.155000X0.212500X0*%
%ADD39RoundRect,0.155000X0.155000X-0.212500X0.155000X0.212500X-0.155000X0.212500X-0.155000X-0.212500X0*%
%ADD40RoundRect,0.102000X0.150000X0.550000X-0.150000X0.550000X-0.150000X-0.550000X0.150000X-0.550000X0*%
%ADD41RoundRect,0.102000X0.300000X0.550000X-0.300000X0.550000X-0.300000X-0.550000X0.300000X-0.550000X0*%
G04 APERTURE END LIST*
D10*
X164361000Y-100401000D02*
X164393000Y-100403000D01*
X164424000Y-100407000D01*
X164455000Y-100413000D01*
X164485000Y-100420000D01*
X164515000Y-100429000D01*
X164545000Y-100440000D01*
X164574000Y-100452000D01*
X164602000Y-100465000D01*
X164630000Y-100480000D01*
X164657000Y-100497000D01*
X164683000Y-100515000D01*
X164708000Y-100534000D01*
X164731000Y-100554000D01*
X164754000Y-100576000D01*
X164776000Y-100599000D01*
X164796000Y-100622000D01*
X164815000Y-100647000D01*
X164833000Y-100673000D01*
X164850000Y-100700000D01*
X164865000Y-100728000D01*
X164878000Y-100756000D01*
X164890000Y-100785000D01*
X164901000Y-100815000D01*
X164910000Y-100845000D01*
X164917000Y-100875000D01*
X164923000Y-100906000D01*
X164927000Y-100937000D01*
X164929000Y-100969000D01*
X164930000Y-101000000D01*
X164930000Y-101600000D01*
X164930000Y-102200000D01*
X164929000Y-102231000D01*
X164927000Y-102263000D01*
X164923000Y-102294000D01*
X164917000Y-102325000D01*
X164910000Y-102355000D01*
X164901000Y-102385000D01*
X164890000Y-102415000D01*
X164878000Y-102444000D01*
X164865000Y-102472000D01*
X164850000Y-102500000D01*
X164833000Y-102527000D01*
X164815000Y-102553000D01*
X164796000Y-102578000D01*
X164776000Y-102601000D01*
X164754000Y-102624000D01*
X164731000Y-102646000D01*
X164708000Y-102666000D01*
X164683000Y-102685000D01*
X164657000Y-102703000D01*
X164630000Y-102720000D01*
X164602000Y-102735000D01*
X164574000Y-102748000D01*
X164545000Y-102760000D01*
X164515000Y-102771000D01*
X164485000Y-102780000D01*
X164455000Y-102787000D01*
X164424000Y-102793000D01*
X164393000Y-102797000D01*
X164361000Y-102799000D01*
X164330000Y-102800000D01*
X164299000Y-102799000D01*
X164267000Y-102797000D01*
X164236000Y-102793000D01*
X164205000Y-102787000D01*
X164175000Y-102780000D01*
X164145000Y-102771000D01*
X164115000Y-102760000D01*
X164086000Y-102748000D01*
X164058000Y-102735000D01*
X164030000Y-102720000D01*
X164003000Y-102703000D01*
X163977000Y-102685000D01*
X163952000Y-102666000D01*
X163929000Y-102646000D01*
X163906000Y-102624000D01*
X163884000Y-102601000D01*
X163864000Y-102578000D01*
X163845000Y-102553000D01*
X163827000Y-102527000D01*
X163810000Y-102500000D01*
X163795000Y-102472000D01*
X163782000Y-102444000D01*
X163770000Y-102415000D01*
X163759000Y-102385000D01*
X163750000Y-102355000D01*
X163743000Y-102325000D01*
X163737000Y-102294000D01*
X163733000Y-102263000D01*
X163731000Y-102231000D01*
X163730000Y-102200000D01*
X163730000Y-101600000D01*
X163730000Y-101000000D01*
X163731000Y-100969000D01*
X163733000Y-100937000D01*
X163737000Y-100906000D01*
X163743000Y-100875000D01*
X163750000Y-100845000D01*
X163759000Y-100815000D01*
X163770000Y-100785000D01*
X163782000Y-100756000D01*
X163795000Y-100728000D01*
X163810000Y-100700000D01*
X163827000Y-100673000D01*
X163845000Y-100647000D01*
X163864000Y-100622000D01*
X163884000Y-100599000D01*
X163906000Y-100576000D01*
X163929000Y-100554000D01*
X163952000Y-100534000D01*
X163977000Y-100515000D01*
X164003000Y-100497000D01*
X164030000Y-100480000D01*
X164058000Y-100465000D01*
X164086000Y-100452000D01*
X164115000Y-100440000D01*
X164145000Y-100429000D01*
X164175000Y-100420000D01*
X164205000Y-100413000D01*
X164236000Y-100407000D01*
X164267000Y-100403000D01*
X164299000Y-100401000D01*
X164330000Y-100400000D01*
X164361000Y-100401000D01*
G36*
X164361000Y-100401000D02*
G01*
X164393000Y-100403000D01*
X164424000Y-100407000D01*
X164455000Y-100413000D01*
X164485000Y-100420000D01*
X164515000Y-100429000D01*
X164545000Y-100440000D01*
X164574000Y-100452000D01*
X164602000Y-100465000D01*
X164630000Y-100480000D01*
X164657000Y-100497000D01*
X164683000Y-100515000D01*
X164708000Y-100534000D01*
X164731000Y-100554000D01*
X164754000Y-100576000D01*
X164776000Y-100599000D01*
X164796000Y-100622000D01*
X164815000Y-100647000D01*
X164833000Y-100673000D01*
X164850000Y-100700000D01*
X164865000Y-100728000D01*
X164878000Y-100756000D01*
X164890000Y-100785000D01*
X164901000Y-100815000D01*
X164910000Y-100845000D01*
X164917000Y-100875000D01*
X164923000Y-100906000D01*
X164927000Y-100937000D01*
X164929000Y-100969000D01*
X164930000Y-101000000D01*
X164930000Y-101600000D01*
X164930000Y-102200000D01*
X164929000Y-102231000D01*
X164927000Y-102263000D01*
X164923000Y-102294000D01*
X164917000Y-102325000D01*
X164910000Y-102355000D01*
X164901000Y-102385000D01*
X164890000Y-102415000D01*
X164878000Y-102444000D01*
X164865000Y-102472000D01*
X164850000Y-102500000D01*
X164833000Y-102527000D01*
X164815000Y-102553000D01*
X164796000Y-102578000D01*
X164776000Y-102601000D01*
X164754000Y-102624000D01*
X164731000Y-102646000D01*
X164708000Y-102666000D01*
X164683000Y-102685000D01*
X164657000Y-102703000D01*
X164630000Y-102720000D01*
X164602000Y-102735000D01*
X164574000Y-102748000D01*
X164545000Y-102760000D01*
X164515000Y-102771000D01*
X164485000Y-102780000D01*
X164455000Y-102787000D01*
X164424000Y-102793000D01*
X164393000Y-102797000D01*
X164361000Y-102799000D01*
X164330000Y-102800000D01*
X164299000Y-102799000D01*
X164267000Y-102797000D01*
X164236000Y-102793000D01*
X164205000Y-102787000D01*
X164175000Y-102780000D01*
X164145000Y-102771000D01*
X164115000Y-102760000D01*
X164086000Y-102748000D01*
X164058000Y-102735000D01*
X164030000Y-102720000D01*
X164003000Y-102703000D01*
X163977000Y-102685000D01*
X163952000Y-102666000D01*
X163929000Y-102646000D01*
X163906000Y-102624000D01*
X163884000Y-102601000D01*
X163864000Y-102578000D01*
X163845000Y-102553000D01*
X163827000Y-102527000D01*
X163810000Y-102500000D01*
X163795000Y-102472000D01*
X163782000Y-102444000D01*
X163770000Y-102415000D01*
X163759000Y-102385000D01*
X163750000Y-102355000D01*
X163743000Y-102325000D01*
X163737000Y-102294000D01*
X163733000Y-102263000D01*
X163731000Y-102231000D01*
X163730000Y-102200000D01*
X163730000Y-101600000D01*
X163730000Y-101000000D01*
X163731000Y-100969000D01*
X163733000Y-100937000D01*
X163737000Y-100906000D01*
X163743000Y-100875000D01*
X163750000Y-100845000D01*
X163759000Y-100815000D01*
X163770000Y-100785000D01*
X163782000Y-100756000D01*
X163795000Y-100728000D01*
X163810000Y-100700000D01*
X163827000Y-100673000D01*
X163845000Y-100647000D01*
X163864000Y-100622000D01*
X163884000Y-100599000D01*
X163906000Y-100576000D01*
X163929000Y-100554000D01*
X163952000Y-100534000D01*
X163977000Y-100515000D01*
X164003000Y-100497000D01*
X164030000Y-100480000D01*
X164058000Y-100465000D01*
X164086000Y-100452000D01*
X164115000Y-100440000D01*
X164145000Y-100429000D01*
X164175000Y-100420000D01*
X164205000Y-100413000D01*
X164236000Y-100407000D01*
X164267000Y-100403000D01*
X164299000Y-100401000D01*
X164330000Y-100400000D01*
X164361000Y-100401000D01*
G37*
X175601000Y-104601000D02*
X175633000Y-104603000D01*
X175664000Y-104607000D01*
X175695000Y-104613000D01*
X175725000Y-104620000D01*
X175755000Y-104629000D01*
X175785000Y-104640000D01*
X175814000Y-104652000D01*
X175842000Y-104665000D01*
X175870000Y-104680000D01*
X175897000Y-104697000D01*
X175923000Y-104715000D01*
X175948000Y-104734000D01*
X175971000Y-104754000D01*
X175994000Y-104776000D01*
X176016000Y-104799000D01*
X176036000Y-104822000D01*
X176055000Y-104847000D01*
X176073000Y-104873000D01*
X176090000Y-104900000D01*
X176105000Y-104928000D01*
X176118000Y-104956000D01*
X176130000Y-104985000D01*
X176141000Y-105015000D01*
X176150000Y-105045000D01*
X176157000Y-105075000D01*
X176163000Y-105106000D01*
X176167000Y-105137000D01*
X176169000Y-105169000D01*
X176170000Y-105200000D01*
X176170000Y-106000000D01*
X176169000Y-106031000D01*
X176167000Y-106063000D01*
X176163000Y-106094000D01*
X176157000Y-106125000D01*
X176150000Y-106155000D01*
X176141000Y-106185000D01*
X176130000Y-106215000D01*
X176118000Y-106244000D01*
X176105000Y-106272000D01*
X176090000Y-106300000D01*
X176073000Y-106327000D01*
X176055000Y-106353000D01*
X176036000Y-106378000D01*
X176016000Y-106401000D01*
X175994000Y-106424000D01*
X175971000Y-106446000D01*
X175948000Y-106466000D01*
X175923000Y-106485000D01*
X175897000Y-106503000D01*
X175870000Y-106520000D01*
X175842000Y-106535000D01*
X175814000Y-106548000D01*
X175785000Y-106560000D01*
X175755000Y-106571000D01*
X175725000Y-106580000D01*
X175695000Y-106587000D01*
X175664000Y-106593000D01*
X175633000Y-106597000D01*
X175601000Y-106599000D01*
X175570000Y-106600000D01*
X175539000Y-106599000D01*
X175507000Y-106597000D01*
X175476000Y-106593000D01*
X175445000Y-106587000D01*
X175415000Y-106580000D01*
X175385000Y-106571000D01*
X175355000Y-106560000D01*
X175326000Y-106548000D01*
X175298000Y-106535000D01*
X175270000Y-106520000D01*
X175243000Y-106503000D01*
X175217000Y-106485000D01*
X175192000Y-106466000D01*
X175169000Y-106446000D01*
X175146000Y-106424000D01*
X175124000Y-106401000D01*
X175104000Y-106378000D01*
X175085000Y-106353000D01*
X175067000Y-106327000D01*
X175050000Y-106300000D01*
X175035000Y-106272000D01*
X175022000Y-106244000D01*
X175010000Y-106215000D01*
X174999000Y-106185000D01*
X174990000Y-106155000D01*
X174983000Y-106125000D01*
X174977000Y-106094000D01*
X174973000Y-106063000D01*
X174971000Y-106031000D01*
X174970000Y-106000000D01*
X174970000Y-105200000D01*
X174971000Y-105169000D01*
X174973000Y-105137000D01*
X174977000Y-105106000D01*
X174983000Y-105075000D01*
X174990000Y-105045000D01*
X174999000Y-105015000D01*
X175010000Y-104985000D01*
X175022000Y-104956000D01*
X175035000Y-104928000D01*
X175050000Y-104900000D01*
X175067000Y-104873000D01*
X175085000Y-104847000D01*
X175104000Y-104822000D01*
X175124000Y-104799000D01*
X175146000Y-104776000D01*
X175169000Y-104754000D01*
X175192000Y-104734000D01*
X175217000Y-104715000D01*
X175243000Y-104697000D01*
X175270000Y-104680000D01*
X175298000Y-104665000D01*
X175326000Y-104652000D01*
X175355000Y-104640000D01*
X175385000Y-104629000D01*
X175415000Y-104620000D01*
X175445000Y-104613000D01*
X175476000Y-104607000D01*
X175507000Y-104603000D01*
X175539000Y-104601000D01*
X175570000Y-104600000D01*
X175601000Y-104601000D01*
G36*
X175601000Y-104601000D02*
G01*
X175633000Y-104603000D01*
X175664000Y-104607000D01*
X175695000Y-104613000D01*
X175725000Y-104620000D01*
X175755000Y-104629000D01*
X175785000Y-104640000D01*
X175814000Y-104652000D01*
X175842000Y-104665000D01*
X175870000Y-104680000D01*
X175897000Y-104697000D01*
X175923000Y-104715000D01*
X175948000Y-104734000D01*
X175971000Y-104754000D01*
X175994000Y-104776000D01*
X176016000Y-104799000D01*
X176036000Y-104822000D01*
X176055000Y-104847000D01*
X176073000Y-104873000D01*
X176090000Y-104900000D01*
X176105000Y-104928000D01*
X176118000Y-104956000D01*
X176130000Y-104985000D01*
X176141000Y-105015000D01*
X176150000Y-105045000D01*
X176157000Y-105075000D01*
X176163000Y-105106000D01*
X176167000Y-105137000D01*
X176169000Y-105169000D01*
X176170000Y-105200000D01*
X176170000Y-106000000D01*
X176169000Y-106031000D01*
X176167000Y-106063000D01*
X176163000Y-106094000D01*
X176157000Y-106125000D01*
X176150000Y-106155000D01*
X176141000Y-106185000D01*
X176130000Y-106215000D01*
X176118000Y-106244000D01*
X176105000Y-106272000D01*
X176090000Y-106300000D01*
X176073000Y-106327000D01*
X176055000Y-106353000D01*
X176036000Y-106378000D01*
X176016000Y-106401000D01*
X175994000Y-106424000D01*
X175971000Y-106446000D01*
X175948000Y-106466000D01*
X175923000Y-106485000D01*
X175897000Y-106503000D01*
X175870000Y-106520000D01*
X175842000Y-106535000D01*
X175814000Y-106548000D01*
X175785000Y-106560000D01*
X175755000Y-106571000D01*
X175725000Y-106580000D01*
X175695000Y-106587000D01*
X175664000Y-106593000D01*
X175633000Y-106597000D01*
X175601000Y-106599000D01*
X175570000Y-106600000D01*
X175539000Y-106599000D01*
X175507000Y-106597000D01*
X175476000Y-106593000D01*
X175445000Y-106587000D01*
X175415000Y-106580000D01*
X175385000Y-106571000D01*
X175355000Y-106560000D01*
X175326000Y-106548000D01*
X175298000Y-106535000D01*
X175270000Y-106520000D01*
X175243000Y-106503000D01*
X175217000Y-106485000D01*
X175192000Y-106466000D01*
X175169000Y-106446000D01*
X175146000Y-106424000D01*
X175124000Y-106401000D01*
X175104000Y-106378000D01*
X175085000Y-106353000D01*
X175067000Y-106327000D01*
X175050000Y-106300000D01*
X175035000Y-106272000D01*
X175022000Y-106244000D01*
X175010000Y-106215000D01*
X174999000Y-106185000D01*
X174990000Y-106155000D01*
X174983000Y-106125000D01*
X174977000Y-106094000D01*
X174973000Y-106063000D01*
X174971000Y-106031000D01*
X174970000Y-106000000D01*
X174970000Y-105200000D01*
X174971000Y-105169000D01*
X174973000Y-105137000D01*
X174977000Y-105106000D01*
X174983000Y-105075000D01*
X174990000Y-105045000D01*
X174999000Y-105015000D01*
X175010000Y-104985000D01*
X175022000Y-104956000D01*
X175035000Y-104928000D01*
X175050000Y-104900000D01*
X175067000Y-104873000D01*
X175085000Y-104847000D01*
X175104000Y-104822000D01*
X175124000Y-104799000D01*
X175146000Y-104776000D01*
X175169000Y-104754000D01*
X175192000Y-104734000D01*
X175217000Y-104715000D01*
X175243000Y-104697000D01*
X175270000Y-104680000D01*
X175298000Y-104665000D01*
X175326000Y-104652000D01*
X175355000Y-104640000D01*
X175385000Y-104629000D01*
X175415000Y-104620000D01*
X175445000Y-104613000D01*
X175476000Y-104607000D01*
X175507000Y-104603000D01*
X175539000Y-104601000D01*
X175570000Y-104600000D01*
X175601000Y-104601000D01*
G37*
X175601000Y-100401000D02*
X175633000Y-100403000D01*
X175664000Y-100407000D01*
X175695000Y-100413000D01*
X175725000Y-100420000D01*
X175755000Y-100429000D01*
X175785000Y-100440000D01*
X175814000Y-100452000D01*
X175842000Y-100465000D01*
X175870000Y-100480000D01*
X175897000Y-100497000D01*
X175923000Y-100515000D01*
X175948000Y-100534000D01*
X175971000Y-100554000D01*
X175994000Y-100576000D01*
X176016000Y-100599000D01*
X176036000Y-100622000D01*
X176055000Y-100647000D01*
X176073000Y-100673000D01*
X176090000Y-100700000D01*
X176105000Y-100728000D01*
X176118000Y-100756000D01*
X176130000Y-100785000D01*
X176141000Y-100815000D01*
X176150000Y-100845000D01*
X176157000Y-100875000D01*
X176163000Y-100906000D01*
X176167000Y-100937000D01*
X176169000Y-100969000D01*
X176170000Y-101000000D01*
X176170000Y-102200000D01*
X176169000Y-102231000D01*
X176167000Y-102263000D01*
X176163000Y-102294000D01*
X176157000Y-102325000D01*
X176150000Y-102355000D01*
X176141000Y-102385000D01*
X176130000Y-102415000D01*
X176118000Y-102444000D01*
X176105000Y-102472000D01*
X176090000Y-102500000D01*
X176073000Y-102527000D01*
X176055000Y-102553000D01*
X176036000Y-102578000D01*
X176016000Y-102601000D01*
X175994000Y-102624000D01*
X175971000Y-102646000D01*
X175948000Y-102666000D01*
X175923000Y-102685000D01*
X175897000Y-102703000D01*
X175870000Y-102720000D01*
X175842000Y-102735000D01*
X175814000Y-102748000D01*
X175785000Y-102760000D01*
X175755000Y-102771000D01*
X175725000Y-102780000D01*
X175695000Y-102787000D01*
X175664000Y-102793000D01*
X175633000Y-102797000D01*
X175601000Y-102799000D01*
X175570000Y-102800000D01*
X175539000Y-102799000D01*
X175507000Y-102797000D01*
X175476000Y-102793000D01*
X175445000Y-102787000D01*
X175415000Y-102780000D01*
X175385000Y-102771000D01*
X175355000Y-102760000D01*
X175326000Y-102748000D01*
X175298000Y-102735000D01*
X175270000Y-102720000D01*
X175243000Y-102703000D01*
X175217000Y-102685000D01*
X175192000Y-102666000D01*
X175169000Y-102646000D01*
X175146000Y-102624000D01*
X175124000Y-102601000D01*
X175104000Y-102578000D01*
X175085000Y-102553000D01*
X175067000Y-102527000D01*
X175050000Y-102500000D01*
X175035000Y-102472000D01*
X175022000Y-102444000D01*
X175010000Y-102415000D01*
X174999000Y-102385000D01*
X174990000Y-102355000D01*
X174983000Y-102325000D01*
X174977000Y-102294000D01*
X174973000Y-102263000D01*
X174971000Y-102231000D01*
X174970000Y-102200000D01*
X174970000Y-101000000D01*
X174971000Y-100969000D01*
X174973000Y-100937000D01*
X174977000Y-100906000D01*
X174983000Y-100875000D01*
X174990000Y-100845000D01*
X174999000Y-100815000D01*
X175010000Y-100785000D01*
X175022000Y-100756000D01*
X175035000Y-100728000D01*
X175050000Y-100700000D01*
X175067000Y-100673000D01*
X175085000Y-100647000D01*
X175104000Y-100622000D01*
X175124000Y-100599000D01*
X175146000Y-100576000D01*
X175169000Y-100554000D01*
X175192000Y-100534000D01*
X175217000Y-100515000D01*
X175243000Y-100497000D01*
X175270000Y-100480000D01*
X175298000Y-100465000D01*
X175326000Y-100452000D01*
X175355000Y-100440000D01*
X175385000Y-100429000D01*
X175415000Y-100420000D01*
X175445000Y-100413000D01*
X175476000Y-100407000D01*
X175507000Y-100403000D01*
X175539000Y-100401000D01*
X175570000Y-100400000D01*
X175601000Y-100401000D01*
G36*
X175601000Y-100401000D02*
G01*
X175633000Y-100403000D01*
X175664000Y-100407000D01*
X175695000Y-100413000D01*
X175725000Y-100420000D01*
X175755000Y-100429000D01*
X175785000Y-100440000D01*
X175814000Y-100452000D01*
X175842000Y-100465000D01*
X175870000Y-100480000D01*
X175897000Y-100497000D01*
X175923000Y-100515000D01*
X175948000Y-100534000D01*
X175971000Y-100554000D01*
X175994000Y-100576000D01*
X176016000Y-100599000D01*
X176036000Y-100622000D01*
X176055000Y-100647000D01*
X176073000Y-100673000D01*
X176090000Y-100700000D01*
X176105000Y-100728000D01*
X176118000Y-100756000D01*
X176130000Y-100785000D01*
X176141000Y-100815000D01*
X176150000Y-100845000D01*
X176157000Y-100875000D01*
X176163000Y-100906000D01*
X176167000Y-100937000D01*
X176169000Y-100969000D01*
X176170000Y-101000000D01*
X176170000Y-102200000D01*
X176169000Y-102231000D01*
X176167000Y-102263000D01*
X176163000Y-102294000D01*
X176157000Y-102325000D01*
X176150000Y-102355000D01*
X176141000Y-102385000D01*
X176130000Y-102415000D01*
X176118000Y-102444000D01*
X176105000Y-102472000D01*
X176090000Y-102500000D01*
X176073000Y-102527000D01*
X176055000Y-102553000D01*
X176036000Y-102578000D01*
X176016000Y-102601000D01*
X175994000Y-102624000D01*
X175971000Y-102646000D01*
X175948000Y-102666000D01*
X175923000Y-102685000D01*
X175897000Y-102703000D01*
X175870000Y-102720000D01*
X175842000Y-102735000D01*
X175814000Y-102748000D01*
X175785000Y-102760000D01*
X175755000Y-102771000D01*
X175725000Y-102780000D01*
X175695000Y-102787000D01*
X175664000Y-102793000D01*
X175633000Y-102797000D01*
X175601000Y-102799000D01*
X175570000Y-102800000D01*
X175539000Y-102799000D01*
X175507000Y-102797000D01*
X175476000Y-102793000D01*
X175445000Y-102787000D01*
X175415000Y-102780000D01*
X175385000Y-102771000D01*
X175355000Y-102760000D01*
X175326000Y-102748000D01*
X175298000Y-102735000D01*
X175270000Y-102720000D01*
X175243000Y-102703000D01*
X175217000Y-102685000D01*
X175192000Y-102666000D01*
X175169000Y-102646000D01*
X175146000Y-102624000D01*
X175124000Y-102601000D01*
X175104000Y-102578000D01*
X175085000Y-102553000D01*
X175067000Y-102527000D01*
X175050000Y-102500000D01*
X175035000Y-102472000D01*
X175022000Y-102444000D01*
X175010000Y-102415000D01*
X174999000Y-102385000D01*
X174990000Y-102355000D01*
X174983000Y-102325000D01*
X174977000Y-102294000D01*
X174973000Y-102263000D01*
X174971000Y-102231000D01*
X174970000Y-102200000D01*
X174970000Y-101000000D01*
X174971000Y-100969000D01*
X174973000Y-100937000D01*
X174977000Y-100906000D01*
X174983000Y-100875000D01*
X174990000Y-100845000D01*
X174999000Y-100815000D01*
X175010000Y-100785000D01*
X175022000Y-100756000D01*
X175035000Y-100728000D01*
X175050000Y-100700000D01*
X175067000Y-100673000D01*
X175085000Y-100647000D01*
X175104000Y-100622000D01*
X175124000Y-100599000D01*
X175146000Y-100576000D01*
X175169000Y-100554000D01*
X175192000Y-100534000D01*
X175217000Y-100515000D01*
X175243000Y-100497000D01*
X175270000Y-100480000D01*
X175298000Y-100465000D01*
X175326000Y-100452000D01*
X175355000Y-100440000D01*
X175385000Y-100429000D01*
X175415000Y-100420000D01*
X175445000Y-100413000D01*
X175476000Y-100407000D01*
X175507000Y-100403000D01*
X175539000Y-100401000D01*
X175570000Y-100400000D01*
X175601000Y-100401000D01*
G37*
X164361000Y-104601000D02*
X164393000Y-104603000D01*
X164424000Y-104607000D01*
X164455000Y-104613000D01*
X164485000Y-104620000D01*
X164515000Y-104629000D01*
X164545000Y-104640000D01*
X164574000Y-104652000D01*
X164602000Y-104665000D01*
X164630000Y-104680000D01*
X164657000Y-104697000D01*
X164683000Y-104715000D01*
X164708000Y-104734000D01*
X164731000Y-104754000D01*
X164754000Y-104776000D01*
X164776000Y-104799000D01*
X164796000Y-104822000D01*
X164815000Y-104847000D01*
X164833000Y-104873000D01*
X164850000Y-104900000D01*
X164865000Y-104928000D01*
X164878000Y-104956000D01*
X164890000Y-104985000D01*
X164901000Y-105015000D01*
X164910000Y-105045000D01*
X164917000Y-105075000D01*
X164923000Y-105106000D01*
X164927000Y-105137000D01*
X164929000Y-105169000D01*
X164930000Y-105200000D01*
X164930000Y-106000000D01*
X164929000Y-106031000D01*
X164927000Y-106063000D01*
X164923000Y-106094000D01*
X164917000Y-106125000D01*
X164910000Y-106155000D01*
X164901000Y-106185000D01*
X164890000Y-106215000D01*
X164878000Y-106244000D01*
X164865000Y-106272000D01*
X164850000Y-106300000D01*
X164833000Y-106327000D01*
X164815000Y-106353000D01*
X164796000Y-106378000D01*
X164776000Y-106401000D01*
X164754000Y-106424000D01*
X164731000Y-106446000D01*
X164708000Y-106466000D01*
X164683000Y-106485000D01*
X164657000Y-106503000D01*
X164630000Y-106520000D01*
X164602000Y-106535000D01*
X164574000Y-106548000D01*
X164545000Y-106560000D01*
X164515000Y-106571000D01*
X164485000Y-106580000D01*
X164455000Y-106587000D01*
X164424000Y-106593000D01*
X164393000Y-106597000D01*
X164361000Y-106599000D01*
X164330000Y-106600000D01*
X164299000Y-106599000D01*
X164267000Y-106597000D01*
X164236000Y-106593000D01*
X164205000Y-106587000D01*
X164175000Y-106580000D01*
X164145000Y-106571000D01*
X164115000Y-106560000D01*
X164086000Y-106548000D01*
X164058000Y-106535000D01*
X164030000Y-106520000D01*
X164003000Y-106503000D01*
X163977000Y-106485000D01*
X163952000Y-106466000D01*
X163929000Y-106446000D01*
X163906000Y-106424000D01*
X163884000Y-106401000D01*
X163864000Y-106378000D01*
X163845000Y-106353000D01*
X163827000Y-106327000D01*
X163810000Y-106300000D01*
X163795000Y-106272000D01*
X163782000Y-106244000D01*
X163770000Y-106215000D01*
X163759000Y-106185000D01*
X163750000Y-106155000D01*
X163743000Y-106125000D01*
X163737000Y-106094000D01*
X163733000Y-106063000D01*
X163731000Y-106031000D01*
X163730000Y-106000000D01*
X163730000Y-105200000D01*
X163731000Y-105169000D01*
X163733000Y-105137000D01*
X163737000Y-105106000D01*
X163743000Y-105075000D01*
X163750000Y-105045000D01*
X163759000Y-105015000D01*
X163770000Y-104985000D01*
X163782000Y-104956000D01*
X163795000Y-104928000D01*
X163810000Y-104900000D01*
X163827000Y-104873000D01*
X163845000Y-104847000D01*
X163864000Y-104822000D01*
X163884000Y-104799000D01*
X163906000Y-104776000D01*
X163929000Y-104754000D01*
X163952000Y-104734000D01*
X163977000Y-104715000D01*
X164003000Y-104697000D01*
X164030000Y-104680000D01*
X164058000Y-104665000D01*
X164086000Y-104652000D01*
X164115000Y-104640000D01*
X164145000Y-104629000D01*
X164175000Y-104620000D01*
X164205000Y-104613000D01*
X164236000Y-104607000D01*
X164267000Y-104603000D01*
X164299000Y-104601000D01*
X164330000Y-104600000D01*
X164361000Y-104601000D01*
G36*
X164361000Y-104601000D02*
G01*
X164393000Y-104603000D01*
X164424000Y-104607000D01*
X164455000Y-104613000D01*
X164485000Y-104620000D01*
X164515000Y-104629000D01*
X164545000Y-104640000D01*
X164574000Y-104652000D01*
X164602000Y-104665000D01*
X164630000Y-104680000D01*
X164657000Y-104697000D01*
X164683000Y-104715000D01*
X164708000Y-104734000D01*
X164731000Y-104754000D01*
X164754000Y-104776000D01*
X164776000Y-104799000D01*
X164796000Y-104822000D01*
X164815000Y-104847000D01*
X164833000Y-104873000D01*
X164850000Y-104900000D01*
X164865000Y-104928000D01*
X164878000Y-104956000D01*
X164890000Y-104985000D01*
X164901000Y-105015000D01*
X164910000Y-105045000D01*
X164917000Y-105075000D01*
X164923000Y-105106000D01*
X164927000Y-105137000D01*
X164929000Y-105169000D01*
X164930000Y-105200000D01*
X164930000Y-106000000D01*
X164929000Y-106031000D01*
X164927000Y-106063000D01*
X164923000Y-106094000D01*
X164917000Y-106125000D01*
X164910000Y-106155000D01*
X164901000Y-106185000D01*
X164890000Y-106215000D01*
X164878000Y-106244000D01*
X164865000Y-106272000D01*
X164850000Y-106300000D01*
X164833000Y-106327000D01*
X164815000Y-106353000D01*
X164796000Y-106378000D01*
X164776000Y-106401000D01*
X164754000Y-106424000D01*
X164731000Y-106446000D01*
X164708000Y-106466000D01*
X164683000Y-106485000D01*
X164657000Y-106503000D01*
X164630000Y-106520000D01*
X164602000Y-106535000D01*
X164574000Y-106548000D01*
X164545000Y-106560000D01*
X164515000Y-106571000D01*
X164485000Y-106580000D01*
X164455000Y-106587000D01*
X164424000Y-106593000D01*
X164393000Y-106597000D01*
X164361000Y-106599000D01*
X164330000Y-106600000D01*
X164299000Y-106599000D01*
X164267000Y-106597000D01*
X164236000Y-106593000D01*
X164205000Y-106587000D01*
X164175000Y-106580000D01*
X164145000Y-106571000D01*
X164115000Y-106560000D01*
X164086000Y-106548000D01*
X164058000Y-106535000D01*
X164030000Y-106520000D01*
X164003000Y-106503000D01*
X163977000Y-106485000D01*
X163952000Y-106466000D01*
X163929000Y-106446000D01*
X163906000Y-106424000D01*
X163884000Y-106401000D01*
X163864000Y-106378000D01*
X163845000Y-106353000D01*
X163827000Y-106327000D01*
X163810000Y-106300000D01*
X163795000Y-106272000D01*
X163782000Y-106244000D01*
X163770000Y-106215000D01*
X163759000Y-106185000D01*
X163750000Y-106155000D01*
X163743000Y-106125000D01*
X163737000Y-106094000D01*
X163733000Y-106063000D01*
X163731000Y-106031000D01*
X163730000Y-106000000D01*
X163730000Y-105200000D01*
X163731000Y-105169000D01*
X163733000Y-105137000D01*
X163737000Y-105106000D01*
X163743000Y-105075000D01*
X163750000Y-105045000D01*
X163759000Y-105015000D01*
X163770000Y-104985000D01*
X163782000Y-104956000D01*
X163795000Y-104928000D01*
X163810000Y-104900000D01*
X163827000Y-104873000D01*
X163845000Y-104847000D01*
X163864000Y-104822000D01*
X163884000Y-104799000D01*
X163906000Y-104776000D01*
X163929000Y-104754000D01*
X163952000Y-104734000D01*
X163977000Y-104715000D01*
X164003000Y-104697000D01*
X164030000Y-104680000D01*
X164058000Y-104665000D01*
X164086000Y-104652000D01*
X164115000Y-104640000D01*
X164145000Y-104629000D01*
X164175000Y-104620000D01*
X164205000Y-104613000D01*
X164236000Y-104607000D01*
X164267000Y-104603000D01*
X164299000Y-104601000D01*
X164330000Y-104600000D01*
X164361000Y-104601000D01*
G37*
D11*
X183837400Y-123259999D03*
X183837400Y-122760000D03*
X183837400Y-122260001D03*
D12*
X184043699Y-121549700D03*
X184543700Y-121549700D03*
X185043700Y-121549700D03*
X185543701Y-121549700D03*
D11*
X185750000Y-122260001D03*
X185750000Y-122760000D03*
X185750000Y-123259999D03*
D12*
X185543701Y-123970300D03*
X185043700Y-123970300D03*
X184543700Y-123970300D03*
X184043699Y-123970300D03*
D13*
X186270000Y-125760000D03*
X186270000Y-127660000D03*
X183995000Y-127660000D03*
X183995000Y-126710000D03*
X183995000Y-125760000D03*
D14*
X175713745Y-124698440D03*
X176491561Y-125476256D03*
X174688440Y-125723744D03*
D15*
X161160000Y-119280000D03*
X161160000Y-116580000D03*
D16*
X170000000Y-120000000D03*
D17*
X166800000Y-116112500D03*
X167200000Y-116112500D03*
X167600000Y-116112500D03*
X168000000Y-116112500D03*
X168400000Y-116112500D03*
X168800000Y-116112500D03*
X169200000Y-116112500D03*
X169600000Y-116112500D03*
X170000000Y-116112500D03*
X170400000Y-116112500D03*
X170800000Y-116112500D03*
X171200000Y-116112500D03*
X171600000Y-116112500D03*
X172000000Y-116112500D03*
X172400000Y-116112500D03*
X172800000Y-116112500D03*
X173200000Y-116112500D03*
D18*
X173887500Y-116800000D03*
X173887500Y-117200000D03*
X173887500Y-117600000D03*
X173887500Y-118000000D03*
X173887500Y-118400000D03*
X173887500Y-118800000D03*
X173887500Y-119200000D03*
X173887500Y-119600000D03*
X173887500Y-120000000D03*
X173887500Y-120400000D03*
X173887500Y-120800000D03*
X173887500Y-121200000D03*
X173887500Y-121600000D03*
X173887500Y-122000000D03*
X173887500Y-122400000D03*
X173887500Y-122800000D03*
X173887500Y-123200000D03*
D17*
X173200000Y-123887500D03*
X172800000Y-123887500D03*
X172400000Y-123887500D03*
X172000000Y-123887500D03*
X171600000Y-123887500D03*
X171200000Y-123887500D03*
X170800000Y-123887500D03*
X170400000Y-123887500D03*
X170000000Y-123887500D03*
X169600000Y-123887500D03*
X169200000Y-123887500D03*
X168800000Y-123887500D03*
X168400000Y-123887500D03*
X168000000Y-123887500D03*
X167600000Y-123887500D03*
X167200000Y-123887500D03*
X166800000Y-123887500D03*
D18*
X166112500Y-123200000D03*
X166112500Y-122800000D03*
X166112500Y-122400000D03*
X166112500Y-122000000D03*
X166112500Y-121600000D03*
X166112500Y-121200000D03*
X166112500Y-120800000D03*
X166112500Y-120400000D03*
X166112500Y-120000000D03*
X166112500Y-119600000D03*
X166112500Y-119200000D03*
X166112500Y-118800000D03*
X166112500Y-118400000D03*
X166112500Y-118000000D03*
X166112500Y-117600000D03*
X166112500Y-117200000D03*
X166112500Y-116800000D03*
D19*
X152381400Y-108790000D03*
X152381400Y-110060000D03*
X152381400Y-111330000D03*
X152381400Y-112600000D03*
X160230000Y-112600000D03*
X160230000Y-111330000D03*
X160230000Y-110060000D03*
X160230000Y-108790000D03*
D20*
X156305700Y-110695000D03*
D21*
X181648350Y-112485000D03*
X181648350Y-113755000D03*
X181648350Y-115025000D03*
X181648350Y-116295000D03*
X187096650Y-116295000D03*
X187096650Y-115025000D03*
X187096650Y-113755000D03*
X187096650Y-112485000D03*
D13*
X186280000Y-133190000D03*
X186280000Y-135090000D03*
X184005000Y-135090000D03*
X184005000Y-134140000D03*
X184005000Y-133190000D03*
D22*
X184332500Y-108150000D03*
D23*
X185317500Y-107350000D03*
X185317500Y-107750000D03*
X185317500Y-108150000D03*
X185317500Y-108550000D03*
X185317500Y-108950000D03*
X183347500Y-108950000D03*
X183347500Y-108550000D03*
X183347500Y-108150000D03*
X183347500Y-107750000D03*
X183347500Y-107350000D03*
D24*
X178270000Y-110242500D03*
X178270000Y-111437500D03*
X188090000Y-109152500D03*
X188090000Y-110347500D03*
X153665000Y-134467500D03*
X153665000Y-133272500D03*
X153695000Y-135702500D03*
X153695000Y-136897500D03*
X153695000Y-130842500D03*
X153695000Y-132037500D03*
X153715000Y-125992500D03*
X153715000Y-127187500D03*
D25*
X156000000Y-136360500D03*
D26*
X156000000Y-137190000D03*
X156000000Y-137690000D03*
D25*
X156000000Y-138519500D03*
X157270000Y-138519500D03*
D26*
X157270000Y-137690000D03*
X157270000Y-137190000D03*
D25*
X157270000Y-136360500D03*
X156000000Y-131240500D03*
D26*
X156000000Y-132070000D03*
X156000000Y-132570000D03*
D25*
X156000000Y-133399500D03*
X157270000Y-133399500D03*
D26*
X157270000Y-132570000D03*
X157270000Y-132070000D03*
D25*
X157270000Y-131240500D03*
X156000000Y-125910500D03*
D26*
X156000000Y-126740000D03*
X156000000Y-127240000D03*
D25*
X156000000Y-128069500D03*
X157270000Y-128069500D03*
D26*
X157270000Y-127240000D03*
X157270000Y-126740000D03*
D25*
X157270000Y-125910500D03*
X156005000Y-120691000D03*
D26*
X156005000Y-121520500D03*
X156005000Y-122020500D03*
D25*
X156005000Y-122850000D03*
X157275000Y-122850000D03*
D26*
X157275000Y-122020500D03*
X157275000Y-121520500D03*
D25*
X157275000Y-120691000D03*
D24*
X182460000Y-121542500D03*
X182460000Y-122737500D03*
X180950000Y-121542500D03*
X180950000Y-122737500D03*
X161180000Y-122077500D03*
X161180000Y-120882500D03*
D27*
X183060000Y-105000000D03*
X181865000Y-105000000D03*
X187050000Y-105000000D03*
X185855000Y-105000000D03*
D28*
X179802500Y-126115000D03*
X179802500Y-127310000D03*
D24*
X183852500Y-130400000D03*
X183852500Y-129205000D03*
X159990000Y-122077500D03*
X159990000Y-120882500D03*
D29*
X177350000Y-121425000D03*
X177350000Y-119375000D03*
D30*
X178732500Y-117127500D03*
X178732500Y-114152500D03*
D31*
X178679989Y-135330352D03*
X161380011Y-135330352D03*
D32*
X175530012Y-132980351D03*
X174530011Y-132980351D03*
X173530011Y-132980351D03*
X172530010Y-132980351D03*
X171530010Y-132980351D03*
X170530012Y-132980351D03*
X169530011Y-132980351D03*
X168530011Y-132980351D03*
X167530010Y-132980351D03*
X166530012Y-132980351D03*
X165530012Y-132980351D03*
X164530011Y-132980351D03*
D33*
X165150000Y-112745000D03*
X165150000Y-111475000D03*
X166420000Y-112745000D03*
X166420000Y-111475000D03*
X167690000Y-112745000D03*
X167690000Y-111475000D03*
D34*
X163880000Y-111094000D03*
X163880000Y-113126000D03*
X168960000Y-112110000D03*
D35*
X183040000Y-118520000D03*
X185840000Y-118520000D03*
D36*
X181592500Y-102400000D03*
X183342500Y-102400000D03*
X185602500Y-102400000D03*
X187352500Y-102400000D03*
D37*
X178447500Y-122770000D03*
X177312500Y-122770000D03*
D38*
X159240000Y-117327500D03*
X159240000Y-116192500D03*
D39*
X159240000Y-118462500D03*
X159240000Y-119597500D03*
X182152500Y-126145000D03*
X182152500Y-127280000D03*
X181032500Y-128555000D03*
X181032500Y-129690000D03*
D38*
X187252500Y-130370000D03*
X187252500Y-129235000D03*
D40*
X171700000Y-106750000D03*
X170700000Y-106750000D03*
X169200000Y-106750000D03*
X168200000Y-106750000D03*
D41*
X167550000Y-106750000D03*
X166750000Y-106750000D03*
D40*
X168700000Y-106750000D03*
X169700000Y-106750000D03*
X170200000Y-106750000D03*
X171200000Y-106750000D03*
D41*
X172350000Y-106750000D03*
X173150000Y-106750000D03*
M02*
