G04 #@! TF.GenerationSoftware,KiCad,Pcbnew,8.0.4*
G04 #@! TF.CreationDate,2024-10-04T10:02:04-04:00*
G04 #@! TF.ProjectId,BlueSTM32,426c7565-5354-44d3-9332-2e6b69636164,rev?*
G04 #@! TF.SameCoordinates,Original*
G04 #@! TF.FileFunction,Copper,L3,Inr*
G04 #@! TF.FilePolarity,Positive*
%FSLAX46Y46*%
G04 Gerber Fmt 4.6, Leading zero omitted, Abs format (unit mm)*
G04 Created by KiCad (PCBNEW 8.0.4) date 2024-10-04 10:02:04*
%MOMM*%
%LPD*%
G01*
G04 APERTURE LIST*
G04 #@! TA.AperFunction,ComponentPad*
%ADD10O,1.000000X2.500000*%
G04 #@! TD*
G04 #@! TA.AperFunction,ViaPad*
%ADD11C,0.500000*%
G04 #@! TD*
G04 #@! TA.AperFunction,ViaPad*
%ADD12C,0.600000*%
G04 #@! TD*
G04 #@! TA.AperFunction,Conductor*
%ADD13C,0.200000*%
G04 #@! TD*
G04 APERTURE END LIST*
D10*
X164330000Y-101600000D03*
X175570000Y-105600000D03*
X164330000Y-105600000D03*
X175570000Y-101600000D03*
D11*
X169676600Y-108240000D03*
X169230000Y-109070000D03*
X167960000Y-109190000D03*
X170167900Y-109360000D03*
X170732100Y-108710000D03*
D12*
X160590000Y-120490000D03*
X162570000Y-118080000D03*
D11*
X170973534Y-113749940D03*
X182762500Y-135302500D03*
X175170000Y-119370000D03*
X186830000Y-123350000D03*
X152510000Y-133050000D03*
X183530000Y-120180000D03*
X164650000Y-122180000D03*
X167900000Y-111100000D03*
X188210000Y-118620000D03*
X172200000Y-125300000D03*
X155035000Y-122400000D03*
X165800000Y-115760000D03*
X153700000Y-129970000D03*
X161200000Y-122880000D03*
X187450000Y-117690000D03*
X161380000Y-108790000D03*
X188840000Y-112310000D03*
X152510000Y-135290000D03*
X186682500Y-111420000D03*
X187712500Y-125802500D03*
X174480000Y-124030000D03*
X174070000Y-108320000D03*
X178690000Y-135310000D03*
X154885000Y-121370000D03*
X155205000Y-126760000D03*
X166410000Y-136510000D03*
X157540000Y-111800000D03*
X158680000Y-103850000D03*
X158280000Y-117860000D03*
X155975000Y-134350000D03*
X179290000Y-122800000D03*
X163640000Y-134310000D03*
X176380000Y-127160000D03*
X157380000Y-109770000D03*
X156005000Y-130330000D03*
X157350000Y-103950000D03*
X155040000Y-109750000D03*
X185352500Y-116370000D03*
X165270000Y-108240000D03*
X157290000Y-102580000D03*
X171530000Y-135800000D03*
X186720000Y-122260000D03*
X157310000Y-105070000D03*
X184540000Y-124830000D03*
X159990000Y-122880000D03*
X181852500Y-111450000D03*
X182862500Y-134132500D03*
X155980000Y-103920000D03*
X165150000Y-110200000D03*
X155040000Y-111770000D03*
X170350000Y-119980000D03*
X156320000Y-110740000D03*
X154955000Y-137700000D03*
X182842500Y-126702500D03*
X186697500Y-109010000D03*
X165055000Y-114115000D03*
X165820000Y-109300000D03*
X162630000Y-120670000D03*
X178322500Y-112810000D03*
X188090000Y-103710000D03*
X164530000Y-131210000D03*
X159850000Y-125240000D03*
X165390000Y-129950000D03*
X164420000Y-126010000D03*
X158380000Y-136360000D03*
X166180000Y-125570000D03*
X166760000Y-130650000D03*
X166400000Y-137880000D03*
X168810000Y-126550000D03*
X166980000Y-135230000D03*
X171920000Y-109110000D03*
X167120000Y-109670000D03*
X177250000Y-109470000D03*
X181747500Y-108000000D03*
X181977500Y-108990000D03*
X180810000Y-108790000D03*
X180870000Y-106250000D03*
X181860000Y-122720000D03*
X175920000Y-118960000D03*
X162390000Y-121510000D03*
X158780000Y-121150000D03*
X164530000Y-128160000D03*
X164210000Y-122810000D03*
X165230000Y-125390000D03*
X159620000Y-133360000D03*
X167700000Y-126590000D03*
X163770000Y-135670000D03*
X161470000Y-123630000D03*
X151180000Y-111350000D03*
X169010000Y-124980000D03*
X162870000Y-119710000D03*
X161590000Y-112600000D03*
X164910000Y-116410000D03*
X168480000Y-125350000D03*
X163090000Y-118760000D03*
X151190000Y-110080000D03*
X162650000Y-126200000D03*
X151190000Y-108790000D03*
X172120000Y-126500000D03*
X166740000Y-114970000D03*
X170480000Y-125970000D03*
X161600000Y-111290000D03*
D13*
X168125000Y-116355000D02*
G75*
G02*
X169510006Y-119698685I-3343700J-3343700D01*
G01*
X169510000Y-124314106D02*
G75*
G03*
X169995002Y-125484998I1655900J6D01*
G01*
X163095000Y-126645000D02*
G75*
G03*
X164169325Y-127089990I1074300J1074300D01*
G01*
X171825000Y-126795000D02*
G75*
G02*
X171112806Y-127090003I-712200J712200D01*
G01*
X167076091Y-117813909D02*
G75*
G02*
X168479952Y-121203245I-3389391J-3389291D01*
G01*
X165941654Y-116679472D02*
G75*
G03*
X165291091Y-116409996I-650554J-650528D01*
G01*
X169010000Y-125298787D02*
G75*
G02*
X168848557Y-125688557I-551200J-13D01*
G01*
X168848553Y-125688553D02*
G75*
G02*
X168458787Y-125849994I-389753J389753D01*
G01*
X161600000Y-123760000D02*
G75*
G03*
X161913847Y-123889980I313800J313800D01*
G01*
X166629705Y-125312598D02*
G75*
G03*
X167927107Y-125849996I1297395J1297398D01*
G01*
X166187107Y-124870000D02*
G75*
G03*
X163821177Y-123890007I-2365907J-2365900D01*
G01*
X162570000Y-118295000D02*
G75*
G02*
X162417982Y-118662037I-519100J0D01*
G01*
X164110000Y-119253101D02*
G75*
G02*
X163695000Y-120255000I-1416900J1D01*
G01*
X164582500Y-114587500D02*
G75*
G03*
X164110007Y-115728215I1140700J-1140700D01*
G01*
X163509809Y-120440190D02*
G75*
G02*
X162955000Y-120670005I-554809J554790D01*
G01*
X164582500Y-114587500D02*
X165055000Y-114115000D01*
X164110000Y-119253101D02*
X164110000Y-115728215D01*
X163694999Y-120254999D02*
X163509809Y-120440190D01*
X162630000Y-120670000D02*
X162955000Y-120670000D01*
X162417972Y-118662027D02*
X160590000Y-120490000D01*
X162570000Y-118080000D02*
X162570000Y-118295000D01*
X169010000Y-125298787D02*
X169010000Y-124980000D01*
X168458787Y-125850000D02*
X167927107Y-125850000D01*
X161600000Y-123760000D02*
X161470000Y-123630000D01*
X161913847Y-123890000D02*
X163821177Y-123890000D01*
X166629705Y-125312598D02*
X166187107Y-124870000D01*
X168480000Y-121203245D02*
X168480000Y-125350000D01*
X167076091Y-117813909D02*
X165941654Y-116679472D01*
X165291091Y-116410000D02*
X164910000Y-116410000D01*
X163095000Y-126645000D02*
X162650000Y-126200000D01*
X164169325Y-127090000D02*
X171112806Y-127090000D01*
X172120000Y-126500000D02*
X171825000Y-126795000D01*
X170480000Y-125970000D02*
X169995000Y-125485000D01*
X168125000Y-116355000D02*
X166740000Y-114970000D01*
X169510000Y-119698685D02*
X169510000Y-124314106D01*
G04 #@! TA.AperFunction,Conductor*
G36*
X163397558Y-100220185D02*
G01*
X163443313Y-100272989D01*
X163453257Y-100342147D01*
X163445080Y-100371952D01*
X163367950Y-100558160D01*
X163367947Y-100558170D01*
X163329500Y-100751456D01*
X163329500Y-100751459D01*
X163329500Y-102448541D01*
X163329500Y-102448543D01*
X163329499Y-102448543D01*
X163367947Y-102641829D01*
X163367950Y-102641839D01*
X163443364Y-102823907D01*
X163443371Y-102823920D01*
X163552860Y-102987781D01*
X163552863Y-102987785D01*
X163692214Y-103127136D01*
X163692218Y-103127139D01*
X163856079Y-103236628D01*
X163856092Y-103236635D01*
X163994127Y-103293810D01*
X164038165Y-103312051D01*
X164038169Y-103312051D01*
X164038170Y-103312052D01*
X164231456Y-103350500D01*
X164231459Y-103350500D01*
X164428543Y-103350500D01*
X164558582Y-103324632D01*
X164621835Y-103312051D01*
X164796877Y-103239547D01*
X164803907Y-103236635D01*
X164803907Y-103236634D01*
X164803914Y-103236632D01*
X164804579Y-103236188D01*
X164883155Y-103183685D01*
X164936609Y-103147967D01*
X165003286Y-103127090D01*
X165070666Y-103145574D01*
X165117357Y-103197553D01*
X165129500Y-103251070D01*
X165129500Y-103948929D01*
X165109815Y-104015968D01*
X165057011Y-104061723D01*
X164987853Y-104071667D01*
X164936609Y-104052031D01*
X164803920Y-103963371D01*
X164803907Y-103963364D01*
X164621839Y-103887950D01*
X164621829Y-103887947D01*
X164428543Y-103849500D01*
X164428541Y-103849500D01*
X164231459Y-103849500D01*
X164231457Y-103849500D01*
X164038170Y-103887947D01*
X164038160Y-103887950D01*
X163856092Y-103963364D01*
X163856079Y-103963371D01*
X163692218Y-104072860D01*
X163692214Y-104072863D01*
X163552863Y-104212214D01*
X163552860Y-104212218D01*
X163443371Y-104376079D01*
X163443364Y-104376092D01*
X163367950Y-104558160D01*
X163367947Y-104558170D01*
X163329500Y-104751456D01*
X163329500Y-104751459D01*
X163329500Y-106448541D01*
X163329500Y-106448543D01*
X163329499Y-106448543D01*
X163367947Y-106641829D01*
X163367950Y-106641839D01*
X163443364Y-106823907D01*
X163443371Y-106823920D01*
X163552860Y-106987781D01*
X163552863Y-106987785D01*
X163692214Y-107127136D01*
X163692218Y-107127139D01*
X163856079Y-107236628D01*
X163856092Y-107236635D01*
X164038160Y-107312049D01*
X164038165Y-107312051D01*
X164038169Y-107312051D01*
X164038170Y-107312052D01*
X164231456Y-107350500D01*
X164231459Y-107350500D01*
X164428543Y-107350500D01*
X164584150Y-107319547D01*
X164621835Y-107312051D01*
X164803914Y-107236632D01*
X164967782Y-107127139D01*
X165107139Y-106987782D01*
X165216632Y-106823914D01*
X165232236Y-106786243D01*
X165276075Y-106731842D01*
X165342369Y-106709776D01*
X165410068Y-106727054D01*
X165411808Y-106728106D01*
X165450514Y-106751937D01*
X165571054Y-106792886D01*
X165583843Y-106794208D01*
X165597371Y-106796765D01*
X165600351Y-106796986D01*
X165600356Y-106796989D01*
X165635560Y-106799607D01*
X165638926Y-106799906D01*
X165674039Y-106803539D01*
X165674040Y-106803538D01*
X165677020Y-106803847D01*
X165690786Y-106803715D01*
X165696740Y-106804158D01*
X165809000Y-106787174D01*
X165914665Y-106745635D01*
X166008438Y-106681625D01*
X166085617Y-106598353D01*
X166142331Y-106499996D01*
X166143403Y-106496511D01*
X166146020Y-106488015D01*
X166184559Y-106429735D01*
X166248488Y-106401542D01*
X166264531Y-106400500D01*
X173635469Y-106400500D01*
X173702508Y-106420185D01*
X173748263Y-106472989D01*
X173753980Y-106488015D01*
X173757668Y-106499995D01*
X173814381Y-106598351D01*
X173814386Y-106598357D01*
X173854683Y-106641835D01*
X173891562Y-106681625D01*
X173963450Y-106730696D01*
X173985335Y-106745635D01*
X174088631Y-106786243D01*
X174091000Y-106787174D01*
X174203260Y-106804158D01*
X174209213Y-106803715D01*
X174222991Y-106803845D01*
X174225958Y-106803538D01*
X174225961Y-106803539D01*
X174260994Y-106799915D01*
X174264555Y-106799599D01*
X174302631Y-106796767D01*
X174316166Y-106794208D01*
X174320028Y-106793808D01*
X174328946Y-106792886D01*
X174449486Y-106751937D01*
X174488193Y-106728105D01*
X174555597Y-106709720D01*
X174622244Y-106730696D01*
X174666971Y-106784373D01*
X174667764Y-106786243D01*
X174683368Y-106823914D01*
X174683371Y-106823920D01*
X174792860Y-106987781D01*
X174792863Y-106987785D01*
X174932214Y-107127136D01*
X174932218Y-107127139D01*
X175096079Y-107236628D01*
X175096092Y-107236635D01*
X175278160Y-107312049D01*
X175278165Y-107312051D01*
X175278169Y-107312051D01*
X175278170Y-107312052D01*
X175471456Y-107350500D01*
X175471459Y-107350500D01*
X175668543Y-107350500D01*
X175824150Y-107319547D01*
X175861835Y-107312051D01*
X176043914Y-107236632D01*
X176207782Y-107127139D01*
X176347139Y-106987782D01*
X176456632Y-106823914D01*
X176532051Y-106641835D01*
X176570500Y-106448541D01*
X176570500Y-106249997D01*
X180114751Y-106249997D01*
X180114751Y-106250002D01*
X180133685Y-106418056D01*
X180189545Y-106577694D01*
X180189547Y-106577697D01*
X180279518Y-106720884D01*
X180279523Y-106720890D01*
X180399109Y-106840476D01*
X180399115Y-106840481D01*
X180542302Y-106930452D01*
X180542305Y-106930454D01*
X180542309Y-106930455D01*
X180542310Y-106930456D01*
X180614913Y-106955860D01*
X180701943Y-106986314D01*
X180869997Y-107005249D01*
X180870000Y-107005249D01*
X180870003Y-107005249D01*
X181038056Y-106986314D01*
X181038059Y-106986313D01*
X181197690Y-106930456D01*
X181197692Y-106930454D01*
X181197694Y-106930454D01*
X181197697Y-106930452D01*
X181340884Y-106840481D01*
X181340885Y-106840480D01*
X181340890Y-106840477D01*
X181460477Y-106720890D01*
X181460481Y-106720884D01*
X181550452Y-106577697D01*
X181550454Y-106577694D01*
X181550454Y-106577692D01*
X181550456Y-106577690D01*
X181606313Y-106418059D01*
X181606313Y-106418058D01*
X181606314Y-106418056D01*
X181625249Y-106250002D01*
X181625249Y-106249997D01*
X181606314Y-106081943D01*
X181550454Y-105922305D01*
X181550452Y-105922302D01*
X181460481Y-105779115D01*
X181460476Y-105779109D01*
X181340890Y-105659523D01*
X181340884Y-105659518D01*
X181197697Y-105569547D01*
X181197694Y-105569545D01*
X181038056Y-105513685D01*
X180870003Y-105494751D01*
X180869997Y-105494751D01*
X180701943Y-105513685D01*
X180542305Y-105569545D01*
X180542302Y-105569547D01*
X180399115Y-105659518D01*
X180399109Y-105659523D01*
X180279523Y-105779109D01*
X180279518Y-105779115D01*
X180189547Y-105922302D01*
X180189545Y-105922305D01*
X180133685Y-106081943D01*
X180114751Y-106249997D01*
X176570500Y-106249997D01*
X176570500Y-104751459D01*
X176570500Y-104751456D01*
X176532052Y-104558170D01*
X176532051Y-104558169D01*
X176532051Y-104558165D01*
X176512298Y-104510476D01*
X176456635Y-104376092D01*
X176456628Y-104376079D01*
X176347139Y-104212218D01*
X176347136Y-104212214D01*
X176207785Y-104072863D01*
X176207781Y-104072860D01*
X176043920Y-103963371D01*
X176043907Y-103963364D01*
X175861839Y-103887950D01*
X175861829Y-103887947D01*
X175668543Y-103849500D01*
X175668541Y-103849500D01*
X175471459Y-103849500D01*
X175471457Y-103849500D01*
X175278170Y-103887947D01*
X175278160Y-103887950D01*
X175096092Y-103963364D01*
X175096079Y-103963371D01*
X174963391Y-104052031D01*
X174896713Y-104072909D01*
X174829333Y-104054424D01*
X174782643Y-104002445D01*
X174770500Y-103948929D01*
X174770500Y-103709997D01*
X187334751Y-103709997D01*
X187334751Y-103710002D01*
X187353685Y-103878056D01*
X187409545Y-104037694D01*
X187409547Y-104037697D01*
X187499518Y-104180884D01*
X187499523Y-104180890D01*
X187619109Y-104300476D01*
X187619115Y-104300481D01*
X187762302Y-104390452D01*
X187762305Y-104390454D01*
X187762309Y-104390455D01*
X187762310Y-104390456D01*
X187834913Y-104415860D01*
X187921943Y-104446314D01*
X188089997Y-104465249D01*
X188090000Y-104465249D01*
X188090003Y-104465249D01*
X188258056Y-104446314D01*
X188274740Y-104440476D01*
X188417690Y-104390456D01*
X188417692Y-104390454D01*
X188417694Y-104390454D01*
X188417697Y-104390452D01*
X188560884Y-104300481D01*
X188560885Y-104300480D01*
X188560890Y-104300477D01*
X188680477Y-104180890D01*
X188680481Y-104180884D01*
X188770452Y-104037697D01*
X188770454Y-104037694D01*
X188770454Y-104037692D01*
X188770456Y-104037690D01*
X188826313Y-103878059D01*
X188826313Y-103878058D01*
X188826314Y-103878056D01*
X188845249Y-103710002D01*
X188845249Y-103709997D01*
X188826314Y-103541943D01*
X188770454Y-103382305D01*
X188770452Y-103382302D01*
X188680481Y-103239115D01*
X188680476Y-103239109D01*
X188560890Y-103119523D01*
X188560884Y-103119518D01*
X188417697Y-103029547D01*
X188417694Y-103029545D01*
X188258056Y-102973685D01*
X188090003Y-102954751D01*
X188089997Y-102954751D01*
X187921943Y-102973685D01*
X187762305Y-103029545D01*
X187762302Y-103029547D01*
X187619115Y-103119518D01*
X187619109Y-103119523D01*
X187499523Y-103239109D01*
X187499518Y-103239115D01*
X187409547Y-103382302D01*
X187409545Y-103382305D01*
X187353685Y-103541943D01*
X187334751Y-103709997D01*
X174770500Y-103709997D01*
X174770500Y-103251070D01*
X174790185Y-103184031D01*
X174842989Y-103138276D01*
X174912147Y-103128332D01*
X174963391Y-103147968D01*
X175096079Y-103236628D01*
X175096092Y-103236635D01*
X175234127Y-103293810D01*
X175278165Y-103312051D01*
X175278169Y-103312051D01*
X175278170Y-103312052D01*
X175471456Y-103350500D01*
X175471459Y-103350500D01*
X175668543Y-103350500D01*
X175798582Y-103324632D01*
X175861835Y-103312051D01*
X176036877Y-103239547D01*
X176043907Y-103236635D01*
X176043907Y-103236634D01*
X176043914Y-103236632D01*
X176044579Y-103236188D01*
X176122903Y-103183853D01*
X176207782Y-103127139D01*
X176347139Y-102987782D01*
X176456632Y-102823914D01*
X176532051Y-102641835D01*
X176570500Y-102448541D01*
X176570500Y-100751459D01*
X176570500Y-100751456D01*
X176532052Y-100558170D01*
X176532051Y-100558169D01*
X176532051Y-100558165D01*
X176532049Y-100558160D01*
X176454920Y-100371952D01*
X176447451Y-100302483D01*
X176478726Y-100240004D01*
X176538815Y-100204352D01*
X176569481Y-100200500D01*
X187960118Y-100200500D01*
X187995933Y-100200500D01*
X188004043Y-100200765D01*
X188226790Y-100215364D01*
X188242848Y-100217479D01*
X188428875Y-100254482D01*
X188457771Y-100260230D01*
X188473438Y-100264428D01*
X188585545Y-100302483D01*
X188680944Y-100334867D01*
X188695921Y-100341070D01*
X188758544Y-100371952D01*
X188892460Y-100437992D01*
X188906508Y-100446102D01*
X189088712Y-100567848D01*
X189101573Y-100577716D01*
X189206495Y-100669730D01*
X189266328Y-100722202D01*
X189277797Y-100733671D01*
X189388160Y-100859517D01*
X189422280Y-100898423D01*
X189432154Y-100911291D01*
X189553897Y-101093492D01*
X189562007Y-101107539D01*
X189658926Y-101304071D01*
X189665133Y-101319057D01*
X189735571Y-101526561D01*
X189739769Y-101542228D01*
X189782518Y-101757140D01*
X189784636Y-101773221D01*
X189799235Y-101995956D01*
X189799500Y-102004066D01*
X189799500Y-137995933D01*
X189799235Y-138004043D01*
X189784636Y-138226778D01*
X189782518Y-138242859D01*
X189739769Y-138457771D01*
X189735571Y-138473438D01*
X189665133Y-138680942D01*
X189658926Y-138695928D01*
X189562007Y-138892460D01*
X189553897Y-138906507D01*
X189432154Y-139088708D01*
X189422280Y-139101576D01*
X189277797Y-139266328D01*
X189266328Y-139277797D01*
X189101576Y-139422280D01*
X189088708Y-139432154D01*
X188906507Y-139553897D01*
X188892460Y-139562007D01*
X188695928Y-139658926D01*
X188680942Y-139665133D01*
X188473438Y-139735571D01*
X188457771Y-139739769D01*
X188242859Y-139782518D01*
X188226778Y-139784636D01*
X188004043Y-139799235D01*
X187995933Y-139799500D01*
X152004067Y-139799500D01*
X151995957Y-139799235D01*
X151773221Y-139784636D01*
X151757140Y-139782518D01*
X151542228Y-139739769D01*
X151526561Y-139735571D01*
X151319057Y-139665133D01*
X151304071Y-139658926D01*
X151107539Y-139562007D01*
X151093492Y-139553897D01*
X150911291Y-139432154D01*
X150898423Y-139422280D01*
X150733671Y-139277797D01*
X150722202Y-139266328D01*
X150669730Y-139206495D01*
X150577716Y-139101573D01*
X150567845Y-139088708D01*
X150446102Y-138906507D01*
X150437992Y-138892460D01*
X150435196Y-138886791D01*
X150341070Y-138695921D01*
X150334866Y-138680942D01*
X150264428Y-138473438D01*
X150260230Y-138457771D01*
X150226953Y-138290476D01*
X150217479Y-138242848D01*
X150215364Y-138226790D01*
X150200765Y-138004043D01*
X150200500Y-137995933D01*
X150200500Y-137699997D01*
X154199751Y-137699997D01*
X154199751Y-137700002D01*
X154218685Y-137868056D01*
X154274545Y-138027694D01*
X154274547Y-138027697D01*
X154364518Y-138170884D01*
X154364523Y-138170890D01*
X154484109Y-138290476D01*
X154484115Y-138290481D01*
X154627302Y-138380452D01*
X154627305Y-138380454D01*
X154627309Y-138380455D01*
X154627310Y-138380456D01*
X154675665Y-138397376D01*
X154786943Y-138436314D01*
X154954997Y-138455249D01*
X154955000Y-138455249D01*
X154955003Y-138455249D01*
X155123056Y-138436314D01*
X155123059Y-138436313D01*
X155282690Y-138380456D01*
X155282692Y-138380454D01*
X155282694Y-138380454D01*
X155282697Y-138380452D01*
X155425884Y-138290481D01*
X155425885Y-138290480D01*
X155425890Y-138290477D01*
X155545477Y-138170890D01*
X155545481Y-138170884D01*
X155635452Y-138027697D01*
X155635454Y-138027694D01*
X155635454Y-138027692D01*
X155635456Y-138027690D01*
X155687136Y-137879997D01*
X165644751Y-137879997D01*
X165644751Y-137880002D01*
X165663685Y-138048056D01*
X165719545Y-138207694D01*
X165719547Y-138207697D01*
X165809518Y-138350884D01*
X165809523Y-138350890D01*
X165929109Y-138470476D01*
X165929115Y-138470481D01*
X166072302Y-138560452D01*
X166072305Y-138560454D01*
X166072309Y-138560455D01*
X166072310Y-138560456D01*
X166144913Y-138585860D01*
X166231943Y-138616314D01*
X166399997Y-138635249D01*
X166400000Y-138635249D01*
X166400003Y-138635249D01*
X166568056Y-138616314D01*
X166568059Y-138616313D01*
X166727690Y-138560456D01*
X166727692Y-138560454D01*
X166727694Y-138560454D01*
X166727697Y-138560452D01*
X166870884Y-138470481D01*
X166870885Y-138470480D01*
X166870890Y-138470477D01*
X166990477Y-138350890D01*
X167028435Y-138290481D01*
X167080452Y-138207697D01*
X167080454Y-138207694D01*
X167080454Y-138207692D01*
X167080456Y-138207690D01*
X167136313Y-138048059D01*
X167136313Y-138048058D01*
X167136314Y-138048056D01*
X167155249Y-137880002D01*
X167155249Y-137879997D01*
X167136314Y-137711943D01*
X167080454Y-137552305D01*
X167080452Y-137552302D01*
X166990481Y-137409115D01*
X166990476Y-137409109D01*
X166868268Y-137286901D01*
X166834783Y-137225578D01*
X166839767Y-137155886D01*
X166876201Y-137105636D01*
X166875966Y-137105401D01*
X166877441Y-137103925D01*
X166878644Y-137102267D01*
X166880879Y-137100483D01*
X166880890Y-137100477D01*
X167000477Y-136980890D01*
X167000481Y-136980884D01*
X167090452Y-136837697D01*
X167090454Y-136837694D01*
X167090454Y-136837692D01*
X167090456Y-136837690D01*
X167146313Y-136678059D01*
X167146313Y-136678058D01*
X167146314Y-136678056D01*
X167165249Y-136510002D01*
X167165249Y-136509997D01*
X167146314Y-136341943D01*
X167117809Y-136260481D01*
X167090456Y-136182310D01*
X167071963Y-136152878D01*
X167052963Y-136085641D01*
X167073331Y-136018806D01*
X167126599Y-135973592D01*
X167141493Y-135968635D01*
X167141486Y-135968613D01*
X167148059Y-135966313D01*
X167307690Y-135910456D01*
X167307692Y-135910454D01*
X167307694Y-135910454D01*
X167307697Y-135910452D01*
X167450884Y-135820481D01*
X167450885Y-135820480D01*
X167450890Y-135820477D01*
X167471370Y-135799997D01*
X170774751Y-135799997D01*
X170774751Y-135800002D01*
X170793685Y-135968056D01*
X170849545Y-136127694D01*
X170849547Y-136127697D01*
X170939518Y-136270884D01*
X170939523Y-136270890D01*
X171059109Y-136390476D01*
X171059115Y-136390481D01*
X171202302Y-136480452D01*
X171202305Y-136480454D01*
X171202309Y-136480455D01*
X171202310Y-136480456D01*
X171274913Y-136505860D01*
X171361943Y-136536314D01*
X171529997Y-136555249D01*
X171530000Y-136555249D01*
X171530003Y-136555249D01*
X171698056Y-136536314D01*
X171698059Y-136536313D01*
X171857690Y-136480456D01*
X171857692Y-136480454D01*
X171857694Y-136480454D01*
X171857697Y-136480452D01*
X172000884Y-136390481D01*
X172000885Y-136390480D01*
X172000890Y-136390477D01*
X172120477Y-136270890D01*
X172120481Y-136270884D01*
X172210452Y-136127697D01*
X172210454Y-136127694D01*
X172210454Y-136127692D01*
X172210456Y-136127690D01*
X172266313Y-135968059D01*
X172266313Y-135968058D01*
X172266314Y-135968056D01*
X172285249Y-135800002D01*
X172285249Y-135799997D01*
X172266314Y-135631943D01*
X172220824Y-135501941D01*
X172210456Y-135472310D01*
X172210455Y-135472309D01*
X172210454Y-135472305D01*
X172210452Y-135472302D01*
X172120481Y-135329115D01*
X172120476Y-135329109D01*
X172101364Y-135309997D01*
X177934751Y-135309997D01*
X177934751Y-135310002D01*
X177953685Y-135478056D01*
X178009545Y-135637694D01*
X178009547Y-135637697D01*
X178099518Y-135780884D01*
X178099523Y-135780890D01*
X178219109Y-135900476D01*
X178219115Y-135900481D01*
X178362302Y-135990452D01*
X178362305Y-135990454D01*
X178362309Y-135990455D01*
X178362310Y-135990456D01*
X178383004Y-135997697D01*
X178521943Y-136046314D01*
X178689997Y-136065249D01*
X178690000Y-136065249D01*
X178690003Y-136065249D01*
X178858056Y-136046314D01*
X178858059Y-136046313D01*
X179017690Y-135990456D01*
X179017692Y-135990454D01*
X179017694Y-135990454D01*
X179017697Y-135990452D01*
X179160884Y-135900481D01*
X179160885Y-135900480D01*
X179160890Y-135900477D01*
X179280477Y-135780890D01*
X179286463Y-135771364D01*
X179370452Y-135637697D01*
X179370454Y-135637694D01*
X179370454Y-135637692D01*
X179370456Y-135637690D01*
X179426313Y-135478059D01*
X179426313Y-135478058D01*
X179426314Y-135478056D01*
X179445249Y-135310002D01*
X179445249Y-135309997D01*
X179426314Y-135141943D01*
X179387302Y-135030454D01*
X179370456Y-134982310D01*
X179370455Y-134982309D01*
X179370454Y-134982305D01*
X179370452Y-134982302D01*
X179280481Y-134839115D01*
X179280476Y-134839109D01*
X179160890Y-134719523D01*
X179160884Y-134719518D01*
X179017697Y-134629547D01*
X179017694Y-134629545D01*
X178858056Y-134573685D01*
X178690003Y-134554751D01*
X178689997Y-134554751D01*
X178521943Y-134573685D01*
X178362305Y-134629545D01*
X178362302Y-134629547D01*
X178219115Y-134719518D01*
X178219109Y-134719523D01*
X178099523Y-134839109D01*
X178099518Y-134839115D01*
X178009547Y-134982302D01*
X178009545Y-134982305D01*
X177953685Y-135141943D01*
X177934751Y-135309997D01*
X172101364Y-135309997D01*
X172000890Y-135209523D01*
X172000884Y-135209518D01*
X171857697Y-135119547D01*
X171857694Y-135119545D01*
X171698056Y-135063685D01*
X171530003Y-135044751D01*
X171529997Y-135044751D01*
X171361943Y-135063685D01*
X171202305Y-135119545D01*
X171202302Y-135119547D01*
X171059115Y-135209518D01*
X171059109Y-135209523D01*
X170939523Y-135329109D01*
X170939518Y-135329115D01*
X170849547Y-135472302D01*
X170849545Y-135472305D01*
X170793685Y-135631943D01*
X170774751Y-135799997D01*
X167471370Y-135799997D01*
X167570477Y-135700890D01*
X167583890Y-135679544D01*
X167660452Y-135557697D01*
X167660454Y-135557694D01*
X167660454Y-135557692D01*
X167660456Y-135557690D01*
X167716313Y-135398059D01*
X167716313Y-135398058D01*
X167716314Y-135398056D01*
X167735249Y-135230002D01*
X167735249Y-135229997D01*
X167716314Y-135061943D01*
X167680871Y-134960652D01*
X167660456Y-134902310D01*
X167660455Y-134902309D01*
X167660454Y-134902305D01*
X167660452Y-134902302D01*
X167570481Y-134759115D01*
X167570476Y-134759109D01*
X167450890Y-134639523D01*
X167450884Y-134639518D01*
X167307697Y-134549547D01*
X167307694Y-134549545D01*
X167148056Y-134493685D01*
X166980003Y-134474751D01*
X166979997Y-134474751D01*
X166811943Y-134493685D01*
X166652305Y-134549545D01*
X166652302Y-134549547D01*
X166509115Y-134639518D01*
X166509109Y-134639523D01*
X166389523Y-134759109D01*
X166389518Y-134759115D01*
X166299547Y-134902302D01*
X166299545Y-134902305D01*
X166243685Y-135061943D01*
X166224751Y-135229997D01*
X166224751Y-135230002D01*
X166243685Y-135398056D01*
X166299545Y-135557694D01*
X166299546Y-135557695D01*
X166318036Y-135587122D01*
X166337036Y-135654359D01*
X166316668Y-135721194D01*
X166263399Y-135766407D01*
X166248506Y-135771364D01*
X166248514Y-135771387D01*
X166082305Y-135829545D01*
X166082302Y-135829547D01*
X165939115Y-135919518D01*
X165939109Y-135919523D01*
X165819523Y-136039109D01*
X165819518Y-136039115D01*
X165729547Y-136182302D01*
X165729545Y-136182305D01*
X165673685Y-136341943D01*
X165654751Y-136509997D01*
X165654751Y-136510002D01*
X165673685Y-136678056D01*
X165729545Y-136837694D01*
X165729547Y-136837697D01*
X165819518Y-136980884D01*
X165819523Y-136980890D01*
X165941731Y-137103098D01*
X165975216Y-137164421D01*
X165970232Y-137234113D01*
X165933801Y-137284366D01*
X165934034Y-137284599D01*
X165932573Y-137286059D01*
X165931369Y-137287721D01*
X165929111Y-137289521D01*
X165809523Y-137409109D01*
X165809518Y-137409115D01*
X165719547Y-137552302D01*
X165719545Y-137552305D01*
X165663685Y-137711943D01*
X165644751Y-137879997D01*
X155687136Y-137879997D01*
X155691313Y-137868059D01*
X155691313Y-137868058D01*
X155691314Y-137868056D01*
X155710249Y-137700002D01*
X155710249Y-137699997D01*
X155691314Y-137531943D01*
X155660860Y-137444913D01*
X155635456Y-137372310D01*
X155635455Y-137372309D01*
X155635454Y-137372305D01*
X155635452Y-137372302D01*
X155545481Y-137229115D01*
X155545476Y-137229109D01*
X155425890Y-137109523D01*
X155425884Y-137109518D01*
X155282697Y-137019547D01*
X155282694Y-137019545D01*
X155123056Y-136963685D01*
X154955003Y-136944751D01*
X154954997Y-136944751D01*
X154786943Y-136963685D01*
X154627305Y-137019545D01*
X154627302Y-137019547D01*
X154484115Y-137109518D01*
X154484109Y-137109523D01*
X154364523Y-137229109D01*
X154364518Y-137229115D01*
X154274547Y-137372302D01*
X154274545Y-137372305D01*
X154218685Y-137531943D01*
X154199751Y-137699997D01*
X150200500Y-137699997D01*
X150200500Y-136359997D01*
X157624751Y-136359997D01*
X157624751Y-136360002D01*
X157643685Y-136528056D01*
X157699545Y-136687694D01*
X157699547Y-136687697D01*
X157789518Y-136830884D01*
X157789523Y-136830890D01*
X157909109Y-136950476D01*
X157909115Y-136950481D01*
X158052302Y-137040452D01*
X158052305Y-137040454D01*
X158052309Y-137040455D01*
X158052310Y-137040456D01*
X158124913Y-137065860D01*
X158211943Y-137096314D01*
X158379997Y-137115249D01*
X158380000Y-137115249D01*
X158380003Y-137115249D01*
X158548056Y-137096314D01*
X158548059Y-137096313D01*
X158707690Y-137040456D01*
X158707692Y-137040454D01*
X158707694Y-137040454D01*
X158707697Y-137040452D01*
X158850884Y-136950481D01*
X158850885Y-136950480D01*
X158850890Y-136950477D01*
X158970477Y-136830890D01*
X159060452Y-136687697D01*
X159060454Y-136687694D01*
X159060454Y-136687692D01*
X159060456Y-136687690D01*
X159116313Y-136528059D01*
X159116313Y-136528058D01*
X159116314Y-136528056D01*
X159135249Y-136360002D01*
X159135249Y-136359997D01*
X159116314Y-136191943D01*
X159060454Y-136032305D01*
X159060452Y-136032302D01*
X158970481Y-135889115D01*
X158970476Y-135889109D01*
X158850890Y-135769523D01*
X158850884Y-135769518D01*
X158707697Y-135679547D01*
X158707694Y-135679545D01*
X158548056Y-135623685D01*
X158380003Y-135604751D01*
X158379997Y-135604751D01*
X158211943Y-135623685D01*
X158052305Y-135679545D01*
X158052302Y-135679547D01*
X157909115Y-135769518D01*
X157909109Y-135769523D01*
X157789523Y-135889109D01*
X157789518Y-135889115D01*
X157699547Y-136032302D01*
X157699545Y-136032305D01*
X157643685Y-136191943D01*
X157624751Y-136359997D01*
X150200500Y-136359997D01*
X150200500Y-134349997D01*
X155219751Y-134349997D01*
X155219751Y-134350002D01*
X155238685Y-134518056D01*
X155294545Y-134677694D01*
X155294547Y-134677697D01*
X155384518Y-134820884D01*
X155384523Y-134820890D01*
X155504109Y-134940476D01*
X155504115Y-134940481D01*
X155647302Y-135030452D01*
X155647305Y-135030454D01*
X155647309Y-135030455D01*
X155647310Y-135030456D01*
X155683139Y-135042993D01*
X155806943Y-135086314D01*
X155974997Y-135105249D01*
X155975000Y-135105249D01*
X155975003Y-135105249D01*
X156143056Y-135086314D01*
X156143059Y-135086313D01*
X156302690Y-135030456D01*
X156302692Y-135030454D01*
X156302694Y-135030454D01*
X156302697Y-135030452D01*
X156445884Y-134940481D01*
X156445885Y-134940480D01*
X156445890Y-134940477D01*
X156565477Y-134820890D01*
X156565481Y-134820884D01*
X156655452Y-134677697D01*
X156655454Y-134677694D01*
X156655454Y-134677692D01*
X156655456Y-134677690D01*
X156711313Y-134518059D01*
X156711313Y-134518058D01*
X156711314Y-134518056D01*
X156730249Y-134350002D01*
X156730249Y-134349997D01*
X156725742Y-134309997D01*
X162884751Y-134309997D01*
X162884751Y-134310002D01*
X162903685Y-134478056D01*
X162959545Y-134637694D01*
X162959547Y-134637697D01*
X163049518Y-134780884D01*
X163049523Y-134780890D01*
X163169110Y-134900477D01*
X163183322Y-134909407D01*
X163227244Y-134937006D01*
X163273535Y-134989341D01*
X163284182Y-135058394D01*
X163255807Y-135122243D01*
X163248953Y-135129680D01*
X163179518Y-135199115D01*
X163089547Y-135342302D01*
X163089545Y-135342305D01*
X163033685Y-135501943D01*
X163014751Y-135669997D01*
X163014751Y-135670002D01*
X163033685Y-135838056D01*
X163089545Y-135997694D01*
X163089547Y-135997697D01*
X163179518Y-136140884D01*
X163179523Y-136140890D01*
X163299109Y-136260476D01*
X163299115Y-136260481D01*
X163442302Y-136350452D01*
X163442305Y-136350454D01*
X163442309Y-136350455D01*
X163442310Y-136350456D01*
X163469591Y-136360002D01*
X163601943Y-136406314D01*
X163769997Y-136425249D01*
X163770000Y-136425249D01*
X163770003Y-136425249D01*
X163938056Y-136406314D01*
X163938059Y-136406313D01*
X164097690Y-136350456D01*
X164097692Y-136350454D01*
X164097694Y-136350454D01*
X164097697Y-136350452D01*
X164240884Y-136260481D01*
X164240885Y-136260480D01*
X164240890Y-136260477D01*
X164360477Y-136140890D01*
X164368771Y-136127690D01*
X164450452Y-135997697D01*
X164450454Y-135997694D01*
X164450454Y-135997692D01*
X164450456Y-135997690D01*
X164506313Y-135838059D01*
X164506313Y-135838058D01*
X164506314Y-135838056D01*
X164525249Y-135670002D01*
X164525249Y-135669997D01*
X164506314Y-135501943D01*
X164450454Y-135342305D01*
X164450452Y-135342302D01*
X164360481Y-135199115D01*
X164360476Y-135199109D01*
X164240890Y-135079523D01*
X164240887Y-135079521D01*
X164182755Y-135042993D01*
X164136464Y-134990658D01*
X164125817Y-134921604D01*
X164154193Y-134857756D01*
X164161023Y-134850343D01*
X164230477Y-134780890D01*
X164244159Y-134759115D01*
X164320452Y-134637697D01*
X164320454Y-134637694D01*
X164320454Y-134637692D01*
X164320456Y-134637690D01*
X164376313Y-134478059D01*
X164376313Y-134478058D01*
X164376314Y-134478056D01*
X164395249Y-134310002D01*
X164395249Y-134309997D01*
X164376314Y-134141943D01*
X164373009Y-134132497D01*
X182107251Y-134132497D01*
X182107251Y-134132502D01*
X182126185Y-134300556D01*
X182182045Y-134460194D01*
X182182047Y-134460197D01*
X182272018Y-134603384D01*
X182272023Y-134603390D01*
X182391609Y-134722976D01*
X182391615Y-134722981D01*
X182534802Y-134812952D01*
X182534805Y-134812954D01*
X182534809Y-134812955D01*
X182534810Y-134812956D01*
X182607413Y-134838360D01*
X182694443Y-134868814D01*
X182862497Y-134887749D01*
X182862500Y-134887749D01*
X182862503Y-134887749D01*
X183030556Y-134868814D01*
X183062158Y-134857756D01*
X183190190Y-134812956D01*
X183190192Y-134812954D01*
X183190194Y-134812954D01*
X183190197Y-134812952D01*
X183333384Y-134722981D01*
X183333385Y-134722980D01*
X183333390Y-134722977D01*
X183452977Y-134603390D01*
X183486809Y-134549547D01*
X183542952Y-134460197D01*
X183542954Y-134460194D01*
X183542954Y-134460192D01*
X183542956Y-134460190D01*
X183598813Y-134300559D01*
X183598813Y-134300558D01*
X183598814Y-134300556D01*
X183617749Y-134132502D01*
X183617749Y-134132497D01*
X183598814Y-133964443D01*
X183552082Y-133830890D01*
X183542956Y-133804810D01*
X183542955Y-133804809D01*
X183542954Y-133804805D01*
X183542952Y-133804802D01*
X183452981Y-133661615D01*
X183452976Y-133661609D01*
X183333390Y-133542023D01*
X183333384Y-133542018D01*
X183190197Y-133452047D01*
X183190194Y-133452045D01*
X183030556Y-133396185D01*
X182862503Y-133377251D01*
X182862497Y-133377251D01*
X182694443Y-133396185D01*
X182534805Y-133452045D01*
X182534802Y-133452047D01*
X182391615Y-133542018D01*
X182391609Y-133542023D01*
X182272023Y-133661609D01*
X182272018Y-133661615D01*
X182182047Y-133804802D01*
X182182045Y-133804805D01*
X182126185Y-133964443D01*
X182107251Y-134132497D01*
X164373009Y-134132497D01*
X164340801Y-134040452D01*
X164320456Y-133982310D01*
X164320455Y-133982309D01*
X164320454Y-133982305D01*
X164320452Y-133982302D01*
X164230481Y-133839115D01*
X164230476Y-133839109D01*
X164110890Y-133719523D01*
X164110884Y-133719518D01*
X163967697Y-133629547D01*
X163967694Y-133629545D01*
X163808056Y-133573685D01*
X163640003Y-133554751D01*
X163639997Y-133554751D01*
X163471943Y-133573685D01*
X163312305Y-133629545D01*
X163312302Y-133629547D01*
X163169115Y-133719518D01*
X163169109Y-133719523D01*
X163049523Y-133839109D01*
X163049518Y-133839115D01*
X162959547Y-133982302D01*
X162959545Y-133982305D01*
X162903685Y-134141943D01*
X162884751Y-134309997D01*
X156725742Y-134309997D01*
X156711314Y-134181943D01*
X156680860Y-134094913D01*
X156655456Y-134022310D01*
X156655455Y-134022309D01*
X156655454Y-134022305D01*
X156655452Y-134022302D01*
X156565481Y-133879115D01*
X156565476Y-133879109D01*
X156445890Y-133759523D01*
X156445884Y-133759518D01*
X156302697Y-133669547D01*
X156302694Y-133669545D01*
X156143056Y-133613685D01*
X155975003Y-133594751D01*
X155974997Y-133594751D01*
X155806943Y-133613685D01*
X155647305Y-133669545D01*
X155647302Y-133669547D01*
X155504115Y-133759518D01*
X155504109Y-133759523D01*
X155384523Y-133879109D01*
X155384518Y-133879115D01*
X155294547Y-134022302D01*
X155294545Y-134022305D01*
X155238685Y-134181943D01*
X155219751Y-134349997D01*
X150200500Y-134349997D01*
X150200500Y-133359997D01*
X158864751Y-133359997D01*
X158864751Y-133360002D01*
X158883685Y-133528056D01*
X158939545Y-133687694D01*
X158939547Y-133687697D01*
X159029518Y-133830884D01*
X159029523Y-133830890D01*
X159149109Y-133950476D01*
X159149115Y-133950481D01*
X159292302Y-134040452D01*
X159292305Y-134040454D01*
X159292309Y-134040455D01*
X159292310Y-134040456D01*
X159364913Y-134065860D01*
X159451943Y-134096314D01*
X159619997Y-134115249D01*
X159620000Y-134115249D01*
X159620003Y-134115249D01*
X159788056Y-134096314D01*
X159788059Y-134096313D01*
X159947690Y-134040456D01*
X159947692Y-134040454D01*
X159947694Y-134040454D01*
X159947697Y-134040452D01*
X160090884Y-133950481D01*
X160090885Y-133950480D01*
X160090890Y-133950477D01*
X160210477Y-133830890D01*
X160226864Y-133804810D01*
X160300452Y-133687697D01*
X160300454Y-133687694D01*
X160300454Y-133687692D01*
X160300456Y-133687690D01*
X160356313Y-133528059D01*
X160356313Y-133528058D01*
X160356314Y-133528056D01*
X160375249Y-133360002D01*
X160375249Y-133359997D01*
X160356314Y-133191943D01*
X160300454Y-133032305D01*
X160300452Y-133032302D01*
X160210481Y-132889115D01*
X160210476Y-132889109D01*
X160090890Y-132769523D01*
X160090884Y-132769518D01*
X159947697Y-132679547D01*
X159947694Y-132679545D01*
X159788056Y-132623685D01*
X159620003Y-132604751D01*
X159619997Y-132604751D01*
X159451943Y-132623685D01*
X159292305Y-132679545D01*
X159292302Y-132679547D01*
X159149115Y-132769518D01*
X159149109Y-132769523D01*
X159029523Y-132889109D01*
X159029518Y-132889115D01*
X158939547Y-133032302D01*
X158939545Y-133032305D01*
X158883685Y-133191943D01*
X158864751Y-133359997D01*
X150200500Y-133359997D01*
X150200500Y-131209997D01*
X163774751Y-131209997D01*
X163774751Y-131210002D01*
X163793685Y-131378056D01*
X163849545Y-131537694D01*
X163849547Y-131537697D01*
X163939518Y-131680884D01*
X163939523Y-131680890D01*
X164059109Y-131800476D01*
X164059115Y-131800481D01*
X164202302Y-131890452D01*
X164202305Y-131890454D01*
X164202309Y-131890455D01*
X164202310Y-131890456D01*
X164274913Y-131915860D01*
X164361943Y-131946314D01*
X164529997Y-131965249D01*
X164530000Y-131965249D01*
X164530003Y-131965249D01*
X164698056Y-131946314D01*
X164698059Y-131946313D01*
X164857690Y-131890456D01*
X164857692Y-131890454D01*
X164857694Y-131890454D01*
X164857697Y-131890452D01*
X165000884Y-131800481D01*
X165000885Y-131800480D01*
X165000890Y-131800477D01*
X165120477Y-131680890D01*
X165210452Y-131537697D01*
X165210454Y-131537694D01*
X165210454Y-131537692D01*
X165210456Y-131537690D01*
X165266313Y-131378059D01*
X165266313Y-131378058D01*
X165266314Y-131378056D01*
X165285249Y-131210002D01*
X165285249Y-131209997D01*
X165266314Y-131041943D01*
X165235860Y-130954913D01*
X165210456Y-130882310D01*
X165210455Y-130882309D01*
X165210454Y-130882305D01*
X165207434Y-130876034D01*
X165210282Y-130874662D01*
X165195036Y-130820870D01*
X165215351Y-130754019D01*
X165268583Y-130708763D01*
X165332915Y-130698817D01*
X165389998Y-130705249D01*
X165390000Y-130705249D01*
X165390003Y-130705249D01*
X165558056Y-130686314D01*
X165558059Y-130686313D01*
X165717690Y-130630456D01*
X165816619Y-130568294D01*
X165883853Y-130549294D01*
X165950689Y-130569661D01*
X165995903Y-130622928D01*
X166005810Y-130659404D01*
X166023685Y-130818056D01*
X166079545Y-130977694D01*
X166079547Y-130977697D01*
X166169518Y-131120884D01*
X166169523Y-131120890D01*
X166289109Y-131240476D01*
X166289115Y-131240481D01*
X166432302Y-131330452D01*
X166432305Y-131330454D01*
X166432309Y-131330455D01*
X166432310Y-131330456D01*
X166504913Y-131355860D01*
X166591943Y-131386314D01*
X166759997Y-131405249D01*
X166760000Y-131405249D01*
X166760003Y-131405249D01*
X166928056Y-131386314D01*
X166928059Y-131386313D01*
X167087690Y-131330456D01*
X167087692Y-131330454D01*
X167087694Y-131330454D01*
X167087697Y-131330452D01*
X167230884Y-131240481D01*
X167230885Y-131240480D01*
X167230890Y-131240477D01*
X167350477Y-131120890D01*
X167400083Y-131041943D01*
X167440452Y-130977697D01*
X167440454Y-130977694D01*
X167440454Y-130977692D01*
X167440456Y-130977690D01*
X167496313Y-130818059D01*
X167496313Y-130818058D01*
X167496314Y-130818056D01*
X167515249Y-130650002D01*
X167515249Y-130649997D01*
X167496314Y-130481943D01*
X167446400Y-130339297D01*
X167440456Y-130322310D01*
X167440455Y-130322309D01*
X167440454Y-130322305D01*
X167440452Y-130322302D01*
X167350481Y-130179115D01*
X167350476Y-130179109D01*
X167230890Y-130059523D01*
X167230884Y-130059518D01*
X167087697Y-129969547D01*
X167087694Y-129969545D01*
X166928056Y-129913685D01*
X166760003Y-129894751D01*
X166759997Y-129894751D01*
X166591943Y-129913685D01*
X166432307Y-129969545D01*
X166333381Y-130031705D01*
X166266144Y-130050705D01*
X166199309Y-130030337D01*
X166154095Y-129977069D01*
X166144189Y-129940594D01*
X166126314Y-129781944D01*
X166111469Y-129739518D01*
X166070456Y-129622310D01*
X166070455Y-129622309D01*
X166070454Y-129622305D01*
X166070452Y-129622302D01*
X165980481Y-129479115D01*
X165980476Y-129479109D01*
X165860890Y-129359523D01*
X165860884Y-129359518D01*
X165717697Y-129269547D01*
X165717694Y-129269545D01*
X165558056Y-129213685D01*
X165390003Y-129194751D01*
X165389997Y-129194751D01*
X165221943Y-129213685D01*
X165062305Y-129269545D01*
X165062302Y-129269547D01*
X164919115Y-129359518D01*
X164919109Y-129359523D01*
X164799523Y-129479109D01*
X164799518Y-129479115D01*
X164709547Y-129622302D01*
X164709545Y-129622305D01*
X164653685Y-129781943D01*
X164634751Y-129949997D01*
X164634751Y-129950002D01*
X164653685Y-130118056D01*
X164709545Y-130277694D01*
X164712566Y-130283966D01*
X164709742Y-130285325D01*
X164724961Y-130339297D01*
X164704556Y-130406121D01*
X164651262Y-130451304D01*
X164587085Y-130461182D01*
X164530004Y-130454751D01*
X164529997Y-130454751D01*
X164361943Y-130473685D01*
X164202305Y-130529545D01*
X164202302Y-130529547D01*
X164059115Y-130619518D01*
X164059109Y-130619523D01*
X163939523Y-130739109D01*
X163939518Y-130739115D01*
X163849547Y-130882302D01*
X163849545Y-130882305D01*
X163793685Y-131041943D01*
X163774751Y-131209997D01*
X150200500Y-131209997D01*
X150200500Y-130329997D01*
X155249751Y-130329997D01*
X155249751Y-130330002D01*
X155268685Y-130498056D01*
X155324545Y-130657694D01*
X155324547Y-130657697D01*
X155414518Y-130800884D01*
X155414523Y-130800890D01*
X155534109Y-130920476D01*
X155534115Y-130920481D01*
X155677302Y-131010452D01*
X155677305Y-131010454D01*
X155677309Y-131010455D01*
X155677310Y-131010456D01*
X155749913Y-131035860D01*
X155836943Y-131066314D01*
X156004997Y-131085249D01*
X156005000Y-131085249D01*
X156005003Y-131085249D01*
X156173056Y-131066314D01*
X156173059Y-131066313D01*
X156332690Y-131010456D01*
X156332692Y-131010454D01*
X156332694Y-131010454D01*
X156332697Y-131010452D01*
X156475884Y-130920481D01*
X156475885Y-130920480D01*
X156475890Y-130920477D01*
X156595477Y-130800890D01*
X156659614Y-130698817D01*
X156685452Y-130657697D01*
X156685454Y-130657694D01*
X156685454Y-130657692D01*
X156685456Y-130657690D01*
X156741313Y-130498059D01*
X156741313Y-130498058D01*
X156741314Y-130498056D01*
X156760249Y-130330002D01*
X156760249Y-130329997D01*
X156741314Y-130161943D01*
X156685454Y-130002305D01*
X156685452Y-130002302D01*
X156595481Y-129859115D01*
X156595476Y-129859109D01*
X156475890Y-129739523D01*
X156475884Y-129739518D01*
X156332697Y-129649547D01*
X156332694Y-129649545D01*
X156173056Y-129593685D01*
X156005003Y-129574751D01*
X156004997Y-129574751D01*
X155836943Y-129593685D01*
X155677305Y-129649545D01*
X155677302Y-129649547D01*
X155534115Y-129739518D01*
X155534109Y-129739523D01*
X155414523Y-129859109D01*
X155414518Y-129859115D01*
X155324547Y-130002302D01*
X155324545Y-130002305D01*
X155268685Y-130161943D01*
X155249751Y-130329997D01*
X150200500Y-130329997D01*
X150200500Y-126759997D01*
X154449751Y-126759997D01*
X154449751Y-126760002D01*
X154468685Y-126928056D01*
X154524545Y-127087694D01*
X154524547Y-127087697D01*
X154614518Y-127230884D01*
X154614523Y-127230890D01*
X154734109Y-127350476D01*
X154734115Y-127350481D01*
X154877302Y-127440452D01*
X154877305Y-127440454D01*
X154877309Y-127440455D01*
X154877310Y-127440456D01*
X154926731Y-127457749D01*
X155036943Y-127496314D01*
X155204997Y-127515249D01*
X155205000Y-127515249D01*
X155205003Y-127515249D01*
X155373056Y-127496314D01*
X155397682Y-127487697D01*
X155532690Y-127440456D01*
X155532692Y-127440454D01*
X155532694Y-127440454D01*
X155532697Y-127440452D01*
X155675884Y-127350481D01*
X155675885Y-127350480D01*
X155675890Y-127350477D01*
X155795477Y-127230890D01*
X155827168Y-127180455D01*
X155885452Y-127087697D01*
X155885454Y-127087694D01*
X155885454Y-127087692D01*
X155885456Y-127087690D01*
X155941313Y-126928059D01*
X155941313Y-126928058D01*
X155941314Y-126928056D01*
X155960249Y-126760002D01*
X155960249Y-126759997D01*
X155941314Y-126591943D01*
X155909141Y-126499997D01*
X155885456Y-126432310D01*
X155885455Y-126432309D01*
X155885454Y-126432305D01*
X155885452Y-126432302D01*
X155795481Y-126289115D01*
X155795476Y-126289109D01*
X155675890Y-126169523D01*
X155675884Y-126169518D01*
X155532697Y-126079547D01*
X155532694Y-126079545D01*
X155373056Y-126023685D01*
X155205003Y-126004751D01*
X155204997Y-126004751D01*
X155036943Y-126023685D01*
X154877305Y-126079545D01*
X154877302Y-126079547D01*
X154734115Y-126169518D01*
X154734109Y-126169523D01*
X154614523Y-126289109D01*
X154614518Y-126289115D01*
X154524547Y-126432302D01*
X154524545Y-126432305D01*
X154468685Y-126591943D01*
X154449751Y-126759997D01*
X150200500Y-126759997D01*
X150200500Y-125239997D01*
X159094751Y-125239997D01*
X159094751Y-125240002D01*
X159113685Y-125408056D01*
X159169545Y-125567694D01*
X159169547Y-125567697D01*
X159259518Y-125710884D01*
X159259523Y-125710890D01*
X159379109Y-125830476D01*
X159379115Y-125830481D01*
X159522302Y-125920452D01*
X159522305Y-125920454D01*
X159522309Y-125920455D01*
X159522310Y-125920456D01*
X159575029Y-125938903D01*
X159681943Y-125976314D01*
X159849997Y-125995249D01*
X159850000Y-125995249D01*
X159850003Y-125995249D01*
X160018056Y-125976314D01*
X160018059Y-125976313D01*
X160177690Y-125920456D01*
X160177692Y-125920454D01*
X160177694Y-125920454D01*
X160177697Y-125920452D01*
X160320884Y-125830481D01*
X160320885Y-125830480D01*
X160320890Y-125830477D01*
X160440477Y-125710890D01*
X160458435Y-125682310D01*
X160530452Y-125567697D01*
X160530454Y-125567694D01*
X160530454Y-125567692D01*
X160530456Y-125567690D01*
X160586313Y-125408059D01*
X160586313Y-125408058D01*
X160586314Y-125408056D01*
X160605249Y-125240002D01*
X160605249Y-125239997D01*
X160586314Y-125071943D01*
X160530454Y-124912305D01*
X160530452Y-124912302D01*
X160440481Y-124769115D01*
X160440476Y-124769109D01*
X160320890Y-124649523D01*
X160320884Y-124649518D01*
X160177697Y-124559547D01*
X160177694Y-124559545D01*
X160018056Y-124503685D01*
X159850003Y-124484751D01*
X159849997Y-124484751D01*
X159681943Y-124503685D01*
X159522305Y-124559545D01*
X159522302Y-124559547D01*
X159379115Y-124649518D01*
X159379109Y-124649523D01*
X159259523Y-124769109D01*
X159259518Y-124769115D01*
X159169547Y-124912302D01*
X159169545Y-124912305D01*
X159113685Y-125071943D01*
X159094751Y-125239997D01*
X150200500Y-125239997D01*
X150200500Y-122879997D01*
X159234751Y-122879997D01*
X159234751Y-122880002D01*
X159253685Y-123048056D01*
X159309545Y-123207694D01*
X159309547Y-123207697D01*
X159399518Y-123350884D01*
X159399523Y-123350890D01*
X159519109Y-123470476D01*
X159519115Y-123470481D01*
X159662302Y-123560452D01*
X159662305Y-123560454D01*
X159662309Y-123560455D01*
X159662310Y-123560456D01*
X159734913Y-123585860D01*
X159821943Y-123616314D01*
X159989997Y-123635249D01*
X159990000Y-123635249D01*
X159990003Y-123635249D01*
X160158056Y-123616314D01*
X160158059Y-123616313D01*
X160317690Y-123560456D01*
X160317692Y-123560454D01*
X160317694Y-123560454D01*
X160317697Y-123560452D01*
X160460884Y-123470481D01*
X160460884Y-123470480D01*
X160460890Y-123470477D01*
X160516667Y-123414699D01*
X160577986Y-123381217D01*
X160647678Y-123386201D01*
X160703612Y-123428072D01*
X160728029Y-123493536D01*
X160727565Y-123516266D01*
X160714751Y-123629996D01*
X160714751Y-123630002D01*
X160733685Y-123798056D01*
X160789545Y-123957694D01*
X160789547Y-123957697D01*
X160879518Y-124100884D01*
X160879523Y-124100890D01*
X160999109Y-124220476D01*
X160999115Y-124220481D01*
X161142302Y-124310452D01*
X161142305Y-124310454D01*
X161142309Y-124310455D01*
X161142310Y-124310456D01*
X161277298Y-124357690D01*
X161301944Y-124366314D01*
X161368361Y-124373796D01*
X161430338Y-124380779D01*
X161472740Y-124393511D01*
X161512979Y-124414012D01*
X161512982Y-124414013D01*
X161512990Y-124414016D01*
X161669324Y-124464801D01*
X161669328Y-124464801D01*
X161669335Y-124464804D01*
X161831711Y-124490508D01*
X161913904Y-124490500D01*
X161913912Y-124490500D01*
X163748267Y-124490500D01*
X163818131Y-124490500D01*
X163824214Y-124490649D01*
X164084201Y-124503419D01*
X164096304Y-124504611D01*
X164350764Y-124542356D01*
X164362695Y-124544729D01*
X164612236Y-124607234D01*
X164623870Y-124610764D01*
X164678119Y-124630175D01*
X164734608Y-124671294D01*
X164759899Y-124736426D01*
X164745962Y-124804891D01*
X164724026Y-124834607D01*
X164639518Y-124919115D01*
X164549547Y-125062302D01*
X164549542Y-125062313D01*
X164510492Y-125173912D01*
X164469771Y-125230688D01*
X164407335Y-125256177D01*
X164251944Y-125273685D01*
X164092305Y-125329545D01*
X164092302Y-125329547D01*
X163949115Y-125419518D01*
X163949109Y-125419523D01*
X163829523Y-125539109D01*
X163829518Y-125539115D01*
X163739547Y-125682302D01*
X163739545Y-125682305D01*
X163683685Y-125841943D01*
X163664751Y-126009997D01*
X163664751Y-126010003D01*
X163670217Y-126058517D01*
X163658162Y-126127339D01*
X163610813Y-126178718D01*
X163543203Y-126196342D01*
X163476797Y-126174615D01*
X163459316Y-126160081D01*
X163423995Y-126124760D01*
X163390510Y-126063437D01*
X163388457Y-126050973D01*
X163386313Y-126031941D01*
X163330456Y-125872310D01*
X163330453Y-125872305D01*
X163330452Y-125872302D01*
X163240481Y-125729115D01*
X163240476Y-125729109D01*
X163120890Y-125609523D01*
X163120884Y-125609518D01*
X162977697Y-125519547D01*
X162977694Y-125519545D01*
X162818056Y-125463685D01*
X162650003Y-125444751D01*
X162649997Y-125444751D01*
X162481943Y-125463685D01*
X162322305Y-125519545D01*
X162322302Y-125519547D01*
X162179115Y-125609518D01*
X162179109Y-125609523D01*
X162059523Y-125729109D01*
X162059518Y-125729115D01*
X161969547Y-125872302D01*
X161969545Y-125872305D01*
X161913685Y-126031943D01*
X161894751Y-126199997D01*
X161894751Y-126200002D01*
X161913685Y-126368056D01*
X161969545Y-126527694D01*
X161969547Y-126527697D01*
X162059518Y-126670884D01*
X162059523Y-126670890D01*
X162179109Y-126790476D01*
X162179115Y-126790481D01*
X162322302Y-126880452D01*
X162322308Y-126880455D01*
X162322310Y-126880456D01*
X162481941Y-126936313D01*
X162500961Y-126938455D01*
X162565373Y-126965520D01*
X162574760Y-126973995D01*
X162634056Y-127033291D01*
X162634074Y-127033324D01*
X162754559Y-127153808D01*
X162848365Y-127228614D01*
X162940706Y-127302254D01*
X163142308Y-127428928D01*
X163356826Y-127532232D01*
X163581561Y-127610868D01*
X163644745Y-127625288D01*
X163767492Y-127653304D01*
X163828470Y-127687412D01*
X163861329Y-127749073D01*
X163855634Y-127818710D01*
X163851624Y-127827989D01*
X163849546Y-127832303D01*
X163793685Y-127991943D01*
X163774751Y-128159997D01*
X163774751Y-128160002D01*
X163793685Y-128328056D01*
X163849545Y-128487694D01*
X163849547Y-128487697D01*
X163939518Y-128630884D01*
X163939523Y-128630890D01*
X164059109Y-128750476D01*
X164059115Y-128750481D01*
X164202302Y-128840452D01*
X164202305Y-128840454D01*
X164202309Y-128840455D01*
X164202310Y-128840456D01*
X164274913Y-128865860D01*
X164361943Y-128896314D01*
X164529997Y-128915249D01*
X164530000Y-128915249D01*
X164530003Y-128915249D01*
X164698056Y-128896314D01*
X164698059Y-128896313D01*
X164857690Y-128840456D01*
X164857692Y-128840454D01*
X164857694Y-128840454D01*
X164857697Y-128840452D01*
X165000884Y-128750481D01*
X165000885Y-128750480D01*
X165000890Y-128750477D01*
X165120477Y-128630890D01*
X165210452Y-128487697D01*
X165210454Y-128487694D01*
X165210454Y-128487692D01*
X165210456Y-128487690D01*
X165266313Y-128328059D01*
X165266313Y-128328058D01*
X165266314Y-128328056D01*
X165285249Y-128160002D01*
X165285249Y-128159997D01*
X165266313Y-127991942D01*
X165218555Y-127855454D01*
X165214994Y-127785675D01*
X165249723Y-127725048D01*
X165311716Y-127692821D01*
X165335597Y-127690500D01*
X171039896Y-127690500D01*
X171061446Y-127690500D01*
X171061453Y-127690502D01*
X171112810Y-127690502D01*
X171218176Y-127690502D01*
X171218183Y-127690502D01*
X171427127Y-127662993D01*
X171630693Y-127608447D01*
X171825398Y-127527797D01*
X172007910Y-127422423D01*
X172175107Y-127294128D01*
X172195237Y-127273997D01*
X172256557Y-127240511D01*
X172269027Y-127238457D01*
X172288059Y-127236313D01*
X172447690Y-127180456D01*
X172447693Y-127180453D01*
X172447697Y-127180452D01*
X172480251Y-127159997D01*
X175624751Y-127159997D01*
X175624751Y-127160002D01*
X175643685Y-127328056D01*
X175699545Y-127487694D01*
X175699547Y-127487697D01*
X175789518Y-127630884D01*
X175789523Y-127630890D01*
X175909109Y-127750476D01*
X175909115Y-127750481D01*
X176052302Y-127840452D01*
X176052305Y-127840454D01*
X176052309Y-127840455D01*
X176052310Y-127840456D01*
X176095172Y-127855454D01*
X176211943Y-127896314D01*
X176379997Y-127915249D01*
X176380000Y-127915249D01*
X176380003Y-127915249D01*
X176548056Y-127896314D01*
X176548059Y-127896313D01*
X176707690Y-127840456D01*
X176707692Y-127840454D01*
X176707694Y-127840454D01*
X176707697Y-127840452D01*
X176850884Y-127750481D01*
X176850885Y-127750480D01*
X176850890Y-127750477D01*
X176970477Y-127630890D01*
X176983058Y-127610868D01*
X177060452Y-127487697D01*
X177060454Y-127487694D01*
X177060454Y-127487692D01*
X177060456Y-127487690D01*
X177116313Y-127328059D01*
X177116313Y-127328058D01*
X177116314Y-127328056D01*
X177135249Y-127160002D01*
X177135249Y-127159997D01*
X177116314Y-126991943D01*
X177077303Y-126880456D01*
X177060456Y-126832310D01*
X177060455Y-126832309D01*
X177060454Y-126832305D01*
X177060452Y-126832302D01*
X176978890Y-126702497D01*
X182087251Y-126702497D01*
X182087251Y-126702502D01*
X182106185Y-126870556D01*
X182162045Y-127030194D01*
X182162047Y-127030197D01*
X182252018Y-127173384D01*
X182252023Y-127173390D01*
X182371609Y-127292976D01*
X182371615Y-127292981D01*
X182514802Y-127382952D01*
X182514805Y-127382954D01*
X182514809Y-127382955D01*
X182514810Y-127382956D01*
X182587413Y-127408360D01*
X182674443Y-127438814D01*
X182842497Y-127457749D01*
X182842500Y-127457749D01*
X182842503Y-127457749D01*
X183010556Y-127438814D01*
X183010559Y-127438813D01*
X183170190Y-127382956D01*
X183170192Y-127382954D01*
X183170194Y-127382954D01*
X183170197Y-127382952D01*
X183313384Y-127292981D01*
X183313385Y-127292980D01*
X183313390Y-127292977D01*
X183432977Y-127173390D01*
X183432981Y-127173384D01*
X183522952Y-127030197D01*
X183522954Y-127030194D01*
X183522954Y-127030192D01*
X183522956Y-127030190D01*
X183578813Y-126870559D01*
X183578813Y-126870558D01*
X183578814Y-126870556D01*
X183597749Y-126702502D01*
X183597749Y-126702497D01*
X183578814Y-126534443D01*
X183537723Y-126417011D01*
X183522956Y-126374810D01*
X183522955Y-126374809D01*
X183522954Y-126374805D01*
X183522952Y-126374802D01*
X183432981Y-126231615D01*
X183432976Y-126231609D01*
X183313390Y-126112023D01*
X183313384Y-126112018D01*
X183170197Y-126022047D01*
X183170194Y-126022045D01*
X183010556Y-125966185D01*
X182842503Y-125947251D01*
X182842497Y-125947251D01*
X182674443Y-125966185D01*
X182514805Y-126022045D01*
X182514802Y-126022047D01*
X182371615Y-126112018D01*
X182371609Y-126112023D01*
X182252023Y-126231609D01*
X182252018Y-126231615D01*
X182162047Y-126374802D01*
X182162045Y-126374805D01*
X182106185Y-126534443D01*
X182087251Y-126702497D01*
X176978890Y-126702497D01*
X176970481Y-126689115D01*
X176970476Y-126689109D01*
X176850890Y-126569523D01*
X176850884Y-126569518D01*
X176707697Y-126479547D01*
X176707694Y-126479545D01*
X176548056Y-126423685D01*
X176380003Y-126404751D01*
X176379997Y-126404751D01*
X176211943Y-126423685D01*
X176052305Y-126479545D01*
X176052302Y-126479547D01*
X175909115Y-126569518D01*
X175909109Y-126569523D01*
X175789523Y-126689109D01*
X175789518Y-126689115D01*
X175699547Y-126832302D01*
X175699545Y-126832305D01*
X175643685Y-126991943D01*
X175624751Y-127159997D01*
X172480251Y-127159997D01*
X172590884Y-127090481D01*
X172590885Y-127090480D01*
X172590890Y-127090477D01*
X172710477Y-126970890D01*
X172713851Y-126965520D01*
X172800452Y-126827697D01*
X172800454Y-126827694D01*
X172800454Y-126827692D01*
X172800456Y-126827690D01*
X172856313Y-126668059D01*
X172856313Y-126668058D01*
X172856314Y-126668056D01*
X172875249Y-126500002D01*
X172875249Y-126499997D01*
X172856314Y-126331943D01*
X172821206Y-126231610D01*
X172800456Y-126172310D01*
X172800455Y-126172309D01*
X172800454Y-126172305D01*
X172800452Y-126172302D01*
X172710481Y-126029115D01*
X172710476Y-126029109D01*
X172590890Y-125909523D01*
X172590884Y-125909518D01*
X172447697Y-125819547D01*
X172447694Y-125819545D01*
X172288056Y-125763685D01*
X172120003Y-125744751D01*
X172119997Y-125744751D01*
X171951943Y-125763685D01*
X171792305Y-125819545D01*
X171792302Y-125819547D01*
X171649115Y-125909518D01*
X171649109Y-125909523D01*
X171529523Y-126029109D01*
X171529521Y-126029112D01*
X171451876Y-126152681D01*
X171399541Y-126198972D01*
X171330487Y-126209619D01*
X171266639Y-126181243D01*
X171228268Y-126122853D01*
X171223663Y-126072823D01*
X171226600Y-126046763D01*
X171235249Y-125970000D01*
X171235249Y-125969997D01*
X171216314Y-125801943D01*
X171184451Y-125710884D01*
X171160456Y-125642310D01*
X171160455Y-125642309D01*
X171160454Y-125642305D01*
X171160452Y-125642302D01*
X171070481Y-125499115D01*
X171070476Y-125499109D01*
X170950890Y-125379523D01*
X170950884Y-125379518D01*
X170807697Y-125289547D01*
X170807692Y-125289544D01*
X170666106Y-125240002D01*
X170648059Y-125233687D01*
X170629031Y-125231542D01*
X170564619Y-125204474D01*
X170555239Y-125196004D01*
X170440048Y-125080813D01*
X170423053Y-125063818D01*
X170416458Y-125056682D01*
X170318399Y-124941870D01*
X170306965Y-124926132D01*
X170248053Y-124829997D01*
X183784751Y-124829997D01*
X183784751Y-124830002D01*
X183803685Y-124998056D01*
X183859545Y-125157694D01*
X183859547Y-125157697D01*
X183949518Y-125300884D01*
X183949523Y-125300890D01*
X184069109Y-125420476D01*
X184069115Y-125420481D01*
X184212302Y-125510452D01*
X184212305Y-125510454D01*
X184212309Y-125510455D01*
X184212310Y-125510456D01*
X184238285Y-125519545D01*
X184371943Y-125566314D01*
X184539997Y-125585249D01*
X184540000Y-125585249D01*
X184540003Y-125585249D01*
X184708056Y-125566314D01*
X184708059Y-125566313D01*
X184867690Y-125510456D01*
X184867692Y-125510454D01*
X184867694Y-125510454D01*
X184867697Y-125510452D01*
X185010884Y-125420481D01*
X185010885Y-125420480D01*
X185010890Y-125420477D01*
X185130477Y-125300890D01*
X185130481Y-125300884D01*
X185220452Y-125157697D01*
X185220454Y-125157694D01*
X185220454Y-125157692D01*
X185220456Y-125157690D01*
X185276313Y-124998059D01*
X185276313Y-124998058D01*
X185276314Y-124998056D01*
X185295249Y-124830002D01*
X185295249Y-124829997D01*
X185276314Y-124661943D01*
X185234469Y-124542356D01*
X185220456Y-124502310D01*
X185220455Y-124502309D01*
X185220454Y-124502305D01*
X185220452Y-124502302D01*
X185130481Y-124359115D01*
X185130476Y-124359109D01*
X185010890Y-124239523D01*
X185010884Y-124239518D01*
X184867697Y-124149547D01*
X184867694Y-124149545D01*
X184708056Y-124093685D01*
X184540003Y-124074751D01*
X184539997Y-124074751D01*
X184371943Y-124093685D01*
X184212305Y-124149545D01*
X184212302Y-124149547D01*
X184069115Y-124239518D01*
X184069109Y-124239523D01*
X183949523Y-124359109D01*
X183949518Y-124359115D01*
X183859547Y-124502302D01*
X183859545Y-124502305D01*
X183803685Y-124661943D01*
X183784751Y-124829997D01*
X170248053Y-124829997D01*
X170230629Y-124801563D01*
X170221797Y-124784229D01*
X170165889Y-124649256D01*
X170159876Y-124630751D01*
X170157409Y-124620476D01*
X170125769Y-124488691D01*
X170122726Y-124469474D01*
X170122358Y-124464804D01*
X170110882Y-124318982D01*
X170110500Y-124309253D01*
X170110500Y-124029997D01*
X173724751Y-124029997D01*
X173724751Y-124030002D01*
X173743685Y-124198056D01*
X173799545Y-124357694D01*
X173799547Y-124357697D01*
X173889518Y-124500884D01*
X173889523Y-124500890D01*
X174009109Y-124620476D01*
X174009115Y-124620481D01*
X174152302Y-124710452D01*
X174152305Y-124710454D01*
X174152309Y-124710455D01*
X174152310Y-124710456D01*
X174224913Y-124735860D01*
X174311943Y-124766314D01*
X174479997Y-124785249D01*
X174480000Y-124785249D01*
X174480003Y-124785249D01*
X174648056Y-124766314D01*
X174648059Y-124766313D01*
X174807690Y-124710456D01*
X174807692Y-124710454D01*
X174807694Y-124710454D01*
X174807697Y-124710452D01*
X174950884Y-124620481D01*
X174950885Y-124620480D01*
X174950890Y-124620477D01*
X175070477Y-124500890D01*
X175076912Y-124490649D01*
X175160452Y-124357697D01*
X175160454Y-124357694D01*
X175160454Y-124357692D01*
X175160456Y-124357690D01*
X175216313Y-124198059D01*
X175216313Y-124198058D01*
X175216314Y-124198056D01*
X175235249Y-124030002D01*
X175235249Y-124029997D01*
X175216314Y-123861943D01*
X175170868Y-123732065D01*
X175160456Y-123702310D01*
X175160455Y-123702309D01*
X175160454Y-123702305D01*
X175160452Y-123702302D01*
X175070481Y-123559115D01*
X175070476Y-123559109D01*
X174950890Y-123439523D01*
X174950884Y-123439518D01*
X174807697Y-123349547D01*
X174807694Y-123349545D01*
X174648056Y-123293685D01*
X174480003Y-123274751D01*
X174479997Y-123274751D01*
X174311943Y-123293685D01*
X174152305Y-123349545D01*
X174152302Y-123349547D01*
X174009115Y-123439518D01*
X174009109Y-123439523D01*
X173889523Y-123559109D01*
X173889518Y-123559115D01*
X173799547Y-123702302D01*
X173799545Y-123702305D01*
X173743685Y-123861943D01*
X173724751Y-124029997D01*
X170110500Y-124029997D01*
X170110500Y-122799997D01*
X178534751Y-122799997D01*
X178534751Y-122800002D01*
X178553685Y-122968056D01*
X178609545Y-123127694D01*
X178609547Y-123127697D01*
X178699518Y-123270884D01*
X178699523Y-123270890D01*
X178819109Y-123390476D01*
X178819115Y-123390481D01*
X178962302Y-123480452D01*
X178962305Y-123480454D01*
X178962309Y-123480455D01*
X178962310Y-123480456D01*
X178999691Y-123493536D01*
X179121943Y-123536314D01*
X179289997Y-123555249D01*
X179290000Y-123555249D01*
X179290003Y-123555249D01*
X179458056Y-123536314D01*
X179515350Y-123516266D01*
X179617690Y-123480456D01*
X179617692Y-123480454D01*
X179617694Y-123480454D01*
X179617697Y-123480452D01*
X179760884Y-123390481D01*
X179760885Y-123390480D01*
X179760890Y-123390477D01*
X179880477Y-123270890D01*
X179880481Y-123270884D01*
X179970452Y-123127697D01*
X179970454Y-123127694D01*
X179970454Y-123127692D01*
X179970456Y-123127690D01*
X180026313Y-122968059D01*
X180026313Y-122968058D01*
X180026314Y-122968056D01*
X180045249Y-122800002D01*
X180045249Y-122799997D01*
X180036235Y-122719997D01*
X181104751Y-122719997D01*
X181104751Y-122720002D01*
X181123685Y-122888056D01*
X181179545Y-123047694D01*
X181179547Y-123047697D01*
X181269518Y-123190884D01*
X181269523Y-123190890D01*
X181389109Y-123310476D01*
X181389115Y-123310481D01*
X181532302Y-123400452D01*
X181532305Y-123400454D01*
X181532309Y-123400455D01*
X181532310Y-123400456D01*
X181533322Y-123400810D01*
X181691943Y-123456314D01*
X181859997Y-123475249D01*
X181860000Y-123475249D01*
X181860003Y-123475249D01*
X182028056Y-123456314D01*
X182076042Y-123439523D01*
X182187690Y-123400456D01*
X182187692Y-123400454D01*
X182187694Y-123400454D01*
X182187697Y-123400452D01*
X182330884Y-123310481D01*
X182330885Y-123310480D01*
X182330890Y-123310477D01*
X182450477Y-123190890D01*
X182483905Y-123137690D01*
X182540452Y-123047697D01*
X182540454Y-123047694D01*
X182540454Y-123047692D01*
X182540456Y-123047690D01*
X182596313Y-122888059D01*
X182596313Y-122888058D01*
X182596314Y-122888056D01*
X182615249Y-122720002D01*
X182615249Y-122719997D01*
X182596314Y-122551943D01*
X182546336Y-122409115D01*
X182540456Y-122392310D01*
X182540455Y-122392309D01*
X182540454Y-122392305D01*
X182540452Y-122392302D01*
X182457319Y-122259997D01*
X185964751Y-122259997D01*
X185964751Y-122260002D01*
X185983685Y-122428056D01*
X186039545Y-122587694D01*
X186039547Y-122587697D01*
X186129518Y-122730884D01*
X186129523Y-122730890D01*
X186249109Y-122850476D01*
X186249115Y-122850481D01*
X186392302Y-122940452D01*
X186392305Y-122940454D01*
X186392309Y-122940455D01*
X186392310Y-122940456D01*
X186418285Y-122949545D01*
X186551943Y-122996314D01*
X186719997Y-123015249D01*
X186720000Y-123015249D01*
X186720003Y-123015249D01*
X186888056Y-122996314D01*
X186895435Y-122993732D01*
X187047690Y-122940456D01*
X187047692Y-122940454D01*
X187047694Y-122940454D01*
X187047697Y-122940452D01*
X187190884Y-122850481D01*
X187190885Y-122850480D01*
X187190890Y-122850477D01*
X187310477Y-122730890D01*
X187310481Y-122730884D01*
X187400452Y-122587697D01*
X187400454Y-122587694D01*
X187400454Y-122587692D01*
X187400456Y-122587690D01*
X187456313Y-122428059D01*
X187456313Y-122428058D01*
X187456314Y-122428056D01*
X187475249Y-122260002D01*
X187475249Y-122259997D01*
X187456314Y-122091943D01*
X187417453Y-121980884D01*
X187400456Y-121932310D01*
X187400455Y-121932309D01*
X187400454Y-121932305D01*
X187400452Y-121932302D01*
X187310481Y-121789115D01*
X187310476Y-121789109D01*
X187190890Y-121669523D01*
X187190884Y-121669518D01*
X187047697Y-121579547D01*
X187047694Y-121579545D01*
X186888056Y-121523685D01*
X186720003Y-121504751D01*
X186719997Y-121504751D01*
X186551943Y-121523685D01*
X186392305Y-121579545D01*
X186392302Y-121579547D01*
X186249115Y-121669518D01*
X186249109Y-121669523D01*
X186129523Y-121789109D01*
X186129518Y-121789115D01*
X186039547Y-121932302D01*
X186039545Y-121932305D01*
X185983685Y-122091943D01*
X185964751Y-122259997D01*
X182457319Y-122259997D01*
X182450481Y-122249115D01*
X182450476Y-122249109D01*
X182330890Y-122129523D01*
X182330884Y-122129518D01*
X182187697Y-122039547D01*
X182187694Y-122039545D01*
X182028056Y-121983685D01*
X181860003Y-121964751D01*
X181859997Y-121964751D01*
X181691943Y-121983685D01*
X181532305Y-122039545D01*
X181532302Y-122039547D01*
X181389115Y-122129518D01*
X181389109Y-122129523D01*
X181269523Y-122249109D01*
X181269518Y-122249115D01*
X181179547Y-122392302D01*
X181179545Y-122392305D01*
X181123685Y-122551943D01*
X181104751Y-122719997D01*
X180036235Y-122719997D01*
X180026314Y-122631943D01*
X179970454Y-122472305D01*
X179970452Y-122472302D01*
X179880481Y-122329115D01*
X179880476Y-122329109D01*
X179760890Y-122209523D01*
X179760884Y-122209518D01*
X179617697Y-122119547D01*
X179617694Y-122119545D01*
X179458056Y-122063685D01*
X179290003Y-122044751D01*
X179289997Y-122044751D01*
X179121943Y-122063685D01*
X178962305Y-122119545D01*
X178962302Y-122119547D01*
X178819115Y-122209518D01*
X178819109Y-122209523D01*
X178699523Y-122329109D01*
X178699518Y-122329115D01*
X178609547Y-122472302D01*
X178609545Y-122472305D01*
X178553685Y-122631943D01*
X178534751Y-122799997D01*
X170110500Y-122799997D01*
X170110500Y-120847019D01*
X170130185Y-120779980D01*
X170182989Y-120734225D01*
X170248382Y-120723799D01*
X170332947Y-120733327D01*
X170349999Y-120735249D01*
X170350000Y-120735249D01*
X170350003Y-120735249D01*
X170518056Y-120716314D01*
X170567891Y-120698876D01*
X170677690Y-120660456D01*
X170677692Y-120660454D01*
X170677694Y-120660454D01*
X170677697Y-120660452D01*
X170820884Y-120570481D01*
X170820885Y-120570480D01*
X170820890Y-120570477D01*
X170940477Y-120450890D01*
X170940481Y-120450884D01*
X171030452Y-120307697D01*
X171030454Y-120307694D01*
X171030454Y-120307692D01*
X171030456Y-120307690D01*
X171086313Y-120148059D01*
X171086313Y-120148058D01*
X171086314Y-120148056D01*
X171105249Y-119980002D01*
X171105249Y-119979997D01*
X171086314Y-119811943D01*
X171046644Y-119698572D01*
X171030456Y-119652310D01*
X171030455Y-119652309D01*
X171030454Y-119652305D01*
X171030452Y-119652302D01*
X170940481Y-119509115D01*
X170940476Y-119509109D01*
X170820890Y-119389523D01*
X170820884Y-119389518D01*
X170677697Y-119299547D01*
X170677694Y-119299545D01*
X170518056Y-119243685D01*
X170350003Y-119224751D01*
X170349996Y-119224751D01*
X170219409Y-119239464D01*
X170150587Y-119227409D01*
X170099208Y-119180060D01*
X170081908Y-119125973D01*
X170077647Y-119071822D01*
X170059935Y-118959997D01*
X175164751Y-118959997D01*
X175164751Y-118960002D01*
X175183685Y-119128056D01*
X175239545Y-119287694D01*
X175239547Y-119287697D01*
X175329518Y-119430884D01*
X175329523Y-119430890D01*
X175449109Y-119550476D01*
X175449115Y-119550481D01*
X175592302Y-119640452D01*
X175592305Y-119640454D01*
X175592309Y-119640455D01*
X175592310Y-119640456D01*
X175626164Y-119652302D01*
X175751943Y-119696314D01*
X175919997Y-119715249D01*
X175920000Y-119715249D01*
X175920003Y-119715249D01*
X176088056Y-119696314D01*
X176098147Y-119692783D01*
X176247690Y-119640456D01*
X176247692Y-119640454D01*
X176247694Y-119640454D01*
X176247697Y-119640452D01*
X176390884Y-119550481D01*
X176390885Y-119550480D01*
X176390890Y-119550477D01*
X176510477Y-119430890D01*
X176550999Y-119366400D01*
X176600452Y-119287697D01*
X176600454Y-119287694D01*
X176600454Y-119287692D01*
X176600456Y-119287690D01*
X176656313Y-119128059D01*
X176656313Y-119128058D01*
X176656314Y-119128056D01*
X176675249Y-118960002D01*
X176675249Y-118959997D01*
X176656314Y-118791943D01*
X176600454Y-118632305D01*
X176600452Y-118632302D01*
X176510481Y-118489115D01*
X176510476Y-118489109D01*
X176390890Y-118369523D01*
X176390884Y-118369518D01*
X176247697Y-118279547D01*
X176247694Y-118279545D01*
X176088056Y-118223685D01*
X175920003Y-118204751D01*
X175919997Y-118204751D01*
X175751943Y-118223685D01*
X175592305Y-118279545D01*
X175592302Y-118279547D01*
X175449115Y-118369518D01*
X175449109Y-118369523D01*
X175329523Y-118489109D01*
X175329518Y-118489115D01*
X175239547Y-118632302D01*
X175239545Y-118632305D01*
X175183685Y-118791943D01*
X175164751Y-118959997D01*
X170059935Y-118959997D01*
X170012136Y-118658209D01*
X169914376Y-118251011D01*
X169784969Y-117852739D01*
X169624712Y-117465848D01*
X169434595Y-117092723D01*
X169433206Y-117090457D01*
X169336634Y-116932866D01*
X169215789Y-116735664D01*
X168969643Y-116396874D01*
X168969638Y-116396867D01*
X168946689Y-116369997D01*
X184597251Y-116369997D01*
X184597251Y-116370002D01*
X184616185Y-116538056D01*
X184672045Y-116697694D01*
X184672047Y-116697697D01*
X184762018Y-116840884D01*
X184762023Y-116840890D01*
X184881609Y-116960476D01*
X184881615Y-116960481D01*
X185024802Y-117050452D01*
X185024805Y-117050454D01*
X185024809Y-117050455D01*
X185024810Y-117050456D01*
X185097413Y-117075860D01*
X185184443Y-117106314D01*
X185352497Y-117125249D01*
X185352500Y-117125249D01*
X185352503Y-117125249D01*
X185520556Y-117106314D01*
X185559414Y-117092717D01*
X185680190Y-117050456D01*
X185680192Y-117050454D01*
X185680194Y-117050454D01*
X185680197Y-117050452D01*
X185823384Y-116960481D01*
X185823385Y-116960480D01*
X185823390Y-116960477D01*
X185942977Y-116840890D01*
X185942981Y-116840884D01*
X186032952Y-116697697D01*
X186032954Y-116697694D01*
X186032954Y-116697692D01*
X186032956Y-116697690D01*
X186088813Y-116538059D01*
X186088813Y-116538058D01*
X186088814Y-116538056D01*
X186107749Y-116370002D01*
X186107749Y-116369997D01*
X186088814Y-116201943D01*
X186045598Y-116078440D01*
X186032956Y-116042310D01*
X186032955Y-116042309D01*
X186032954Y-116042305D01*
X186032952Y-116042302D01*
X185942981Y-115899115D01*
X185942976Y-115899109D01*
X185823390Y-115779523D01*
X185823384Y-115779518D01*
X185680197Y-115689547D01*
X185680194Y-115689545D01*
X185520556Y-115633685D01*
X185352503Y-115614751D01*
X185352497Y-115614751D01*
X185184443Y-115633685D01*
X185024805Y-115689545D01*
X185024802Y-115689547D01*
X184881615Y-115779518D01*
X184881609Y-115779523D01*
X184762023Y-115899109D01*
X184762018Y-115899115D01*
X184672047Y-116042302D01*
X184672045Y-116042305D01*
X184616185Y-116201943D01*
X184597251Y-116369997D01*
X168946689Y-116369997D01*
X168697679Y-116078446D01*
X168697674Y-116078440D01*
X168612593Y-115993359D01*
X168612581Y-115993345D01*
X168126039Y-115506803D01*
X167513994Y-114894759D01*
X167480510Y-114833437D01*
X167478457Y-114820973D01*
X167476313Y-114801941D01*
X167420456Y-114642310D01*
X167420453Y-114642305D01*
X167420452Y-114642302D01*
X167330481Y-114499115D01*
X167330476Y-114499109D01*
X167210890Y-114379523D01*
X167210884Y-114379518D01*
X167067697Y-114289547D01*
X167067694Y-114289545D01*
X166908056Y-114233685D01*
X166740003Y-114214751D01*
X166739997Y-114214751D01*
X166571943Y-114233685D01*
X166412305Y-114289545D01*
X166412302Y-114289547D01*
X166269115Y-114379518D01*
X166269109Y-114379523D01*
X166149523Y-114499109D01*
X166149518Y-114499115D01*
X166059547Y-114642302D01*
X166059545Y-114642305D01*
X166003685Y-114801943D01*
X165984751Y-114969997D01*
X165984751Y-114970002D01*
X166003685Y-115138056D01*
X166059545Y-115297694D01*
X166059547Y-115297697D01*
X166149518Y-115440884D01*
X166149523Y-115440890D01*
X166269109Y-115560476D01*
X166269115Y-115560481D01*
X166412302Y-115650452D01*
X166412308Y-115650455D01*
X166412310Y-115650456D01*
X166571941Y-115706313D01*
X166590961Y-115708455D01*
X166655373Y-115735520D01*
X166664760Y-115743995D01*
X167698469Y-116777705D01*
X167702210Y-116781613D01*
X167940027Y-117041145D01*
X167946981Y-117049432D01*
X168159627Y-117326558D01*
X168165832Y-117335419D01*
X168353522Y-117630033D01*
X168358930Y-117639401D01*
X168520220Y-117949234D01*
X168524792Y-117959038D01*
X168658468Y-118281760D01*
X168662168Y-118291925D01*
X168767209Y-118625067D01*
X168770009Y-118635516D01*
X168819425Y-118858417D01*
X168814717Y-118928128D01*
X168773068Y-118984228D01*
X168707701Y-119008904D01*
X168639369Y-118994323D01*
X168589768Y-118945114D01*
X168587879Y-118941550D01*
X168581040Y-118928128D01*
X168396392Y-118565725D01*
X168380908Y-118540456D01*
X168174951Y-118204353D01*
X168174944Y-118204343D01*
X168162851Y-118187697D01*
X167925820Y-117861443D01*
X167925813Y-117861435D01*
X167925806Y-117861426D01*
X167650578Y-117539165D01*
X167650568Y-117539155D01*
X167650563Y-117539149D01*
X167563674Y-117452258D01*
X167563671Y-117452254D01*
X167497583Y-117386166D01*
X167444832Y-117333414D01*
X167444821Y-117333404D01*
X166305591Y-116194174D01*
X166305551Y-116194138D01*
X166295805Y-116184392D01*
X166261403Y-116157993D01*
X166137673Y-116063049D01*
X166137668Y-116063046D01*
X166137664Y-116063043D01*
X166004721Y-115986288D01*
X165965053Y-115963385D01*
X165780901Y-115887105D01*
X165780900Y-115887104D01*
X165780896Y-115887103D01*
X165588365Y-115835515D01*
X165386723Y-115808970D01*
X165386900Y-115807621D01*
X165335373Y-115790922D01*
X165237692Y-115729545D01*
X165237691Y-115729544D01*
X165237690Y-115729544D01*
X165177421Y-115708455D01*
X165078056Y-115673685D01*
X164910003Y-115654751D01*
X164910002Y-115654751D01*
X164910000Y-115654751D01*
X164900699Y-115655798D01*
X164872541Y-115658971D01*
X164803719Y-115646914D01*
X164752341Y-115599564D01*
X164734718Y-115531954D01*
X164738084Y-115506815D01*
X164757786Y-115424745D01*
X164763798Y-115406246D01*
X164784264Y-115356837D01*
X164817143Y-115277458D01*
X164825968Y-115260135D01*
X164898812Y-115141264D01*
X164910244Y-115125530D01*
X165003884Y-115015892D01*
X165010486Y-115008750D01*
X165032895Y-114986339D01*
X165032896Y-114986338D01*
X165130240Y-114888993D01*
X165191561Y-114855510D01*
X165204024Y-114853457D01*
X165223059Y-114851313D01*
X165382690Y-114795456D01*
X165382693Y-114795453D01*
X165382697Y-114795452D01*
X165525884Y-114705481D01*
X165525885Y-114705480D01*
X165525890Y-114705477D01*
X165645477Y-114585890D01*
X165700005Y-114499110D01*
X165735452Y-114442697D01*
X165735454Y-114442694D01*
X165735454Y-114442692D01*
X165735456Y-114442690D01*
X165791313Y-114283059D01*
X165791313Y-114283058D01*
X165791314Y-114283056D01*
X165810249Y-114115002D01*
X165810249Y-114114997D01*
X165791314Y-113946943D01*
X165755664Y-113845062D01*
X165735456Y-113787310D01*
X165735455Y-113787309D01*
X165735454Y-113787305D01*
X165735452Y-113787302D01*
X165645481Y-113644115D01*
X165645476Y-113644109D01*
X165525890Y-113524523D01*
X165525884Y-113524518D01*
X165382697Y-113434547D01*
X165382694Y-113434545D01*
X165223056Y-113378685D01*
X165055003Y-113359751D01*
X165054997Y-113359751D01*
X164886943Y-113378685D01*
X164779011Y-113416453D01*
X164727310Y-113434544D01*
X164727308Y-113434544D01*
X164720738Y-113436844D01*
X164719965Y-113434634D01*
X164661886Y-113444187D01*
X164597757Y-113416453D01*
X164558802Y-113358451D01*
X164555432Y-113296926D01*
X164558708Y-113280456D01*
X164575800Y-113194530D01*
X164575800Y-113057470D01*
X164549061Y-112923043D01*
X164502238Y-112810002D01*
X164502236Y-112809997D01*
X177567251Y-112809997D01*
X177567251Y-112810002D01*
X177586185Y-112978056D01*
X177642045Y-113137694D01*
X177642047Y-113137697D01*
X177732018Y-113280884D01*
X177732023Y-113280890D01*
X177851609Y-113400476D01*
X177851615Y-113400481D01*
X177994802Y-113490452D01*
X177994805Y-113490454D01*
X177994809Y-113490455D01*
X177994810Y-113490456D01*
X178067413Y-113515860D01*
X178154443Y-113546314D01*
X178322497Y-113565249D01*
X178322500Y-113565249D01*
X178322503Y-113565249D01*
X178490556Y-113546314D01*
X178490559Y-113546313D01*
X178650190Y-113490456D01*
X178650192Y-113490454D01*
X178650194Y-113490454D01*
X178650197Y-113490452D01*
X178793384Y-113400481D01*
X178793385Y-113400480D01*
X178793390Y-113400477D01*
X178912977Y-113280890D01*
X178913252Y-113280452D01*
X179002952Y-113137697D01*
X179002954Y-113137694D01*
X179002954Y-113137692D01*
X179002956Y-113137690D01*
X179058813Y-112978059D01*
X179058813Y-112978058D01*
X179058814Y-112978056D01*
X179077749Y-112810002D01*
X179077749Y-112809997D01*
X179058814Y-112641943D01*
X179012433Y-112509393D01*
X179002956Y-112482310D01*
X179002955Y-112482309D01*
X179002954Y-112482305D01*
X179002952Y-112482302D01*
X178912981Y-112339115D01*
X178912976Y-112339109D01*
X178793390Y-112219523D01*
X178793384Y-112219518D01*
X178650197Y-112129547D01*
X178650194Y-112129545D01*
X178490556Y-112073685D01*
X178322503Y-112054751D01*
X178322497Y-112054751D01*
X178154443Y-112073685D01*
X177994805Y-112129545D01*
X177994802Y-112129547D01*
X177851615Y-112219518D01*
X177851609Y-112219523D01*
X177732023Y-112339109D01*
X177732018Y-112339115D01*
X177642047Y-112482302D01*
X177642045Y-112482305D01*
X177586185Y-112641943D01*
X177567251Y-112809997D01*
X164502236Y-112809997D01*
X164496613Y-112796421D01*
X164496606Y-112796408D01*
X164420463Y-112682453D01*
X164420460Y-112682449D01*
X164323550Y-112585539D01*
X164323546Y-112585536D01*
X164209591Y-112509393D01*
X164209578Y-112509386D01*
X164082961Y-112456940D01*
X164082949Y-112456937D01*
X163948534Y-112430200D01*
X163948530Y-112430200D01*
X163811470Y-112430200D01*
X163811465Y-112430200D01*
X163677050Y-112456937D01*
X163677038Y-112456940D01*
X163550421Y-112509386D01*
X163550408Y-112509393D01*
X163436453Y-112585536D01*
X163436449Y-112585539D01*
X163339539Y-112682449D01*
X163339536Y-112682453D01*
X163263393Y-112796408D01*
X163263386Y-112796421D01*
X163210940Y-112923038D01*
X163210937Y-112923050D01*
X163184200Y-113057465D01*
X163184200Y-113194534D01*
X163210937Y-113328949D01*
X163210940Y-113328961D01*
X163263386Y-113455578D01*
X163263393Y-113455591D01*
X163339536Y-113569546D01*
X163339539Y-113569550D01*
X163436449Y-113666460D01*
X163436453Y-113666463D01*
X163550408Y-113742606D01*
X163550421Y-113742613D01*
X163652688Y-113784973D01*
X163677043Y-113795061D01*
X163811465Y-113821799D01*
X163811469Y-113821800D01*
X163811470Y-113821800D01*
X163948531Y-113821800D01*
X163948532Y-113821799D01*
X164082957Y-113795061D01*
X164164783Y-113761167D01*
X164234247Y-113753699D01*
X164296727Y-113784973D01*
X164332380Y-113845062D01*
X164329887Y-113914887D01*
X164329275Y-113916680D01*
X164318688Y-113946938D01*
X164318687Y-113946943D01*
X164316543Y-113965966D01*
X164289473Y-114030379D01*
X164281005Y-114039759D01*
X164194204Y-114126560D01*
X164194188Y-114126568D01*
X164069966Y-114250789D01*
X163914948Y-114445177D01*
X163914947Y-114445179D01*
X163782660Y-114655713D01*
X163674781Y-114879726D01*
X163592662Y-115114415D01*
X163592660Y-115114421D01*
X163537336Y-115356819D01*
X163537333Y-115356837D01*
X163509499Y-115603894D01*
X163509499Y-115603897D01*
X163509500Y-115673687D01*
X163509500Y-117640182D01*
X163489815Y-117707221D01*
X163437011Y-117752976D01*
X163367853Y-117762920D01*
X163304297Y-117733895D01*
X163280507Y-117706155D01*
X163199817Y-117577739D01*
X163072262Y-117450184D01*
X162919523Y-117354211D01*
X162749254Y-117294631D01*
X162749249Y-117294630D01*
X162570004Y-117274435D01*
X162569996Y-117274435D01*
X162390750Y-117294630D01*
X162390745Y-117294631D01*
X162220476Y-117354211D01*
X162067737Y-117450184D01*
X161940184Y-117577737D01*
X161844211Y-117730476D01*
X161784631Y-117900745D01*
X161784630Y-117900750D01*
X161764435Y-118079996D01*
X161764435Y-118080003D01*
X161784630Y-118259250D01*
X161784632Y-118259255D01*
X161807339Y-118324148D01*
X161810900Y-118393926D01*
X161777978Y-118452783D01*
X160571465Y-119659298D01*
X160510142Y-119692783D01*
X160497668Y-119694837D01*
X160410750Y-119704630D01*
X160240478Y-119764210D01*
X160087737Y-119860184D01*
X159960184Y-119987737D01*
X159864211Y-120140476D01*
X159804631Y-120310745D01*
X159804630Y-120310750D01*
X159784435Y-120489996D01*
X159784435Y-120490003D01*
X159804630Y-120669249D01*
X159804631Y-120669254D01*
X159864211Y-120839523D01*
X159913481Y-120917935D01*
X159960184Y-120992262D01*
X160087738Y-121119816D01*
X160104457Y-121130321D01*
X160217953Y-121201636D01*
X160240478Y-121215789D01*
X160370561Y-121261307D01*
X160410745Y-121275368D01*
X160410750Y-121275369D01*
X160589996Y-121295565D01*
X160590000Y-121295565D01*
X160590004Y-121295565D01*
X160769249Y-121275369D01*
X160769252Y-121275368D01*
X160769255Y-121275368D01*
X160939522Y-121215789D01*
X161092262Y-121119816D01*
X161219816Y-120992262D01*
X161315789Y-120839522D01*
X161375368Y-120669255D01*
X161385161Y-120582328D01*
X161412226Y-120517917D01*
X161420690Y-120508542D01*
X161784416Y-120144816D01*
X161845737Y-120111333D01*
X161915429Y-120116317D01*
X161971362Y-120158189D01*
X161995779Y-120223653D01*
X161980927Y-120291926D01*
X161977089Y-120298470D01*
X161949546Y-120342304D01*
X161949545Y-120342305D01*
X161893685Y-120501943D01*
X161874751Y-120669997D01*
X161874751Y-120670002D01*
X161893686Y-120838058D01*
X161895660Y-120843699D01*
X161899221Y-120913478D01*
X161866300Y-120972333D01*
X161799518Y-121039115D01*
X161709547Y-121182302D01*
X161709545Y-121182305D01*
X161653685Y-121341943D01*
X161634751Y-121509997D01*
X161634751Y-121510002D01*
X161653685Y-121678056D01*
X161709545Y-121837694D01*
X161709547Y-121837697D01*
X161799518Y-121980884D01*
X161799523Y-121980890D01*
X161919109Y-122100476D01*
X161919115Y-122100481D01*
X162062302Y-122190452D01*
X162062305Y-122190454D01*
X162062309Y-122190455D01*
X162062310Y-122190456D01*
X162116801Y-122209523D01*
X162221943Y-122246314D01*
X162389997Y-122265249D01*
X162390000Y-122265249D01*
X162390003Y-122265249D01*
X162558056Y-122246314D01*
X162558059Y-122246313D01*
X162717690Y-122190456D01*
X162717692Y-122190454D01*
X162717694Y-122190454D01*
X162717697Y-122190452D01*
X162860884Y-122100481D01*
X162860885Y-122100480D01*
X162860890Y-122100477D01*
X162980477Y-121980890D01*
X162993301Y-121960481D01*
X163070452Y-121837697D01*
X163070454Y-121837694D01*
X163070454Y-121837692D01*
X163070456Y-121837690D01*
X163126313Y-121678059D01*
X163126313Y-121678058D01*
X163126314Y-121678056D01*
X163145249Y-121510002D01*
X163145249Y-121509997D01*
X163130771Y-121381508D01*
X163142825Y-121312686D01*
X163190174Y-121261307D01*
X163221898Y-121247849D01*
X163225797Y-121246804D01*
X163225806Y-121246803D01*
X163401192Y-121199808D01*
X163568943Y-121130321D01*
X163726189Y-121039533D01*
X163801239Y-120981943D01*
X163870228Y-120929004D01*
X163870230Y-120929001D01*
X163870238Y-120928996D01*
X163900124Y-120899110D01*
X163900125Y-120899109D01*
X164100357Y-120698876D01*
X164100361Y-120698871D01*
X164119619Y-120679615D01*
X164138782Y-120660452D01*
X164199729Y-120599506D01*
X164341005Y-120422351D01*
X164461558Y-120230493D01*
X164501256Y-120148059D01*
X164559864Y-120026358D01*
X164559865Y-120026354D01*
X164559871Y-120026343D01*
X164634709Y-119812469D01*
X164685130Y-119591561D01*
X164710500Y-119366396D01*
X164710500Y-119253101D01*
X164710500Y-119180188D01*
X164710500Y-119180187D01*
X164710500Y-117281526D01*
X164730185Y-117214487D01*
X164782989Y-117168732D01*
X164848382Y-117158306D01*
X164899481Y-117164063D01*
X164909999Y-117165249D01*
X164910000Y-117165249D01*
X164910003Y-117165249D01*
X165010835Y-117153887D01*
X165078059Y-117146313D01*
X165237690Y-117090456D01*
X165303773Y-117048932D01*
X165371007Y-117029932D01*
X165417192Y-117039363D01*
X165435771Y-117047058D01*
X165463803Y-117063244D01*
X165510600Y-117099154D01*
X165522793Y-117109846D01*
X165568585Y-117155640D01*
X165573956Y-117161011D01*
X165573973Y-117161026D01*
X166649553Y-118236606D01*
X166653273Y-118240491D01*
X166894918Y-118504207D01*
X166901865Y-118512487D01*
X167117940Y-118794090D01*
X167124144Y-118802951D01*
X167314845Y-119102300D01*
X167320254Y-119111669D01*
X167484145Y-119426511D01*
X167488717Y-119436315D01*
X167624545Y-119764245D01*
X167628244Y-119774410D01*
X167734970Y-120112914D01*
X167737770Y-120123363D01*
X167814591Y-120469897D01*
X167816469Y-120480550D01*
X167862793Y-120832447D01*
X167863736Y-120843223D01*
X167879382Y-121201636D01*
X167879500Y-121207044D01*
X167879500Y-124859336D01*
X167860494Y-124925308D01*
X167799544Y-125022309D01*
X167799542Y-125022313D01*
X167763048Y-125126606D01*
X167722326Y-125183382D01*
X167657374Y-125209129D01*
X167617061Y-125206225D01*
X167555171Y-125191367D01*
X167536665Y-125185354D01*
X167375758Y-125118705D01*
X167358426Y-125109875D01*
X167209911Y-125018865D01*
X167194177Y-125007433D01*
X167183201Y-124998059D01*
X167082802Y-124912310D01*
X167058060Y-124891178D01*
X167050911Y-124884569D01*
X166648049Y-124481707D01*
X166648038Y-124481687D01*
X166611729Y-124445378D01*
X166611730Y-124445378D01*
X166489892Y-124323539D01*
X166422252Y-124266782D01*
X166225911Y-124102032D01*
X165943623Y-123904371D01*
X165943620Y-123904369D01*
X165943617Y-123904367D01*
X165759486Y-123798059D01*
X165645181Y-123732065D01*
X165645157Y-123732053D01*
X165332855Y-123586425D01*
X165332847Y-123586422D01*
X165009018Y-123468559D01*
X164891889Y-123437175D01*
X164832229Y-123400810D01*
X164801700Y-123337963D01*
X164809995Y-123268587D01*
X164818990Y-123251427D01*
X164890454Y-123137693D01*
X164890453Y-123137693D01*
X164890456Y-123137690D01*
X164946313Y-122978059D01*
X164946313Y-122978058D01*
X164946314Y-122978056D01*
X164965249Y-122810002D01*
X164965249Y-122809997D01*
X164946314Y-122641943D01*
X164914947Y-122552302D01*
X164890456Y-122482310D01*
X164890455Y-122482309D01*
X164890454Y-122482305D01*
X164890452Y-122482302D01*
X164800481Y-122339115D01*
X164800476Y-122339109D01*
X164680890Y-122219523D01*
X164680884Y-122219518D01*
X164537697Y-122129547D01*
X164537694Y-122129545D01*
X164378056Y-122073685D01*
X164210003Y-122054751D01*
X164209997Y-122054751D01*
X164041943Y-122073685D01*
X163882305Y-122129545D01*
X163882302Y-122129547D01*
X163739115Y-122219518D01*
X163739109Y-122219523D01*
X163619523Y-122339109D01*
X163619518Y-122339115D01*
X163529547Y-122482302D01*
X163529545Y-122482305D01*
X163473685Y-122641943D01*
X163454751Y-122809997D01*
X163454751Y-122810002D01*
X163473686Y-122978059D01*
X163473686Y-122978061D01*
X163524944Y-123124545D01*
X163528506Y-123194324D01*
X163493778Y-123254951D01*
X163431784Y-123287179D01*
X163407903Y-123289500D01*
X162210940Y-123289500D01*
X162143901Y-123269815D01*
X162105947Y-123231473D01*
X162060479Y-123159113D01*
X162060478Y-123159111D01*
X161940890Y-123039523D01*
X161940884Y-123039518D01*
X161797697Y-122949547D01*
X161797694Y-122949545D01*
X161638056Y-122893685D01*
X161470003Y-122874751D01*
X161469997Y-122874751D01*
X161301943Y-122893685D01*
X161142305Y-122949545D01*
X161142302Y-122949547D01*
X160999115Y-123039518D01*
X160943335Y-123095298D01*
X160882011Y-123128782D01*
X160812319Y-123123797D01*
X160756386Y-123081926D01*
X160731970Y-123016461D01*
X160732434Y-122993732D01*
X160734201Y-122978056D01*
X160745249Y-122880000D01*
X160741923Y-122850477D01*
X160726314Y-122711943D01*
X160670454Y-122552305D01*
X160670452Y-122552302D01*
X160580481Y-122409115D01*
X160580476Y-122409109D01*
X160460890Y-122289523D01*
X160460884Y-122289518D01*
X160317697Y-122199547D01*
X160317694Y-122199545D01*
X160158056Y-122143685D01*
X159990003Y-122124751D01*
X159989997Y-122124751D01*
X159821943Y-122143685D01*
X159662305Y-122199545D01*
X159662302Y-122199547D01*
X159519115Y-122289518D01*
X159519109Y-122289523D01*
X159399523Y-122409109D01*
X159399518Y-122409115D01*
X159309547Y-122552302D01*
X159309545Y-122552305D01*
X159253685Y-122711943D01*
X159234751Y-122879997D01*
X150200500Y-122879997D01*
X150200500Y-121369997D01*
X154129751Y-121369997D01*
X154129751Y-121370002D01*
X154148685Y-121538056D01*
X154204545Y-121697694D01*
X154204547Y-121697697D01*
X154294518Y-121840884D01*
X154294523Y-121840890D01*
X154414109Y-121960476D01*
X154414115Y-121960481D01*
X154557302Y-122050452D01*
X154557305Y-122050454D01*
X154557309Y-122050455D01*
X154557310Y-122050456D01*
X154623695Y-122073685D01*
X154716943Y-122106314D01*
X154884997Y-122125249D01*
X154885000Y-122125249D01*
X154885003Y-122125249D01*
X155053056Y-122106314D01*
X155094126Y-122091943D01*
X155212690Y-122050456D01*
X155212692Y-122050454D01*
X155212694Y-122050454D01*
X155212697Y-122050452D01*
X155355884Y-121960481D01*
X155355885Y-121960480D01*
X155355890Y-121960477D01*
X155475477Y-121840890D01*
X155475481Y-121840884D01*
X155565452Y-121697697D01*
X155565454Y-121697694D01*
X155565454Y-121697692D01*
X155565456Y-121697690D01*
X155621313Y-121538059D01*
X155621313Y-121538058D01*
X155621314Y-121538056D01*
X155640249Y-121370002D01*
X155640249Y-121369997D01*
X155621314Y-121201943D01*
X155603137Y-121149997D01*
X158024751Y-121149997D01*
X158024751Y-121150002D01*
X158043685Y-121318056D01*
X158099545Y-121477694D01*
X158099547Y-121477697D01*
X158189518Y-121620884D01*
X158189523Y-121620890D01*
X158309109Y-121740476D01*
X158309115Y-121740481D01*
X158452302Y-121830452D01*
X158452305Y-121830454D01*
X158452309Y-121830455D01*
X158452310Y-121830456D01*
X158473004Y-121837697D01*
X158611943Y-121886314D01*
X158779997Y-121905249D01*
X158780000Y-121905249D01*
X158780003Y-121905249D01*
X158948056Y-121886314D01*
X158948059Y-121886313D01*
X159107690Y-121830456D01*
X159107692Y-121830454D01*
X159107694Y-121830454D01*
X159107697Y-121830452D01*
X159250884Y-121740481D01*
X159250885Y-121740480D01*
X159250890Y-121740477D01*
X159370477Y-121620890D01*
X159396457Y-121579544D01*
X159460452Y-121477697D01*
X159460454Y-121477694D01*
X159460454Y-121477692D01*
X159460456Y-121477690D01*
X159516313Y-121318059D01*
X159516313Y-121318058D01*
X159516314Y-121318056D01*
X159535249Y-121150002D01*
X159535249Y-121149997D01*
X159516314Y-120981943D01*
X159460454Y-120822305D01*
X159460452Y-120822302D01*
X159370481Y-120679115D01*
X159370476Y-120679109D01*
X159250890Y-120559523D01*
X159250884Y-120559518D01*
X159107697Y-120469547D01*
X159107694Y-120469545D01*
X158948056Y-120413685D01*
X158780003Y-120394751D01*
X158779997Y-120394751D01*
X158611943Y-120413685D01*
X158452305Y-120469545D01*
X158452302Y-120469547D01*
X158309115Y-120559518D01*
X158309109Y-120559523D01*
X158189523Y-120679109D01*
X158189518Y-120679115D01*
X158099547Y-120822302D01*
X158099545Y-120822305D01*
X158043685Y-120981943D01*
X158024751Y-121149997D01*
X155603137Y-121149997D01*
X155565454Y-121042305D01*
X155565452Y-121042302D01*
X155475481Y-120899115D01*
X155475476Y-120899109D01*
X155355890Y-120779523D01*
X155355884Y-120779518D01*
X155212697Y-120689547D01*
X155212694Y-120689545D01*
X155053056Y-120633685D01*
X154885003Y-120614751D01*
X154884997Y-120614751D01*
X154716943Y-120633685D01*
X154557305Y-120689545D01*
X154557302Y-120689547D01*
X154414115Y-120779518D01*
X154414109Y-120779523D01*
X154294523Y-120899109D01*
X154294518Y-120899115D01*
X154204547Y-121042302D01*
X154204545Y-121042305D01*
X154148685Y-121201943D01*
X154129751Y-121369997D01*
X150200500Y-121369997D01*
X150200500Y-117859997D01*
X157524751Y-117859997D01*
X157524751Y-117860002D01*
X157543685Y-118028056D01*
X157599545Y-118187694D01*
X157599547Y-118187697D01*
X157689518Y-118330884D01*
X157689523Y-118330890D01*
X157809109Y-118450476D01*
X157809115Y-118450481D01*
X157952302Y-118540452D01*
X157952305Y-118540454D01*
X157952309Y-118540455D01*
X157952310Y-118540456D01*
X158024468Y-118565705D01*
X158111943Y-118596314D01*
X158279997Y-118615249D01*
X158280000Y-118615249D01*
X158280003Y-118615249D01*
X158448056Y-118596314D01*
X158448059Y-118596313D01*
X158607690Y-118540456D01*
X158607692Y-118540454D01*
X158607694Y-118540454D01*
X158607697Y-118540452D01*
X158750884Y-118450481D01*
X158750885Y-118450480D01*
X158750890Y-118450477D01*
X158870477Y-118330890D01*
X158874714Y-118324147D01*
X158960452Y-118187697D01*
X158960454Y-118187694D01*
X158960454Y-118187692D01*
X158960456Y-118187690D01*
X159016313Y-118028059D01*
X159016313Y-118028058D01*
X159016314Y-118028056D01*
X159035249Y-117860002D01*
X159035249Y-117859997D01*
X159016314Y-117691943D01*
X158976352Y-117577738D01*
X158960456Y-117532310D01*
X158960455Y-117532309D01*
X158960454Y-117532305D01*
X158960452Y-117532302D01*
X158870481Y-117389115D01*
X158870476Y-117389109D01*
X158750890Y-117269523D01*
X158750884Y-117269518D01*
X158607697Y-117179547D01*
X158607694Y-117179545D01*
X158448056Y-117123685D01*
X158280003Y-117104751D01*
X158279997Y-117104751D01*
X158111943Y-117123685D01*
X157952305Y-117179545D01*
X157952302Y-117179547D01*
X157809115Y-117269518D01*
X157809109Y-117269523D01*
X157689523Y-117389109D01*
X157689518Y-117389115D01*
X157599547Y-117532302D01*
X157599545Y-117532305D01*
X157543685Y-117691943D01*
X157524751Y-117859997D01*
X150200500Y-117859997D01*
X150200500Y-112599997D01*
X160834751Y-112599997D01*
X160834751Y-112600002D01*
X160853685Y-112768056D01*
X160909545Y-112927694D01*
X160909547Y-112927697D01*
X160999518Y-113070884D01*
X160999523Y-113070890D01*
X161119109Y-113190476D01*
X161119115Y-113190481D01*
X161262302Y-113280452D01*
X161262305Y-113280454D01*
X161262309Y-113280455D01*
X161262310Y-113280456D01*
X161309379Y-113296926D01*
X161421943Y-113336314D01*
X161589997Y-113355249D01*
X161590000Y-113355249D01*
X161590003Y-113355249D01*
X161758056Y-113336314D01*
X161779104Y-113328949D01*
X161917690Y-113280456D01*
X161917692Y-113280454D01*
X161917694Y-113280454D01*
X161917697Y-113280452D01*
X162060884Y-113190481D01*
X162060885Y-113190480D01*
X162060890Y-113190477D01*
X162180477Y-113070890D01*
X162180481Y-113070884D01*
X162270452Y-112927697D01*
X162270454Y-112927694D01*
X162270454Y-112927692D01*
X162270456Y-112927690D01*
X162326313Y-112768059D01*
X162326313Y-112768058D01*
X162326314Y-112768056D01*
X162345249Y-112600002D01*
X162345249Y-112599997D01*
X162326314Y-112431943D01*
X162270454Y-112272305D01*
X162270452Y-112272302D01*
X162180481Y-112129115D01*
X162180476Y-112129109D01*
X162092832Y-112041465D01*
X168264200Y-112041465D01*
X168264200Y-112178534D01*
X168290937Y-112312949D01*
X168290940Y-112312961D01*
X168343386Y-112439578D01*
X168343393Y-112439591D01*
X168419536Y-112553546D01*
X168419539Y-112553550D01*
X168516449Y-112650460D01*
X168516453Y-112650463D01*
X168630408Y-112726606D01*
X168630421Y-112726613D01*
X168757038Y-112779059D01*
X168757043Y-112779061D01*
X168891465Y-112805799D01*
X168891469Y-112805800D01*
X168891470Y-112805800D01*
X169028531Y-112805800D01*
X169028532Y-112805799D01*
X169162957Y-112779061D01*
X169289585Y-112726610D01*
X169403547Y-112650463D01*
X169500463Y-112553547D01*
X169576610Y-112439585D01*
X169629061Y-112312957D01*
X169655800Y-112178530D01*
X169655800Y-112041470D01*
X169629061Y-111907043D01*
X169606394Y-111852319D01*
X169576613Y-111780421D01*
X169576606Y-111780408D01*
X169500463Y-111666453D01*
X169500460Y-111666449D01*
X169403550Y-111569539D01*
X169403546Y-111569536D01*
X169289591Y-111493393D01*
X169289578Y-111493386D01*
X169184827Y-111449997D01*
X181097251Y-111449997D01*
X181097251Y-111450002D01*
X181116185Y-111618056D01*
X181172045Y-111777694D01*
X181172047Y-111777697D01*
X181262018Y-111920884D01*
X181262023Y-111920890D01*
X181381609Y-112040476D01*
X181381615Y-112040481D01*
X181524802Y-112130452D01*
X181524805Y-112130454D01*
X181524809Y-112130455D01*
X181524810Y-112130456D01*
X181597413Y-112155860D01*
X181684443Y-112186314D01*
X181852497Y-112205249D01*
X181852500Y-112205249D01*
X181852503Y-112205249D01*
X182020556Y-112186314D01*
X182042790Y-112178534D01*
X182180190Y-112130456D01*
X182180192Y-112130454D01*
X182180194Y-112130454D01*
X182180197Y-112130452D01*
X182323384Y-112040481D01*
X182323385Y-112040480D01*
X182323390Y-112040477D01*
X182442977Y-111920890D01*
X182447531Y-111913642D01*
X182532952Y-111777697D01*
X182532954Y-111777694D01*
X182532954Y-111777692D01*
X182532956Y-111777690D01*
X182588813Y-111618059D01*
X182588813Y-111618058D01*
X182588814Y-111618056D01*
X182607749Y-111450002D01*
X182607749Y-111449997D01*
X182588814Y-111281943D01*
X182547030Y-111162531D01*
X182532956Y-111122310D01*
X182532955Y-111122309D01*
X182532954Y-111122305D01*
X182532952Y-111122302D01*
X182442981Y-110979115D01*
X182442976Y-110979109D01*
X182323390Y-110859523D01*
X182323384Y-110859518D01*
X182180197Y-110769547D01*
X182180194Y-110769545D01*
X182020556Y-110713685D01*
X181852503Y-110694751D01*
X181852497Y-110694751D01*
X181684443Y-110713685D01*
X181524805Y-110769545D01*
X181524802Y-110769547D01*
X181381615Y-110859518D01*
X181381609Y-110859523D01*
X181262023Y-110979109D01*
X181262018Y-110979115D01*
X181172047Y-111122302D01*
X181172045Y-111122305D01*
X181116185Y-111281943D01*
X181097251Y-111449997D01*
X169184827Y-111449997D01*
X169162961Y-111440940D01*
X169162949Y-111440937D01*
X169028534Y-111414200D01*
X169028530Y-111414200D01*
X168891470Y-111414200D01*
X168891465Y-111414200D01*
X168757050Y-111440937D01*
X168757038Y-111440940D01*
X168630421Y-111493386D01*
X168630408Y-111493393D01*
X168516453Y-111569536D01*
X168516449Y-111569539D01*
X168419539Y-111666449D01*
X168419536Y-111666453D01*
X168343393Y-111780408D01*
X168343386Y-111780421D01*
X168290940Y-111907038D01*
X168290937Y-111907050D01*
X168264200Y-112041465D01*
X162092832Y-112041465D01*
X162089048Y-112037681D01*
X162055563Y-111976358D01*
X162060547Y-111906666D01*
X162089048Y-111862319D01*
X162130483Y-111820884D01*
X162190477Y-111760890D01*
X162190481Y-111760884D01*
X162280452Y-111617697D01*
X162280454Y-111617694D01*
X162280454Y-111617692D01*
X162280456Y-111617690D01*
X162336313Y-111458059D01*
X162336313Y-111458058D01*
X162336314Y-111458056D01*
X162355249Y-111290002D01*
X162355249Y-111289997D01*
X162336314Y-111121943D01*
X162305431Y-111033685D01*
X162302555Y-111025465D01*
X163184200Y-111025465D01*
X163184200Y-111162534D01*
X163210937Y-111296949D01*
X163210940Y-111296961D01*
X163263386Y-111423578D01*
X163263393Y-111423591D01*
X163339536Y-111537546D01*
X163339539Y-111537550D01*
X163436449Y-111634460D01*
X163436453Y-111634463D01*
X163550408Y-111710606D01*
X163550421Y-111710613D01*
X163671787Y-111760884D01*
X163677043Y-111763061D01*
X163811465Y-111789799D01*
X163811469Y-111789800D01*
X163811470Y-111789800D01*
X163948531Y-111789800D01*
X163948532Y-111789799D01*
X164082957Y-111763061D01*
X164209585Y-111710610D01*
X164323547Y-111634463D01*
X164420463Y-111537547D01*
X164496610Y-111423585D01*
X164549061Y-111296957D01*
X164575800Y-111162530D01*
X164575800Y-111025470D01*
X164566791Y-110980176D01*
X164563786Y-110965069D01*
X164570013Y-110895478D01*
X164612876Y-110840300D01*
X164678766Y-110817056D01*
X164746763Y-110833124D01*
X164751376Y-110835885D01*
X164788995Y-110859523D01*
X164822307Y-110880454D01*
X164822305Y-110880454D01*
X164822309Y-110880455D01*
X164822310Y-110880456D01*
X164852552Y-110891038D01*
X164981943Y-110936314D01*
X165149997Y-110955249D01*
X165150000Y-110955249D01*
X165150003Y-110955249D01*
X165318056Y-110936314D01*
X165318059Y-110936313D01*
X165477690Y-110880456D01*
X165477692Y-110880454D01*
X165477694Y-110880454D01*
X165477697Y-110880452D01*
X165620884Y-110790481D01*
X165620885Y-110790480D01*
X165620890Y-110790477D01*
X165740477Y-110670890D01*
X165740737Y-110670477D01*
X165830452Y-110527697D01*
X165830454Y-110527694D01*
X165830454Y-110527692D01*
X165830456Y-110527690D01*
X165886313Y-110368059D01*
X165886313Y-110368058D01*
X165886314Y-110368056D01*
X165905249Y-110200002D01*
X165905249Y-110199999D01*
X165903756Y-110186754D01*
X165901718Y-110168664D01*
X165913772Y-110099843D01*
X165961120Y-110048463D01*
X165983984Y-110037738D01*
X165988055Y-110036313D01*
X165988059Y-110036313D01*
X166147690Y-109980456D01*
X166250339Y-109915956D01*
X166317575Y-109896957D01*
X166384411Y-109917324D01*
X166429625Y-109970592D01*
X166433353Y-109979997D01*
X166439544Y-109997691D01*
X166439547Y-109997697D01*
X166529518Y-110140884D01*
X166529523Y-110140890D01*
X166649109Y-110260476D01*
X166649115Y-110260481D01*
X166792302Y-110350452D01*
X166792305Y-110350454D01*
X166792309Y-110350455D01*
X166792310Y-110350456D01*
X166820946Y-110360476D01*
X166951943Y-110406314D01*
X167119997Y-110425249D01*
X167120000Y-110425249D01*
X167120003Y-110425249D01*
X167288056Y-110406314D01*
X167288059Y-110406313D01*
X167447690Y-110350456D01*
X167447692Y-110350454D01*
X167447694Y-110350454D01*
X167447697Y-110350452D01*
X167590884Y-110260481D01*
X167590885Y-110260480D01*
X167590890Y-110260477D01*
X167710477Y-110140890D01*
X167800324Y-109997899D01*
X167852659Y-109951609D01*
X167919202Y-109940652D01*
X167937940Y-109942763D01*
X167959999Y-109945249D01*
X167960000Y-109945249D01*
X167960003Y-109945249D01*
X168128056Y-109926314D01*
X168128059Y-109926313D01*
X168287690Y-109870456D01*
X168287692Y-109870454D01*
X168287694Y-109870454D01*
X168287697Y-109870452D01*
X168430884Y-109780481D01*
X168430885Y-109780480D01*
X168430890Y-109780477D01*
X168550477Y-109660890D01*
X168550480Y-109660884D01*
X168554820Y-109655444D01*
X168556644Y-109656898D01*
X168600720Y-109617891D01*
X168669771Y-109607224D01*
X168733627Y-109635582D01*
X168741089Y-109642457D01*
X168759107Y-109660475D01*
X168759115Y-109660481D01*
X168902302Y-109750452D01*
X168902305Y-109750454D01*
X168902309Y-109750455D01*
X168902310Y-109750456D01*
X168927562Y-109759292D01*
X169061943Y-109806314D01*
X169229997Y-109825249D01*
X169230000Y-109825249D01*
X169230003Y-109825249D01*
X169398054Y-109806314D01*
X169398055Y-109806313D01*
X169398059Y-109806313D01*
X169439923Y-109791663D01*
X169509698Y-109788101D01*
X169570326Y-109822829D01*
X169577111Y-109830578D01*
X169697009Y-109950476D01*
X169697015Y-109950481D01*
X169840202Y-110040452D01*
X169840205Y-110040454D01*
X169840209Y-110040455D01*
X169840210Y-110040456D01*
X169912813Y-110065860D01*
X169999843Y-110096314D01*
X170167897Y-110115249D01*
X170167900Y-110115249D01*
X170167903Y-110115249D01*
X170335956Y-110096314D01*
X170352406Y-110090558D01*
X170495590Y-110040456D01*
X170495592Y-110040454D01*
X170495594Y-110040454D01*
X170495597Y-110040452D01*
X170638784Y-109950481D01*
X170638785Y-109950480D01*
X170638790Y-109950477D01*
X170758377Y-109830890D01*
X170758573Y-109830578D01*
X170848352Y-109687697D01*
X170848354Y-109687694D01*
X170848354Y-109687692D01*
X170848356Y-109687690D01*
X170904213Y-109528059D01*
X170905243Y-109518911D01*
X170932305Y-109454497D01*
X170987510Y-109415747D01*
X171059790Y-109390456D01*
X171062833Y-109388544D01*
X171065079Y-109387909D01*
X171066066Y-109387434D01*
X171066149Y-109387606D01*
X171130069Y-109369542D01*
X171196905Y-109389908D01*
X171234378Y-109432710D01*
X171235838Y-109431794D01*
X171329518Y-109580884D01*
X171329523Y-109580890D01*
X171449109Y-109700476D01*
X171449115Y-109700481D01*
X171592302Y-109790452D01*
X171592305Y-109790454D01*
X171592309Y-109790455D01*
X171592310Y-109790456D01*
X171613004Y-109797697D01*
X171751943Y-109846314D01*
X171919997Y-109865249D01*
X171920000Y-109865249D01*
X171920003Y-109865249D01*
X172088056Y-109846314D01*
X172088059Y-109846313D01*
X172247690Y-109790456D01*
X172247692Y-109790454D01*
X172247694Y-109790454D01*
X172247697Y-109790452D01*
X172390884Y-109700481D01*
X172390885Y-109700480D01*
X172390890Y-109700477D01*
X172510477Y-109580890D01*
X172535611Y-109540890D01*
X172580156Y-109469997D01*
X176494751Y-109469997D01*
X176494751Y-109470002D01*
X176513685Y-109638056D01*
X176569545Y-109797694D01*
X176569547Y-109797697D01*
X176659518Y-109940884D01*
X176659523Y-109940890D01*
X176779109Y-110060476D01*
X176779115Y-110060481D01*
X176922302Y-110150452D01*
X176922305Y-110150454D01*
X176922309Y-110150455D01*
X176922310Y-110150456D01*
X176974349Y-110168665D01*
X177081943Y-110206314D01*
X177249997Y-110225249D01*
X177250000Y-110225249D01*
X177250003Y-110225249D01*
X177418056Y-110206314D01*
X177436095Y-110200002D01*
X177577690Y-110150456D01*
X177577692Y-110150454D01*
X177577694Y-110150454D01*
X177577697Y-110150452D01*
X177720884Y-110060481D01*
X177720885Y-110060480D01*
X177720890Y-110060477D01*
X177840477Y-109940890D01*
X177840627Y-109940652D01*
X177930452Y-109797697D01*
X177930454Y-109797694D01*
X177930454Y-109797692D01*
X177930456Y-109797690D01*
X177986313Y-109638059D01*
X177986313Y-109638058D01*
X177986314Y-109638056D01*
X178005249Y-109470002D01*
X178005249Y-109469997D01*
X177986314Y-109301943D01*
X177943477Y-109179523D01*
X177930456Y-109142310D01*
X177930455Y-109142309D01*
X177930454Y-109142305D01*
X177930452Y-109142302D01*
X177840481Y-108999115D01*
X177840476Y-108999109D01*
X177720890Y-108879523D01*
X177720884Y-108879518D01*
X177578413Y-108789997D01*
X180054751Y-108789997D01*
X180054751Y-108790002D01*
X180073685Y-108958056D01*
X180129545Y-109117694D01*
X180129547Y-109117697D01*
X180219518Y-109260884D01*
X180219523Y-109260890D01*
X180339109Y-109380476D01*
X180339115Y-109380481D01*
X180482302Y-109470452D01*
X180482305Y-109470454D01*
X180482309Y-109470455D01*
X180482310Y-109470456D01*
X180512112Y-109480884D01*
X180641943Y-109526314D01*
X180809997Y-109545249D01*
X180810000Y-109545249D01*
X180810003Y-109545249D01*
X180978056Y-109526314D01*
X180978059Y-109526313D01*
X181137690Y-109470456D01*
X181215762Y-109421399D01*
X181282997Y-109402399D01*
X181349833Y-109422766D01*
X181382210Y-109455810D01*
X181382676Y-109455440D01*
X181386301Y-109459985D01*
X181386728Y-109460421D01*
X181387022Y-109460889D01*
X181506609Y-109580476D01*
X181506615Y-109580481D01*
X181649802Y-109670452D01*
X181649805Y-109670454D01*
X181649809Y-109670455D01*
X181649810Y-109670456D01*
X181699062Y-109687690D01*
X181809443Y-109726314D01*
X181977497Y-109745249D01*
X181977500Y-109745249D01*
X181977503Y-109745249D01*
X182145556Y-109726314D01*
X182145559Y-109726313D01*
X182305190Y-109670456D01*
X182305192Y-109670454D01*
X182305194Y-109670454D01*
X182305197Y-109670452D01*
X182448384Y-109580481D01*
X182448385Y-109580480D01*
X182448390Y-109580477D01*
X182567977Y-109460890D01*
X182571169Y-109455810D01*
X182657952Y-109317697D01*
X182657954Y-109317694D01*
X182657954Y-109317692D01*
X182657956Y-109317690D01*
X182713813Y-109158059D01*
X182713813Y-109158058D01*
X182713814Y-109158056D01*
X182730496Y-109009997D01*
X185942251Y-109009997D01*
X185942251Y-109010002D01*
X185961185Y-109178056D01*
X186017045Y-109337694D01*
X186017047Y-109337697D01*
X186107018Y-109480884D01*
X186107023Y-109480890D01*
X186226609Y-109600476D01*
X186226615Y-109600481D01*
X186369802Y-109690452D01*
X186369805Y-109690454D01*
X186369809Y-109690455D01*
X186369810Y-109690456D01*
X186398446Y-109700476D01*
X186529443Y-109746314D01*
X186697497Y-109765249D01*
X186697500Y-109765249D01*
X186697503Y-109765249D01*
X186865556Y-109746314D01*
X186914708Y-109729115D01*
X187025190Y-109690456D01*
X187025192Y-109690454D01*
X187025194Y-109690454D01*
X187025197Y-109690452D01*
X187168384Y-109600481D01*
X187168385Y-109600480D01*
X187168390Y-109600477D01*
X187287977Y-109480890D01*
X187294533Y-109470456D01*
X187377952Y-109337697D01*
X187377954Y-109337694D01*
X187377954Y-109337692D01*
X187377956Y-109337690D01*
X187433813Y-109178059D01*
X187433813Y-109178058D01*
X187433814Y-109178056D01*
X187452749Y-109010002D01*
X187452749Y-109009997D01*
X187433814Y-108841943D01*
X187390833Y-108719110D01*
X187377956Y-108682310D01*
X187377955Y-108682309D01*
X187377954Y-108682305D01*
X187377952Y-108682302D01*
X187287981Y-108539115D01*
X187287976Y-108539109D01*
X187168390Y-108419523D01*
X187168384Y-108419518D01*
X187025197Y-108329547D01*
X187025194Y-108329545D01*
X186865556Y-108273685D01*
X186697503Y-108254751D01*
X186697497Y-108254751D01*
X186529443Y-108273685D01*
X186369805Y-108329545D01*
X186369802Y-108329547D01*
X186226615Y-108419518D01*
X186226609Y-108419523D01*
X186107023Y-108539109D01*
X186107018Y-108539115D01*
X186017047Y-108682302D01*
X186017045Y-108682305D01*
X185961185Y-108841943D01*
X185942251Y-109009997D01*
X182730496Y-109009997D01*
X182732749Y-108990002D01*
X182732749Y-108989997D01*
X182713814Y-108821943D01*
X182664954Y-108682310D01*
X182657956Y-108662310D01*
X182657955Y-108662309D01*
X182657954Y-108662305D01*
X182657952Y-108662302D01*
X182567981Y-108519115D01*
X182567976Y-108519109D01*
X182469726Y-108420859D01*
X182436241Y-108359536D01*
X182440365Y-108292224D01*
X182483813Y-108168059D01*
X182498767Y-108035341D01*
X182502749Y-108000002D01*
X182502749Y-107999997D01*
X182483814Y-107831943D01*
X182427954Y-107672305D01*
X182427952Y-107672302D01*
X182337981Y-107529115D01*
X182337976Y-107529109D01*
X182218390Y-107409523D01*
X182218384Y-107409518D01*
X182075197Y-107319547D01*
X182075194Y-107319545D01*
X181915556Y-107263685D01*
X181747503Y-107244751D01*
X181747497Y-107244751D01*
X181579443Y-107263685D01*
X181419805Y-107319545D01*
X181419802Y-107319547D01*
X181276615Y-107409518D01*
X181276609Y-107409523D01*
X181157023Y-107529109D01*
X181157018Y-107529115D01*
X181067047Y-107672302D01*
X181067045Y-107672305D01*
X181011185Y-107831943D01*
X180999983Y-107931372D01*
X180972916Y-107995786D01*
X180915321Y-108035341D01*
X180862881Y-108040708D01*
X180810005Y-108034751D01*
X180809997Y-108034751D01*
X180641943Y-108053685D01*
X180482305Y-108109545D01*
X180482302Y-108109547D01*
X180339115Y-108199518D01*
X180339109Y-108199523D01*
X180219523Y-108319109D01*
X180219518Y-108319115D01*
X180129547Y-108462302D01*
X180129545Y-108462305D01*
X180073685Y-108621943D01*
X180054751Y-108789997D01*
X177578413Y-108789997D01*
X177577697Y-108789547D01*
X177577694Y-108789545D01*
X177418056Y-108733685D01*
X177250003Y-108714751D01*
X177249997Y-108714751D01*
X177081943Y-108733685D01*
X176922305Y-108789545D01*
X176922302Y-108789547D01*
X176779115Y-108879518D01*
X176779109Y-108879523D01*
X176659523Y-108999109D01*
X176659518Y-108999115D01*
X176569547Y-109142302D01*
X176569545Y-109142305D01*
X176513685Y-109301943D01*
X176494751Y-109469997D01*
X172580156Y-109469997D01*
X172600452Y-109437697D01*
X172600454Y-109437694D01*
X172600454Y-109437692D01*
X172600456Y-109437690D01*
X172656313Y-109278059D01*
X172656313Y-109278058D01*
X172656314Y-109278056D01*
X172675249Y-109110002D01*
X172675249Y-109109997D01*
X172656314Y-108941943D01*
X172603456Y-108790884D01*
X172600456Y-108782310D01*
X172600455Y-108782309D01*
X172600454Y-108782305D01*
X172600452Y-108782302D01*
X172510481Y-108639115D01*
X172510476Y-108639109D01*
X172390890Y-108519523D01*
X172390884Y-108519518D01*
X172247697Y-108429547D01*
X172247694Y-108429545D01*
X172088056Y-108373685D01*
X171920003Y-108354751D01*
X171919997Y-108354751D01*
X171751943Y-108373685D01*
X171592308Y-108429544D01*
X171589262Y-108431459D01*
X171587012Y-108432094D01*
X171586038Y-108432564D01*
X171585955Y-108432393D01*
X171522025Y-108450458D01*
X171455190Y-108430089D01*
X171417721Y-108387289D01*
X171416262Y-108388206D01*
X171373403Y-108319997D01*
X173314751Y-108319997D01*
X173314751Y-108320002D01*
X173333685Y-108488056D01*
X173389545Y-108647694D01*
X173389547Y-108647697D01*
X173479518Y-108790884D01*
X173479523Y-108790890D01*
X173599109Y-108910476D01*
X173599115Y-108910481D01*
X173742302Y-109000452D01*
X173742305Y-109000454D01*
X173742309Y-109000455D01*
X173742310Y-109000456D01*
X173783163Y-109014751D01*
X173901943Y-109056314D01*
X174069997Y-109075249D01*
X174070000Y-109075249D01*
X174070003Y-109075249D01*
X174238056Y-109056314D01*
X174249473Y-109052319D01*
X174397690Y-109000456D01*
X174397692Y-109000454D01*
X174397694Y-109000454D01*
X174397697Y-109000452D01*
X174540884Y-108910481D01*
X174540885Y-108910480D01*
X174540890Y-108910477D01*
X174660477Y-108790890D01*
X174665868Y-108782310D01*
X174750452Y-108647697D01*
X174750454Y-108647694D01*
X174750454Y-108647692D01*
X174750456Y-108647690D01*
X174806313Y-108488059D01*
X174806313Y-108488058D01*
X174806314Y-108488056D01*
X174825249Y-108320002D01*
X174825249Y-108319997D01*
X174806314Y-108151943D01*
X174763485Y-108029544D01*
X174750456Y-107992310D01*
X174750455Y-107992309D01*
X174750454Y-107992305D01*
X174750452Y-107992302D01*
X174660481Y-107849115D01*
X174660476Y-107849109D01*
X174540890Y-107729523D01*
X174540884Y-107729518D01*
X174397697Y-107639547D01*
X174397694Y-107639545D01*
X174238056Y-107583685D01*
X174070003Y-107564751D01*
X174069997Y-107564751D01*
X173901943Y-107583685D01*
X173742305Y-107639545D01*
X173742302Y-107639547D01*
X173599115Y-107729518D01*
X173599109Y-107729523D01*
X173479523Y-107849109D01*
X173479518Y-107849115D01*
X173389547Y-107992302D01*
X173389545Y-107992305D01*
X173333685Y-108151943D01*
X173314751Y-108319997D01*
X171373403Y-108319997D01*
X171322581Y-108239115D01*
X171322576Y-108239109D01*
X171202990Y-108119523D01*
X171202984Y-108119518D01*
X171059797Y-108029547D01*
X171059794Y-108029545D01*
X170900156Y-107973685D01*
X170732103Y-107954751D01*
X170732097Y-107954751D01*
X170564042Y-107973686D01*
X170515810Y-107990563D01*
X170446031Y-107994124D01*
X170385404Y-107959395D01*
X170360279Y-107918488D01*
X170360079Y-107918585D01*
X170359137Y-107916630D01*
X170357815Y-107914477D01*
X170357056Y-107912308D01*
X170267081Y-107769115D01*
X170267076Y-107769109D01*
X170147490Y-107649523D01*
X170147484Y-107649518D01*
X170004297Y-107559547D01*
X170004294Y-107559545D01*
X169844656Y-107503685D01*
X169676603Y-107484751D01*
X169676597Y-107484751D01*
X169508543Y-107503685D01*
X169348905Y-107559545D01*
X169348902Y-107559547D01*
X169205715Y-107649518D01*
X169205709Y-107649523D01*
X169086123Y-107769109D01*
X169086118Y-107769115D01*
X168996147Y-107912302D01*
X168996145Y-107912305D01*
X168940285Y-108071943D01*
X168921351Y-108239997D01*
X168921351Y-108240005D01*
X168927103Y-108291061D01*
X168915048Y-108359883D01*
X168869855Y-108409937D01*
X168759109Y-108479523D01*
X168639521Y-108599111D01*
X168635176Y-108604560D01*
X168633360Y-108603112D01*
X168589216Y-108642137D01*
X168520160Y-108652766D01*
X168456319Y-108624373D01*
X168448907Y-108617540D01*
X168430890Y-108599523D01*
X168430884Y-108599518D01*
X168287697Y-108509547D01*
X168287694Y-108509545D01*
X168128056Y-108453685D01*
X167960003Y-108434751D01*
X167959997Y-108434751D01*
X167791943Y-108453685D01*
X167632305Y-108509545D01*
X167632302Y-108509547D01*
X167489115Y-108599518D01*
X167489109Y-108599523D01*
X167369521Y-108719111D01*
X167279675Y-108862100D01*
X167227341Y-108908390D01*
X167160800Y-108919347D01*
X167120005Y-108914751D01*
X167119997Y-108914751D01*
X166951943Y-108933685D01*
X166792307Y-108989545D01*
X166689661Y-109054043D01*
X166622425Y-109073043D01*
X166555589Y-109052676D01*
X166510375Y-108999408D01*
X166506647Y-108990003D01*
X166503230Y-108980237D01*
X166500456Y-108972310D01*
X166500455Y-108972308D01*
X166500452Y-108972302D01*
X166410481Y-108829115D01*
X166410476Y-108829109D01*
X166290890Y-108709523D01*
X166290884Y-108709518D01*
X166147697Y-108619547D01*
X166147686Y-108619542D01*
X166072846Y-108593354D01*
X166016070Y-108552633D01*
X165990323Y-108487680D01*
X165996759Y-108435361D01*
X166006313Y-108408059D01*
X166011741Y-108359883D01*
X166025249Y-108240002D01*
X166025249Y-108239997D01*
X166006314Y-108071943D01*
X165957126Y-107931372D01*
X165950456Y-107912310D01*
X165950455Y-107912308D01*
X165950454Y-107912305D01*
X165950452Y-107912302D01*
X165860481Y-107769115D01*
X165860476Y-107769109D01*
X165740890Y-107649523D01*
X165740884Y-107649518D01*
X165597697Y-107559547D01*
X165597694Y-107559545D01*
X165438056Y-107503685D01*
X165270003Y-107484751D01*
X165269997Y-107484751D01*
X165101943Y-107503685D01*
X164942305Y-107559545D01*
X164942302Y-107559547D01*
X164799115Y-107649518D01*
X164799109Y-107649523D01*
X164679523Y-107769109D01*
X164679518Y-107769115D01*
X164589547Y-107912302D01*
X164589545Y-107912305D01*
X164533685Y-108071943D01*
X164514751Y-108239997D01*
X164514751Y-108240002D01*
X164533685Y-108408056D01*
X164589545Y-108567694D01*
X164589547Y-108567697D01*
X164679518Y-108710884D01*
X164679523Y-108710890D01*
X164799109Y-108830476D01*
X164799115Y-108830481D01*
X164942302Y-108920452D01*
X164942305Y-108920454D01*
X164942309Y-108920455D01*
X164942310Y-108920456D01*
X165017152Y-108946644D01*
X165073928Y-108987366D01*
X165099675Y-109052319D01*
X165093240Y-109104637D01*
X165083687Y-109131940D01*
X165083685Y-109131945D01*
X165064751Y-109299997D01*
X165064751Y-109300004D01*
X165068281Y-109331336D01*
X165056226Y-109400158D01*
X165008877Y-109451537D01*
X164986016Y-109462261D01*
X164822305Y-109519545D01*
X164822302Y-109519547D01*
X164679115Y-109609518D01*
X164679109Y-109609523D01*
X164559523Y-109729109D01*
X164559518Y-109729115D01*
X164469547Y-109872302D01*
X164469545Y-109872305D01*
X164413685Y-110031943D01*
X164394751Y-110199997D01*
X164394751Y-110200003D01*
X164413729Y-110368445D01*
X164401674Y-110437267D01*
X164354325Y-110488646D01*
X164286715Y-110506270D01*
X164221616Y-110485429D01*
X164209587Y-110477391D01*
X164209578Y-110477386D01*
X164082961Y-110424940D01*
X164082949Y-110424937D01*
X163948534Y-110398200D01*
X163948530Y-110398200D01*
X163811470Y-110398200D01*
X163811465Y-110398200D01*
X163677050Y-110424937D01*
X163677038Y-110424940D01*
X163550421Y-110477386D01*
X163550408Y-110477393D01*
X163436453Y-110553536D01*
X163436449Y-110553539D01*
X163339539Y-110650449D01*
X163339536Y-110650453D01*
X163263393Y-110764408D01*
X163263386Y-110764421D01*
X163210940Y-110891038D01*
X163210937Y-110891050D01*
X163184200Y-111025465D01*
X162302555Y-111025465D01*
X162280456Y-110962310D01*
X162280455Y-110962309D01*
X162280454Y-110962305D01*
X162280452Y-110962302D01*
X162190481Y-110819115D01*
X162190476Y-110819109D01*
X162070890Y-110699523D01*
X162070884Y-110699518D01*
X161927697Y-110609547D01*
X161927694Y-110609545D01*
X161768056Y-110553685D01*
X161600003Y-110534751D01*
X161599997Y-110534751D01*
X161431943Y-110553685D01*
X161272305Y-110609545D01*
X161272302Y-110609547D01*
X161129115Y-110699518D01*
X161129109Y-110699523D01*
X161009523Y-110819109D01*
X161009518Y-110819115D01*
X160919547Y-110962302D01*
X160919545Y-110962305D01*
X160863685Y-111121943D01*
X160844751Y-111289997D01*
X160844751Y-111290002D01*
X160863685Y-111458056D01*
X160919545Y-111617694D01*
X160919547Y-111617697D01*
X161009518Y-111760884D01*
X161009523Y-111760890D01*
X161100952Y-111852319D01*
X161134437Y-111913642D01*
X161129453Y-111983334D01*
X161100952Y-112027681D01*
X160999523Y-112129109D01*
X160999518Y-112129115D01*
X160909547Y-112272302D01*
X160909545Y-112272305D01*
X160853685Y-112431943D01*
X160834751Y-112599997D01*
X150200500Y-112599997D01*
X150200500Y-111552883D01*
X150220185Y-111485844D01*
X150272989Y-111440089D01*
X150342147Y-111430145D01*
X150405703Y-111459170D01*
X150441542Y-111511929D01*
X150499544Y-111677691D01*
X150499547Y-111677697D01*
X150589518Y-111820884D01*
X150589523Y-111820890D01*
X150709109Y-111940476D01*
X150709115Y-111940481D01*
X150852302Y-112030452D01*
X150852305Y-112030454D01*
X150852309Y-112030455D01*
X150852310Y-112030456D01*
X150924913Y-112055860D01*
X151011943Y-112086314D01*
X151179997Y-112105249D01*
X151180000Y-112105249D01*
X151180003Y-112105249D01*
X151348056Y-112086314D01*
X151384142Y-112073687D01*
X151507690Y-112030456D01*
X151507692Y-112030454D01*
X151507694Y-112030454D01*
X151507697Y-112030452D01*
X151650884Y-111940481D01*
X151650885Y-111940480D01*
X151650890Y-111940477D01*
X151770477Y-111820890D01*
X151783605Y-111799997D01*
X151860452Y-111677697D01*
X151860454Y-111677694D01*
X151860455Y-111677691D01*
X151860456Y-111677690D01*
X151916313Y-111518059D01*
X151916313Y-111518058D01*
X151916314Y-111518056D01*
X151935249Y-111350002D01*
X151935249Y-111349997D01*
X151916314Y-111181943D01*
X151874934Y-111063685D01*
X151860456Y-111022310D01*
X151860455Y-111022309D01*
X151860454Y-111022305D01*
X151860452Y-111022302D01*
X151770481Y-110879115D01*
X151770476Y-110879109D01*
X151699048Y-110807681D01*
X151665563Y-110746358D01*
X151670547Y-110676666D01*
X151699048Y-110632319D01*
X151721823Y-110609544D01*
X151780477Y-110550890D01*
X151795055Y-110527690D01*
X151870452Y-110407697D01*
X151870454Y-110407694D01*
X151870454Y-110407692D01*
X151870456Y-110407690D01*
X151926313Y-110248059D01*
X151926313Y-110248058D01*
X151926314Y-110248056D01*
X151945249Y-110080002D01*
X151945249Y-110079997D01*
X151926314Y-109911943D01*
X151887762Y-109801768D01*
X151870456Y-109752310D01*
X151870455Y-109752309D01*
X151870454Y-109752305D01*
X151870452Y-109752302D01*
X151869004Y-109749997D01*
X154284751Y-109749997D01*
X154284751Y-109750002D01*
X154303685Y-109918056D01*
X154359545Y-110077694D01*
X154359547Y-110077697D01*
X154449518Y-110220884D01*
X154449523Y-110220890D01*
X154569109Y-110340476D01*
X154569115Y-110340481D01*
X154712302Y-110430452D01*
X154712305Y-110430454D01*
X154712309Y-110430455D01*
X154712310Y-110430456D01*
X154731775Y-110437267D01*
X154871943Y-110486314D01*
X155039997Y-110505249D01*
X155040000Y-110505249D01*
X155040003Y-110505249D01*
X155208056Y-110486314D01*
X155210585Y-110485429D01*
X155367690Y-110430456D01*
X155407966Y-110405148D01*
X155475200Y-110386148D01*
X155542036Y-110406514D01*
X155587251Y-110459782D01*
X155596490Y-110529038D01*
X155590980Y-110551094D01*
X155583687Y-110571937D01*
X155583686Y-110571940D01*
X155564751Y-110739997D01*
X155564751Y-110740002D01*
X155583686Y-110908057D01*
X155608921Y-110980176D01*
X155612482Y-111049955D01*
X155577753Y-111110582D01*
X155515759Y-111142809D01*
X155446184Y-111136403D01*
X155425907Y-111126124D01*
X155367692Y-111089545D01*
X155367691Y-111089544D01*
X155367690Y-111089544D01*
X155293795Y-111063687D01*
X155208056Y-111033685D01*
X155040003Y-111014751D01*
X155039997Y-111014751D01*
X154871943Y-111033685D01*
X154712305Y-111089545D01*
X154712302Y-111089547D01*
X154569115Y-111179518D01*
X154569109Y-111179523D01*
X154449523Y-111299109D01*
X154449518Y-111299115D01*
X154359547Y-111442302D01*
X154359545Y-111442305D01*
X154303685Y-111601943D01*
X154284751Y-111769997D01*
X154284751Y-111770002D01*
X154303685Y-111938056D01*
X154359545Y-112097694D01*
X154359547Y-112097697D01*
X154449518Y-112240884D01*
X154449523Y-112240890D01*
X154569109Y-112360476D01*
X154569115Y-112360481D01*
X154712302Y-112450452D01*
X154712305Y-112450454D01*
X154712309Y-112450455D01*
X154712310Y-112450456D01*
X154784913Y-112475860D01*
X154871943Y-112506314D01*
X155039997Y-112525249D01*
X155040000Y-112525249D01*
X155040003Y-112525249D01*
X155208056Y-112506314D01*
X155208059Y-112506313D01*
X155367690Y-112450456D01*
X155367692Y-112450454D01*
X155367694Y-112450454D01*
X155367697Y-112450452D01*
X155510884Y-112360481D01*
X155510885Y-112360480D01*
X155510890Y-112360477D01*
X155630477Y-112240890D01*
X155699869Y-112130454D01*
X155720452Y-112097697D01*
X155720454Y-112097694D01*
X155720454Y-112097692D01*
X155720456Y-112097690D01*
X155776313Y-111938059D01*
X155776313Y-111938058D01*
X155776314Y-111938056D01*
X155795249Y-111770002D01*
X155795249Y-111769997D01*
X155776313Y-111601940D01*
X155776313Y-111601938D01*
X155751079Y-111529824D01*
X155747517Y-111460045D01*
X155782245Y-111399418D01*
X155844239Y-111367190D01*
X155913814Y-111373595D01*
X155934093Y-111383876D01*
X155992307Y-111420454D01*
X155992305Y-111420454D01*
X155992309Y-111420455D01*
X155992310Y-111420456D01*
X156064913Y-111445860D01*
X156151943Y-111476314D01*
X156319997Y-111495249D01*
X156320000Y-111495249D01*
X156320003Y-111495249D01*
X156488056Y-111476314D01*
X156499522Y-111472302D01*
X156647690Y-111420456D01*
X156647692Y-111420454D01*
X156647694Y-111420454D01*
X156653966Y-111417434D01*
X156655271Y-111420145D01*
X156709565Y-111404745D01*
X156776421Y-111425046D01*
X156821688Y-111478268D01*
X156830995Y-111547515D01*
X156825467Y-111569693D01*
X156803686Y-111631940D01*
X156784751Y-111799997D01*
X156784751Y-111800002D01*
X156803685Y-111968056D01*
X156859545Y-112127694D01*
X156859547Y-112127697D01*
X156949518Y-112270884D01*
X156949523Y-112270890D01*
X157069109Y-112390476D01*
X157069115Y-112390481D01*
X157212302Y-112480452D01*
X157212305Y-112480454D01*
X157212309Y-112480455D01*
X157212310Y-112480456D01*
X157284913Y-112505860D01*
X157371943Y-112536314D01*
X157539997Y-112555249D01*
X157540000Y-112555249D01*
X157540003Y-112555249D01*
X157708056Y-112536314D01*
X157739678Y-112525249D01*
X157867690Y-112480456D01*
X157867692Y-112480454D01*
X157867694Y-112480454D01*
X157867697Y-112480452D01*
X158010884Y-112390481D01*
X158010885Y-112390480D01*
X158010890Y-112390477D01*
X158130477Y-112270890D01*
X158130481Y-112270884D01*
X158220452Y-112127697D01*
X158220454Y-112127694D01*
X158220454Y-112127692D01*
X158220456Y-112127690D01*
X158276313Y-111968059D01*
X158276313Y-111968058D01*
X158276314Y-111968056D01*
X158295249Y-111800002D01*
X158295249Y-111799997D01*
X158276314Y-111631943D01*
X158234319Y-111511929D01*
X158220456Y-111472310D01*
X158220455Y-111472309D01*
X158220454Y-111472305D01*
X158220452Y-111472302D01*
X158130481Y-111329115D01*
X158130476Y-111329109D01*
X158010890Y-111209523D01*
X158010884Y-111209518D01*
X157867697Y-111119547D01*
X157867694Y-111119545D01*
X157708056Y-111063685D01*
X157540003Y-111044751D01*
X157539997Y-111044751D01*
X157371943Y-111063685D01*
X157212305Y-111119545D01*
X157206034Y-111122566D01*
X157204744Y-111119887D01*
X157150214Y-111135252D01*
X157083395Y-111114833D01*
X157038222Y-111061530D01*
X157029037Y-110992267D01*
X157034533Y-110970304D01*
X157056313Y-110908060D01*
X157056313Y-110908059D01*
X157075249Y-110740002D01*
X157075249Y-110739997D01*
X157064183Y-110641785D01*
X157076237Y-110572963D01*
X157123586Y-110521583D01*
X157191197Y-110503959D01*
X157204998Y-110505729D01*
X157205021Y-110505534D01*
X157379997Y-110525249D01*
X157380000Y-110525249D01*
X157380003Y-110525249D01*
X157548056Y-110506314D01*
X157554786Y-110503959D01*
X157707690Y-110450456D01*
X157707692Y-110450454D01*
X157707694Y-110450454D01*
X157707697Y-110450452D01*
X157850884Y-110360481D01*
X157850885Y-110360480D01*
X157850890Y-110360477D01*
X157970477Y-110240890D01*
X157992203Y-110206314D01*
X158060452Y-110097697D01*
X158060454Y-110097694D01*
X158060454Y-110097692D01*
X158060456Y-110097690D01*
X158116313Y-109938059D01*
X158116313Y-109938058D01*
X158116314Y-109938056D01*
X158135249Y-109770002D01*
X158135249Y-109769997D01*
X158116314Y-109601943D01*
X158073956Y-109480890D01*
X158060456Y-109442310D01*
X158060455Y-109442309D01*
X158060454Y-109442305D01*
X158060452Y-109442302D01*
X157970481Y-109299115D01*
X157970476Y-109299109D01*
X157850890Y-109179523D01*
X157850884Y-109179518D01*
X157707697Y-109089547D01*
X157707694Y-109089545D01*
X157548056Y-109033685D01*
X157380003Y-109014751D01*
X157379997Y-109014751D01*
X157211943Y-109033685D01*
X157052305Y-109089545D01*
X157052302Y-109089547D01*
X156909115Y-109179518D01*
X156909109Y-109179523D01*
X156789523Y-109299109D01*
X156789518Y-109299115D01*
X156699547Y-109442302D01*
X156699545Y-109442305D01*
X156643685Y-109601943D01*
X156624751Y-109769997D01*
X156624751Y-109770004D01*
X156635816Y-109868215D01*
X156623761Y-109937037D01*
X156576412Y-109988416D01*
X156508801Y-110006040D01*
X156495001Y-110004270D01*
X156494979Y-110004466D01*
X156320003Y-109984751D01*
X156319997Y-109984751D01*
X156151943Y-110003685D01*
X155992305Y-110059545D01*
X155992304Y-110059546D01*
X155952032Y-110084851D01*
X155884795Y-110103851D01*
X155817960Y-110083483D01*
X155772747Y-110030215D01*
X155763510Y-109960958D01*
X155769020Y-109938900D01*
X155776313Y-109918059D01*
X155794989Y-109752310D01*
X155795249Y-109750002D01*
X155795249Y-109749997D01*
X155776314Y-109581943D01*
X155740952Y-109480884D01*
X155720456Y-109422310D01*
X155720455Y-109422309D01*
X155720454Y-109422305D01*
X155720452Y-109422302D01*
X155630481Y-109279115D01*
X155630476Y-109279109D01*
X155510890Y-109159523D01*
X155510884Y-109159518D01*
X155367697Y-109069547D01*
X155367694Y-109069545D01*
X155208056Y-109013685D01*
X155040003Y-108994751D01*
X155039997Y-108994751D01*
X154871943Y-109013685D01*
X154712305Y-109069545D01*
X154712302Y-109069547D01*
X154569115Y-109159518D01*
X154569109Y-109159523D01*
X154449523Y-109279109D01*
X154449518Y-109279115D01*
X154359547Y-109422302D01*
X154359545Y-109422305D01*
X154303685Y-109581943D01*
X154284751Y-109749997D01*
X151869004Y-109749997D01*
X151780481Y-109609115D01*
X151780476Y-109609109D01*
X151694048Y-109522681D01*
X151660563Y-109461358D01*
X151665547Y-109391666D01*
X151694048Y-109347319D01*
X151734988Y-109306379D01*
X151780477Y-109260890D01*
X151831607Y-109179518D01*
X151870452Y-109117697D01*
X151870454Y-109117694D01*
X151870454Y-109117692D01*
X151870456Y-109117690D01*
X151926313Y-108958059D01*
X151926313Y-108958058D01*
X151926314Y-108958056D01*
X151945249Y-108790002D01*
X151945249Y-108789997D01*
X151926314Y-108621943D01*
X151870454Y-108462305D01*
X151870452Y-108462302D01*
X151780481Y-108319115D01*
X151780476Y-108319109D01*
X151660890Y-108199523D01*
X151660884Y-108199518D01*
X151517697Y-108109547D01*
X151517694Y-108109545D01*
X151358056Y-108053685D01*
X151190003Y-108034751D01*
X151189997Y-108034751D01*
X151021943Y-108053685D01*
X150862305Y-108109545D01*
X150862302Y-108109547D01*
X150719115Y-108199518D01*
X150719109Y-108199523D01*
X150599523Y-108319109D01*
X150599518Y-108319115D01*
X150509547Y-108462302D01*
X150509545Y-108462305D01*
X150453685Y-108621943D01*
X150447720Y-108674893D01*
X150420653Y-108739307D01*
X150363059Y-108778862D01*
X150293222Y-108780999D01*
X150233315Y-108745041D01*
X150202359Y-108682403D01*
X150200500Y-108661009D01*
X150200500Y-103919997D01*
X155224751Y-103919997D01*
X155224751Y-103920002D01*
X155243685Y-104088056D01*
X155299545Y-104247694D01*
X155299547Y-104247697D01*
X155389518Y-104390884D01*
X155389523Y-104390890D01*
X155509109Y-104510476D01*
X155509115Y-104510481D01*
X155652302Y-104600452D01*
X155652305Y-104600454D01*
X155652309Y-104600455D01*
X155652310Y-104600456D01*
X155666008Y-104605249D01*
X155811943Y-104656314D01*
X155979997Y-104675249D01*
X155980000Y-104675249D01*
X155980003Y-104675249D01*
X156148056Y-104656314D01*
X156148059Y-104656313D01*
X156307690Y-104600456D01*
X156307692Y-104600454D01*
X156307694Y-104600454D01*
X156307697Y-104600452D01*
X156450884Y-104510481D01*
X156450884Y-104510480D01*
X156450890Y-104510477D01*
X156565052Y-104396314D01*
X156626371Y-104362832D01*
X156696063Y-104367816D01*
X156751997Y-104409687D01*
X156757732Y-104418039D01*
X156760256Y-104422057D01*
X156779247Y-104489296D01*
X156758872Y-104556128D01*
X156742937Y-104575696D01*
X156719518Y-104599115D01*
X156629547Y-104742302D01*
X156629545Y-104742305D01*
X156573685Y-104901943D01*
X156554751Y-105069997D01*
X156554751Y-105070002D01*
X156573685Y-105238056D01*
X156629545Y-105397694D01*
X156629547Y-105397697D01*
X156719518Y-105540884D01*
X156719523Y-105540890D01*
X156839109Y-105660476D01*
X156839115Y-105660481D01*
X156982302Y-105750452D01*
X156982305Y-105750454D01*
X156982309Y-105750455D01*
X156982310Y-105750456D01*
X157054913Y-105775860D01*
X157141943Y-105806314D01*
X157309997Y-105825249D01*
X157310000Y-105825249D01*
X157310003Y-105825249D01*
X157478056Y-105806314D01*
X157478059Y-105806313D01*
X157637690Y-105750456D01*
X157637692Y-105750454D01*
X157637694Y-105750454D01*
X157637697Y-105750452D01*
X157780884Y-105660481D01*
X157780885Y-105660480D01*
X157780890Y-105660477D01*
X157900477Y-105540890D01*
X157990452Y-105397697D01*
X157990454Y-105397694D01*
X157990454Y-105397692D01*
X157990456Y-105397690D01*
X158046313Y-105238059D01*
X158046313Y-105238058D01*
X158046314Y-105238056D01*
X158065249Y-105070002D01*
X158065249Y-105069997D01*
X158046314Y-104901943D01*
X157990454Y-104742305D01*
X157990452Y-104742302D01*
X157899752Y-104597955D01*
X157880751Y-104530719D01*
X157901118Y-104463884D01*
X157917056Y-104444310D01*
X157940477Y-104420890D01*
X157953852Y-104399604D01*
X158006186Y-104353312D01*
X158075240Y-104342663D01*
X158139088Y-104371038D01*
X158146527Y-104377894D01*
X158209109Y-104440476D01*
X158209115Y-104440481D01*
X158352302Y-104530452D01*
X158352305Y-104530454D01*
X158352309Y-104530455D01*
X158352310Y-104530456D01*
X158353062Y-104530719D01*
X158511943Y-104586314D01*
X158679997Y-104605249D01*
X158680000Y-104605249D01*
X158680003Y-104605249D01*
X158848056Y-104586314D01*
X158848059Y-104586313D01*
X159007690Y-104530456D01*
X159007692Y-104530454D01*
X159007694Y-104530454D01*
X159007697Y-104530452D01*
X159150884Y-104440481D01*
X159150885Y-104440480D01*
X159150890Y-104440477D01*
X159270477Y-104320890D01*
X159283301Y-104300481D01*
X159360452Y-104177697D01*
X159360454Y-104177694D01*
X159360454Y-104177692D01*
X159360456Y-104177690D01*
X159416313Y-104018059D01*
X159416313Y-104018058D01*
X159416314Y-104018056D01*
X159435249Y-103850002D01*
X159435249Y-103849997D01*
X159416314Y-103681943D01*
X159360454Y-103522305D01*
X159360452Y-103522302D01*
X159270481Y-103379115D01*
X159270476Y-103379109D01*
X159150890Y-103259523D01*
X159150884Y-103259518D01*
X159007697Y-103169547D01*
X159007694Y-103169545D01*
X158848056Y-103113685D01*
X158680003Y-103094751D01*
X158679997Y-103094751D01*
X158511943Y-103113685D01*
X158352305Y-103169545D01*
X158352302Y-103169547D01*
X158209115Y-103259518D01*
X158209109Y-103259523D01*
X158089523Y-103379109D01*
X158089519Y-103379114D01*
X158076144Y-103400400D01*
X158023808Y-103446689D01*
X157954754Y-103457335D01*
X157890907Y-103428957D01*
X157883472Y-103422105D01*
X157820890Y-103359523D01*
X157820885Y-103359519D01*
X157799601Y-103346145D01*
X157753311Y-103293810D01*
X157742664Y-103224756D01*
X157771040Y-103160908D01*
X157777870Y-103153496D01*
X157880477Y-103050890D01*
X157920131Y-102987782D01*
X157970452Y-102907697D01*
X157970454Y-102907694D01*
X157970454Y-102907692D01*
X157970456Y-102907690D01*
X158026313Y-102748059D01*
X158026313Y-102748058D01*
X158026314Y-102748056D01*
X158045249Y-102580002D01*
X158045249Y-102579997D01*
X158026314Y-102411943D01*
X157970454Y-102252305D01*
X157970452Y-102252302D01*
X157880481Y-102109115D01*
X157880476Y-102109109D01*
X157760890Y-101989523D01*
X157760884Y-101989518D01*
X157617697Y-101899547D01*
X157617694Y-101899545D01*
X157458056Y-101843685D01*
X157290003Y-101824751D01*
X157289997Y-101824751D01*
X157121943Y-101843685D01*
X156962305Y-101899545D01*
X156962302Y-101899547D01*
X156819115Y-101989518D01*
X156819109Y-101989523D01*
X156699523Y-102109109D01*
X156699518Y-102109115D01*
X156609547Y-102252302D01*
X156609545Y-102252305D01*
X156553685Y-102411943D01*
X156534751Y-102579997D01*
X156534751Y-102580002D01*
X156553685Y-102748056D01*
X156609545Y-102907694D01*
X156609547Y-102907697D01*
X156699518Y-103050884D01*
X156699523Y-103050890D01*
X156819109Y-103170476D01*
X156819112Y-103170478D01*
X156840397Y-103183853D01*
X156886688Y-103236188D01*
X156897335Y-103305242D01*
X156868959Y-103369090D01*
X156862105Y-103376527D01*
X156764950Y-103473682D01*
X156703627Y-103507167D01*
X156633935Y-103502183D01*
X156578002Y-103460311D01*
X156572272Y-103451967D01*
X156570480Y-103449115D01*
X156570477Y-103449110D01*
X156450890Y-103329523D01*
X156450884Y-103329518D01*
X156307697Y-103239547D01*
X156307694Y-103239545D01*
X156148056Y-103183685D01*
X155980003Y-103164751D01*
X155979997Y-103164751D01*
X155811943Y-103183685D01*
X155652305Y-103239545D01*
X155652302Y-103239547D01*
X155509115Y-103329518D01*
X155509109Y-103329523D01*
X155389523Y-103449109D01*
X155389518Y-103449115D01*
X155299547Y-103592302D01*
X155299545Y-103592305D01*
X155243685Y-103751943D01*
X155224751Y-103919997D01*
X150200500Y-103919997D01*
X150200500Y-102004066D01*
X150200765Y-101995956D01*
X150211986Y-101824751D01*
X150215364Y-101773207D01*
X150217479Y-101757153D01*
X150260230Y-101542226D01*
X150264428Y-101526561D01*
X150326349Y-101344148D01*
X150334868Y-101319049D01*
X150341067Y-101304083D01*
X150437995Y-101107533D01*
X150446098Y-101093498D01*
X150567853Y-100911279D01*
X150577710Y-100898433D01*
X150722207Y-100733665D01*
X150733665Y-100722207D01*
X150898433Y-100577710D01*
X150911279Y-100567853D01*
X151093498Y-100446098D01*
X151107533Y-100437995D01*
X151304083Y-100341067D01*
X151319049Y-100334868D01*
X151525945Y-100264637D01*
X151526561Y-100264428D01*
X151542228Y-100260230D01*
X151757153Y-100217479D01*
X151773209Y-100215364D01*
X151978058Y-100201938D01*
X151995958Y-100200765D01*
X152004067Y-100200500D01*
X152039882Y-100200500D01*
X163330519Y-100200500D01*
X163397558Y-100220185D01*
G37*
G04 #@! TD.AperFunction*
M02*
