%TF.GenerationSoftware,KiCad,Pcbnew,8.0.4*%
%TF.CreationDate,2024-10-04T00:05:07-04:00*%
%TF.ProjectId,BlueSTM32,426c7565-5354-44d3-9332-2e6b69636164,rev?*%
%TF.SameCoordinates,Original*%
%TF.FileFunction,Drillmap*%
%TF.FilePolarity,Positive*%
%FSLAX45Y45*%
G04 Gerber Fmt 4.5, Leading zero omitted, Abs format (unit mm)*
G04 Created by KiCad (PCBNEW 8.0.4) date 2024-10-04 00:05:07*
%MOMM*%
%LPD*%
G01*
G04 APERTURE LIST*
%ADD10C,0.010000*%
%ADD11C,0.200000*%
%ADD12C,0.100000*%
G04 APERTURE END LIST*
D10*
X19000000Y-13800000D02*
G75*
G02*
X18800000Y-14000000I-200000J0D01*
G01*
X18800000Y-10000000D02*
X17647000Y-10000000D01*
X15200000Y-14000000D02*
G75*
G02*
X15000000Y-13800000I0J200000D01*
G01*
X18800000Y-14000000D02*
X15200000Y-14000000D01*
X15000000Y-10200000D02*
G75*
G02*
X15200000Y-10000000I200000J0D01*
G01*
X15000000Y-13800000D02*
X15000000Y-10200000D01*
X18800000Y-10000000D02*
G75*
G02*
X19000000Y-10200000I0J-200000D01*
G01*
X16359000Y-10000000D02*
X15200000Y-10000000D01*
X19000000Y-10200000D02*
X19000000Y-13800000D01*
X17457000Y-10620000D02*
G75*
G02*
X17424500Y-10660000I-36250J-3750D01*
G01*
X17424500Y-10660000D02*
G75*
G02*
X17392000Y-10632000I-2250J30250D01*
G01*
X17377000Y-10620000D02*
G75*
G02*
X17392000Y-10632000I1500J-13500D01*
G01*
X16598000Y-10632000D02*
G75*
G02*
X16613000Y-10620000I13500J-1500D01*
G01*
X16598000Y-10632000D02*
G75*
G02*
X16565500Y-10660000I-30250J2250D01*
G01*
X16565500Y-10660000D02*
G75*
G02*
X16533000Y-10620000I3750J36250D01*
G01*
X17647000Y-10000000D02*
X17457000Y-10000000D01*
X17457000Y-10000000D02*
X17457000Y-10620000D01*
X17377000Y-10620000D02*
X16613000Y-10620000D01*
X16533000Y-10620000D02*
X16533000Y-10000000D01*
X16533000Y-10000000D02*
X16359000Y-10000000D01*
D11*
D12*
X15108000Y-11125000D02*
X15128000Y-11145000D01*
X15128000Y-11125000D02*
X15108000Y-11145000D01*
X15109000Y-10869000D02*
X15129000Y-10889000D01*
X15129000Y-10869000D02*
X15109000Y-10889000D01*
X15109000Y-10998000D02*
X15129000Y-11018000D01*
X15129000Y-10998000D02*
X15109000Y-11018000D01*
X15241000Y-13295000D02*
X15261000Y-13315000D01*
X15261000Y-13295000D02*
X15241000Y-13315000D01*
X15241000Y-13519000D02*
X15261000Y-13539000D01*
X15261000Y-13519000D02*
X15241000Y-13539000D01*
X15360000Y-12987000D02*
X15380000Y-13007000D01*
X15380000Y-12987000D02*
X15360000Y-13007000D01*
X15478500Y-12127000D02*
X15498500Y-12147000D01*
X15498500Y-12127000D02*
X15478500Y-12147000D01*
X15485500Y-13760000D02*
X15505500Y-13780000D01*
X15505500Y-13760000D02*
X15485500Y-13780000D01*
X15493500Y-12230000D02*
X15513500Y-12250000D01*
X15513500Y-12230000D02*
X15493500Y-12250000D01*
X15510500Y-12666000D02*
X15530500Y-12686000D01*
X15530500Y-12666000D02*
X15510500Y-12686000D01*
X15587500Y-13425000D02*
X15607500Y-13445000D01*
X15607500Y-13425000D02*
X15587500Y-13445000D01*
X15588000Y-10382000D02*
X15608000Y-10402000D01*
X15608000Y-10382000D02*
X15588000Y-10402000D01*
X15590500Y-13023000D02*
X15610500Y-13043000D01*
X15610500Y-13023000D02*
X15590500Y-13043000D01*
X15719000Y-10248000D02*
X15739000Y-10268000D01*
X15739000Y-10248000D02*
X15719000Y-10268000D01*
X15721000Y-10497000D02*
X15741000Y-10517000D01*
X15741000Y-10497000D02*
X15721000Y-10517000D01*
X15725000Y-10385000D02*
X15745000Y-10405000D01*
X15745000Y-10385000D02*
X15725000Y-10405000D01*
X15818000Y-11776000D02*
X15838000Y-11796000D01*
X15838000Y-11776000D02*
X15818000Y-11796000D01*
X15828000Y-13626000D02*
X15848000Y-13646000D01*
X15848000Y-13626000D02*
X15828000Y-13646000D01*
X15858000Y-10375000D02*
X15878000Y-10395000D01*
X15878000Y-10375000D02*
X15858000Y-10395000D01*
X15868000Y-12105000D02*
X15888000Y-12125000D01*
X15888000Y-12105000D02*
X15868000Y-12125000D01*
X15952000Y-13326000D02*
X15972000Y-13346000D01*
X15972000Y-13326000D02*
X15952000Y-13346000D01*
X15982000Y-12466000D02*
X16002000Y-12486000D01*
X16002000Y-12466000D02*
X15982000Y-12486000D01*
X15989000Y-12278000D02*
X16009000Y-12298000D01*
X16009000Y-12278000D02*
X15989000Y-12298000D01*
X16110000Y-12278000D02*
X16130000Y-12298000D01*
X16130000Y-12278000D02*
X16110000Y-12298000D01*
X16137000Y-12353000D02*
X16157000Y-12373000D01*
X16157000Y-12353000D02*
X16137000Y-12373000D01*
X16149000Y-11250000D02*
X16169000Y-11270000D01*
X16169000Y-11250000D02*
X16149000Y-11270000D01*
X16150000Y-11119000D02*
X16170000Y-11139000D01*
X16170000Y-11119000D02*
X16150000Y-11139000D01*
X16222000Y-12146000D02*
X16242000Y-12166000D01*
X16242000Y-12146000D02*
X16222000Y-12166000D01*
X16255000Y-12610000D02*
X16275000Y-12630000D01*
X16275000Y-12610000D02*
X16255000Y-12630000D01*
X16307000Y-11880000D02*
X16327000Y-11900000D01*
X16327000Y-11880000D02*
X16307000Y-11900000D01*
X16311292Y-12018292D02*
X16331292Y-12038292D01*
X16331292Y-12018292D02*
X16311292Y-12038292D01*
X16318241Y-11940632D02*
X16338241Y-11960632D01*
X16338241Y-11940632D02*
X16318241Y-11960632D01*
X16354000Y-13421000D02*
X16374000Y-13441000D01*
X16374000Y-13421000D02*
X16354000Y-13441000D01*
X16367000Y-13557000D02*
X16387000Y-13577000D01*
X16387000Y-13557000D02*
X16367000Y-13577000D01*
X16400000Y-12328000D02*
X16420000Y-12348000D01*
X16420000Y-12328000D02*
X16400000Y-12348000D01*
X16432000Y-12591000D02*
X16452000Y-12611000D01*
X16452000Y-12591000D02*
X16432000Y-12611000D01*
X16443000Y-12806000D02*
X16463000Y-12826000D01*
X16463000Y-12806000D02*
X16443000Y-12826000D01*
X16443000Y-13111000D02*
X16463000Y-13131000D01*
X16463000Y-13111000D02*
X16443000Y-13131000D01*
X16481000Y-11631000D02*
X16501000Y-11651000D01*
X16501000Y-11631000D02*
X16481000Y-11651000D01*
X16495500Y-11401500D02*
X16515500Y-11421500D01*
X16515500Y-11401500D02*
X16495500Y-11421500D01*
X16505000Y-11010000D02*
X16525000Y-11030000D01*
X16525000Y-11010000D02*
X16505000Y-11030000D01*
X16513000Y-12529000D02*
X16533000Y-12549000D01*
X16533000Y-12529000D02*
X16513000Y-12549000D01*
X16529000Y-12985000D02*
X16549000Y-13005000D01*
X16549000Y-12985000D02*
X16529000Y-13005000D01*
X16572000Y-10920000D02*
X16592000Y-10940000D01*
X16592000Y-10920000D02*
X16572000Y-10940000D01*
X16608000Y-12547000D02*
X16628000Y-12567000D01*
X16628000Y-12547000D02*
X16608000Y-12567000D01*
X16630000Y-13778000D02*
X16650000Y-13798000D01*
X16650000Y-13778000D02*
X16630000Y-13798000D01*
X16631000Y-13641000D02*
X16651000Y-13661000D01*
X16651000Y-13641000D02*
X16631000Y-13661000D01*
X16664000Y-11487000D02*
X16684000Y-11507000D01*
X16684000Y-11487000D02*
X16664000Y-11507000D01*
X16666000Y-13055000D02*
X16686000Y-13075000D01*
X16686000Y-13055000D02*
X16666000Y-13075000D01*
X16688000Y-13513000D02*
X16708000Y-13533000D01*
X16708000Y-13513000D02*
X16688000Y-13533000D01*
X16760000Y-12649000D02*
X16780000Y-12669000D01*
X16780000Y-12649000D02*
X16760000Y-12669000D01*
X16838000Y-12525000D02*
X16858000Y-12545000D01*
X16858000Y-12525000D02*
X16838000Y-12545000D01*
X16871000Y-12645000D02*
X16891000Y-12665000D01*
X16891000Y-12645000D02*
X16871000Y-12665000D01*
X16891000Y-12488000D02*
X16911000Y-12508000D01*
X16911000Y-12488000D02*
X16891000Y-12508000D01*
X16907500Y-10802000D02*
X16927500Y-10822000D01*
X16927500Y-10802000D02*
X16907500Y-10822000D01*
X16911000Y-10950000D02*
X16931000Y-10970000D01*
X16931000Y-10950000D02*
X16911000Y-10970000D01*
X16962500Y-10802000D02*
X16982500Y-10822000D01*
X16982500Y-10802000D02*
X16962500Y-10822000D01*
X17006000Y-10949000D02*
X17026000Y-10969000D01*
X17026000Y-10949000D02*
X17006000Y-10969000D01*
X17025000Y-11988000D02*
X17045000Y-12008000D01*
X17045000Y-11988000D02*
X17025000Y-12008000D01*
X17038000Y-12587000D02*
X17058000Y-12607000D01*
X17058000Y-12587000D02*
X17038000Y-12607000D01*
X17064000Y-10917000D02*
X17084000Y-10937000D01*
X17084000Y-10917000D02*
X17064000Y-10937000D01*
X17143000Y-13570000D02*
X17163000Y-13590000D01*
X17163000Y-13570000D02*
X17143000Y-13590000D01*
X17202000Y-12640000D02*
X17222000Y-12660000D01*
X17222000Y-12640000D02*
X17202000Y-12660000D01*
X17438000Y-12393000D02*
X17458000Y-12413000D01*
X17458000Y-12393000D02*
X17438000Y-12413000D01*
X17582000Y-11886000D02*
X17602000Y-11906000D01*
X17602000Y-11886000D02*
X17582000Y-11906000D01*
X17628000Y-12706000D02*
X17648000Y-12726000D01*
X17648000Y-12706000D02*
X17628000Y-12726000D01*
X17859000Y-13521000D02*
X17879000Y-13541000D01*
X17879000Y-13521000D02*
X17859000Y-13541000D01*
X17919000Y-12270000D02*
X17939000Y-12290000D01*
X17939000Y-12270000D02*
X17919000Y-12290000D01*
X18176000Y-12262000D02*
X18196000Y-12282000D01*
X18196000Y-12262000D02*
X18176000Y-12282000D01*
X18266250Y-13520250D02*
X18286250Y-13540250D01*
X18286250Y-13520250D02*
X18266250Y-13540250D01*
X18274250Y-12660250D02*
X18294250Y-12680250D01*
X18294250Y-12660250D02*
X18274250Y-12680250D01*
X18276250Y-13403250D02*
X18296250Y-13423250D01*
X18296250Y-13403250D02*
X18276250Y-13423250D01*
X18444000Y-12473000D02*
X18464000Y-12493000D01*
X18464000Y-12473000D02*
X18444000Y-12493000D01*
X18662000Y-12216000D02*
X18682000Y-12236000D01*
X18682000Y-12216000D02*
X18662000Y-12236000D01*
X18761250Y-12570250D02*
X18781250Y-12590250D01*
X18781250Y-12570250D02*
X18761250Y-12590250D01*
X18799000Y-10361000D02*
X18819000Y-10381000D01*
X18819000Y-10361000D02*
X18799000Y-10381000D01*
X15516500Y-10975000D02*
G75*
G02*
X15491500Y-10975000I-12500J0D01*
G01*
X15491500Y-10975000D02*
G75*
G02*
X15516500Y-10975000I12500J0D01*
G01*
X15516500Y-11177000D02*
G75*
G02*
X15491500Y-11177000I-12500J0D01*
G01*
X15491500Y-11177000D02*
G75*
G02*
X15516500Y-11177000I12500J0D01*
G01*
X15644500Y-11074000D02*
G75*
G02*
X15619500Y-11074000I-12500J0D01*
G01*
X15619500Y-11074000D02*
G75*
G02*
X15644500Y-11074000I12500J0D01*
G01*
X15750500Y-10977000D02*
G75*
G02*
X15725500Y-10977000I-12500J0D01*
G01*
X15725500Y-10977000D02*
G75*
G02*
X15750500Y-10977000I12500J0D01*
G01*
X15766500Y-11180000D02*
G75*
G02*
X15741500Y-11180000I-12500J0D01*
G01*
X15741500Y-11180000D02*
G75*
G02*
X15766500Y-11180000I12500J0D01*
G01*
X16150500Y-10879000D02*
G75*
G02*
X16125500Y-10879000I-12500J0D01*
G01*
X16125500Y-10879000D02*
G75*
G02*
X16150500Y-10879000I12500J0D01*
G01*
X16503500Y-12180000D02*
G75*
G02*
X16478500Y-12180000I-12500J0D01*
G01*
X16478500Y-12180000D02*
G75*
G02*
X16503500Y-12180000I12500J0D01*
G01*
X16592500Y-11576000D02*
G75*
G02*
X16567500Y-11576000I-12500J0D01*
G01*
X16567500Y-11576000D02*
G75*
G02*
X16592500Y-11576000I12500J0D01*
G01*
X17158500Y-11408000D02*
G75*
G02*
X17133500Y-11408000I-12500J0D01*
G01*
X17133500Y-11408000D02*
G75*
G02*
X17158500Y-11408000I12500J0D01*
G01*
X17232500Y-12530000D02*
G75*
G02*
X17207500Y-12530000I-12500J0D01*
G01*
X17207500Y-12530000D02*
G75*
G02*
X17232500Y-12530000I12500J0D01*
G01*
X17529500Y-11937000D02*
G75*
G02*
X17504500Y-11937000I-12500J0D01*
G01*
X17504500Y-11937000D02*
G75*
G02*
X17529500Y-11937000I12500J0D01*
G01*
X18365500Y-12018000D02*
G75*
G02*
X18340500Y-12018000I-12500J0D01*
G01*
X18340500Y-12018000D02*
G75*
G02*
X18365500Y-12018000I12500J0D01*
G01*
X18695500Y-12335000D02*
G75*
G02*
X18670500Y-12335000I-12500J0D01*
G01*
X18670500Y-12335000D02*
G75*
G02*
X18695500Y-12335000I12500J0D01*
G01*
X18757500Y-11769000D02*
G75*
G02*
X18732500Y-11769000I-12500J0D01*
G01*
X18732500Y-11769000D02*
G75*
G02*
X18757500Y-11769000I12500J0D01*
G01*
X18833500Y-11862000D02*
G75*
G02*
X18808500Y-11862000I-12500J0D01*
G01*
X18808500Y-11862000D02*
G75*
G02*
X18833500Y-11862000I12500J0D01*
G01*
X18896500Y-11231000D02*
G75*
G02*
X18871500Y-11231000I-12500J0D01*
G01*
X18871500Y-11231000D02*
G75*
G02*
X18896500Y-11231000I12500J0D01*
G01*
X16602000Y-10815000D02*
X16602000Y-10845000D01*
X16587000Y-10830000D02*
X16617000Y-10830000D01*
X16712000Y-10952000D02*
X16712000Y-10982000D01*
X16697000Y-10967000D02*
X16727000Y-10967000D01*
X16826000Y-10909000D02*
X16826000Y-10939000D01*
X16811000Y-10924000D02*
X16841000Y-10924000D01*
X17150000Y-10906000D02*
X17150000Y-10936000D01*
X17135000Y-10921000D02*
X17165000Y-10921000D01*
X17407000Y-10817000D02*
X17407000Y-10847000D01*
X17392000Y-10832000D02*
X17422000Y-10832000D01*
X17725000Y-10932000D02*
X17725000Y-10962000D01*
X17710000Y-10947000D02*
X17740000Y-10947000D01*
X17832250Y-11266000D02*
X17832250Y-11296000D01*
X17817250Y-11281000D02*
X17847250Y-11281000D01*
X18081000Y-10864000D02*
X18081000Y-10894000D01*
X18066000Y-10879000D02*
X18096000Y-10879000D01*
X18174750Y-10785000D02*
X18174750Y-10815000D01*
X18159750Y-10800000D02*
X18189750Y-10800000D01*
X18185250Y-11130000D02*
X18185250Y-11160000D01*
X18170250Y-11145000D02*
X18200250Y-11145000D01*
X18197750Y-10884000D02*
X18197750Y-10914000D01*
X18182750Y-10899000D02*
X18212750Y-10899000D01*
X18231000Y-10603000D02*
X18231000Y-10633000D01*
X18216000Y-10618000D02*
X18246000Y-10618000D01*
X18535250Y-11622000D02*
X18535250Y-11652000D01*
X18520250Y-11637000D02*
X18550250Y-11637000D01*
X18668250Y-11127000D02*
X18668250Y-11157000D01*
X18653250Y-11142000D02*
X18683250Y-11142000D01*
X18669750Y-10886000D02*
X18669750Y-10916000D01*
X18654750Y-10901000D02*
X18684750Y-10901000D01*
X16454213Y-10181213D02*
X16454213Y-10138787D01*
X16411787Y-10138787D01*
X16411787Y-10181213D01*
X16454213Y-10181213D01*
X16463000Y-10220000D02*
X16463000Y-10100000D01*
X16403000Y-10100000D02*
G75*
G02*
X16463000Y-10100000I30000J0D01*
G01*
X16403000Y-10100000D02*
X16403000Y-10220000D01*
X16403000Y-10220000D02*
G75*
G03*
X16463000Y-10220000I30000J0D01*
G01*
X16454213Y-10581213D02*
X16454213Y-10538787D01*
X16411787Y-10538787D01*
X16411787Y-10581213D01*
X16454213Y-10581213D01*
X16463000Y-10600000D02*
X16463000Y-10520000D01*
X16403000Y-10520000D02*
G75*
G02*
X16463000Y-10520000I30000J0D01*
G01*
X16403000Y-10520000D02*
X16403000Y-10600000D01*
X16403000Y-10600000D02*
G75*
G03*
X16463000Y-10600000I30000J0D01*
G01*
X17578213Y-10181213D02*
X17578213Y-10138787D01*
X17535787Y-10138787D01*
X17535787Y-10181213D01*
X17578213Y-10181213D01*
X17587000Y-10220000D02*
X17587000Y-10100000D01*
X17527000Y-10100000D02*
G75*
G02*
X17587000Y-10100000I30000J0D01*
G01*
X17527000Y-10100000D02*
X17527000Y-10220000D01*
X17527000Y-10220000D02*
G75*
G03*
X17587000Y-10220000I30000J0D01*
G01*
X17578213Y-10581213D02*
X17578213Y-10538787D01*
X17535787Y-10538787D01*
X17535787Y-10581213D01*
X17578213Y-10581213D01*
X17587000Y-10600000D02*
X17587000Y-10520000D01*
X17527000Y-10520000D02*
G75*
G02*
X17587000Y-10520000I30000J0D01*
G01*
X17527000Y-10520000D02*
X17527000Y-10600000D01*
X17527000Y-10600000D02*
G75*
G03*
X17587000Y-10600000I30000J0D01*
G01*
D11*
X15260277Y-14311984D02*
X15260277Y-14111984D01*
X15260277Y-14111984D02*
X15307896Y-14111984D01*
X15307896Y-14111984D02*
X15336467Y-14121508D01*
X15336467Y-14121508D02*
X15355515Y-14140555D01*
X15355515Y-14140555D02*
X15365039Y-14159603D01*
X15365039Y-14159603D02*
X15374562Y-14197698D01*
X15374562Y-14197698D02*
X15374562Y-14226269D01*
X15374562Y-14226269D02*
X15365039Y-14264365D01*
X15365039Y-14264365D02*
X15355515Y-14283412D01*
X15355515Y-14283412D02*
X15336467Y-14302460D01*
X15336467Y-14302460D02*
X15307896Y-14311984D01*
X15307896Y-14311984D02*
X15260277Y-14311984D01*
X15460277Y-14311984D02*
X15460277Y-14178650D01*
X15460277Y-14216746D02*
X15469801Y-14197698D01*
X15469801Y-14197698D02*
X15479324Y-14188174D01*
X15479324Y-14188174D02*
X15498372Y-14178650D01*
X15498372Y-14178650D02*
X15517420Y-14178650D01*
X15584086Y-14311984D02*
X15584086Y-14178650D01*
X15584086Y-14111984D02*
X15574562Y-14121508D01*
X15574562Y-14121508D02*
X15584086Y-14131031D01*
X15584086Y-14131031D02*
X15593610Y-14121508D01*
X15593610Y-14121508D02*
X15584086Y-14111984D01*
X15584086Y-14111984D02*
X15584086Y-14131031D01*
X15707896Y-14311984D02*
X15688848Y-14302460D01*
X15688848Y-14302460D02*
X15679324Y-14283412D01*
X15679324Y-14283412D02*
X15679324Y-14111984D01*
X15812658Y-14311984D02*
X15793610Y-14302460D01*
X15793610Y-14302460D02*
X15784086Y-14283412D01*
X15784086Y-14283412D02*
X15784086Y-14111984D01*
X16041229Y-14311984D02*
X16041229Y-14111984D01*
X16041229Y-14111984D02*
X16107896Y-14254841D01*
X16107896Y-14254841D02*
X16174562Y-14111984D01*
X16174562Y-14111984D02*
X16174562Y-14311984D01*
X16355515Y-14311984D02*
X16355515Y-14207222D01*
X16355515Y-14207222D02*
X16345991Y-14188174D01*
X16345991Y-14188174D02*
X16326943Y-14178650D01*
X16326943Y-14178650D02*
X16288848Y-14178650D01*
X16288848Y-14178650D02*
X16269801Y-14188174D01*
X16355515Y-14302460D02*
X16336467Y-14311984D01*
X16336467Y-14311984D02*
X16288848Y-14311984D01*
X16288848Y-14311984D02*
X16269801Y-14302460D01*
X16269801Y-14302460D02*
X16260277Y-14283412D01*
X16260277Y-14283412D02*
X16260277Y-14264365D01*
X16260277Y-14264365D02*
X16269801Y-14245317D01*
X16269801Y-14245317D02*
X16288848Y-14235793D01*
X16288848Y-14235793D02*
X16336467Y-14235793D01*
X16336467Y-14235793D02*
X16355515Y-14226269D01*
X16450753Y-14178650D02*
X16450753Y-14378650D01*
X16450753Y-14188174D02*
X16469801Y-14178650D01*
X16469801Y-14178650D02*
X16507896Y-14178650D01*
X16507896Y-14178650D02*
X16526943Y-14188174D01*
X16526943Y-14188174D02*
X16536467Y-14197698D01*
X16536467Y-14197698D02*
X16545991Y-14216746D01*
X16545991Y-14216746D02*
X16545991Y-14273888D01*
X16545991Y-14273888D02*
X16536467Y-14292936D01*
X16536467Y-14292936D02*
X16526943Y-14302460D01*
X16526943Y-14302460D02*
X16507896Y-14311984D01*
X16507896Y-14311984D02*
X16469801Y-14311984D01*
X16469801Y-14311984D02*
X16450753Y-14302460D01*
X16631705Y-14292936D02*
X16641229Y-14302460D01*
X16641229Y-14302460D02*
X16631705Y-14311984D01*
X16631705Y-14311984D02*
X16622182Y-14302460D01*
X16622182Y-14302460D02*
X16631705Y-14292936D01*
X16631705Y-14292936D02*
X16631705Y-14311984D01*
X16631705Y-14188174D02*
X16641229Y-14197698D01*
X16641229Y-14197698D02*
X16631705Y-14207222D01*
X16631705Y-14207222D02*
X16622182Y-14197698D01*
X16622182Y-14197698D02*
X16631705Y-14188174D01*
X16631705Y-14188174D02*
X16631705Y-14207222D01*
D12*
X14979500Y-14630500D02*
X14999500Y-14650500D01*
X14999500Y-14630500D02*
X14979500Y-14650500D01*
D11*
X15298372Y-14531984D02*
X15317420Y-14531984D01*
X15317420Y-14531984D02*
X15336467Y-14541508D01*
X15336467Y-14541508D02*
X15345991Y-14551031D01*
X15345991Y-14551031D02*
X15355515Y-14570079D01*
X15355515Y-14570079D02*
X15365039Y-14608174D01*
X15365039Y-14608174D02*
X15365039Y-14655793D01*
X15365039Y-14655793D02*
X15355515Y-14693888D01*
X15355515Y-14693888D02*
X15345991Y-14712936D01*
X15345991Y-14712936D02*
X15336467Y-14722460D01*
X15336467Y-14722460D02*
X15317420Y-14731984D01*
X15317420Y-14731984D02*
X15298372Y-14731984D01*
X15298372Y-14731984D02*
X15279324Y-14722460D01*
X15279324Y-14722460D02*
X15269801Y-14712936D01*
X15269801Y-14712936D02*
X15260277Y-14693888D01*
X15260277Y-14693888D02*
X15250753Y-14655793D01*
X15250753Y-14655793D02*
X15250753Y-14608174D01*
X15250753Y-14608174D02*
X15260277Y-14570079D01*
X15260277Y-14570079D02*
X15269801Y-14551031D01*
X15269801Y-14551031D02*
X15279324Y-14541508D01*
X15279324Y-14541508D02*
X15298372Y-14531984D01*
X15450753Y-14712936D02*
X15460277Y-14722460D01*
X15460277Y-14722460D02*
X15450753Y-14731984D01*
X15450753Y-14731984D02*
X15441229Y-14722460D01*
X15441229Y-14722460D02*
X15450753Y-14712936D01*
X15450753Y-14712936D02*
X15450753Y-14731984D01*
X15536467Y-14551031D02*
X15545991Y-14541508D01*
X15545991Y-14541508D02*
X15565039Y-14531984D01*
X15565039Y-14531984D02*
X15612658Y-14531984D01*
X15612658Y-14531984D02*
X15631705Y-14541508D01*
X15631705Y-14541508D02*
X15641229Y-14551031D01*
X15641229Y-14551031D02*
X15650753Y-14570079D01*
X15650753Y-14570079D02*
X15650753Y-14589127D01*
X15650753Y-14589127D02*
X15641229Y-14617698D01*
X15641229Y-14617698D02*
X15526943Y-14731984D01*
X15526943Y-14731984D02*
X15650753Y-14731984D01*
X15774562Y-14531984D02*
X15793610Y-14531984D01*
X15793610Y-14531984D02*
X15812658Y-14541508D01*
X15812658Y-14541508D02*
X15822182Y-14551031D01*
X15822182Y-14551031D02*
X15831705Y-14570079D01*
X15831705Y-14570079D02*
X15841229Y-14608174D01*
X15841229Y-14608174D02*
X15841229Y-14655793D01*
X15841229Y-14655793D02*
X15831705Y-14693888D01*
X15831705Y-14693888D02*
X15822182Y-14712936D01*
X15822182Y-14712936D02*
X15812658Y-14722460D01*
X15812658Y-14722460D02*
X15793610Y-14731984D01*
X15793610Y-14731984D02*
X15774562Y-14731984D01*
X15774562Y-14731984D02*
X15755515Y-14722460D01*
X15755515Y-14722460D02*
X15745991Y-14712936D01*
X15745991Y-14712936D02*
X15736467Y-14693888D01*
X15736467Y-14693888D02*
X15726943Y-14655793D01*
X15726943Y-14655793D02*
X15726943Y-14608174D01*
X15726943Y-14608174D02*
X15736467Y-14570079D01*
X15736467Y-14570079D02*
X15745991Y-14551031D01*
X15745991Y-14551031D02*
X15755515Y-14541508D01*
X15755515Y-14541508D02*
X15774562Y-14531984D01*
X15965039Y-14531984D02*
X15984086Y-14531984D01*
X15984086Y-14531984D02*
X16003134Y-14541508D01*
X16003134Y-14541508D02*
X16012658Y-14551031D01*
X16012658Y-14551031D02*
X16022182Y-14570079D01*
X16022182Y-14570079D02*
X16031705Y-14608174D01*
X16031705Y-14608174D02*
X16031705Y-14655793D01*
X16031705Y-14655793D02*
X16022182Y-14693888D01*
X16022182Y-14693888D02*
X16012658Y-14712936D01*
X16012658Y-14712936D02*
X16003134Y-14722460D01*
X16003134Y-14722460D02*
X15984086Y-14731984D01*
X15984086Y-14731984D02*
X15965039Y-14731984D01*
X15965039Y-14731984D02*
X15945991Y-14722460D01*
X15945991Y-14722460D02*
X15936467Y-14712936D01*
X15936467Y-14712936D02*
X15926943Y-14693888D01*
X15926943Y-14693888D02*
X15917420Y-14655793D01*
X15917420Y-14655793D02*
X15917420Y-14608174D01*
X15917420Y-14608174D02*
X15926943Y-14570079D01*
X15926943Y-14570079D02*
X15936467Y-14551031D01*
X15936467Y-14551031D02*
X15945991Y-14541508D01*
X15945991Y-14541508D02*
X15965039Y-14531984D01*
X16117420Y-14731984D02*
X16117420Y-14598650D01*
X16117420Y-14617698D02*
X16126943Y-14608174D01*
X16126943Y-14608174D02*
X16145991Y-14598650D01*
X16145991Y-14598650D02*
X16174563Y-14598650D01*
X16174563Y-14598650D02*
X16193610Y-14608174D01*
X16193610Y-14608174D02*
X16203134Y-14627222D01*
X16203134Y-14627222D02*
X16203134Y-14731984D01*
X16203134Y-14627222D02*
X16212658Y-14608174D01*
X16212658Y-14608174D02*
X16231705Y-14598650D01*
X16231705Y-14598650D02*
X16260277Y-14598650D01*
X16260277Y-14598650D02*
X16279324Y-14608174D01*
X16279324Y-14608174D02*
X16288848Y-14627222D01*
X16288848Y-14627222D02*
X16288848Y-14731984D01*
X16384086Y-14731984D02*
X16384086Y-14598650D01*
X16384086Y-14617698D02*
X16393610Y-14608174D01*
X16393610Y-14608174D02*
X16412658Y-14598650D01*
X16412658Y-14598650D02*
X16441229Y-14598650D01*
X16441229Y-14598650D02*
X16460277Y-14608174D01*
X16460277Y-14608174D02*
X16469801Y-14627222D01*
X16469801Y-14627222D02*
X16469801Y-14731984D01*
X16469801Y-14627222D02*
X16479324Y-14608174D01*
X16479324Y-14608174D02*
X16498372Y-14598650D01*
X16498372Y-14598650D02*
X16526943Y-14598650D01*
X16526943Y-14598650D02*
X16545991Y-14608174D01*
X16545991Y-14608174D02*
X16555515Y-14627222D01*
X16555515Y-14627222D02*
X16555515Y-14731984D01*
X16945991Y-14522460D02*
X16774563Y-14779603D01*
X17203134Y-14531984D02*
X17222182Y-14531984D01*
X17222182Y-14531984D02*
X17241229Y-14541508D01*
X17241229Y-14541508D02*
X17250753Y-14551031D01*
X17250753Y-14551031D02*
X17260277Y-14570079D01*
X17260277Y-14570079D02*
X17269801Y-14608174D01*
X17269801Y-14608174D02*
X17269801Y-14655793D01*
X17269801Y-14655793D02*
X17260277Y-14693888D01*
X17260277Y-14693888D02*
X17250753Y-14712936D01*
X17250753Y-14712936D02*
X17241229Y-14722460D01*
X17241229Y-14722460D02*
X17222182Y-14731984D01*
X17222182Y-14731984D02*
X17203134Y-14731984D01*
X17203134Y-14731984D02*
X17184087Y-14722460D01*
X17184087Y-14722460D02*
X17174563Y-14712936D01*
X17174563Y-14712936D02*
X17165039Y-14693888D01*
X17165039Y-14693888D02*
X17155515Y-14655793D01*
X17155515Y-14655793D02*
X17155515Y-14608174D01*
X17155515Y-14608174D02*
X17165039Y-14570079D01*
X17165039Y-14570079D02*
X17174563Y-14551031D01*
X17174563Y-14551031D02*
X17184087Y-14541508D01*
X17184087Y-14541508D02*
X17203134Y-14531984D01*
X17355515Y-14712936D02*
X17365039Y-14722460D01*
X17365039Y-14722460D02*
X17355515Y-14731984D01*
X17355515Y-14731984D02*
X17345991Y-14722460D01*
X17345991Y-14722460D02*
X17355515Y-14712936D01*
X17355515Y-14712936D02*
X17355515Y-14731984D01*
X17488848Y-14531984D02*
X17507896Y-14531984D01*
X17507896Y-14531984D02*
X17526944Y-14541508D01*
X17526944Y-14541508D02*
X17536468Y-14551031D01*
X17536468Y-14551031D02*
X17545991Y-14570079D01*
X17545991Y-14570079D02*
X17555515Y-14608174D01*
X17555515Y-14608174D02*
X17555515Y-14655793D01*
X17555515Y-14655793D02*
X17545991Y-14693888D01*
X17545991Y-14693888D02*
X17536468Y-14712936D01*
X17536468Y-14712936D02*
X17526944Y-14722460D01*
X17526944Y-14722460D02*
X17507896Y-14731984D01*
X17507896Y-14731984D02*
X17488848Y-14731984D01*
X17488848Y-14731984D02*
X17469801Y-14722460D01*
X17469801Y-14722460D02*
X17460277Y-14712936D01*
X17460277Y-14712936D02*
X17450753Y-14693888D01*
X17450753Y-14693888D02*
X17441229Y-14655793D01*
X17441229Y-14655793D02*
X17441229Y-14608174D01*
X17441229Y-14608174D02*
X17450753Y-14570079D01*
X17450753Y-14570079D02*
X17460277Y-14551031D01*
X17460277Y-14551031D02*
X17469801Y-14541508D01*
X17469801Y-14541508D02*
X17488848Y-14531984D01*
X17679325Y-14531984D02*
X17698372Y-14531984D01*
X17698372Y-14531984D02*
X17717420Y-14541508D01*
X17717420Y-14541508D02*
X17726944Y-14551031D01*
X17726944Y-14551031D02*
X17736468Y-14570079D01*
X17736468Y-14570079D02*
X17745991Y-14608174D01*
X17745991Y-14608174D02*
X17745991Y-14655793D01*
X17745991Y-14655793D02*
X17736468Y-14693888D01*
X17736468Y-14693888D02*
X17726944Y-14712936D01*
X17726944Y-14712936D02*
X17717420Y-14722460D01*
X17717420Y-14722460D02*
X17698372Y-14731984D01*
X17698372Y-14731984D02*
X17679325Y-14731984D01*
X17679325Y-14731984D02*
X17660277Y-14722460D01*
X17660277Y-14722460D02*
X17650753Y-14712936D01*
X17650753Y-14712936D02*
X17641229Y-14693888D01*
X17641229Y-14693888D02*
X17631706Y-14655793D01*
X17631706Y-14655793D02*
X17631706Y-14608174D01*
X17631706Y-14608174D02*
X17641229Y-14570079D01*
X17641229Y-14570079D02*
X17650753Y-14551031D01*
X17650753Y-14551031D02*
X17660277Y-14541508D01*
X17660277Y-14541508D02*
X17679325Y-14531984D01*
X17812658Y-14531984D02*
X17945991Y-14531984D01*
X17945991Y-14531984D02*
X17860277Y-14731984D01*
X18031706Y-14731984D02*
X18069801Y-14731984D01*
X18069801Y-14731984D02*
X18088849Y-14722460D01*
X18088849Y-14722460D02*
X18098372Y-14712936D01*
X18098372Y-14712936D02*
X18117420Y-14684365D01*
X18117420Y-14684365D02*
X18126944Y-14646269D01*
X18126944Y-14646269D02*
X18126944Y-14570079D01*
X18126944Y-14570079D02*
X18117420Y-14551031D01*
X18117420Y-14551031D02*
X18107896Y-14541508D01*
X18107896Y-14541508D02*
X18088849Y-14531984D01*
X18088849Y-14531984D02*
X18050753Y-14531984D01*
X18050753Y-14531984D02*
X18031706Y-14541508D01*
X18031706Y-14541508D02*
X18022182Y-14551031D01*
X18022182Y-14551031D02*
X18012658Y-14570079D01*
X18012658Y-14570079D02*
X18012658Y-14617698D01*
X18012658Y-14617698D02*
X18022182Y-14636746D01*
X18022182Y-14636746D02*
X18031706Y-14646269D01*
X18031706Y-14646269D02*
X18050753Y-14655793D01*
X18050753Y-14655793D02*
X18088849Y-14655793D01*
X18088849Y-14655793D02*
X18107896Y-14646269D01*
X18107896Y-14646269D02*
X18117420Y-14636746D01*
X18117420Y-14636746D02*
X18126944Y-14617698D01*
X18203134Y-14531984D02*
X18203134Y-14570079D01*
X18279325Y-14531984D02*
X18279325Y-14570079D01*
X18574563Y-14808174D02*
X18565039Y-14798650D01*
X18565039Y-14798650D02*
X18545991Y-14770079D01*
X18545991Y-14770079D02*
X18536468Y-14751031D01*
X18536468Y-14751031D02*
X18526944Y-14722460D01*
X18526944Y-14722460D02*
X18517420Y-14674841D01*
X18517420Y-14674841D02*
X18517420Y-14636746D01*
X18517420Y-14636746D02*
X18526944Y-14589127D01*
X18526944Y-14589127D02*
X18536468Y-14560555D01*
X18536468Y-14560555D02*
X18545991Y-14541508D01*
X18545991Y-14541508D02*
X18565039Y-14512936D01*
X18565039Y-14512936D02*
X18574563Y-14503412D01*
X18631706Y-14531984D02*
X18765039Y-14531984D01*
X18765039Y-14531984D02*
X18679325Y-14731984D01*
X18926944Y-14531984D02*
X18888849Y-14531984D01*
X18888849Y-14531984D02*
X18869801Y-14541508D01*
X18869801Y-14541508D02*
X18860277Y-14551031D01*
X18860277Y-14551031D02*
X18841230Y-14579603D01*
X18841230Y-14579603D02*
X18831706Y-14617698D01*
X18831706Y-14617698D02*
X18831706Y-14693888D01*
X18831706Y-14693888D02*
X18841230Y-14712936D01*
X18841230Y-14712936D02*
X18850753Y-14722460D01*
X18850753Y-14722460D02*
X18869801Y-14731984D01*
X18869801Y-14731984D02*
X18907896Y-14731984D01*
X18907896Y-14731984D02*
X18926944Y-14722460D01*
X18926944Y-14722460D02*
X18936468Y-14712936D01*
X18936468Y-14712936D02*
X18945991Y-14693888D01*
X18945991Y-14693888D02*
X18945991Y-14646269D01*
X18945991Y-14646269D02*
X18936468Y-14627222D01*
X18936468Y-14627222D02*
X18926944Y-14617698D01*
X18926944Y-14617698D02*
X18907896Y-14608174D01*
X18907896Y-14608174D02*
X18869801Y-14608174D01*
X18869801Y-14608174D02*
X18850753Y-14617698D01*
X18850753Y-14617698D02*
X18841230Y-14627222D01*
X18841230Y-14627222D02*
X18831706Y-14646269D01*
X19184087Y-14731984D02*
X19184087Y-14531984D01*
X19269801Y-14731984D02*
X19269801Y-14627222D01*
X19269801Y-14627222D02*
X19260277Y-14608174D01*
X19260277Y-14608174D02*
X19241230Y-14598650D01*
X19241230Y-14598650D02*
X19212658Y-14598650D01*
X19212658Y-14598650D02*
X19193611Y-14608174D01*
X19193611Y-14608174D02*
X19184087Y-14617698D01*
X19393611Y-14731984D02*
X19374563Y-14722460D01*
X19374563Y-14722460D02*
X19365039Y-14712936D01*
X19365039Y-14712936D02*
X19355515Y-14693888D01*
X19355515Y-14693888D02*
X19355515Y-14636746D01*
X19355515Y-14636746D02*
X19365039Y-14617698D01*
X19365039Y-14617698D02*
X19374563Y-14608174D01*
X19374563Y-14608174D02*
X19393611Y-14598650D01*
X19393611Y-14598650D02*
X19422182Y-14598650D01*
X19422182Y-14598650D02*
X19441230Y-14608174D01*
X19441230Y-14608174D02*
X19450753Y-14617698D01*
X19450753Y-14617698D02*
X19460277Y-14636746D01*
X19460277Y-14636746D02*
X19460277Y-14693888D01*
X19460277Y-14693888D02*
X19450753Y-14712936D01*
X19450753Y-14712936D02*
X19441230Y-14722460D01*
X19441230Y-14722460D02*
X19422182Y-14731984D01*
X19422182Y-14731984D02*
X19393611Y-14731984D01*
X19574563Y-14731984D02*
X19555515Y-14722460D01*
X19555515Y-14722460D02*
X19545992Y-14703412D01*
X19545992Y-14703412D02*
X19545992Y-14531984D01*
X19726944Y-14722460D02*
X19707896Y-14731984D01*
X19707896Y-14731984D02*
X19669801Y-14731984D01*
X19669801Y-14731984D02*
X19650753Y-14722460D01*
X19650753Y-14722460D02*
X19641230Y-14703412D01*
X19641230Y-14703412D02*
X19641230Y-14627222D01*
X19641230Y-14627222D02*
X19650753Y-14608174D01*
X19650753Y-14608174D02*
X19669801Y-14598650D01*
X19669801Y-14598650D02*
X19707896Y-14598650D01*
X19707896Y-14598650D02*
X19726944Y-14608174D01*
X19726944Y-14608174D02*
X19736468Y-14627222D01*
X19736468Y-14627222D02*
X19736468Y-14646269D01*
X19736468Y-14646269D02*
X19641230Y-14665317D01*
X19812658Y-14722460D02*
X19831706Y-14731984D01*
X19831706Y-14731984D02*
X19869801Y-14731984D01*
X19869801Y-14731984D02*
X19888849Y-14722460D01*
X19888849Y-14722460D02*
X19898373Y-14703412D01*
X19898373Y-14703412D02*
X19898373Y-14693888D01*
X19898373Y-14693888D02*
X19888849Y-14674841D01*
X19888849Y-14674841D02*
X19869801Y-14665317D01*
X19869801Y-14665317D02*
X19841230Y-14665317D01*
X19841230Y-14665317D02*
X19822182Y-14655793D01*
X19822182Y-14655793D02*
X19812658Y-14636746D01*
X19812658Y-14636746D02*
X19812658Y-14627222D01*
X19812658Y-14627222D02*
X19822182Y-14608174D01*
X19822182Y-14608174D02*
X19841230Y-14598650D01*
X19841230Y-14598650D02*
X19869801Y-14598650D01*
X19869801Y-14598650D02*
X19888849Y-14608174D01*
X19965039Y-14808174D02*
X19974563Y-14798650D01*
X19974563Y-14798650D02*
X19993611Y-14770079D01*
X19993611Y-14770079D02*
X20003134Y-14751031D01*
X20003134Y-14751031D02*
X20012658Y-14722460D01*
X20012658Y-14722460D02*
X20022182Y-14674841D01*
X20022182Y-14674841D02*
X20022182Y-14636746D01*
X20022182Y-14636746D02*
X20012658Y-14589127D01*
X20012658Y-14589127D02*
X20003134Y-14560555D01*
X20003134Y-14560555D02*
X19993611Y-14541508D01*
X19993611Y-14541508D02*
X19974563Y-14512936D01*
X19974563Y-14512936D02*
X19965039Y-14503412D01*
D12*
X14999500Y-14904500D02*
G75*
G02*
X14974500Y-14904500I-12500J0D01*
G01*
X14974500Y-14904500D02*
G75*
G02*
X14999500Y-14904500I12500J0D01*
G01*
D11*
X15298372Y-14795984D02*
X15317420Y-14795984D01*
X15317420Y-14795984D02*
X15336467Y-14805508D01*
X15336467Y-14805508D02*
X15345991Y-14815031D01*
X15345991Y-14815031D02*
X15355515Y-14834079D01*
X15355515Y-14834079D02*
X15365039Y-14872174D01*
X15365039Y-14872174D02*
X15365039Y-14919793D01*
X15365039Y-14919793D02*
X15355515Y-14957888D01*
X15355515Y-14957888D02*
X15345991Y-14976936D01*
X15345991Y-14976936D02*
X15336467Y-14986460D01*
X15336467Y-14986460D02*
X15317420Y-14995984D01*
X15317420Y-14995984D02*
X15298372Y-14995984D01*
X15298372Y-14995984D02*
X15279324Y-14986460D01*
X15279324Y-14986460D02*
X15269801Y-14976936D01*
X15269801Y-14976936D02*
X15260277Y-14957888D01*
X15260277Y-14957888D02*
X15250753Y-14919793D01*
X15250753Y-14919793D02*
X15250753Y-14872174D01*
X15250753Y-14872174D02*
X15260277Y-14834079D01*
X15260277Y-14834079D02*
X15269801Y-14815031D01*
X15269801Y-14815031D02*
X15279324Y-14805508D01*
X15279324Y-14805508D02*
X15298372Y-14795984D01*
X15450753Y-14976936D02*
X15460277Y-14986460D01*
X15460277Y-14986460D02*
X15450753Y-14995984D01*
X15450753Y-14995984D02*
X15441229Y-14986460D01*
X15441229Y-14986460D02*
X15450753Y-14976936D01*
X15450753Y-14976936D02*
X15450753Y-14995984D01*
X15536467Y-14815031D02*
X15545991Y-14805508D01*
X15545991Y-14805508D02*
X15565039Y-14795984D01*
X15565039Y-14795984D02*
X15612658Y-14795984D01*
X15612658Y-14795984D02*
X15631705Y-14805508D01*
X15631705Y-14805508D02*
X15641229Y-14815031D01*
X15641229Y-14815031D02*
X15650753Y-14834079D01*
X15650753Y-14834079D02*
X15650753Y-14853127D01*
X15650753Y-14853127D02*
X15641229Y-14881698D01*
X15641229Y-14881698D02*
X15526943Y-14995984D01*
X15526943Y-14995984D02*
X15650753Y-14995984D01*
X15831705Y-14795984D02*
X15736467Y-14795984D01*
X15736467Y-14795984D02*
X15726943Y-14891222D01*
X15726943Y-14891222D02*
X15736467Y-14881698D01*
X15736467Y-14881698D02*
X15755515Y-14872174D01*
X15755515Y-14872174D02*
X15803134Y-14872174D01*
X15803134Y-14872174D02*
X15822182Y-14881698D01*
X15822182Y-14881698D02*
X15831705Y-14891222D01*
X15831705Y-14891222D02*
X15841229Y-14910269D01*
X15841229Y-14910269D02*
X15841229Y-14957888D01*
X15841229Y-14957888D02*
X15831705Y-14976936D01*
X15831705Y-14976936D02*
X15822182Y-14986460D01*
X15822182Y-14986460D02*
X15803134Y-14995984D01*
X15803134Y-14995984D02*
X15755515Y-14995984D01*
X15755515Y-14995984D02*
X15736467Y-14986460D01*
X15736467Y-14986460D02*
X15726943Y-14976936D01*
X15965039Y-14795984D02*
X15984086Y-14795984D01*
X15984086Y-14795984D02*
X16003134Y-14805508D01*
X16003134Y-14805508D02*
X16012658Y-14815031D01*
X16012658Y-14815031D02*
X16022182Y-14834079D01*
X16022182Y-14834079D02*
X16031705Y-14872174D01*
X16031705Y-14872174D02*
X16031705Y-14919793D01*
X16031705Y-14919793D02*
X16022182Y-14957888D01*
X16022182Y-14957888D02*
X16012658Y-14976936D01*
X16012658Y-14976936D02*
X16003134Y-14986460D01*
X16003134Y-14986460D02*
X15984086Y-14995984D01*
X15984086Y-14995984D02*
X15965039Y-14995984D01*
X15965039Y-14995984D02*
X15945991Y-14986460D01*
X15945991Y-14986460D02*
X15936467Y-14976936D01*
X15936467Y-14976936D02*
X15926943Y-14957888D01*
X15926943Y-14957888D02*
X15917420Y-14919793D01*
X15917420Y-14919793D02*
X15917420Y-14872174D01*
X15917420Y-14872174D02*
X15926943Y-14834079D01*
X15926943Y-14834079D02*
X15936467Y-14815031D01*
X15936467Y-14815031D02*
X15945991Y-14805508D01*
X15945991Y-14805508D02*
X15965039Y-14795984D01*
X16117420Y-14995984D02*
X16117420Y-14862650D01*
X16117420Y-14881698D02*
X16126943Y-14872174D01*
X16126943Y-14872174D02*
X16145991Y-14862650D01*
X16145991Y-14862650D02*
X16174563Y-14862650D01*
X16174563Y-14862650D02*
X16193610Y-14872174D01*
X16193610Y-14872174D02*
X16203134Y-14891222D01*
X16203134Y-14891222D02*
X16203134Y-14995984D01*
X16203134Y-14891222D02*
X16212658Y-14872174D01*
X16212658Y-14872174D02*
X16231705Y-14862650D01*
X16231705Y-14862650D02*
X16260277Y-14862650D01*
X16260277Y-14862650D02*
X16279324Y-14872174D01*
X16279324Y-14872174D02*
X16288848Y-14891222D01*
X16288848Y-14891222D02*
X16288848Y-14995984D01*
X16384086Y-14995984D02*
X16384086Y-14862650D01*
X16384086Y-14881698D02*
X16393610Y-14872174D01*
X16393610Y-14872174D02*
X16412658Y-14862650D01*
X16412658Y-14862650D02*
X16441229Y-14862650D01*
X16441229Y-14862650D02*
X16460277Y-14872174D01*
X16460277Y-14872174D02*
X16469801Y-14891222D01*
X16469801Y-14891222D02*
X16469801Y-14995984D01*
X16469801Y-14891222D02*
X16479324Y-14872174D01*
X16479324Y-14872174D02*
X16498372Y-14862650D01*
X16498372Y-14862650D02*
X16526943Y-14862650D01*
X16526943Y-14862650D02*
X16545991Y-14872174D01*
X16545991Y-14872174D02*
X16555515Y-14891222D01*
X16555515Y-14891222D02*
X16555515Y-14995984D01*
X16945991Y-14786460D02*
X16774563Y-15043603D01*
X17203134Y-14795984D02*
X17222182Y-14795984D01*
X17222182Y-14795984D02*
X17241229Y-14805508D01*
X17241229Y-14805508D02*
X17250753Y-14815031D01*
X17250753Y-14815031D02*
X17260277Y-14834079D01*
X17260277Y-14834079D02*
X17269801Y-14872174D01*
X17269801Y-14872174D02*
X17269801Y-14919793D01*
X17269801Y-14919793D02*
X17260277Y-14957888D01*
X17260277Y-14957888D02*
X17250753Y-14976936D01*
X17250753Y-14976936D02*
X17241229Y-14986460D01*
X17241229Y-14986460D02*
X17222182Y-14995984D01*
X17222182Y-14995984D02*
X17203134Y-14995984D01*
X17203134Y-14995984D02*
X17184087Y-14986460D01*
X17184087Y-14986460D02*
X17174563Y-14976936D01*
X17174563Y-14976936D02*
X17165039Y-14957888D01*
X17165039Y-14957888D02*
X17155515Y-14919793D01*
X17155515Y-14919793D02*
X17155515Y-14872174D01*
X17155515Y-14872174D02*
X17165039Y-14834079D01*
X17165039Y-14834079D02*
X17174563Y-14815031D01*
X17174563Y-14815031D02*
X17184087Y-14805508D01*
X17184087Y-14805508D02*
X17203134Y-14795984D01*
X17355515Y-14976936D02*
X17365039Y-14986460D01*
X17365039Y-14986460D02*
X17355515Y-14995984D01*
X17355515Y-14995984D02*
X17345991Y-14986460D01*
X17345991Y-14986460D02*
X17355515Y-14976936D01*
X17355515Y-14976936D02*
X17355515Y-14995984D01*
X17488848Y-14795984D02*
X17507896Y-14795984D01*
X17507896Y-14795984D02*
X17526944Y-14805508D01*
X17526944Y-14805508D02*
X17536468Y-14815031D01*
X17536468Y-14815031D02*
X17545991Y-14834079D01*
X17545991Y-14834079D02*
X17555515Y-14872174D01*
X17555515Y-14872174D02*
X17555515Y-14919793D01*
X17555515Y-14919793D02*
X17545991Y-14957888D01*
X17545991Y-14957888D02*
X17536468Y-14976936D01*
X17536468Y-14976936D02*
X17526944Y-14986460D01*
X17526944Y-14986460D02*
X17507896Y-14995984D01*
X17507896Y-14995984D02*
X17488848Y-14995984D01*
X17488848Y-14995984D02*
X17469801Y-14986460D01*
X17469801Y-14986460D02*
X17460277Y-14976936D01*
X17460277Y-14976936D02*
X17450753Y-14957888D01*
X17450753Y-14957888D02*
X17441229Y-14919793D01*
X17441229Y-14919793D02*
X17441229Y-14872174D01*
X17441229Y-14872174D02*
X17450753Y-14834079D01*
X17450753Y-14834079D02*
X17460277Y-14815031D01*
X17460277Y-14815031D02*
X17469801Y-14805508D01*
X17469801Y-14805508D02*
X17488848Y-14795984D01*
X17679325Y-14795984D02*
X17698372Y-14795984D01*
X17698372Y-14795984D02*
X17717420Y-14805508D01*
X17717420Y-14805508D02*
X17726944Y-14815031D01*
X17726944Y-14815031D02*
X17736468Y-14834079D01*
X17736468Y-14834079D02*
X17745991Y-14872174D01*
X17745991Y-14872174D02*
X17745991Y-14919793D01*
X17745991Y-14919793D02*
X17736468Y-14957888D01*
X17736468Y-14957888D02*
X17726944Y-14976936D01*
X17726944Y-14976936D02*
X17717420Y-14986460D01*
X17717420Y-14986460D02*
X17698372Y-14995984D01*
X17698372Y-14995984D02*
X17679325Y-14995984D01*
X17679325Y-14995984D02*
X17660277Y-14986460D01*
X17660277Y-14986460D02*
X17650753Y-14976936D01*
X17650753Y-14976936D02*
X17641229Y-14957888D01*
X17641229Y-14957888D02*
X17631706Y-14919793D01*
X17631706Y-14919793D02*
X17631706Y-14872174D01*
X17631706Y-14872174D02*
X17641229Y-14834079D01*
X17641229Y-14834079D02*
X17650753Y-14815031D01*
X17650753Y-14815031D02*
X17660277Y-14805508D01*
X17660277Y-14805508D02*
X17679325Y-14795984D01*
X17841229Y-14995984D02*
X17879325Y-14995984D01*
X17879325Y-14995984D02*
X17898372Y-14986460D01*
X17898372Y-14986460D02*
X17907896Y-14976936D01*
X17907896Y-14976936D02*
X17926944Y-14948365D01*
X17926944Y-14948365D02*
X17936468Y-14910269D01*
X17936468Y-14910269D02*
X17936468Y-14834079D01*
X17936468Y-14834079D02*
X17926944Y-14815031D01*
X17926944Y-14815031D02*
X17917420Y-14805508D01*
X17917420Y-14805508D02*
X17898372Y-14795984D01*
X17898372Y-14795984D02*
X17860277Y-14795984D01*
X17860277Y-14795984D02*
X17841229Y-14805508D01*
X17841229Y-14805508D02*
X17831706Y-14815031D01*
X17831706Y-14815031D02*
X17822182Y-14834079D01*
X17822182Y-14834079D02*
X17822182Y-14881698D01*
X17822182Y-14881698D02*
X17831706Y-14900746D01*
X17831706Y-14900746D02*
X17841229Y-14910269D01*
X17841229Y-14910269D02*
X17860277Y-14919793D01*
X17860277Y-14919793D02*
X17898372Y-14919793D01*
X17898372Y-14919793D02*
X17917420Y-14910269D01*
X17917420Y-14910269D02*
X17926944Y-14900746D01*
X17926944Y-14900746D02*
X17936468Y-14881698D01*
X18050753Y-14881698D02*
X18031706Y-14872174D01*
X18031706Y-14872174D02*
X18022182Y-14862650D01*
X18022182Y-14862650D02*
X18012658Y-14843603D01*
X18012658Y-14843603D02*
X18012658Y-14834079D01*
X18012658Y-14834079D02*
X18022182Y-14815031D01*
X18022182Y-14815031D02*
X18031706Y-14805508D01*
X18031706Y-14805508D02*
X18050753Y-14795984D01*
X18050753Y-14795984D02*
X18088849Y-14795984D01*
X18088849Y-14795984D02*
X18107896Y-14805508D01*
X18107896Y-14805508D02*
X18117420Y-14815031D01*
X18117420Y-14815031D02*
X18126944Y-14834079D01*
X18126944Y-14834079D02*
X18126944Y-14843603D01*
X18126944Y-14843603D02*
X18117420Y-14862650D01*
X18117420Y-14862650D02*
X18107896Y-14872174D01*
X18107896Y-14872174D02*
X18088849Y-14881698D01*
X18088849Y-14881698D02*
X18050753Y-14881698D01*
X18050753Y-14881698D02*
X18031706Y-14891222D01*
X18031706Y-14891222D02*
X18022182Y-14900746D01*
X18022182Y-14900746D02*
X18012658Y-14919793D01*
X18012658Y-14919793D02*
X18012658Y-14957888D01*
X18012658Y-14957888D02*
X18022182Y-14976936D01*
X18022182Y-14976936D02*
X18031706Y-14986460D01*
X18031706Y-14986460D02*
X18050753Y-14995984D01*
X18050753Y-14995984D02*
X18088849Y-14995984D01*
X18088849Y-14995984D02*
X18107896Y-14986460D01*
X18107896Y-14986460D02*
X18117420Y-14976936D01*
X18117420Y-14976936D02*
X18126944Y-14957888D01*
X18126944Y-14957888D02*
X18126944Y-14919793D01*
X18126944Y-14919793D02*
X18117420Y-14900746D01*
X18117420Y-14900746D02*
X18107896Y-14891222D01*
X18107896Y-14891222D02*
X18088849Y-14881698D01*
X18203134Y-14795984D02*
X18203134Y-14834079D01*
X18279325Y-14795984D02*
X18279325Y-14834079D01*
X18574563Y-15072174D02*
X18565039Y-15062650D01*
X18565039Y-15062650D02*
X18545991Y-15034079D01*
X18545991Y-15034079D02*
X18536468Y-15015031D01*
X18536468Y-15015031D02*
X18526944Y-14986460D01*
X18526944Y-14986460D02*
X18517420Y-14938841D01*
X18517420Y-14938841D02*
X18517420Y-14900746D01*
X18517420Y-14900746D02*
X18526944Y-14853127D01*
X18526944Y-14853127D02*
X18536468Y-14824555D01*
X18536468Y-14824555D02*
X18545991Y-14805508D01*
X18545991Y-14805508D02*
X18565039Y-14776936D01*
X18565039Y-14776936D02*
X18574563Y-14767412D01*
X18755515Y-14995984D02*
X18641230Y-14995984D01*
X18698372Y-14995984D02*
X18698372Y-14795984D01*
X18698372Y-14795984D02*
X18679325Y-14824555D01*
X18679325Y-14824555D02*
X18660277Y-14843603D01*
X18660277Y-14843603D02*
X18641230Y-14853127D01*
X18926944Y-14795984D02*
X18888849Y-14795984D01*
X18888849Y-14795984D02*
X18869801Y-14805508D01*
X18869801Y-14805508D02*
X18860277Y-14815031D01*
X18860277Y-14815031D02*
X18841230Y-14843603D01*
X18841230Y-14843603D02*
X18831706Y-14881698D01*
X18831706Y-14881698D02*
X18831706Y-14957888D01*
X18831706Y-14957888D02*
X18841230Y-14976936D01*
X18841230Y-14976936D02*
X18850753Y-14986460D01*
X18850753Y-14986460D02*
X18869801Y-14995984D01*
X18869801Y-14995984D02*
X18907896Y-14995984D01*
X18907896Y-14995984D02*
X18926944Y-14986460D01*
X18926944Y-14986460D02*
X18936468Y-14976936D01*
X18936468Y-14976936D02*
X18945991Y-14957888D01*
X18945991Y-14957888D02*
X18945991Y-14910269D01*
X18945991Y-14910269D02*
X18936468Y-14891222D01*
X18936468Y-14891222D02*
X18926944Y-14881698D01*
X18926944Y-14881698D02*
X18907896Y-14872174D01*
X18907896Y-14872174D02*
X18869801Y-14872174D01*
X18869801Y-14872174D02*
X18850753Y-14881698D01*
X18850753Y-14881698D02*
X18841230Y-14891222D01*
X18841230Y-14891222D02*
X18831706Y-14910269D01*
X19184087Y-14995984D02*
X19184087Y-14795984D01*
X19269801Y-14995984D02*
X19269801Y-14891222D01*
X19269801Y-14891222D02*
X19260277Y-14872174D01*
X19260277Y-14872174D02*
X19241230Y-14862650D01*
X19241230Y-14862650D02*
X19212658Y-14862650D01*
X19212658Y-14862650D02*
X19193611Y-14872174D01*
X19193611Y-14872174D02*
X19184087Y-14881698D01*
X19393611Y-14995984D02*
X19374563Y-14986460D01*
X19374563Y-14986460D02*
X19365039Y-14976936D01*
X19365039Y-14976936D02*
X19355515Y-14957888D01*
X19355515Y-14957888D02*
X19355515Y-14900746D01*
X19355515Y-14900746D02*
X19365039Y-14881698D01*
X19365039Y-14881698D02*
X19374563Y-14872174D01*
X19374563Y-14872174D02*
X19393611Y-14862650D01*
X19393611Y-14862650D02*
X19422182Y-14862650D01*
X19422182Y-14862650D02*
X19441230Y-14872174D01*
X19441230Y-14872174D02*
X19450753Y-14881698D01*
X19450753Y-14881698D02*
X19460277Y-14900746D01*
X19460277Y-14900746D02*
X19460277Y-14957888D01*
X19460277Y-14957888D02*
X19450753Y-14976936D01*
X19450753Y-14976936D02*
X19441230Y-14986460D01*
X19441230Y-14986460D02*
X19422182Y-14995984D01*
X19422182Y-14995984D02*
X19393611Y-14995984D01*
X19574563Y-14995984D02*
X19555515Y-14986460D01*
X19555515Y-14986460D02*
X19545992Y-14967412D01*
X19545992Y-14967412D02*
X19545992Y-14795984D01*
X19726944Y-14986460D02*
X19707896Y-14995984D01*
X19707896Y-14995984D02*
X19669801Y-14995984D01*
X19669801Y-14995984D02*
X19650753Y-14986460D01*
X19650753Y-14986460D02*
X19641230Y-14967412D01*
X19641230Y-14967412D02*
X19641230Y-14891222D01*
X19641230Y-14891222D02*
X19650753Y-14872174D01*
X19650753Y-14872174D02*
X19669801Y-14862650D01*
X19669801Y-14862650D02*
X19707896Y-14862650D01*
X19707896Y-14862650D02*
X19726944Y-14872174D01*
X19726944Y-14872174D02*
X19736468Y-14891222D01*
X19736468Y-14891222D02*
X19736468Y-14910269D01*
X19736468Y-14910269D02*
X19641230Y-14929317D01*
X19812658Y-14986460D02*
X19831706Y-14995984D01*
X19831706Y-14995984D02*
X19869801Y-14995984D01*
X19869801Y-14995984D02*
X19888849Y-14986460D01*
X19888849Y-14986460D02*
X19898373Y-14967412D01*
X19898373Y-14967412D02*
X19898373Y-14957888D01*
X19898373Y-14957888D02*
X19888849Y-14938841D01*
X19888849Y-14938841D02*
X19869801Y-14929317D01*
X19869801Y-14929317D02*
X19841230Y-14929317D01*
X19841230Y-14929317D02*
X19822182Y-14919793D01*
X19822182Y-14919793D02*
X19812658Y-14900746D01*
X19812658Y-14900746D02*
X19812658Y-14891222D01*
X19812658Y-14891222D02*
X19822182Y-14872174D01*
X19822182Y-14872174D02*
X19841230Y-14862650D01*
X19841230Y-14862650D02*
X19869801Y-14862650D01*
X19869801Y-14862650D02*
X19888849Y-14872174D01*
X19965039Y-15072174D02*
X19974563Y-15062650D01*
X19974563Y-15062650D02*
X19993611Y-15034079D01*
X19993611Y-15034079D02*
X20003134Y-15015031D01*
X20003134Y-15015031D02*
X20012658Y-14986460D01*
X20012658Y-14986460D02*
X20022182Y-14938841D01*
X20022182Y-14938841D02*
X20022182Y-14900746D01*
X20022182Y-14900746D02*
X20012658Y-14853127D01*
X20012658Y-14853127D02*
X20003134Y-14824555D01*
X20003134Y-14824555D02*
X19993611Y-14805508D01*
X19993611Y-14805508D02*
X19974563Y-14776936D01*
X19974563Y-14776936D02*
X19965039Y-14767412D01*
D12*
X14984500Y-15153500D02*
X14984500Y-15183500D01*
X14969500Y-15168500D02*
X14999500Y-15168500D01*
D11*
X15298372Y-15059984D02*
X15317420Y-15059984D01*
X15317420Y-15059984D02*
X15336467Y-15069508D01*
X15336467Y-15069508D02*
X15345991Y-15079031D01*
X15345991Y-15079031D02*
X15355515Y-15098079D01*
X15355515Y-15098079D02*
X15365039Y-15136174D01*
X15365039Y-15136174D02*
X15365039Y-15183793D01*
X15365039Y-15183793D02*
X15355515Y-15221888D01*
X15355515Y-15221888D02*
X15345991Y-15240936D01*
X15345991Y-15240936D02*
X15336467Y-15250460D01*
X15336467Y-15250460D02*
X15317420Y-15259984D01*
X15317420Y-15259984D02*
X15298372Y-15259984D01*
X15298372Y-15259984D02*
X15279324Y-15250460D01*
X15279324Y-15250460D02*
X15269801Y-15240936D01*
X15269801Y-15240936D02*
X15260277Y-15221888D01*
X15260277Y-15221888D02*
X15250753Y-15183793D01*
X15250753Y-15183793D02*
X15250753Y-15136174D01*
X15250753Y-15136174D02*
X15260277Y-15098079D01*
X15260277Y-15098079D02*
X15269801Y-15079031D01*
X15269801Y-15079031D02*
X15279324Y-15069508D01*
X15279324Y-15069508D02*
X15298372Y-15059984D01*
X15450753Y-15240936D02*
X15460277Y-15250460D01*
X15460277Y-15250460D02*
X15450753Y-15259984D01*
X15450753Y-15259984D02*
X15441229Y-15250460D01*
X15441229Y-15250460D02*
X15450753Y-15240936D01*
X15450753Y-15240936D02*
X15450753Y-15259984D01*
X15526943Y-15059984D02*
X15650753Y-15059984D01*
X15650753Y-15059984D02*
X15584086Y-15136174D01*
X15584086Y-15136174D02*
X15612658Y-15136174D01*
X15612658Y-15136174D02*
X15631705Y-15145698D01*
X15631705Y-15145698D02*
X15641229Y-15155222D01*
X15641229Y-15155222D02*
X15650753Y-15174269D01*
X15650753Y-15174269D02*
X15650753Y-15221888D01*
X15650753Y-15221888D02*
X15641229Y-15240936D01*
X15641229Y-15240936D02*
X15631705Y-15250460D01*
X15631705Y-15250460D02*
X15612658Y-15259984D01*
X15612658Y-15259984D02*
X15555515Y-15259984D01*
X15555515Y-15259984D02*
X15536467Y-15250460D01*
X15536467Y-15250460D02*
X15526943Y-15240936D01*
X15774562Y-15059984D02*
X15793610Y-15059984D01*
X15793610Y-15059984D02*
X15812658Y-15069508D01*
X15812658Y-15069508D02*
X15822182Y-15079031D01*
X15822182Y-15079031D02*
X15831705Y-15098079D01*
X15831705Y-15098079D02*
X15841229Y-15136174D01*
X15841229Y-15136174D02*
X15841229Y-15183793D01*
X15841229Y-15183793D02*
X15831705Y-15221888D01*
X15831705Y-15221888D02*
X15822182Y-15240936D01*
X15822182Y-15240936D02*
X15812658Y-15250460D01*
X15812658Y-15250460D02*
X15793610Y-15259984D01*
X15793610Y-15259984D02*
X15774562Y-15259984D01*
X15774562Y-15259984D02*
X15755515Y-15250460D01*
X15755515Y-15250460D02*
X15745991Y-15240936D01*
X15745991Y-15240936D02*
X15736467Y-15221888D01*
X15736467Y-15221888D02*
X15726943Y-15183793D01*
X15726943Y-15183793D02*
X15726943Y-15136174D01*
X15726943Y-15136174D02*
X15736467Y-15098079D01*
X15736467Y-15098079D02*
X15745991Y-15079031D01*
X15745991Y-15079031D02*
X15755515Y-15069508D01*
X15755515Y-15069508D02*
X15774562Y-15059984D01*
X15965039Y-15059984D02*
X15984086Y-15059984D01*
X15984086Y-15059984D02*
X16003134Y-15069508D01*
X16003134Y-15069508D02*
X16012658Y-15079031D01*
X16012658Y-15079031D02*
X16022182Y-15098079D01*
X16022182Y-15098079D02*
X16031705Y-15136174D01*
X16031705Y-15136174D02*
X16031705Y-15183793D01*
X16031705Y-15183793D02*
X16022182Y-15221888D01*
X16022182Y-15221888D02*
X16012658Y-15240936D01*
X16012658Y-15240936D02*
X16003134Y-15250460D01*
X16003134Y-15250460D02*
X15984086Y-15259984D01*
X15984086Y-15259984D02*
X15965039Y-15259984D01*
X15965039Y-15259984D02*
X15945991Y-15250460D01*
X15945991Y-15250460D02*
X15936467Y-15240936D01*
X15936467Y-15240936D02*
X15926943Y-15221888D01*
X15926943Y-15221888D02*
X15917420Y-15183793D01*
X15917420Y-15183793D02*
X15917420Y-15136174D01*
X15917420Y-15136174D02*
X15926943Y-15098079D01*
X15926943Y-15098079D02*
X15936467Y-15079031D01*
X15936467Y-15079031D02*
X15945991Y-15069508D01*
X15945991Y-15069508D02*
X15965039Y-15059984D01*
X16117420Y-15259984D02*
X16117420Y-15126650D01*
X16117420Y-15145698D02*
X16126943Y-15136174D01*
X16126943Y-15136174D02*
X16145991Y-15126650D01*
X16145991Y-15126650D02*
X16174563Y-15126650D01*
X16174563Y-15126650D02*
X16193610Y-15136174D01*
X16193610Y-15136174D02*
X16203134Y-15155222D01*
X16203134Y-15155222D02*
X16203134Y-15259984D01*
X16203134Y-15155222D02*
X16212658Y-15136174D01*
X16212658Y-15136174D02*
X16231705Y-15126650D01*
X16231705Y-15126650D02*
X16260277Y-15126650D01*
X16260277Y-15126650D02*
X16279324Y-15136174D01*
X16279324Y-15136174D02*
X16288848Y-15155222D01*
X16288848Y-15155222D02*
X16288848Y-15259984D01*
X16384086Y-15259984D02*
X16384086Y-15126650D01*
X16384086Y-15145698D02*
X16393610Y-15136174D01*
X16393610Y-15136174D02*
X16412658Y-15126650D01*
X16412658Y-15126650D02*
X16441229Y-15126650D01*
X16441229Y-15126650D02*
X16460277Y-15136174D01*
X16460277Y-15136174D02*
X16469801Y-15155222D01*
X16469801Y-15155222D02*
X16469801Y-15259984D01*
X16469801Y-15155222D02*
X16479324Y-15136174D01*
X16479324Y-15136174D02*
X16498372Y-15126650D01*
X16498372Y-15126650D02*
X16526943Y-15126650D01*
X16526943Y-15126650D02*
X16545991Y-15136174D01*
X16545991Y-15136174D02*
X16555515Y-15155222D01*
X16555515Y-15155222D02*
X16555515Y-15259984D01*
X16945991Y-15050460D02*
X16774563Y-15307603D01*
X17203134Y-15059984D02*
X17222182Y-15059984D01*
X17222182Y-15059984D02*
X17241229Y-15069508D01*
X17241229Y-15069508D02*
X17250753Y-15079031D01*
X17250753Y-15079031D02*
X17260277Y-15098079D01*
X17260277Y-15098079D02*
X17269801Y-15136174D01*
X17269801Y-15136174D02*
X17269801Y-15183793D01*
X17269801Y-15183793D02*
X17260277Y-15221888D01*
X17260277Y-15221888D02*
X17250753Y-15240936D01*
X17250753Y-15240936D02*
X17241229Y-15250460D01*
X17241229Y-15250460D02*
X17222182Y-15259984D01*
X17222182Y-15259984D02*
X17203134Y-15259984D01*
X17203134Y-15259984D02*
X17184087Y-15250460D01*
X17184087Y-15250460D02*
X17174563Y-15240936D01*
X17174563Y-15240936D02*
X17165039Y-15221888D01*
X17165039Y-15221888D02*
X17155515Y-15183793D01*
X17155515Y-15183793D02*
X17155515Y-15136174D01*
X17155515Y-15136174D02*
X17165039Y-15098079D01*
X17165039Y-15098079D02*
X17174563Y-15079031D01*
X17174563Y-15079031D02*
X17184087Y-15069508D01*
X17184087Y-15069508D02*
X17203134Y-15059984D01*
X17355515Y-15240936D02*
X17365039Y-15250460D01*
X17365039Y-15250460D02*
X17355515Y-15259984D01*
X17355515Y-15259984D02*
X17345991Y-15250460D01*
X17345991Y-15250460D02*
X17355515Y-15240936D01*
X17355515Y-15240936D02*
X17355515Y-15259984D01*
X17488848Y-15059984D02*
X17507896Y-15059984D01*
X17507896Y-15059984D02*
X17526944Y-15069508D01*
X17526944Y-15069508D02*
X17536468Y-15079031D01*
X17536468Y-15079031D02*
X17545991Y-15098079D01*
X17545991Y-15098079D02*
X17555515Y-15136174D01*
X17555515Y-15136174D02*
X17555515Y-15183793D01*
X17555515Y-15183793D02*
X17545991Y-15221888D01*
X17545991Y-15221888D02*
X17536468Y-15240936D01*
X17536468Y-15240936D02*
X17526944Y-15250460D01*
X17526944Y-15250460D02*
X17507896Y-15259984D01*
X17507896Y-15259984D02*
X17488848Y-15259984D01*
X17488848Y-15259984D02*
X17469801Y-15250460D01*
X17469801Y-15250460D02*
X17460277Y-15240936D01*
X17460277Y-15240936D02*
X17450753Y-15221888D01*
X17450753Y-15221888D02*
X17441229Y-15183793D01*
X17441229Y-15183793D02*
X17441229Y-15136174D01*
X17441229Y-15136174D02*
X17450753Y-15098079D01*
X17450753Y-15098079D02*
X17460277Y-15079031D01*
X17460277Y-15079031D02*
X17469801Y-15069508D01*
X17469801Y-15069508D02*
X17488848Y-15059984D01*
X17745991Y-15259984D02*
X17631706Y-15259984D01*
X17688848Y-15259984D02*
X17688848Y-15059984D01*
X17688848Y-15059984D02*
X17669801Y-15088555D01*
X17669801Y-15088555D02*
X17650753Y-15107603D01*
X17650753Y-15107603D02*
X17631706Y-15117127D01*
X17936468Y-15259984D02*
X17822182Y-15259984D01*
X17879325Y-15259984D02*
X17879325Y-15059984D01*
X17879325Y-15059984D02*
X17860277Y-15088555D01*
X17860277Y-15088555D02*
X17841229Y-15107603D01*
X17841229Y-15107603D02*
X17822182Y-15117127D01*
X18050753Y-15145698D02*
X18031706Y-15136174D01*
X18031706Y-15136174D02*
X18022182Y-15126650D01*
X18022182Y-15126650D02*
X18012658Y-15107603D01*
X18012658Y-15107603D02*
X18012658Y-15098079D01*
X18012658Y-15098079D02*
X18022182Y-15079031D01*
X18022182Y-15079031D02*
X18031706Y-15069508D01*
X18031706Y-15069508D02*
X18050753Y-15059984D01*
X18050753Y-15059984D02*
X18088849Y-15059984D01*
X18088849Y-15059984D02*
X18107896Y-15069508D01*
X18107896Y-15069508D02*
X18117420Y-15079031D01*
X18117420Y-15079031D02*
X18126944Y-15098079D01*
X18126944Y-15098079D02*
X18126944Y-15107603D01*
X18126944Y-15107603D02*
X18117420Y-15126650D01*
X18117420Y-15126650D02*
X18107896Y-15136174D01*
X18107896Y-15136174D02*
X18088849Y-15145698D01*
X18088849Y-15145698D02*
X18050753Y-15145698D01*
X18050753Y-15145698D02*
X18031706Y-15155222D01*
X18031706Y-15155222D02*
X18022182Y-15164746D01*
X18022182Y-15164746D02*
X18012658Y-15183793D01*
X18012658Y-15183793D02*
X18012658Y-15221888D01*
X18012658Y-15221888D02*
X18022182Y-15240936D01*
X18022182Y-15240936D02*
X18031706Y-15250460D01*
X18031706Y-15250460D02*
X18050753Y-15259984D01*
X18050753Y-15259984D02*
X18088849Y-15259984D01*
X18088849Y-15259984D02*
X18107896Y-15250460D01*
X18107896Y-15250460D02*
X18117420Y-15240936D01*
X18117420Y-15240936D02*
X18126944Y-15221888D01*
X18126944Y-15221888D02*
X18126944Y-15183793D01*
X18126944Y-15183793D02*
X18117420Y-15164746D01*
X18117420Y-15164746D02*
X18107896Y-15155222D01*
X18107896Y-15155222D02*
X18088849Y-15145698D01*
X18203134Y-15059984D02*
X18203134Y-15098079D01*
X18279325Y-15059984D02*
X18279325Y-15098079D01*
X18574563Y-15336174D02*
X18565039Y-15326650D01*
X18565039Y-15326650D02*
X18545991Y-15298079D01*
X18545991Y-15298079D02*
X18536468Y-15279031D01*
X18536468Y-15279031D02*
X18526944Y-15250460D01*
X18526944Y-15250460D02*
X18517420Y-15202841D01*
X18517420Y-15202841D02*
X18517420Y-15164746D01*
X18517420Y-15164746D02*
X18526944Y-15117127D01*
X18526944Y-15117127D02*
X18536468Y-15088555D01*
X18536468Y-15088555D02*
X18545991Y-15069508D01*
X18545991Y-15069508D02*
X18565039Y-15040936D01*
X18565039Y-15040936D02*
X18574563Y-15031412D01*
X18755515Y-15259984D02*
X18641230Y-15259984D01*
X18698372Y-15259984D02*
X18698372Y-15059984D01*
X18698372Y-15059984D02*
X18679325Y-15088555D01*
X18679325Y-15088555D02*
X18660277Y-15107603D01*
X18660277Y-15107603D02*
X18641230Y-15117127D01*
X18936468Y-15059984D02*
X18841230Y-15059984D01*
X18841230Y-15059984D02*
X18831706Y-15155222D01*
X18831706Y-15155222D02*
X18841230Y-15145698D01*
X18841230Y-15145698D02*
X18860277Y-15136174D01*
X18860277Y-15136174D02*
X18907896Y-15136174D01*
X18907896Y-15136174D02*
X18926944Y-15145698D01*
X18926944Y-15145698D02*
X18936468Y-15155222D01*
X18936468Y-15155222D02*
X18945991Y-15174269D01*
X18945991Y-15174269D02*
X18945991Y-15221888D01*
X18945991Y-15221888D02*
X18936468Y-15240936D01*
X18936468Y-15240936D02*
X18926944Y-15250460D01*
X18926944Y-15250460D02*
X18907896Y-15259984D01*
X18907896Y-15259984D02*
X18860277Y-15259984D01*
X18860277Y-15259984D02*
X18841230Y-15250460D01*
X18841230Y-15250460D02*
X18831706Y-15240936D01*
X19184087Y-15259984D02*
X19184087Y-15059984D01*
X19269801Y-15259984D02*
X19269801Y-15155222D01*
X19269801Y-15155222D02*
X19260277Y-15136174D01*
X19260277Y-15136174D02*
X19241230Y-15126650D01*
X19241230Y-15126650D02*
X19212658Y-15126650D01*
X19212658Y-15126650D02*
X19193611Y-15136174D01*
X19193611Y-15136174D02*
X19184087Y-15145698D01*
X19393611Y-15259984D02*
X19374563Y-15250460D01*
X19374563Y-15250460D02*
X19365039Y-15240936D01*
X19365039Y-15240936D02*
X19355515Y-15221888D01*
X19355515Y-15221888D02*
X19355515Y-15164746D01*
X19355515Y-15164746D02*
X19365039Y-15145698D01*
X19365039Y-15145698D02*
X19374563Y-15136174D01*
X19374563Y-15136174D02*
X19393611Y-15126650D01*
X19393611Y-15126650D02*
X19422182Y-15126650D01*
X19422182Y-15126650D02*
X19441230Y-15136174D01*
X19441230Y-15136174D02*
X19450753Y-15145698D01*
X19450753Y-15145698D02*
X19460277Y-15164746D01*
X19460277Y-15164746D02*
X19460277Y-15221888D01*
X19460277Y-15221888D02*
X19450753Y-15240936D01*
X19450753Y-15240936D02*
X19441230Y-15250460D01*
X19441230Y-15250460D02*
X19422182Y-15259984D01*
X19422182Y-15259984D02*
X19393611Y-15259984D01*
X19574563Y-15259984D02*
X19555515Y-15250460D01*
X19555515Y-15250460D02*
X19545992Y-15231412D01*
X19545992Y-15231412D02*
X19545992Y-15059984D01*
X19726944Y-15250460D02*
X19707896Y-15259984D01*
X19707896Y-15259984D02*
X19669801Y-15259984D01*
X19669801Y-15259984D02*
X19650753Y-15250460D01*
X19650753Y-15250460D02*
X19641230Y-15231412D01*
X19641230Y-15231412D02*
X19641230Y-15155222D01*
X19641230Y-15155222D02*
X19650753Y-15136174D01*
X19650753Y-15136174D02*
X19669801Y-15126650D01*
X19669801Y-15126650D02*
X19707896Y-15126650D01*
X19707896Y-15126650D02*
X19726944Y-15136174D01*
X19726944Y-15136174D02*
X19736468Y-15155222D01*
X19736468Y-15155222D02*
X19736468Y-15174269D01*
X19736468Y-15174269D02*
X19641230Y-15193317D01*
X19812658Y-15250460D02*
X19831706Y-15259984D01*
X19831706Y-15259984D02*
X19869801Y-15259984D01*
X19869801Y-15259984D02*
X19888849Y-15250460D01*
X19888849Y-15250460D02*
X19898373Y-15231412D01*
X19898373Y-15231412D02*
X19898373Y-15221888D01*
X19898373Y-15221888D02*
X19888849Y-15202841D01*
X19888849Y-15202841D02*
X19869801Y-15193317D01*
X19869801Y-15193317D02*
X19841230Y-15193317D01*
X19841230Y-15193317D02*
X19822182Y-15183793D01*
X19822182Y-15183793D02*
X19812658Y-15164746D01*
X19812658Y-15164746D02*
X19812658Y-15155222D01*
X19812658Y-15155222D02*
X19822182Y-15136174D01*
X19822182Y-15136174D02*
X19841230Y-15126650D01*
X19841230Y-15126650D02*
X19869801Y-15126650D01*
X19869801Y-15126650D02*
X19888849Y-15136174D01*
X19965039Y-15336174D02*
X19974563Y-15326650D01*
X19974563Y-15326650D02*
X19993611Y-15298079D01*
X19993611Y-15298079D02*
X20003134Y-15279031D01*
X20003134Y-15279031D02*
X20012658Y-15250460D01*
X20012658Y-15250460D02*
X20022182Y-15202841D01*
X20022182Y-15202841D02*
X20022182Y-15164746D01*
X20022182Y-15164746D02*
X20012658Y-15117127D01*
X20012658Y-15117127D02*
X20003134Y-15088555D01*
X20003134Y-15088555D02*
X19993611Y-15069508D01*
X19993611Y-15069508D02*
X19974563Y-15040936D01*
X19974563Y-15040936D02*
X19965039Y-15031412D01*
D12*
X14990713Y-15453713D02*
X14990713Y-15411287D01*
X14948287Y-15411287D01*
X14948287Y-15453713D01*
X14990713Y-15453713D01*
D11*
X15298372Y-15323984D02*
X15317420Y-15323984D01*
X15317420Y-15323984D02*
X15336467Y-15333508D01*
X15336467Y-15333508D02*
X15345991Y-15343031D01*
X15345991Y-15343031D02*
X15355515Y-15362079D01*
X15355515Y-15362079D02*
X15365039Y-15400174D01*
X15365039Y-15400174D02*
X15365039Y-15447793D01*
X15365039Y-15447793D02*
X15355515Y-15485888D01*
X15355515Y-15485888D02*
X15345991Y-15504936D01*
X15345991Y-15504936D02*
X15336467Y-15514460D01*
X15336467Y-15514460D02*
X15317420Y-15523984D01*
X15317420Y-15523984D02*
X15298372Y-15523984D01*
X15298372Y-15523984D02*
X15279324Y-15514460D01*
X15279324Y-15514460D02*
X15269801Y-15504936D01*
X15269801Y-15504936D02*
X15260277Y-15485888D01*
X15260277Y-15485888D02*
X15250753Y-15447793D01*
X15250753Y-15447793D02*
X15250753Y-15400174D01*
X15250753Y-15400174D02*
X15260277Y-15362079D01*
X15260277Y-15362079D02*
X15269801Y-15343031D01*
X15269801Y-15343031D02*
X15279324Y-15333508D01*
X15279324Y-15333508D02*
X15298372Y-15323984D01*
X15450753Y-15504936D02*
X15460277Y-15514460D01*
X15460277Y-15514460D02*
X15450753Y-15523984D01*
X15450753Y-15523984D02*
X15441229Y-15514460D01*
X15441229Y-15514460D02*
X15450753Y-15504936D01*
X15450753Y-15504936D02*
X15450753Y-15523984D01*
X15631705Y-15323984D02*
X15593610Y-15323984D01*
X15593610Y-15323984D02*
X15574562Y-15333508D01*
X15574562Y-15333508D02*
X15565039Y-15343031D01*
X15565039Y-15343031D02*
X15545991Y-15371603D01*
X15545991Y-15371603D02*
X15536467Y-15409698D01*
X15536467Y-15409698D02*
X15536467Y-15485888D01*
X15536467Y-15485888D02*
X15545991Y-15504936D01*
X15545991Y-15504936D02*
X15555515Y-15514460D01*
X15555515Y-15514460D02*
X15574562Y-15523984D01*
X15574562Y-15523984D02*
X15612658Y-15523984D01*
X15612658Y-15523984D02*
X15631705Y-15514460D01*
X15631705Y-15514460D02*
X15641229Y-15504936D01*
X15641229Y-15504936D02*
X15650753Y-15485888D01*
X15650753Y-15485888D02*
X15650753Y-15438269D01*
X15650753Y-15438269D02*
X15641229Y-15419222D01*
X15641229Y-15419222D02*
X15631705Y-15409698D01*
X15631705Y-15409698D02*
X15612658Y-15400174D01*
X15612658Y-15400174D02*
X15574562Y-15400174D01*
X15574562Y-15400174D02*
X15555515Y-15409698D01*
X15555515Y-15409698D02*
X15545991Y-15419222D01*
X15545991Y-15419222D02*
X15536467Y-15438269D01*
X15774562Y-15323984D02*
X15793610Y-15323984D01*
X15793610Y-15323984D02*
X15812658Y-15333508D01*
X15812658Y-15333508D02*
X15822182Y-15343031D01*
X15822182Y-15343031D02*
X15831705Y-15362079D01*
X15831705Y-15362079D02*
X15841229Y-15400174D01*
X15841229Y-15400174D02*
X15841229Y-15447793D01*
X15841229Y-15447793D02*
X15831705Y-15485888D01*
X15831705Y-15485888D02*
X15822182Y-15504936D01*
X15822182Y-15504936D02*
X15812658Y-15514460D01*
X15812658Y-15514460D02*
X15793610Y-15523984D01*
X15793610Y-15523984D02*
X15774562Y-15523984D01*
X15774562Y-15523984D02*
X15755515Y-15514460D01*
X15755515Y-15514460D02*
X15745991Y-15504936D01*
X15745991Y-15504936D02*
X15736467Y-15485888D01*
X15736467Y-15485888D02*
X15726943Y-15447793D01*
X15726943Y-15447793D02*
X15726943Y-15400174D01*
X15726943Y-15400174D02*
X15736467Y-15362079D01*
X15736467Y-15362079D02*
X15745991Y-15343031D01*
X15745991Y-15343031D02*
X15755515Y-15333508D01*
X15755515Y-15333508D02*
X15774562Y-15323984D01*
X15965039Y-15323984D02*
X15984086Y-15323984D01*
X15984086Y-15323984D02*
X16003134Y-15333508D01*
X16003134Y-15333508D02*
X16012658Y-15343031D01*
X16012658Y-15343031D02*
X16022182Y-15362079D01*
X16022182Y-15362079D02*
X16031705Y-15400174D01*
X16031705Y-15400174D02*
X16031705Y-15447793D01*
X16031705Y-15447793D02*
X16022182Y-15485888D01*
X16022182Y-15485888D02*
X16012658Y-15504936D01*
X16012658Y-15504936D02*
X16003134Y-15514460D01*
X16003134Y-15514460D02*
X15984086Y-15523984D01*
X15984086Y-15523984D02*
X15965039Y-15523984D01*
X15965039Y-15523984D02*
X15945991Y-15514460D01*
X15945991Y-15514460D02*
X15936467Y-15504936D01*
X15936467Y-15504936D02*
X15926943Y-15485888D01*
X15926943Y-15485888D02*
X15917420Y-15447793D01*
X15917420Y-15447793D02*
X15917420Y-15400174D01*
X15917420Y-15400174D02*
X15926943Y-15362079D01*
X15926943Y-15362079D02*
X15936467Y-15343031D01*
X15936467Y-15343031D02*
X15945991Y-15333508D01*
X15945991Y-15333508D02*
X15965039Y-15323984D01*
X16117420Y-15523984D02*
X16117420Y-15390650D01*
X16117420Y-15409698D02*
X16126943Y-15400174D01*
X16126943Y-15400174D02*
X16145991Y-15390650D01*
X16145991Y-15390650D02*
X16174563Y-15390650D01*
X16174563Y-15390650D02*
X16193610Y-15400174D01*
X16193610Y-15400174D02*
X16203134Y-15419222D01*
X16203134Y-15419222D02*
X16203134Y-15523984D01*
X16203134Y-15419222D02*
X16212658Y-15400174D01*
X16212658Y-15400174D02*
X16231705Y-15390650D01*
X16231705Y-15390650D02*
X16260277Y-15390650D01*
X16260277Y-15390650D02*
X16279324Y-15400174D01*
X16279324Y-15400174D02*
X16288848Y-15419222D01*
X16288848Y-15419222D02*
X16288848Y-15523984D01*
X16384086Y-15523984D02*
X16384086Y-15390650D01*
X16384086Y-15409698D02*
X16393610Y-15400174D01*
X16393610Y-15400174D02*
X16412658Y-15390650D01*
X16412658Y-15390650D02*
X16441229Y-15390650D01*
X16441229Y-15390650D02*
X16460277Y-15400174D01*
X16460277Y-15400174D02*
X16469801Y-15419222D01*
X16469801Y-15419222D02*
X16469801Y-15523984D01*
X16469801Y-15419222D02*
X16479324Y-15400174D01*
X16479324Y-15400174D02*
X16498372Y-15390650D01*
X16498372Y-15390650D02*
X16526943Y-15390650D01*
X16526943Y-15390650D02*
X16545991Y-15400174D01*
X16545991Y-15400174D02*
X16555515Y-15419222D01*
X16555515Y-15419222D02*
X16555515Y-15523984D01*
X16945991Y-15314460D02*
X16774563Y-15571603D01*
X17203134Y-15323984D02*
X17222182Y-15323984D01*
X17222182Y-15323984D02*
X17241229Y-15333508D01*
X17241229Y-15333508D02*
X17250753Y-15343031D01*
X17250753Y-15343031D02*
X17260277Y-15362079D01*
X17260277Y-15362079D02*
X17269801Y-15400174D01*
X17269801Y-15400174D02*
X17269801Y-15447793D01*
X17269801Y-15447793D02*
X17260277Y-15485888D01*
X17260277Y-15485888D02*
X17250753Y-15504936D01*
X17250753Y-15504936D02*
X17241229Y-15514460D01*
X17241229Y-15514460D02*
X17222182Y-15523984D01*
X17222182Y-15523984D02*
X17203134Y-15523984D01*
X17203134Y-15523984D02*
X17184087Y-15514460D01*
X17184087Y-15514460D02*
X17174563Y-15504936D01*
X17174563Y-15504936D02*
X17165039Y-15485888D01*
X17165039Y-15485888D02*
X17155515Y-15447793D01*
X17155515Y-15447793D02*
X17155515Y-15400174D01*
X17155515Y-15400174D02*
X17165039Y-15362079D01*
X17165039Y-15362079D02*
X17174563Y-15343031D01*
X17174563Y-15343031D02*
X17184087Y-15333508D01*
X17184087Y-15333508D02*
X17203134Y-15323984D01*
X17355515Y-15504936D02*
X17365039Y-15514460D01*
X17365039Y-15514460D02*
X17355515Y-15523984D01*
X17355515Y-15523984D02*
X17345991Y-15514460D01*
X17345991Y-15514460D02*
X17355515Y-15504936D01*
X17355515Y-15504936D02*
X17355515Y-15523984D01*
X17488848Y-15323984D02*
X17507896Y-15323984D01*
X17507896Y-15323984D02*
X17526944Y-15333508D01*
X17526944Y-15333508D02*
X17536468Y-15343031D01*
X17536468Y-15343031D02*
X17545991Y-15362079D01*
X17545991Y-15362079D02*
X17555515Y-15400174D01*
X17555515Y-15400174D02*
X17555515Y-15447793D01*
X17555515Y-15447793D02*
X17545991Y-15485888D01*
X17545991Y-15485888D02*
X17536468Y-15504936D01*
X17536468Y-15504936D02*
X17526944Y-15514460D01*
X17526944Y-15514460D02*
X17507896Y-15523984D01*
X17507896Y-15523984D02*
X17488848Y-15523984D01*
X17488848Y-15523984D02*
X17469801Y-15514460D01*
X17469801Y-15514460D02*
X17460277Y-15504936D01*
X17460277Y-15504936D02*
X17450753Y-15485888D01*
X17450753Y-15485888D02*
X17441229Y-15447793D01*
X17441229Y-15447793D02*
X17441229Y-15400174D01*
X17441229Y-15400174D02*
X17450753Y-15362079D01*
X17450753Y-15362079D02*
X17460277Y-15343031D01*
X17460277Y-15343031D02*
X17469801Y-15333508D01*
X17469801Y-15333508D02*
X17488848Y-15323984D01*
X17631706Y-15343031D02*
X17641229Y-15333508D01*
X17641229Y-15333508D02*
X17660277Y-15323984D01*
X17660277Y-15323984D02*
X17707896Y-15323984D01*
X17707896Y-15323984D02*
X17726944Y-15333508D01*
X17726944Y-15333508D02*
X17736468Y-15343031D01*
X17736468Y-15343031D02*
X17745991Y-15362079D01*
X17745991Y-15362079D02*
X17745991Y-15381127D01*
X17745991Y-15381127D02*
X17736468Y-15409698D01*
X17736468Y-15409698D02*
X17622182Y-15523984D01*
X17622182Y-15523984D02*
X17745991Y-15523984D01*
X17812658Y-15323984D02*
X17936468Y-15323984D01*
X17936468Y-15323984D02*
X17869801Y-15400174D01*
X17869801Y-15400174D02*
X17898372Y-15400174D01*
X17898372Y-15400174D02*
X17917420Y-15409698D01*
X17917420Y-15409698D02*
X17926944Y-15419222D01*
X17926944Y-15419222D02*
X17936468Y-15438269D01*
X17936468Y-15438269D02*
X17936468Y-15485888D01*
X17936468Y-15485888D02*
X17926944Y-15504936D01*
X17926944Y-15504936D02*
X17917420Y-15514460D01*
X17917420Y-15514460D02*
X17898372Y-15523984D01*
X17898372Y-15523984D02*
X17841229Y-15523984D01*
X17841229Y-15523984D02*
X17822182Y-15514460D01*
X17822182Y-15514460D02*
X17812658Y-15504936D01*
X18107896Y-15323984D02*
X18069801Y-15323984D01*
X18069801Y-15323984D02*
X18050753Y-15333508D01*
X18050753Y-15333508D02*
X18041229Y-15343031D01*
X18041229Y-15343031D02*
X18022182Y-15371603D01*
X18022182Y-15371603D02*
X18012658Y-15409698D01*
X18012658Y-15409698D02*
X18012658Y-15485888D01*
X18012658Y-15485888D02*
X18022182Y-15504936D01*
X18022182Y-15504936D02*
X18031706Y-15514460D01*
X18031706Y-15514460D02*
X18050753Y-15523984D01*
X18050753Y-15523984D02*
X18088849Y-15523984D01*
X18088849Y-15523984D02*
X18107896Y-15514460D01*
X18107896Y-15514460D02*
X18117420Y-15504936D01*
X18117420Y-15504936D02*
X18126944Y-15485888D01*
X18126944Y-15485888D02*
X18126944Y-15438269D01*
X18126944Y-15438269D02*
X18117420Y-15419222D01*
X18117420Y-15419222D02*
X18107896Y-15409698D01*
X18107896Y-15409698D02*
X18088849Y-15400174D01*
X18088849Y-15400174D02*
X18050753Y-15400174D01*
X18050753Y-15400174D02*
X18031706Y-15409698D01*
X18031706Y-15409698D02*
X18022182Y-15419222D01*
X18022182Y-15419222D02*
X18012658Y-15438269D01*
X18203134Y-15323984D02*
X18203134Y-15362079D01*
X18279325Y-15323984D02*
X18279325Y-15362079D01*
X18574563Y-15600174D02*
X18565039Y-15590650D01*
X18565039Y-15590650D02*
X18545991Y-15562079D01*
X18545991Y-15562079D02*
X18536468Y-15543031D01*
X18536468Y-15543031D02*
X18526944Y-15514460D01*
X18526944Y-15514460D02*
X18517420Y-15466841D01*
X18517420Y-15466841D02*
X18517420Y-15428746D01*
X18517420Y-15428746D02*
X18526944Y-15381127D01*
X18526944Y-15381127D02*
X18536468Y-15352555D01*
X18536468Y-15352555D02*
X18545991Y-15333508D01*
X18545991Y-15333508D02*
X18565039Y-15304936D01*
X18565039Y-15304936D02*
X18574563Y-15295412D01*
X18688849Y-15323984D02*
X18707896Y-15323984D01*
X18707896Y-15323984D02*
X18726944Y-15333508D01*
X18726944Y-15333508D02*
X18736468Y-15343031D01*
X18736468Y-15343031D02*
X18745991Y-15362079D01*
X18745991Y-15362079D02*
X18755515Y-15400174D01*
X18755515Y-15400174D02*
X18755515Y-15447793D01*
X18755515Y-15447793D02*
X18745991Y-15485888D01*
X18745991Y-15485888D02*
X18736468Y-15504936D01*
X18736468Y-15504936D02*
X18726944Y-15514460D01*
X18726944Y-15514460D02*
X18707896Y-15523984D01*
X18707896Y-15523984D02*
X18688849Y-15523984D01*
X18688849Y-15523984D02*
X18669801Y-15514460D01*
X18669801Y-15514460D02*
X18660277Y-15504936D01*
X18660277Y-15504936D02*
X18650753Y-15485888D01*
X18650753Y-15485888D02*
X18641230Y-15447793D01*
X18641230Y-15447793D02*
X18641230Y-15400174D01*
X18641230Y-15400174D02*
X18650753Y-15362079D01*
X18650753Y-15362079D02*
X18660277Y-15343031D01*
X18660277Y-15343031D02*
X18669801Y-15333508D01*
X18669801Y-15333508D02*
X18688849Y-15323984D01*
X18993611Y-15523984D02*
X18993611Y-15323984D01*
X19079325Y-15523984D02*
X19079325Y-15419222D01*
X19079325Y-15419222D02*
X19069801Y-15400174D01*
X19069801Y-15400174D02*
X19050753Y-15390650D01*
X19050753Y-15390650D02*
X19022182Y-15390650D01*
X19022182Y-15390650D02*
X19003134Y-15400174D01*
X19003134Y-15400174D02*
X18993611Y-15409698D01*
X19203134Y-15523984D02*
X19184087Y-15514460D01*
X19184087Y-15514460D02*
X19174563Y-15504936D01*
X19174563Y-15504936D02*
X19165039Y-15485888D01*
X19165039Y-15485888D02*
X19165039Y-15428746D01*
X19165039Y-15428746D02*
X19174563Y-15409698D01*
X19174563Y-15409698D02*
X19184087Y-15400174D01*
X19184087Y-15400174D02*
X19203134Y-15390650D01*
X19203134Y-15390650D02*
X19231706Y-15390650D01*
X19231706Y-15390650D02*
X19250753Y-15400174D01*
X19250753Y-15400174D02*
X19260277Y-15409698D01*
X19260277Y-15409698D02*
X19269801Y-15428746D01*
X19269801Y-15428746D02*
X19269801Y-15485888D01*
X19269801Y-15485888D02*
X19260277Y-15504936D01*
X19260277Y-15504936D02*
X19250753Y-15514460D01*
X19250753Y-15514460D02*
X19231706Y-15523984D01*
X19231706Y-15523984D02*
X19203134Y-15523984D01*
X19384087Y-15523984D02*
X19365039Y-15514460D01*
X19365039Y-15514460D02*
X19355515Y-15495412D01*
X19355515Y-15495412D02*
X19355515Y-15323984D01*
X19536468Y-15514460D02*
X19517420Y-15523984D01*
X19517420Y-15523984D02*
X19479325Y-15523984D01*
X19479325Y-15523984D02*
X19460277Y-15514460D01*
X19460277Y-15514460D02*
X19450753Y-15495412D01*
X19450753Y-15495412D02*
X19450753Y-15419222D01*
X19450753Y-15419222D02*
X19460277Y-15400174D01*
X19460277Y-15400174D02*
X19479325Y-15390650D01*
X19479325Y-15390650D02*
X19517420Y-15390650D01*
X19517420Y-15390650D02*
X19536468Y-15400174D01*
X19536468Y-15400174D02*
X19545992Y-15419222D01*
X19545992Y-15419222D02*
X19545992Y-15438269D01*
X19545992Y-15438269D02*
X19450753Y-15457317D01*
X19622182Y-15514460D02*
X19641230Y-15523984D01*
X19641230Y-15523984D02*
X19679325Y-15523984D01*
X19679325Y-15523984D02*
X19698373Y-15514460D01*
X19698373Y-15514460D02*
X19707896Y-15495412D01*
X19707896Y-15495412D02*
X19707896Y-15485888D01*
X19707896Y-15485888D02*
X19698373Y-15466841D01*
X19698373Y-15466841D02*
X19679325Y-15457317D01*
X19679325Y-15457317D02*
X19650753Y-15457317D01*
X19650753Y-15457317D02*
X19631706Y-15447793D01*
X19631706Y-15447793D02*
X19622182Y-15428746D01*
X19622182Y-15428746D02*
X19622182Y-15419222D01*
X19622182Y-15419222D02*
X19631706Y-15400174D01*
X19631706Y-15400174D02*
X19650753Y-15390650D01*
X19650753Y-15390650D02*
X19679325Y-15390650D01*
X19679325Y-15390650D02*
X19698373Y-15400174D01*
X19945992Y-15447793D02*
X20098373Y-15447793D01*
X20022182Y-15523984D02*
X20022182Y-15371603D01*
X20431706Y-15390650D02*
X20431706Y-15523984D01*
X20384087Y-15314460D02*
X20336468Y-15457317D01*
X20336468Y-15457317D02*
X20460277Y-15457317D01*
X20679325Y-15514460D02*
X20698373Y-15523984D01*
X20698373Y-15523984D02*
X20736468Y-15523984D01*
X20736468Y-15523984D02*
X20755516Y-15514460D01*
X20755516Y-15514460D02*
X20765039Y-15495412D01*
X20765039Y-15495412D02*
X20765039Y-15485888D01*
X20765039Y-15485888D02*
X20755516Y-15466841D01*
X20755516Y-15466841D02*
X20736468Y-15457317D01*
X20736468Y-15457317D02*
X20707896Y-15457317D01*
X20707896Y-15457317D02*
X20688849Y-15447793D01*
X20688849Y-15447793D02*
X20679325Y-15428746D01*
X20679325Y-15428746D02*
X20679325Y-15419222D01*
X20679325Y-15419222D02*
X20688849Y-15400174D01*
X20688849Y-15400174D02*
X20707896Y-15390650D01*
X20707896Y-15390650D02*
X20736468Y-15390650D01*
X20736468Y-15390650D02*
X20755516Y-15400174D01*
X20879325Y-15523984D02*
X20860277Y-15514460D01*
X20860277Y-15514460D02*
X20850754Y-15495412D01*
X20850754Y-15495412D02*
X20850754Y-15323984D01*
X20984087Y-15523984D02*
X20965039Y-15514460D01*
X20965039Y-15514460D02*
X20955516Y-15504936D01*
X20955516Y-15504936D02*
X20945992Y-15485888D01*
X20945992Y-15485888D02*
X20945992Y-15428746D01*
X20945992Y-15428746D02*
X20955516Y-15409698D01*
X20955516Y-15409698D02*
X20965039Y-15400174D01*
X20965039Y-15400174D02*
X20984087Y-15390650D01*
X20984087Y-15390650D02*
X21012658Y-15390650D01*
X21012658Y-15390650D02*
X21031706Y-15400174D01*
X21031706Y-15400174D02*
X21041230Y-15409698D01*
X21041230Y-15409698D02*
X21050754Y-15428746D01*
X21050754Y-15428746D02*
X21050754Y-15485888D01*
X21050754Y-15485888D02*
X21041230Y-15504936D01*
X21041230Y-15504936D02*
X21031706Y-15514460D01*
X21031706Y-15514460D02*
X21012658Y-15523984D01*
X21012658Y-15523984D02*
X20984087Y-15523984D01*
X21107897Y-15390650D02*
X21184087Y-15390650D01*
X21136468Y-15323984D02*
X21136468Y-15495412D01*
X21136468Y-15495412D02*
X21145992Y-15514460D01*
X21145992Y-15514460D02*
X21165039Y-15523984D01*
X21165039Y-15523984D02*
X21184087Y-15523984D01*
X21241230Y-15514460D02*
X21260277Y-15523984D01*
X21260277Y-15523984D02*
X21298373Y-15523984D01*
X21298373Y-15523984D02*
X21317420Y-15514460D01*
X21317420Y-15514460D02*
X21326944Y-15495412D01*
X21326944Y-15495412D02*
X21326944Y-15485888D01*
X21326944Y-15485888D02*
X21317420Y-15466841D01*
X21317420Y-15466841D02*
X21298373Y-15457317D01*
X21298373Y-15457317D02*
X21269801Y-15457317D01*
X21269801Y-15457317D02*
X21250754Y-15447793D01*
X21250754Y-15447793D02*
X21241230Y-15428746D01*
X21241230Y-15428746D02*
X21241230Y-15419222D01*
X21241230Y-15419222D02*
X21250754Y-15400174D01*
X21250754Y-15400174D02*
X21269801Y-15390650D01*
X21269801Y-15390650D02*
X21298373Y-15390650D01*
X21298373Y-15390650D02*
X21317420Y-15400174D01*
X21393611Y-15600174D02*
X21403135Y-15590650D01*
X21403135Y-15590650D02*
X21422182Y-15562079D01*
X21422182Y-15562079D02*
X21431706Y-15543031D01*
X21431706Y-15543031D02*
X21441230Y-15514460D01*
X21441230Y-15514460D02*
X21450754Y-15466841D01*
X21450754Y-15466841D02*
X21450754Y-15428746D01*
X21450754Y-15428746D02*
X21441230Y-15381127D01*
X21441230Y-15381127D02*
X21431706Y-15352555D01*
X21431706Y-15352555D02*
X21422182Y-15333508D01*
X21422182Y-15333508D02*
X21403135Y-15304936D01*
X21403135Y-15304936D02*
X21393611Y-15295412D01*
M02*
