%TF.GenerationSoftware,KiCad,Pcbnew,8.0.4*%
%TF.CreationDate,2024-10-04T00:05:07-04:00*%
%TF.ProjectId,BlueSTM32,426c7565-5354-44d3-9332-2e6b69636164,rev?*%
%TF.SameCoordinates,Original*%
%TF.FileFunction,Drillmap*%
%TF.FilePolarity,Positive*%
%FSLAX45Y45*%
G04 Gerber Fmt 4.5, Leading zero omitted, Abs format (unit mm)*
G04 Created by KiCad (PCBNEW 8.0.4) date 2024-10-04 00:05:07*
%MOMM*%
%LPD*%
G01*
G04 APERTURE LIST*
%ADD10C,0.010000*%
%ADD11C,0.200000*%
%ADD12C,0.100000*%
G04 APERTURE END LIST*
D10*
X19000000Y-13800000D02*
G75*
G02*
X18800000Y-14000000I-200000J0D01*
G01*
X18800000Y-10000000D02*
X17647000Y-10000000D01*
X15200000Y-14000000D02*
G75*
G02*
X15000000Y-13800000I0J200000D01*
G01*
X18800000Y-14000000D02*
X15200000Y-14000000D01*
X15000000Y-10200000D02*
G75*
G02*
X15200000Y-10000000I200000J0D01*
G01*
X15000000Y-13800000D02*
X15000000Y-10200000D01*
X18800000Y-10000000D02*
G75*
G02*
X19000000Y-10200000I0J-200000D01*
G01*
X16359000Y-10000000D02*
X15200000Y-10000000D01*
X19000000Y-10200000D02*
X19000000Y-13800000D01*
X17457000Y-10620000D02*
G75*
G02*
X17424500Y-10660000I-36250J-3750D01*
G01*
X17424500Y-10660000D02*
G75*
G02*
X17392000Y-10632000I-2250J30250D01*
G01*
X17377000Y-10620000D02*
G75*
G02*
X17392000Y-10632000I1500J-13500D01*
G01*
X16598000Y-10632000D02*
G75*
G02*
X16613000Y-10620000I13500J-1500D01*
G01*
X16598000Y-10632000D02*
G75*
G02*
X16565500Y-10660000I-30250J2250D01*
G01*
X16565500Y-10660000D02*
G75*
G02*
X16533000Y-10620000I3750J36250D01*
G01*
X17647000Y-10000000D02*
X17457000Y-10000000D01*
X17457000Y-10000000D02*
X17457000Y-10620000D01*
X17377000Y-10620000D02*
X16613000Y-10620000D01*
X16533000Y-10620000D02*
X16533000Y-10000000D01*
X16533000Y-10000000D02*
X16359000Y-10000000D01*
D11*
D12*
X16338470Y-11059870D02*
X16437530Y-11158930D01*
X16437530Y-11059870D02*
X16338470Y-11158930D01*
X16338470Y-11263070D02*
X16437530Y-11362130D01*
X16437530Y-11263070D02*
X16338470Y-11362130D01*
X16846470Y-11161470D02*
X16945530Y-11260530D01*
X16945530Y-11161470D02*
X16846470Y-11260530D01*
D11*
X15260277Y-14311984D02*
X15260277Y-14111984D01*
X15260277Y-14111984D02*
X15307896Y-14111984D01*
X15307896Y-14111984D02*
X15336467Y-14121508D01*
X15336467Y-14121508D02*
X15355515Y-14140555D01*
X15355515Y-14140555D02*
X15365039Y-14159603D01*
X15365039Y-14159603D02*
X15374562Y-14197698D01*
X15374562Y-14197698D02*
X15374562Y-14226269D01*
X15374562Y-14226269D02*
X15365039Y-14264365D01*
X15365039Y-14264365D02*
X15355515Y-14283412D01*
X15355515Y-14283412D02*
X15336467Y-14302460D01*
X15336467Y-14302460D02*
X15307896Y-14311984D01*
X15307896Y-14311984D02*
X15260277Y-14311984D01*
X15460277Y-14311984D02*
X15460277Y-14178650D01*
X15460277Y-14216746D02*
X15469801Y-14197698D01*
X15469801Y-14197698D02*
X15479324Y-14188174D01*
X15479324Y-14188174D02*
X15498372Y-14178650D01*
X15498372Y-14178650D02*
X15517420Y-14178650D01*
X15584086Y-14311984D02*
X15584086Y-14178650D01*
X15584086Y-14111984D02*
X15574562Y-14121508D01*
X15574562Y-14121508D02*
X15584086Y-14131031D01*
X15584086Y-14131031D02*
X15593610Y-14121508D01*
X15593610Y-14121508D02*
X15584086Y-14111984D01*
X15584086Y-14111984D02*
X15584086Y-14131031D01*
X15707896Y-14311984D02*
X15688848Y-14302460D01*
X15688848Y-14302460D02*
X15679324Y-14283412D01*
X15679324Y-14283412D02*
X15679324Y-14111984D01*
X15812658Y-14311984D02*
X15793610Y-14302460D01*
X15793610Y-14302460D02*
X15784086Y-14283412D01*
X15784086Y-14283412D02*
X15784086Y-14111984D01*
X16041229Y-14311984D02*
X16041229Y-14111984D01*
X16041229Y-14111984D02*
X16107896Y-14254841D01*
X16107896Y-14254841D02*
X16174562Y-14111984D01*
X16174562Y-14111984D02*
X16174562Y-14311984D01*
X16355515Y-14311984D02*
X16355515Y-14207222D01*
X16355515Y-14207222D02*
X16345991Y-14188174D01*
X16345991Y-14188174D02*
X16326943Y-14178650D01*
X16326943Y-14178650D02*
X16288848Y-14178650D01*
X16288848Y-14178650D02*
X16269801Y-14188174D01*
X16355515Y-14302460D02*
X16336467Y-14311984D01*
X16336467Y-14311984D02*
X16288848Y-14311984D01*
X16288848Y-14311984D02*
X16269801Y-14302460D01*
X16269801Y-14302460D02*
X16260277Y-14283412D01*
X16260277Y-14283412D02*
X16260277Y-14264365D01*
X16260277Y-14264365D02*
X16269801Y-14245317D01*
X16269801Y-14245317D02*
X16288848Y-14235793D01*
X16288848Y-14235793D02*
X16336467Y-14235793D01*
X16336467Y-14235793D02*
X16355515Y-14226269D01*
X16450753Y-14178650D02*
X16450753Y-14378650D01*
X16450753Y-14188174D02*
X16469801Y-14178650D01*
X16469801Y-14178650D02*
X16507896Y-14178650D01*
X16507896Y-14178650D02*
X16526943Y-14188174D01*
X16526943Y-14188174D02*
X16536467Y-14197698D01*
X16536467Y-14197698D02*
X16545991Y-14216746D01*
X16545991Y-14216746D02*
X16545991Y-14273888D01*
X16545991Y-14273888D02*
X16536467Y-14292936D01*
X16536467Y-14292936D02*
X16526943Y-14302460D01*
X16526943Y-14302460D02*
X16507896Y-14311984D01*
X16507896Y-14311984D02*
X16469801Y-14311984D01*
X16469801Y-14311984D02*
X16450753Y-14302460D01*
X16631705Y-14292936D02*
X16641229Y-14302460D01*
X16641229Y-14302460D02*
X16631705Y-14311984D01*
X16631705Y-14311984D02*
X16622182Y-14302460D01*
X16622182Y-14302460D02*
X16631705Y-14292936D01*
X16631705Y-14292936D02*
X16631705Y-14311984D01*
X16631705Y-14188174D02*
X16641229Y-14197698D01*
X16641229Y-14197698D02*
X16631705Y-14207222D01*
X16631705Y-14207222D02*
X16622182Y-14197698D01*
X16622182Y-14197698D02*
X16631705Y-14188174D01*
X16631705Y-14188174D02*
X16631705Y-14207222D01*
D12*
X14900440Y-14590970D02*
X14999500Y-14690030D01*
X14999500Y-14590970D02*
X14900440Y-14690030D01*
D11*
X15298372Y-14531984D02*
X15317420Y-14531984D01*
X15317420Y-14531984D02*
X15336467Y-14541508D01*
X15336467Y-14541508D02*
X15345991Y-14551031D01*
X15345991Y-14551031D02*
X15355515Y-14570079D01*
X15355515Y-14570079D02*
X15365039Y-14608174D01*
X15365039Y-14608174D02*
X15365039Y-14655793D01*
X15365039Y-14655793D02*
X15355515Y-14693888D01*
X15355515Y-14693888D02*
X15345991Y-14712936D01*
X15345991Y-14712936D02*
X15336467Y-14722460D01*
X15336467Y-14722460D02*
X15317420Y-14731984D01*
X15317420Y-14731984D02*
X15298372Y-14731984D01*
X15298372Y-14731984D02*
X15279324Y-14722460D01*
X15279324Y-14722460D02*
X15269801Y-14712936D01*
X15269801Y-14712936D02*
X15260277Y-14693888D01*
X15260277Y-14693888D02*
X15250753Y-14655793D01*
X15250753Y-14655793D02*
X15250753Y-14608174D01*
X15250753Y-14608174D02*
X15260277Y-14570079D01*
X15260277Y-14570079D02*
X15269801Y-14551031D01*
X15269801Y-14551031D02*
X15279324Y-14541508D01*
X15279324Y-14541508D02*
X15298372Y-14531984D01*
X15450753Y-14712936D02*
X15460277Y-14722460D01*
X15460277Y-14722460D02*
X15450753Y-14731984D01*
X15450753Y-14731984D02*
X15441229Y-14722460D01*
X15441229Y-14722460D02*
X15450753Y-14712936D01*
X15450753Y-14712936D02*
X15450753Y-14731984D01*
X15555515Y-14731984D02*
X15593610Y-14731984D01*
X15593610Y-14731984D02*
X15612658Y-14722460D01*
X15612658Y-14722460D02*
X15622182Y-14712936D01*
X15622182Y-14712936D02*
X15641229Y-14684365D01*
X15641229Y-14684365D02*
X15650753Y-14646269D01*
X15650753Y-14646269D02*
X15650753Y-14570079D01*
X15650753Y-14570079D02*
X15641229Y-14551031D01*
X15641229Y-14551031D02*
X15631705Y-14541508D01*
X15631705Y-14541508D02*
X15612658Y-14531984D01*
X15612658Y-14531984D02*
X15574562Y-14531984D01*
X15574562Y-14531984D02*
X15555515Y-14541508D01*
X15555515Y-14541508D02*
X15545991Y-14551031D01*
X15545991Y-14551031D02*
X15536467Y-14570079D01*
X15536467Y-14570079D02*
X15536467Y-14617698D01*
X15536467Y-14617698D02*
X15545991Y-14636746D01*
X15545991Y-14636746D02*
X15555515Y-14646269D01*
X15555515Y-14646269D02*
X15574562Y-14655793D01*
X15574562Y-14655793D02*
X15612658Y-14655793D01*
X15612658Y-14655793D02*
X15631705Y-14646269D01*
X15631705Y-14646269D02*
X15641229Y-14636746D01*
X15641229Y-14636746D02*
X15650753Y-14617698D01*
X15745991Y-14731984D02*
X15784086Y-14731984D01*
X15784086Y-14731984D02*
X15803134Y-14722460D01*
X15803134Y-14722460D02*
X15812658Y-14712936D01*
X15812658Y-14712936D02*
X15831705Y-14684365D01*
X15831705Y-14684365D02*
X15841229Y-14646269D01*
X15841229Y-14646269D02*
X15841229Y-14570079D01*
X15841229Y-14570079D02*
X15831705Y-14551031D01*
X15831705Y-14551031D02*
X15822182Y-14541508D01*
X15822182Y-14541508D02*
X15803134Y-14531984D01*
X15803134Y-14531984D02*
X15765039Y-14531984D01*
X15765039Y-14531984D02*
X15745991Y-14541508D01*
X15745991Y-14541508D02*
X15736467Y-14551031D01*
X15736467Y-14551031D02*
X15726943Y-14570079D01*
X15726943Y-14570079D02*
X15726943Y-14617698D01*
X15726943Y-14617698D02*
X15736467Y-14636746D01*
X15736467Y-14636746D02*
X15745991Y-14646269D01*
X15745991Y-14646269D02*
X15765039Y-14655793D01*
X15765039Y-14655793D02*
X15803134Y-14655793D01*
X15803134Y-14655793D02*
X15822182Y-14646269D01*
X15822182Y-14646269D02*
X15831705Y-14636746D01*
X15831705Y-14636746D02*
X15841229Y-14617698D01*
X16031705Y-14731984D02*
X15917420Y-14731984D01*
X15974562Y-14731984D02*
X15974562Y-14531984D01*
X15974562Y-14531984D02*
X15955515Y-14560555D01*
X15955515Y-14560555D02*
X15936467Y-14579603D01*
X15936467Y-14579603D02*
X15917420Y-14589127D01*
X16117420Y-14731984D02*
X16117420Y-14598650D01*
X16117420Y-14617698D02*
X16126943Y-14608174D01*
X16126943Y-14608174D02*
X16145991Y-14598650D01*
X16145991Y-14598650D02*
X16174563Y-14598650D01*
X16174563Y-14598650D02*
X16193610Y-14608174D01*
X16193610Y-14608174D02*
X16203134Y-14627222D01*
X16203134Y-14627222D02*
X16203134Y-14731984D01*
X16203134Y-14627222D02*
X16212658Y-14608174D01*
X16212658Y-14608174D02*
X16231705Y-14598650D01*
X16231705Y-14598650D02*
X16260277Y-14598650D01*
X16260277Y-14598650D02*
X16279324Y-14608174D01*
X16279324Y-14608174D02*
X16288848Y-14627222D01*
X16288848Y-14627222D02*
X16288848Y-14731984D01*
X16384086Y-14731984D02*
X16384086Y-14598650D01*
X16384086Y-14617698D02*
X16393610Y-14608174D01*
X16393610Y-14608174D02*
X16412658Y-14598650D01*
X16412658Y-14598650D02*
X16441229Y-14598650D01*
X16441229Y-14598650D02*
X16460277Y-14608174D01*
X16460277Y-14608174D02*
X16469801Y-14627222D01*
X16469801Y-14627222D02*
X16469801Y-14731984D01*
X16469801Y-14627222D02*
X16479324Y-14608174D01*
X16479324Y-14608174D02*
X16498372Y-14598650D01*
X16498372Y-14598650D02*
X16526943Y-14598650D01*
X16526943Y-14598650D02*
X16545991Y-14608174D01*
X16545991Y-14608174D02*
X16555515Y-14627222D01*
X16555515Y-14627222D02*
X16555515Y-14731984D01*
X16945991Y-14522460D02*
X16774563Y-14779603D01*
X17203134Y-14531984D02*
X17222182Y-14531984D01*
X17222182Y-14531984D02*
X17241229Y-14541508D01*
X17241229Y-14541508D02*
X17250753Y-14551031D01*
X17250753Y-14551031D02*
X17260277Y-14570079D01*
X17260277Y-14570079D02*
X17269801Y-14608174D01*
X17269801Y-14608174D02*
X17269801Y-14655793D01*
X17269801Y-14655793D02*
X17260277Y-14693888D01*
X17260277Y-14693888D02*
X17250753Y-14712936D01*
X17250753Y-14712936D02*
X17241229Y-14722460D01*
X17241229Y-14722460D02*
X17222182Y-14731984D01*
X17222182Y-14731984D02*
X17203134Y-14731984D01*
X17203134Y-14731984D02*
X17184087Y-14722460D01*
X17184087Y-14722460D02*
X17174563Y-14712936D01*
X17174563Y-14712936D02*
X17165039Y-14693888D01*
X17165039Y-14693888D02*
X17155515Y-14655793D01*
X17155515Y-14655793D02*
X17155515Y-14608174D01*
X17155515Y-14608174D02*
X17165039Y-14570079D01*
X17165039Y-14570079D02*
X17174563Y-14551031D01*
X17174563Y-14551031D02*
X17184087Y-14541508D01*
X17184087Y-14541508D02*
X17203134Y-14531984D01*
X17355515Y-14712936D02*
X17365039Y-14722460D01*
X17365039Y-14722460D02*
X17355515Y-14731984D01*
X17355515Y-14731984D02*
X17345991Y-14722460D01*
X17345991Y-14722460D02*
X17355515Y-14712936D01*
X17355515Y-14712936D02*
X17355515Y-14731984D01*
X17488848Y-14531984D02*
X17507896Y-14531984D01*
X17507896Y-14531984D02*
X17526944Y-14541508D01*
X17526944Y-14541508D02*
X17536468Y-14551031D01*
X17536468Y-14551031D02*
X17545991Y-14570079D01*
X17545991Y-14570079D02*
X17555515Y-14608174D01*
X17555515Y-14608174D02*
X17555515Y-14655793D01*
X17555515Y-14655793D02*
X17545991Y-14693888D01*
X17545991Y-14693888D02*
X17536468Y-14712936D01*
X17536468Y-14712936D02*
X17526944Y-14722460D01*
X17526944Y-14722460D02*
X17507896Y-14731984D01*
X17507896Y-14731984D02*
X17488848Y-14731984D01*
X17488848Y-14731984D02*
X17469801Y-14722460D01*
X17469801Y-14722460D02*
X17460277Y-14712936D01*
X17460277Y-14712936D02*
X17450753Y-14693888D01*
X17450753Y-14693888D02*
X17441229Y-14655793D01*
X17441229Y-14655793D02*
X17441229Y-14608174D01*
X17441229Y-14608174D02*
X17450753Y-14570079D01*
X17450753Y-14570079D02*
X17460277Y-14551031D01*
X17460277Y-14551031D02*
X17469801Y-14541508D01*
X17469801Y-14541508D02*
X17488848Y-14531984D01*
X17622182Y-14531984D02*
X17745991Y-14531984D01*
X17745991Y-14531984D02*
X17679325Y-14608174D01*
X17679325Y-14608174D02*
X17707896Y-14608174D01*
X17707896Y-14608174D02*
X17726944Y-14617698D01*
X17726944Y-14617698D02*
X17736468Y-14627222D01*
X17736468Y-14627222D02*
X17745991Y-14646269D01*
X17745991Y-14646269D02*
X17745991Y-14693888D01*
X17745991Y-14693888D02*
X17736468Y-14712936D01*
X17736468Y-14712936D02*
X17726944Y-14722460D01*
X17726944Y-14722460D02*
X17707896Y-14731984D01*
X17707896Y-14731984D02*
X17650753Y-14731984D01*
X17650753Y-14731984D02*
X17631706Y-14722460D01*
X17631706Y-14722460D02*
X17622182Y-14712936D01*
X17841229Y-14731984D02*
X17879325Y-14731984D01*
X17879325Y-14731984D02*
X17898372Y-14722460D01*
X17898372Y-14722460D02*
X17907896Y-14712936D01*
X17907896Y-14712936D02*
X17926944Y-14684365D01*
X17926944Y-14684365D02*
X17936468Y-14646269D01*
X17936468Y-14646269D02*
X17936468Y-14570079D01*
X17936468Y-14570079D02*
X17926944Y-14551031D01*
X17926944Y-14551031D02*
X17917420Y-14541508D01*
X17917420Y-14541508D02*
X17898372Y-14531984D01*
X17898372Y-14531984D02*
X17860277Y-14531984D01*
X17860277Y-14531984D02*
X17841229Y-14541508D01*
X17841229Y-14541508D02*
X17831706Y-14551031D01*
X17831706Y-14551031D02*
X17822182Y-14570079D01*
X17822182Y-14570079D02*
X17822182Y-14617698D01*
X17822182Y-14617698D02*
X17831706Y-14636746D01*
X17831706Y-14636746D02*
X17841229Y-14646269D01*
X17841229Y-14646269D02*
X17860277Y-14655793D01*
X17860277Y-14655793D02*
X17898372Y-14655793D01*
X17898372Y-14655793D02*
X17917420Y-14646269D01*
X17917420Y-14646269D02*
X17926944Y-14636746D01*
X17926944Y-14636746D02*
X17936468Y-14617698D01*
X18060277Y-14531984D02*
X18079325Y-14531984D01*
X18079325Y-14531984D02*
X18098372Y-14541508D01*
X18098372Y-14541508D02*
X18107896Y-14551031D01*
X18107896Y-14551031D02*
X18117420Y-14570079D01*
X18117420Y-14570079D02*
X18126944Y-14608174D01*
X18126944Y-14608174D02*
X18126944Y-14655793D01*
X18126944Y-14655793D02*
X18117420Y-14693888D01*
X18117420Y-14693888D02*
X18107896Y-14712936D01*
X18107896Y-14712936D02*
X18098372Y-14722460D01*
X18098372Y-14722460D02*
X18079325Y-14731984D01*
X18079325Y-14731984D02*
X18060277Y-14731984D01*
X18060277Y-14731984D02*
X18041229Y-14722460D01*
X18041229Y-14722460D02*
X18031706Y-14712936D01*
X18031706Y-14712936D02*
X18022182Y-14693888D01*
X18022182Y-14693888D02*
X18012658Y-14655793D01*
X18012658Y-14655793D02*
X18012658Y-14608174D01*
X18012658Y-14608174D02*
X18022182Y-14570079D01*
X18022182Y-14570079D02*
X18031706Y-14551031D01*
X18031706Y-14551031D02*
X18041229Y-14541508D01*
X18041229Y-14541508D02*
X18060277Y-14531984D01*
X18203134Y-14531984D02*
X18203134Y-14570079D01*
X18279325Y-14531984D02*
X18279325Y-14570079D01*
X18574563Y-14808174D02*
X18565039Y-14798650D01*
X18565039Y-14798650D02*
X18545991Y-14770079D01*
X18545991Y-14770079D02*
X18536468Y-14751031D01*
X18536468Y-14751031D02*
X18526944Y-14722460D01*
X18526944Y-14722460D02*
X18517420Y-14674841D01*
X18517420Y-14674841D02*
X18517420Y-14636746D01*
X18517420Y-14636746D02*
X18526944Y-14589127D01*
X18526944Y-14589127D02*
X18536468Y-14560555D01*
X18536468Y-14560555D02*
X18545991Y-14541508D01*
X18545991Y-14541508D02*
X18565039Y-14512936D01*
X18565039Y-14512936D02*
X18574563Y-14503412D01*
X18631706Y-14531984D02*
X18755515Y-14531984D01*
X18755515Y-14531984D02*
X18688849Y-14608174D01*
X18688849Y-14608174D02*
X18717420Y-14608174D01*
X18717420Y-14608174D02*
X18736468Y-14617698D01*
X18736468Y-14617698D02*
X18745991Y-14627222D01*
X18745991Y-14627222D02*
X18755515Y-14646269D01*
X18755515Y-14646269D02*
X18755515Y-14693888D01*
X18755515Y-14693888D02*
X18745991Y-14712936D01*
X18745991Y-14712936D02*
X18736468Y-14722460D01*
X18736468Y-14722460D02*
X18717420Y-14731984D01*
X18717420Y-14731984D02*
X18660277Y-14731984D01*
X18660277Y-14731984D02*
X18641230Y-14722460D01*
X18641230Y-14722460D02*
X18631706Y-14712936D01*
X18993611Y-14731984D02*
X18993611Y-14531984D01*
X19079325Y-14731984D02*
X19079325Y-14627222D01*
X19079325Y-14627222D02*
X19069801Y-14608174D01*
X19069801Y-14608174D02*
X19050753Y-14598650D01*
X19050753Y-14598650D02*
X19022182Y-14598650D01*
X19022182Y-14598650D02*
X19003134Y-14608174D01*
X19003134Y-14608174D02*
X18993611Y-14617698D01*
X19203134Y-14731984D02*
X19184087Y-14722460D01*
X19184087Y-14722460D02*
X19174563Y-14712936D01*
X19174563Y-14712936D02*
X19165039Y-14693888D01*
X19165039Y-14693888D02*
X19165039Y-14636746D01*
X19165039Y-14636746D02*
X19174563Y-14617698D01*
X19174563Y-14617698D02*
X19184087Y-14608174D01*
X19184087Y-14608174D02*
X19203134Y-14598650D01*
X19203134Y-14598650D02*
X19231706Y-14598650D01*
X19231706Y-14598650D02*
X19250753Y-14608174D01*
X19250753Y-14608174D02*
X19260277Y-14617698D01*
X19260277Y-14617698D02*
X19269801Y-14636746D01*
X19269801Y-14636746D02*
X19269801Y-14693888D01*
X19269801Y-14693888D02*
X19260277Y-14712936D01*
X19260277Y-14712936D02*
X19250753Y-14722460D01*
X19250753Y-14722460D02*
X19231706Y-14731984D01*
X19231706Y-14731984D02*
X19203134Y-14731984D01*
X19384087Y-14731984D02*
X19365039Y-14722460D01*
X19365039Y-14722460D02*
X19355515Y-14703412D01*
X19355515Y-14703412D02*
X19355515Y-14531984D01*
X19536468Y-14722460D02*
X19517420Y-14731984D01*
X19517420Y-14731984D02*
X19479325Y-14731984D01*
X19479325Y-14731984D02*
X19460277Y-14722460D01*
X19460277Y-14722460D02*
X19450753Y-14703412D01*
X19450753Y-14703412D02*
X19450753Y-14627222D01*
X19450753Y-14627222D02*
X19460277Y-14608174D01*
X19460277Y-14608174D02*
X19479325Y-14598650D01*
X19479325Y-14598650D02*
X19517420Y-14598650D01*
X19517420Y-14598650D02*
X19536468Y-14608174D01*
X19536468Y-14608174D02*
X19545992Y-14627222D01*
X19545992Y-14627222D02*
X19545992Y-14646269D01*
X19545992Y-14646269D02*
X19450753Y-14665317D01*
X19622182Y-14722460D02*
X19641230Y-14731984D01*
X19641230Y-14731984D02*
X19679325Y-14731984D01*
X19679325Y-14731984D02*
X19698373Y-14722460D01*
X19698373Y-14722460D02*
X19707896Y-14703412D01*
X19707896Y-14703412D02*
X19707896Y-14693888D01*
X19707896Y-14693888D02*
X19698373Y-14674841D01*
X19698373Y-14674841D02*
X19679325Y-14665317D01*
X19679325Y-14665317D02*
X19650753Y-14665317D01*
X19650753Y-14665317D02*
X19631706Y-14655793D01*
X19631706Y-14655793D02*
X19622182Y-14636746D01*
X19622182Y-14636746D02*
X19622182Y-14627222D01*
X19622182Y-14627222D02*
X19631706Y-14608174D01*
X19631706Y-14608174D02*
X19650753Y-14598650D01*
X19650753Y-14598650D02*
X19679325Y-14598650D01*
X19679325Y-14598650D02*
X19698373Y-14608174D01*
X19774563Y-14808174D02*
X19784087Y-14798650D01*
X19784087Y-14798650D02*
X19803134Y-14770079D01*
X19803134Y-14770079D02*
X19812658Y-14751031D01*
X19812658Y-14751031D02*
X19822182Y-14722460D01*
X19822182Y-14722460D02*
X19831706Y-14674841D01*
X19831706Y-14674841D02*
X19831706Y-14636746D01*
X19831706Y-14636746D02*
X19822182Y-14589127D01*
X19822182Y-14589127D02*
X19812658Y-14560555D01*
X19812658Y-14560555D02*
X19803134Y-14541508D01*
X19803134Y-14541508D02*
X19784087Y-14512936D01*
X19784087Y-14512936D02*
X19774563Y-14503412D01*
X20136468Y-14808174D02*
X20126944Y-14798650D01*
X20126944Y-14798650D02*
X20107896Y-14770079D01*
X20107896Y-14770079D02*
X20098373Y-14751031D01*
X20098373Y-14751031D02*
X20088849Y-14722460D01*
X20088849Y-14722460D02*
X20079325Y-14674841D01*
X20079325Y-14674841D02*
X20079325Y-14636746D01*
X20079325Y-14636746D02*
X20088849Y-14589127D01*
X20088849Y-14589127D02*
X20098373Y-14560555D01*
X20098373Y-14560555D02*
X20107896Y-14541508D01*
X20107896Y-14541508D02*
X20126944Y-14512936D01*
X20126944Y-14512936D02*
X20136468Y-14503412D01*
X20212658Y-14598650D02*
X20212658Y-14731984D01*
X20212658Y-14617698D02*
X20222182Y-14608174D01*
X20222182Y-14608174D02*
X20241230Y-14598650D01*
X20241230Y-14598650D02*
X20269801Y-14598650D01*
X20269801Y-14598650D02*
X20288849Y-14608174D01*
X20288849Y-14608174D02*
X20298373Y-14627222D01*
X20298373Y-14627222D02*
X20298373Y-14731984D01*
X20422182Y-14731984D02*
X20403134Y-14722460D01*
X20403134Y-14722460D02*
X20393611Y-14712936D01*
X20393611Y-14712936D02*
X20384087Y-14693888D01*
X20384087Y-14693888D02*
X20384087Y-14636746D01*
X20384087Y-14636746D02*
X20393611Y-14617698D01*
X20393611Y-14617698D02*
X20403134Y-14608174D01*
X20403134Y-14608174D02*
X20422182Y-14598650D01*
X20422182Y-14598650D02*
X20450754Y-14598650D01*
X20450754Y-14598650D02*
X20469801Y-14608174D01*
X20469801Y-14608174D02*
X20479325Y-14617698D01*
X20479325Y-14617698D02*
X20488849Y-14636746D01*
X20488849Y-14636746D02*
X20488849Y-14693888D01*
X20488849Y-14693888D02*
X20479325Y-14712936D01*
X20479325Y-14712936D02*
X20469801Y-14722460D01*
X20469801Y-14722460D02*
X20450754Y-14731984D01*
X20450754Y-14731984D02*
X20422182Y-14731984D01*
X20545992Y-14598650D02*
X20622182Y-14598650D01*
X20574563Y-14531984D02*
X20574563Y-14703412D01*
X20574563Y-14703412D02*
X20584087Y-14722460D01*
X20584087Y-14722460D02*
X20603134Y-14731984D01*
X20603134Y-14731984D02*
X20622182Y-14731984D01*
X20841230Y-14598650D02*
X20841230Y-14798650D01*
X20841230Y-14608174D02*
X20860277Y-14598650D01*
X20860277Y-14598650D02*
X20898373Y-14598650D01*
X20898373Y-14598650D02*
X20917420Y-14608174D01*
X20917420Y-14608174D02*
X20926944Y-14617698D01*
X20926944Y-14617698D02*
X20936468Y-14636746D01*
X20936468Y-14636746D02*
X20936468Y-14693888D01*
X20936468Y-14693888D02*
X20926944Y-14712936D01*
X20926944Y-14712936D02*
X20917420Y-14722460D01*
X20917420Y-14722460D02*
X20898373Y-14731984D01*
X20898373Y-14731984D02*
X20860277Y-14731984D01*
X20860277Y-14731984D02*
X20841230Y-14722460D01*
X21050754Y-14731984D02*
X21031706Y-14722460D01*
X21031706Y-14722460D02*
X21022182Y-14703412D01*
X21022182Y-14703412D02*
X21022182Y-14531984D01*
X21212658Y-14731984D02*
X21212658Y-14627222D01*
X21212658Y-14627222D02*
X21203135Y-14608174D01*
X21203135Y-14608174D02*
X21184087Y-14598650D01*
X21184087Y-14598650D02*
X21145992Y-14598650D01*
X21145992Y-14598650D02*
X21126944Y-14608174D01*
X21212658Y-14722460D02*
X21193611Y-14731984D01*
X21193611Y-14731984D02*
X21145992Y-14731984D01*
X21145992Y-14731984D02*
X21126944Y-14722460D01*
X21126944Y-14722460D02*
X21117420Y-14703412D01*
X21117420Y-14703412D02*
X21117420Y-14684365D01*
X21117420Y-14684365D02*
X21126944Y-14665317D01*
X21126944Y-14665317D02*
X21145992Y-14655793D01*
X21145992Y-14655793D02*
X21193611Y-14655793D01*
X21193611Y-14655793D02*
X21212658Y-14646269D01*
X21279325Y-14598650D02*
X21355515Y-14598650D01*
X21307896Y-14531984D02*
X21307896Y-14703412D01*
X21307896Y-14703412D02*
X21317420Y-14722460D01*
X21317420Y-14722460D02*
X21336468Y-14731984D01*
X21336468Y-14731984D02*
X21355515Y-14731984D01*
X21498373Y-14722460D02*
X21479325Y-14731984D01*
X21479325Y-14731984D02*
X21441230Y-14731984D01*
X21441230Y-14731984D02*
X21422182Y-14722460D01*
X21422182Y-14722460D02*
X21412658Y-14703412D01*
X21412658Y-14703412D02*
X21412658Y-14627222D01*
X21412658Y-14627222D02*
X21422182Y-14608174D01*
X21422182Y-14608174D02*
X21441230Y-14598650D01*
X21441230Y-14598650D02*
X21479325Y-14598650D01*
X21479325Y-14598650D02*
X21498373Y-14608174D01*
X21498373Y-14608174D02*
X21507896Y-14627222D01*
X21507896Y-14627222D02*
X21507896Y-14646269D01*
X21507896Y-14646269D02*
X21412658Y-14665317D01*
X21679325Y-14731984D02*
X21679325Y-14531984D01*
X21679325Y-14722460D02*
X21660277Y-14731984D01*
X21660277Y-14731984D02*
X21622182Y-14731984D01*
X21622182Y-14731984D02*
X21603135Y-14722460D01*
X21603135Y-14722460D02*
X21593611Y-14712936D01*
X21593611Y-14712936D02*
X21584087Y-14693888D01*
X21584087Y-14693888D02*
X21584087Y-14636746D01*
X21584087Y-14636746D02*
X21593611Y-14617698D01*
X21593611Y-14617698D02*
X21603135Y-14608174D01*
X21603135Y-14608174D02*
X21622182Y-14598650D01*
X21622182Y-14598650D02*
X21660277Y-14598650D01*
X21660277Y-14598650D02*
X21679325Y-14608174D01*
X21755516Y-14808174D02*
X21765039Y-14798650D01*
X21765039Y-14798650D02*
X21784087Y-14770079D01*
X21784087Y-14770079D02*
X21793611Y-14751031D01*
X21793611Y-14751031D02*
X21803135Y-14722460D01*
X21803135Y-14722460D02*
X21812658Y-14674841D01*
X21812658Y-14674841D02*
X21812658Y-14636746D01*
X21812658Y-14636746D02*
X21803135Y-14589127D01*
X21803135Y-14589127D02*
X21793611Y-14560555D01*
X21793611Y-14560555D02*
X21784087Y-14541508D01*
X21784087Y-14541508D02*
X21765039Y-14512936D01*
X21765039Y-14512936D02*
X21755516Y-14503412D01*
M02*
