G04 #@! TF.GenerationSoftware,KiCad,Pcbnew,8.0.4*
G04 #@! TF.CreationDate,2024-10-04T00:04:43-04:00*
G04 #@! TF.ProjectId,BlueSTM32,426c7565-5354-44d3-9332-2e6b69636164,rev?*
G04 #@! TF.SameCoordinates,Original*
G04 #@! TF.FileFunction,Copper,L1,Top*
G04 #@! TF.FilePolarity,Positive*
%FSLAX46Y46*%
G04 Gerber Fmt 4.6, Leading zero omitted, Abs format (unit mm)*
G04 Created by KiCad (PCBNEW 8.0.4) date 2024-10-04 00:04:43*
%MOMM*%
%LPD*%
G01*
G04 APERTURE LIST*
G04 Aperture macros list*
%AMRoundRect*
0 Rectangle with rounded corners*
0 $1 Rounding radius*
0 $2 $3 $4 $5 $6 $7 $8 $9 X,Y pos of 4 corners*
0 Add a 4 corners polygon primitive as box body*
4,1,4,$2,$3,$4,$5,$6,$7,$8,$9,$2,$3,0*
0 Add four circle primitives for the rounded corners*
1,1,$1+$1,$2,$3*
1,1,$1+$1,$4,$5*
1,1,$1+$1,$6,$7*
1,1,$1+$1,$8,$9*
0 Add four rect primitives between the rounded corners*
20,1,$1+$1,$2,$3,$4,$5,0*
20,1,$1+$1,$4,$5,$6,$7,0*
20,1,$1+$1,$6,$7,$8,$9,0*
20,1,$1+$1,$8,$9,$2,$3,0*%
G04 Aperture macros list end*
G04 #@! TA.AperFunction,EtchedComponent*
%ADD10C,0.010000*%
G04 #@! TD*
G04 #@! TA.AperFunction,SMDPad,CuDef*
%ADD11R,0.576580X0.351536*%
G04 #@! TD*
G04 #@! TA.AperFunction,SMDPad,CuDef*
%ADD12R,0.351536X0.576580*%
G04 #@! TD*
G04 #@! TA.AperFunction,SMDPad,CuDef*
%ADD13RoundRect,0.150000X-0.512500X-0.150000X0.512500X-0.150000X0.512500X0.150000X-0.512500X0.150000X0*%
G04 #@! TD*
G04 #@! TA.AperFunction,SMDPad,CuDef*
%ADD14RoundRect,0.200000X-0.017678X-0.300520X0.300520X0.017678X0.017678X0.300520X-0.300520X-0.017678X0*%
G04 #@! TD*
G04 #@! TA.AperFunction,SMDPad,CuDef*
%ADD15RoundRect,0.300000X-0.700000X0.300000X-0.700000X-0.300000X0.700000X-0.300000X0.700000X0.300000X0*%
G04 #@! TD*
G04 #@! TA.AperFunction,HeatsinkPad*
%ADD16R,6.400000X6.400000*%
G04 #@! TD*
G04 #@! TA.AperFunction,SMDPad,CuDef*
%ADD17RoundRect,0.062500X-0.062500X-0.400000X0.062500X-0.400000X0.062500X0.400000X-0.062500X0.400000X0*%
G04 #@! TD*
G04 #@! TA.AperFunction,SMDPad,CuDef*
%ADD18RoundRect,0.062500X-0.400000X-0.062500X0.400000X-0.062500X0.400000X0.062500X-0.400000X0.062500X0*%
G04 #@! TD*
G04 #@! TA.AperFunction,SMDPad,CuDef*
%ADD19R,0.863600X0.431800*%
G04 #@! TD*
G04 #@! TA.AperFunction,SMDPad,CuDef*
%ADD20R,4.343400X3.454400*%
G04 #@! TD*
G04 #@! TA.AperFunction,SMDPad,CuDef*
%ADD21R,1.460500X0.533400*%
G04 #@! TD*
G04 #@! TA.AperFunction,SMDPad,CuDef*
%ADD22R,0.900000X1.500000*%
G04 #@! TD*
G04 #@! TA.AperFunction,SMDPad,CuDef*
%ADD23R,0.760000X0.220000*%
G04 #@! TD*
G04 #@! TA.AperFunction,SMDPad,CuDef*
%ADD24RoundRect,0.160000X-0.160000X0.197500X-0.160000X-0.197500X0.160000X-0.197500X0.160000X0.197500X0*%
G04 #@! TD*
G04 #@! TA.AperFunction,SMDPad,CuDef*
%ADD25R,0.736600X0.965200*%
G04 #@! TD*
G04 #@! TA.AperFunction,SMDPad,CuDef*
%ADD26R,0.736600X0.355600*%
G04 #@! TD*
G04 #@! TA.AperFunction,SMDPad,CuDef*
%ADD27RoundRect,0.160000X0.197500X0.160000X-0.197500X0.160000X-0.197500X-0.160000X0.197500X-0.160000X0*%
G04 #@! TD*
G04 #@! TA.AperFunction,SMDPad,CuDef*
%ADD28RoundRect,0.160000X0.160000X-0.197500X0.160000X0.197500X-0.160000X0.197500X-0.160000X-0.197500X0*%
G04 #@! TD*
G04 #@! TA.AperFunction,SMDPad,CuDef*
%ADD29RoundRect,0.250000X-0.450000X0.325000X-0.450000X-0.325000X0.450000X-0.325000X0.450000X0.325000X0*%
G04 #@! TD*
G04 #@! TA.AperFunction,SMDPad,CuDef*
%ADD30RoundRect,0.250001X-1.074999X0.462499X-1.074999X-0.462499X1.074999X-0.462499X1.074999X0.462499X0*%
G04 #@! TD*
G04 #@! TA.AperFunction,SMDPad,CuDef*
%ADD31R,2.100000X2.799999*%
G04 #@! TD*
G04 #@! TA.AperFunction,SMDPad,CuDef*
%ADD32R,0.600000X1.900000*%
G04 #@! TD*
G04 #@! TA.AperFunction,ConnectorPad*
%ADD33C,0.787400*%
G04 #@! TD*
G04 #@! TA.AperFunction,SMDPad,CuDef*
%ADD34RoundRect,0.250000X0.300000X0.300000X-0.300000X0.300000X-0.300000X-0.300000X0.300000X-0.300000X0*%
G04 #@! TD*
G04 #@! TA.AperFunction,SMDPad,CuDef*
%ADD35RoundRect,0.237500X-0.287500X-0.237500X0.287500X-0.237500X0.287500X0.237500X-0.287500X0.237500X0*%
G04 #@! TD*
G04 #@! TA.AperFunction,SMDPad,CuDef*
%ADD36RoundRect,0.155000X-0.212500X-0.155000X0.212500X-0.155000X0.212500X0.155000X-0.212500X0.155000X0*%
G04 #@! TD*
G04 #@! TA.AperFunction,SMDPad,CuDef*
%ADD37RoundRect,0.155000X-0.155000X0.212500X-0.155000X-0.212500X0.155000X-0.212500X0.155000X0.212500X0*%
G04 #@! TD*
G04 #@! TA.AperFunction,SMDPad,CuDef*
%ADD38RoundRect,0.155000X0.155000X-0.212500X0.155000X0.212500X-0.155000X0.212500X-0.155000X-0.212500X0*%
G04 #@! TD*
G04 #@! TA.AperFunction,ComponentPad*
%ADD39O,0.950000X1.900000*%
G04 #@! TD*
G04 #@! TA.AperFunction,ComponentPad*
%ADD40O,0.800000X1.600000*%
G04 #@! TD*
G04 #@! TA.AperFunction,SMDPad,CuDef*
%ADD41R,0.300000X1.100000*%
G04 #@! TD*
G04 #@! TA.AperFunction,SMDPad,CuDef*
%ADD42R,0.600000X1.100000*%
G04 #@! TD*
G04 #@! TA.AperFunction,ViaPad*
%ADD43C,0.400000*%
G04 #@! TD*
G04 #@! TA.AperFunction,ViaPad*
%ADD44C,0.500000*%
G04 #@! TD*
G04 #@! TA.AperFunction,ViaPad*
%ADD45C,0.350000*%
G04 #@! TD*
G04 #@! TA.AperFunction,ViaPad*
%ADD46C,0.600000*%
G04 #@! TD*
G04 #@! TA.AperFunction,Conductor*
%ADD47C,0.200000*%
G04 #@! TD*
G04 #@! TA.AperFunction,Conductor*
%ADD48C,0.250000*%
G04 #@! TD*
G04 #@! TA.AperFunction,Conductor*
%ADD49C,0.500000*%
G04 #@! TD*
G04 APERTURE END LIST*
D10*
X175596000Y-104701000D02*
X175622000Y-104703000D01*
X175648000Y-104706000D01*
X175674000Y-104711000D01*
X175699000Y-104717000D01*
X175725000Y-104724000D01*
X175749000Y-104733000D01*
X175773000Y-104743000D01*
X175797000Y-104754000D01*
X175820000Y-104767000D01*
X175842000Y-104781000D01*
X175864000Y-104795000D01*
X175885000Y-104811000D01*
X175905000Y-104828000D01*
X175924000Y-104846000D01*
X175942000Y-104865000D01*
X175959000Y-104885000D01*
X175975000Y-104906000D01*
X175989000Y-104928000D01*
X176003000Y-104950000D01*
X176016000Y-104973000D01*
X176027000Y-104997000D01*
X176037000Y-105021000D01*
X176046000Y-105045000D01*
X176053000Y-105071000D01*
X176059000Y-105096000D01*
X176064000Y-105122000D01*
X176067000Y-105148000D01*
X176069000Y-105174000D01*
X176070000Y-105200000D01*
X176070000Y-106000000D01*
X176069000Y-106026000D01*
X176067000Y-106052000D01*
X176064000Y-106078000D01*
X176059000Y-106104000D01*
X176053000Y-106129000D01*
X176046000Y-106155000D01*
X176037000Y-106179000D01*
X176027000Y-106203000D01*
X176016000Y-106227000D01*
X176003000Y-106250000D01*
X175989000Y-106272000D01*
X175975000Y-106294000D01*
X175959000Y-106315000D01*
X175942000Y-106335000D01*
X175924000Y-106354000D01*
X175905000Y-106372000D01*
X175885000Y-106389000D01*
X175864000Y-106405000D01*
X175842000Y-106419000D01*
X175820000Y-106433000D01*
X175797000Y-106446000D01*
X175773000Y-106457000D01*
X175749000Y-106467000D01*
X175725000Y-106476000D01*
X175699000Y-106483000D01*
X175674000Y-106489000D01*
X175648000Y-106494000D01*
X175622000Y-106497000D01*
X175596000Y-106499000D01*
X175570000Y-106500000D01*
X175544000Y-106499000D01*
X175518000Y-106497000D01*
X175492000Y-106494000D01*
X175466000Y-106489000D01*
X175441000Y-106483000D01*
X175415000Y-106476000D01*
X175391000Y-106467000D01*
X175367000Y-106457000D01*
X175343000Y-106446000D01*
X175320000Y-106433000D01*
X175298000Y-106419000D01*
X175276000Y-106405000D01*
X175255000Y-106389000D01*
X175235000Y-106372000D01*
X175216000Y-106354000D01*
X175198000Y-106335000D01*
X175181000Y-106315000D01*
X175165000Y-106294000D01*
X175151000Y-106272000D01*
X175137000Y-106250000D01*
X175124000Y-106227000D01*
X175113000Y-106203000D01*
X175103000Y-106179000D01*
X175094000Y-106155000D01*
X175087000Y-106129000D01*
X175081000Y-106104000D01*
X175076000Y-106078000D01*
X175073000Y-106052000D01*
X175071000Y-106026000D01*
X175070000Y-106000000D01*
X175070000Y-105200000D01*
X175071000Y-105174000D01*
X175073000Y-105148000D01*
X175076000Y-105122000D01*
X175081000Y-105096000D01*
X175087000Y-105071000D01*
X175094000Y-105045000D01*
X175103000Y-105021000D01*
X175113000Y-104997000D01*
X175124000Y-104973000D01*
X175137000Y-104950000D01*
X175151000Y-104928000D01*
X175165000Y-104906000D01*
X175181000Y-104885000D01*
X175198000Y-104865000D01*
X175216000Y-104846000D01*
X175235000Y-104828000D01*
X175255000Y-104811000D01*
X175276000Y-104795000D01*
X175298000Y-104781000D01*
X175320000Y-104767000D01*
X175343000Y-104754000D01*
X175367000Y-104743000D01*
X175391000Y-104733000D01*
X175415000Y-104724000D01*
X175441000Y-104717000D01*
X175466000Y-104711000D01*
X175492000Y-104706000D01*
X175518000Y-104703000D01*
X175544000Y-104701000D01*
X175570000Y-104700000D01*
X175596000Y-104701000D01*
G04 #@! TA.AperFunction,EtchedComponent*
G36*
X175596000Y-104701000D02*
G01*
X175622000Y-104703000D01*
X175648000Y-104706000D01*
X175674000Y-104711000D01*
X175699000Y-104717000D01*
X175725000Y-104724000D01*
X175749000Y-104733000D01*
X175773000Y-104743000D01*
X175797000Y-104754000D01*
X175820000Y-104767000D01*
X175842000Y-104781000D01*
X175864000Y-104795000D01*
X175885000Y-104811000D01*
X175905000Y-104828000D01*
X175924000Y-104846000D01*
X175942000Y-104865000D01*
X175959000Y-104885000D01*
X175975000Y-104906000D01*
X175989000Y-104928000D01*
X176003000Y-104950000D01*
X176016000Y-104973000D01*
X176027000Y-104997000D01*
X176037000Y-105021000D01*
X176046000Y-105045000D01*
X176053000Y-105071000D01*
X176059000Y-105096000D01*
X176064000Y-105122000D01*
X176067000Y-105148000D01*
X176069000Y-105174000D01*
X176070000Y-105200000D01*
X176070000Y-106000000D01*
X176069000Y-106026000D01*
X176067000Y-106052000D01*
X176064000Y-106078000D01*
X176059000Y-106104000D01*
X176053000Y-106129000D01*
X176046000Y-106155000D01*
X176037000Y-106179000D01*
X176027000Y-106203000D01*
X176016000Y-106227000D01*
X176003000Y-106250000D01*
X175989000Y-106272000D01*
X175975000Y-106294000D01*
X175959000Y-106315000D01*
X175942000Y-106335000D01*
X175924000Y-106354000D01*
X175905000Y-106372000D01*
X175885000Y-106389000D01*
X175864000Y-106405000D01*
X175842000Y-106419000D01*
X175820000Y-106433000D01*
X175797000Y-106446000D01*
X175773000Y-106457000D01*
X175749000Y-106467000D01*
X175725000Y-106476000D01*
X175699000Y-106483000D01*
X175674000Y-106489000D01*
X175648000Y-106494000D01*
X175622000Y-106497000D01*
X175596000Y-106499000D01*
X175570000Y-106500000D01*
X175544000Y-106499000D01*
X175518000Y-106497000D01*
X175492000Y-106494000D01*
X175466000Y-106489000D01*
X175441000Y-106483000D01*
X175415000Y-106476000D01*
X175391000Y-106467000D01*
X175367000Y-106457000D01*
X175343000Y-106446000D01*
X175320000Y-106433000D01*
X175298000Y-106419000D01*
X175276000Y-106405000D01*
X175255000Y-106389000D01*
X175235000Y-106372000D01*
X175216000Y-106354000D01*
X175198000Y-106335000D01*
X175181000Y-106315000D01*
X175165000Y-106294000D01*
X175151000Y-106272000D01*
X175137000Y-106250000D01*
X175124000Y-106227000D01*
X175113000Y-106203000D01*
X175103000Y-106179000D01*
X175094000Y-106155000D01*
X175087000Y-106129000D01*
X175081000Y-106104000D01*
X175076000Y-106078000D01*
X175073000Y-106052000D01*
X175071000Y-106026000D01*
X175070000Y-106000000D01*
X175070000Y-105200000D01*
X175071000Y-105174000D01*
X175073000Y-105148000D01*
X175076000Y-105122000D01*
X175081000Y-105096000D01*
X175087000Y-105071000D01*
X175094000Y-105045000D01*
X175103000Y-105021000D01*
X175113000Y-104997000D01*
X175124000Y-104973000D01*
X175137000Y-104950000D01*
X175151000Y-104928000D01*
X175165000Y-104906000D01*
X175181000Y-104885000D01*
X175198000Y-104865000D01*
X175216000Y-104846000D01*
X175235000Y-104828000D01*
X175255000Y-104811000D01*
X175276000Y-104795000D01*
X175298000Y-104781000D01*
X175320000Y-104767000D01*
X175343000Y-104754000D01*
X175367000Y-104743000D01*
X175391000Y-104733000D01*
X175415000Y-104724000D01*
X175441000Y-104717000D01*
X175466000Y-104711000D01*
X175492000Y-104706000D01*
X175518000Y-104703000D01*
X175544000Y-104701000D01*
X175570000Y-104700000D01*
X175596000Y-104701000D01*
G37*
G04 #@! TD.AperFunction*
X175596000Y-100501000D02*
X175622000Y-100503000D01*
X175648000Y-100506000D01*
X175674000Y-100511000D01*
X175699000Y-100517000D01*
X175725000Y-100524000D01*
X175749000Y-100533000D01*
X175773000Y-100543000D01*
X175797000Y-100554000D01*
X175820000Y-100567000D01*
X175842000Y-100581000D01*
X175864000Y-100595000D01*
X175885000Y-100611000D01*
X175905000Y-100628000D01*
X175924000Y-100646000D01*
X175942000Y-100665000D01*
X175959000Y-100685000D01*
X175975000Y-100706000D01*
X175989000Y-100728000D01*
X176003000Y-100750000D01*
X176016000Y-100773000D01*
X176027000Y-100797000D01*
X176037000Y-100821000D01*
X176046000Y-100845000D01*
X176053000Y-100871000D01*
X176059000Y-100896000D01*
X176064000Y-100922000D01*
X176067000Y-100948000D01*
X176069000Y-100974000D01*
X176070000Y-101000000D01*
X176070000Y-102200000D01*
X176069000Y-102226000D01*
X176067000Y-102252000D01*
X176064000Y-102278000D01*
X176059000Y-102304000D01*
X176053000Y-102329000D01*
X176046000Y-102355000D01*
X176037000Y-102379000D01*
X176027000Y-102403000D01*
X176016000Y-102427000D01*
X176003000Y-102450000D01*
X175989000Y-102472000D01*
X175975000Y-102494000D01*
X175959000Y-102515000D01*
X175942000Y-102535000D01*
X175924000Y-102554000D01*
X175905000Y-102572000D01*
X175885000Y-102589000D01*
X175864000Y-102605000D01*
X175842000Y-102619000D01*
X175820000Y-102633000D01*
X175797000Y-102646000D01*
X175773000Y-102657000D01*
X175749000Y-102667000D01*
X175725000Y-102676000D01*
X175699000Y-102683000D01*
X175674000Y-102689000D01*
X175648000Y-102694000D01*
X175622000Y-102697000D01*
X175596000Y-102699000D01*
X175570000Y-102700000D01*
X175544000Y-102699000D01*
X175518000Y-102697000D01*
X175492000Y-102694000D01*
X175466000Y-102689000D01*
X175441000Y-102683000D01*
X175415000Y-102676000D01*
X175391000Y-102667000D01*
X175367000Y-102657000D01*
X175343000Y-102646000D01*
X175320000Y-102633000D01*
X175298000Y-102619000D01*
X175276000Y-102605000D01*
X175255000Y-102589000D01*
X175235000Y-102572000D01*
X175216000Y-102554000D01*
X175198000Y-102535000D01*
X175181000Y-102515000D01*
X175165000Y-102494000D01*
X175151000Y-102472000D01*
X175137000Y-102450000D01*
X175124000Y-102427000D01*
X175113000Y-102403000D01*
X175103000Y-102379000D01*
X175094000Y-102355000D01*
X175087000Y-102329000D01*
X175081000Y-102304000D01*
X175076000Y-102278000D01*
X175073000Y-102252000D01*
X175071000Y-102226000D01*
X175070000Y-102200000D01*
X175070000Y-101000000D01*
X175071000Y-100974000D01*
X175073000Y-100948000D01*
X175076000Y-100922000D01*
X175081000Y-100896000D01*
X175087000Y-100871000D01*
X175094000Y-100845000D01*
X175103000Y-100821000D01*
X175113000Y-100797000D01*
X175124000Y-100773000D01*
X175137000Y-100750000D01*
X175151000Y-100728000D01*
X175165000Y-100706000D01*
X175181000Y-100685000D01*
X175198000Y-100665000D01*
X175216000Y-100646000D01*
X175235000Y-100628000D01*
X175255000Y-100611000D01*
X175276000Y-100595000D01*
X175298000Y-100581000D01*
X175320000Y-100567000D01*
X175343000Y-100554000D01*
X175367000Y-100543000D01*
X175391000Y-100533000D01*
X175415000Y-100524000D01*
X175441000Y-100517000D01*
X175466000Y-100511000D01*
X175492000Y-100506000D01*
X175518000Y-100503000D01*
X175544000Y-100501000D01*
X175570000Y-100500000D01*
X175596000Y-100501000D01*
G04 #@! TA.AperFunction,EtchedComponent*
G36*
X175596000Y-100501000D02*
G01*
X175622000Y-100503000D01*
X175648000Y-100506000D01*
X175674000Y-100511000D01*
X175699000Y-100517000D01*
X175725000Y-100524000D01*
X175749000Y-100533000D01*
X175773000Y-100543000D01*
X175797000Y-100554000D01*
X175820000Y-100567000D01*
X175842000Y-100581000D01*
X175864000Y-100595000D01*
X175885000Y-100611000D01*
X175905000Y-100628000D01*
X175924000Y-100646000D01*
X175942000Y-100665000D01*
X175959000Y-100685000D01*
X175975000Y-100706000D01*
X175989000Y-100728000D01*
X176003000Y-100750000D01*
X176016000Y-100773000D01*
X176027000Y-100797000D01*
X176037000Y-100821000D01*
X176046000Y-100845000D01*
X176053000Y-100871000D01*
X176059000Y-100896000D01*
X176064000Y-100922000D01*
X176067000Y-100948000D01*
X176069000Y-100974000D01*
X176070000Y-101000000D01*
X176070000Y-102200000D01*
X176069000Y-102226000D01*
X176067000Y-102252000D01*
X176064000Y-102278000D01*
X176059000Y-102304000D01*
X176053000Y-102329000D01*
X176046000Y-102355000D01*
X176037000Y-102379000D01*
X176027000Y-102403000D01*
X176016000Y-102427000D01*
X176003000Y-102450000D01*
X175989000Y-102472000D01*
X175975000Y-102494000D01*
X175959000Y-102515000D01*
X175942000Y-102535000D01*
X175924000Y-102554000D01*
X175905000Y-102572000D01*
X175885000Y-102589000D01*
X175864000Y-102605000D01*
X175842000Y-102619000D01*
X175820000Y-102633000D01*
X175797000Y-102646000D01*
X175773000Y-102657000D01*
X175749000Y-102667000D01*
X175725000Y-102676000D01*
X175699000Y-102683000D01*
X175674000Y-102689000D01*
X175648000Y-102694000D01*
X175622000Y-102697000D01*
X175596000Y-102699000D01*
X175570000Y-102700000D01*
X175544000Y-102699000D01*
X175518000Y-102697000D01*
X175492000Y-102694000D01*
X175466000Y-102689000D01*
X175441000Y-102683000D01*
X175415000Y-102676000D01*
X175391000Y-102667000D01*
X175367000Y-102657000D01*
X175343000Y-102646000D01*
X175320000Y-102633000D01*
X175298000Y-102619000D01*
X175276000Y-102605000D01*
X175255000Y-102589000D01*
X175235000Y-102572000D01*
X175216000Y-102554000D01*
X175198000Y-102535000D01*
X175181000Y-102515000D01*
X175165000Y-102494000D01*
X175151000Y-102472000D01*
X175137000Y-102450000D01*
X175124000Y-102427000D01*
X175113000Y-102403000D01*
X175103000Y-102379000D01*
X175094000Y-102355000D01*
X175087000Y-102329000D01*
X175081000Y-102304000D01*
X175076000Y-102278000D01*
X175073000Y-102252000D01*
X175071000Y-102226000D01*
X175070000Y-102200000D01*
X175070000Y-101000000D01*
X175071000Y-100974000D01*
X175073000Y-100948000D01*
X175076000Y-100922000D01*
X175081000Y-100896000D01*
X175087000Y-100871000D01*
X175094000Y-100845000D01*
X175103000Y-100821000D01*
X175113000Y-100797000D01*
X175124000Y-100773000D01*
X175137000Y-100750000D01*
X175151000Y-100728000D01*
X175165000Y-100706000D01*
X175181000Y-100685000D01*
X175198000Y-100665000D01*
X175216000Y-100646000D01*
X175235000Y-100628000D01*
X175255000Y-100611000D01*
X175276000Y-100595000D01*
X175298000Y-100581000D01*
X175320000Y-100567000D01*
X175343000Y-100554000D01*
X175367000Y-100543000D01*
X175391000Y-100533000D01*
X175415000Y-100524000D01*
X175441000Y-100517000D01*
X175466000Y-100511000D01*
X175492000Y-100506000D01*
X175518000Y-100503000D01*
X175544000Y-100501000D01*
X175570000Y-100500000D01*
X175596000Y-100501000D01*
G37*
G04 #@! TD.AperFunction*
X164356000Y-104701000D02*
X164382000Y-104703000D01*
X164408000Y-104706000D01*
X164434000Y-104711000D01*
X164459000Y-104717000D01*
X164485000Y-104724000D01*
X164509000Y-104733000D01*
X164533000Y-104743000D01*
X164557000Y-104754000D01*
X164580000Y-104767000D01*
X164602000Y-104781000D01*
X164624000Y-104795000D01*
X164645000Y-104811000D01*
X164665000Y-104828000D01*
X164684000Y-104846000D01*
X164702000Y-104865000D01*
X164719000Y-104885000D01*
X164735000Y-104906000D01*
X164749000Y-104928000D01*
X164763000Y-104950000D01*
X164776000Y-104973000D01*
X164787000Y-104997000D01*
X164797000Y-105021000D01*
X164806000Y-105045000D01*
X164813000Y-105071000D01*
X164819000Y-105096000D01*
X164824000Y-105122000D01*
X164827000Y-105148000D01*
X164829000Y-105174000D01*
X164830000Y-105200000D01*
X164830000Y-106000000D01*
X164829000Y-106026000D01*
X164827000Y-106052000D01*
X164824000Y-106078000D01*
X164819000Y-106104000D01*
X164813000Y-106129000D01*
X164806000Y-106155000D01*
X164797000Y-106179000D01*
X164787000Y-106203000D01*
X164776000Y-106227000D01*
X164763000Y-106250000D01*
X164749000Y-106272000D01*
X164735000Y-106294000D01*
X164719000Y-106315000D01*
X164702000Y-106335000D01*
X164684000Y-106354000D01*
X164665000Y-106372000D01*
X164645000Y-106389000D01*
X164624000Y-106405000D01*
X164602000Y-106419000D01*
X164580000Y-106433000D01*
X164557000Y-106446000D01*
X164533000Y-106457000D01*
X164509000Y-106467000D01*
X164485000Y-106476000D01*
X164459000Y-106483000D01*
X164434000Y-106489000D01*
X164408000Y-106494000D01*
X164382000Y-106497000D01*
X164356000Y-106499000D01*
X164330000Y-106500000D01*
X164304000Y-106499000D01*
X164278000Y-106497000D01*
X164252000Y-106494000D01*
X164226000Y-106489000D01*
X164201000Y-106483000D01*
X164175000Y-106476000D01*
X164151000Y-106467000D01*
X164127000Y-106457000D01*
X164103000Y-106446000D01*
X164080000Y-106433000D01*
X164058000Y-106419000D01*
X164036000Y-106405000D01*
X164015000Y-106389000D01*
X163995000Y-106372000D01*
X163976000Y-106354000D01*
X163958000Y-106335000D01*
X163941000Y-106315000D01*
X163925000Y-106294000D01*
X163911000Y-106272000D01*
X163897000Y-106250000D01*
X163884000Y-106227000D01*
X163873000Y-106203000D01*
X163863000Y-106179000D01*
X163854000Y-106155000D01*
X163847000Y-106129000D01*
X163841000Y-106104000D01*
X163836000Y-106078000D01*
X163833000Y-106052000D01*
X163831000Y-106026000D01*
X163830000Y-106000000D01*
X163830000Y-105200000D01*
X163831000Y-105174000D01*
X163833000Y-105148000D01*
X163836000Y-105122000D01*
X163841000Y-105096000D01*
X163847000Y-105071000D01*
X163854000Y-105045000D01*
X163863000Y-105021000D01*
X163873000Y-104997000D01*
X163884000Y-104973000D01*
X163897000Y-104950000D01*
X163911000Y-104928000D01*
X163925000Y-104906000D01*
X163941000Y-104885000D01*
X163958000Y-104865000D01*
X163976000Y-104846000D01*
X163995000Y-104828000D01*
X164015000Y-104811000D01*
X164036000Y-104795000D01*
X164058000Y-104781000D01*
X164080000Y-104767000D01*
X164103000Y-104754000D01*
X164127000Y-104743000D01*
X164151000Y-104733000D01*
X164175000Y-104724000D01*
X164201000Y-104717000D01*
X164226000Y-104711000D01*
X164252000Y-104706000D01*
X164278000Y-104703000D01*
X164304000Y-104701000D01*
X164330000Y-104700000D01*
X164356000Y-104701000D01*
G04 #@! TA.AperFunction,EtchedComponent*
G36*
X164356000Y-104701000D02*
G01*
X164382000Y-104703000D01*
X164408000Y-104706000D01*
X164434000Y-104711000D01*
X164459000Y-104717000D01*
X164485000Y-104724000D01*
X164509000Y-104733000D01*
X164533000Y-104743000D01*
X164557000Y-104754000D01*
X164580000Y-104767000D01*
X164602000Y-104781000D01*
X164624000Y-104795000D01*
X164645000Y-104811000D01*
X164665000Y-104828000D01*
X164684000Y-104846000D01*
X164702000Y-104865000D01*
X164719000Y-104885000D01*
X164735000Y-104906000D01*
X164749000Y-104928000D01*
X164763000Y-104950000D01*
X164776000Y-104973000D01*
X164787000Y-104997000D01*
X164797000Y-105021000D01*
X164806000Y-105045000D01*
X164813000Y-105071000D01*
X164819000Y-105096000D01*
X164824000Y-105122000D01*
X164827000Y-105148000D01*
X164829000Y-105174000D01*
X164830000Y-105200000D01*
X164830000Y-106000000D01*
X164829000Y-106026000D01*
X164827000Y-106052000D01*
X164824000Y-106078000D01*
X164819000Y-106104000D01*
X164813000Y-106129000D01*
X164806000Y-106155000D01*
X164797000Y-106179000D01*
X164787000Y-106203000D01*
X164776000Y-106227000D01*
X164763000Y-106250000D01*
X164749000Y-106272000D01*
X164735000Y-106294000D01*
X164719000Y-106315000D01*
X164702000Y-106335000D01*
X164684000Y-106354000D01*
X164665000Y-106372000D01*
X164645000Y-106389000D01*
X164624000Y-106405000D01*
X164602000Y-106419000D01*
X164580000Y-106433000D01*
X164557000Y-106446000D01*
X164533000Y-106457000D01*
X164509000Y-106467000D01*
X164485000Y-106476000D01*
X164459000Y-106483000D01*
X164434000Y-106489000D01*
X164408000Y-106494000D01*
X164382000Y-106497000D01*
X164356000Y-106499000D01*
X164330000Y-106500000D01*
X164304000Y-106499000D01*
X164278000Y-106497000D01*
X164252000Y-106494000D01*
X164226000Y-106489000D01*
X164201000Y-106483000D01*
X164175000Y-106476000D01*
X164151000Y-106467000D01*
X164127000Y-106457000D01*
X164103000Y-106446000D01*
X164080000Y-106433000D01*
X164058000Y-106419000D01*
X164036000Y-106405000D01*
X164015000Y-106389000D01*
X163995000Y-106372000D01*
X163976000Y-106354000D01*
X163958000Y-106335000D01*
X163941000Y-106315000D01*
X163925000Y-106294000D01*
X163911000Y-106272000D01*
X163897000Y-106250000D01*
X163884000Y-106227000D01*
X163873000Y-106203000D01*
X163863000Y-106179000D01*
X163854000Y-106155000D01*
X163847000Y-106129000D01*
X163841000Y-106104000D01*
X163836000Y-106078000D01*
X163833000Y-106052000D01*
X163831000Y-106026000D01*
X163830000Y-106000000D01*
X163830000Y-105200000D01*
X163831000Y-105174000D01*
X163833000Y-105148000D01*
X163836000Y-105122000D01*
X163841000Y-105096000D01*
X163847000Y-105071000D01*
X163854000Y-105045000D01*
X163863000Y-105021000D01*
X163873000Y-104997000D01*
X163884000Y-104973000D01*
X163897000Y-104950000D01*
X163911000Y-104928000D01*
X163925000Y-104906000D01*
X163941000Y-104885000D01*
X163958000Y-104865000D01*
X163976000Y-104846000D01*
X163995000Y-104828000D01*
X164015000Y-104811000D01*
X164036000Y-104795000D01*
X164058000Y-104781000D01*
X164080000Y-104767000D01*
X164103000Y-104754000D01*
X164127000Y-104743000D01*
X164151000Y-104733000D01*
X164175000Y-104724000D01*
X164201000Y-104717000D01*
X164226000Y-104711000D01*
X164252000Y-104706000D01*
X164278000Y-104703000D01*
X164304000Y-104701000D01*
X164330000Y-104700000D01*
X164356000Y-104701000D01*
G37*
G04 #@! TD.AperFunction*
X164356000Y-100501000D02*
X164382000Y-100503000D01*
X164408000Y-100506000D01*
X164434000Y-100511000D01*
X164459000Y-100517000D01*
X164485000Y-100524000D01*
X164509000Y-100533000D01*
X164533000Y-100543000D01*
X164557000Y-100554000D01*
X164580000Y-100567000D01*
X164602000Y-100581000D01*
X164624000Y-100595000D01*
X164645000Y-100611000D01*
X164665000Y-100628000D01*
X164684000Y-100646000D01*
X164702000Y-100665000D01*
X164719000Y-100685000D01*
X164735000Y-100706000D01*
X164749000Y-100728000D01*
X164763000Y-100750000D01*
X164776000Y-100773000D01*
X164787000Y-100797000D01*
X164797000Y-100821000D01*
X164806000Y-100845000D01*
X164813000Y-100871000D01*
X164819000Y-100896000D01*
X164824000Y-100922000D01*
X164827000Y-100948000D01*
X164829000Y-100974000D01*
X164830000Y-101000000D01*
X164830000Y-102200000D01*
X164829000Y-102226000D01*
X164827000Y-102252000D01*
X164824000Y-102278000D01*
X164819000Y-102304000D01*
X164813000Y-102329000D01*
X164806000Y-102355000D01*
X164797000Y-102379000D01*
X164787000Y-102403000D01*
X164776000Y-102427000D01*
X164763000Y-102450000D01*
X164749000Y-102472000D01*
X164735000Y-102494000D01*
X164719000Y-102515000D01*
X164702000Y-102535000D01*
X164684000Y-102554000D01*
X164665000Y-102572000D01*
X164645000Y-102589000D01*
X164624000Y-102605000D01*
X164602000Y-102619000D01*
X164580000Y-102633000D01*
X164557000Y-102646000D01*
X164533000Y-102657000D01*
X164509000Y-102667000D01*
X164485000Y-102676000D01*
X164459000Y-102683000D01*
X164434000Y-102689000D01*
X164408000Y-102694000D01*
X164382000Y-102697000D01*
X164356000Y-102699000D01*
X164330000Y-102700000D01*
X164304000Y-102699000D01*
X164278000Y-102697000D01*
X164252000Y-102694000D01*
X164226000Y-102689000D01*
X164201000Y-102683000D01*
X164175000Y-102676000D01*
X164151000Y-102667000D01*
X164127000Y-102657000D01*
X164103000Y-102646000D01*
X164080000Y-102633000D01*
X164058000Y-102619000D01*
X164036000Y-102605000D01*
X164015000Y-102589000D01*
X163995000Y-102572000D01*
X163976000Y-102554000D01*
X163958000Y-102535000D01*
X163941000Y-102515000D01*
X163925000Y-102494000D01*
X163911000Y-102472000D01*
X163897000Y-102450000D01*
X163884000Y-102427000D01*
X163873000Y-102403000D01*
X163863000Y-102379000D01*
X163854000Y-102355000D01*
X163847000Y-102329000D01*
X163841000Y-102304000D01*
X163836000Y-102278000D01*
X163833000Y-102252000D01*
X163831000Y-102226000D01*
X163830000Y-102200000D01*
X163830000Y-101000000D01*
X163831000Y-100974000D01*
X163833000Y-100948000D01*
X163836000Y-100922000D01*
X163841000Y-100896000D01*
X163847000Y-100871000D01*
X163854000Y-100845000D01*
X163863000Y-100821000D01*
X163873000Y-100797000D01*
X163884000Y-100773000D01*
X163897000Y-100750000D01*
X163911000Y-100728000D01*
X163925000Y-100706000D01*
X163941000Y-100685000D01*
X163958000Y-100665000D01*
X163976000Y-100646000D01*
X163995000Y-100628000D01*
X164015000Y-100611000D01*
X164036000Y-100595000D01*
X164058000Y-100581000D01*
X164080000Y-100567000D01*
X164103000Y-100554000D01*
X164127000Y-100543000D01*
X164151000Y-100533000D01*
X164175000Y-100524000D01*
X164201000Y-100517000D01*
X164226000Y-100511000D01*
X164252000Y-100506000D01*
X164278000Y-100503000D01*
X164304000Y-100501000D01*
X164330000Y-100500000D01*
X164356000Y-100501000D01*
G04 #@! TA.AperFunction,EtchedComponent*
G36*
X164356000Y-100501000D02*
G01*
X164382000Y-100503000D01*
X164408000Y-100506000D01*
X164434000Y-100511000D01*
X164459000Y-100517000D01*
X164485000Y-100524000D01*
X164509000Y-100533000D01*
X164533000Y-100543000D01*
X164557000Y-100554000D01*
X164580000Y-100567000D01*
X164602000Y-100581000D01*
X164624000Y-100595000D01*
X164645000Y-100611000D01*
X164665000Y-100628000D01*
X164684000Y-100646000D01*
X164702000Y-100665000D01*
X164719000Y-100685000D01*
X164735000Y-100706000D01*
X164749000Y-100728000D01*
X164763000Y-100750000D01*
X164776000Y-100773000D01*
X164787000Y-100797000D01*
X164797000Y-100821000D01*
X164806000Y-100845000D01*
X164813000Y-100871000D01*
X164819000Y-100896000D01*
X164824000Y-100922000D01*
X164827000Y-100948000D01*
X164829000Y-100974000D01*
X164830000Y-101000000D01*
X164830000Y-102200000D01*
X164829000Y-102226000D01*
X164827000Y-102252000D01*
X164824000Y-102278000D01*
X164819000Y-102304000D01*
X164813000Y-102329000D01*
X164806000Y-102355000D01*
X164797000Y-102379000D01*
X164787000Y-102403000D01*
X164776000Y-102427000D01*
X164763000Y-102450000D01*
X164749000Y-102472000D01*
X164735000Y-102494000D01*
X164719000Y-102515000D01*
X164702000Y-102535000D01*
X164684000Y-102554000D01*
X164665000Y-102572000D01*
X164645000Y-102589000D01*
X164624000Y-102605000D01*
X164602000Y-102619000D01*
X164580000Y-102633000D01*
X164557000Y-102646000D01*
X164533000Y-102657000D01*
X164509000Y-102667000D01*
X164485000Y-102676000D01*
X164459000Y-102683000D01*
X164434000Y-102689000D01*
X164408000Y-102694000D01*
X164382000Y-102697000D01*
X164356000Y-102699000D01*
X164330000Y-102700000D01*
X164304000Y-102699000D01*
X164278000Y-102697000D01*
X164252000Y-102694000D01*
X164226000Y-102689000D01*
X164201000Y-102683000D01*
X164175000Y-102676000D01*
X164151000Y-102667000D01*
X164127000Y-102657000D01*
X164103000Y-102646000D01*
X164080000Y-102633000D01*
X164058000Y-102619000D01*
X164036000Y-102605000D01*
X164015000Y-102589000D01*
X163995000Y-102572000D01*
X163976000Y-102554000D01*
X163958000Y-102535000D01*
X163941000Y-102515000D01*
X163925000Y-102494000D01*
X163911000Y-102472000D01*
X163897000Y-102450000D01*
X163884000Y-102427000D01*
X163873000Y-102403000D01*
X163863000Y-102379000D01*
X163854000Y-102355000D01*
X163847000Y-102329000D01*
X163841000Y-102304000D01*
X163836000Y-102278000D01*
X163833000Y-102252000D01*
X163831000Y-102226000D01*
X163830000Y-102200000D01*
X163830000Y-101000000D01*
X163831000Y-100974000D01*
X163833000Y-100948000D01*
X163836000Y-100922000D01*
X163841000Y-100896000D01*
X163847000Y-100871000D01*
X163854000Y-100845000D01*
X163863000Y-100821000D01*
X163873000Y-100797000D01*
X163884000Y-100773000D01*
X163897000Y-100750000D01*
X163911000Y-100728000D01*
X163925000Y-100706000D01*
X163941000Y-100685000D01*
X163958000Y-100665000D01*
X163976000Y-100646000D01*
X163995000Y-100628000D01*
X164015000Y-100611000D01*
X164036000Y-100595000D01*
X164058000Y-100581000D01*
X164080000Y-100567000D01*
X164103000Y-100554000D01*
X164127000Y-100543000D01*
X164151000Y-100533000D01*
X164175000Y-100524000D01*
X164201000Y-100517000D01*
X164226000Y-100511000D01*
X164252000Y-100506000D01*
X164278000Y-100503000D01*
X164304000Y-100501000D01*
X164330000Y-100500000D01*
X164356000Y-100501000D01*
G37*
G04 #@! TD.AperFunction*
D11*
X183837400Y-123259999D03*
X183837400Y-122760000D03*
X183837400Y-122260001D03*
D12*
X184043699Y-121549700D03*
X184543700Y-121549700D03*
X185043700Y-121549700D03*
X185543701Y-121549700D03*
D11*
X185750000Y-122260001D03*
X185750000Y-122760000D03*
X185750000Y-123259999D03*
D12*
X185543701Y-123970300D03*
X185043700Y-123970300D03*
X184543700Y-123970300D03*
X184043699Y-123970300D03*
D13*
X186270000Y-125760000D03*
X186270000Y-127660000D03*
X183995000Y-127660000D03*
X183995000Y-126710000D03*
X183995000Y-125760000D03*
D14*
X175713745Y-124698440D03*
X176491561Y-125476256D03*
X175466257Y-126501561D03*
X174688440Y-125723744D03*
D15*
X161160000Y-119280000D03*
X161160000Y-116580000D03*
D16*
X170000000Y-120000000D03*
D17*
X166800000Y-116112500D03*
X167200000Y-116112500D03*
X167600000Y-116112500D03*
X168000000Y-116112500D03*
X168400000Y-116112500D03*
X168800000Y-116112500D03*
X169200000Y-116112500D03*
X169600000Y-116112500D03*
X170000000Y-116112500D03*
X170400000Y-116112500D03*
X170800000Y-116112500D03*
X171200000Y-116112500D03*
X171600000Y-116112500D03*
X172000000Y-116112500D03*
X172400000Y-116112500D03*
X172800000Y-116112500D03*
X173200000Y-116112500D03*
D18*
X173887500Y-116800000D03*
X173887500Y-117200000D03*
X173887500Y-117600000D03*
X173887500Y-118000000D03*
X173887500Y-118400000D03*
X173887500Y-118800000D03*
X173887500Y-119200000D03*
X173887500Y-119600000D03*
X173887500Y-120000000D03*
X173887500Y-120400000D03*
X173887500Y-120800000D03*
X173887500Y-121200000D03*
X173887500Y-121600000D03*
X173887500Y-122000000D03*
X173887500Y-122400000D03*
X173887500Y-122800000D03*
X173887500Y-123200000D03*
D17*
X173200000Y-123887500D03*
X172800000Y-123887500D03*
X172400000Y-123887500D03*
X172000000Y-123887500D03*
X171600000Y-123887500D03*
X171200000Y-123887500D03*
X170800000Y-123887500D03*
X170400000Y-123887500D03*
X170000000Y-123887500D03*
X169600000Y-123887500D03*
X169200000Y-123887500D03*
X168800000Y-123887500D03*
X168400000Y-123887500D03*
X168000000Y-123887500D03*
X167600000Y-123887500D03*
X167200000Y-123887500D03*
X166800000Y-123887500D03*
D18*
X166112500Y-123200000D03*
X166112500Y-122800000D03*
X166112500Y-122400000D03*
X166112500Y-122000000D03*
X166112500Y-121600000D03*
X166112500Y-121200000D03*
X166112500Y-120800000D03*
X166112500Y-120400000D03*
X166112500Y-120000000D03*
X166112500Y-119600000D03*
X166112500Y-119200000D03*
X166112500Y-118800000D03*
X166112500Y-118400000D03*
X166112500Y-118000000D03*
X166112500Y-117600000D03*
X166112500Y-117200000D03*
X166112500Y-116800000D03*
D19*
X152381400Y-108790000D03*
X152381400Y-110060000D03*
X152381400Y-111330000D03*
X152381400Y-112600000D03*
X160230000Y-112600000D03*
X160230000Y-111330000D03*
X160230000Y-110060000D03*
X160230000Y-108790000D03*
D20*
X156305700Y-110695000D03*
D21*
X181648350Y-112485000D03*
X181648350Y-113755000D03*
X181648350Y-115025000D03*
X181648350Y-116295000D03*
X187096650Y-116295000D03*
X187096650Y-115025000D03*
X187096650Y-113755000D03*
X187096650Y-112485000D03*
D13*
X186280000Y-133190000D03*
X186280000Y-135090000D03*
X184005000Y-135090000D03*
X184005000Y-134140000D03*
X184005000Y-133190000D03*
D22*
X184332500Y-108150000D03*
D23*
X185317500Y-107350000D03*
X185317500Y-107750000D03*
X185317500Y-108150000D03*
X185317500Y-108550000D03*
X185317500Y-108950000D03*
X183347500Y-108950000D03*
X183347500Y-108550000D03*
X183347500Y-108150000D03*
X183347500Y-107750000D03*
X183347500Y-107350000D03*
D24*
X178270000Y-110242500D03*
X178270000Y-111437500D03*
X188090000Y-109152500D03*
X188090000Y-110347500D03*
X153665000Y-134467500D03*
X153665000Y-133272500D03*
X153695000Y-135702500D03*
X153695000Y-136897500D03*
X153695000Y-130842500D03*
X153695000Y-132037500D03*
X153715000Y-125992500D03*
X153715000Y-127187500D03*
D25*
X156000000Y-136360500D03*
D26*
X156000000Y-137190000D03*
X156000000Y-137690000D03*
D25*
X156000000Y-138519500D03*
X157270000Y-138519500D03*
D26*
X157270000Y-137690000D03*
X157270000Y-137190000D03*
D25*
X157270000Y-136360500D03*
X156000000Y-131240500D03*
D26*
X156000000Y-132070000D03*
X156000000Y-132570000D03*
D25*
X156000000Y-133399500D03*
X157270000Y-133399500D03*
D26*
X157270000Y-132570000D03*
X157270000Y-132070000D03*
D25*
X157270000Y-131240500D03*
X156000000Y-125910500D03*
D26*
X156000000Y-126740000D03*
X156000000Y-127240000D03*
D25*
X156000000Y-128069500D03*
X157270000Y-128069500D03*
D26*
X157270000Y-127240000D03*
X157270000Y-126740000D03*
D25*
X157270000Y-125910500D03*
X156005000Y-120691000D03*
D26*
X156005000Y-121520500D03*
X156005000Y-122020500D03*
D25*
X156005000Y-122850000D03*
X157275000Y-122850000D03*
D26*
X157275000Y-122020500D03*
X157275000Y-121520500D03*
D25*
X157275000Y-120691000D03*
D24*
X182460000Y-121542500D03*
X182460000Y-122737500D03*
X180950000Y-121542500D03*
X180950000Y-122737500D03*
X161180000Y-122077500D03*
X161180000Y-120882500D03*
D27*
X183060000Y-105000000D03*
X181865000Y-105000000D03*
X187050000Y-105000000D03*
X185855000Y-105000000D03*
D28*
X179802500Y-126115000D03*
X179802500Y-127310000D03*
D24*
X183852500Y-130400000D03*
X183852500Y-129205000D03*
X159990000Y-122077500D03*
X159990000Y-120882500D03*
D29*
X177350000Y-121425000D03*
X177350000Y-119375000D03*
D30*
X178732500Y-117127500D03*
X178732500Y-114152500D03*
D31*
X178679989Y-135330352D03*
X161380011Y-135330352D03*
D32*
X175530012Y-132980351D03*
X174530011Y-132980351D03*
X173530011Y-132980351D03*
X172530010Y-132980351D03*
X171530010Y-132980351D03*
X170530012Y-132980351D03*
X169530011Y-132980351D03*
X168530011Y-132980351D03*
X167530010Y-132980351D03*
X166530012Y-132980351D03*
X165530012Y-132980351D03*
X164530011Y-132980351D03*
D33*
X165150000Y-112745000D03*
X165150000Y-111475000D03*
X166420000Y-112745000D03*
X166420000Y-111475000D03*
X167690000Y-112745000D03*
X167690000Y-111475000D03*
D34*
X183040000Y-118520000D03*
X185840000Y-118520000D03*
D35*
X181592500Y-102400000D03*
X183342500Y-102400000D03*
X185602500Y-102400000D03*
X187352500Y-102400000D03*
D36*
X178447500Y-122770000D03*
X177312500Y-122770000D03*
D37*
X159240000Y-117327500D03*
X159240000Y-116192500D03*
D38*
X159240000Y-118462500D03*
X159240000Y-119597500D03*
X182152500Y-126145000D03*
X182152500Y-127280000D03*
X181032500Y-128555000D03*
X181032500Y-129690000D03*
D37*
X187252500Y-130370000D03*
X187252500Y-129235000D03*
D39*
X164330000Y-101600000D03*
D40*
X175570000Y-105600000D03*
X164330000Y-105600000D03*
D39*
X175570000Y-101600000D03*
D41*
X171700000Y-106750000D03*
X170700000Y-106750000D03*
X169200000Y-106750000D03*
X168200000Y-106750000D03*
D42*
X167550000Y-106750000D03*
X166750000Y-106750000D03*
D41*
X168700000Y-106750000D03*
X169700000Y-106750000D03*
X170200000Y-106750000D03*
X171200000Y-106750000D03*
D42*
X172350000Y-106750000D03*
X173150000Y-106750000D03*
D43*
X178690000Y-135310000D03*
X171530000Y-135800000D03*
X166410000Y-136510000D03*
X163640000Y-134310000D03*
X153700000Y-129970000D03*
X152510000Y-135290000D03*
X152510000Y-133050000D03*
X165820000Y-109300000D03*
X165055000Y-114115000D03*
X151190000Y-108790000D03*
X162650000Y-126200000D03*
X161600000Y-111290000D03*
X166740000Y-114970000D03*
X164910000Y-116410000D03*
X151180000Y-111350000D03*
X161470000Y-123630000D03*
X168480000Y-125350000D03*
X169010000Y-124980000D03*
X170480000Y-125970000D03*
X172120000Y-126500000D03*
X161590000Y-112600000D03*
X163170000Y-118900000D03*
X163282407Y-119506319D03*
X151190000Y-110080000D03*
X168810000Y-126550000D03*
X166980000Y-135230000D03*
X166180000Y-125570000D03*
X166760000Y-130650000D03*
X165390000Y-129950000D03*
X164420000Y-126010000D03*
X159620000Y-133360000D03*
X165230000Y-125390000D03*
X158780000Y-121150000D03*
X162320000Y-121560000D03*
X164530000Y-128160000D03*
X164100000Y-123380000D03*
X167700000Y-126590000D03*
X163770000Y-135670000D03*
X164530000Y-131210000D03*
X159920000Y-124760000D03*
X166400000Y-137880000D03*
X158380000Y-136360000D03*
X154885000Y-121370000D03*
X155035000Y-122400000D03*
X155205000Y-126760000D03*
X156005000Y-130330000D03*
X155975000Y-134350000D03*
X154955000Y-137700000D03*
X170350000Y-119980000D03*
X163212917Y-120282917D03*
X169210000Y-109600000D03*
D44*
X157540000Y-111800000D03*
X155040000Y-111770000D03*
X156320000Y-110740000D03*
X157380000Y-109770000D03*
X155040000Y-109750000D03*
X161380000Y-108790000D03*
X171460000Y-114080000D03*
X165800000Y-115760000D03*
X164910000Y-121800000D03*
X172200000Y-125300000D03*
X175170000Y-119370000D03*
X186830000Y-123350000D03*
X183530000Y-120180000D03*
X188840000Y-112310000D03*
X187450000Y-117690000D03*
X188210000Y-118620000D03*
D45*
X161200000Y-122880000D03*
X159990000Y-122880000D03*
X157310000Y-105070000D03*
X158680000Y-103850000D03*
X155980000Y-103920000D03*
X157290000Y-102580000D03*
X157350000Y-103950000D03*
X188090000Y-103710000D03*
X165150000Y-110200000D03*
X158280000Y-117860000D03*
X179290000Y-122800000D03*
X175920000Y-118960000D03*
X181860000Y-122720000D03*
X176380000Y-127160000D03*
X174480000Y-124030000D03*
X186720000Y-122260000D03*
X184540000Y-124830000D03*
X182842500Y-126702500D03*
X187712500Y-125802500D03*
X182762500Y-135302500D03*
X182862500Y-134132500D03*
X169175000Y-108120000D03*
X169725000Y-108120000D03*
X170160000Y-109590000D03*
X170740000Y-109270000D03*
D46*
X177250000Y-109470000D03*
X167120000Y-109670000D03*
X182310000Y-106180000D03*
X180810000Y-108790000D03*
X171500000Y-109210000D03*
X174070000Y-108320000D03*
X166020000Y-108300000D03*
X168260000Y-109240000D03*
X186697500Y-109010000D03*
X181977500Y-108990000D03*
X181747500Y-108000000D03*
X181852500Y-111450000D03*
X178322500Y-112810000D03*
X185352500Y-116370000D03*
X186682500Y-111420000D03*
D47*
X170250000Y-110461422D02*
G75*
G03*
X170661133Y-111453965I1403700J22D01*
G01*
X170250000Y-109780000D02*
X170250000Y-109780000D01*
X170200000Y-107539645D02*
G75*
G03*
X170225014Y-107599987I85400J45D01*
G01*
X170250000Y-109445000D02*
G75*
G02*
X170211113Y-109538894I-132800J0D01*
G01*
X169225000Y-107600001D02*
G75*
G02*
X169250018Y-107660356I-60400J-60399D01*
G01*
X171909167Y-112702011D02*
G75*
G02*
X172800018Y-114852672I-2150667J-2150689D01*
G01*
X170250000Y-109445000D02*
X170250000Y-109445000D01*
X170205000Y-109635000D02*
G75*
G02*
X170249984Y-109743639I-108600J-108600D01*
G01*
X169200000Y-107539645D02*
G75*
G03*
X169225014Y-107599987I85400J45D01*
G01*
X169250000Y-107991966D02*
G75*
G02*
X169212510Y-108082510I-128000J-34D01*
G01*
X170225000Y-107600001D02*
G75*
G02*
X170250018Y-107660356I-60400J-60399D01*
G01*
X170250000Y-109980000D02*
X170250000Y-109780000D01*
X170250000Y-109780000D02*
X170250000Y-109980000D01*
X170250000Y-109445000D02*
X170250000Y-109335000D01*
X170250000Y-109335000D02*
X170250000Y-109445000D01*
X169700000Y-107539645D02*
G75*
G02*
X169674986Y-107599987I-85400J45D01*
G01*
X170695000Y-109315000D02*
G75*
G03*
X170650016Y-109423639I108600J-108600D01*
G01*
X170650000Y-109296360D02*
G75*
G03*
X170695068Y-109315068I26400J-40D01*
G01*
X169675000Y-107600001D02*
G75*
G03*
X169649982Y-107660356I60400J-60399D01*
G01*
X170650000Y-110118578D02*
G75*
G03*
X171186378Y-111413568I1831400J-22D01*
G01*
X170700000Y-107539645D02*
G75*
G02*
X170674986Y-107599987I-85400J45D01*
G01*
X169650000Y-107991966D02*
G75*
G03*
X169687490Y-108082510I128000J-34D01*
G01*
X172250587Y-112477743D02*
G75*
G02*
X173199979Y-114769828I-2292087J-2292057D01*
G01*
X170675000Y-107600001D02*
G75*
G03*
X170649982Y-107660356I60400J-60399D01*
G01*
X170650000Y-109115000D02*
X170650000Y-109115000D01*
X170650000Y-109116360D02*
G75*
G03*
X170694988Y-109225012I153600J-40D01*
G01*
X170650000Y-109423639D02*
X170650000Y-109296360D01*
X170650000Y-109115000D02*
X170650000Y-108985000D01*
X170650000Y-108985000D02*
X170650000Y-109115000D01*
X170800000Y-125423725D02*
G75*
G02*
X170639992Y-125809992I-546300J25D01*
G01*
X161580000Y-111310000D02*
G75*
G02*
X161531715Y-111330007I-48300J48300D01*
G01*
X171200000Y-124929461D02*
G75*
G03*
X171659989Y-126040011I1570500J-39D01*
G01*
X152371400Y-110070000D02*
G75*
G02*
X152347257Y-110079983I-24100J24100D01*
G01*
X163340710Y-118800000D02*
G75*
G03*
X163219997Y-118849997I-10J-170700D01*
G01*
X161970000Y-110450000D02*
G75*
G03*
X161028456Y-110060018I-941500J-941500D01*
G01*
X161970000Y-110450000D02*
G75*
G02*
X162359982Y-111391543I-941500J-941500D01*
G01*
X162360000Y-112225000D02*
G75*
G03*
X163339339Y-114589345I3343700J0D01*
G01*
X168000000Y-124530588D02*
G75*
G03*
X168239997Y-125110003I819400J-12D01*
G01*
X164821611Y-116071611D02*
G75*
G02*
X164909993Y-116285000I-213411J-213389D01*
G01*
X163805326Y-119200000D02*
G75*
G03*
X163435557Y-119353150I-26J-522900D01*
G01*
X152371400Y-111340000D02*
G75*
G02*
X152347257Y-111349983I-24100J24100D01*
G01*
X168400000Y-124128750D02*
G75*
G03*
X168570570Y-124540608I582400J-50D01*
G01*
X176336040Y-123656040D02*
G75*
G03*
X175235061Y-123200022I-1100940J-1100960D01*
G01*
X176792081Y-124963236D02*
G75*
G02*
X176641795Y-125325970I-512981J36D01*
G01*
X176416022Y-123736022D02*
G75*
G02*
X176792064Y-124643908I-907922J-907878D01*
G01*
X173200000Y-124061402D02*
G75*
G03*
X173322976Y-124358262I419800J2D01*
G01*
X163770000Y-135830181D02*
G75*
G02*
X163656742Y-136103635I-386700J-19D01*
G01*
X167200000Y-125736446D02*
G75*
G03*
X167449984Y-126340016I853500J-54D01*
G01*
X162920181Y-136840181D02*
G75*
G02*
X160868536Y-137690015I-2051681J2051681D01*
G01*
X153695000Y-137076249D02*
G75*
G03*
X153821377Y-137381410I431500J-51D01*
G01*
X154591629Y-138151628D02*
G75*
G03*
X155479750Y-138519533I888171J888128D01*
G01*
X155995000Y-137195000D02*
G75*
G02*
X155982928Y-137200012I-12100J12100D01*
G01*
X153821394Y-137023894D02*
G75*
G03*
X153694966Y-137076249I-52394J-52306D01*
G01*
X153846250Y-137048750D02*
G75*
G03*
X154211399Y-137200000I365150J365150D01*
G01*
X155095000Y-132620000D02*
G75*
G03*
X155045004Y-132740710I120700J-120700D01*
G01*
X155215710Y-132570000D02*
G75*
G03*
X155094997Y-132619997I-10J-170700D01*
G01*
X155045000Y-132878750D02*
G75*
G02*
X154897373Y-133235090I-504000J50D01*
G01*
X153821270Y-134311229D02*
G75*
G03*
X153886000Y-134467571I64730J-64771D01*
G01*
X154263270Y-134623770D02*
G75*
G03*
X153886000Y-134467488I-377270J-377230D01*
G01*
X166112500Y-123883478D02*
G75*
G02*
X165671256Y-124948756I-1506500J-22D01*
G01*
X159600250Y-133379750D02*
G75*
G02*
X159552569Y-133399487I-47650J47650D01*
G01*
X165596250Y-122400000D02*
G75*
G03*
X164714939Y-122765026I-50J-1246300D01*
G01*
X164484750Y-128114750D02*
G75*
G03*
X164375506Y-128069497I-109250J-109250D01*
G01*
X155362350Y-132053750D02*
G75*
G03*
X155323119Y-132037492I-39250J-39250D01*
G01*
X154815000Y-130363750D02*
G75*
G02*
X154423421Y-131309042I-1336900J50D01*
G01*
X156000000Y-128347250D02*
G75*
G02*
X155803566Y-128821364I-670500J50D01*
G01*
X155362350Y-132053750D02*
G75*
G03*
X155401580Y-132070008I39250J39250D01*
G01*
X155206560Y-129418439D02*
G75*
G03*
X154815043Y-130363750I945340J-945261D01*
G01*
X153781249Y-127121249D02*
G75*
G03*
X153781249Y-127253751I66251J-66251D01*
G01*
X155488268Y-127240000D02*
G75*
G03*
X155391709Y-127280009I32J-136600D01*
G01*
X155391700Y-127280000D02*
G75*
G02*
X155295131Y-127320013I-96600J96600D01*
G01*
X153781250Y-127253750D02*
G75*
G03*
X153941191Y-127320003I159950J159950D01*
G01*
X155496000Y-125910500D02*
G75*
G03*
X154635611Y-126266874I0J-1216800D01*
G01*
X165323407Y-120800000D02*
G75*
G03*
X163976346Y-121357978I-7J-1905000D01*
G01*
X163766188Y-121568125D02*
G75*
G03*
X163049963Y-123297157I1729012J-1729075D01*
G01*
X157270853Y-125910000D02*
G75*
G03*
X157270233Y-125910233I-53J-800D01*
G01*
X157270250Y-125910250D02*
G75*
G03*
X157270024Y-125910851I550J-550D01*
G01*
X163050000Y-123297157D02*
G75*
G02*
X162333829Y-125026206I-2445200J-43D01*
G01*
X162250000Y-125110000D02*
G75*
G02*
X160318629Y-125910012I-1931400J1931400D01*
G01*
X165157721Y-120000000D02*
G75*
G03*
X163527809Y-120675128I-21J-2305000D01*
G01*
X157504500Y-120920500D02*
G75*
G03*
X158058562Y-121150016I554100J554100D01*
G01*
X162757119Y-121445822D02*
G75*
G02*
X162481471Y-121559986I-275619J275622D01*
G01*
X175541005Y-118861005D02*
G75*
G03*
X175780000Y-118959997I238995J239005D01*
G01*
X175360000Y-118680000D02*
G75*
G03*
X174684020Y-118399992I-676000J-676000D01*
G01*
D48*
X182471250Y-122748750D02*
G75*
G03*
X182444090Y-122737504I-27150J-27150D01*
G01*
X181868750Y-122728750D02*
G75*
G03*
X181889874Y-122737511I21150J21150D01*
G01*
X182471250Y-122748750D02*
G75*
G03*
X182498409Y-122759996I27150J27150D01*
G01*
D47*
X179140000Y-118960000D02*
G75*
G02*
X179800008Y-120553380I-1593400J-1593400D01*
G01*
X180594692Y-122644692D02*
G75*
G03*
X180818750Y-122737525I224108J224092D01*
G01*
X179140000Y-118960000D02*
G75*
G03*
X177546619Y-118299992I-1593400J-1593400D01*
G01*
D48*
X180950000Y-122943750D02*
G75*
G03*
X181095822Y-123295858I497900J-50D01*
G01*
D47*
X175590000Y-118150000D02*
G75*
G03*
X175227867Y-118000013I-362100J-362100D01*
G01*
X179800000Y-121222442D02*
G75*
G03*
X180243763Y-122293737I1515100J42D01*
G01*
X175590000Y-118150000D02*
G75*
G03*
X175952132Y-118299987I362100J362100D01*
G01*
D48*
X183732399Y-123364999D02*
G75*
G02*
X183478905Y-123470002I-253499J253499D01*
G01*
X180950000Y-122868750D02*
G75*
G03*
X180818750Y-122737500I-131300J-50D01*
G01*
X181110000Y-123310000D02*
G75*
G03*
X181496274Y-123470011I386300J386300D01*
G01*
D47*
X182937500Y-109360000D02*
G75*
G02*
X181947672Y-109769989I-989800J989800D01*
G01*
X180896250Y-108876250D02*
G75*
G02*
X180982510Y-109084475I-208250J-208250D01*
G01*
X180982500Y-109366250D02*
G75*
G03*
X181386250Y-109770000I403700J-50D01*
G01*
X182567175Y-106112824D02*
G75*
G02*
X182405000Y-106179985I-162175J162224D01*
G01*
X183060000Y-105310000D02*
G75*
G02*
X182840795Y-105839202I-748400J0D01*
G01*
X186373271Y-107874228D02*
G75*
G02*
X185707500Y-108150012I-665771J665728D01*
G01*
X187050000Y-106523980D02*
G75*
G02*
X186573756Y-107673756I-1626000J-20D01*
G01*
X182728626Y-108550000D02*
G75*
G03*
X182197492Y-108769992I-26J-751100D01*
G01*
X182174276Y-107750000D02*
G75*
G03*
X181872507Y-107875007I24J-426800D01*
G01*
X163096776Y-118400000D02*
G75*
G03*
X162795007Y-118525007I24J-426800D01*
G01*
X161968444Y-120676555D02*
G75*
G02*
X161471250Y-120882546I-497244J497155D01*
G01*
X162670000Y-119333300D02*
G75*
G02*
X162216250Y-120428750I-1549200J0D01*
G01*
X162795000Y-118525000D02*
G75*
G03*
X162669990Y-118826776I301800J-301800D01*
G01*
X177037500Y-119687500D02*
G75*
G02*
X176283058Y-119999953I-754400J754500D01*
G01*
D49*
X177934995Y-110154995D02*
G75*
G03*
X178146250Y-110242453I211205J211295D01*
G01*
X181125132Y-107200000D02*
G75*
G03*
X178384991Y-108334991I-32J-3875100D01*
G01*
X167335000Y-108015000D02*
G75*
G03*
X167119952Y-108534055I519000J-519100D01*
G01*
X172350000Y-107520000D02*
G75*
G03*
X172894481Y-108834463I1858900J0D01*
G01*
X167550000Y-107495944D02*
G75*
G02*
X167334987Y-108014987I-734100J44D01*
G01*
X172940000Y-108880000D02*
G75*
G03*
X174364386Y-109470006I1424400J1424400D01*
G01*
D47*
X168200000Y-109137573D02*
G75*
G03*
X168229992Y-109210008I102400J-27D01*
G01*
X171200000Y-108697867D02*
G75*
G03*
X171349991Y-109060009I512100J-33D01*
G01*
D48*
X163784655Y-136925707D02*
G75*
G02*
X159936899Y-138519484I-3847755J3847807D01*
G01*
D47*
X167600000Y-124613750D02*
G75*
G03*
X168113516Y-125853556I1753300J-50D01*
G01*
X166530012Y-133580351D02*
X166530012Y-133580351D01*
X166530012Y-134461822D02*
G75*
G03*
X166755015Y-135004997I768188J22D01*
G01*
D48*
X166530012Y-133580351D02*
G75*
G02*
X166105719Y-134604587I-1448512J51D01*
G01*
D47*
X166800000Y-124511593D02*
G75*
G02*
X166490002Y-125260002I-1058400J-7D01*
G01*
D48*
X158379750Y-136360250D02*
G75*
G02*
X158379147Y-136360518I-650J650D01*
G01*
D47*
X167558136Y-130858476D02*
G75*
G03*
X167054830Y-130649984I-503336J-503324D01*
G01*
D48*
X168530011Y-134365170D02*
G75*
G02*
X167550804Y-136729211I-3343211J-30D01*
G01*
D47*
X168123424Y-131423764D02*
G75*
G02*
X168530034Y-132405351I-981624J-981636D01*
G01*
X163235000Y-127240000D02*
X163235000Y-127240000D01*
X163446464Y-127033535D02*
G75*
G03*
X163449991Y-127025000I-8564J8535D01*
G01*
X163453535Y-127033535D02*
G75*
G03*
X163446465Y-127033535I-3535J-3534D01*
G01*
X163450000Y-127025000D02*
G75*
G03*
X163453529Y-127033541I12100J0D01*
G01*
D48*
X163461715Y-127240000D02*
G75*
G03*
X163469973Y-127220027I-15J11700D01*
G01*
D47*
X163470000Y-127220000D02*
G75*
G03*
X163518284Y-127240007I48300J48300D01*
G01*
D48*
X169520424Y-128770765D02*
G75*
G03*
X165824829Y-127239991I-3695624J-3695635D01*
G01*
D47*
X163450000Y-127171715D02*
G75*
G03*
X163470005Y-127219995I68300J15D01*
G01*
D48*
X172105745Y-131356086D02*
G75*
G02*
X172530050Y-132380351I-1024245J-1024314D01*
G01*
D47*
X165406250Y-121200000D02*
G75*
G03*
X164200588Y-121699377I-50J-1705000D01*
G01*
X164075000Y-121825000D02*
G75*
G03*
X163449993Y-123333883I1508900J-1508900D01*
G01*
D48*
X163575000Y-127240000D02*
G75*
G03*
X163599885Y-127179905I0J35200D01*
G01*
D47*
X163599895Y-127179895D02*
G75*
G03*
X163745000Y-127240002I145105J145095D01*
G01*
X163243535Y-127236464D02*
G75*
G02*
X163235000Y-127239991I-8535J8564D01*
G01*
X163450000Y-127025000D02*
X163450000Y-127025000D01*
D48*
X163225000Y-127240000D02*
X163235000Y-127240000D01*
X163235000Y-127240000D02*
X163225000Y-127240000D01*
X163518284Y-127240000D02*
X163461715Y-127240000D01*
X163745000Y-127240000D02*
X163575000Y-127240000D01*
D47*
X163450000Y-127025000D02*
X163450000Y-127015000D01*
X163450000Y-127015000D02*
X163450000Y-127025000D01*
X165881250Y-122800000D02*
G75*
G03*
X165486455Y-122963490I-50J-558300D01*
G01*
D48*
X169955006Y-130525006D02*
G75*
G02*
X170530011Y-131913193I-1388206J-1388194D01*
G01*
X169955006Y-130525006D02*
G75*
G03*
X168566818Y-129949989I-1388206J-1388194D01*
G01*
X164145000Y-129950000D02*
G75*
G03*
X162019652Y-130830347I0J-3005700D01*
G01*
X161840000Y-131010000D02*
G75*
G02*
X159280933Y-132070014I-2559100J2559100D01*
G01*
D47*
X165035000Y-123415000D02*
G75*
G03*
X164420017Y-124899743I1484700J-1484700D01*
G01*
X162377500Y-124002500D02*
G75*
G02*
X161719626Y-124275011I-657900J657900D01*
G01*
X163219705Y-121548921D02*
G75*
G03*
X162650009Y-122924314I1375395J-1375379D01*
G01*
D48*
X158650250Y-122270250D02*
G75*
G03*
X158047300Y-122020500I-602950J-602950D01*
G01*
D47*
X162650000Y-123344626D02*
G75*
G02*
X162377492Y-124002492I-930400J26D01*
G01*
D48*
X158900000Y-122945000D02*
G75*
G03*
X159200528Y-123670512I1026000J0D01*
G01*
D47*
X165240564Y-120400000D02*
G75*
G03*
X163752103Y-121016578I36J-2105000D01*
G01*
D48*
X158650250Y-122270250D02*
G75*
G02*
X158900000Y-122873199I-602950J-602950D01*
G01*
X159862500Y-124332500D02*
G75*
G02*
X159919993Y-124471317I-138800J-138800D01*
G01*
D47*
X159886317Y-124275000D02*
G75*
G03*
X159862470Y-124332530I-17J-33700D01*
G01*
D48*
X159747500Y-124217500D02*
G75*
G03*
X159886317Y-124274993I138800J138800D01*
G01*
X164530000Y-131210000D02*
X164530000Y-131210000D01*
X164530000Y-131210000D01*
X164530000Y-131210000D01*
X164530000Y-131210000D01*
X164530000Y-131210000D01*
X164530000Y-131210000D01*
X164530000Y-131210000D01*
X164530000Y-131210000D01*
X164530000Y-131210000D01*
X164530000Y-131210000D01*
X164530000Y-131210000D01*
X164530000Y-131210000D01*
X159862500Y-124332500D02*
X159747500Y-124217500D01*
D47*
X171312737Y-115012737D02*
G75*
G02*
X171600028Y-115706250I-693537J-693563D01*
G01*
X170775000Y-114475000D02*
G75*
G03*
X168783273Y-113650011I-1991700J-1991700D01*
G01*
X166872500Y-113197500D02*
G75*
G03*
X167964931Y-113649987I1092400J1092400D01*
G01*
X171910000Y-113420000D02*
G75*
G02*
X172400015Y-114602964I-1183000J-1183000D01*
G01*
X167782500Y-112837500D02*
G75*
G03*
X168005814Y-112929994I223300J223300D01*
G01*
X171910000Y-113420000D02*
G75*
G03*
X170727035Y-112929985I-1183000J-1183000D01*
G01*
X165880475Y-113475475D02*
G75*
G03*
X167267500Y-114049985I1387025J1387075D01*
G01*
X168440000Y-114410000D02*
G75*
G02*
X168799993Y-115279116I-869100J-869100D01*
G01*
X168440000Y-114410000D02*
G75*
G03*
X167570883Y-114050007I-869100J-869100D01*
G01*
D49*
X180153666Y-116295000D02*
G75*
G03*
X179148760Y-116711260I34J-1421200D01*
G01*
X182745366Y-117392016D02*
G75*
G02*
X183039995Y-118103325I-711266J-711284D01*
G01*
D47*
X181728750Y-102536250D02*
G75*
G02*
X181865006Y-102865186I-328950J-328950D01*
G01*
X185728750Y-102526250D02*
G75*
G02*
X185854982Y-102831044I-304750J-304750D01*
G01*
D49*
X187887590Y-102935090D02*
G75*
G02*
X188090026Y-103423750I-488690J-488710D01*
G01*
D47*
X185293957Y-101270000D02*
G75*
G03*
X183857513Y-101865013I43J-2031500D01*
G01*
X187324215Y-102291715D02*
G75*
G02*
X187352491Y-102360000I-68315J-68285D01*
G01*
X186827500Y-101795000D02*
G75*
G03*
X185560037Y-101269984I-1267500J-1267500D01*
G01*
X184327500Y-104839964D02*
G75*
G03*
X184822490Y-106035010I1690000J-36D01*
G01*
X183380940Y-102341559D02*
G75*
G03*
X183262505Y-102627500I285960J-285941D01*
G01*
X183262500Y-102627500D02*
G75*
G03*
X183380936Y-102913444I404400J0D01*
G01*
X183795000Y-103327500D02*
G75*
G02*
X184327513Y-104613068I-1285600J-1285600D01*
G01*
X185027586Y-106240086D02*
G75*
G02*
X185317508Y-106940000I-699886J-699914D01*
G01*
X187352500Y-102360000D02*
G75*
G03*
X187380777Y-102428291I96600J0D01*
G01*
X177331250Y-121406250D02*
G75*
G02*
X177331250Y-121443750I-18750J-18750D01*
G01*
X177037500Y-121112500D02*
G75*
G03*
X176283058Y-120800017I-754400J-754400D01*
G01*
D49*
X177331250Y-121443750D02*
G75*
G03*
X177312507Y-121489016I45250J-45250D01*
G01*
D47*
X161670000Y-117090000D02*
G75*
G03*
X162901248Y-117599980I1231200J1231200D01*
G01*
D49*
X160966250Y-116386250D02*
G75*
G03*
X160498496Y-116192502I-467750J-467750D01*
G01*
X160966250Y-116386250D02*
X161353750Y-116773750D01*
D47*
X163345096Y-118000000D02*
G75*
G03*
X161800001Y-118640001I4J-2185100D01*
G01*
D49*
X161001250Y-119438750D02*
G75*
G02*
X160617993Y-119597497I-383250J383250D01*
G01*
D47*
X161318750Y-119121250D02*
X161001250Y-119438750D01*
X169600000Y-125526723D02*
G75*
G03*
X170217507Y-127017493I2108300J23D01*
G01*
D49*
X182137500Y-126130000D02*
G75*
G03*
X182167500Y-126130000I15000J15001D01*
G01*
X182137500Y-126130000D02*
G75*
G03*
X182101286Y-126115005I-36200J-36200D01*
G01*
D47*
X179042500Y-126875000D02*
G75*
G02*
X177207697Y-127634999I-1834800J1834800D01*
G01*
X170217500Y-127017500D02*
G75*
G03*
X171708276Y-127635010I1490800J1490800D01*
G01*
D49*
X182809736Y-125760000D02*
G75*
G03*
X182344989Y-125952489I-36J-657200D01*
G01*
X177671686Y-129690000D02*
G75*
G03*
X175450188Y-130610177I14J-3141700D01*
G01*
X175042663Y-131017698D02*
G75*
G03*
X174530042Y-132255351I1237637J-1237602D01*
G01*
X181037500Y-127285000D02*
G75*
G03*
X181032488Y-127297071I12100J-12100D01*
G01*
X180682500Y-127286250D02*
G75*
G03*
X180686892Y-127296946I15100J-50D01*
G01*
X180682500Y-127286250D02*
G75*
G03*
X180676250Y-127280000I-6200J50D01*
G01*
X180688750Y-127280000D02*
G75*
G03*
X180682500Y-127286250I-50J-6200D01*
G01*
X181032500Y-127818750D02*
G75*
G03*
X180907846Y-127517898I-425500J-50D01*
G01*
X181157127Y-127517872D02*
G75*
G03*
X181032533Y-127818750I300873J-300828D01*
G01*
X181032500Y-127466250D02*
G75*
G03*
X181157096Y-127517841I73000J50D01*
G01*
X180907872Y-127517872D02*
G75*
G03*
X181032544Y-127466250I51628J51672D01*
G01*
X181037500Y-127285000D02*
G75*
G03*
X181035429Y-127279930I-2100J2100D01*
G01*
X181049571Y-127280000D02*
G75*
G03*
X181037508Y-127285008I29J-17100D01*
G01*
X182342500Y-127470000D02*
G75*
G03*
X182801200Y-127660000I458700J458700D01*
G01*
X179853713Y-127280000D02*
G75*
G03*
X179817496Y-127294996I-13J-51200D01*
G01*
X181403750Y-127280000D02*
X181403750Y-127280000D01*
X181403750Y-127280000D02*
G75*
G03*
X181388793Y-127286167I-50J-21100D01*
G01*
X180676250Y-127280000D02*
X180688750Y-127280000D01*
X181035428Y-127280000D02*
X181049571Y-127280000D01*
X181403750Y-127280000D02*
X181421250Y-127280000D01*
X181421250Y-127280000D02*
X181403750Y-127280000D01*
X187043019Y-128433019D02*
G75*
G02*
X187252539Y-128938750I-505719J-505781D01*
G01*
X183608750Y-129205000D02*
G75*
G03*
X183192610Y-129377325I-50J-588500D01*
G01*
X185033475Y-128896524D02*
G75*
G02*
X184288750Y-129205035I-744775J744724D01*
G01*
X181024947Y-131545052D02*
G75*
G02*
X177559830Y-132980361I-3465147J3465152D01*
G01*
X183903713Y-130370000D02*
G75*
G03*
X183867496Y-130384996I-13J-51200D01*
G01*
X183867500Y-130385000D02*
G75*
G03*
X183852505Y-130421213I36200J-36200D01*
G01*
X183852500Y-132929666D02*
G75*
G03*
X183928740Y-133113760I260300J-34D01*
G01*
X185033125Y-114019375D02*
G75*
G03*
X185121274Y-113806622I-212725J212775D01*
G01*
X185121250Y-113806622D02*
G75*
G03*
X185209397Y-113843147I51650J22D01*
G01*
X178322500Y-113452586D02*
G75*
G03*
X178527496Y-113947504I699900J-14D01*
G01*
X185422127Y-113755000D02*
G75*
G03*
X185209357Y-113843107I-27J-300900D01*
G01*
X186728064Y-110347500D02*
G75*
G03*
X185591896Y-110818146I36J-1606800D01*
G01*
X184574375Y-114478125D02*
G75*
G02*
X183254101Y-115024986I-1320275J1320325D01*
G01*
X185591875Y-110818125D02*
G75*
G03*
X185121271Y-111954314I1136225J-1136175D01*
G01*
X179168750Y-114588750D02*
G75*
G03*
X180221950Y-115025020I1053250J1053250D01*
G01*
X178270000Y-112720376D02*
G75*
G03*
X178296243Y-112783757I89600J-24D01*
G01*
X185209375Y-113843125D02*
X185033125Y-114019375D01*
X178527500Y-113947500D02*
X178937500Y-114357500D01*
D47*
X166120000Y-109600000D02*
G75*
G02*
X166420015Y-110324264I-724300J-724300D01*
G01*
X164378729Y-119600000D02*
G75*
G03*
X163554363Y-119941446I-29J-1165800D01*
G01*
D49*
X182866250Y-134136250D02*
G75*
G03*
X182875303Y-134139999I9050J9050D01*
G01*
X156320000Y-110690811D02*
G75*
G03*
X156312830Y-110687830I-4200J11D01*
G01*
D47*
X167530010Y-135571074D02*
G75*
G02*
X167255015Y-136235005I-938910J-26D01*
G01*
D49*
X159230000Y-117337500D02*
G75*
G03*
X159220017Y-117361642I24100J-24100D01*
G01*
X185480533Y-116295000D02*
G75*
G03*
X185389990Y-116332490I-33J-128000D01*
G01*
D47*
X154960250Y-121445250D02*
G75*
G03*
X155141919Y-121520492I181650J181650D01*
G01*
X170350000Y-120165000D02*
G75*
G03*
X170480820Y-120480808I446600J0D01*
G01*
X172369202Y-135580796D02*
G75*
G02*
X171840000Y-135800000I-529202J529196D01*
G01*
X184532500Y-108350000D02*
G75*
G03*
X184049657Y-108150018I-482800J-482800D01*
G01*
X155239142Y-126740000D02*
G75*
G03*
X155214988Y-126749988I-42J-34100D01*
G01*
D49*
X154720349Y-112280349D02*
G75*
G02*
X153948646Y-112600018I-771749J771749D01*
G01*
D47*
X186467500Y-108780000D02*
G75*
G03*
X185912230Y-108549987I-555300J-555300D01*
G01*
X171874089Y-121874089D02*
G75*
G02*
X172400027Y-123143750I-1269689J-1269711D01*
G01*
X156002500Y-130332500D02*
G75*
G03*
X156000015Y-130338535I6000J-6000D01*
G01*
D49*
X179275000Y-122785000D02*
G75*
G03*
X179238786Y-122770005I-36200J-36200D01*
G01*
D47*
X173840190Y-107440190D02*
G75*
G02*
X174070006Y-107995000I-554790J-554810D01*
G01*
X170609583Y-135559583D02*
G75*
G03*
X171190000Y-135800010I580417J580383D01*
G01*
D49*
X182846250Y-126706250D02*
G75*
G03*
X182855303Y-126709999I9050J9050D01*
G01*
X155040000Y-111865350D02*
G75*
G02*
X154972553Y-112028098I-230200J50D01*
G01*
X158958750Y-117870000D02*
G75*
G03*
X159220000Y-117608750I-50J261300D01*
G01*
X159220000Y-118131250D02*
G75*
G03*
X158958750Y-117870000I-261300J-50D01*
G01*
D47*
X165290187Y-134070175D02*
G75*
G02*
X164711198Y-134310003I-578987J578975D01*
G01*
X154972071Y-137690000D02*
G75*
G03*
X154960008Y-137695008I29J-17100D01*
G01*
X165530012Y-133491186D02*
G75*
G02*
X165290194Y-134070182I-818812J-14D01*
G01*
X174948574Y-124498574D02*
G75*
G03*
X175431092Y-124698458I482526J482474D01*
G01*
D49*
X181750425Y-111552075D02*
G75*
G03*
X181648338Y-111798505I246375J-246425D01*
G01*
D47*
X156000000Y-134307322D02*
G75*
G02*
X155987493Y-134337493I-42700J22D01*
G01*
X163020181Y-134310000D02*
G75*
G03*
X161962089Y-134748281I19J-1496400D01*
G01*
X169994142Y-119980000D02*
G75*
G03*
X169989928Y-119990072I-42J-5900D01*
G01*
D49*
X158285000Y-117865000D02*
G75*
G03*
X158297071Y-117870012I12100J12100D01*
G01*
D47*
X170200000Y-120200000D02*
G75*
G03*
X170682842Y-120399982I482800J482800D01*
G01*
X171530010Y-135799982D02*
X171530012Y-135799983D01*
X171530013Y-135799984D01*
X171530014Y-135799985D01*
X171530016Y-135799987D01*
X171530017Y-135799988D01*
X171530018Y-135799989D01*
X171530019Y-135799991D01*
X171530019Y-135799993D01*
X171530020Y-135799994D01*
X171530020Y-135799996D01*
X171530020Y-135799998D01*
X171530021Y-135800000D01*
X171530021Y-135800000D01*
X169530011Y-133730181D02*
G75*
G03*
X170060202Y-135010238I1810289J-19D01*
G01*
X175811824Y-126591824D02*
G75*
G03*
X175593909Y-126501543I-217924J-217876D01*
G01*
D49*
X155298122Y-111702577D02*
G75*
G02*
X155135350Y-111770033I-162822J162777D01*
G01*
X156290350Y-110740000D02*
G75*
G03*
X156239706Y-110760937I-50J-71600D01*
G01*
D47*
X184532500Y-108350000D02*
G75*
G03*
X185015342Y-108549982I482800J482800D01*
G01*
X166750000Y-107160000D02*
G75*
G02*
X166460081Y-107859908I-989800J0D01*
G01*
X167181525Y-136308474D02*
G75*
G02*
X166695000Y-136509985I-486525J486574D01*
G01*
X173530011Y-133700170D02*
G75*
G02*
X173021040Y-134928995I-1737811J-30D01*
G01*
X169990000Y-119990000D02*
X170010000Y-120010000D01*
D49*
X159220000Y-117608750D02*
X159220000Y-118131250D01*
D47*
X185610000Y-108550000D02*
X185025000Y-108550000D01*
X165956250Y-116001250D02*
G75*
G02*
X166112512Y-116378470I-377250J-377250D01*
G01*
D49*
X188676874Y-112803124D02*
G75*
G03*
X188676924Y-113034326I115626J-115576D01*
G01*
X188445625Y-112803125D02*
G75*
G03*
X188676825Y-112803075I115575J115625D01*
G01*
X188676875Y-113034375D02*
G75*
G02*
X188792478Y-113313518I-279175J-279125D01*
G01*
D47*
X152621250Y-133161250D02*
G75*
G03*
X152889831Y-133272487I268550J268550D01*
G01*
X161180000Y-122845857D02*
G75*
G03*
X161189988Y-122870012I34100J-43D01*
G01*
X171600000Y-124293750D02*
G75*
G03*
X171887232Y-124987292I980800J-50D01*
G01*
X184382341Y-122402341D02*
G75*
G03*
X184038700Y-122260006I-343641J-343659D01*
G01*
X154804895Y-122339895D02*
G75*
G03*
X154950000Y-122400002I145105J145095D01*
G01*
X154389500Y-120875500D02*
G75*
G03*
X154205009Y-121320922I445400J-445400D01*
G01*
X165251421Y-121600000D02*
G75*
G03*
X165009994Y-121699994I-21J-341400D01*
G01*
X172800000Y-124293750D02*
G75*
G02*
X172512718Y-124987243I-980800J50D01*
G01*
D49*
X169210000Y-109755000D02*
G75*
G02*
X169100398Y-110019601I-374200J0D01*
G01*
D47*
X165806767Y-115761767D02*
G75*
G03*
X165802500Y-115759990I-4267J-4233D01*
G01*
X155682847Y-122020500D02*
G75*
G03*
X155224736Y-122210236I-47J-647800D01*
G01*
D49*
X188792500Y-116497971D02*
G75*
G02*
X188324394Y-117628144I-1598300J-29D01*
G01*
D47*
X154397500Y-121932500D02*
X154397500Y-121932500D01*
X165010000Y-121900000D02*
G75*
G03*
X165251421Y-121999991I241400J241400D01*
G01*
D49*
X187644374Y-118308124D02*
G75*
G02*
X187132863Y-118519969I-511474J511524D01*
G01*
X186291250Y-125781250D02*
G75*
G03*
X186342552Y-125802520I51350J51350D01*
G01*
D47*
X153697500Y-129972500D02*
G75*
G03*
X153695015Y-129978535I6000J-6000D01*
G01*
X183535000Y-120185000D02*
G75*
G02*
X183540012Y-120197071I-12100J-12100D01*
G01*
D49*
X167705909Y-111414090D02*
G75*
G03*
X167689993Y-111452500I38391J-38410D01*
G01*
D47*
X154834922Y-120691000D02*
G75*
G03*
X154389493Y-120875493I-22J-629900D01*
G01*
X154460000Y-122095000D02*
G75*
G03*
X154460000Y-121995000I-50000J50000D01*
G01*
X154560000Y-122095000D02*
G75*
G03*
X154460000Y-122095000I-50000J-49999D01*
G01*
X181393750Y-121542500D02*
G75*
G03*
X181710000Y-121226250I-50J316300D01*
G01*
X181710000Y-121226250D02*
G75*
G03*
X182026250Y-121542500I316300J50D01*
G01*
X165981250Y-115936250D02*
G75*
G03*
X166406755Y-116112519I425550J425550D01*
G01*
D49*
X184155260Y-135090000D02*
G75*
G03*
X183898762Y-135196262I40J-362800D01*
G01*
D47*
X171730000Y-114350000D02*
G75*
G02*
X171999984Y-115001837I-651800J-651800D01*
G01*
X152716250Y-135496250D02*
G75*
G03*
X153214181Y-135702508I497950J497950D01*
G01*
X175085000Y-119285000D02*
G75*
G03*
X174879791Y-119200003I-205200J-205200D01*
G01*
D49*
X183898750Y-135196250D02*
G75*
G02*
X183642239Y-135302516I-256550J256550D01*
G01*
D47*
X154062500Y-122492500D02*
G75*
G03*
X153715016Y-123331439I838900J-838900D01*
G01*
X175055000Y-119485000D02*
G75*
G02*
X174777365Y-119599986I-277600J277600D01*
G01*
X185292996Y-120810705D02*
G75*
G03*
X184687740Y-120559983I-605296J-605295D01*
G01*
D49*
X188840000Y-112475000D02*
G75*
G02*
X188723339Y-112756684I-398400J0D01*
G01*
D47*
X182944191Y-122026691D02*
G75*
G03*
X183507450Y-122260026I563309J563291D01*
G01*
D49*
X188344375Y-112701875D02*
G75*
G03*
X187820792Y-112484988I-523575J-523525D01*
G01*
D47*
X186784999Y-123304999D02*
G75*
G03*
X186676358Y-123260016I-108599J-108601D01*
G01*
X165800000Y-115802500D02*
G75*
G03*
X165830053Y-115875051I102600J0D01*
G01*
X183355000Y-120560000D02*
G75*
G03*
X183540000Y-120375000I0J185000D01*
G01*
X183540000Y-120375000D02*
G75*
G03*
X183725000Y-120560000I185000J0D01*
G01*
X154397500Y-121932500D02*
G75*
G02*
X154404997Y-121950606I-18100J-18100D01*
G01*
X154407500Y-122147500D02*
G75*
G03*
X154407500Y-122142500I-2500J2500D01*
G01*
X154413535Y-122145000D02*
G75*
G03*
X154407490Y-122147490I-35J-8500D01*
G01*
X154412500Y-122142500D02*
G75*
G03*
X154413533Y-122144914I1000J-1000D01*
G01*
X154407500Y-122142500D02*
G75*
G03*
X154412500Y-122142500I2500J2502D01*
G01*
X181885000Y-120735000D02*
G75*
G03*
X181709995Y-121157487I422500J-422500D01*
G01*
X185059686Y-123079686D02*
G75*
G03*
X185494999Y-123260007I435314J435286D01*
G01*
X185371064Y-120888773D02*
G75*
G02*
X185543738Y-121305555I-416764J-416827D01*
G01*
X182307487Y-120560000D02*
G75*
G03*
X181885004Y-120735004I13J-597500D01*
G01*
X154405000Y-122136464D02*
G75*
G03*
X154407490Y-122142510I8500J-36D01*
G01*
D49*
X187796145Y-118156354D02*
G75*
G03*
X187796195Y-118036096I-60145J60154D01*
G01*
X187856250Y-118181250D02*
G75*
G03*
X187796070Y-118156279I-35250J50D01*
G01*
X187916354Y-118036145D02*
G75*
G03*
X187856297Y-118181250I145146J-145055D01*
G01*
X187796145Y-118036145D02*
G75*
G03*
X187916354Y-118036145I60104J60105D01*
G01*
X187856250Y-118181250D02*
G75*
G03*
X187916320Y-118326388I205250J-50D01*
G01*
X186889575Y-112277925D02*
G75*
G03*
X187389498Y-112485001I499925J499925D01*
G01*
D47*
X154205000Y-121609185D02*
G75*
G03*
X154297496Y-121832504I315800J-15D01*
G01*
D49*
X186682500Y-111778001D02*
G75*
G03*
X186889576Y-112277924I707000J1D01*
G01*
D47*
X154632500Y-122167500D02*
X154632500Y-122167500D01*
X154632500Y-122167500D02*
G75*
G03*
X154578180Y-122145008I-54300J-54300D01*
G01*
D49*
X188676875Y-113034375D02*
X188445625Y-112803125D01*
D47*
X154397500Y-121932500D02*
X154382500Y-121917500D01*
X154382500Y-121917500D02*
X154397500Y-121932500D01*
X154460000Y-121995000D02*
X154560000Y-122095000D01*
X182026250Y-121542500D02*
X181393750Y-121542500D01*
X186005000Y-123259999D02*
X185494999Y-123259999D01*
X183725000Y-120560000D02*
X183355000Y-120560000D01*
X154677500Y-122212500D02*
X154632500Y-122167500D01*
X154632500Y-122167500D02*
X154677500Y-122212500D01*
X171190000Y-135800000D02*
X171530000Y-135800000D01*
X170609583Y-135559583D02*
X170060220Y-135010220D01*
X169530011Y-133730181D02*
X169530011Y-132980351D01*
X171840000Y-135800000D02*
X171530000Y-135800000D01*
X172369202Y-135580796D02*
X173021022Y-134928977D01*
X173530011Y-133700170D02*
X173530011Y-132980351D01*
X171530010Y-135799982D02*
X171530010Y-132980351D01*
X166410000Y-136510000D02*
X166695000Y-136510000D01*
X167255004Y-136234994D02*
X167181525Y-136308474D01*
X167530010Y-135571074D02*
X167530010Y-132980351D01*
X161962085Y-134748277D02*
X161380011Y-135330352D01*
X163640000Y-134310000D02*
X163020181Y-134310000D01*
X163640000Y-134310000D02*
X164711198Y-134310000D01*
X165530012Y-133491186D02*
X165530012Y-132980351D01*
X153214181Y-135702500D02*
X153695000Y-135702500D01*
X152716250Y-135496250D02*
X152510000Y-135290000D01*
X153697500Y-129972500D02*
X153700000Y-129970000D01*
X153695000Y-129978535D02*
X153695000Y-130842500D01*
X152621250Y-133161250D02*
X152510000Y-133050000D01*
X152889831Y-133272500D02*
X153665000Y-133272500D01*
X166120000Y-109600000D02*
X165820000Y-109300000D01*
X166420000Y-110324264D02*
X166420000Y-111475000D01*
X151190000Y-108790000D02*
X152381400Y-108790000D01*
X161531715Y-111330000D02*
X160230000Y-111330000D01*
X161580000Y-111310000D02*
X161600000Y-111290000D01*
X163339342Y-114589342D02*
X164821611Y-116071611D01*
X162360000Y-111391543D02*
X162360000Y-112225000D01*
X164910000Y-116410000D02*
X164910000Y-116285000D01*
X152371400Y-111340000D02*
X152381400Y-111330000D01*
X152347257Y-111350000D02*
X151180000Y-111350000D01*
X161028456Y-110060000D02*
X160230000Y-110060000D01*
X168480000Y-125350000D02*
X168240000Y-125110000D01*
X168000000Y-124530588D02*
X168000000Y-123887500D01*
X168570589Y-124540589D02*
X169010000Y-124980000D01*
X168400000Y-124128750D02*
X168400000Y-123887500D01*
X170640000Y-125810000D02*
X170480000Y-125970000D01*
X170800000Y-125423725D02*
X170800000Y-123887500D01*
X171200000Y-124929461D02*
X171200000Y-123887500D01*
X172120000Y-126500000D02*
X171660000Y-126040000D01*
X165596250Y-122400000D02*
X166112500Y-122400000D01*
X164100000Y-123380000D02*
X164714956Y-122765043D01*
X161590000Y-112600000D02*
X160230000Y-112600000D01*
X163170000Y-118900000D02*
X163220000Y-118850000D01*
X163340710Y-118800000D02*
X166112500Y-118800000D01*
X161471250Y-120882500D02*
X161180000Y-120882500D01*
X161968444Y-120676555D02*
X162216250Y-120428750D01*
X162670000Y-119333300D02*
X162670000Y-118826776D01*
X163096776Y-118400000D02*
X166112500Y-118400000D01*
X163805326Y-119200000D02*
X166112500Y-119200000D01*
X163435566Y-119353159D02*
X163282407Y-119506319D01*
X164378729Y-119600000D02*
X166112500Y-119600000D01*
X163554375Y-119941458D02*
X163212917Y-120282917D01*
X162320000Y-121560000D02*
X162481471Y-121560000D01*
X163527811Y-120675130D02*
X162757119Y-121445822D01*
X165157721Y-120000000D02*
X166112500Y-120000000D01*
X163219705Y-121548921D02*
X163752076Y-121016551D01*
X165240564Y-120400000D02*
X166112500Y-120400000D01*
X162650000Y-122924314D02*
X162650000Y-123344626D01*
X161719626Y-124275000D02*
X159886317Y-124275000D01*
X163976340Y-121357972D02*
X163766188Y-121568125D01*
X162333811Y-125026188D02*
X162250000Y-125110000D01*
X165323407Y-120800000D02*
X166112500Y-120800000D01*
X157270853Y-125910000D02*
X160318629Y-125910000D01*
X164200605Y-121699394D02*
X164075000Y-121825000D01*
X165406250Y-121200000D02*
X166112500Y-121200000D01*
X163450000Y-123333883D02*
X163450000Y-127015000D01*
X152371400Y-110070000D02*
X152381400Y-110060000D01*
X151190000Y-110080000D02*
X152347257Y-110080000D01*
X177207697Y-127635000D02*
X171708276Y-127635000D01*
X169600000Y-125526723D02*
X169600000Y-123887500D01*
X179042500Y-126875000D02*
X179802500Y-126115000D01*
X166800000Y-124511593D02*
X166800000Y-123887500D01*
X166490000Y-125260000D02*
X166180000Y-125570000D01*
X166112500Y-123883478D02*
X166112500Y-123200000D01*
X165671250Y-124948750D02*
X165230000Y-125390000D01*
X165881250Y-122800000D02*
X166112500Y-122800000D01*
X164420000Y-126010000D02*
X164420000Y-124899743D01*
X165486482Y-122963517D02*
X165035000Y-123415000D01*
X167450000Y-126340000D02*
X167700000Y-126590000D01*
X167200000Y-125736446D02*
X167200000Y-123887500D01*
X167600000Y-124613750D02*
X167600000Y-123887500D01*
X168810000Y-126550000D02*
X168113536Y-125853536D01*
X166980000Y-135230000D02*
X166755006Y-135005006D01*
X166530012Y-133580351D02*
X166530012Y-134461822D01*
X168530011Y-132405351D02*
X168530011Y-132980351D01*
X163446464Y-127033535D02*
X163243535Y-127236464D01*
D48*
X163225000Y-127240000D02*
X157270000Y-127240000D01*
X163235000Y-127240000D02*
X163461715Y-127240000D01*
D47*
X163453535Y-127033535D02*
X163599895Y-127179895D01*
X163450000Y-127171715D02*
X163450000Y-127025000D01*
D48*
X163518284Y-127240000D02*
X163575000Y-127240000D01*
X165390000Y-129950000D02*
X164145000Y-129950000D01*
D47*
X159552569Y-133399500D02*
X157270000Y-133399500D01*
X159600250Y-133379750D02*
X159620000Y-133360000D01*
X157504500Y-120920500D02*
X157275000Y-120691000D01*
X158058562Y-121150000D02*
X158780000Y-121150000D01*
D48*
X159200520Y-123670520D02*
X159747500Y-124217500D01*
D47*
X164530000Y-128160000D02*
X164484750Y-128114750D01*
X157270000Y-128069500D02*
X164375506Y-128069500D01*
X163770000Y-135830181D02*
X163770000Y-135670000D01*
X163656734Y-136103627D02*
X162920181Y-136840181D01*
X160868536Y-137690000D02*
X157270000Y-137690000D01*
D48*
X158047300Y-122020500D02*
X157275000Y-122020500D01*
X158900000Y-122945000D02*
X158900000Y-122873199D01*
X159920000Y-124760000D02*
X159920000Y-124471317D01*
X164530011Y-131210018D02*
X164530011Y-132980351D01*
X170530012Y-131913193D02*
X170530012Y-132980351D01*
X159280933Y-132070000D02*
X157270000Y-132070000D01*
X162019652Y-130830347D02*
X161840000Y-131010000D01*
X168530011Y-134365170D02*
X168530011Y-132980351D01*
X167550796Y-136729203D02*
X166400000Y-137880000D01*
X158379750Y-136360250D02*
X158380000Y-136360000D01*
X158379146Y-136360500D02*
X157270000Y-136360500D01*
X163784655Y-136925707D02*
X166105747Y-134604615D01*
X159936899Y-138519500D02*
X157270000Y-138519500D01*
D47*
X154413535Y-122145000D02*
X154578180Y-122145000D01*
X154804895Y-122339895D02*
X154677500Y-122212500D01*
X154560000Y-122095000D02*
X154632500Y-122167500D01*
X154405000Y-121950606D02*
X154405000Y-122136464D01*
X154460000Y-122095000D02*
X154412500Y-122142500D01*
X154397500Y-121932500D02*
X154460000Y-121995000D01*
X154382500Y-121917500D02*
X154297500Y-121832500D01*
X154062500Y-122492500D02*
X154407500Y-122147500D01*
X153715000Y-123331439D02*
X153715000Y-125992500D01*
X155496000Y-125910500D02*
X156000000Y-125910500D01*
X153781249Y-127121249D02*
X154635618Y-126266881D01*
X155295131Y-127320000D02*
X153941191Y-127320000D01*
X155488268Y-127240000D02*
X156000000Y-127240000D01*
X154423439Y-131309060D02*
X153695000Y-132037500D01*
X155803600Y-128821398D02*
X155206560Y-129418439D01*
X156000000Y-128347250D02*
X156000000Y-128069500D01*
X153821394Y-137381393D02*
X154591629Y-138151628D01*
X155479750Y-138519500D02*
X156000000Y-138519500D01*
X153821394Y-137023894D02*
X153846250Y-137048750D01*
X155982928Y-137200000D02*
X154211399Y-137200000D01*
X155995000Y-137195000D02*
X156000000Y-137190000D01*
X154263270Y-134623770D02*
X156000000Y-136360500D01*
X155045000Y-132740710D02*
X155045000Y-132878750D01*
X154897391Y-133235108D02*
X153821270Y-134311229D01*
X155215710Y-132570000D02*
X156000000Y-132570000D01*
X155323119Y-132037500D02*
X153695000Y-132037500D01*
X155401580Y-132070000D02*
X156000000Y-132070000D01*
X154950000Y-122400000D02*
X155035000Y-122400000D01*
X154205000Y-121320922D02*
X154205000Y-121609185D01*
X154834922Y-120691000D02*
X156005000Y-120691000D01*
X154960250Y-121445250D02*
X154885000Y-121370000D01*
X155141919Y-121520500D02*
X156005000Y-121520500D01*
X155224750Y-122210250D02*
X155035000Y-122400000D01*
X155682847Y-122020500D02*
X156005000Y-122020500D01*
X155215000Y-126750000D02*
X155205000Y-126760000D01*
X155239142Y-126740000D02*
X156000000Y-126740000D01*
X156005000Y-130330000D02*
X156002500Y-130332500D01*
X156000000Y-130338535D02*
X156000000Y-131240500D01*
X155975000Y-134350000D02*
X155987500Y-134337500D01*
X156000000Y-134307322D02*
X156000000Y-133399500D01*
X154960000Y-137695000D02*
X154955000Y-137700000D01*
X154972071Y-137690000D02*
X156000000Y-137690000D01*
X157275000Y-120691000D02*
X157275000Y-121520500D01*
X157270000Y-125910853D02*
X157270000Y-126740000D01*
X157270000Y-128069500D02*
X157270000Y-131240500D01*
X157270000Y-137690000D02*
X157270000Y-137190000D01*
X157270000Y-133399500D02*
X157270000Y-132570000D01*
X169994142Y-119980000D02*
X170350000Y-119980000D01*
X170350000Y-120165000D02*
X170350000Y-119980000D01*
D49*
X167690000Y-111452500D02*
X167690000Y-111475000D01*
X169100398Y-110019601D02*
X167705909Y-111414090D01*
X169210000Y-109755000D02*
X169210000Y-109600000D01*
X155298122Y-111702577D02*
X156239734Y-110760965D01*
X155040000Y-111770000D02*
X155135350Y-111770000D01*
X155040000Y-111770000D02*
X155040000Y-111865350D01*
X156312850Y-110687850D02*
X156305700Y-110695000D01*
X156320000Y-110690811D02*
X156320000Y-110740000D01*
X156320000Y-110740000D02*
X156290350Y-110740000D01*
X154720349Y-112280349D02*
X154972577Y-112028122D01*
X153948646Y-112600000D02*
X152381400Y-112600000D01*
D47*
X161380000Y-108790000D02*
X160230000Y-108790000D01*
X171460000Y-114080000D02*
X171730000Y-114350000D01*
X172000000Y-115001837D02*
X172000000Y-116112500D01*
X166112500Y-116378470D02*
X166112500Y-116800000D01*
X165806767Y-115761767D02*
X165981250Y-115936250D01*
X165956250Y-116001250D02*
X165830052Y-115875052D01*
X165800000Y-115760000D02*
X165800000Y-115802500D01*
X165802500Y-115760000D02*
X165800000Y-115760000D01*
X166406755Y-116112500D02*
X166800000Y-116112500D01*
X164910000Y-121800000D02*
X165010000Y-121900000D01*
X166112500Y-122000000D02*
X165251421Y-122000000D01*
X164910000Y-121800000D02*
X165010000Y-121700000D01*
X166112500Y-121600000D02*
X165251421Y-121600000D01*
X166112500Y-121600000D02*
X166112500Y-122000000D01*
X172800000Y-124293750D02*
X172800000Y-123887500D01*
X171600000Y-124293750D02*
X171600000Y-123887500D01*
X172512737Y-124987262D02*
X172200000Y-125300000D01*
X171887262Y-124987262D02*
X172200000Y-125300000D01*
X174684020Y-118400000D02*
X173887500Y-118400000D01*
X175780000Y-118960000D02*
X175920000Y-118960000D01*
X175541005Y-118861005D02*
X175360000Y-118680000D01*
X175170000Y-119370000D02*
X175085000Y-119285000D01*
X174879791Y-119200000D02*
X173887500Y-119200000D01*
X175170000Y-119370000D02*
X175055000Y-119485000D01*
X174777365Y-119600000D02*
X173887500Y-119600000D01*
X173887500Y-119200000D02*
X173887500Y-119600000D01*
X170010000Y-120010000D02*
X170200000Y-120200000D01*
X170682842Y-120400000D02*
X173887500Y-120400000D01*
X186830000Y-123350000D02*
X186784999Y-123304999D01*
X186005000Y-123259999D02*
X186676358Y-123259999D01*
X183535000Y-120185000D02*
X183530000Y-120180000D01*
X183540000Y-120197071D02*
X183540000Y-120375000D01*
X184687740Y-120560000D02*
X183725000Y-120560000D01*
X183355000Y-120560000D02*
X182307487Y-120560000D01*
X185292996Y-120810705D02*
X185371064Y-120888773D01*
X181710000Y-121226250D02*
X181710000Y-121157487D01*
X185543701Y-121305555D02*
X185543701Y-121549700D01*
X181393750Y-121542500D02*
X180950000Y-121542500D01*
X182460000Y-121542500D02*
X182026250Y-121542500D01*
D49*
X188840000Y-112310000D02*
X188840000Y-112475000D01*
X188676874Y-112803124D02*
X188723327Y-112756672D01*
X188445625Y-112803125D02*
X188344375Y-112701875D01*
X187450000Y-117690000D02*
X187796145Y-118036145D01*
X188210000Y-118620000D02*
X187916354Y-118326354D01*
X188324374Y-117628124D02*
X187916354Y-118036145D01*
X187644374Y-118308124D02*
X187796145Y-118156354D01*
D47*
X161190000Y-122870000D02*
X161200000Y-122880000D01*
X161180000Y-122845857D02*
X161180000Y-122077500D01*
X159990000Y-122880000D02*
X159990000Y-122077500D01*
X161180000Y-120882500D02*
X159990000Y-120882500D01*
D49*
X188090000Y-103423750D02*
X188090000Y-103710000D01*
X188090000Y-103710000D02*
X188090000Y-109152500D01*
D47*
X165150000Y-110200000D02*
X165150000Y-111475000D01*
X168800000Y-115279116D02*
X168800000Y-116112500D01*
X167267500Y-114050000D02*
X167570883Y-114050000D01*
X165880475Y-113475475D02*
X165150000Y-112745000D01*
X171600000Y-115706250D02*
X171600000Y-116112500D01*
X171312737Y-115012737D02*
X170775000Y-114475000D01*
X168783273Y-113650000D02*
X167964931Y-113650000D01*
X166872500Y-113197500D02*
X166420000Y-112745000D01*
X168005814Y-112930000D02*
X170727035Y-112930000D01*
X167782500Y-112837500D02*
X167690000Y-112745000D01*
X172400000Y-114602964D02*
X172400000Y-116112500D01*
X161800000Y-118640000D02*
X161318750Y-119121250D01*
X163345096Y-118000000D02*
X166112500Y-118000000D01*
X161670000Y-117090000D02*
X161353750Y-116773750D01*
X162901248Y-117600000D02*
X166112500Y-117600000D01*
D49*
X158280000Y-117860000D02*
X158285000Y-117865000D01*
X158958750Y-117870000D02*
X158297071Y-117870000D01*
X159220000Y-118131250D02*
X159220000Y-118462500D01*
X159220000Y-117361642D02*
X159220000Y-117608750D01*
X159230000Y-117337500D02*
X159240000Y-117327500D01*
X160617993Y-119597500D02*
X159220000Y-119597500D01*
X160498496Y-116192500D02*
X159240000Y-116192500D01*
X179290000Y-122800000D02*
X179275000Y-122785000D01*
X179238786Y-122770000D02*
X178447500Y-122770000D01*
X177312500Y-121489016D02*
X177312500Y-122770000D01*
D47*
X180594692Y-122644692D02*
X180243750Y-122293750D01*
X179800000Y-120553380D02*
X179800000Y-121222442D01*
X177546619Y-118300000D02*
X175952132Y-118300000D01*
X175227867Y-118000000D02*
X173887500Y-118000000D01*
D48*
X181860000Y-122720000D02*
X181868750Y-122728750D01*
X182444090Y-122737500D02*
X181889874Y-122737500D01*
D47*
X182460000Y-121542500D02*
X182944191Y-122026691D01*
X183507450Y-122260001D02*
X183837400Y-122260001D01*
D48*
X180950000Y-122943750D02*
X180950000Y-122868750D01*
X181095840Y-123295840D02*
X181110000Y-123310000D01*
X183478905Y-123470000D02*
X181496274Y-123470000D01*
X183732399Y-123364999D02*
X183837400Y-123259999D01*
X182498409Y-122760000D02*
X183837400Y-122760000D01*
D47*
X176283058Y-120000000D02*
X173887500Y-120000000D01*
X177037500Y-119687500D02*
X177350000Y-119375000D01*
X177331250Y-121406250D02*
X177037500Y-121112500D01*
X176283058Y-120800000D02*
X173887500Y-120800000D01*
D49*
X177671686Y-129690000D02*
X181032500Y-129690000D01*
X175450186Y-130610175D02*
X175042663Y-131017698D01*
X174530011Y-132255351D02*
X174530011Y-132980351D01*
X183608750Y-129205000D02*
X183852500Y-129205000D01*
X183192642Y-129377357D02*
X181024947Y-131545052D01*
X177559830Y-132980351D02*
X175530012Y-132980351D01*
D47*
X170480814Y-120480814D02*
X171874089Y-121874089D01*
X172400000Y-123143750D02*
X172400000Y-123887500D01*
X176380000Y-127160000D02*
X175811824Y-126591824D01*
X175593909Y-126501561D02*
X175466257Y-126501561D01*
X174948574Y-124498574D02*
X174480000Y-124030000D01*
X175431092Y-124698440D02*
X175713745Y-124698440D01*
X175235061Y-123200000D02*
X173887500Y-123200000D01*
X176641821Y-125325996D02*
X176491561Y-125476256D01*
X176792081Y-124963236D02*
X176792081Y-124643908D01*
X176336040Y-123656040D02*
X176416022Y-123736022D01*
X173200000Y-124061402D02*
X173200000Y-123887500D01*
X173322967Y-124358271D02*
X174688440Y-125723744D01*
X186719999Y-122260001D02*
X186720000Y-122260000D01*
X185750000Y-122260001D02*
X186719999Y-122260001D01*
X184543700Y-123970300D02*
X184543700Y-124826300D01*
X185043700Y-123970300D02*
X184043699Y-123970300D01*
X185750000Y-122260001D02*
X185750000Y-122760000D01*
X184038700Y-122260001D02*
X183837400Y-122260001D01*
X184382341Y-122402341D02*
X185059686Y-123079686D01*
D49*
X181157127Y-127517872D02*
X181388812Y-127286187D01*
X181049571Y-127280000D02*
X181403750Y-127280000D01*
X181421250Y-127280000D02*
X182152500Y-127280000D01*
X180686919Y-127296919D02*
X180907872Y-127517872D01*
X181032500Y-127818750D02*
X181032500Y-128555000D01*
X180676250Y-127280000D02*
X179853713Y-127280000D01*
X181032500Y-127297071D02*
X181032500Y-127466250D01*
X180688750Y-127280000D02*
X181035428Y-127280000D01*
X179817500Y-127295000D02*
X179802500Y-127310000D01*
X182342500Y-127470000D02*
X182152500Y-127280000D01*
X182801200Y-127660000D02*
X183995000Y-127660000D01*
X182809736Y-125760000D02*
X183995000Y-125760000D01*
X182167500Y-126130000D02*
X182345000Y-125952500D01*
X182101286Y-126115000D02*
X179802500Y-126115000D01*
X182866250Y-134136250D02*
X182862500Y-134132500D01*
X182875303Y-134140000D02*
X184005000Y-134140000D01*
X182846250Y-126706250D02*
X182842500Y-126702500D01*
X182855303Y-126710000D02*
X183995000Y-126710000D01*
X186291250Y-125781250D02*
X186270000Y-125760000D01*
X187712500Y-125802500D02*
X186342552Y-125802500D01*
X182762500Y-135302500D02*
X183642239Y-135302500D01*
X184155260Y-135090000D02*
X186280000Y-135090000D01*
X183928750Y-133113750D02*
X184005000Y-133190000D01*
X183852500Y-130421213D02*
X183852500Y-132929666D01*
X183903713Y-130370000D02*
X187252500Y-130370000D01*
X186270000Y-127660000D02*
X185033475Y-128896524D01*
X183852500Y-129205000D02*
X184288750Y-129205000D01*
X187043019Y-128433019D02*
X186270000Y-127660000D01*
X187252500Y-128938750D02*
X187252500Y-129235000D01*
X178296250Y-112783750D02*
X178322500Y-112810000D01*
X178270000Y-112720376D02*
X178270000Y-111437500D01*
X177934995Y-110154995D02*
X177250000Y-109470000D01*
X178146250Y-110242500D02*
X178270000Y-110242500D01*
X185121250Y-113806622D02*
X185121250Y-111954314D01*
X186728064Y-110347500D02*
X188090000Y-110347500D01*
X185033125Y-114019375D02*
X184574375Y-114478125D01*
X187887590Y-102935090D02*
X187380784Y-102428284D01*
D47*
X169200000Y-107539645D02*
X169200000Y-106750000D01*
X169250000Y-107660356D02*
X169250000Y-107991966D01*
X169175000Y-108120000D02*
X169212500Y-108082500D01*
X169725000Y-108120000D02*
X169687500Y-108082500D01*
X169650000Y-107660356D02*
X169650000Y-107991966D01*
X169700000Y-107539645D02*
X169700000Y-106750000D01*
X170250000Y-109780000D02*
X170250000Y-109445000D01*
X170250000Y-110461422D02*
X170250000Y-109980000D01*
X170250000Y-109780000D02*
X170250000Y-109743639D01*
X170250000Y-109335000D02*
X170250000Y-107660356D01*
X170650000Y-109296360D02*
X170650000Y-109115000D01*
X170650000Y-109115000D02*
X170650000Y-109116360D01*
X170650000Y-107660356D02*
X170650000Y-108985000D01*
X170205000Y-109635000D02*
X170160000Y-109590000D01*
X170211109Y-109538890D02*
X170160000Y-109590000D01*
X170650000Y-109423639D02*
X170650000Y-110118578D01*
X170695000Y-109315000D02*
X170740000Y-109270000D01*
X170740000Y-109270000D02*
X170695000Y-109225000D01*
X173200000Y-114769828D02*
X173200000Y-116112500D01*
X171186395Y-111413551D02*
X172250587Y-112477743D01*
X170700000Y-107539645D02*
X170700000Y-106750000D01*
X172800000Y-114852672D02*
X172800000Y-116112500D01*
X170661127Y-111453971D02*
X171909167Y-112702011D01*
X170200000Y-107539645D02*
X170200000Y-106750000D01*
D49*
X167120000Y-108534055D02*
X167120000Y-109670000D01*
X167550000Y-107495944D02*
X167550000Y-106750000D01*
D47*
X182937500Y-109360000D02*
X183347500Y-108950000D01*
X181947672Y-109770000D02*
X181386250Y-109770000D01*
X180896250Y-108876250D02*
X180810000Y-108790000D01*
X180982500Y-109084475D02*
X180982500Y-109366250D01*
X183060000Y-105310000D02*
X183060000Y-105000000D01*
X182567175Y-106112824D02*
X182840796Y-105839203D01*
X182310000Y-106180000D02*
X182405000Y-106180000D01*
D49*
X181125132Y-107200000D02*
X183347500Y-107200000D01*
X174364386Y-109470000D02*
X177250000Y-109470000D01*
X178385000Y-108335000D02*
X177250000Y-109470000D01*
X172894472Y-108834472D02*
X172940000Y-108880000D01*
X172350000Y-107520000D02*
X172350000Y-106750000D01*
D47*
X171200000Y-108697867D02*
X171200000Y-106750000D01*
X171500000Y-109210000D02*
X171350000Y-109060000D01*
X174070000Y-108320000D02*
X174070000Y-107995000D01*
X173840190Y-107440190D02*
X173150000Y-106750000D01*
X168260000Y-109240000D02*
X168230000Y-109210000D01*
X168200000Y-109137573D02*
X168200000Y-106750000D01*
X166750000Y-107160000D02*
X166750000Y-106750000D01*
X166020000Y-108300000D02*
X166460086Y-107859913D01*
X181728750Y-102536250D02*
X181592500Y-102400000D01*
X181865000Y-102865186D02*
X181865000Y-105000000D01*
X185728750Y-102526250D02*
X185602500Y-102400000D01*
X185855000Y-102831044D02*
X185855000Y-105000000D01*
X187050000Y-106523980D02*
X187050000Y-105000000D01*
X185707500Y-108150000D02*
X185317500Y-108150000D01*
X186373271Y-107874228D02*
X186573750Y-107673750D01*
X185317500Y-107350000D02*
X185317500Y-106940000D01*
X184822500Y-106035000D02*
X185027586Y-106240086D01*
X183380940Y-102913440D02*
X183795000Y-103327500D01*
X183857499Y-101864999D02*
X183380940Y-102341559D01*
X185293957Y-101270000D02*
X185560037Y-101270000D01*
X187324215Y-102291715D02*
X186827500Y-101795000D01*
X184327500Y-104839964D02*
X184327500Y-104613068D01*
X185912230Y-108550000D02*
X185610000Y-108550000D01*
X186467500Y-108780000D02*
X186697500Y-109010000D01*
X185317500Y-107350000D02*
X185317500Y-107750000D01*
X185025000Y-108550000D02*
X185015342Y-108550000D01*
X184049657Y-108150000D02*
X183347500Y-108150000D01*
X181977500Y-108990000D02*
X182197500Y-108770000D01*
X182728626Y-108550000D02*
X183347500Y-108550000D01*
X181747500Y-108000000D02*
X181872500Y-107875000D01*
X182174276Y-107750000D02*
X183347500Y-107750000D01*
D49*
X181648350Y-111798505D02*
X181648350Y-112485000D01*
X181852500Y-111450000D02*
X181750425Y-111552075D01*
X181648350Y-112485000D02*
X181648350Y-113755000D01*
X178322500Y-113452586D02*
X178322500Y-112810000D01*
X185390000Y-116332500D02*
X185352500Y-116370000D01*
X185480533Y-116295000D02*
X187096650Y-116295000D01*
X186682500Y-111420000D02*
X186682500Y-111778001D01*
X181648350Y-115025000D02*
X183254101Y-115025000D01*
X185422127Y-113755000D02*
X187096650Y-113755000D01*
X181648350Y-116295000D02*
X182745366Y-117392016D01*
X183040000Y-118103325D02*
X183040000Y-118520000D01*
X179148750Y-116711250D02*
X178732500Y-117127500D01*
X181648350Y-116295000D02*
X180153666Y-116295000D01*
X178937500Y-114357500D02*
X179168750Y-114588750D01*
X181648350Y-115025000D02*
X180221950Y-115025000D01*
X188792500Y-113313518D02*
X188792500Y-116497971D01*
X187820792Y-112485000D02*
X187389498Y-112485000D01*
X187132863Y-118520000D02*
X185840000Y-118520000D01*
D47*
X167054830Y-130650000D02*
X166760000Y-130650000D01*
X167558136Y-130858476D02*
X168123424Y-131423764D01*
D48*
X165390000Y-129950000D02*
X168566818Y-129950000D01*
X172530010Y-132380351D02*
X172530010Y-132980351D01*
X169520424Y-128770765D02*
X172105745Y-131356086D01*
X165824829Y-127240000D02*
X163745000Y-127240000D01*
M02*
