M48
; DRILL file {KiCad 8.0.4} date 2024-10-04T00:05:06-0400
; FORMAT={-:-/ absolute / metric / decimal}
; #@! TF.CreationDate,2024-10-04T00:05:06-04:00
; #@! TF.GenerationSoftware,Kicad,Pcbnew,8.0.4
; #@! TF.FileFunction,Plated,1,4,PTH
FMAT,2
METRIC
; #@! TA.AperFunction,Plated,PTH,ViaDrill
T1C0.200
; #@! TA.AperFunction,Plated,PTH,ViaDrill
T2C0.250
; #@! TA.AperFunction,Plated,PTH,ViaDrill
T3C0.300
; #@! TA.AperFunction,Plated,PTH,ComponentDrill
T4C0.600
%
G90
G05
T1
X151.18Y-111.35
X151.19Y-108.79
X151.19Y-110.08
X152.51Y-133.05
X152.51Y-135.29
X153.7Y-129.97
X154.885Y-121.37
X154.955Y-137.7
X155.035Y-122.4
X155.205Y-126.76
X155.975Y-134.35
X155.98Y-103.92
X156.005Y-130.33
X157.29Y-102.58
X157.31Y-105.07
X157.35Y-103.95
X158.28Y-117.86
X158.38Y-136.36
X158.68Y-103.85
X158.78Y-121.15
X159.62Y-133.36
X159.92Y-124.76
X159.99Y-122.88
X161.2Y-122.88
X161.47Y-123.63
X161.59Y-112.6
X161.6Y-111.29
X162.32Y-121.56
X162.65Y-126.2
X163.17Y-118.9
X163.213Y-120.283
X163.282Y-119.506
X163.64Y-134.31
X163.77Y-135.67
X164.1Y-123.38
X164.42Y-126.01
X164.53Y-128.16
X164.53Y-131.21
X164.91Y-116.41
X165.055Y-114.115
X165.15Y-110.2
X165.23Y-125.39
X165.39Y-129.95
X165.82Y-109.3
X166.18Y-125.57
X166.4Y-137.88
X166.41Y-136.51
X166.74Y-114.97
X166.76Y-130.65
X166.98Y-135.23
X167.7Y-126.59
X168.48Y-125.35
X168.81Y-126.55
X169.01Y-124.98
X169.175Y-108.12
X169.21Y-109.6
X169.725Y-108.12
X170.16Y-109.59
X170.35Y-119.98
X170.48Y-125.97
X170.74Y-109.27
X171.53Y-135.8
X172.12Y-126.5
X174.48Y-124.03
X175.92Y-118.96
X176.38Y-127.16
X178.69Y-135.31
X179.29Y-122.8
X181.86Y-122.72
X182.762Y-135.302
X182.843Y-126.703
X182.862Y-134.132
X184.54Y-124.83
X186.72Y-122.26
X187.713Y-125.802
X188.09Y-103.71
T2
X155.04Y-109.75
X155.04Y-111.77
X156.32Y-110.74
X157.38Y-109.77
X157.54Y-111.8
X161.38Y-108.79
X164.91Y-121.8
X165.8Y-115.76
X171.46Y-114.08
X172.2Y-125.3
X175.17Y-119.37
X183.53Y-120.18
X186.83Y-123.35
X187.45Y-117.69
X188.21Y-118.62
X188.84Y-112.31
T3
X166.02Y-108.3
X167.12Y-109.67
X168.26Y-109.24
X171.5Y-109.21
X174.07Y-108.32
X177.25Y-109.47
X178.322Y-112.81
X180.81Y-108.79
X181.748Y-108.0
X181.852Y-111.45
X181.977Y-108.99
X182.31Y-106.18
X185.352Y-116.37
X186.683Y-111.42
X186.697Y-109.01
T4
X164.33Y-102.2G85X164.33Y-101.0
G05
X164.33Y-106.0G85X164.33Y-105.2
G05
X175.57Y-102.2G85X175.57Y-101.0
G05
X175.57Y-106.0G85X175.57Y-105.2
G05
M30
