G04 #@! TF.GenerationSoftware,KiCad,Pcbnew,8.0.4*
G04 #@! TF.CreationDate,2024-10-04T00:04:43-04:00*
G04 #@! TF.ProjectId,BlueSTM32,426c7565-5354-44d3-9332-2e6b69636164,rev?*
G04 #@! TF.SameCoordinates,Original*
G04 #@! TF.FileFunction,Legend,Bot*
G04 #@! TF.FilePolarity,Positive*
%FSLAX46Y46*%
G04 Gerber Fmt 4.6, Leading zero omitted, Abs format (unit mm)*
G04 Created by KiCad (PCBNEW 8.0.4) date 2024-10-04 00:04:43*
%MOMM*%
%LPD*%
G01*
G04 APERTURE LIST*
G04 Aperture macros list*
%AMRoundRect*
0 Rectangle with rounded corners*
0 $1 Rounding radius*
0 $2 $3 $4 $5 $6 $7 $8 $9 X,Y pos of 4 corners*
0 Add a 4 corners polygon primitive as box body*
4,1,4,$2,$3,$4,$5,$6,$7,$8,$9,$2,$3,0*
0 Add four circle primitives for the rounded corners*
1,1,$1+$1,$2,$3*
1,1,$1+$1,$4,$5*
1,1,$1+$1,$6,$7*
1,1,$1+$1,$8,$9*
0 Add four rect primitives between the rounded corners*
20,1,$1+$1,$2,$3,$4,$5,0*
20,1,$1+$1,$4,$5,$6,$7,0*
20,1,$1+$1,$6,$7,$8,$9,0*
20,1,$1+$1,$8,$9,$2,$3,0*%
G04 Aperture macros list end*
%ADD10C,0.100000*%
%ADD11C,0.150000*%
%ADD12C,0.120000*%
%ADD13C,0.010000*%
%ADD14C,4.000000*%
%ADD15RoundRect,0.160000X-0.197500X-0.160000X0.197500X-0.160000X0.197500X0.160000X-0.197500X0.160000X0*%
%ADD16RoundRect,0.160000X0.197500X0.160000X-0.197500X0.160000X-0.197500X-0.160000X0.197500X-0.160000X0*%
%ADD17RoundRect,0.160000X0.160000X-0.197500X0.160000X0.197500X-0.160000X0.197500X-0.160000X-0.197500X0*%
%ADD18RoundRect,0.160000X-0.160000X0.197500X-0.160000X-0.197500X0.160000X-0.197500X0.160000X0.197500X0*%
%ADD19C,0.990600*%
%ADD20RoundRect,0.155000X-0.155000X0.212500X-0.155000X-0.212500X0.155000X-0.212500X0.155000X0.212500X0*%
%ADD21RoundRect,0.155000X0.155000X-0.212500X0.155000X0.212500X-0.155000X0.212500X-0.155000X-0.212500X0*%
%ADD22RoundRect,0.155000X0.212500X0.155000X-0.212500X0.155000X-0.212500X-0.155000X0.212500X-0.155000X0*%
%ADD23RoundRect,0.155000X-0.212500X-0.155000X0.212500X-0.155000X0.212500X0.155000X-0.212500X0.155000X0*%
%ADD24RoundRect,0.237500X0.237500X-0.300000X0.237500X0.300000X-0.237500X0.300000X-0.237500X-0.300000X0*%
%ADD25RoundRect,0.237500X-0.237500X0.300000X-0.237500X-0.300000X0.237500X-0.300000X0.237500X0.300000X0*%
G04 APERTURE END LIST*
D10*
X165910000Y-122400000D02*
X165890000Y-122000000D01*
X167540000Y-122395835D02*
X165910000Y-122400000D01*
X166490000Y-120150000D02*
X166470000Y-119900000D01*
X167540000Y-120125835D02*
X166490000Y-120150000D01*
X165910000Y-117840000D02*
X165910000Y-117520000D01*
X167530000Y-117835835D02*
X165910000Y-117840000D01*
X170350000Y-116290000D02*
X170380000Y-116640000D01*
X174900000Y-117850000D02*
X174890000Y-117050000D01*
X173170000Y-117835835D02*
X174900000Y-117850000D01*
X174870000Y-120130000D02*
X174880000Y-119760000D01*
X173170000Y-120125835D02*
X174870000Y-120130000D01*
X174690000Y-122400000D02*
X174670000Y-121890000D01*
X173170000Y-122395835D02*
X174690000Y-122400000D01*
X170330000Y-123590000D02*
X170330000Y-123300000D01*
X172370000Y-108680000D02*
X172370000Y-109090000D01*
X167470000Y-108700000D02*
X167480000Y-109120000D01*
X185142500Y-134772500D02*
X185150000Y-134180000D01*
X185120000Y-125200000D02*
X185132500Y-125492500D01*
X186770000Y-122770000D02*
X185800000Y-122770000D01*
X186750000Y-121590000D02*
X186770000Y-122770000D01*
X182290000Y-122770000D02*
X183720000Y-122770000D01*
X182300000Y-121530000D02*
X182290000Y-122770000D01*
X179610000Y-111330000D02*
X179600000Y-112290000D01*
X182270000Y-111280000D02*
X182260000Y-111810000D01*
X185090000Y-111300000D02*
X185090000Y-111850000D01*
X187880000Y-111410000D02*
X187880000Y-112280000D01*
X186950000Y-108300000D02*
X186950000Y-107570000D01*
X185517500Y-108297621D02*
X186950000Y-108300000D01*
X182290000Y-108290000D02*
X182300000Y-107870000D01*
X183547500Y-108287621D02*
X182290000Y-108290000D01*
D11*
X158081904Y-100442438D02*
X158177142Y-100394819D01*
X158177142Y-100394819D02*
X158319999Y-100394819D01*
X158319999Y-100394819D02*
X158462856Y-100442438D01*
X158462856Y-100442438D02*
X158558094Y-100537676D01*
X158558094Y-100537676D02*
X158605713Y-100632914D01*
X158605713Y-100632914D02*
X158653332Y-100823390D01*
X158653332Y-100823390D02*
X158653332Y-100966247D01*
X158653332Y-100966247D02*
X158605713Y-101156723D01*
X158605713Y-101156723D02*
X158558094Y-101251961D01*
X158558094Y-101251961D02*
X158462856Y-101347200D01*
X158462856Y-101347200D02*
X158319999Y-101394819D01*
X158319999Y-101394819D02*
X158224761Y-101394819D01*
X158224761Y-101394819D02*
X158081904Y-101347200D01*
X158081904Y-101347200D02*
X158034285Y-101299580D01*
X158034285Y-101299580D02*
X158034285Y-100966247D01*
X158034285Y-100966247D02*
X158224761Y-100966247D01*
X157605713Y-101394819D02*
X157605713Y-100394819D01*
X157605713Y-100394819D02*
X157034285Y-101394819D01*
X157034285Y-101394819D02*
X157034285Y-100394819D01*
X156558094Y-101394819D02*
X156558094Y-100394819D01*
X156558094Y-100394819D02*
X156319999Y-100394819D01*
X156319999Y-100394819D02*
X156177142Y-100442438D01*
X156177142Y-100442438D02*
X156081904Y-100537676D01*
X156081904Y-100537676D02*
X156034285Y-100632914D01*
X156034285Y-100632914D02*
X155986666Y-100823390D01*
X155986666Y-100823390D02*
X155986666Y-100966247D01*
X155986666Y-100966247D02*
X156034285Y-101156723D01*
X156034285Y-101156723D02*
X156081904Y-101251961D01*
X156081904Y-101251961D02*
X156177142Y-101347200D01*
X156177142Y-101347200D02*
X156319999Y-101394819D01*
X156319999Y-101394819D02*
X156558094Y-101394819D01*
X184057142Y-100931009D02*
X183914285Y-100978628D01*
X183914285Y-100978628D02*
X183866666Y-101026247D01*
X183866666Y-101026247D02*
X183819047Y-101121485D01*
X183819047Y-101121485D02*
X183819047Y-101264342D01*
X183819047Y-101264342D02*
X183866666Y-101359580D01*
X183866666Y-101359580D02*
X183914285Y-101407200D01*
X183914285Y-101407200D02*
X184009523Y-101454819D01*
X184009523Y-101454819D02*
X184390475Y-101454819D01*
X184390475Y-101454819D02*
X184390475Y-100454819D01*
X184390475Y-100454819D02*
X184057142Y-100454819D01*
X184057142Y-100454819D02*
X183961904Y-100502438D01*
X183961904Y-100502438D02*
X183914285Y-100550057D01*
X183914285Y-100550057D02*
X183866666Y-100645295D01*
X183866666Y-100645295D02*
X183866666Y-100740533D01*
X183866666Y-100740533D02*
X183914285Y-100835771D01*
X183914285Y-100835771D02*
X183961904Y-100883390D01*
X183961904Y-100883390D02*
X184057142Y-100931009D01*
X184057142Y-100931009D02*
X184390475Y-100931009D01*
X183438094Y-101169104D02*
X182961904Y-101169104D01*
X183533332Y-101454819D02*
X183199999Y-100454819D01*
X183199999Y-100454819D02*
X182866666Y-101454819D01*
X182676189Y-100454819D02*
X182104761Y-100454819D01*
X182390475Y-101454819D02*
X182390475Y-100454819D01*
X181771427Y-101073866D02*
X181009523Y-101073866D01*
X181390475Y-101454819D02*
X181390475Y-100692914D01*
X173012857Y-110274819D02*
X173346190Y-109798628D01*
X173584285Y-110274819D02*
X173584285Y-109274819D01*
X173584285Y-109274819D02*
X173203333Y-109274819D01*
X173203333Y-109274819D02*
X173108095Y-109322438D01*
X173108095Y-109322438D02*
X173060476Y-109370057D01*
X173060476Y-109370057D02*
X173012857Y-109465295D01*
X173012857Y-109465295D02*
X173012857Y-109608152D01*
X173012857Y-109608152D02*
X173060476Y-109703390D01*
X173060476Y-109703390D02*
X173108095Y-109751009D01*
X173108095Y-109751009D02*
X173203333Y-109798628D01*
X173203333Y-109798628D02*
X173584285Y-109798628D01*
X172060476Y-110274819D02*
X172631904Y-110274819D01*
X172346190Y-110274819D02*
X172346190Y-109274819D01*
X172346190Y-109274819D02*
X172441428Y-109417676D01*
X172441428Y-109417676D02*
X172536666Y-109512914D01*
X172536666Y-109512914D02*
X172631904Y-109560533D01*
X171441428Y-109274819D02*
X171346190Y-109274819D01*
X171346190Y-109274819D02*
X171250952Y-109322438D01*
X171250952Y-109322438D02*
X171203333Y-109370057D01*
X171203333Y-109370057D02*
X171155714Y-109465295D01*
X171155714Y-109465295D02*
X171108095Y-109655771D01*
X171108095Y-109655771D02*
X171108095Y-109893866D01*
X171108095Y-109893866D02*
X171155714Y-110084342D01*
X171155714Y-110084342D02*
X171203333Y-110179580D01*
X171203333Y-110179580D02*
X171250952Y-110227200D01*
X171250952Y-110227200D02*
X171346190Y-110274819D01*
X171346190Y-110274819D02*
X171441428Y-110274819D01*
X171441428Y-110274819D02*
X171536666Y-110227200D01*
X171536666Y-110227200D02*
X171584285Y-110179580D01*
X171584285Y-110179580D02*
X171631904Y-110084342D01*
X171631904Y-110084342D02*
X171679523Y-109893866D01*
X171679523Y-109893866D02*
X171679523Y-109655771D01*
X171679523Y-109655771D02*
X171631904Y-109465295D01*
X171631904Y-109465295D02*
X171584285Y-109370057D01*
X171584285Y-109370057D02*
X171536666Y-109322438D01*
X171536666Y-109322438D02*
X171441428Y-109274819D01*
X167496666Y-110274819D02*
X167829999Y-109798628D01*
X168068094Y-110274819D02*
X168068094Y-109274819D01*
X168068094Y-109274819D02*
X167687142Y-109274819D01*
X167687142Y-109274819D02*
X167591904Y-109322438D01*
X167591904Y-109322438D02*
X167544285Y-109370057D01*
X167544285Y-109370057D02*
X167496666Y-109465295D01*
X167496666Y-109465295D02*
X167496666Y-109608152D01*
X167496666Y-109608152D02*
X167544285Y-109703390D01*
X167544285Y-109703390D02*
X167591904Y-109751009D01*
X167591904Y-109751009D02*
X167687142Y-109798628D01*
X167687142Y-109798628D02*
X168068094Y-109798628D01*
X167020475Y-110274819D02*
X166829999Y-110274819D01*
X166829999Y-110274819D02*
X166734761Y-110227200D01*
X166734761Y-110227200D02*
X166687142Y-110179580D01*
X166687142Y-110179580D02*
X166591904Y-110036723D01*
X166591904Y-110036723D02*
X166544285Y-109846247D01*
X166544285Y-109846247D02*
X166544285Y-109465295D01*
X166544285Y-109465295D02*
X166591904Y-109370057D01*
X166591904Y-109370057D02*
X166639523Y-109322438D01*
X166639523Y-109322438D02*
X166734761Y-109274819D01*
X166734761Y-109274819D02*
X166925237Y-109274819D01*
X166925237Y-109274819D02*
X167020475Y-109322438D01*
X167020475Y-109322438D02*
X167068094Y-109370057D01*
X167068094Y-109370057D02*
X167115713Y-109465295D01*
X167115713Y-109465295D02*
X167115713Y-109703390D01*
X167115713Y-109703390D02*
X167068094Y-109798628D01*
X167068094Y-109798628D02*
X167020475Y-109846247D01*
X167020475Y-109846247D02*
X166925237Y-109893866D01*
X166925237Y-109893866D02*
X166734761Y-109893866D01*
X166734761Y-109893866D02*
X166639523Y-109846247D01*
X166639523Y-109846247D02*
X166591904Y-109798628D01*
X166591904Y-109798628D02*
X166544285Y-109703390D01*
X187086666Y-107454819D02*
X187419999Y-106978628D01*
X187658094Y-107454819D02*
X187658094Y-106454819D01*
X187658094Y-106454819D02*
X187277142Y-106454819D01*
X187277142Y-106454819D02*
X187181904Y-106502438D01*
X187181904Y-106502438D02*
X187134285Y-106550057D01*
X187134285Y-106550057D02*
X187086666Y-106645295D01*
X187086666Y-106645295D02*
X187086666Y-106788152D01*
X187086666Y-106788152D02*
X187134285Y-106883390D01*
X187134285Y-106883390D02*
X187181904Y-106931009D01*
X187181904Y-106931009D02*
X187277142Y-106978628D01*
X187277142Y-106978628D02*
X187658094Y-106978628D01*
X186181904Y-106454819D02*
X186658094Y-106454819D01*
X186658094Y-106454819D02*
X186705713Y-106931009D01*
X186705713Y-106931009D02*
X186658094Y-106883390D01*
X186658094Y-106883390D02*
X186562856Y-106835771D01*
X186562856Y-106835771D02*
X186324761Y-106835771D01*
X186324761Y-106835771D02*
X186229523Y-106883390D01*
X186229523Y-106883390D02*
X186181904Y-106931009D01*
X186181904Y-106931009D02*
X186134285Y-107026247D01*
X186134285Y-107026247D02*
X186134285Y-107264342D01*
X186134285Y-107264342D02*
X186181904Y-107359580D01*
X186181904Y-107359580D02*
X186229523Y-107407200D01*
X186229523Y-107407200D02*
X186324761Y-107454819D01*
X186324761Y-107454819D02*
X186562856Y-107454819D01*
X186562856Y-107454819D02*
X186658094Y-107407200D01*
X186658094Y-107407200D02*
X186705713Y-107359580D01*
X182496666Y-107714819D02*
X182829999Y-107238628D01*
X183068094Y-107714819D02*
X183068094Y-106714819D01*
X183068094Y-106714819D02*
X182687142Y-106714819D01*
X182687142Y-106714819D02*
X182591904Y-106762438D01*
X182591904Y-106762438D02*
X182544285Y-106810057D01*
X182544285Y-106810057D02*
X182496666Y-106905295D01*
X182496666Y-106905295D02*
X182496666Y-107048152D01*
X182496666Y-107048152D02*
X182544285Y-107143390D01*
X182544285Y-107143390D02*
X182591904Y-107191009D01*
X182591904Y-107191009D02*
X182687142Y-107238628D01*
X182687142Y-107238628D02*
X183068094Y-107238628D01*
X181639523Y-107048152D02*
X181639523Y-107714819D01*
X181877618Y-106667200D02*
X182115713Y-107381485D01*
X182115713Y-107381485D02*
X181496666Y-107381485D01*
X175522857Y-116939580D02*
X175570476Y-116987200D01*
X175570476Y-116987200D02*
X175713333Y-117034819D01*
X175713333Y-117034819D02*
X175808571Y-117034819D01*
X175808571Y-117034819D02*
X175951428Y-116987200D01*
X175951428Y-116987200D02*
X176046666Y-116891961D01*
X176046666Y-116891961D02*
X176094285Y-116796723D01*
X176094285Y-116796723D02*
X176141904Y-116606247D01*
X176141904Y-116606247D02*
X176141904Y-116463390D01*
X176141904Y-116463390D02*
X176094285Y-116272914D01*
X176094285Y-116272914D02*
X176046666Y-116177676D01*
X176046666Y-116177676D02*
X175951428Y-116082438D01*
X175951428Y-116082438D02*
X175808571Y-116034819D01*
X175808571Y-116034819D02*
X175713333Y-116034819D01*
X175713333Y-116034819D02*
X175570476Y-116082438D01*
X175570476Y-116082438D02*
X175522857Y-116130057D01*
X175141904Y-116130057D02*
X175094285Y-116082438D01*
X175094285Y-116082438D02*
X174999047Y-116034819D01*
X174999047Y-116034819D02*
X174760952Y-116034819D01*
X174760952Y-116034819D02*
X174665714Y-116082438D01*
X174665714Y-116082438D02*
X174618095Y-116130057D01*
X174618095Y-116130057D02*
X174570476Y-116225295D01*
X174570476Y-116225295D02*
X174570476Y-116320533D01*
X174570476Y-116320533D02*
X174618095Y-116463390D01*
X174618095Y-116463390D02*
X175189523Y-117034819D01*
X175189523Y-117034819D02*
X174570476Y-117034819D01*
X174189523Y-116130057D02*
X174141904Y-116082438D01*
X174141904Y-116082438D02*
X174046666Y-116034819D01*
X174046666Y-116034819D02*
X173808571Y-116034819D01*
X173808571Y-116034819D02*
X173713333Y-116082438D01*
X173713333Y-116082438D02*
X173665714Y-116130057D01*
X173665714Y-116130057D02*
X173618095Y-116225295D01*
X173618095Y-116225295D02*
X173618095Y-116320533D01*
X173618095Y-116320533D02*
X173665714Y-116463390D01*
X173665714Y-116463390D02*
X174237142Y-117034819D01*
X174237142Y-117034819D02*
X173618095Y-117034819D01*
X175412857Y-121759580D02*
X175460476Y-121807200D01*
X175460476Y-121807200D02*
X175603333Y-121854819D01*
X175603333Y-121854819D02*
X175698571Y-121854819D01*
X175698571Y-121854819D02*
X175841428Y-121807200D01*
X175841428Y-121807200D02*
X175936666Y-121711961D01*
X175936666Y-121711961D02*
X175984285Y-121616723D01*
X175984285Y-121616723D02*
X176031904Y-121426247D01*
X176031904Y-121426247D02*
X176031904Y-121283390D01*
X176031904Y-121283390D02*
X175984285Y-121092914D01*
X175984285Y-121092914D02*
X175936666Y-120997676D01*
X175936666Y-120997676D02*
X175841428Y-120902438D01*
X175841428Y-120902438D02*
X175698571Y-120854819D01*
X175698571Y-120854819D02*
X175603333Y-120854819D01*
X175603333Y-120854819D02*
X175460476Y-120902438D01*
X175460476Y-120902438D02*
X175412857Y-120950057D01*
X175031904Y-120950057D02*
X174984285Y-120902438D01*
X174984285Y-120902438D02*
X174889047Y-120854819D01*
X174889047Y-120854819D02*
X174650952Y-120854819D01*
X174650952Y-120854819D02*
X174555714Y-120902438D01*
X174555714Y-120902438D02*
X174508095Y-120950057D01*
X174508095Y-120950057D02*
X174460476Y-121045295D01*
X174460476Y-121045295D02*
X174460476Y-121140533D01*
X174460476Y-121140533D02*
X174508095Y-121283390D01*
X174508095Y-121283390D02*
X175079523Y-121854819D01*
X175079523Y-121854819D02*
X174460476Y-121854819D01*
X173508095Y-121854819D02*
X174079523Y-121854819D01*
X173793809Y-121854819D02*
X173793809Y-120854819D01*
X173793809Y-120854819D02*
X173889047Y-120997676D01*
X173889047Y-120997676D02*
X173984285Y-121092914D01*
X173984285Y-121092914D02*
X174079523Y-121140533D01*
X170972857Y-124539580D02*
X171020476Y-124587200D01*
X171020476Y-124587200D02*
X171163333Y-124634819D01*
X171163333Y-124634819D02*
X171258571Y-124634819D01*
X171258571Y-124634819D02*
X171401428Y-124587200D01*
X171401428Y-124587200D02*
X171496666Y-124491961D01*
X171496666Y-124491961D02*
X171544285Y-124396723D01*
X171544285Y-124396723D02*
X171591904Y-124206247D01*
X171591904Y-124206247D02*
X171591904Y-124063390D01*
X171591904Y-124063390D02*
X171544285Y-123872914D01*
X171544285Y-123872914D02*
X171496666Y-123777676D01*
X171496666Y-123777676D02*
X171401428Y-123682438D01*
X171401428Y-123682438D02*
X171258571Y-123634819D01*
X171258571Y-123634819D02*
X171163333Y-123634819D01*
X171163333Y-123634819D02*
X171020476Y-123682438D01*
X171020476Y-123682438D02*
X170972857Y-123730057D01*
X170591904Y-123730057D02*
X170544285Y-123682438D01*
X170544285Y-123682438D02*
X170449047Y-123634819D01*
X170449047Y-123634819D02*
X170210952Y-123634819D01*
X170210952Y-123634819D02*
X170115714Y-123682438D01*
X170115714Y-123682438D02*
X170068095Y-123730057D01*
X170068095Y-123730057D02*
X170020476Y-123825295D01*
X170020476Y-123825295D02*
X170020476Y-123920533D01*
X170020476Y-123920533D02*
X170068095Y-124063390D01*
X170068095Y-124063390D02*
X170639523Y-124634819D01*
X170639523Y-124634819D02*
X170020476Y-124634819D01*
X169401428Y-123634819D02*
X169306190Y-123634819D01*
X169306190Y-123634819D02*
X169210952Y-123682438D01*
X169210952Y-123682438D02*
X169163333Y-123730057D01*
X169163333Y-123730057D02*
X169115714Y-123825295D01*
X169115714Y-123825295D02*
X169068095Y-124015771D01*
X169068095Y-124015771D02*
X169068095Y-124253866D01*
X169068095Y-124253866D02*
X169115714Y-124444342D01*
X169115714Y-124444342D02*
X169163333Y-124539580D01*
X169163333Y-124539580D02*
X169210952Y-124587200D01*
X169210952Y-124587200D02*
X169306190Y-124634819D01*
X169306190Y-124634819D02*
X169401428Y-124634819D01*
X169401428Y-124634819D02*
X169496666Y-124587200D01*
X169496666Y-124587200D02*
X169544285Y-124539580D01*
X169544285Y-124539580D02*
X169591904Y-124444342D01*
X169591904Y-124444342D02*
X169639523Y-124253866D01*
X169639523Y-124253866D02*
X169639523Y-124015771D01*
X169639523Y-124015771D02*
X169591904Y-123825295D01*
X169591904Y-123825295D02*
X169544285Y-123730057D01*
X169544285Y-123730057D02*
X169496666Y-123682438D01*
X169496666Y-123682438D02*
X169401428Y-123634819D01*
X171012857Y-116189580D02*
X171060476Y-116237200D01*
X171060476Y-116237200D02*
X171203333Y-116284819D01*
X171203333Y-116284819D02*
X171298571Y-116284819D01*
X171298571Y-116284819D02*
X171441428Y-116237200D01*
X171441428Y-116237200D02*
X171536666Y-116141961D01*
X171536666Y-116141961D02*
X171584285Y-116046723D01*
X171584285Y-116046723D02*
X171631904Y-115856247D01*
X171631904Y-115856247D02*
X171631904Y-115713390D01*
X171631904Y-115713390D02*
X171584285Y-115522914D01*
X171584285Y-115522914D02*
X171536666Y-115427676D01*
X171536666Y-115427676D02*
X171441428Y-115332438D01*
X171441428Y-115332438D02*
X171298571Y-115284819D01*
X171298571Y-115284819D02*
X171203333Y-115284819D01*
X171203333Y-115284819D02*
X171060476Y-115332438D01*
X171060476Y-115332438D02*
X171012857Y-115380057D01*
X170060476Y-116284819D02*
X170631904Y-116284819D01*
X170346190Y-116284819D02*
X170346190Y-115284819D01*
X170346190Y-115284819D02*
X170441428Y-115427676D01*
X170441428Y-115427676D02*
X170536666Y-115522914D01*
X170536666Y-115522914D02*
X170631904Y-115570533D01*
X169584285Y-116284819D02*
X169393809Y-116284819D01*
X169393809Y-116284819D02*
X169298571Y-116237200D01*
X169298571Y-116237200D02*
X169250952Y-116189580D01*
X169250952Y-116189580D02*
X169155714Y-116046723D01*
X169155714Y-116046723D02*
X169108095Y-115856247D01*
X169108095Y-115856247D02*
X169108095Y-115475295D01*
X169108095Y-115475295D02*
X169155714Y-115380057D01*
X169155714Y-115380057D02*
X169203333Y-115332438D01*
X169203333Y-115332438D02*
X169298571Y-115284819D01*
X169298571Y-115284819D02*
X169489047Y-115284819D01*
X169489047Y-115284819D02*
X169584285Y-115332438D01*
X169584285Y-115332438D02*
X169631904Y-115380057D01*
X169631904Y-115380057D02*
X169679523Y-115475295D01*
X169679523Y-115475295D02*
X169679523Y-115713390D01*
X169679523Y-115713390D02*
X169631904Y-115808628D01*
X169631904Y-115808628D02*
X169584285Y-115856247D01*
X169584285Y-115856247D02*
X169489047Y-115903866D01*
X169489047Y-115903866D02*
X169298571Y-115903866D01*
X169298571Y-115903866D02*
X169203333Y-115856247D01*
X169203333Y-115856247D02*
X169155714Y-115808628D01*
X169155714Y-115808628D02*
X169108095Y-115713390D01*
X166562857Y-117419580D02*
X166610476Y-117467200D01*
X166610476Y-117467200D02*
X166753333Y-117514819D01*
X166753333Y-117514819D02*
X166848571Y-117514819D01*
X166848571Y-117514819D02*
X166991428Y-117467200D01*
X166991428Y-117467200D02*
X167086666Y-117371961D01*
X167086666Y-117371961D02*
X167134285Y-117276723D01*
X167134285Y-117276723D02*
X167181904Y-117086247D01*
X167181904Y-117086247D02*
X167181904Y-116943390D01*
X167181904Y-116943390D02*
X167134285Y-116752914D01*
X167134285Y-116752914D02*
X167086666Y-116657676D01*
X167086666Y-116657676D02*
X166991428Y-116562438D01*
X166991428Y-116562438D02*
X166848571Y-116514819D01*
X166848571Y-116514819D02*
X166753333Y-116514819D01*
X166753333Y-116514819D02*
X166610476Y-116562438D01*
X166610476Y-116562438D02*
X166562857Y-116610057D01*
X165610476Y-117514819D02*
X166181904Y-117514819D01*
X165896190Y-117514819D02*
X165896190Y-116514819D01*
X165896190Y-116514819D02*
X165991428Y-116657676D01*
X165991428Y-116657676D02*
X166086666Y-116752914D01*
X166086666Y-116752914D02*
X166181904Y-116800533D01*
X165039047Y-116943390D02*
X165134285Y-116895771D01*
X165134285Y-116895771D02*
X165181904Y-116848152D01*
X165181904Y-116848152D02*
X165229523Y-116752914D01*
X165229523Y-116752914D02*
X165229523Y-116705295D01*
X165229523Y-116705295D02*
X165181904Y-116610057D01*
X165181904Y-116610057D02*
X165134285Y-116562438D01*
X165134285Y-116562438D02*
X165039047Y-116514819D01*
X165039047Y-116514819D02*
X164848571Y-116514819D01*
X164848571Y-116514819D02*
X164753333Y-116562438D01*
X164753333Y-116562438D02*
X164705714Y-116610057D01*
X164705714Y-116610057D02*
X164658095Y-116705295D01*
X164658095Y-116705295D02*
X164658095Y-116752914D01*
X164658095Y-116752914D02*
X164705714Y-116848152D01*
X164705714Y-116848152D02*
X164753333Y-116895771D01*
X164753333Y-116895771D02*
X164848571Y-116943390D01*
X164848571Y-116943390D02*
X165039047Y-116943390D01*
X165039047Y-116943390D02*
X165134285Y-116991009D01*
X165134285Y-116991009D02*
X165181904Y-117038628D01*
X165181904Y-117038628D02*
X165229523Y-117133866D01*
X165229523Y-117133866D02*
X165229523Y-117324342D01*
X165229523Y-117324342D02*
X165181904Y-117419580D01*
X165181904Y-117419580D02*
X165134285Y-117467200D01*
X165134285Y-117467200D02*
X165039047Y-117514819D01*
X165039047Y-117514819D02*
X164848571Y-117514819D01*
X164848571Y-117514819D02*
X164753333Y-117467200D01*
X164753333Y-117467200D02*
X164705714Y-117419580D01*
X164705714Y-117419580D02*
X164658095Y-117324342D01*
X164658095Y-117324342D02*
X164658095Y-117133866D01*
X164658095Y-117133866D02*
X164705714Y-117038628D01*
X164705714Y-117038628D02*
X164753333Y-116991009D01*
X164753333Y-116991009D02*
X164848571Y-116943390D01*
X166552857Y-121899580D02*
X166600476Y-121947200D01*
X166600476Y-121947200D02*
X166743333Y-121994819D01*
X166743333Y-121994819D02*
X166838571Y-121994819D01*
X166838571Y-121994819D02*
X166981428Y-121947200D01*
X166981428Y-121947200D02*
X167076666Y-121851961D01*
X167076666Y-121851961D02*
X167124285Y-121756723D01*
X167124285Y-121756723D02*
X167171904Y-121566247D01*
X167171904Y-121566247D02*
X167171904Y-121423390D01*
X167171904Y-121423390D02*
X167124285Y-121232914D01*
X167124285Y-121232914D02*
X167076666Y-121137676D01*
X167076666Y-121137676D02*
X166981428Y-121042438D01*
X166981428Y-121042438D02*
X166838571Y-120994819D01*
X166838571Y-120994819D02*
X166743333Y-120994819D01*
X166743333Y-120994819D02*
X166600476Y-121042438D01*
X166600476Y-121042438D02*
X166552857Y-121090057D01*
X165600476Y-121994819D02*
X166171904Y-121994819D01*
X165886190Y-121994819D02*
X165886190Y-120994819D01*
X165886190Y-120994819D02*
X165981428Y-121137676D01*
X165981428Y-121137676D02*
X166076666Y-121232914D01*
X166076666Y-121232914D02*
X166171904Y-121280533D01*
X165267142Y-120994819D02*
X164600476Y-120994819D01*
X164600476Y-120994819D02*
X165029047Y-121994819D01*
X175532857Y-119629580D02*
X175580476Y-119677200D01*
X175580476Y-119677200D02*
X175723333Y-119724819D01*
X175723333Y-119724819D02*
X175818571Y-119724819D01*
X175818571Y-119724819D02*
X175961428Y-119677200D01*
X175961428Y-119677200D02*
X176056666Y-119581961D01*
X176056666Y-119581961D02*
X176104285Y-119486723D01*
X176104285Y-119486723D02*
X176151904Y-119296247D01*
X176151904Y-119296247D02*
X176151904Y-119153390D01*
X176151904Y-119153390D02*
X176104285Y-118962914D01*
X176104285Y-118962914D02*
X176056666Y-118867676D01*
X176056666Y-118867676D02*
X175961428Y-118772438D01*
X175961428Y-118772438D02*
X175818571Y-118724819D01*
X175818571Y-118724819D02*
X175723333Y-118724819D01*
X175723333Y-118724819D02*
X175580476Y-118772438D01*
X175580476Y-118772438D02*
X175532857Y-118820057D01*
X174580476Y-119724819D02*
X175151904Y-119724819D01*
X174866190Y-119724819D02*
X174866190Y-118724819D01*
X174866190Y-118724819D02*
X174961428Y-118867676D01*
X174961428Y-118867676D02*
X175056666Y-118962914D01*
X175056666Y-118962914D02*
X175151904Y-119010533D01*
X173723333Y-118724819D02*
X173913809Y-118724819D01*
X173913809Y-118724819D02*
X174009047Y-118772438D01*
X174009047Y-118772438D02*
X174056666Y-118820057D01*
X174056666Y-118820057D02*
X174151904Y-118962914D01*
X174151904Y-118962914D02*
X174199523Y-119153390D01*
X174199523Y-119153390D02*
X174199523Y-119534342D01*
X174199523Y-119534342D02*
X174151904Y-119629580D01*
X174151904Y-119629580D02*
X174104285Y-119677200D01*
X174104285Y-119677200D02*
X174009047Y-119724819D01*
X174009047Y-119724819D02*
X173818571Y-119724819D01*
X173818571Y-119724819D02*
X173723333Y-119677200D01*
X173723333Y-119677200D02*
X173675714Y-119629580D01*
X173675714Y-119629580D02*
X173628095Y-119534342D01*
X173628095Y-119534342D02*
X173628095Y-119296247D01*
X173628095Y-119296247D02*
X173675714Y-119201009D01*
X173675714Y-119201009D02*
X173723333Y-119153390D01*
X173723333Y-119153390D02*
X173818571Y-119105771D01*
X173818571Y-119105771D02*
X174009047Y-119105771D01*
X174009047Y-119105771D02*
X174104285Y-119153390D01*
X174104285Y-119153390D02*
X174151904Y-119201009D01*
X174151904Y-119201009D02*
X174199523Y-119296247D01*
X185775357Y-125052080D02*
X185822976Y-125099700D01*
X185822976Y-125099700D02*
X185965833Y-125147319D01*
X185965833Y-125147319D02*
X186061071Y-125147319D01*
X186061071Y-125147319D02*
X186203928Y-125099700D01*
X186203928Y-125099700D02*
X186299166Y-125004461D01*
X186299166Y-125004461D02*
X186346785Y-124909223D01*
X186346785Y-124909223D02*
X186394404Y-124718747D01*
X186394404Y-124718747D02*
X186394404Y-124575890D01*
X186394404Y-124575890D02*
X186346785Y-124385414D01*
X186346785Y-124385414D02*
X186299166Y-124290176D01*
X186299166Y-124290176D02*
X186203928Y-124194938D01*
X186203928Y-124194938D02*
X186061071Y-124147319D01*
X186061071Y-124147319D02*
X185965833Y-124147319D01*
X185965833Y-124147319D02*
X185822976Y-124194938D01*
X185822976Y-124194938D02*
X185775357Y-124242557D01*
X184822976Y-125147319D02*
X185394404Y-125147319D01*
X185108690Y-125147319D02*
X185108690Y-124147319D01*
X185108690Y-124147319D02*
X185203928Y-124290176D01*
X185203928Y-124290176D02*
X185299166Y-124385414D01*
X185299166Y-124385414D02*
X185394404Y-124433033D01*
X184442023Y-124242557D02*
X184394404Y-124194938D01*
X184394404Y-124194938D02*
X184299166Y-124147319D01*
X184299166Y-124147319D02*
X184061071Y-124147319D01*
X184061071Y-124147319D02*
X183965833Y-124194938D01*
X183965833Y-124194938D02*
X183918214Y-124242557D01*
X183918214Y-124242557D02*
X183870595Y-124337795D01*
X183870595Y-124337795D02*
X183870595Y-124433033D01*
X183870595Y-124433033D02*
X183918214Y-124575890D01*
X183918214Y-124575890D02*
X184489642Y-125147319D01*
X184489642Y-125147319D02*
X183870595Y-125147319D01*
X182982857Y-121249580D02*
X183030476Y-121297200D01*
X183030476Y-121297200D02*
X183173333Y-121344819D01*
X183173333Y-121344819D02*
X183268571Y-121344819D01*
X183268571Y-121344819D02*
X183411428Y-121297200D01*
X183411428Y-121297200D02*
X183506666Y-121201961D01*
X183506666Y-121201961D02*
X183554285Y-121106723D01*
X183554285Y-121106723D02*
X183601904Y-120916247D01*
X183601904Y-120916247D02*
X183601904Y-120773390D01*
X183601904Y-120773390D02*
X183554285Y-120582914D01*
X183554285Y-120582914D02*
X183506666Y-120487676D01*
X183506666Y-120487676D02*
X183411428Y-120392438D01*
X183411428Y-120392438D02*
X183268571Y-120344819D01*
X183268571Y-120344819D02*
X183173333Y-120344819D01*
X183173333Y-120344819D02*
X183030476Y-120392438D01*
X183030476Y-120392438D02*
X182982857Y-120440057D01*
X182030476Y-121344819D02*
X182601904Y-121344819D01*
X182316190Y-121344819D02*
X182316190Y-120344819D01*
X182316190Y-120344819D02*
X182411428Y-120487676D01*
X182411428Y-120487676D02*
X182506666Y-120582914D01*
X182506666Y-120582914D02*
X182601904Y-120630533D01*
X181078095Y-121344819D02*
X181649523Y-121344819D01*
X181363809Y-121344819D02*
X181363809Y-120344819D01*
X181363809Y-120344819D02*
X181459047Y-120487676D01*
X181459047Y-120487676D02*
X181554285Y-120582914D01*
X181554285Y-120582914D02*
X181649523Y-120630533D01*
X187402857Y-121279580D02*
X187450476Y-121327200D01*
X187450476Y-121327200D02*
X187593333Y-121374819D01*
X187593333Y-121374819D02*
X187688571Y-121374819D01*
X187688571Y-121374819D02*
X187831428Y-121327200D01*
X187831428Y-121327200D02*
X187926666Y-121231961D01*
X187926666Y-121231961D02*
X187974285Y-121136723D01*
X187974285Y-121136723D02*
X188021904Y-120946247D01*
X188021904Y-120946247D02*
X188021904Y-120803390D01*
X188021904Y-120803390D02*
X187974285Y-120612914D01*
X187974285Y-120612914D02*
X187926666Y-120517676D01*
X187926666Y-120517676D02*
X187831428Y-120422438D01*
X187831428Y-120422438D02*
X187688571Y-120374819D01*
X187688571Y-120374819D02*
X187593333Y-120374819D01*
X187593333Y-120374819D02*
X187450476Y-120422438D01*
X187450476Y-120422438D02*
X187402857Y-120470057D01*
X186450476Y-121374819D02*
X187021904Y-121374819D01*
X186736190Y-121374819D02*
X186736190Y-120374819D01*
X186736190Y-120374819D02*
X186831428Y-120517676D01*
X186831428Y-120517676D02*
X186926666Y-120612914D01*
X186926666Y-120612914D02*
X187021904Y-120660533D01*
X185831428Y-120374819D02*
X185736190Y-120374819D01*
X185736190Y-120374819D02*
X185640952Y-120422438D01*
X185640952Y-120422438D02*
X185593333Y-120470057D01*
X185593333Y-120470057D02*
X185545714Y-120565295D01*
X185545714Y-120565295D02*
X185498095Y-120755771D01*
X185498095Y-120755771D02*
X185498095Y-120993866D01*
X185498095Y-120993866D02*
X185545714Y-121184342D01*
X185545714Y-121184342D02*
X185593333Y-121279580D01*
X185593333Y-121279580D02*
X185640952Y-121327200D01*
X185640952Y-121327200D02*
X185736190Y-121374819D01*
X185736190Y-121374819D02*
X185831428Y-121374819D01*
X185831428Y-121374819D02*
X185926666Y-121327200D01*
X185926666Y-121327200D02*
X185974285Y-121279580D01*
X185974285Y-121279580D02*
X186021904Y-121184342D01*
X186021904Y-121184342D02*
X186069523Y-120993866D01*
X186069523Y-120993866D02*
X186069523Y-120755771D01*
X186069523Y-120755771D02*
X186021904Y-120565295D01*
X186021904Y-120565295D02*
X185974285Y-120470057D01*
X185974285Y-120470057D02*
X185926666Y-120422438D01*
X185926666Y-120422438D02*
X185831428Y-120374819D01*
X185296666Y-133969580D02*
X185344285Y-134017200D01*
X185344285Y-134017200D02*
X185487142Y-134064819D01*
X185487142Y-134064819D02*
X185582380Y-134064819D01*
X185582380Y-134064819D02*
X185725237Y-134017200D01*
X185725237Y-134017200D02*
X185820475Y-133921961D01*
X185820475Y-133921961D02*
X185868094Y-133826723D01*
X185868094Y-133826723D02*
X185915713Y-133636247D01*
X185915713Y-133636247D02*
X185915713Y-133493390D01*
X185915713Y-133493390D02*
X185868094Y-133302914D01*
X185868094Y-133302914D02*
X185820475Y-133207676D01*
X185820475Y-133207676D02*
X185725237Y-133112438D01*
X185725237Y-133112438D02*
X185582380Y-133064819D01*
X185582380Y-133064819D02*
X185487142Y-133064819D01*
X185487142Y-133064819D02*
X185344285Y-133112438D01*
X185344285Y-133112438D02*
X185296666Y-133160057D01*
X184820475Y-134064819D02*
X184629999Y-134064819D01*
X184629999Y-134064819D02*
X184534761Y-134017200D01*
X184534761Y-134017200D02*
X184487142Y-133969580D01*
X184487142Y-133969580D02*
X184391904Y-133826723D01*
X184391904Y-133826723D02*
X184344285Y-133636247D01*
X184344285Y-133636247D02*
X184344285Y-133255295D01*
X184344285Y-133255295D02*
X184391904Y-133160057D01*
X184391904Y-133160057D02*
X184439523Y-133112438D01*
X184439523Y-133112438D02*
X184534761Y-133064819D01*
X184534761Y-133064819D02*
X184725237Y-133064819D01*
X184725237Y-133064819D02*
X184820475Y-133112438D01*
X184820475Y-133112438D02*
X184868094Y-133160057D01*
X184868094Y-133160057D02*
X184915713Y-133255295D01*
X184915713Y-133255295D02*
X184915713Y-133493390D01*
X184915713Y-133493390D02*
X184868094Y-133588628D01*
X184868094Y-133588628D02*
X184820475Y-133636247D01*
X184820475Y-133636247D02*
X184725237Y-133683866D01*
X184725237Y-133683866D02*
X184534761Y-133683866D01*
X184534761Y-133683866D02*
X184439523Y-133636247D01*
X184439523Y-133636247D02*
X184391904Y-133588628D01*
X184391904Y-133588628D02*
X184344285Y-133493390D01*
X182466666Y-111199580D02*
X182514285Y-111247200D01*
X182514285Y-111247200D02*
X182657142Y-111294819D01*
X182657142Y-111294819D02*
X182752380Y-111294819D01*
X182752380Y-111294819D02*
X182895237Y-111247200D01*
X182895237Y-111247200D02*
X182990475Y-111151961D01*
X182990475Y-111151961D02*
X183038094Y-111056723D01*
X183038094Y-111056723D02*
X183085713Y-110866247D01*
X183085713Y-110866247D02*
X183085713Y-110723390D01*
X183085713Y-110723390D02*
X183038094Y-110532914D01*
X183038094Y-110532914D02*
X182990475Y-110437676D01*
X182990475Y-110437676D02*
X182895237Y-110342438D01*
X182895237Y-110342438D02*
X182752380Y-110294819D01*
X182752380Y-110294819D02*
X182657142Y-110294819D01*
X182657142Y-110294819D02*
X182514285Y-110342438D01*
X182514285Y-110342438D02*
X182466666Y-110390057D01*
X181561904Y-110294819D02*
X182038094Y-110294819D01*
X182038094Y-110294819D02*
X182085713Y-110771009D01*
X182085713Y-110771009D02*
X182038094Y-110723390D01*
X182038094Y-110723390D02*
X181942856Y-110675771D01*
X181942856Y-110675771D02*
X181704761Y-110675771D01*
X181704761Y-110675771D02*
X181609523Y-110723390D01*
X181609523Y-110723390D02*
X181561904Y-110771009D01*
X181561904Y-110771009D02*
X181514285Y-110866247D01*
X181514285Y-110866247D02*
X181514285Y-111104342D01*
X181514285Y-111104342D02*
X181561904Y-111199580D01*
X181561904Y-111199580D02*
X181609523Y-111247200D01*
X181609523Y-111247200D02*
X181704761Y-111294819D01*
X181704761Y-111294819D02*
X181942856Y-111294819D01*
X181942856Y-111294819D02*
X182038094Y-111247200D01*
X182038094Y-111247200D02*
X182085713Y-111199580D01*
X185306666Y-111179580D02*
X185354285Y-111227200D01*
X185354285Y-111227200D02*
X185497142Y-111274819D01*
X185497142Y-111274819D02*
X185592380Y-111274819D01*
X185592380Y-111274819D02*
X185735237Y-111227200D01*
X185735237Y-111227200D02*
X185830475Y-111131961D01*
X185830475Y-111131961D02*
X185878094Y-111036723D01*
X185878094Y-111036723D02*
X185925713Y-110846247D01*
X185925713Y-110846247D02*
X185925713Y-110703390D01*
X185925713Y-110703390D02*
X185878094Y-110512914D01*
X185878094Y-110512914D02*
X185830475Y-110417676D01*
X185830475Y-110417676D02*
X185735237Y-110322438D01*
X185735237Y-110322438D02*
X185592380Y-110274819D01*
X185592380Y-110274819D02*
X185497142Y-110274819D01*
X185497142Y-110274819D02*
X185354285Y-110322438D01*
X185354285Y-110322438D02*
X185306666Y-110370057D01*
X184449523Y-110608152D02*
X184449523Y-111274819D01*
X184687618Y-110227200D02*
X184925713Y-110941485D01*
X184925713Y-110941485D02*
X184306666Y-110941485D01*
X188046666Y-111149580D02*
X188094285Y-111197200D01*
X188094285Y-111197200D02*
X188237142Y-111244819D01*
X188237142Y-111244819D02*
X188332380Y-111244819D01*
X188332380Y-111244819D02*
X188475237Y-111197200D01*
X188475237Y-111197200D02*
X188570475Y-111101961D01*
X188570475Y-111101961D02*
X188618094Y-111006723D01*
X188618094Y-111006723D02*
X188665713Y-110816247D01*
X188665713Y-110816247D02*
X188665713Y-110673390D01*
X188665713Y-110673390D02*
X188618094Y-110482914D01*
X188618094Y-110482914D02*
X188570475Y-110387676D01*
X188570475Y-110387676D02*
X188475237Y-110292438D01*
X188475237Y-110292438D02*
X188332380Y-110244819D01*
X188332380Y-110244819D02*
X188237142Y-110244819D01*
X188237142Y-110244819D02*
X188094285Y-110292438D01*
X188094285Y-110292438D02*
X188046666Y-110340057D01*
X187713332Y-110244819D02*
X187094285Y-110244819D01*
X187094285Y-110244819D02*
X187427618Y-110625771D01*
X187427618Y-110625771D02*
X187284761Y-110625771D01*
X187284761Y-110625771D02*
X187189523Y-110673390D01*
X187189523Y-110673390D02*
X187141904Y-110721009D01*
X187141904Y-110721009D02*
X187094285Y-110816247D01*
X187094285Y-110816247D02*
X187094285Y-111054342D01*
X187094285Y-111054342D02*
X187141904Y-111149580D01*
X187141904Y-111149580D02*
X187189523Y-111197200D01*
X187189523Y-111197200D02*
X187284761Y-111244819D01*
X187284761Y-111244819D02*
X187570475Y-111244819D01*
X187570475Y-111244819D02*
X187665713Y-111197200D01*
X187665713Y-111197200D02*
X187713332Y-111149580D01*
X179806666Y-111179580D02*
X179854285Y-111227200D01*
X179854285Y-111227200D02*
X179997142Y-111274819D01*
X179997142Y-111274819D02*
X180092380Y-111274819D01*
X180092380Y-111274819D02*
X180235237Y-111227200D01*
X180235237Y-111227200D02*
X180330475Y-111131961D01*
X180330475Y-111131961D02*
X180378094Y-111036723D01*
X180378094Y-111036723D02*
X180425713Y-110846247D01*
X180425713Y-110846247D02*
X180425713Y-110703390D01*
X180425713Y-110703390D02*
X180378094Y-110512914D01*
X180378094Y-110512914D02*
X180330475Y-110417676D01*
X180330475Y-110417676D02*
X180235237Y-110322438D01*
X180235237Y-110322438D02*
X180092380Y-110274819D01*
X180092380Y-110274819D02*
X179997142Y-110274819D01*
X179997142Y-110274819D02*
X179854285Y-110322438D01*
X179854285Y-110322438D02*
X179806666Y-110370057D01*
X179425713Y-110370057D02*
X179378094Y-110322438D01*
X179378094Y-110322438D02*
X179282856Y-110274819D01*
X179282856Y-110274819D02*
X179044761Y-110274819D01*
X179044761Y-110274819D02*
X178949523Y-110322438D01*
X178949523Y-110322438D02*
X178901904Y-110370057D01*
X178901904Y-110370057D02*
X178854285Y-110465295D01*
X178854285Y-110465295D02*
X178854285Y-110560533D01*
X178854285Y-110560533D02*
X178901904Y-110703390D01*
X178901904Y-110703390D02*
X179473332Y-111274819D01*
X179473332Y-111274819D02*
X178854285Y-111274819D01*
X166606666Y-119779580D02*
X166654285Y-119827200D01*
X166654285Y-119827200D02*
X166797142Y-119874819D01*
X166797142Y-119874819D02*
X166892380Y-119874819D01*
X166892380Y-119874819D02*
X167035237Y-119827200D01*
X167035237Y-119827200D02*
X167130475Y-119731961D01*
X167130475Y-119731961D02*
X167178094Y-119636723D01*
X167178094Y-119636723D02*
X167225713Y-119446247D01*
X167225713Y-119446247D02*
X167225713Y-119303390D01*
X167225713Y-119303390D02*
X167178094Y-119112914D01*
X167178094Y-119112914D02*
X167130475Y-119017676D01*
X167130475Y-119017676D02*
X167035237Y-118922438D01*
X167035237Y-118922438D02*
X166892380Y-118874819D01*
X166892380Y-118874819D02*
X166797142Y-118874819D01*
X166797142Y-118874819D02*
X166654285Y-118922438D01*
X166654285Y-118922438D02*
X166606666Y-118970057D01*
X165654285Y-119874819D02*
X166225713Y-119874819D01*
X165939999Y-119874819D02*
X165939999Y-118874819D01*
X165939999Y-118874819D02*
X166035237Y-119017676D01*
X166035237Y-119017676D02*
X166130475Y-119112914D01*
X166130475Y-119112914D02*
X166225713Y-119160533D01*
D12*
X159570000Y-103960000D02*
G75*
G02*
X155070000Y-103960000I-2250000J0D01*
G01*
X155070000Y-103960000D02*
G75*
G02*
X159570000Y-103960000I2250000J0D01*
G01*
X185260000Y-103930000D02*
G75*
G02*
X180760000Y-103930000I-2250000J0D01*
G01*
X180760000Y-103930000D02*
G75*
G02*
X185260000Y-103930000I2250000J0D01*
G01*
X172537621Y-108680000D02*
X172202379Y-108680000D01*
X172537621Y-107920000D02*
X172202379Y-107920000D01*
X167302379Y-107940000D02*
X167637621Y-107940000D01*
X167302379Y-108700000D02*
X167637621Y-108700000D01*
X185517500Y-107962379D02*
X185517500Y-108297621D01*
X184757500Y-107962379D02*
X184757500Y-108297621D01*
X183547500Y-108287621D02*
X183547500Y-107952379D01*
X184307500Y-108287621D02*
X184307500Y-107952379D01*
X173170000Y-117835835D02*
X173170000Y-117604165D01*
X172450000Y-117835835D02*
X172450000Y-117604165D01*
X172450000Y-122164165D02*
X172450000Y-122395835D01*
X173170000Y-122164165D02*
X173170000Y-122395835D01*
X170010000Y-122164165D02*
X170010000Y-122395835D01*
X170730000Y-122164165D02*
X170730000Y-122395835D01*
X170730000Y-117845835D02*
X170730000Y-117614165D01*
X170010000Y-117845835D02*
X170010000Y-117614165D01*
X168250000Y-117835835D02*
X168250000Y-117604165D01*
X167530000Y-117835835D02*
X167530000Y-117604165D01*
X167540000Y-122164165D02*
X167540000Y-122395835D01*
X168260000Y-122164165D02*
X168260000Y-122395835D01*
X173170000Y-120125835D02*
X173170000Y-119894165D01*
X172450000Y-120125835D02*
X172450000Y-119894165D01*
X185016665Y-126212500D02*
X185248335Y-126212500D01*
X185016665Y-125492500D02*
X185248335Y-125492500D01*
X184440000Y-122885835D02*
X184440000Y-122654165D01*
X183720000Y-122885835D02*
X183720000Y-122654165D01*
X185800000Y-122885835D02*
X185800000Y-122654165D01*
X185080000Y-122885835D02*
X185080000Y-122654165D01*
X185258335Y-134772500D02*
X185026665Y-134772500D01*
X185258335Y-135492500D02*
X185026665Y-135492500D01*
X181742500Y-113213733D02*
X181742500Y-113506267D01*
X182762500Y-113213733D02*
X182762500Y-113506267D01*
X185672500Y-113506267D02*
X185672500Y-113213733D01*
X184652500Y-113506267D02*
X184652500Y-113213733D01*
X188162500Y-113485835D02*
X188162500Y-113254165D01*
X187442500Y-113485835D02*
X187442500Y-113254165D01*
X179332500Y-113244165D02*
X179332500Y-113475835D01*
X180052500Y-113244165D02*
X180052500Y-113475835D01*
X168260000Y-120125835D02*
X168260000Y-119894165D01*
X167540000Y-120125835D02*
X167540000Y-119894165D01*
%LPC*%
D13*
X175601000Y-104601000D02*
X175633000Y-104603000D01*
X175664000Y-104607000D01*
X175695000Y-104613000D01*
X175725000Y-104620000D01*
X175755000Y-104629000D01*
X175785000Y-104640000D01*
X175814000Y-104652000D01*
X175842000Y-104665000D01*
X175870000Y-104680000D01*
X175897000Y-104697000D01*
X175923000Y-104715000D01*
X175948000Y-104734000D01*
X175971000Y-104754000D01*
X175994000Y-104776000D01*
X176016000Y-104799000D01*
X176036000Y-104822000D01*
X176055000Y-104847000D01*
X176073000Y-104873000D01*
X176090000Y-104900000D01*
X176105000Y-104928000D01*
X176118000Y-104956000D01*
X176130000Y-104985000D01*
X176141000Y-105015000D01*
X176150000Y-105045000D01*
X176157000Y-105075000D01*
X176163000Y-105106000D01*
X176167000Y-105137000D01*
X176169000Y-105169000D01*
X176170000Y-105200000D01*
X176170000Y-106000000D01*
X176169000Y-106031000D01*
X176167000Y-106063000D01*
X176163000Y-106094000D01*
X176157000Y-106125000D01*
X176150000Y-106155000D01*
X176141000Y-106185000D01*
X176130000Y-106215000D01*
X176118000Y-106244000D01*
X176105000Y-106272000D01*
X176090000Y-106300000D01*
X176073000Y-106327000D01*
X176055000Y-106353000D01*
X176036000Y-106378000D01*
X176016000Y-106401000D01*
X175994000Y-106424000D01*
X175971000Y-106446000D01*
X175948000Y-106466000D01*
X175923000Y-106485000D01*
X175897000Y-106503000D01*
X175870000Y-106520000D01*
X175842000Y-106535000D01*
X175814000Y-106548000D01*
X175785000Y-106560000D01*
X175755000Y-106571000D01*
X175725000Y-106580000D01*
X175695000Y-106587000D01*
X175664000Y-106593000D01*
X175633000Y-106597000D01*
X175601000Y-106599000D01*
X175570000Y-106600000D01*
X175539000Y-106599000D01*
X175507000Y-106597000D01*
X175476000Y-106593000D01*
X175445000Y-106587000D01*
X175415000Y-106580000D01*
X175385000Y-106571000D01*
X175355000Y-106560000D01*
X175326000Y-106548000D01*
X175298000Y-106535000D01*
X175270000Y-106520000D01*
X175243000Y-106503000D01*
X175217000Y-106485000D01*
X175192000Y-106466000D01*
X175169000Y-106446000D01*
X175146000Y-106424000D01*
X175124000Y-106401000D01*
X175104000Y-106378000D01*
X175085000Y-106353000D01*
X175067000Y-106327000D01*
X175050000Y-106300000D01*
X175035000Y-106272000D01*
X175022000Y-106244000D01*
X175010000Y-106215000D01*
X174999000Y-106185000D01*
X174990000Y-106155000D01*
X174983000Y-106125000D01*
X174977000Y-106094000D01*
X174973000Y-106063000D01*
X174971000Y-106031000D01*
X174970000Y-106000000D01*
X174970000Y-105200000D01*
X174971000Y-105169000D01*
X174973000Y-105137000D01*
X174977000Y-105106000D01*
X174983000Y-105075000D01*
X174990000Y-105045000D01*
X174999000Y-105015000D01*
X175010000Y-104985000D01*
X175022000Y-104956000D01*
X175035000Y-104928000D01*
X175050000Y-104900000D01*
X175067000Y-104873000D01*
X175085000Y-104847000D01*
X175104000Y-104822000D01*
X175124000Y-104799000D01*
X175146000Y-104776000D01*
X175169000Y-104754000D01*
X175192000Y-104734000D01*
X175217000Y-104715000D01*
X175243000Y-104697000D01*
X175270000Y-104680000D01*
X175298000Y-104665000D01*
X175326000Y-104652000D01*
X175355000Y-104640000D01*
X175385000Y-104629000D01*
X175415000Y-104620000D01*
X175445000Y-104613000D01*
X175476000Y-104607000D01*
X175507000Y-104603000D01*
X175539000Y-104601000D01*
X175570000Y-104600000D01*
X175601000Y-104601000D01*
G36*
X175601000Y-104601000D02*
G01*
X175633000Y-104603000D01*
X175664000Y-104607000D01*
X175695000Y-104613000D01*
X175725000Y-104620000D01*
X175755000Y-104629000D01*
X175785000Y-104640000D01*
X175814000Y-104652000D01*
X175842000Y-104665000D01*
X175870000Y-104680000D01*
X175897000Y-104697000D01*
X175923000Y-104715000D01*
X175948000Y-104734000D01*
X175971000Y-104754000D01*
X175994000Y-104776000D01*
X176016000Y-104799000D01*
X176036000Y-104822000D01*
X176055000Y-104847000D01*
X176073000Y-104873000D01*
X176090000Y-104900000D01*
X176105000Y-104928000D01*
X176118000Y-104956000D01*
X176130000Y-104985000D01*
X176141000Y-105015000D01*
X176150000Y-105045000D01*
X176157000Y-105075000D01*
X176163000Y-105106000D01*
X176167000Y-105137000D01*
X176169000Y-105169000D01*
X176170000Y-105200000D01*
X176170000Y-106000000D01*
X176169000Y-106031000D01*
X176167000Y-106063000D01*
X176163000Y-106094000D01*
X176157000Y-106125000D01*
X176150000Y-106155000D01*
X176141000Y-106185000D01*
X176130000Y-106215000D01*
X176118000Y-106244000D01*
X176105000Y-106272000D01*
X176090000Y-106300000D01*
X176073000Y-106327000D01*
X176055000Y-106353000D01*
X176036000Y-106378000D01*
X176016000Y-106401000D01*
X175994000Y-106424000D01*
X175971000Y-106446000D01*
X175948000Y-106466000D01*
X175923000Y-106485000D01*
X175897000Y-106503000D01*
X175870000Y-106520000D01*
X175842000Y-106535000D01*
X175814000Y-106548000D01*
X175785000Y-106560000D01*
X175755000Y-106571000D01*
X175725000Y-106580000D01*
X175695000Y-106587000D01*
X175664000Y-106593000D01*
X175633000Y-106597000D01*
X175601000Y-106599000D01*
X175570000Y-106600000D01*
X175539000Y-106599000D01*
X175507000Y-106597000D01*
X175476000Y-106593000D01*
X175445000Y-106587000D01*
X175415000Y-106580000D01*
X175385000Y-106571000D01*
X175355000Y-106560000D01*
X175326000Y-106548000D01*
X175298000Y-106535000D01*
X175270000Y-106520000D01*
X175243000Y-106503000D01*
X175217000Y-106485000D01*
X175192000Y-106466000D01*
X175169000Y-106446000D01*
X175146000Y-106424000D01*
X175124000Y-106401000D01*
X175104000Y-106378000D01*
X175085000Y-106353000D01*
X175067000Y-106327000D01*
X175050000Y-106300000D01*
X175035000Y-106272000D01*
X175022000Y-106244000D01*
X175010000Y-106215000D01*
X174999000Y-106185000D01*
X174990000Y-106155000D01*
X174983000Y-106125000D01*
X174977000Y-106094000D01*
X174973000Y-106063000D01*
X174971000Y-106031000D01*
X174970000Y-106000000D01*
X174970000Y-105200000D01*
X174971000Y-105169000D01*
X174973000Y-105137000D01*
X174977000Y-105106000D01*
X174983000Y-105075000D01*
X174990000Y-105045000D01*
X174999000Y-105015000D01*
X175010000Y-104985000D01*
X175022000Y-104956000D01*
X175035000Y-104928000D01*
X175050000Y-104900000D01*
X175067000Y-104873000D01*
X175085000Y-104847000D01*
X175104000Y-104822000D01*
X175124000Y-104799000D01*
X175146000Y-104776000D01*
X175169000Y-104754000D01*
X175192000Y-104734000D01*
X175217000Y-104715000D01*
X175243000Y-104697000D01*
X175270000Y-104680000D01*
X175298000Y-104665000D01*
X175326000Y-104652000D01*
X175355000Y-104640000D01*
X175385000Y-104629000D01*
X175415000Y-104620000D01*
X175445000Y-104613000D01*
X175476000Y-104607000D01*
X175507000Y-104603000D01*
X175539000Y-104601000D01*
X175570000Y-104600000D01*
X175601000Y-104601000D01*
G37*
X175601000Y-100401000D02*
X175633000Y-100403000D01*
X175664000Y-100407000D01*
X175695000Y-100413000D01*
X175725000Y-100420000D01*
X175755000Y-100429000D01*
X175785000Y-100440000D01*
X175814000Y-100452000D01*
X175842000Y-100465000D01*
X175870000Y-100480000D01*
X175897000Y-100497000D01*
X175923000Y-100515000D01*
X175948000Y-100534000D01*
X175971000Y-100554000D01*
X175994000Y-100576000D01*
X176016000Y-100599000D01*
X176036000Y-100622000D01*
X176055000Y-100647000D01*
X176073000Y-100673000D01*
X176090000Y-100700000D01*
X176105000Y-100728000D01*
X176118000Y-100756000D01*
X176130000Y-100785000D01*
X176141000Y-100815000D01*
X176150000Y-100845000D01*
X176157000Y-100875000D01*
X176163000Y-100906000D01*
X176167000Y-100937000D01*
X176169000Y-100969000D01*
X176170000Y-101000000D01*
X176170000Y-102200000D01*
X176169000Y-102231000D01*
X176167000Y-102263000D01*
X176163000Y-102294000D01*
X176157000Y-102325000D01*
X176150000Y-102355000D01*
X176141000Y-102385000D01*
X176130000Y-102415000D01*
X176118000Y-102444000D01*
X176105000Y-102472000D01*
X176090000Y-102500000D01*
X176073000Y-102527000D01*
X176055000Y-102553000D01*
X176036000Y-102578000D01*
X176016000Y-102601000D01*
X175994000Y-102624000D01*
X175971000Y-102646000D01*
X175948000Y-102666000D01*
X175923000Y-102685000D01*
X175897000Y-102703000D01*
X175870000Y-102720000D01*
X175842000Y-102735000D01*
X175814000Y-102748000D01*
X175785000Y-102760000D01*
X175755000Y-102771000D01*
X175725000Y-102780000D01*
X175695000Y-102787000D01*
X175664000Y-102793000D01*
X175633000Y-102797000D01*
X175601000Y-102799000D01*
X175570000Y-102800000D01*
X175539000Y-102799000D01*
X175507000Y-102797000D01*
X175476000Y-102793000D01*
X175445000Y-102787000D01*
X175415000Y-102780000D01*
X175385000Y-102771000D01*
X175355000Y-102760000D01*
X175326000Y-102748000D01*
X175298000Y-102735000D01*
X175270000Y-102720000D01*
X175243000Y-102703000D01*
X175217000Y-102685000D01*
X175192000Y-102666000D01*
X175169000Y-102646000D01*
X175146000Y-102624000D01*
X175124000Y-102601000D01*
X175104000Y-102578000D01*
X175085000Y-102553000D01*
X175067000Y-102527000D01*
X175050000Y-102500000D01*
X175035000Y-102472000D01*
X175022000Y-102444000D01*
X175010000Y-102415000D01*
X174999000Y-102385000D01*
X174990000Y-102355000D01*
X174983000Y-102325000D01*
X174977000Y-102294000D01*
X174973000Y-102263000D01*
X174971000Y-102231000D01*
X174970000Y-102200000D01*
X174970000Y-101000000D01*
X174971000Y-100969000D01*
X174973000Y-100937000D01*
X174977000Y-100906000D01*
X174983000Y-100875000D01*
X174990000Y-100845000D01*
X174999000Y-100815000D01*
X175010000Y-100785000D01*
X175022000Y-100756000D01*
X175035000Y-100728000D01*
X175050000Y-100700000D01*
X175067000Y-100673000D01*
X175085000Y-100647000D01*
X175104000Y-100622000D01*
X175124000Y-100599000D01*
X175146000Y-100576000D01*
X175169000Y-100554000D01*
X175192000Y-100534000D01*
X175217000Y-100515000D01*
X175243000Y-100497000D01*
X175270000Y-100480000D01*
X175298000Y-100465000D01*
X175326000Y-100452000D01*
X175355000Y-100440000D01*
X175385000Y-100429000D01*
X175415000Y-100420000D01*
X175445000Y-100413000D01*
X175476000Y-100407000D01*
X175507000Y-100403000D01*
X175539000Y-100401000D01*
X175570000Y-100400000D01*
X175601000Y-100401000D01*
G36*
X175601000Y-100401000D02*
G01*
X175633000Y-100403000D01*
X175664000Y-100407000D01*
X175695000Y-100413000D01*
X175725000Y-100420000D01*
X175755000Y-100429000D01*
X175785000Y-100440000D01*
X175814000Y-100452000D01*
X175842000Y-100465000D01*
X175870000Y-100480000D01*
X175897000Y-100497000D01*
X175923000Y-100515000D01*
X175948000Y-100534000D01*
X175971000Y-100554000D01*
X175994000Y-100576000D01*
X176016000Y-100599000D01*
X176036000Y-100622000D01*
X176055000Y-100647000D01*
X176073000Y-100673000D01*
X176090000Y-100700000D01*
X176105000Y-100728000D01*
X176118000Y-100756000D01*
X176130000Y-100785000D01*
X176141000Y-100815000D01*
X176150000Y-100845000D01*
X176157000Y-100875000D01*
X176163000Y-100906000D01*
X176167000Y-100937000D01*
X176169000Y-100969000D01*
X176170000Y-101000000D01*
X176170000Y-102200000D01*
X176169000Y-102231000D01*
X176167000Y-102263000D01*
X176163000Y-102294000D01*
X176157000Y-102325000D01*
X176150000Y-102355000D01*
X176141000Y-102385000D01*
X176130000Y-102415000D01*
X176118000Y-102444000D01*
X176105000Y-102472000D01*
X176090000Y-102500000D01*
X176073000Y-102527000D01*
X176055000Y-102553000D01*
X176036000Y-102578000D01*
X176016000Y-102601000D01*
X175994000Y-102624000D01*
X175971000Y-102646000D01*
X175948000Y-102666000D01*
X175923000Y-102685000D01*
X175897000Y-102703000D01*
X175870000Y-102720000D01*
X175842000Y-102735000D01*
X175814000Y-102748000D01*
X175785000Y-102760000D01*
X175755000Y-102771000D01*
X175725000Y-102780000D01*
X175695000Y-102787000D01*
X175664000Y-102793000D01*
X175633000Y-102797000D01*
X175601000Y-102799000D01*
X175570000Y-102800000D01*
X175539000Y-102799000D01*
X175507000Y-102797000D01*
X175476000Y-102793000D01*
X175445000Y-102787000D01*
X175415000Y-102780000D01*
X175385000Y-102771000D01*
X175355000Y-102760000D01*
X175326000Y-102748000D01*
X175298000Y-102735000D01*
X175270000Y-102720000D01*
X175243000Y-102703000D01*
X175217000Y-102685000D01*
X175192000Y-102666000D01*
X175169000Y-102646000D01*
X175146000Y-102624000D01*
X175124000Y-102601000D01*
X175104000Y-102578000D01*
X175085000Y-102553000D01*
X175067000Y-102527000D01*
X175050000Y-102500000D01*
X175035000Y-102472000D01*
X175022000Y-102444000D01*
X175010000Y-102415000D01*
X174999000Y-102385000D01*
X174990000Y-102355000D01*
X174983000Y-102325000D01*
X174977000Y-102294000D01*
X174973000Y-102263000D01*
X174971000Y-102231000D01*
X174970000Y-102200000D01*
X174970000Y-101000000D01*
X174971000Y-100969000D01*
X174973000Y-100937000D01*
X174977000Y-100906000D01*
X174983000Y-100875000D01*
X174990000Y-100845000D01*
X174999000Y-100815000D01*
X175010000Y-100785000D01*
X175022000Y-100756000D01*
X175035000Y-100728000D01*
X175050000Y-100700000D01*
X175067000Y-100673000D01*
X175085000Y-100647000D01*
X175104000Y-100622000D01*
X175124000Y-100599000D01*
X175146000Y-100576000D01*
X175169000Y-100554000D01*
X175192000Y-100534000D01*
X175217000Y-100515000D01*
X175243000Y-100497000D01*
X175270000Y-100480000D01*
X175298000Y-100465000D01*
X175326000Y-100452000D01*
X175355000Y-100440000D01*
X175385000Y-100429000D01*
X175415000Y-100420000D01*
X175445000Y-100413000D01*
X175476000Y-100407000D01*
X175507000Y-100403000D01*
X175539000Y-100401000D01*
X175570000Y-100400000D01*
X175601000Y-100401000D01*
G37*
X164361000Y-104601000D02*
X164393000Y-104603000D01*
X164424000Y-104607000D01*
X164455000Y-104613000D01*
X164485000Y-104620000D01*
X164515000Y-104629000D01*
X164545000Y-104640000D01*
X164574000Y-104652000D01*
X164602000Y-104665000D01*
X164630000Y-104680000D01*
X164657000Y-104697000D01*
X164683000Y-104715000D01*
X164708000Y-104734000D01*
X164731000Y-104754000D01*
X164754000Y-104776000D01*
X164776000Y-104799000D01*
X164796000Y-104822000D01*
X164815000Y-104847000D01*
X164833000Y-104873000D01*
X164850000Y-104900000D01*
X164865000Y-104928000D01*
X164878000Y-104956000D01*
X164890000Y-104985000D01*
X164901000Y-105015000D01*
X164910000Y-105045000D01*
X164917000Y-105075000D01*
X164923000Y-105106000D01*
X164927000Y-105137000D01*
X164929000Y-105169000D01*
X164930000Y-105200000D01*
X164930000Y-106000000D01*
X164929000Y-106031000D01*
X164927000Y-106063000D01*
X164923000Y-106094000D01*
X164917000Y-106125000D01*
X164910000Y-106155000D01*
X164901000Y-106185000D01*
X164890000Y-106215000D01*
X164878000Y-106244000D01*
X164865000Y-106272000D01*
X164850000Y-106300000D01*
X164833000Y-106327000D01*
X164815000Y-106353000D01*
X164796000Y-106378000D01*
X164776000Y-106401000D01*
X164754000Y-106424000D01*
X164731000Y-106446000D01*
X164708000Y-106466000D01*
X164683000Y-106485000D01*
X164657000Y-106503000D01*
X164630000Y-106520000D01*
X164602000Y-106535000D01*
X164574000Y-106548000D01*
X164545000Y-106560000D01*
X164515000Y-106571000D01*
X164485000Y-106580000D01*
X164455000Y-106587000D01*
X164424000Y-106593000D01*
X164393000Y-106597000D01*
X164361000Y-106599000D01*
X164330000Y-106600000D01*
X164299000Y-106599000D01*
X164267000Y-106597000D01*
X164236000Y-106593000D01*
X164205000Y-106587000D01*
X164175000Y-106580000D01*
X164145000Y-106571000D01*
X164115000Y-106560000D01*
X164086000Y-106548000D01*
X164058000Y-106535000D01*
X164030000Y-106520000D01*
X164003000Y-106503000D01*
X163977000Y-106485000D01*
X163952000Y-106466000D01*
X163929000Y-106446000D01*
X163906000Y-106424000D01*
X163884000Y-106401000D01*
X163864000Y-106378000D01*
X163845000Y-106353000D01*
X163827000Y-106327000D01*
X163810000Y-106300000D01*
X163795000Y-106272000D01*
X163782000Y-106244000D01*
X163770000Y-106215000D01*
X163759000Y-106185000D01*
X163750000Y-106155000D01*
X163743000Y-106125000D01*
X163737000Y-106094000D01*
X163733000Y-106063000D01*
X163731000Y-106031000D01*
X163730000Y-106000000D01*
X163730000Y-105200000D01*
X163731000Y-105169000D01*
X163733000Y-105137000D01*
X163737000Y-105106000D01*
X163743000Y-105075000D01*
X163750000Y-105045000D01*
X163759000Y-105015000D01*
X163770000Y-104985000D01*
X163782000Y-104956000D01*
X163795000Y-104928000D01*
X163810000Y-104900000D01*
X163827000Y-104873000D01*
X163845000Y-104847000D01*
X163864000Y-104822000D01*
X163884000Y-104799000D01*
X163906000Y-104776000D01*
X163929000Y-104754000D01*
X163952000Y-104734000D01*
X163977000Y-104715000D01*
X164003000Y-104697000D01*
X164030000Y-104680000D01*
X164058000Y-104665000D01*
X164086000Y-104652000D01*
X164115000Y-104640000D01*
X164145000Y-104629000D01*
X164175000Y-104620000D01*
X164205000Y-104613000D01*
X164236000Y-104607000D01*
X164267000Y-104603000D01*
X164299000Y-104601000D01*
X164330000Y-104600000D01*
X164361000Y-104601000D01*
G36*
X164361000Y-104601000D02*
G01*
X164393000Y-104603000D01*
X164424000Y-104607000D01*
X164455000Y-104613000D01*
X164485000Y-104620000D01*
X164515000Y-104629000D01*
X164545000Y-104640000D01*
X164574000Y-104652000D01*
X164602000Y-104665000D01*
X164630000Y-104680000D01*
X164657000Y-104697000D01*
X164683000Y-104715000D01*
X164708000Y-104734000D01*
X164731000Y-104754000D01*
X164754000Y-104776000D01*
X164776000Y-104799000D01*
X164796000Y-104822000D01*
X164815000Y-104847000D01*
X164833000Y-104873000D01*
X164850000Y-104900000D01*
X164865000Y-104928000D01*
X164878000Y-104956000D01*
X164890000Y-104985000D01*
X164901000Y-105015000D01*
X164910000Y-105045000D01*
X164917000Y-105075000D01*
X164923000Y-105106000D01*
X164927000Y-105137000D01*
X164929000Y-105169000D01*
X164930000Y-105200000D01*
X164930000Y-106000000D01*
X164929000Y-106031000D01*
X164927000Y-106063000D01*
X164923000Y-106094000D01*
X164917000Y-106125000D01*
X164910000Y-106155000D01*
X164901000Y-106185000D01*
X164890000Y-106215000D01*
X164878000Y-106244000D01*
X164865000Y-106272000D01*
X164850000Y-106300000D01*
X164833000Y-106327000D01*
X164815000Y-106353000D01*
X164796000Y-106378000D01*
X164776000Y-106401000D01*
X164754000Y-106424000D01*
X164731000Y-106446000D01*
X164708000Y-106466000D01*
X164683000Y-106485000D01*
X164657000Y-106503000D01*
X164630000Y-106520000D01*
X164602000Y-106535000D01*
X164574000Y-106548000D01*
X164545000Y-106560000D01*
X164515000Y-106571000D01*
X164485000Y-106580000D01*
X164455000Y-106587000D01*
X164424000Y-106593000D01*
X164393000Y-106597000D01*
X164361000Y-106599000D01*
X164330000Y-106600000D01*
X164299000Y-106599000D01*
X164267000Y-106597000D01*
X164236000Y-106593000D01*
X164205000Y-106587000D01*
X164175000Y-106580000D01*
X164145000Y-106571000D01*
X164115000Y-106560000D01*
X164086000Y-106548000D01*
X164058000Y-106535000D01*
X164030000Y-106520000D01*
X164003000Y-106503000D01*
X163977000Y-106485000D01*
X163952000Y-106466000D01*
X163929000Y-106446000D01*
X163906000Y-106424000D01*
X163884000Y-106401000D01*
X163864000Y-106378000D01*
X163845000Y-106353000D01*
X163827000Y-106327000D01*
X163810000Y-106300000D01*
X163795000Y-106272000D01*
X163782000Y-106244000D01*
X163770000Y-106215000D01*
X163759000Y-106185000D01*
X163750000Y-106155000D01*
X163743000Y-106125000D01*
X163737000Y-106094000D01*
X163733000Y-106063000D01*
X163731000Y-106031000D01*
X163730000Y-106000000D01*
X163730000Y-105200000D01*
X163731000Y-105169000D01*
X163733000Y-105137000D01*
X163737000Y-105106000D01*
X163743000Y-105075000D01*
X163750000Y-105045000D01*
X163759000Y-105015000D01*
X163770000Y-104985000D01*
X163782000Y-104956000D01*
X163795000Y-104928000D01*
X163810000Y-104900000D01*
X163827000Y-104873000D01*
X163845000Y-104847000D01*
X163864000Y-104822000D01*
X163884000Y-104799000D01*
X163906000Y-104776000D01*
X163929000Y-104754000D01*
X163952000Y-104734000D01*
X163977000Y-104715000D01*
X164003000Y-104697000D01*
X164030000Y-104680000D01*
X164058000Y-104665000D01*
X164086000Y-104652000D01*
X164115000Y-104640000D01*
X164145000Y-104629000D01*
X164175000Y-104620000D01*
X164205000Y-104613000D01*
X164236000Y-104607000D01*
X164267000Y-104603000D01*
X164299000Y-104601000D01*
X164330000Y-104600000D01*
X164361000Y-104601000D01*
G37*
X164361000Y-100401000D02*
X164393000Y-100403000D01*
X164424000Y-100407000D01*
X164455000Y-100413000D01*
X164485000Y-100420000D01*
X164515000Y-100429000D01*
X164545000Y-100440000D01*
X164574000Y-100452000D01*
X164602000Y-100465000D01*
X164630000Y-100480000D01*
X164657000Y-100497000D01*
X164683000Y-100515000D01*
X164708000Y-100534000D01*
X164731000Y-100554000D01*
X164754000Y-100576000D01*
X164776000Y-100599000D01*
X164796000Y-100622000D01*
X164815000Y-100647000D01*
X164833000Y-100673000D01*
X164850000Y-100700000D01*
X164865000Y-100728000D01*
X164878000Y-100756000D01*
X164890000Y-100785000D01*
X164901000Y-100815000D01*
X164910000Y-100845000D01*
X164917000Y-100875000D01*
X164923000Y-100906000D01*
X164927000Y-100937000D01*
X164929000Y-100969000D01*
X164930000Y-101000000D01*
X164930000Y-102200000D01*
X164929000Y-102231000D01*
X164927000Y-102263000D01*
X164923000Y-102294000D01*
X164917000Y-102325000D01*
X164910000Y-102355000D01*
X164901000Y-102385000D01*
X164890000Y-102415000D01*
X164878000Y-102444000D01*
X164865000Y-102472000D01*
X164850000Y-102500000D01*
X164833000Y-102527000D01*
X164815000Y-102553000D01*
X164796000Y-102578000D01*
X164776000Y-102601000D01*
X164754000Y-102624000D01*
X164731000Y-102646000D01*
X164708000Y-102666000D01*
X164683000Y-102685000D01*
X164657000Y-102703000D01*
X164630000Y-102720000D01*
X164602000Y-102735000D01*
X164574000Y-102748000D01*
X164545000Y-102760000D01*
X164515000Y-102771000D01*
X164485000Y-102780000D01*
X164455000Y-102787000D01*
X164424000Y-102793000D01*
X164393000Y-102797000D01*
X164361000Y-102799000D01*
X164330000Y-102800000D01*
X164299000Y-102799000D01*
X164267000Y-102797000D01*
X164236000Y-102793000D01*
X164205000Y-102787000D01*
X164175000Y-102780000D01*
X164145000Y-102771000D01*
X164115000Y-102760000D01*
X164086000Y-102748000D01*
X164058000Y-102735000D01*
X164030000Y-102720000D01*
X164003000Y-102703000D01*
X163977000Y-102685000D01*
X163952000Y-102666000D01*
X163929000Y-102646000D01*
X163906000Y-102624000D01*
X163884000Y-102601000D01*
X163864000Y-102578000D01*
X163845000Y-102553000D01*
X163827000Y-102527000D01*
X163810000Y-102500000D01*
X163795000Y-102472000D01*
X163782000Y-102444000D01*
X163770000Y-102415000D01*
X163759000Y-102385000D01*
X163750000Y-102355000D01*
X163743000Y-102325000D01*
X163737000Y-102294000D01*
X163733000Y-102263000D01*
X163731000Y-102231000D01*
X163730000Y-102200000D01*
X163730000Y-101000000D01*
X163731000Y-100969000D01*
X163733000Y-100937000D01*
X163737000Y-100906000D01*
X163743000Y-100875000D01*
X163750000Y-100845000D01*
X163759000Y-100815000D01*
X163770000Y-100785000D01*
X163782000Y-100756000D01*
X163795000Y-100728000D01*
X163810000Y-100700000D01*
X163827000Y-100673000D01*
X163845000Y-100647000D01*
X163864000Y-100622000D01*
X163884000Y-100599000D01*
X163906000Y-100576000D01*
X163929000Y-100554000D01*
X163952000Y-100534000D01*
X163977000Y-100515000D01*
X164003000Y-100497000D01*
X164030000Y-100480000D01*
X164058000Y-100465000D01*
X164086000Y-100452000D01*
X164115000Y-100440000D01*
X164145000Y-100429000D01*
X164175000Y-100420000D01*
X164205000Y-100413000D01*
X164236000Y-100407000D01*
X164267000Y-100403000D01*
X164299000Y-100401000D01*
X164330000Y-100400000D01*
X164361000Y-100401000D01*
G36*
X164361000Y-100401000D02*
G01*
X164393000Y-100403000D01*
X164424000Y-100407000D01*
X164455000Y-100413000D01*
X164485000Y-100420000D01*
X164515000Y-100429000D01*
X164545000Y-100440000D01*
X164574000Y-100452000D01*
X164602000Y-100465000D01*
X164630000Y-100480000D01*
X164657000Y-100497000D01*
X164683000Y-100515000D01*
X164708000Y-100534000D01*
X164731000Y-100554000D01*
X164754000Y-100576000D01*
X164776000Y-100599000D01*
X164796000Y-100622000D01*
X164815000Y-100647000D01*
X164833000Y-100673000D01*
X164850000Y-100700000D01*
X164865000Y-100728000D01*
X164878000Y-100756000D01*
X164890000Y-100785000D01*
X164901000Y-100815000D01*
X164910000Y-100845000D01*
X164917000Y-100875000D01*
X164923000Y-100906000D01*
X164927000Y-100937000D01*
X164929000Y-100969000D01*
X164930000Y-101000000D01*
X164930000Y-102200000D01*
X164929000Y-102231000D01*
X164927000Y-102263000D01*
X164923000Y-102294000D01*
X164917000Y-102325000D01*
X164910000Y-102355000D01*
X164901000Y-102385000D01*
X164890000Y-102415000D01*
X164878000Y-102444000D01*
X164865000Y-102472000D01*
X164850000Y-102500000D01*
X164833000Y-102527000D01*
X164815000Y-102553000D01*
X164796000Y-102578000D01*
X164776000Y-102601000D01*
X164754000Y-102624000D01*
X164731000Y-102646000D01*
X164708000Y-102666000D01*
X164683000Y-102685000D01*
X164657000Y-102703000D01*
X164630000Y-102720000D01*
X164602000Y-102735000D01*
X164574000Y-102748000D01*
X164545000Y-102760000D01*
X164515000Y-102771000D01*
X164485000Y-102780000D01*
X164455000Y-102787000D01*
X164424000Y-102793000D01*
X164393000Y-102797000D01*
X164361000Y-102799000D01*
X164330000Y-102800000D01*
X164299000Y-102799000D01*
X164267000Y-102797000D01*
X164236000Y-102793000D01*
X164205000Y-102787000D01*
X164175000Y-102780000D01*
X164145000Y-102771000D01*
X164115000Y-102760000D01*
X164086000Y-102748000D01*
X164058000Y-102735000D01*
X164030000Y-102720000D01*
X164003000Y-102703000D01*
X163977000Y-102685000D01*
X163952000Y-102666000D01*
X163929000Y-102646000D01*
X163906000Y-102624000D01*
X163884000Y-102601000D01*
X163864000Y-102578000D01*
X163845000Y-102553000D01*
X163827000Y-102527000D01*
X163810000Y-102500000D01*
X163795000Y-102472000D01*
X163782000Y-102444000D01*
X163770000Y-102415000D01*
X163759000Y-102385000D01*
X163750000Y-102355000D01*
X163743000Y-102325000D01*
X163737000Y-102294000D01*
X163733000Y-102263000D01*
X163731000Y-102231000D01*
X163730000Y-102200000D01*
X163730000Y-101000000D01*
X163731000Y-100969000D01*
X163733000Y-100937000D01*
X163737000Y-100906000D01*
X163743000Y-100875000D01*
X163750000Y-100845000D01*
X163759000Y-100815000D01*
X163770000Y-100785000D01*
X163782000Y-100756000D01*
X163795000Y-100728000D01*
X163810000Y-100700000D01*
X163827000Y-100673000D01*
X163845000Y-100647000D01*
X163864000Y-100622000D01*
X163884000Y-100599000D01*
X163906000Y-100576000D01*
X163929000Y-100554000D01*
X163952000Y-100534000D01*
X163977000Y-100515000D01*
X164003000Y-100497000D01*
X164030000Y-100480000D01*
X164058000Y-100465000D01*
X164086000Y-100452000D01*
X164115000Y-100440000D01*
X164145000Y-100429000D01*
X164175000Y-100420000D01*
X164205000Y-100413000D01*
X164236000Y-100407000D01*
X164267000Y-100403000D01*
X164299000Y-100401000D01*
X164330000Y-100400000D01*
X164361000Y-100401000D01*
G37*
D14*
X157320000Y-103960000D03*
X183010000Y-103930000D03*
D15*
X171772500Y-108300000D03*
X172967500Y-108300000D03*
D16*
X168067500Y-108320000D03*
X166872500Y-108320000D03*
D17*
X185137500Y-108727500D03*
X185137500Y-107532500D03*
D18*
X183927500Y-107522500D03*
X183927500Y-108717500D03*
D19*
X163880000Y-111094000D03*
X163880000Y-113126000D03*
X168960000Y-112110000D03*
D20*
X172810000Y-118287500D03*
X172810000Y-117152500D03*
D21*
X172810000Y-121712500D03*
X172810000Y-122847500D03*
X170370000Y-121712500D03*
X170370000Y-122847500D03*
D20*
X170370000Y-118297500D03*
X170370000Y-117162500D03*
X167890000Y-118287500D03*
X167890000Y-117152500D03*
D21*
X167900000Y-121712500D03*
X167900000Y-122847500D03*
D20*
X172810000Y-120577500D03*
X172810000Y-119442500D03*
D22*
X184565000Y-125852500D03*
X185700000Y-125852500D03*
D20*
X184080000Y-123337500D03*
X184080000Y-122202500D03*
X185440000Y-123337500D03*
X185440000Y-122202500D03*
D23*
X185710000Y-135132500D03*
X184575000Y-135132500D03*
D24*
X182252500Y-112497500D03*
X182252500Y-114222500D03*
D25*
X185162500Y-114222500D03*
X185162500Y-112497500D03*
D20*
X187802500Y-113937500D03*
X187802500Y-112802500D03*
D21*
X179692500Y-112792500D03*
X179692500Y-113927500D03*
D20*
X167900000Y-120577500D03*
X167900000Y-119442500D03*
%LPD*%
M02*
