G04 #@! TF.GenerationSoftware,KiCad,Pcbnew,8.0.4*
G04 #@! TF.CreationDate,2024-10-04T00:04:43-04:00*
G04 #@! TF.ProjectId,BlueSTM32,426c7565-5354-44d3-9332-2e6b69636164,rev?*
G04 #@! TF.SameCoordinates,Original*
G04 #@! TF.FileFunction,Copper,L2,Inr*
G04 #@! TF.FilePolarity,Positive*
%FSLAX46Y46*%
G04 Gerber Fmt 4.6, Leading zero omitted, Abs format (unit mm)*
G04 Created by KiCad (PCBNEW 8.0.4) date 2024-10-04 00:04:43*
%MOMM*%
%LPD*%
G01*
G04 APERTURE LIST*
G04 #@! TA.AperFunction,ComponentPad*
%ADD10O,0.950000X1.900000*%
G04 #@! TD*
G04 #@! TA.AperFunction,ComponentPad*
%ADD11O,0.800000X1.600000*%
G04 #@! TD*
G04 #@! TA.AperFunction,ViaPad*
%ADD12C,0.400000*%
G04 #@! TD*
G04 #@! TA.AperFunction,ViaPad*
%ADD13C,0.500000*%
G04 #@! TD*
G04 #@! TA.AperFunction,ViaPad*
%ADD14C,0.350000*%
G04 #@! TD*
G04 #@! TA.AperFunction,ViaPad*
%ADD15C,0.600000*%
G04 #@! TD*
G04 APERTURE END LIST*
D10*
X164330000Y-101600000D03*
D11*
X175570000Y-105600000D03*
X164330000Y-105600000D03*
D10*
X175570000Y-101600000D03*
D12*
X178690000Y-135310000D03*
X171530000Y-135800000D03*
X166410000Y-136510000D03*
X163640000Y-134310000D03*
X153700000Y-129970000D03*
X152510000Y-135290000D03*
X152510000Y-133050000D03*
X165820000Y-109300000D03*
X165055000Y-114115000D03*
X151190000Y-108790000D03*
X162650000Y-126200000D03*
X161600000Y-111290000D03*
X166740000Y-114970000D03*
X164910000Y-116410000D03*
X151180000Y-111350000D03*
X161470000Y-123630000D03*
X168480000Y-125350000D03*
X169010000Y-124980000D03*
X170480000Y-125970000D03*
X172120000Y-126500000D03*
X161590000Y-112600000D03*
X163170000Y-118900000D03*
X163282407Y-119506319D03*
X151190000Y-110080000D03*
X168810000Y-126550000D03*
X166980000Y-135230000D03*
X166180000Y-125570000D03*
X166760000Y-130650000D03*
X165390000Y-129950000D03*
X164420000Y-126010000D03*
X159620000Y-133360000D03*
X165230000Y-125390000D03*
X158780000Y-121150000D03*
X162320000Y-121560000D03*
X164530000Y-128160000D03*
X164100000Y-123380000D03*
X167700000Y-126590000D03*
X163770000Y-135670000D03*
X164530000Y-131210000D03*
X159920000Y-124760000D03*
X166400000Y-137880000D03*
X158380000Y-136360000D03*
X154885000Y-121370000D03*
X155035000Y-122400000D03*
X155205000Y-126760000D03*
X156005000Y-130330000D03*
X155975000Y-134350000D03*
X154955000Y-137700000D03*
X170350000Y-119980000D03*
X163212917Y-120282917D03*
X169210000Y-109600000D03*
D13*
X157540000Y-111800000D03*
X155040000Y-111770000D03*
X156320000Y-110740000D03*
X157380000Y-109770000D03*
X155040000Y-109750000D03*
X161380000Y-108790000D03*
X171460000Y-114080000D03*
X165800000Y-115760000D03*
X164910000Y-121800000D03*
X172200000Y-125300000D03*
X175170000Y-119370000D03*
X186830000Y-123350000D03*
X183530000Y-120180000D03*
X188840000Y-112310000D03*
X187450000Y-117690000D03*
X188210000Y-118620000D03*
D14*
X161200000Y-122880000D03*
X159990000Y-122880000D03*
X157310000Y-105070000D03*
X158680000Y-103850000D03*
X155980000Y-103920000D03*
X157290000Y-102580000D03*
X157350000Y-103950000D03*
X188090000Y-103710000D03*
X165150000Y-110200000D03*
X158280000Y-117860000D03*
X179290000Y-122800000D03*
X175920000Y-118960000D03*
X181860000Y-122720000D03*
X176380000Y-127160000D03*
X174480000Y-124030000D03*
X186720000Y-122260000D03*
X184540000Y-124830000D03*
X182842500Y-126702500D03*
X187712500Y-125802500D03*
X182762500Y-135302500D03*
X182862500Y-134132500D03*
X169175000Y-108120000D03*
X169725000Y-108120000D03*
X170160000Y-109590000D03*
X170740000Y-109270000D03*
D15*
X177250000Y-109470000D03*
X167120000Y-109670000D03*
X182310000Y-106180000D03*
X180810000Y-108790000D03*
X171500000Y-109210000D03*
X174070000Y-108320000D03*
X166020000Y-108300000D03*
X168260000Y-109240000D03*
X186697500Y-109010000D03*
X181977500Y-108990000D03*
X181747500Y-108000000D03*
X181852500Y-111450000D03*
X178322500Y-112810000D03*
X185352500Y-116370000D03*
X186682500Y-111420000D03*
G04 #@! TA.AperFunction,Conductor*
G36*
X163643317Y-100220185D02*
G01*
X163689072Y-100272989D01*
X163699016Y-100342147D01*
X163669991Y-100405703D01*
X163663959Y-100412181D01*
X163572670Y-100503469D01*
X163572667Y-100503473D01*
X163465969Y-100663157D01*
X163465964Y-100663166D01*
X163392468Y-100840602D01*
X163392466Y-100840610D01*
X163355000Y-101028966D01*
X163355000Y-101350000D01*
X164030000Y-101350000D01*
X164030000Y-101850000D01*
X163355000Y-101850000D01*
X163355000Y-102171033D01*
X163392466Y-102359389D01*
X163392468Y-102359397D01*
X163465964Y-102536833D01*
X163465969Y-102536842D01*
X163572667Y-102696526D01*
X163572670Y-102696530D01*
X163708469Y-102832329D01*
X163708473Y-102832332D01*
X163868157Y-102939030D01*
X163868167Y-102939035D01*
X164045599Y-103012530D01*
X164045606Y-103012533D01*
X164080000Y-103019373D01*
X164080000Y-102366988D01*
X164089940Y-102384205D01*
X164145795Y-102440060D01*
X164214204Y-102479556D01*
X164290504Y-102500000D01*
X164369496Y-102500000D01*
X164445796Y-102479556D01*
X164514205Y-102440060D01*
X164570060Y-102384205D01*
X164580000Y-102366988D01*
X164580000Y-103019372D01*
X164614393Y-103012533D01*
X164614400Y-103012530D01*
X164791832Y-102939035D01*
X164791842Y-102939030D01*
X164936609Y-102842300D01*
X165003286Y-102821422D01*
X165070667Y-102839906D01*
X165117357Y-102891885D01*
X165129500Y-102945402D01*
X165129500Y-104427344D01*
X165109815Y-104494383D01*
X165057011Y-104540138D01*
X164987853Y-104550082D01*
X164924297Y-104521057D01*
X164917819Y-104515025D01*
X164903720Y-104500926D01*
X164903716Y-104500923D01*
X164756316Y-104402433D01*
X164756307Y-104402428D01*
X164592519Y-104334585D01*
X164580000Y-104332094D01*
X164580000Y-105033011D01*
X164570060Y-105015795D01*
X164514205Y-104959940D01*
X164445796Y-104920444D01*
X164369496Y-104900000D01*
X164290504Y-104900000D01*
X164214204Y-104920444D01*
X164145795Y-104959940D01*
X164089940Y-105015795D01*
X164080000Y-105033011D01*
X164080000Y-104332095D01*
X164079999Y-104332094D01*
X164067480Y-104334585D01*
X163903692Y-104402428D01*
X163903683Y-104402433D01*
X163756283Y-104500923D01*
X163756279Y-104500926D01*
X163630926Y-104626279D01*
X163630923Y-104626283D01*
X163532433Y-104773683D01*
X163532428Y-104773692D01*
X163464586Y-104937479D01*
X163464584Y-104937487D01*
X163430000Y-105111353D01*
X163430000Y-105350000D01*
X164030000Y-105350000D01*
X164030000Y-105850000D01*
X163430000Y-105850000D01*
X163430000Y-106088646D01*
X163464584Y-106262512D01*
X163464586Y-106262520D01*
X163532428Y-106426307D01*
X163532433Y-106426316D01*
X163630923Y-106573716D01*
X163630926Y-106573720D01*
X163756279Y-106699073D01*
X163756283Y-106699076D01*
X163903683Y-106797566D01*
X163903693Y-106797571D01*
X164067476Y-106865412D01*
X164067483Y-106865415D01*
X164080000Y-106867904D01*
X164080000Y-106166988D01*
X164089940Y-106184205D01*
X164145795Y-106240060D01*
X164214204Y-106279556D01*
X164290504Y-106300000D01*
X164369496Y-106300000D01*
X164445796Y-106279556D01*
X164514205Y-106240060D01*
X164570060Y-106184205D01*
X164580000Y-106166988D01*
X164580000Y-106867903D01*
X164592516Y-106865415D01*
X164592523Y-106865412D01*
X164756306Y-106797571D01*
X164756316Y-106797566D01*
X164903716Y-106699076D01*
X164903720Y-106699073D01*
X165029071Y-106573722D01*
X165029923Y-106572448D01*
X165030543Y-106571929D01*
X165032940Y-106569009D01*
X165033493Y-106569463D01*
X165083529Y-106527635D01*
X165152853Y-106518918D01*
X165215885Y-106549064D01*
X165237422Y-106574396D01*
X165251272Y-106595998D01*
X165342108Y-106685192D01*
X165450514Y-106751937D01*
X165571054Y-106792886D01*
X165583843Y-106794208D01*
X165597371Y-106796765D01*
X165600351Y-106796986D01*
X165600356Y-106796989D01*
X165635560Y-106799607D01*
X165638926Y-106799906D01*
X165674039Y-106803539D01*
X165674040Y-106803538D01*
X165677020Y-106803847D01*
X165690786Y-106803715D01*
X165696740Y-106804158D01*
X165809000Y-106787174D01*
X165914665Y-106745635D01*
X166008438Y-106681625D01*
X166085617Y-106598353D01*
X166142331Y-106499996D01*
X166143403Y-106496511D01*
X166146020Y-106488015D01*
X166184559Y-106429735D01*
X166248488Y-106401542D01*
X166264531Y-106400500D01*
X173635469Y-106400500D01*
X173702508Y-106420185D01*
X173748263Y-106472989D01*
X173753980Y-106488015D01*
X173757668Y-106499995D01*
X173814381Y-106598351D01*
X173814386Y-106598357D01*
X173891560Y-106681623D01*
X173891562Y-106681625D01*
X173985335Y-106745635D01*
X174091000Y-106787174D01*
X174203260Y-106804158D01*
X174209213Y-106803715D01*
X174222991Y-106803845D01*
X174225958Y-106803538D01*
X174225961Y-106803539D01*
X174260994Y-106799915D01*
X174264555Y-106799599D01*
X174302631Y-106796767D01*
X174316166Y-106794208D01*
X174320028Y-106793808D01*
X174328946Y-106792886D01*
X174449486Y-106751937D01*
X174557892Y-106685192D01*
X174648728Y-106595998D01*
X174662578Y-106574396D01*
X174715329Y-106528586D01*
X174784477Y-106518567D01*
X174848064Y-106547522D01*
X174867049Y-106569017D01*
X174867060Y-106569009D01*
X174867305Y-106569308D01*
X174870068Y-106572436D01*
X174870924Y-106573718D01*
X174996279Y-106699073D01*
X174996283Y-106699076D01*
X175143683Y-106797566D01*
X175143693Y-106797571D01*
X175307476Y-106865412D01*
X175307483Y-106865415D01*
X175320000Y-106867904D01*
X175320000Y-106166988D01*
X175329940Y-106184205D01*
X175385795Y-106240060D01*
X175454204Y-106279556D01*
X175530504Y-106300000D01*
X175609496Y-106300000D01*
X175685796Y-106279556D01*
X175754205Y-106240060D01*
X175810060Y-106184205D01*
X175820000Y-106166988D01*
X175820000Y-106867903D01*
X175832516Y-106865415D01*
X175832523Y-106865412D01*
X175996306Y-106797571D01*
X175996316Y-106797566D01*
X176143716Y-106699076D01*
X176143720Y-106699073D01*
X176269073Y-106573720D01*
X176269076Y-106573716D01*
X176367566Y-106426316D01*
X176367571Y-106426307D01*
X176435413Y-106262520D01*
X176435415Y-106262512D01*
X176451828Y-106179996D01*
X181504435Y-106179996D01*
X181504435Y-106180003D01*
X181524630Y-106359249D01*
X181524631Y-106359254D01*
X181584211Y-106529523D01*
X181625981Y-106595999D01*
X181680184Y-106682262D01*
X181807738Y-106809816D01*
X181960478Y-106905789D01*
X182130745Y-106965368D01*
X182130750Y-106965369D01*
X182309996Y-106985565D01*
X182310000Y-106985565D01*
X182310004Y-106985565D01*
X182489249Y-106965369D01*
X182489252Y-106965368D01*
X182489255Y-106965368D01*
X182659522Y-106905789D01*
X182812262Y-106809816D01*
X182939816Y-106682262D01*
X183035789Y-106529522D01*
X183095368Y-106359255D01*
X183095369Y-106359249D01*
X183115565Y-106180003D01*
X183115565Y-106179996D01*
X183095369Y-106000750D01*
X183095368Y-106000745D01*
X183035788Y-105830476D01*
X182939815Y-105677737D01*
X182812262Y-105550184D01*
X182659523Y-105454211D01*
X182489254Y-105394631D01*
X182489249Y-105394630D01*
X182310004Y-105374435D01*
X182309996Y-105374435D01*
X182130750Y-105394630D01*
X182130745Y-105394631D01*
X181960476Y-105454211D01*
X181807737Y-105550184D01*
X181680184Y-105677737D01*
X181584211Y-105830476D01*
X181524631Y-106000745D01*
X181524630Y-106000750D01*
X181504435Y-106179996D01*
X176451828Y-106179996D01*
X176469999Y-106088646D01*
X176470000Y-106088643D01*
X176470000Y-105850000D01*
X175870000Y-105850000D01*
X175870000Y-105350000D01*
X176470000Y-105350000D01*
X176470000Y-105111357D01*
X176469999Y-105111353D01*
X176435415Y-104937487D01*
X176435413Y-104937479D01*
X176367571Y-104773692D01*
X176367566Y-104773683D01*
X176269076Y-104626283D01*
X176269073Y-104626279D01*
X176143720Y-104500926D01*
X176143716Y-104500923D01*
X175996316Y-104402433D01*
X175996307Y-104402428D01*
X175832519Y-104334585D01*
X175820000Y-104332094D01*
X175820000Y-105033011D01*
X175810060Y-105015795D01*
X175754205Y-104959940D01*
X175685796Y-104920444D01*
X175609496Y-104900000D01*
X175530504Y-104900000D01*
X175454204Y-104920444D01*
X175385795Y-104959940D01*
X175329940Y-105015795D01*
X175320000Y-105033011D01*
X175320000Y-104332095D01*
X175319999Y-104332094D01*
X175307480Y-104334585D01*
X175143692Y-104402428D01*
X175143683Y-104402433D01*
X174996283Y-104500923D01*
X174996279Y-104500926D01*
X174982181Y-104515025D01*
X174920858Y-104548510D01*
X174851166Y-104543526D01*
X174795233Y-104501654D01*
X174770816Y-104436190D01*
X174770500Y-104427344D01*
X174770500Y-103709999D01*
X187409539Y-103709999D01*
X187409539Y-103710000D01*
X187429311Y-103872842D01*
X187429312Y-103872845D01*
X187487482Y-104026226D01*
X187580668Y-104161229D01*
X187580670Y-104161231D01*
X187580672Y-104161233D01*
X187703451Y-104270006D01*
X187703452Y-104270006D01*
X187703454Y-104270008D01*
X187848705Y-104346242D01*
X187848707Y-104346242D01*
X187848708Y-104346243D01*
X188007978Y-104385500D01*
X188007979Y-104385500D01*
X188172022Y-104385500D01*
X188331291Y-104346243D01*
X188331291Y-104346242D01*
X188331295Y-104346242D01*
X188476546Y-104270008D01*
X188599332Y-104161229D01*
X188692518Y-104026226D01*
X188750688Y-103872845D01*
X188770461Y-103710000D01*
X188750688Y-103547155D01*
X188692518Y-103393774D01*
X188599332Y-103258771D01*
X188599329Y-103258768D01*
X188599327Y-103258766D01*
X188476548Y-103149993D01*
X188331291Y-103073756D01*
X188172022Y-103034500D01*
X188172021Y-103034500D01*
X188007979Y-103034500D01*
X188007978Y-103034500D01*
X187848708Y-103073756D01*
X187703451Y-103149993D01*
X187580672Y-103258766D01*
X187580666Y-103258773D01*
X187487483Y-103393771D01*
X187429312Y-103547154D01*
X187429311Y-103547157D01*
X187409539Y-103709999D01*
X174770500Y-103709999D01*
X174770500Y-102945402D01*
X174790185Y-102878363D01*
X174842989Y-102832608D01*
X174912147Y-102822664D01*
X174963391Y-102842300D01*
X175108157Y-102939030D01*
X175108167Y-102939035D01*
X175285599Y-103012530D01*
X175285606Y-103012533D01*
X175320000Y-103019373D01*
X175320000Y-102366988D01*
X175329940Y-102384205D01*
X175385795Y-102440060D01*
X175454204Y-102479556D01*
X175530504Y-102500000D01*
X175609496Y-102500000D01*
X175685796Y-102479556D01*
X175754205Y-102440060D01*
X175810060Y-102384205D01*
X175820000Y-102366988D01*
X175820000Y-103019372D01*
X175854393Y-103012533D01*
X175854400Y-103012530D01*
X176031832Y-102939035D01*
X176031842Y-102939030D01*
X176191526Y-102832332D01*
X176191530Y-102832329D01*
X176327329Y-102696530D01*
X176327332Y-102696526D01*
X176434030Y-102536842D01*
X176434035Y-102536833D01*
X176507531Y-102359397D01*
X176507533Y-102359389D01*
X176544999Y-102171033D01*
X176545000Y-102171030D01*
X176545000Y-101850000D01*
X175870000Y-101850000D01*
X175870000Y-101350000D01*
X176545000Y-101350000D01*
X176545000Y-101028970D01*
X176544999Y-101028966D01*
X176507533Y-100840610D01*
X176507531Y-100840602D01*
X176434035Y-100663166D01*
X176434030Y-100663157D01*
X176327332Y-100503473D01*
X176327329Y-100503469D01*
X176236041Y-100412181D01*
X176202556Y-100350858D01*
X176207540Y-100281166D01*
X176249412Y-100225233D01*
X176314876Y-100200816D01*
X176323722Y-100200500D01*
X176430118Y-100200500D01*
X187960118Y-100200500D01*
X187995933Y-100200500D01*
X188004043Y-100200765D01*
X188226790Y-100215364D01*
X188242848Y-100217479D01*
X188428875Y-100254482D01*
X188457771Y-100260230D01*
X188473438Y-100264428D01*
X188626569Y-100316409D01*
X188680944Y-100334867D01*
X188695921Y-100341070D01*
X188886791Y-100435196D01*
X188892460Y-100437992D01*
X188906508Y-100446102D01*
X189088712Y-100567848D01*
X189101573Y-100577716D01*
X189199000Y-100663157D01*
X189266328Y-100722202D01*
X189277797Y-100733671D01*
X189388160Y-100859517D01*
X189422280Y-100898423D01*
X189432154Y-100911291D01*
X189553897Y-101093492D01*
X189562007Y-101107539D01*
X189658926Y-101304071D01*
X189665133Y-101319057D01*
X189735571Y-101526561D01*
X189739769Y-101542228D01*
X189782518Y-101757140D01*
X189784636Y-101773221D01*
X189799235Y-101995956D01*
X189799500Y-102004066D01*
X189799500Y-112049959D01*
X189779815Y-112116998D01*
X189727011Y-112162753D01*
X189657853Y-112172697D01*
X189594297Y-112143672D01*
X189558459Y-112090914D01*
X189520457Y-111982313D01*
X189520452Y-111982302D01*
X189430481Y-111839115D01*
X189430476Y-111839109D01*
X189310890Y-111719523D01*
X189310884Y-111719518D01*
X189167697Y-111629547D01*
X189167694Y-111629545D01*
X189008056Y-111573685D01*
X188840003Y-111554751D01*
X188839997Y-111554751D01*
X188671943Y-111573685D01*
X188512305Y-111629545D01*
X188512302Y-111629547D01*
X188369115Y-111719518D01*
X188369109Y-111719523D01*
X188249523Y-111839109D01*
X188249518Y-111839115D01*
X188159547Y-111982302D01*
X188159545Y-111982305D01*
X188103685Y-112141943D01*
X188084751Y-112309997D01*
X188084751Y-112310002D01*
X188103685Y-112478056D01*
X188159545Y-112637694D01*
X188159547Y-112637697D01*
X188249518Y-112780884D01*
X188249523Y-112780890D01*
X188369109Y-112900476D01*
X188369115Y-112900481D01*
X188512302Y-112990452D01*
X188512305Y-112990454D01*
X188512309Y-112990455D01*
X188512310Y-112990456D01*
X188584913Y-113015860D01*
X188671943Y-113046314D01*
X188839997Y-113065249D01*
X188840000Y-113065249D01*
X188840003Y-113065249D01*
X189008056Y-113046314D01*
X189008059Y-113046313D01*
X189167690Y-112990456D01*
X189167692Y-112990454D01*
X189167694Y-112990454D01*
X189167697Y-112990452D01*
X189310884Y-112900481D01*
X189310885Y-112900480D01*
X189310890Y-112900477D01*
X189430477Y-112780890D01*
X189431626Y-112779061D01*
X189520452Y-112637697D01*
X189520455Y-112637691D01*
X189520456Y-112637690D01*
X189558458Y-112529086D01*
X189599180Y-112472309D01*
X189664133Y-112446562D01*
X189732694Y-112460018D01*
X189783097Y-112508405D01*
X189799500Y-112570040D01*
X189799500Y-137995933D01*
X189799235Y-138004043D01*
X189784636Y-138226778D01*
X189782518Y-138242859D01*
X189739769Y-138457771D01*
X189735571Y-138473438D01*
X189665133Y-138680942D01*
X189658926Y-138695928D01*
X189562007Y-138892460D01*
X189553897Y-138906507D01*
X189432154Y-139088708D01*
X189422280Y-139101576D01*
X189277797Y-139266328D01*
X189266328Y-139277797D01*
X189101576Y-139422280D01*
X189088708Y-139432154D01*
X188906507Y-139553897D01*
X188892460Y-139562007D01*
X188695928Y-139658926D01*
X188680942Y-139665133D01*
X188473438Y-139735571D01*
X188457771Y-139739769D01*
X188242859Y-139782518D01*
X188226778Y-139784636D01*
X188004043Y-139799235D01*
X187995933Y-139799500D01*
X152004067Y-139799500D01*
X151995957Y-139799235D01*
X151773221Y-139784636D01*
X151757140Y-139782518D01*
X151542228Y-139739769D01*
X151526561Y-139735571D01*
X151319057Y-139665133D01*
X151304071Y-139658926D01*
X151107539Y-139562007D01*
X151093492Y-139553897D01*
X150911291Y-139432154D01*
X150898423Y-139422280D01*
X150733671Y-139277797D01*
X150722202Y-139266328D01*
X150669730Y-139206495D01*
X150577716Y-139101573D01*
X150567845Y-139088708D01*
X150446102Y-138906507D01*
X150437992Y-138892460D01*
X150435196Y-138886791D01*
X150341070Y-138695921D01*
X150334866Y-138680942D01*
X150264428Y-138473438D01*
X150260230Y-138457771D01*
X150238381Y-138347929D01*
X150217479Y-138242848D01*
X150215364Y-138226790D01*
X150200765Y-138004043D01*
X150200500Y-137995933D01*
X150200500Y-137880000D01*
X165694355Y-137880000D01*
X165714859Y-138048869D01*
X165714860Y-138048874D01*
X165775182Y-138207931D01*
X165837475Y-138298177D01*
X165871817Y-138347929D01*
X165977505Y-138441560D01*
X165999150Y-138460736D01*
X166149773Y-138539789D01*
X166149775Y-138539790D01*
X166314944Y-138580500D01*
X166485056Y-138580500D01*
X166650225Y-138539790D01*
X166776647Y-138473438D01*
X166800849Y-138460736D01*
X166800850Y-138460734D01*
X166800852Y-138460734D01*
X166928183Y-138347929D01*
X167024818Y-138207930D01*
X167085140Y-138048872D01*
X167105645Y-137880000D01*
X167085140Y-137711128D01*
X167024818Y-137552070D01*
X166928183Y-137412071D01*
X166800852Y-137299266D01*
X166800849Y-137299263D01*
X166650226Y-137220210D01*
X166485056Y-137179500D01*
X166314944Y-137179500D01*
X166149773Y-137220210D01*
X165999150Y-137299263D01*
X165871816Y-137412072D01*
X165775182Y-137552068D01*
X165714860Y-137711125D01*
X165714859Y-137711130D01*
X165694355Y-137880000D01*
X150200500Y-137880000D01*
X150200500Y-136360000D01*
X157674355Y-136360000D01*
X157694859Y-136528869D01*
X157694860Y-136528874D01*
X157755182Y-136687931D01*
X157817475Y-136778177D01*
X157851817Y-136827929D01*
X157957505Y-136921560D01*
X157979150Y-136940736D01*
X158129773Y-137019789D01*
X158129775Y-137019790D01*
X158294944Y-137060500D01*
X158465056Y-137060500D01*
X158630225Y-137019790D01*
X158709692Y-136978081D01*
X158780849Y-136940736D01*
X158780850Y-136940734D01*
X158780852Y-136940734D01*
X158908183Y-136827929D01*
X159004818Y-136687930D01*
X159065140Y-136528872D01*
X159085645Y-136360000D01*
X159065140Y-136191128D01*
X159004818Y-136032070D01*
X158981253Y-135997931D01*
X158948023Y-135949789D01*
X158908183Y-135892071D01*
X158780852Y-135779266D01*
X158780849Y-135779263D01*
X158630226Y-135700210D01*
X158507657Y-135670000D01*
X163064355Y-135670000D01*
X163084859Y-135838869D01*
X163084860Y-135838874D01*
X163145182Y-135997931D01*
X163168747Y-136032070D01*
X163241817Y-136137929D01*
X163301869Y-136191130D01*
X163369150Y-136250736D01*
X163519773Y-136329789D01*
X163519775Y-136329790D01*
X163684944Y-136370500D01*
X163855056Y-136370500D01*
X164020225Y-136329790D01*
X164099692Y-136288081D01*
X164170849Y-136250736D01*
X164170850Y-136250734D01*
X164170852Y-136250734D01*
X164298183Y-136137929D01*
X164394818Y-135997930D01*
X164455140Y-135838872D01*
X164475645Y-135670000D01*
X164455140Y-135501128D01*
X164441569Y-135465345D01*
X164394817Y-135342068D01*
X164317461Y-135230000D01*
X166274355Y-135230000D01*
X166294859Y-135398869D01*
X166294860Y-135398874D01*
X166355182Y-135557931D01*
X166396597Y-135617930D01*
X166451817Y-135697929D01*
X166543628Y-135779266D01*
X166579150Y-135810736D01*
X166693467Y-135870734D01*
X166729775Y-135889790D01*
X166894944Y-135930500D01*
X167065056Y-135930500D01*
X167230225Y-135889790D01*
X167327246Y-135838869D01*
X167380849Y-135810736D01*
X167380850Y-135810734D01*
X167380852Y-135810734D01*
X167508183Y-135697929D01*
X167604818Y-135557930D01*
X167665140Y-135398872D01*
X167676842Y-135302499D01*
X182082039Y-135302499D01*
X182082039Y-135302500D01*
X182101811Y-135465342D01*
X182101812Y-135465345D01*
X182159680Y-135617931D01*
X182159983Y-135618728D01*
X182214652Y-135697929D01*
X182253168Y-135753729D01*
X182253170Y-135753731D01*
X182253172Y-135753733D01*
X182375951Y-135862506D01*
X182375952Y-135862506D01*
X182375954Y-135862508D01*
X182521205Y-135938742D01*
X182521207Y-135938742D01*
X182521208Y-135938743D01*
X182680478Y-135978000D01*
X182680479Y-135978000D01*
X182844522Y-135978000D01*
X183003791Y-135938743D01*
X183003791Y-135938742D01*
X183003795Y-135938742D01*
X183149046Y-135862508D01*
X183271832Y-135753729D01*
X183365018Y-135618726D01*
X183423188Y-135465345D01*
X183442961Y-135302500D01*
X183423188Y-135139655D01*
X183365018Y-134986274D01*
X183271832Y-134851271D01*
X183271829Y-134851268D01*
X183271827Y-134851266D01*
X183149048Y-134742493D01*
X183003791Y-134666256D01*
X182844522Y-134627000D01*
X182844521Y-134627000D01*
X182680479Y-134627000D01*
X182680478Y-134627000D01*
X182521208Y-134666256D01*
X182375951Y-134742493D01*
X182253172Y-134851266D01*
X182253166Y-134851273D01*
X182159983Y-134986271D01*
X182101812Y-135139654D01*
X182101811Y-135139657D01*
X182082039Y-135302499D01*
X167676842Y-135302499D01*
X167685645Y-135230000D01*
X167665140Y-135061128D01*
X167604818Y-134902070D01*
X167508183Y-134762071D01*
X167380852Y-134649266D01*
X167380849Y-134649263D01*
X167230226Y-134570210D01*
X167065056Y-134529500D01*
X166894944Y-134529500D01*
X166729773Y-134570210D01*
X166579150Y-134649263D01*
X166451816Y-134762072D01*
X166355182Y-134902068D01*
X166294860Y-135061125D01*
X166294859Y-135061130D01*
X166274355Y-135230000D01*
X164317461Y-135230000D01*
X164298183Y-135202071D01*
X164170852Y-135089266D01*
X164170849Y-135089263D01*
X164020226Y-135010210D01*
X163855056Y-134969500D01*
X163684944Y-134969500D01*
X163519773Y-135010210D01*
X163369150Y-135089263D01*
X163241816Y-135202072D01*
X163145182Y-135342068D01*
X163084860Y-135501125D01*
X163084859Y-135501130D01*
X163064355Y-135670000D01*
X158507657Y-135670000D01*
X158465056Y-135659500D01*
X158294944Y-135659500D01*
X158129773Y-135700210D01*
X157979150Y-135779263D01*
X157851816Y-135892072D01*
X157755182Y-136032068D01*
X157694860Y-136191125D01*
X157694859Y-136191130D01*
X157674355Y-136360000D01*
X150200500Y-136360000D01*
X150200500Y-135290000D01*
X151804355Y-135290000D01*
X151824859Y-135458869D01*
X151824860Y-135458874D01*
X151885182Y-135617931D01*
X151940400Y-135697927D01*
X151981817Y-135757929D01*
X152087505Y-135851560D01*
X152109150Y-135870736D01*
X152223021Y-135930500D01*
X152259775Y-135949790D01*
X152424944Y-135990500D01*
X152595056Y-135990500D01*
X152760225Y-135949790D01*
X152839692Y-135908081D01*
X152910849Y-135870736D01*
X152910850Y-135870734D01*
X152910852Y-135870734D01*
X153038183Y-135757929D01*
X153134818Y-135617930D01*
X153195140Y-135458872D01*
X153215645Y-135290000D01*
X153195140Y-135121128D01*
X153183056Y-135089266D01*
X153134817Y-134962068D01*
X153093401Y-134902068D01*
X153038183Y-134822071D01*
X152910852Y-134709266D01*
X152910849Y-134709263D01*
X152760226Y-134630210D01*
X152595056Y-134589500D01*
X152424944Y-134589500D01*
X152259773Y-134630210D01*
X152109150Y-134709263D01*
X151981816Y-134822072D01*
X151885182Y-134962068D01*
X151824860Y-135121125D01*
X151824859Y-135121130D01*
X151804355Y-135290000D01*
X150200500Y-135290000D01*
X150200500Y-133050000D01*
X151804355Y-133050000D01*
X151824859Y-133218869D01*
X151824860Y-133218874D01*
X151885182Y-133377931D01*
X151947475Y-133468177D01*
X151981817Y-133517929D01*
X152087505Y-133611560D01*
X152109150Y-133630736D01*
X152259773Y-133709789D01*
X152259775Y-133709790D01*
X152424944Y-133750500D01*
X152595056Y-133750500D01*
X152760225Y-133709790D01*
X152839692Y-133668081D01*
X152910849Y-133630736D01*
X152910850Y-133630734D01*
X152910852Y-133630734D01*
X153038183Y-133517929D01*
X153134818Y-133377930D01*
X153141618Y-133360000D01*
X158914355Y-133360000D01*
X158934859Y-133528869D01*
X158934860Y-133528874D01*
X158995182Y-133687931D01*
X159038371Y-133750500D01*
X159091817Y-133827929D01*
X159197505Y-133921560D01*
X159219150Y-133940736D01*
X159369773Y-134019789D01*
X159369775Y-134019790D01*
X159534944Y-134060500D01*
X159705056Y-134060500D01*
X159870225Y-134019790D01*
X159949692Y-133978081D01*
X160020849Y-133940736D01*
X160020850Y-133940734D01*
X160020852Y-133940734D01*
X160148183Y-133827929D01*
X160244818Y-133687930D01*
X160305140Y-133528872D01*
X160325645Y-133360000D01*
X160305140Y-133191128D01*
X160244818Y-133032070D01*
X160148183Y-132892071D01*
X160020852Y-132779266D01*
X160020849Y-132779263D01*
X159870226Y-132700210D01*
X159705056Y-132659500D01*
X159534944Y-132659500D01*
X159369773Y-132700210D01*
X159219150Y-132779263D01*
X159091816Y-132892072D01*
X158995182Y-133032068D01*
X158934860Y-133191125D01*
X158934859Y-133191130D01*
X158914355Y-133360000D01*
X153141618Y-133360000D01*
X153195140Y-133218872D01*
X153215645Y-133050000D01*
X153195140Y-132881128D01*
X153134818Y-132722070D01*
X153038183Y-132582071D01*
X152910852Y-132469266D01*
X152910849Y-132469263D01*
X152760226Y-132390210D01*
X152595056Y-132349500D01*
X152424944Y-132349500D01*
X152259773Y-132390210D01*
X152109150Y-132469263D01*
X151981816Y-132582072D01*
X151885182Y-132722068D01*
X151824860Y-132881125D01*
X151824859Y-132881130D01*
X151804355Y-133050000D01*
X150200500Y-133050000D01*
X150200500Y-131210000D01*
X163824355Y-131210000D01*
X163844859Y-131378869D01*
X163844860Y-131378874D01*
X163905182Y-131537931D01*
X163967475Y-131628177D01*
X164001817Y-131677929D01*
X164107505Y-131771560D01*
X164129150Y-131790736D01*
X164279773Y-131869789D01*
X164279775Y-131869790D01*
X164444944Y-131910500D01*
X164615056Y-131910500D01*
X164780225Y-131869790D01*
X164859692Y-131828081D01*
X164930849Y-131790736D01*
X164930850Y-131790734D01*
X164930852Y-131790734D01*
X165058183Y-131677929D01*
X165154818Y-131537930D01*
X165215140Y-131378872D01*
X165235645Y-131210000D01*
X165215140Y-131041128D01*
X165154818Y-130882070D01*
X165117164Y-130827519D01*
X165095282Y-130761167D01*
X165112747Y-130693516D01*
X165164014Y-130646045D01*
X165232808Y-130633828D01*
X165248888Y-130636683D01*
X165304944Y-130650500D01*
X165475056Y-130650500D01*
X165640225Y-130609790D01*
X165790852Y-130530734D01*
X165857610Y-130471592D01*
X165920843Y-130441870D01*
X165990106Y-130451054D01*
X166043410Y-130496226D01*
X166063830Y-130563045D01*
X166062933Y-130579353D01*
X166054355Y-130649999D01*
X166074859Y-130818869D01*
X166074860Y-130818874D01*
X166135182Y-130977931D01*
X166178805Y-131041128D01*
X166231817Y-131117929D01*
X166335744Y-131210000D01*
X166359150Y-131230736D01*
X166509773Y-131309789D01*
X166509775Y-131309790D01*
X166674944Y-131350500D01*
X166845056Y-131350500D01*
X167010225Y-131309790D01*
X167089692Y-131268081D01*
X167160849Y-131230736D01*
X167160850Y-131230734D01*
X167160852Y-131230734D01*
X167288183Y-131117929D01*
X167384818Y-130977930D01*
X167445140Y-130818872D01*
X167465645Y-130650000D01*
X167445140Y-130481128D01*
X167384818Y-130322070D01*
X167288183Y-130182071D01*
X167160852Y-130069266D01*
X167160849Y-130069263D01*
X167010226Y-129990210D01*
X166845056Y-129949500D01*
X166674944Y-129949500D01*
X166509773Y-129990210D01*
X166359150Y-130069263D01*
X166292388Y-130128409D01*
X166229154Y-130158129D01*
X166159891Y-130148945D01*
X166106588Y-130103772D01*
X166086169Y-130036952D01*
X166087065Y-130020661D01*
X166095645Y-129950000D01*
X166075140Y-129781128D01*
X166014818Y-129622070D01*
X165918183Y-129482071D01*
X165823316Y-129398026D01*
X165790849Y-129369263D01*
X165640226Y-129290210D01*
X165475056Y-129249500D01*
X165304944Y-129249500D01*
X165139773Y-129290210D01*
X164989150Y-129369263D01*
X164861816Y-129482072D01*
X164765182Y-129622068D01*
X164704860Y-129781125D01*
X164704859Y-129781130D01*
X164684355Y-129950000D01*
X164704859Y-130118869D01*
X164704860Y-130118874D01*
X164765182Y-130277931D01*
X164802834Y-130332478D01*
X164824717Y-130398832D01*
X164807252Y-130466484D01*
X164755984Y-130513954D01*
X164687191Y-130526171D01*
X164671111Y-130523315D01*
X164615059Y-130509500D01*
X164615056Y-130509500D01*
X164444944Y-130509500D01*
X164279773Y-130550210D01*
X164129150Y-130629263D01*
X164001816Y-130742072D01*
X163905182Y-130882068D01*
X163844860Y-131041125D01*
X163844859Y-131041130D01*
X163824355Y-131210000D01*
X150200500Y-131210000D01*
X150200500Y-129970000D01*
X152994355Y-129970000D01*
X153014859Y-130138869D01*
X153014860Y-130138874D01*
X153075182Y-130297931D01*
X153099029Y-130332478D01*
X153171817Y-130437929D01*
X153257632Y-130513954D01*
X153299150Y-130550736D01*
X153448771Y-130629263D01*
X153449775Y-130629790D01*
X153614944Y-130670500D01*
X153785056Y-130670500D01*
X153950225Y-130629790D01*
X154077396Y-130563045D01*
X154100849Y-130550736D01*
X154100850Y-130550734D01*
X154100852Y-130550734D01*
X154228183Y-130437929D01*
X154324818Y-130297930D01*
X154385140Y-130138872D01*
X154405645Y-129970000D01*
X154385140Y-129801128D01*
X154324818Y-129642070D01*
X154228183Y-129502071D01*
X154100852Y-129389266D01*
X154100849Y-129389263D01*
X153950226Y-129310210D01*
X153785056Y-129269500D01*
X153614944Y-129269500D01*
X153449773Y-129310210D01*
X153299150Y-129389263D01*
X153171816Y-129502072D01*
X153075182Y-129642068D01*
X153014860Y-129801125D01*
X153014859Y-129801130D01*
X152994355Y-129970000D01*
X150200500Y-129970000D01*
X150200500Y-128160000D01*
X163824355Y-128160000D01*
X163844859Y-128328869D01*
X163844860Y-128328874D01*
X163905182Y-128487931D01*
X163967475Y-128578177D01*
X164001817Y-128627929D01*
X164107505Y-128721560D01*
X164129150Y-128740736D01*
X164279773Y-128819789D01*
X164279775Y-128819790D01*
X164444944Y-128860500D01*
X164615056Y-128860500D01*
X164780225Y-128819790D01*
X164859692Y-128778081D01*
X164930849Y-128740736D01*
X164930850Y-128740734D01*
X164930852Y-128740734D01*
X165058183Y-128627929D01*
X165154818Y-128487930D01*
X165215140Y-128328872D01*
X165235645Y-128160000D01*
X165215140Y-127991128D01*
X165154818Y-127832070D01*
X165058183Y-127692071D01*
X164930852Y-127579266D01*
X164930849Y-127579263D01*
X164780226Y-127500210D01*
X164615056Y-127459500D01*
X164444944Y-127459500D01*
X164279773Y-127500210D01*
X164129150Y-127579263D01*
X164001816Y-127692072D01*
X163905182Y-127832068D01*
X163844860Y-127991125D01*
X163844859Y-127991130D01*
X163824355Y-128160000D01*
X150200500Y-128160000D01*
X150200500Y-126200000D01*
X161944355Y-126200000D01*
X161964859Y-126368869D01*
X161964860Y-126368874D01*
X162025182Y-126527931D01*
X162068026Y-126590000D01*
X162121817Y-126667929D01*
X162224467Y-126758869D01*
X162249150Y-126780736D01*
X162339071Y-126827930D01*
X162399775Y-126859790D01*
X162564944Y-126900500D01*
X162735056Y-126900500D01*
X162900225Y-126859790D01*
X162979692Y-126818081D01*
X163050849Y-126780736D01*
X163050850Y-126780734D01*
X163050852Y-126780734D01*
X163178183Y-126667929D01*
X163274818Y-126527930D01*
X163335140Y-126368872D01*
X163355645Y-126200000D01*
X163335140Y-126031128D01*
X163327127Y-126010000D01*
X163714355Y-126010000D01*
X163734859Y-126178869D01*
X163734860Y-126178874D01*
X163795182Y-126337931D01*
X163825001Y-126381130D01*
X163891817Y-126477929D01*
X163997505Y-126571560D01*
X164019150Y-126590736D01*
X164166225Y-126667927D01*
X164169775Y-126669790D01*
X164334944Y-126710500D01*
X164505056Y-126710500D01*
X164670225Y-126669790D01*
X164749692Y-126628081D01*
X164820849Y-126590736D01*
X164820850Y-126590734D01*
X164820852Y-126590734D01*
X164821681Y-126590000D01*
X166994355Y-126590000D01*
X167014859Y-126758869D01*
X167014860Y-126758874D01*
X167075182Y-126917931D01*
X167109694Y-126967929D01*
X167171817Y-127057929D01*
X167277505Y-127151560D01*
X167299150Y-127170736D01*
X167449773Y-127249789D01*
X167449775Y-127249790D01*
X167614944Y-127290500D01*
X167785056Y-127290500D01*
X167950225Y-127249790D01*
X168100852Y-127170734D01*
X168195348Y-127087017D01*
X168258581Y-127057296D01*
X168327844Y-127066480D01*
X168359802Y-127087017D01*
X168409150Y-127130736D01*
X168559773Y-127209789D01*
X168559775Y-127209790D01*
X168724944Y-127250500D01*
X168895056Y-127250500D01*
X169060225Y-127209790D01*
X169155493Y-127159789D01*
X169210849Y-127130736D01*
X169210850Y-127130734D01*
X169210852Y-127130734D01*
X169338183Y-127017929D01*
X169434818Y-126877930D01*
X169495140Y-126718872D01*
X169515645Y-126550000D01*
X169495140Y-126381128D01*
X169488078Y-126362508D01*
X169463588Y-126297931D01*
X169434818Y-126222070D01*
X169338183Y-126082071D01*
X169211681Y-125970000D01*
X169774355Y-125970000D01*
X169794859Y-126138869D01*
X169794860Y-126138874D01*
X169855182Y-126297931D01*
X169878095Y-126331125D01*
X169951817Y-126437929D01*
X170021881Y-126500000D01*
X170079150Y-126550736D01*
X170229773Y-126629789D01*
X170229775Y-126629790D01*
X170394944Y-126670500D01*
X170565056Y-126670500D01*
X170730225Y-126629790D01*
X170809692Y-126588081D01*
X170880849Y-126550736D01*
X170880850Y-126550734D01*
X170880852Y-126550734D01*
X170938119Y-126500000D01*
X171414355Y-126500000D01*
X171434859Y-126668869D01*
X171434860Y-126668874D01*
X171495182Y-126827931D01*
X171529695Y-126877931D01*
X171591817Y-126967929D01*
X171648256Y-127017929D01*
X171719150Y-127080736D01*
X171869773Y-127159789D01*
X171869775Y-127159790D01*
X172034944Y-127200500D01*
X172205056Y-127200500D01*
X172370225Y-127159790D01*
X172449692Y-127118081D01*
X172520849Y-127080736D01*
X172520850Y-127080734D01*
X172520852Y-127080734D01*
X172648183Y-126967929D01*
X172744818Y-126827930D01*
X172805140Y-126668872D01*
X172825645Y-126500000D01*
X172805140Y-126331128D01*
X172744818Y-126172070D01*
X172730091Y-126150735D01*
X172658337Y-126046781D01*
X172636454Y-125980427D01*
X172653919Y-125912775D01*
X172672698Y-125888668D01*
X172758868Y-125802499D01*
X187032039Y-125802499D01*
X187032039Y-125802500D01*
X187051811Y-125965342D01*
X187051812Y-125965345D01*
X187096638Y-126083542D01*
X187109983Y-126118728D01*
X187132076Y-126150735D01*
X187203168Y-126253729D01*
X187203170Y-126253731D01*
X187203172Y-126253733D01*
X187325951Y-126362506D01*
X187325952Y-126362506D01*
X187325954Y-126362508D01*
X187471205Y-126438742D01*
X187471207Y-126438742D01*
X187471208Y-126438743D01*
X187630478Y-126478000D01*
X187630479Y-126478000D01*
X187794522Y-126478000D01*
X187953791Y-126438743D01*
X187953791Y-126438742D01*
X187953795Y-126438742D01*
X188099046Y-126362508D01*
X188221832Y-126253729D01*
X188315018Y-126118726D01*
X188373188Y-125965345D01*
X188392961Y-125802500D01*
X188392794Y-125801128D01*
X188377859Y-125678127D01*
X188373188Y-125639655D01*
X188315018Y-125486274D01*
X188221832Y-125351271D01*
X188221829Y-125351268D01*
X188221827Y-125351266D01*
X188099048Y-125242493D01*
X187982127Y-125181128D01*
X187953795Y-125166258D01*
X187953794Y-125166257D01*
X187953791Y-125166256D01*
X187794522Y-125127000D01*
X187794521Y-125127000D01*
X187630479Y-125127000D01*
X187630478Y-125127000D01*
X187471208Y-125166256D01*
X187325951Y-125242493D01*
X187203172Y-125351266D01*
X187203166Y-125351273D01*
X187109983Y-125486271D01*
X187051812Y-125639654D01*
X187051811Y-125639657D01*
X187032039Y-125802499D01*
X172758868Y-125802499D01*
X172790477Y-125770890D01*
X172810594Y-125738874D01*
X172880452Y-125627697D01*
X172880454Y-125627694D01*
X172880454Y-125627692D01*
X172880456Y-125627690D01*
X172936313Y-125468059D01*
X172936313Y-125468058D01*
X172936314Y-125468056D01*
X172955249Y-125300002D01*
X172955249Y-125299997D01*
X172936314Y-125131943D01*
X172880454Y-124972305D01*
X172880452Y-124972302D01*
X172790481Y-124829115D01*
X172790476Y-124829109D01*
X172670890Y-124709523D01*
X172670884Y-124709518D01*
X172527697Y-124619547D01*
X172527694Y-124619545D01*
X172368056Y-124563685D01*
X172200003Y-124544751D01*
X172199997Y-124544751D01*
X172031943Y-124563685D01*
X171872305Y-124619545D01*
X171872302Y-124619547D01*
X171729115Y-124709518D01*
X171729109Y-124709523D01*
X171609523Y-124829109D01*
X171609518Y-124829115D01*
X171519547Y-124972302D01*
X171519545Y-124972305D01*
X171463685Y-125131943D01*
X171444751Y-125299997D01*
X171444751Y-125300002D01*
X171463685Y-125468056D01*
X171519545Y-125627694D01*
X171519547Y-125627697D01*
X171609518Y-125770884D01*
X171609523Y-125770890D01*
X171646550Y-125807917D01*
X171680035Y-125869240D01*
X171675051Y-125938932D01*
X171641096Y-125988413D01*
X171591818Y-126032069D01*
X171495182Y-126172068D01*
X171434860Y-126331125D01*
X171434859Y-126331130D01*
X171414355Y-126500000D01*
X170938119Y-126500000D01*
X171008183Y-126437929D01*
X171104818Y-126297930D01*
X171165140Y-126138872D01*
X171185645Y-125970000D01*
X171165140Y-125801128D01*
X171104818Y-125642070D01*
X171103244Y-125639790D01*
X171035793Y-125542071D01*
X171008183Y-125502071D01*
X170894244Y-125401130D01*
X170880849Y-125389263D01*
X170730226Y-125310210D01*
X170565056Y-125269500D01*
X170394944Y-125269500D01*
X170229773Y-125310210D01*
X170079150Y-125389263D01*
X169951816Y-125502072D01*
X169855182Y-125642068D01*
X169794860Y-125801125D01*
X169794859Y-125801130D01*
X169774355Y-125970000D01*
X169211681Y-125970000D01*
X169210852Y-125969266D01*
X169210849Y-125969263D01*
X169109332Y-125915983D01*
X169059119Y-125867398D01*
X169043145Y-125799379D01*
X169064908Y-125735748D01*
X169077966Y-125716829D01*
X169132248Y-125672839D01*
X169150335Y-125666874D01*
X169260225Y-125639790D01*
X169410852Y-125560734D01*
X169538183Y-125447929D01*
X169634818Y-125307930D01*
X169695140Y-125148872D01*
X169715645Y-124980000D01*
X169695140Y-124811128D01*
X169634818Y-124652070D01*
X169634681Y-124651872D01*
X169573810Y-124563685D01*
X169538183Y-124512071D01*
X169410852Y-124399266D01*
X169410849Y-124399263D01*
X169260226Y-124320210D01*
X169095056Y-124279500D01*
X168924944Y-124279500D01*
X168759773Y-124320210D01*
X168609150Y-124399263D01*
X168481815Y-124512072D01*
X168412031Y-124613170D01*
X168357748Y-124657160D01*
X168339658Y-124663126D01*
X168229772Y-124690210D01*
X168079150Y-124769263D01*
X167951816Y-124882072D01*
X167855182Y-125022068D01*
X167794860Y-125181125D01*
X167794859Y-125181130D01*
X167774355Y-125350000D01*
X167794859Y-125518869D01*
X167794860Y-125518874D01*
X167855182Y-125677931D01*
X167867006Y-125695060D01*
X167888889Y-125761414D01*
X167871424Y-125829066D01*
X167820156Y-125876536D01*
X167764956Y-125889500D01*
X167614944Y-125889500D01*
X167449773Y-125930210D01*
X167299150Y-126009263D01*
X167182638Y-126112484D01*
X167175591Y-126118728D01*
X167171816Y-126122072D01*
X167075182Y-126262068D01*
X167014860Y-126421125D01*
X167014859Y-126421130D01*
X166994355Y-126590000D01*
X164821681Y-126590000D01*
X164948183Y-126477929D01*
X165044818Y-126337930D01*
X165105140Y-126178872D01*
X165105140Y-126178871D01*
X165107800Y-126171858D01*
X165110597Y-126172918D01*
X165138857Y-126124418D01*
X165201086Y-126092649D01*
X165224070Y-126090500D01*
X165315056Y-126090500D01*
X165480225Y-126049790D01*
X165520598Y-126028599D01*
X165589106Y-126014873D01*
X165654160Y-126040364D01*
X165660453Y-126045580D01*
X165779147Y-126150733D01*
X165779149Y-126150735D01*
X165915062Y-126222068D01*
X165929775Y-126229790D01*
X166094944Y-126270500D01*
X166265056Y-126270500D01*
X166430225Y-126229790D01*
X166527246Y-126178869D01*
X166580849Y-126150736D01*
X166580850Y-126150734D01*
X166580852Y-126150734D01*
X166708183Y-126037929D01*
X166804818Y-125897930D01*
X166865140Y-125738872D01*
X166885645Y-125570000D01*
X166865140Y-125401128D01*
X166860641Y-125389266D01*
X166830660Y-125310210D01*
X166804818Y-125242070D01*
X166795203Y-125228141D01*
X166740489Y-125148874D01*
X166708183Y-125102071D01*
X166580852Y-124989266D01*
X166580849Y-124989263D01*
X166430226Y-124910210D01*
X166265056Y-124869500D01*
X166094944Y-124869500D01*
X165929774Y-124910209D01*
X165929774Y-124910210D01*
X165889397Y-124931401D01*
X165820888Y-124945125D01*
X165755836Y-124919632D01*
X165749546Y-124914419D01*
X165630852Y-124809266D01*
X165630850Y-124809264D01*
X165480226Y-124730210D01*
X165315056Y-124689500D01*
X165144944Y-124689500D01*
X164979773Y-124730210D01*
X164829150Y-124809263D01*
X164701816Y-124922072D01*
X164605182Y-125062068D01*
X164605182Y-125062069D01*
X164542200Y-125228141D01*
X164539399Y-125227078D01*
X164511159Y-125275567D01*
X164448935Y-125307347D01*
X164425930Y-125309500D01*
X164334944Y-125309500D01*
X164169773Y-125350210D01*
X164019150Y-125429263D01*
X163891816Y-125542072D01*
X163795182Y-125682068D01*
X163734860Y-125841125D01*
X163734859Y-125841130D01*
X163714355Y-126010000D01*
X163327127Y-126010000D01*
X163274818Y-125872070D01*
X163178183Y-125732071D01*
X163083316Y-125648026D01*
X163050849Y-125619263D01*
X162900226Y-125540210D01*
X162735056Y-125499500D01*
X162564944Y-125499500D01*
X162399773Y-125540210D01*
X162249150Y-125619263D01*
X162121816Y-125732072D01*
X162025182Y-125872068D01*
X161964860Y-126031125D01*
X161964859Y-126031130D01*
X161944355Y-126200000D01*
X150200500Y-126200000D01*
X150200500Y-124760000D01*
X159214355Y-124760000D01*
X159234859Y-124928869D01*
X159234860Y-124928874D01*
X159295182Y-125087931D01*
X159337249Y-125148874D01*
X159391817Y-125227929D01*
X159491745Y-125316457D01*
X159519150Y-125340736D01*
X159669773Y-125419789D01*
X159669775Y-125419790D01*
X159834944Y-125460500D01*
X160005056Y-125460500D01*
X160170225Y-125419790D01*
X160300776Y-125351271D01*
X160320849Y-125340736D01*
X160320850Y-125340734D01*
X160320852Y-125340734D01*
X160448183Y-125227929D01*
X160544818Y-125087930D01*
X160605140Y-124928872D01*
X160625645Y-124760000D01*
X160605140Y-124591128D01*
X160544818Y-124432070D01*
X160448183Y-124292071D01*
X160320852Y-124179266D01*
X160320849Y-124179263D01*
X160170226Y-124100210D01*
X160005056Y-124059500D01*
X159834944Y-124059500D01*
X159669773Y-124100210D01*
X159519150Y-124179263D01*
X159391816Y-124292072D01*
X159295182Y-124432068D01*
X159234860Y-124591125D01*
X159234859Y-124591130D01*
X159214355Y-124760000D01*
X150200500Y-124760000D01*
X150200500Y-122400000D01*
X154329355Y-122400000D01*
X154349859Y-122568869D01*
X154349860Y-122568874D01*
X154410182Y-122727931D01*
X154431989Y-122759523D01*
X154506817Y-122867929D01*
X154612505Y-122961560D01*
X154634150Y-122980736D01*
X154764723Y-123049266D01*
X154784775Y-123059790D01*
X154949944Y-123100500D01*
X155120056Y-123100500D01*
X155285225Y-123059790D01*
X155364692Y-123018081D01*
X155435849Y-122980736D01*
X155435850Y-122980734D01*
X155435852Y-122980734D01*
X155549559Y-122879999D01*
X160519539Y-122879999D01*
X160519539Y-122880000D01*
X160539311Y-123042842D01*
X160539312Y-123042845D01*
X160592064Y-123181941D01*
X160597483Y-123196228D01*
X160690666Y-123331226D01*
X160690668Y-123331229D01*
X160741239Y-123376031D01*
X160778365Y-123435221D01*
X160782107Y-123483792D01*
X160764355Y-123629999D01*
X160784859Y-123798869D01*
X160784860Y-123798874D01*
X160845182Y-123957931D01*
X160895241Y-124030452D01*
X160941817Y-124097929D01*
X161033628Y-124179266D01*
X161069150Y-124210736D01*
X161200169Y-124279500D01*
X161219775Y-124289790D01*
X161384944Y-124330500D01*
X161555056Y-124330500D01*
X161720225Y-124289790D01*
X161799692Y-124248081D01*
X161870849Y-124210736D01*
X161870850Y-124210734D01*
X161870852Y-124210734D01*
X161998183Y-124097929D01*
X162094818Y-123957930D01*
X162155140Y-123798872D01*
X162175645Y-123630000D01*
X162155140Y-123461128D01*
X162124373Y-123380000D01*
X163394355Y-123380000D01*
X163414859Y-123548869D01*
X163414860Y-123548874D01*
X163475182Y-123707931D01*
X163537475Y-123798177D01*
X163571817Y-123847929D01*
X163676287Y-123940481D01*
X163699150Y-123960736D01*
X163849773Y-124039789D01*
X163849775Y-124039790D01*
X164014944Y-124080500D01*
X164185056Y-124080500D01*
X164350225Y-124039790D01*
X164429692Y-123998081D01*
X164500849Y-123960736D01*
X164500850Y-123960734D01*
X164500852Y-123960734D01*
X164628183Y-123847929D01*
X164724818Y-123707930D01*
X164785140Y-123548872D01*
X164805645Y-123380000D01*
X164785140Y-123211128D01*
X164779488Y-123196226D01*
X164724817Y-123052068D01*
X164672244Y-122975904D01*
X164628183Y-122912071D01*
X164500852Y-122799266D01*
X164500849Y-122799263D01*
X164350226Y-122720210D01*
X164349370Y-122719999D01*
X181179539Y-122719999D01*
X181179539Y-122720000D01*
X181199311Y-122882842D01*
X181199312Y-122882845D01*
X181252204Y-123022310D01*
X181257483Y-123036228D01*
X181262676Y-123043751D01*
X181350668Y-123171229D01*
X181350670Y-123171231D01*
X181350672Y-123171233D01*
X181473451Y-123280006D01*
X181473452Y-123280006D01*
X181473454Y-123280008D01*
X181618705Y-123356242D01*
X181618707Y-123356242D01*
X181618708Y-123356243D01*
X181777978Y-123395500D01*
X181777979Y-123395500D01*
X181942022Y-123395500D01*
X182101291Y-123356243D01*
X182101291Y-123356242D01*
X182101295Y-123356242D01*
X182113194Y-123349997D01*
X186074751Y-123349997D01*
X186074751Y-123350002D01*
X186093685Y-123518056D01*
X186149545Y-123677694D01*
X186149547Y-123677697D01*
X186239518Y-123820884D01*
X186239523Y-123820890D01*
X186359109Y-123940476D01*
X186359115Y-123940481D01*
X186502302Y-124030452D01*
X186502305Y-124030454D01*
X186502309Y-124030455D01*
X186502310Y-124030456D01*
X186574913Y-124055860D01*
X186661943Y-124086314D01*
X186829997Y-124105249D01*
X186830000Y-124105249D01*
X186830003Y-124105249D01*
X186998056Y-124086314D01*
X186998059Y-124086313D01*
X187157690Y-124030456D01*
X187157692Y-124030454D01*
X187157694Y-124030454D01*
X187157697Y-124030452D01*
X187300884Y-123940481D01*
X187300885Y-123940480D01*
X187300890Y-123940477D01*
X187420477Y-123820890D01*
X187434314Y-123798869D01*
X187510452Y-123677697D01*
X187510454Y-123677694D01*
X187510454Y-123677692D01*
X187510456Y-123677690D01*
X187566313Y-123518059D01*
X187566313Y-123518058D01*
X187566314Y-123518056D01*
X187585249Y-123350002D01*
X187585249Y-123349997D01*
X187566314Y-123181943D01*
X187515325Y-123036226D01*
X187510456Y-123022310D01*
X187510455Y-123022309D01*
X187510454Y-123022305D01*
X187510452Y-123022302D01*
X187420481Y-122879115D01*
X187420476Y-122879109D01*
X187300890Y-122759523D01*
X187300884Y-122759518D01*
X187157697Y-122669547D01*
X187157694Y-122669545D01*
X186998056Y-122613685D01*
X186830003Y-122594751D01*
X186829997Y-122594751D01*
X186661943Y-122613685D01*
X186502305Y-122669545D01*
X186502302Y-122669547D01*
X186359115Y-122759518D01*
X186359109Y-122759523D01*
X186239523Y-122879109D01*
X186239518Y-122879115D01*
X186149547Y-123022302D01*
X186149545Y-123022305D01*
X186093685Y-123181943D01*
X186074751Y-123349997D01*
X182113194Y-123349997D01*
X182246546Y-123280008D01*
X182369332Y-123171229D01*
X182462518Y-123036226D01*
X182520688Y-122882845D01*
X182540461Y-122720000D01*
X182540115Y-122717154D01*
X182522111Y-122568874D01*
X182520688Y-122557155D01*
X182462518Y-122403774D01*
X182453342Y-122390481D01*
X182404687Y-122319992D01*
X182369332Y-122268771D01*
X182369329Y-122268768D01*
X182369327Y-122268766D01*
X182246548Y-122159993D01*
X182101291Y-122083756D01*
X181942022Y-122044500D01*
X181942021Y-122044500D01*
X181777979Y-122044500D01*
X181777978Y-122044500D01*
X181618708Y-122083756D01*
X181473451Y-122159993D01*
X181350672Y-122268766D01*
X181350666Y-122268773D01*
X181257483Y-122403771D01*
X181199312Y-122557154D01*
X181199311Y-122557157D01*
X181179539Y-122719999D01*
X164349370Y-122719999D01*
X164185056Y-122679500D01*
X164014944Y-122679500D01*
X163849773Y-122720210D01*
X163699150Y-122799263D01*
X163571816Y-122912072D01*
X163475182Y-123052068D01*
X163414860Y-123211125D01*
X163414859Y-123211130D01*
X163394355Y-123380000D01*
X162124373Y-123380000D01*
X162094818Y-123302070D01*
X161998183Y-123162071D01*
X161998181Y-123162069D01*
X161909684Y-123083667D01*
X161872557Y-123024478D01*
X161868815Y-122975909D01*
X161880461Y-122880000D01*
X161860688Y-122717155D01*
X161802518Y-122563774D01*
X161709332Y-122428771D01*
X161709329Y-122428768D01*
X161709327Y-122428766D01*
X161586548Y-122319993D01*
X161488953Y-122268771D01*
X161441295Y-122243758D01*
X161441294Y-122243757D01*
X161441291Y-122243756D01*
X161282022Y-122204500D01*
X161282021Y-122204500D01*
X161117979Y-122204500D01*
X161117978Y-122204500D01*
X160958708Y-122243756D01*
X160813451Y-122319993D01*
X160690672Y-122428766D01*
X160690666Y-122428773D01*
X160597483Y-122563771D01*
X160539312Y-122717154D01*
X160539311Y-122717157D01*
X160519539Y-122879999D01*
X155549559Y-122879999D01*
X155563183Y-122867929D01*
X155659818Y-122727930D01*
X155720140Y-122568872D01*
X155740645Y-122400000D01*
X155720140Y-122231128D01*
X155710041Y-122204500D01*
X155680912Y-122127690D01*
X155659818Y-122072070D01*
X155629349Y-122027929D01*
X155625476Y-122022318D01*
X155563183Y-121932071D01*
X155435852Y-121819266D01*
X155435849Y-121819263D01*
X155285226Y-121740210D01*
X155120056Y-121699500D01*
X154949944Y-121699500D01*
X154784773Y-121740210D01*
X154634150Y-121819263D01*
X154506816Y-121932072D01*
X154410182Y-122072068D01*
X154349860Y-122231125D01*
X154349859Y-122231130D01*
X154329355Y-122400000D01*
X150200500Y-122400000D01*
X150200500Y-121150000D01*
X158074355Y-121150000D01*
X158094859Y-121318869D01*
X158094860Y-121318874D01*
X158155182Y-121477931D01*
X158211831Y-121560000D01*
X158251817Y-121617929D01*
X158343892Y-121699500D01*
X158379150Y-121730736D01*
X158529773Y-121809789D01*
X158529775Y-121809790D01*
X158694944Y-121850500D01*
X158865056Y-121850500D01*
X159030225Y-121809790D01*
X159109692Y-121768081D01*
X159180849Y-121730736D01*
X159180850Y-121730734D01*
X159180852Y-121730734D01*
X159308183Y-121617929D01*
X159348169Y-121560000D01*
X161614355Y-121560000D01*
X161634859Y-121728869D01*
X161634860Y-121728874D01*
X161695182Y-121887931D01*
X161725651Y-121932072D01*
X161791817Y-122027929D01*
X161897505Y-122121560D01*
X161919150Y-122140736D01*
X162069773Y-122219789D01*
X162069775Y-122219790D01*
X162234944Y-122260500D01*
X162405056Y-122260500D01*
X162570225Y-122219790D01*
X162649692Y-122178081D01*
X162720849Y-122140736D01*
X162720850Y-122140734D01*
X162720852Y-122140734D01*
X162848183Y-122027929D01*
X162944818Y-121887930D01*
X162978166Y-121799997D01*
X164154751Y-121799997D01*
X164154751Y-121800002D01*
X164173685Y-121968056D01*
X164229545Y-122127694D01*
X164229547Y-122127697D01*
X164319518Y-122270884D01*
X164319523Y-122270890D01*
X164439109Y-122390476D01*
X164439115Y-122390481D01*
X164582302Y-122480452D01*
X164582305Y-122480454D01*
X164582309Y-122480455D01*
X164582310Y-122480456D01*
X164654913Y-122505860D01*
X164741943Y-122536314D01*
X164909997Y-122555249D01*
X164910000Y-122555249D01*
X164910003Y-122555249D01*
X165078056Y-122536314D01*
X165078059Y-122536313D01*
X165237690Y-122480456D01*
X165237692Y-122480454D01*
X165237694Y-122480454D01*
X165237697Y-122480452D01*
X165380884Y-122390481D01*
X165380885Y-122390480D01*
X165380890Y-122390477D01*
X165500477Y-122270890D01*
X165501807Y-122268773D01*
X165590452Y-122127697D01*
X165590454Y-122127694D01*
X165590454Y-122127692D01*
X165590456Y-122127690D01*
X165646313Y-121968059D01*
X165646313Y-121968058D01*
X165646314Y-121968056D01*
X165665249Y-121800002D01*
X165665249Y-121799997D01*
X165646314Y-121631943D01*
X165592423Y-121477931D01*
X165590456Y-121472310D01*
X165590455Y-121472309D01*
X165590454Y-121472305D01*
X165590452Y-121472302D01*
X165500481Y-121329115D01*
X165500476Y-121329109D01*
X165380890Y-121209523D01*
X165380884Y-121209518D01*
X165237697Y-121119547D01*
X165237694Y-121119545D01*
X165078056Y-121063685D01*
X164910003Y-121044751D01*
X164909997Y-121044751D01*
X164741943Y-121063685D01*
X164582305Y-121119545D01*
X164582302Y-121119547D01*
X164439115Y-121209518D01*
X164439109Y-121209523D01*
X164319523Y-121329109D01*
X164319518Y-121329115D01*
X164229547Y-121472302D01*
X164229545Y-121472305D01*
X164173685Y-121631943D01*
X164154751Y-121799997D01*
X162978166Y-121799997D01*
X163005140Y-121728872D01*
X163025645Y-121560000D01*
X163005140Y-121391128D01*
X162944818Y-121232070D01*
X162929251Y-121209518D01*
X162886208Y-121147159D01*
X162864325Y-121080805D01*
X162881790Y-121013153D01*
X162933058Y-120965683D01*
X163001851Y-120953466D01*
X163017925Y-120956320D01*
X163127861Y-120983417D01*
X163297973Y-120983417D01*
X163463142Y-120942707D01*
X163564614Y-120889450D01*
X163613766Y-120863653D01*
X163613767Y-120863651D01*
X163613769Y-120863651D01*
X163741100Y-120750846D01*
X163837735Y-120610847D01*
X163898057Y-120451789D01*
X163918562Y-120282917D01*
X163906065Y-120179997D01*
X182774751Y-120179997D01*
X182774751Y-120180002D01*
X182793685Y-120348056D01*
X182849545Y-120507694D01*
X182849547Y-120507697D01*
X182939518Y-120650884D01*
X182939523Y-120650890D01*
X183059109Y-120770476D01*
X183059115Y-120770481D01*
X183202302Y-120860452D01*
X183202305Y-120860454D01*
X183202309Y-120860455D01*
X183202310Y-120860456D01*
X183211441Y-120863651D01*
X183361943Y-120916314D01*
X183529997Y-120935249D01*
X183530000Y-120935249D01*
X183530003Y-120935249D01*
X183698056Y-120916314D01*
X183698059Y-120916313D01*
X183857690Y-120860456D01*
X183857692Y-120860454D01*
X183857694Y-120860454D01*
X183857697Y-120860452D01*
X184000884Y-120770481D01*
X184000885Y-120770480D01*
X184000890Y-120770477D01*
X184120477Y-120650890D01*
X184210452Y-120507697D01*
X184210454Y-120507694D01*
X184210454Y-120507692D01*
X184210456Y-120507690D01*
X184266313Y-120348059D01*
X184266313Y-120348058D01*
X184266314Y-120348056D01*
X184285249Y-120180002D01*
X184285249Y-120179997D01*
X184266314Y-120011943D01*
X184223111Y-119888476D01*
X184210456Y-119852310D01*
X184210455Y-119852309D01*
X184210454Y-119852305D01*
X184210452Y-119852302D01*
X184120481Y-119709115D01*
X184120476Y-119709109D01*
X184000890Y-119589523D01*
X184000884Y-119589518D01*
X183857697Y-119499547D01*
X183857694Y-119499545D01*
X183698056Y-119443685D01*
X183530003Y-119424751D01*
X183529997Y-119424751D01*
X183361943Y-119443685D01*
X183202305Y-119499545D01*
X183202302Y-119499547D01*
X183059115Y-119589518D01*
X183059109Y-119589523D01*
X182939523Y-119709109D01*
X182939518Y-119709115D01*
X182849547Y-119852302D01*
X182849545Y-119852305D01*
X182793685Y-120011943D01*
X182774751Y-120179997D01*
X163906065Y-120179997D01*
X163898057Y-120114045D01*
X163855900Y-120002887D01*
X163850534Y-119933224D01*
X163869794Y-119888476D01*
X163894758Y-119852310D01*
X163907225Y-119834249D01*
X163967547Y-119675191D01*
X163988052Y-119506319D01*
X163971499Y-119369997D01*
X174414751Y-119369997D01*
X174414751Y-119370002D01*
X174433685Y-119538056D01*
X174489545Y-119697694D01*
X174489547Y-119697697D01*
X174579518Y-119840884D01*
X174579523Y-119840890D01*
X174699109Y-119960476D01*
X174699115Y-119960481D01*
X174842302Y-120050452D01*
X174842305Y-120050454D01*
X174842309Y-120050455D01*
X174842310Y-120050456D01*
X174914913Y-120075860D01*
X175001943Y-120106314D01*
X175169997Y-120125249D01*
X175170000Y-120125249D01*
X175170003Y-120125249D01*
X175338056Y-120106314D01*
X175338059Y-120106313D01*
X175497690Y-120050456D01*
X175497692Y-120050454D01*
X175497694Y-120050454D01*
X175497697Y-120050452D01*
X175640884Y-119960481D01*
X175640885Y-119960480D01*
X175640890Y-119960477D01*
X175760477Y-119840890D01*
X175850456Y-119697690D01*
X175850456Y-119697689D01*
X175853071Y-119693528D01*
X175905406Y-119647237D01*
X175958065Y-119635500D01*
X176002022Y-119635500D01*
X176161291Y-119596243D01*
X176161291Y-119596242D01*
X176161295Y-119596242D01*
X176306546Y-119520008D01*
X176429332Y-119411229D01*
X176522518Y-119276226D01*
X176580688Y-119122845D01*
X176600461Y-118960000D01*
X176580688Y-118797155D01*
X176522518Y-118643774D01*
X176429332Y-118508771D01*
X176429329Y-118508768D01*
X176429327Y-118508766D01*
X176306548Y-118399993D01*
X176161291Y-118323756D01*
X176002022Y-118284500D01*
X176002021Y-118284500D01*
X175837979Y-118284500D01*
X175837978Y-118284500D01*
X175678708Y-118323756D01*
X175533451Y-118399993D01*
X175410669Y-118508768D01*
X175367594Y-118571173D01*
X175313311Y-118615162D01*
X175251662Y-118623951D01*
X175170003Y-118614751D01*
X175169997Y-118614751D01*
X175001943Y-118633685D01*
X174842305Y-118689545D01*
X174842302Y-118689547D01*
X174699115Y-118779518D01*
X174699109Y-118779523D01*
X174579523Y-118899109D01*
X174579518Y-118899115D01*
X174489547Y-119042302D01*
X174489545Y-119042305D01*
X174433685Y-119201943D01*
X174414751Y-119369997D01*
X163971499Y-119369997D01*
X163967547Y-119337447D01*
X163907225Y-119178389D01*
X163878336Y-119136536D01*
X163856454Y-119070184D01*
X163857290Y-119051160D01*
X163875645Y-118900000D01*
X163855140Y-118731128D01*
X163839369Y-118689544D01*
X163811160Y-118615162D01*
X163794818Y-118572070D01*
X163794209Y-118571188D01*
X163751127Y-118508773D01*
X163698183Y-118432071D01*
X163603316Y-118348026D01*
X163570849Y-118319263D01*
X163420226Y-118240210D01*
X163255056Y-118199500D01*
X163084944Y-118199500D01*
X162919773Y-118240210D01*
X162769150Y-118319263D01*
X162652638Y-118422484D01*
X162648317Y-118426313D01*
X162641816Y-118432072D01*
X162545182Y-118572068D01*
X162484860Y-118731125D01*
X162484859Y-118731130D01*
X162464355Y-118900000D01*
X162484859Y-119068869D01*
X162484860Y-119068874D01*
X162545182Y-119227931D01*
X162574069Y-119269780D01*
X162595952Y-119336134D01*
X162595115Y-119355166D01*
X162576762Y-119506318D01*
X162597266Y-119675188D01*
X162597268Y-119675196D01*
X162639422Y-119786347D01*
X162644789Y-119856010D01*
X162625531Y-119900756D01*
X162588099Y-119954986D01*
X162527777Y-120114042D01*
X162527776Y-120114047D01*
X162507272Y-120282917D01*
X162527776Y-120451786D01*
X162527777Y-120451791D01*
X162588099Y-120610848D01*
X162646708Y-120695757D01*
X162668591Y-120762112D01*
X162651126Y-120829763D01*
X162599858Y-120877233D01*
X162531064Y-120889450D01*
X162514984Y-120886594D01*
X162405057Y-120859500D01*
X162405056Y-120859500D01*
X162234944Y-120859500D01*
X162069773Y-120900210D01*
X161919150Y-120979263D01*
X161791816Y-121092072D01*
X161695182Y-121232068D01*
X161634860Y-121391125D01*
X161634859Y-121391130D01*
X161614355Y-121560000D01*
X159348169Y-121560000D01*
X159404818Y-121477930D01*
X159465140Y-121318872D01*
X159485645Y-121150000D01*
X159465140Y-120981128D01*
X159455732Y-120956322D01*
X159434452Y-120900210D01*
X159404818Y-120822070D01*
X159308183Y-120682071D01*
X159180852Y-120569266D01*
X159180849Y-120569263D01*
X159030226Y-120490210D01*
X158865056Y-120449500D01*
X158694944Y-120449500D01*
X158529773Y-120490210D01*
X158379150Y-120569263D01*
X158251816Y-120682072D01*
X158155182Y-120822068D01*
X158094860Y-120981125D01*
X158094859Y-120981130D01*
X158074355Y-121150000D01*
X150200500Y-121150000D01*
X150200500Y-117689997D01*
X186694751Y-117689997D01*
X186694751Y-117690002D01*
X186713685Y-117858056D01*
X186769545Y-118017694D01*
X186769547Y-118017697D01*
X186859518Y-118160884D01*
X186859523Y-118160890D01*
X186979109Y-118280476D01*
X186979115Y-118280481D01*
X187122302Y-118370452D01*
X187122305Y-118370454D01*
X187122309Y-118370455D01*
X187122310Y-118370456D01*
X187281941Y-118426313D01*
X187281944Y-118426314D01*
X187350913Y-118434085D01*
X187415327Y-118461151D01*
X187454883Y-118518746D01*
X187460250Y-118571188D01*
X187454751Y-118619995D01*
X187454751Y-118620002D01*
X187473685Y-118788056D01*
X187529545Y-118947694D01*
X187529547Y-118947697D01*
X187619518Y-119090884D01*
X187619523Y-119090890D01*
X187739109Y-119210476D01*
X187739115Y-119210481D01*
X187882302Y-119300452D01*
X187882305Y-119300454D01*
X187882309Y-119300455D01*
X187882310Y-119300456D01*
X187954913Y-119325860D01*
X188041943Y-119356314D01*
X188209997Y-119375249D01*
X188210000Y-119375249D01*
X188210003Y-119375249D01*
X188378056Y-119356314D01*
X188381337Y-119355166D01*
X188537690Y-119300456D01*
X188537692Y-119300454D01*
X188537694Y-119300454D01*
X188537697Y-119300452D01*
X188680884Y-119210481D01*
X188680885Y-119210480D01*
X188680890Y-119210477D01*
X188800477Y-119090890D01*
X188890452Y-118947697D01*
X188890454Y-118947694D01*
X188890454Y-118947692D01*
X188890456Y-118947690D01*
X188946313Y-118788059D01*
X188946313Y-118788058D01*
X188946314Y-118788056D01*
X188965249Y-118620002D01*
X188965249Y-118619997D01*
X188946314Y-118451943D01*
X188890454Y-118292305D01*
X188890452Y-118292302D01*
X188800481Y-118149115D01*
X188800476Y-118149109D01*
X188680890Y-118029523D01*
X188680884Y-118029518D01*
X188537697Y-117939547D01*
X188537694Y-117939545D01*
X188378056Y-117883686D01*
X188309084Y-117875914D01*
X188244670Y-117848847D01*
X188205116Y-117791251D01*
X188199749Y-117738809D01*
X188205249Y-117690000D01*
X188205249Y-117689997D01*
X188186314Y-117521943D01*
X188130454Y-117362305D01*
X188130452Y-117362302D01*
X188040481Y-117219115D01*
X188040476Y-117219109D01*
X187920890Y-117099523D01*
X187920884Y-117099518D01*
X187777697Y-117009547D01*
X187777694Y-117009545D01*
X187618056Y-116953685D01*
X187450003Y-116934751D01*
X187449997Y-116934751D01*
X187281943Y-116953685D01*
X187122305Y-117009545D01*
X187122302Y-117009547D01*
X186979115Y-117099518D01*
X186979109Y-117099523D01*
X186859523Y-117219109D01*
X186859518Y-117219115D01*
X186769547Y-117362302D01*
X186769545Y-117362305D01*
X186713685Y-117521943D01*
X186694751Y-117689997D01*
X150200500Y-117689997D01*
X150200500Y-116410000D01*
X164204355Y-116410000D01*
X164224859Y-116578869D01*
X164224860Y-116578874D01*
X164285182Y-116737931D01*
X164347475Y-116828177D01*
X164381817Y-116877929D01*
X164487505Y-116971560D01*
X164509150Y-116990736D01*
X164659773Y-117069789D01*
X164659775Y-117069790D01*
X164824944Y-117110500D01*
X164995056Y-117110500D01*
X165160225Y-117069790D01*
X165239692Y-117028081D01*
X165310849Y-116990736D01*
X165310850Y-116990734D01*
X165310852Y-116990734D01*
X165438183Y-116877929D01*
X165534818Y-116737930D01*
X165592531Y-116585750D01*
X165634708Y-116530048D01*
X165700306Y-116505990D01*
X165722357Y-116506501D01*
X165799997Y-116515249D01*
X165800000Y-116515249D01*
X165800003Y-116515249D01*
X165968056Y-116496314D01*
X165993745Y-116487325D01*
X166127690Y-116440456D01*
X166127692Y-116440454D01*
X166127694Y-116440454D01*
X166127697Y-116440452D01*
X166270884Y-116350481D01*
X166270885Y-116350480D01*
X166270890Y-116350477D01*
X166390477Y-116230890D01*
X166480452Y-116087697D01*
X166480454Y-116087694D01*
X166480454Y-116087692D01*
X166480456Y-116087690D01*
X166536313Y-115928059D01*
X166536313Y-115928057D01*
X166536314Y-115928055D01*
X166552926Y-115780617D01*
X166579992Y-115716203D01*
X166637587Y-115676648D01*
X166676146Y-115670500D01*
X166825056Y-115670500D01*
X166990225Y-115629790D01*
X167069692Y-115588081D01*
X167140849Y-115550736D01*
X167140850Y-115550734D01*
X167140852Y-115550734D01*
X167268183Y-115437929D01*
X167364818Y-115297930D01*
X167425140Y-115138872D01*
X167445645Y-114970000D01*
X167425140Y-114801128D01*
X167415151Y-114774790D01*
X167403231Y-114743358D01*
X167364818Y-114642070D01*
X167268183Y-114502071D01*
X167173316Y-114418026D01*
X167140849Y-114389263D01*
X166990226Y-114310210D01*
X166825056Y-114269500D01*
X166654944Y-114269500D01*
X166489773Y-114310210D01*
X166339150Y-114389263D01*
X166211816Y-114502072D01*
X166115182Y-114642068D01*
X166054860Y-114801125D01*
X166054859Y-114801131D01*
X166041847Y-114908293D01*
X166014225Y-114972471D01*
X165956290Y-115011527D01*
X165904868Y-115016566D01*
X165800004Y-115004751D01*
X165799997Y-115004751D01*
X165631943Y-115023685D01*
X165472305Y-115079545D01*
X165472302Y-115079547D01*
X165329115Y-115169518D01*
X165329109Y-115169523D01*
X165209523Y-115289109D01*
X165209518Y-115289115D01*
X165119547Y-115432302D01*
X165119544Y-115432307D01*
X165063686Y-115591943D01*
X165062849Y-115599381D01*
X165035783Y-115663795D01*
X164978189Y-115703352D01*
X164939628Y-115709500D01*
X164824944Y-115709500D01*
X164659773Y-115750210D01*
X164509150Y-115829263D01*
X164381816Y-115942072D01*
X164285182Y-116082068D01*
X164224860Y-116241125D01*
X164224859Y-116241130D01*
X164204355Y-116410000D01*
X150200500Y-116410000D01*
X150200500Y-112600000D01*
X160884355Y-112600000D01*
X160904859Y-112768869D01*
X160904860Y-112768874D01*
X160965182Y-112927931D01*
X161007508Y-112989249D01*
X161061817Y-113067929D01*
X161165205Y-113159522D01*
X161189150Y-113180736D01*
X161339773Y-113259789D01*
X161339775Y-113259790D01*
X161504944Y-113300500D01*
X161675056Y-113300500D01*
X161840225Y-113259790D01*
X161964559Y-113194534D01*
X161990849Y-113180736D01*
X161990850Y-113180734D01*
X161990852Y-113180734D01*
X162118183Y-113067929D01*
X162125406Y-113057465D01*
X163184200Y-113057465D01*
X163184200Y-113194534D01*
X163210937Y-113328949D01*
X163210940Y-113328961D01*
X163263386Y-113455578D01*
X163263393Y-113455591D01*
X163339536Y-113569546D01*
X163339539Y-113569550D01*
X163436449Y-113666460D01*
X163436453Y-113666463D01*
X163550408Y-113742606D01*
X163550421Y-113742613D01*
X163657746Y-113787068D01*
X163677043Y-113795061D01*
X163811465Y-113821799D01*
X163811469Y-113821800D01*
X163811470Y-113821800D01*
X163948531Y-113821800D01*
X163948532Y-113821799D01*
X164082957Y-113795061D01*
X164209585Y-113742610D01*
X164209590Y-113742606D01*
X164214960Y-113739737D01*
X164216197Y-113742053D01*
X164271967Y-113724554D01*
X164339358Y-113742999D01*
X164386079Y-113794950D01*
X164397296Y-113863913D01*
X164390197Y-113892502D01*
X164369860Y-113946126D01*
X164369859Y-113946130D01*
X164349355Y-114115000D01*
X164369859Y-114283869D01*
X164369860Y-114283874D01*
X164430182Y-114442931D01*
X164471004Y-114502071D01*
X164526817Y-114582929D01*
X164593574Y-114642070D01*
X164654150Y-114695736D01*
X164777460Y-114760454D01*
X164804775Y-114774790D01*
X164969944Y-114815500D01*
X165140056Y-114815500D01*
X165305225Y-114774790D01*
X165384692Y-114733081D01*
X165455849Y-114695736D01*
X165455850Y-114695734D01*
X165455852Y-114695734D01*
X165583183Y-114582929D01*
X165679818Y-114442930D01*
X165740140Y-114283872D01*
X165760645Y-114115000D01*
X165756395Y-114079997D01*
X170704751Y-114079997D01*
X170704751Y-114080002D01*
X170723685Y-114248056D01*
X170779545Y-114407694D01*
X170779547Y-114407697D01*
X170869518Y-114550884D01*
X170869523Y-114550890D01*
X170989109Y-114670476D01*
X170989115Y-114670481D01*
X171132302Y-114760452D01*
X171132305Y-114760454D01*
X171132309Y-114760455D01*
X171132310Y-114760456D01*
X171204913Y-114785860D01*
X171291943Y-114816314D01*
X171459997Y-114835249D01*
X171460000Y-114835249D01*
X171460003Y-114835249D01*
X171628056Y-114816314D01*
X171630382Y-114815500D01*
X171787690Y-114760456D01*
X171787692Y-114760454D01*
X171787694Y-114760454D01*
X171787697Y-114760452D01*
X171930884Y-114670481D01*
X171930885Y-114670480D01*
X171930890Y-114670477D01*
X172050477Y-114550890D01*
X172081152Y-114502071D01*
X172140452Y-114407697D01*
X172140454Y-114407694D01*
X172140454Y-114407692D01*
X172140456Y-114407690D01*
X172196313Y-114248059D01*
X172196313Y-114248058D01*
X172196314Y-114248056D01*
X172215249Y-114080002D01*
X172215249Y-114079997D01*
X172196314Y-113911943D01*
X172140454Y-113752305D01*
X172140452Y-113752302D01*
X172050481Y-113609115D01*
X172050476Y-113609109D01*
X171930890Y-113489523D01*
X171930884Y-113489518D01*
X171787697Y-113399547D01*
X171787694Y-113399545D01*
X171628056Y-113343685D01*
X171460003Y-113324751D01*
X171459997Y-113324751D01*
X171291943Y-113343685D01*
X171132305Y-113399545D01*
X171132302Y-113399547D01*
X170989115Y-113489518D01*
X170989109Y-113489523D01*
X170869523Y-113609109D01*
X170869518Y-113609115D01*
X170779547Y-113752302D01*
X170779545Y-113752305D01*
X170723685Y-113911943D01*
X170704751Y-114079997D01*
X165756395Y-114079997D01*
X165740140Y-113946128D01*
X165727175Y-113911943D01*
X165682849Y-113795062D01*
X165679818Y-113787070D01*
X165583183Y-113647071D01*
X165455852Y-113534266D01*
X165455849Y-113534263D01*
X165305226Y-113455210D01*
X165140056Y-113414500D01*
X164969944Y-113414500D01*
X164804774Y-113455209D01*
X164714449Y-113502616D01*
X164645941Y-113516340D01*
X164580888Y-113490848D01*
X164539944Y-113434232D01*
X164536109Y-113364467D01*
X164542262Y-113345371D01*
X164549061Y-113328957D01*
X164575800Y-113194530D01*
X164575800Y-113057470D01*
X164549061Y-112923043D01*
X164539714Y-112900477D01*
X164502236Y-112809996D01*
X177516935Y-112809996D01*
X177516935Y-112810003D01*
X177537130Y-112989249D01*
X177537131Y-112989254D01*
X177596711Y-113159523D01*
X177685293Y-113300500D01*
X177692684Y-113312262D01*
X177820238Y-113439816D01*
X177845344Y-113455591D01*
X177920183Y-113502616D01*
X177972978Y-113535789D01*
X178143245Y-113595368D01*
X178143250Y-113595369D01*
X178322496Y-113615565D01*
X178322500Y-113615565D01*
X178322504Y-113615565D01*
X178501749Y-113595369D01*
X178501752Y-113595368D01*
X178501755Y-113595368D01*
X178672022Y-113535789D01*
X178824762Y-113439816D01*
X178952316Y-113312262D01*
X179048289Y-113159522D01*
X179107868Y-112989255D01*
X179107869Y-112989249D01*
X179128065Y-112810003D01*
X179128065Y-112809996D01*
X179107869Y-112630750D01*
X179107868Y-112630745D01*
X179065404Y-112509390D01*
X179048289Y-112460478D01*
X179046065Y-112456939D01*
X179009082Y-112398080D01*
X178952316Y-112307738D01*
X178824762Y-112180184D01*
X178748191Y-112132071D01*
X178672023Y-112084211D01*
X178501754Y-112024631D01*
X178501749Y-112024630D01*
X178322504Y-112004435D01*
X178322496Y-112004435D01*
X178143250Y-112024630D01*
X178143245Y-112024631D01*
X177972976Y-112084211D01*
X177820237Y-112180184D01*
X177692684Y-112307737D01*
X177596711Y-112460476D01*
X177537131Y-112630745D01*
X177537130Y-112630750D01*
X177516935Y-112809996D01*
X164502236Y-112809996D01*
X164496613Y-112796421D01*
X164496606Y-112796408D01*
X164420463Y-112682453D01*
X164420460Y-112682449D01*
X164323550Y-112585539D01*
X164323546Y-112585536D01*
X164209591Y-112509393D01*
X164209578Y-112509386D01*
X164082961Y-112456940D01*
X164082949Y-112456937D01*
X163948534Y-112430200D01*
X163948530Y-112430200D01*
X163811470Y-112430200D01*
X163811465Y-112430200D01*
X163677050Y-112456937D01*
X163677038Y-112456940D01*
X163550421Y-112509386D01*
X163550408Y-112509393D01*
X163436453Y-112585536D01*
X163436449Y-112585539D01*
X163339539Y-112682449D01*
X163339536Y-112682453D01*
X163263393Y-112796408D01*
X163263386Y-112796421D01*
X163210940Y-112923038D01*
X163210937Y-112923050D01*
X163184200Y-113057465D01*
X162125406Y-113057465D01*
X162214818Y-112927930D01*
X162275140Y-112768872D01*
X162295645Y-112600000D01*
X162275140Y-112431128D01*
X162214818Y-112272070D01*
X162118183Y-112132071D01*
X162101169Y-112116998D01*
X162016790Y-112042244D01*
X162016301Y-112041465D01*
X168264200Y-112041465D01*
X168264200Y-112178534D01*
X168290937Y-112312949D01*
X168290940Y-112312961D01*
X168343386Y-112439578D01*
X168343393Y-112439591D01*
X168419536Y-112553546D01*
X168419539Y-112553550D01*
X168516449Y-112650460D01*
X168516453Y-112650463D01*
X168630408Y-112726606D01*
X168630421Y-112726613D01*
X168732449Y-112768874D01*
X168757043Y-112779061D01*
X168891465Y-112805799D01*
X168891469Y-112805800D01*
X168891470Y-112805800D01*
X169028531Y-112805800D01*
X169028532Y-112805799D01*
X169162957Y-112779061D01*
X169289585Y-112726610D01*
X169403547Y-112650463D01*
X169500463Y-112553547D01*
X169576610Y-112439585D01*
X169629061Y-112312957D01*
X169655800Y-112178530D01*
X169655800Y-112041470D01*
X169629061Y-111907043D01*
X169629020Y-111906944D01*
X169576613Y-111780421D01*
X169576606Y-111780408D01*
X169500463Y-111666453D01*
X169500460Y-111666449D01*
X169403550Y-111569539D01*
X169403546Y-111569536D01*
X169289591Y-111493393D01*
X169289578Y-111493386D01*
X169162961Y-111440940D01*
X169162949Y-111440937D01*
X169057672Y-111419996D01*
X185876935Y-111419996D01*
X185876935Y-111420003D01*
X185897130Y-111599249D01*
X185897131Y-111599254D01*
X185956711Y-111769523D01*
X185987127Y-111817929D01*
X186052684Y-111922262D01*
X186180238Y-112049816D01*
X186245645Y-112090914D01*
X186329608Y-112143672D01*
X186332978Y-112145789D01*
X186503245Y-112205368D01*
X186503250Y-112205369D01*
X186682496Y-112225565D01*
X186682500Y-112225565D01*
X186682504Y-112225565D01*
X186861749Y-112205369D01*
X186861752Y-112205368D01*
X186861755Y-112205368D01*
X187032022Y-112145789D01*
X187184762Y-112049816D01*
X187312316Y-111922262D01*
X187408289Y-111769522D01*
X187467868Y-111599255D01*
X187471216Y-111569539D01*
X187488065Y-111420003D01*
X187488065Y-111419996D01*
X187467869Y-111240750D01*
X187467868Y-111240745D01*
X187408288Y-111070476D01*
X187369082Y-111008080D01*
X187312316Y-110917738D01*
X187184762Y-110790184D01*
X187151471Y-110769266D01*
X187032023Y-110694211D01*
X186861754Y-110634631D01*
X186861749Y-110634630D01*
X186682504Y-110614435D01*
X186682496Y-110614435D01*
X186503250Y-110634630D01*
X186503245Y-110634631D01*
X186332976Y-110694211D01*
X186180237Y-110790184D01*
X186052684Y-110917737D01*
X185956711Y-111070476D01*
X185897131Y-111240745D01*
X185897130Y-111240750D01*
X185876935Y-111419996D01*
X169057672Y-111419996D01*
X169028534Y-111414200D01*
X169028530Y-111414200D01*
X168891470Y-111414200D01*
X168891465Y-111414200D01*
X168757050Y-111440937D01*
X168757038Y-111440940D01*
X168630421Y-111493386D01*
X168630408Y-111493393D01*
X168516453Y-111569536D01*
X168516449Y-111569539D01*
X168419539Y-111666449D01*
X168419536Y-111666453D01*
X168343393Y-111780408D01*
X168343386Y-111780421D01*
X168290940Y-111907038D01*
X168290937Y-111907050D01*
X168264200Y-112041465D01*
X162016301Y-112041465D01*
X161979663Y-111983055D01*
X161980431Y-111913189D01*
X162016788Y-111856615D01*
X162128183Y-111757929D01*
X162224818Y-111617930D01*
X162285140Y-111458872D01*
X162305645Y-111290000D01*
X162285140Y-111121128D01*
X162248860Y-111025465D01*
X163184200Y-111025465D01*
X163184200Y-111162534D01*
X163210937Y-111296949D01*
X163210940Y-111296961D01*
X163263386Y-111423578D01*
X163263393Y-111423591D01*
X163339536Y-111537546D01*
X163339539Y-111537550D01*
X163436449Y-111634460D01*
X163436453Y-111634463D01*
X163550408Y-111710606D01*
X163550421Y-111710613D01*
X163677038Y-111763059D01*
X163677043Y-111763061D01*
X163811465Y-111789799D01*
X163811469Y-111789800D01*
X163811470Y-111789800D01*
X163948531Y-111789800D01*
X163948532Y-111789799D01*
X164082957Y-111763061D01*
X164209585Y-111710610D01*
X164323547Y-111634463D01*
X164420463Y-111537547D01*
X164496610Y-111423585D01*
X164549061Y-111296957D01*
X164575800Y-111162530D01*
X164575800Y-111025470D01*
X164549061Y-110891043D01*
X164545344Y-110882069D01*
X164496613Y-110764421D01*
X164496606Y-110764408D01*
X164420463Y-110650453D01*
X164420460Y-110650449D01*
X164323550Y-110553539D01*
X164323546Y-110553536D01*
X164209591Y-110477393D01*
X164209578Y-110477386D01*
X164082961Y-110424940D01*
X164082949Y-110424937D01*
X163948534Y-110398200D01*
X163948530Y-110398200D01*
X163811470Y-110398200D01*
X163811465Y-110398200D01*
X163677050Y-110424937D01*
X163677038Y-110424940D01*
X163550421Y-110477386D01*
X163550408Y-110477393D01*
X163436453Y-110553536D01*
X163436449Y-110553539D01*
X163339539Y-110650449D01*
X163339536Y-110650453D01*
X163263393Y-110764408D01*
X163263386Y-110764421D01*
X163210940Y-110891038D01*
X163210937Y-110891050D01*
X163184200Y-111025465D01*
X162248860Y-111025465D01*
X162224818Y-110962070D01*
X162128183Y-110822071D01*
X162033316Y-110738026D01*
X162000849Y-110709263D01*
X161850226Y-110630210D01*
X161685056Y-110589500D01*
X161514944Y-110589500D01*
X161349773Y-110630210D01*
X161199150Y-110709263D01*
X161071816Y-110822072D01*
X160975182Y-110962068D01*
X160914860Y-111121125D01*
X160914859Y-111121130D01*
X160894355Y-111290000D01*
X160914859Y-111458869D01*
X160914860Y-111458874D01*
X160975182Y-111617931D01*
X161071818Y-111757930D01*
X161173209Y-111847755D01*
X161210336Y-111906944D01*
X161209568Y-111976810D01*
X161173210Y-112033385D01*
X161061816Y-112132071D01*
X160965182Y-112272068D01*
X160904860Y-112431125D01*
X160904859Y-112431130D01*
X160884355Y-112600000D01*
X150200500Y-112600000D01*
X150200500Y-111350000D01*
X150474355Y-111350000D01*
X150494859Y-111518869D01*
X150494860Y-111518874D01*
X150555182Y-111677931D01*
X150610400Y-111757927D01*
X150651817Y-111817929D01*
X150711422Y-111870734D01*
X150779150Y-111930736D01*
X150878836Y-111983055D01*
X150929775Y-112009790D01*
X151094944Y-112050500D01*
X151265056Y-112050500D01*
X151430225Y-112009790D01*
X151509692Y-111968081D01*
X151580849Y-111930736D01*
X151580850Y-111930734D01*
X151580852Y-111930734D01*
X151708183Y-111817929D01*
X151804818Y-111677930D01*
X151865140Y-111518872D01*
X151885645Y-111350000D01*
X151865140Y-111181128D01*
X151804818Y-111022070D01*
X151708183Y-110882071D01*
X151708181Y-110882069D01*
X151629365Y-110812244D01*
X151592238Y-110753055D01*
X151593006Y-110683190D01*
X151629364Y-110626614D01*
X151718183Y-110547929D01*
X151814818Y-110407930D01*
X151875140Y-110248872D01*
X151895645Y-110080000D01*
X151875140Y-109911128D01*
X151814818Y-109752070D01*
X151718183Y-109612071D01*
X151623075Y-109527813D01*
X151585951Y-109468627D01*
X151586718Y-109398761D01*
X151623075Y-109342186D01*
X151718183Y-109257929D01*
X151814818Y-109117930D01*
X151875140Y-108958872D01*
X151895645Y-108790000D01*
X151895645Y-108789997D01*
X160624751Y-108789997D01*
X160624751Y-108790002D01*
X160643685Y-108958056D01*
X160699545Y-109117694D01*
X160699547Y-109117697D01*
X160789518Y-109260884D01*
X160789523Y-109260890D01*
X160909109Y-109380476D01*
X160909115Y-109380481D01*
X161052302Y-109470452D01*
X161052305Y-109470454D01*
X161052309Y-109470455D01*
X161052310Y-109470456D01*
X161054548Y-109471239D01*
X161211943Y-109526314D01*
X161379997Y-109545249D01*
X161380000Y-109545249D01*
X161380003Y-109545249D01*
X161548056Y-109526314D01*
X161578135Y-109515789D01*
X161707690Y-109470456D01*
X161707692Y-109470454D01*
X161707694Y-109470454D01*
X161707697Y-109470452D01*
X161850884Y-109380481D01*
X161850885Y-109380480D01*
X161850890Y-109380477D01*
X161931367Y-109300000D01*
X165114355Y-109300000D01*
X165134859Y-109468869D01*
X165134860Y-109468874D01*
X165195182Y-109627931D01*
X165253393Y-109712262D01*
X165291817Y-109767929D01*
X165397505Y-109861560D01*
X165419150Y-109880736D01*
X165542548Y-109945500D01*
X165569775Y-109959790D01*
X165734944Y-110000500D01*
X165905056Y-110000500D01*
X166070225Y-109959790D01*
X166199069Y-109892166D01*
X166267576Y-109878441D01*
X166332629Y-109903933D01*
X166373574Y-109960549D01*
X166373735Y-109961008D01*
X166394209Y-110019519D01*
X166410575Y-110045565D01*
X166490184Y-110172262D01*
X166617738Y-110299816D01*
X166770478Y-110395789D01*
X166853784Y-110424939D01*
X166940745Y-110455368D01*
X166940750Y-110455369D01*
X167119996Y-110475565D01*
X167120000Y-110475565D01*
X167120004Y-110475565D01*
X167299249Y-110455369D01*
X167299252Y-110455368D01*
X167299255Y-110455368D01*
X167469522Y-110395789D01*
X167622262Y-110299816D01*
X167749816Y-110172262D01*
X167832515Y-110040646D01*
X167884849Y-109994357D01*
X167953902Y-109983709D01*
X167978463Y-109989578D01*
X168080745Y-110025368D01*
X168080750Y-110025369D01*
X168259996Y-110045565D01*
X168260000Y-110045565D01*
X168260004Y-110045565D01*
X168439249Y-110025369D01*
X168439251Y-110025368D01*
X168439255Y-110025368D01*
X168439258Y-110025366D01*
X168439262Y-110025366D01*
X168521690Y-109996523D01*
X168591468Y-109992960D01*
X168652096Y-110027689D01*
X168664694Y-110043123D01*
X168681815Y-110067927D01*
X168681816Y-110067928D01*
X168681817Y-110067929D01*
X168710505Y-110093344D01*
X168809150Y-110180736D01*
X168959773Y-110259789D01*
X168959775Y-110259790D01*
X169124944Y-110300500D01*
X169295056Y-110300500D01*
X169460225Y-110259790D01*
X169549547Y-110212909D01*
X169610845Y-110180738D01*
X169610846Y-110180736D01*
X169610852Y-110180734D01*
X169629058Y-110164604D01*
X169692290Y-110134884D01*
X169761554Y-110144066D01*
X169768911Y-110147623D01*
X169773452Y-110150006D01*
X169773454Y-110150008D01*
X169918705Y-110226242D01*
X169918708Y-110226242D01*
X169918709Y-110226243D01*
X170077978Y-110265500D01*
X170077979Y-110265500D01*
X170242022Y-110265500D01*
X170401291Y-110226243D01*
X170401291Y-110226242D01*
X170401295Y-110226242D01*
X170546546Y-110150008D01*
X170669332Y-110041229D01*
X170698439Y-109999059D01*
X170752722Y-109955070D01*
X170800489Y-109945500D01*
X170822022Y-109945500D01*
X170861839Y-109935685D01*
X170981295Y-109906242D01*
X170984671Y-109904469D01*
X170987422Y-109903918D01*
X170988307Y-109903583D01*
X170988362Y-109903730D01*
X171053178Y-109890742D01*
X171108273Y-109909270D01*
X171150476Y-109935788D01*
X171150478Y-109935789D01*
X171304198Y-109989578D01*
X171320745Y-109995368D01*
X171320750Y-109995369D01*
X171499996Y-110015565D01*
X171500000Y-110015565D01*
X171500004Y-110015565D01*
X171679249Y-109995369D01*
X171679252Y-109995368D01*
X171679255Y-109995368D01*
X171849522Y-109935789D01*
X172002262Y-109839816D01*
X172129816Y-109712262D01*
X172225789Y-109559522D01*
X172257116Y-109469996D01*
X176444435Y-109469996D01*
X176444435Y-109470003D01*
X176464630Y-109649249D01*
X176464631Y-109649254D01*
X176524211Y-109819523D01*
X176612347Y-109959789D01*
X176620184Y-109972262D01*
X176747738Y-110099816D01*
X176823822Y-110147623D01*
X176876519Y-110180735D01*
X176900478Y-110195789D01*
X177052186Y-110248874D01*
X177070745Y-110255368D01*
X177070750Y-110255369D01*
X177249996Y-110275565D01*
X177250000Y-110275565D01*
X177250004Y-110275565D01*
X177429249Y-110255369D01*
X177429252Y-110255368D01*
X177429255Y-110255368D01*
X177599522Y-110195789D01*
X177752262Y-110099816D01*
X177879816Y-109972262D01*
X177975789Y-109819522D01*
X178035368Y-109649255D01*
X178038685Y-109619815D01*
X178055565Y-109470003D01*
X178055565Y-109469996D01*
X178035369Y-109290750D01*
X178035368Y-109290745D01*
X178024919Y-109260884D01*
X177975789Y-109120478D01*
X177879816Y-108967738D01*
X177752262Y-108840184D01*
X177739350Y-108832071D01*
X177672389Y-108789996D01*
X180004435Y-108789996D01*
X180004435Y-108790003D01*
X180024630Y-108969249D01*
X180024631Y-108969254D01*
X180084211Y-109139523D01*
X180128495Y-109210000D01*
X180180184Y-109292262D01*
X180307738Y-109419816D01*
X180460478Y-109515789D01*
X180544670Y-109545249D01*
X180630745Y-109575368D01*
X180630750Y-109575369D01*
X180809996Y-109595565D01*
X180810000Y-109595565D01*
X180810004Y-109595565D01*
X180989249Y-109575369D01*
X180989252Y-109575368D01*
X180989255Y-109575368D01*
X181159522Y-109515789D01*
X181205794Y-109486713D01*
X181273030Y-109467713D01*
X181339865Y-109488080D01*
X181359448Y-109504026D01*
X181475238Y-109619816D01*
X181522090Y-109649255D01*
X181622364Y-109712262D01*
X181627978Y-109715789D01*
X181731663Y-109752070D01*
X181798245Y-109775368D01*
X181798250Y-109775369D01*
X181977496Y-109795565D01*
X181977500Y-109795565D01*
X181977504Y-109795565D01*
X182156749Y-109775369D01*
X182156752Y-109775368D01*
X182156755Y-109775368D01*
X182327022Y-109715789D01*
X182479762Y-109619816D01*
X182607316Y-109492262D01*
X182703289Y-109339522D01*
X182762868Y-109169255D01*
X182762869Y-109169249D01*
X182783065Y-108990003D01*
X182783065Y-108989996D01*
X182762869Y-108810750D01*
X182762868Y-108810745D01*
X182755608Y-108789996D01*
X182703289Y-108640478D01*
X182691641Y-108621941D01*
X182607315Y-108487737D01*
X182527297Y-108407719D01*
X182493812Y-108346396D01*
X182497937Y-108279083D01*
X182532866Y-108179262D01*
X182532869Y-108179249D01*
X182553065Y-108000003D01*
X182553065Y-107999996D01*
X182532869Y-107820750D01*
X182532868Y-107820745D01*
X182526929Y-107803771D01*
X182473289Y-107650478D01*
X182377316Y-107497738D01*
X182249762Y-107370184D01*
X182097023Y-107274211D01*
X181926754Y-107214631D01*
X181926749Y-107214630D01*
X181747504Y-107194435D01*
X181747496Y-107194435D01*
X181568250Y-107214630D01*
X181568245Y-107214631D01*
X181397976Y-107274211D01*
X181245237Y-107370184D01*
X181117684Y-107497737D01*
X181021710Y-107650478D01*
X180962130Y-107820750D01*
X180955895Y-107876090D01*
X180928828Y-107940503D01*
X180871233Y-107980058D01*
X180818793Y-107985425D01*
X180810005Y-107984435D01*
X180809996Y-107984435D01*
X180630750Y-108004630D01*
X180630745Y-108004631D01*
X180460476Y-108064211D01*
X180307737Y-108160184D01*
X180180184Y-108287737D01*
X180084211Y-108440476D01*
X180024631Y-108610745D01*
X180024630Y-108610750D01*
X180004435Y-108789996D01*
X177672389Y-108789996D01*
X177599523Y-108744211D01*
X177429254Y-108684631D01*
X177429249Y-108684630D01*
X177250004Y-108664435D01*
X177249996Y-108664435D01*
X177070750Y-108684630D01*
X177070745Y-108684631D01*
X176900476Y-108744211D01*
X176747737Y-108840184D01*
X176620184Y-108967737D01*
X176524211Y-109120476D01*
X176464631Y-109290745D01*
X176464630Y-109290750D01*
X176444435Y-109469996D01*
X172257116Y-109469996D01*
X172285368Y-109389255D01*
X172287455Y-109370734D01*
X172305565Y-109210003D01*
X172305565Y-109209996D01*
X172285369Y-109030750D01*
X172285368Y-109030745D01*
X172271109Y-108989996D01*
X172225789Y-108860478D01*
X172213037Y-108840184D01*
X172160293Y-108756242D01*
X172129816Y-108707738D01*
X172002262Y-108580184D01*
X171926915Y-108532840D01*
X171849523Y-108484211D01*
X171679254Y-108424631D01*
X171679249Y-108424630D01*
X171500004Y-108404435D01*
X171499996Y-108404435D01*
X171320750Y-108424630D01*
X171320745Y-108424631D01*
X171150476Y-108484211D01*
X170997738Y-108580184D01*
X170992295Y-108584525D01*
X170990726Y-108582557D01*
X170939601Y-108610455D01*
X170883604Y-108609678D01*
X170822022Y-108594500D01*
X170822021Y-108594500D01*
X170657979Y-108594500D01*
X170657978Y-108594500D01*
X170498705Y-108633757D01*
X170498704Y-108633758D01*
X170461932Y-108653057D01*
X170393423Y-108666781D01*
X170328371Y-108641288D01*
X170287427Y-108584672D01*
X170283593Y-108514907D01*
X170302256Y-108472823D01*
X170327518Y-108436226D01*
X170385688Y-108282845D01*
X170405461Y-108120000D01*
X170404191Y-108109544D01*
X170391453Y-108004631D01*
X170385688Y-107957155D01*
X170327518Y-107803774D01*
X170234332Y-107668771D01*
X170234329Y-107668768D01*
X170234327Y-107668766D01*
X170111548Y-107559993D01*
X169999998Y-107501447D01*
X169966295Y-107483758D01*
X169966294Y-107483757D01*
X169966291Y-107483756D01*
X169807022Y-107444500D01*
X169807021Y-107444500D01*
X169642979Y-107444500D01*
X169642978Y-107444500D01*
X169479675Y-107484751D01*
X169420325Y-107484751D01*
X169257022Y-107444500D01*
X169257021Y-107444500D01*
X169092979Y-107444500D01*
X169092978Y-107444500D01*
X168933708Y-107483756D01*
X168788451Y-107559993D01*
X168665672Y-107668766D01*
X168665666Y-107668773D01*
X168572483Y-107803771D01*
X168514312Y-107957154D01*
X168514311Y-107957157D01*
X168494539Y-108119999D01*
X168494539Y-108120000D01*
X168514311Y-108282842D01*
X168516107Y-108290127D01*
X168514408Y-108290545D01*
X168519052Y-108350871D01*
X168485900Y-108412375D01*
X168424760Y-108446192D01*
X168383862Y-108448390D01*
X168260004Y-108434435D01*
X168259996Y-108434435D01*
X168080750Y-108454630D01*
X168080745Y-108454631D01*
X167910476Y-108514211D01*
X167757737Y-108610184D01*
X167630182Y-108737739D01*
X167547484Y-108869352D01*
X167495149Y-108915642D01*
X167426096Y-108926290D01*
X167401537Y-108920421D01*
X167299257Y-108884632D01*
X167299249Y-108884630D01*
X167120004Y-108864435D01*
X167119996Y-108864435D01*
X166940750Y-108884630D01*
X166940745Y-108884631D01*
X166770476Y-108944211D01*
X166627172Y-109034256D01*
X166559935Y-109053256D01*
X166493100Y-109032888D01*
X166447886Y-108979620D01*
X166445275Y-108973275D01*
X166444818Y-108972070D01*
X166348183Y-108832071D01*
X166249009Y-108744211D01*
X166220849Y-108719263D01*
X166070226Y-108640210D01*
X165905056Y-108599500D01*
X165734944Y-108599500D01*
X165569773Y-108640210D01*
X165419150Y-108719263D01*
X165291816Y-108832072D01*
X165195182Y-108972068D01*
X165134860Y-109131125D01*
X165134859Y-109131130D01*
X165114355Y-109300000D01*
X161931367Y-109300000D01*
X161970477Y-109260890D01*
X162002452Y-109210003D01*
X162060452Y-109117697D01*
X162060454Y-109117694D01*
X162060454Y-109117692D01*
X162060456Y-109117690D01*
X162116313Y-108958059D01*
X162116313Y-108958058D01*
X162116314Y-108958056D01*
X162135249Y-108790002D01*
X162135249Y-108789997D01*
X162116314Y-108621943D01*
X162078617Y-108514211D01*
X162060456Y-108462310D01*
X162060455Y-108462309D01*
X162060454Y-108462305D01*
X162060452Y-108462302D01*
X161970481Y-108319115D01*
X161970476Y-108319109D01*
X161850890Y-108199523D01*
X161850884Y-108199518D01*
X161707697Y-108109547D01*
X161707694Y-108109545D01*
X161548056Y-108053685D01*
X161380003Y-108034751D01*
X161379997Y-108034751D01*
X161211943Y-108053685D01*
X161052305Y-108109545D01*
X161052302Y-108109547D01*
X160909115Y-108199518D01*
X160909109Y-108199523D01*
X160789523Y-108319109D01*
X160789518Y-108319115D01*
X160699547Y-108462302D01*
X160699545Y-108462305D01*
X160643685Y-108621943D01*
X160624751Y-108789997D01*
X151895645Y-108789997D01*
X151875140Y-108621128D01*
X151865041Y-108594500D01*
X151814817Y-108462068D01*
X151775035Y-108404435D01*
X151718183Y-108322071D01*
X151590852Y-108209266D01*
X151590849Y-108209263D01*
X151440226Y-108130210D01*
X151275056Y-108089500D01*
X151104944Y-108089500D01*
X150939773Y-108130210D01*
X150789150Y-108209263D01*
X150672638Y-108312484D01*
X150665161Y-108319109D01*
X150661816Y-108322072D01*
X150565182Y-108462068D01*
X150504860Y-108621125D01*
X150504859Y-108621130D01*
X150484355Y-108790000D01*
X150504859Y-108958869D01*
X150504860Y-108958874D01*
X150565182Y-109117931D01*
X150661818Y-109257930D01*
X150756922Y-109342185D01*
X150794049Y-109401374D01*
X150793281Y-109471239D01*
X150756922Y-109527815D01*
X150661818Y-109612069D01*
X150565182Y-109752068D01*
X150504860Y-109911125D01*
X150504859Y-109911130D01*
X150484355Y-110080000D01*
X150504859Y-110248869D01*
X150504860Y-110248874D01*
X150565182Y-110407931D01*
X150576923Y-110424940D01*
X150661817Y-110547929D01*
X150740634Y-110617755D01*
X150777761Y-110676944D01*
X150776993Y-110746809D01*
X150740634Y-110803385D01*
X150651818Y-110882069D01*
X150555182Y-111022068D01*
X150494860Y-111181125D01*
X150494859Y-111181130D01*
X150474355Y-111350000D01*
X150200500Y-111350000D01*
X150200500Y-102004066D01*
X150200765Y-101995956D01*
X150209224Y-101866894D01*
X150215364Y-101773207D01*
X150217479Y-101757153D01*
X150260230Y-101542226D01*
X150264428Y-101526561D01*
X150317680Y-101369685D01*
X150334868Y-101319049D01*
X150341067Y-101304083D01*
X150437995Y-101107533D01*
X150446098Y-101093498D01*
X150567853Y-100911279D01*
X150577710Y-100898433D01*
X150722207Y-100733665D01*
X150733665Y-100722207D01*
X150898433Y-100577710D01*
X150911279Y-100567853D01*
X151093498Y-100446098D01*
X151107533Y-100437995D01*
X151304083Y-100341067D01*
X151319049Y-100334868D01*
X151525945Y-100264637D01*
X151526561Y-100264428D01*
X151542228Y-100260230D01*
X151757153Y-100217479D01*
X151773209Y-100215364D01*
X151978058Y-100201938D01*
X151995958Y-100200765D01*
X152004067Y-100200500D01*
X152039882Y-100200500D01*
X163550118Y-100200500D01*
X163576278Y-100200500D01*
X163643317Y-100220185D01*
G37*
G04 #@! TD.AperFunction*
M02*
