G04 #@! TF.GenerationSoftware,KiCad,Pcbnew,8.0.4*
G04 #@! TF.CreationDate,2024-10-04T10:02:04-04:00*
G04 #@! TF.ProjectId,BlueSTM32,426c7565-5354-44d3-9332-2e6b69636164,rev?*
G04 #@! TF.SameCoordinates,Original*
G04 #@! TF.FileFunction,Legend,Top*
G04 #@! TF.FilePolarity,Positive*
%FSLAX46Y46*%
G04 Gerber Fmt 4.6, Leading zero omitted, Abs format (unit mm)*
G04 Created by KiCad (PCBNEW 8.0.4) date 2024-10-04 10:02:04*
%MOMM*%
%LPD*%
G01*
G04 APERTURE LIST*
G04 Aperture macros list*
%AMRoundRect*
0 Rectangle with rounded corners*
0 $1 Rounding radius*
0 $2 $3 $4 $5 $6 $7 $8 $9 X,Y pos of 4 corners*
0 Add a 4 corners polygon primitive as box body*
4,1,4,$2,$3,$4,$5,$6,$7,$8,$9,$2,$3,0*
0 Add four circle primitives for the rounded corners*
1,1,$1+$1,$2,$3*
1,1,$1+$1,$4,$5*
1,1,$1+$1,$6,$7*
1,1,$1+$1,$8,$9*
0 Add four rect primitives between the rounded corners*
20,1,$1+$1,$2,$3,$4,$5,0*
20,1,$1+$1,$4,$5,$6,$7,0*
20,1,$1+$1,$6,$7,$8,$9,0*
20,1,$1+$1,$8,$9,$2,$3,0*%
G04 Aperture macros list end*
%ADD10C,0.100000*%
%ADD11C,0.150000*%
%ADD12C,0.250000*%
%ADD13C,0.200000*%
%ADD14C,0.127000*%
%ADD15C,0.120000*%
%ADD16C,0.152400*%
%ADD17C,0.000000*%
%ADD18C,0.010000*%
%ADD19RoundRect,0.102000X0.150000X0.550000X-0.150000X0.550000X-0.150000X-0.550000X0.150000X-0.550000X0*%
%ADD20RoundRect,0.102000X0.300000X0.550000X-0.300000X0.550000X-0.300000X-0.550000X0.300000X-0.550000X0*%
%ADD21RoundRect,0.102000X-0.380000X-0.110000X0.380000X-0.110000X0.380000X0.110000X-0.380000X0.110000X0*%
%ADD22RoundRect,0.102000X-0.450000X-0.750000X0.450000X-0.750000X0.450000X0.750000X-0.450000X0.750000X0*%
%ADD23RoundRect,0.155000X-0.212500X-0.155000X0.212500X-0.155000X0.212500X0.155000X-0.212500X0.155000X0*%
%ADD24R,0.736600X0.965200*%
%ADD25R,0.736600X0.355600*%
%ADD26RoundRect,0.250000X0.300000X0.300000X-0.300000X0.300000X-0.300000X-0.300000X0.300000X-0.300000X0*%
%ADD27RoundRect,0.062500X-0.400000X-0.062500X0.400000X-0.062500X0.400000X0.062500X-0.400000X0.062500X0*%
%ADD28RoundRect,0.062500X-0.062500X-0.400000X0.062500X-0.400000X0.062500X0.400000X-0.062500X0.400000X0*%
%ADD29R,6.400000X6.400000*%
%ADD30RoundRect,0.160000X-0.160000X0.197500X-0.160000X-0.197500X0.160000X-0.197500X0.160000X0.197500X0*%
%ADD31RoundRect,0.155000X0.155000X-0.212500X0.155000X0.212500X-0.155000X0.212500X-0.155000X-0.212500X0*%
%ADD32RoundRect,0.200000X-0.017678X-0.300520X0.300520X0.017678X0.017678X0.300520X-0.300520X-0.017678X0*%
%ADD33RoundRect,0.150000X-0.512500X-0.150000X0.512500X-0.150000X0.512500X0.150000X-0.512500X0.150000X0*%
%ADD34RoundRect,0.250001X-1.074999X0.462499X-1.074999X-0.462499X1.074999X-0.462499X1.074999X0.462499X0*%
%ADD35C,0.990600*%
%ADD36C,0.787400*%
%ADD37RoundRect,0.160000X0.197500X0.160000X-0.197500X0.160000X-0.197500X-0.160000X0.197500X-0.160000X0*%
%ADD38RoundRect,0.300000X-0.700000X0.300000X-0.700000X-0.300000X0.700000X-0.300000X0.700000X0.300000X0*%
%ADD39R,0.351536X0.576580*%
%ADD40R,0.576580X0.351536*%
%ADD41RoundRect,0.250000X-0.450000X0.325000X-0.450000X-0.325000X0.450000X-0.325000X0.450000X0.325000X0*%
%ADD42R,0.863600X0.431800*%
%ADD43R,4.343400X3.454400*%
%ADD44R,1.460500X0.533400*%
%ADD45RoundRect,0.160000X0.160000X-0.197500X0.160000X0.197500X-0.160000X0.197500X-0.160000X-0.197500X0*%
%ADD46R,0.600000X1.900000*%
%ADD47R,2.100000X2.799999*%
%ADD48RoundRect,0.237500X-0.287500X-0.237500X0.287500X-0.237500X0.287500X0.237500X-0.287500X0.237500X0*%
%ADD49RoundRect,0.155000X-0.155000X0.212500X-0.155000X-0.212500X0.155000X-0.212500X0.155000X0.212500X0*%
G04 APERTURE END LIST*
D10*
X157550000Y-130250000D02*
X157560000Y-130550000D01*
X176320000Y-114280000D02*
X177220000Y-114280000D01*
X180060000Y-121240000D02*
X180500000Y-121240000D01*
X157310000Y-119970000D02*
X158750000Y-119990000D01*
X157370000Y-117490000D02*
X157370000Y-117660000D01*
X176310000Y-113930000D02*
X176320000Y-114280000D01*
X162660000Y-121400000D02*
X162660000Y-121640000D01*
X158790000Y-121660000D02*
X159610000Y-121647621D01*
X187900000Y-119320000D02*
X186650000Y-119320000D01*
X182500000Y-120750000D02*
X182500000Y-121030000D01*
X153285000Y-134037621D02*
X151790000Y-134040000D01*
X176350000Y-110750000D02*
X177850000Y-110750000D01*
X157550000Y-124980000D02*
X157550000Y-125290000D01*
X158790000Y-121485000D02*
X158790000Y-121635000D01*
X176130000Y-118510000D02*
X176130000Y-119260000D01*
X188800000Y-130320000D02*
X188800000Y-130600000D01*
X151690000Y-131610000D02*
X151690000Y-131380000D01*
X151830000Y-136480000D02*
X151830000Y-136310000D01*
X187810000Y-124890000D02*
X187810000Y-125170000D01*
X187900000Y-118980000D02*
X187900000Y-119320000D01*
X179840000Y-125510000D02*
X179840000Y-125680000D01*
X176130000Y-119260000D02*
X176500000Y-119260000D01*
X182150000Y-125470000D02*
X182150000Y-125680000D01*
X179580000Y-129980000D02*
X180570000Y-129990000D01*
X153315000Y-136467621D02*
X151830000Y-136480000D01*
X185340000Y-130730000D02*
X184330000Y-130720000D01*
X162660000Y-121640000D02*
X161560000Y-121647621D01*
X153900000Y-119980000D02*
X155390000Y-120000000D01*
X151690000Y-126760000D02*
X151710000Y-126380000D01*
X153900000Y-119710000D02*
X153900000Y-119980000D01*
X157310000Y-119690000D02*
X157310000Y-119970000D01*
X187810000Y-125170000D02*
X186440000Y-125160000D01*
X187340000Y-121190000D02*
X187350000Y-121580000D01*
X153335000Y-126757621D02*
X151690000Y-126760000D01*
X179590000Y-129770000D02*
X179580000Y-129980000D01*
X176350000Y-111030000D02*
X176350000Y-110750000D01*
X151790000Y-134040000D02*
X151790000Y-133800000D01*
X188800000Y-130600000D02*
X187730000Y-130610000D01*
X157710000Y-135480000D02*
X157700000Y-135690000D01*
X187350000Y-121580000D02*
X186290000Y-121580000D01*
X157370000Y-117660000D02*
X158790000Y-117630000D01*
X153315000Y-131607621D02*
X151690000Y-131610000D01*
X180060000Y-120920000D02*
X180060000Y-121240000D01*
X185340000Y-130500000D02*
X185340000Y-130730000D01*
D11*
X176920476Y-126304819D02*
X177587142Y-127304819D01*
X177587142Y-126304819D02*
X176920476Y-127304819D01*
X178491904Y-127304819D02*
X177920476Y-127304819D01*
X178206190Y-127304819D02*
X178206190Y-126304819D01*
X178206190Y-126304819D02*
X178110952Y-126447676D01*
X178110952Y-126447676D02*
X178015714Y-126542914D01*
X178015714Y-126542914D02*
X177920476Y-126590533D01*
X177356666Y-100754819D02*
X177356666Y-101469104D01*
X177356666Y-101469104D02*
X177309047Y-101611961D01*
X177309047Y-101611961D02*
X177213809Y-101707200D01*
X177213809Y-101707200D02*
X177070952Y-101754819D01*
X177070952Y-101754819D02*
X176975714Y-101754819D01*
X177737619Y-100754819D02*
X178356666Y-100754819D01*
X178356666Y-100754819D02*
X178023333Y-101135771D01*
X178023333Y-101135771D02*
X178166190Y-101135771D01*
X178166190Y-101135771D02*
X178261428Y-101183390D01*
X178261428Y-101183390D02*
X178309047Y-101231009D01*
X178309047Y-101231009D02*
X178356666Y-101326247D01*
X178356666Y-101326247D02*
X178356666Y-101564342D01*
X178356666Y-101564342D02*
X178309047Y-101659580D01*
X178309047Y-101659580D02*
X178261428Y-101707200D01*
X178261428Y-101707200D02*
X178166190Y-101754819D01*
X178166190Y-101754819D02*
X177880476Y-101754819D01*
X177880476Y-101754819D02*
X177785238Y-101707200D01*
X177785238Y-101707200D02*
X177737619Y-101659580D01*
X183602595Y-105668419D02*
X183602595Y-106477942D01*
X183602595Y-106477942D02*
X183650214Y-106573180D01*
X183650214Y-106573180D02*
X183697833Y-106620800D01*
X183697833Y-106620800D02*
X183793071Y-106668419D01*
X183793071Y-106668419D02*
X183983547Y-106668419D01*
X183983547Y-106668419D02*
X184078785Y-106620800D01*
X184078785Y-106620800D02*
X184126404Y-106573180D01*
X184126404Y-106573180D02*
X184174023Y-106477942D01*
X184174023Y-106477942D02*
X184174023Y-105668419D01*
X184602595Y-105763657D02*
X184650214Y-105716038D01*
X184650214Y-105716038D02*
X184745452Y-105668419D01*
X184745452Y-105668419D02*
X184983547Y-105668419D01*
X184983547Y-105668419D02*
X185078785Y-105716038D01*
X185078785Y-105716038D02*
X185126404Y-105763657D01*
X185126404Y-105763657D02*
X185174023Y-105858895D01*
X185174023Y-105858895D02*
X185174023Y-105954133D01*
X185174023Y-105954133D02*
X185126404Y-106096990D01*
X185126404Y-106096990D02*
X184554976Y-106668419D01*
X184554976Y-106668419D02*
X185174023Y-106668419D01*
X177167142Y-124329580D02*
X177119523Y-124377200D01*
X177119523Y-124377200D02*
X176976666Y-124424819D01*
X176976666Y-124424819D02*
X176881428Y-124424819D01*
X176881428Y-124424819D02*
X176738571Y-124377200D01*
X176738571Y-124377200D02*
X176643333Y-124281961D01*
X176643333Y-124281961D02*
X176595714Y-124186723D01*
X176595714Y-124186723D02*
X176548095Y-123996247D01*
X176548095Y-123996247D02*
X176548095Y-123853390D01*
X176548095Y-123853390D02*
X176595714Y-123662914D01*
X176595714Y-123662914D02*
X176643333Y-123567676D01*
X176643333Y-123567676D02*
X176738571Y-123472438D01*
X176738571Y-123472438D02*
X176881428Y-123424819D01*
X176881428Y-123424819D02*
X176976666Y-123424819D01*
X176976666Y-123424819D02*
X177119523Y-123472438D01*
X177119523Y-123472438D02*
X177167142Y-123520057D01*
X177548095Y-123520057D02*
X177595714Y-123472438D01*
X177595714Y-123472438D02*
X177690952Y-123424819D01*
X177690952Y-123424819D02*
X177929047Y-123424819D01*
X177929047Y-123424819D02*
X178024285Y-123472438D01*
X178024285Y-123472438D02*
X178071904Y-123520057D01*
X178071904Y-123520057D02*
X178119523Y-123615295D01*
X178119523Y-123615295D02*
X178119523Y-123710533D01*
X178119523Y-123710533D02*
X178071904Y-123853390D01*
X178071904Y-123853390D02*
X177500476Y-124424819D01*
X177500476Y-124424819D02*
X178119523Y-124424819D01*
X178452857Y-123424819D02*
X179119523Y-123424819D01*
X179119523Y-123424819D02*
X178690952Y-124424819D01*
X156877142Y-130164319D02*
X156543809Y-129688128D01*
X156305714Y-130164319D02*
X156305714Y-129164319D01*
X156305714Y-129164319D02*
X156686666Y-129164319D01*
X156686666Y-129164319D02*
X156781904Y-129211938D01*
X156781904Y-129211938D02*
X156829523Y-129259557D01*
X156829523Y-129259557D02*
X156877142Y-129354795D01*
X156877142Y-129354795D02*
X156877142Y-129497652D01*
X156877142Y-129497652D02*
X156829523Y-129592890D01*
X156829523Y-129592890D02*
X156781904Y-129640509D01*
X156781904Y-129640509D02*
X156686666Y-129688128D01*
X156686666Y-129688128D02*
X156305714Y-129688128D01*
X157829523Y-130164319D02*
X157258095Y-130164319D01*
X157543809Y-130164319D02*
X157543809Y-129164319D01*
X157543809Y-129164319D02*
X157448571Y-129307176D01*
X157448571Y-129307176D02*
X157353333Y-129402414D01*
X157353333Y-129402414D02*
X157258095Y-129450033D01*
X158734285Y-129164319D02*
X158258095Y-129164319D01*
X158258095Y-129164319D02*
X158210476Y-129640509D01*
X158210476Y-129640509D02*
X158258095Y-129592890D01*
X158258095Y-129592890D02*
X158353333Y-129545271D01*
X158353333Y-129545271D02*
X158591428Y-129545271D01*
X158591428Y-129545271D02*
X158686666Y-129592890D01*
X158686666Y-129592890D02*
X158734285Y-129640509D01*
X158734285Y-129640509D02*
X158781904Y-129735747D01*
X158781904Y-129735747D02*
X158781904Y-129973842D01*
X158781904Y-129973842D02*
X158734285Y-130069080D01*
X158734285Y-130069080D02*
X158686666Y-130116700D01*
X158686666Y-130116700D02*
X158591428Y-130164319D01*
X158591428Y-130164319D02*
X158353333Y-130164319D01*
X158353333Y-130164319D02*
X158258095Y-130116700D01*
X158258095Y-130116700D02*
X158210476Y-130069080D01*
X155707900Y-129958719D02*
X155707900Y-130196814D01*
X155469805Y-130101576D02*
X155707900Y-130196814D01*
X155707900Y-130196814D02*
X155945995Y-130101576D01*
X155565043Y-130387290D02*
X155707900Y-130196814D01*
X155707900Y-130196814D02*
X155850757Y-130387290D01*
X155707900Y-129958719D02*
X155707900Y-130196814D01*
X155469805Y-130101576D02*
X155707900Y-130196814D01*
X155707900Y-130196814D02*
X155945995Y-130101576D01*
X155565043Y-130387290D02*
X155707900Y-130196814D01*
X155707900Y-130196814D02*
X155850757Y-130387290D01*
X187291905Y-118874819D02*
X187291905Y-117874819D01*
X187291905Y-117874819D02*
X187530000Y-117874819D01*
X187530000Y-117874819D02*
X187672857Y-117922438D01*
X187672857Y-117922438D02*
X187768095Y-118017676D01*
X187768095Y-118017676D02*
X187815714Y-118112914D01*
X187815714Y-118112914D02*
X187863333Y-118303390D01*
X187863333Y-118303390D02*
X187863333Y-118446247D01*
X187863333Y-118446247D02*
X187815714Y-118636723D01*
X187815714Y-118636723D02*
X187768095Y-118731961D01*
X187768095Y-118731961D02*
X187672857Y-118827200D01*
X187672857Y-118827200D02*
X187530000Y-118874819D01*
X187530000Y-118874819D02*
X187291905Y-118874819D01*
X188196667Y-117874819D02*
X188815714Y-117874819D01*
X188815714Y-117874819D02*
X188482381Y-118255771D01*
X188482381Y-118255771D02*
X188625238Y-118255771D01*
X188625238Y-118255771D02*
X188720476Y-118303390D01*
X188720476Y-118303390D02*
X188768095Y-118351009D01*
X188768095Y-118351009D02*
X188815714Y-118446247D01*
X188815714Y-118446247D02*
X188815714Y-118684342D01*
X188815714Y-118684342D02*
X188768095Y-118779580D01*
X188768095Y-118779580D02*
X188720476Y-118827200D01*
X188720476Y-118827200D02*
X188625238Y-118874819D01*
X188625238Y-118874819D02*
X188339524Y-118874819D01*
X188339524Y-118874819D02*
X188244286Y-118827200D01*
X188244286Y-118827200D02*
X188196667Y-118779580D01*
X169248095Y-114144819D02*
X169248095Y-114954342D01*
X169248095Y-114954342D02*
X169295714Y-115049580D01*
X169295714Y-115049580D02*
X169343333Y-115097200D01*
X169343333Y-115097200D02*
X169438571Y-115144819D01*
X169438571Y-115144819D02*
X169629047Y-115144819D01*
X169629047Y-115144819D02*
X169724285Y-115097200D01*
X169724285Y-115097200D02*
X169771904Y-115049580D01*
X169771904Y-115049580D02*
X169819523Y-114954342D01*
X169819523Y-114954342D02*
X169819523Y-114144819D01*
X170438571Y-114573390D02*
X170343333Y-114525771D01*
X170343333Y-114525771D02*
X170295714Y-114478152D01*
X170295714Y-114478152D02*
X170248095Y-114382914D01*
X170248095Y-114382914D02*
X170248095Y-114335295D01*
X170248095Y-114335295D02*
X170295714Y-114240057D01*
X170295714Y-114240057D02*
X170343333Y-114192438D01*
X170343333Y-114192438D02*
X170438571Y-114144819D01*
X170438571Y-114144819D02*
X170629047Y-114144819D01*
X170629047Y-114144819D02*
X170724285Y-114192438D01*
X170724285Y-114192438D02*
X170771904Y-114240057D01*
X170771904Y-114240057D02*
X170819523Y-114335295D01*
X170819523Y-114335295D02*
X170819523Y-114382914D01*
X170819523Y-114382914D02*
X170771904Y-114478152D01*
X170771904Y-114478152D02*
X170724285Y-114525771D01*
X170724285Y-114525771D02*
X170629047Y-114573390D01*
X170629047Y-114573390D02*
X170438571Y-114573390D01*
X170438571Y-114573390D02*
X170343333Y-114621009D01*
X170343333Y-114621009D02*
X170295714Y-114668628D01*
X170295714Y-114668628D02*
X170248095Y-114763866D01*
X170248095Y-114763866D02*
X170248095Y-114954342D01*
X170248095Y-114954342D02*
X170295714Y-115049580D01*
X170295714Y-115049580D02*
X170343333Y-115097200D01*
X170343333Y-115097200D02*
X170438571Y-115144819D01*
X170438571Y-115144819D02*
X170629047Y-115144819D01*
X170629047Y-115144819D02*
X170724285Y-115097200D01*
X170724285Y-115097200D02*
X170771904Y-115049580D01*
X170771904Y-115049580D02*
X170819523Y-114954342D01*
X170819523Y-114954342D02*
X170819523Y-114763866D01*
X170819523Y-114763866D02*
X170771904Y-114668628D01*
X170771904Y-114668628D02*
X170724285Y-114621009D01*
X170724285Y-114621009D02*
X170629047Y-114573390D01*
X182267142Y-120734819D02*
X181933809Y-120258628D01*
X181695714Y-120734819D02*
X181695714Y-119734819D01*
X181695714Y-119734819D02*
X182076666Y-119734819D01*
X182076666Y-119734819D02*
X182171904Y-119782438D01*
X182171904Y-119782438D02*
X182219523Y-119830057D01*
X182219523Y-119830057D02*
X182267142Y-119925295D01*
X182267142Y-119925295D02*
X182267142Y-120068152D01*
X182267142Y-120068152D02*
X182219523Y-120163390D01*
X182219523Y-120163390D02*
X182171904Y-120211009D01*
X182171904Y-120211009D02*
X182076666Y-120258628D01*
X182076666Y-120258628D02*
X181695714Y-120258628D01*
X183219523Y-120734819D02*
X182648095Y-120734819D01*
X182933809Y-120734819D02*
X182933809Y-119734819D01*
X182933809Y-119734819D02*
X182838571Y-119877676D01*
X182838571Y-119877676D02*
X182743333Y-119972914D01*
X182743333Y-119972914D02*
X182648095Y-120020533D01*
X183600476Y-119830057D02*
X183648095Y-119782438D01*
X183648095Y-119782438D02*
X183743333Y-119734819D01*
X183743333Y-119734819D02*
X183981428Y-119734819D01*
X183981428Y-119734819D02*
X184076666Y-119782438D01*
X184076666Y-119782438D02*
X184124285Y-119830057D01*
X184124285Y-119830057D02*
X184171904Y-119925295D01*
X184171904Y-119925295D02*
X184171904Y-120020533D01*
X184171904Y-120020533D02*
X184124285Y-120163390D01*
X184124285Y-120163390D02*
X183552857Y-120734819D01*
X183552857Y-120734819D02*
X184171904Y-120734819D01*
X150872142Y-131337319D02*
X150538809Y-130861128D01*
X150300714Y-131337319D02*
X150300714Y-130337319D01*
X150300714Y-130337319D02*
X150681666Y-130337319D01*
X150681666Y-130337319D02*
X150776904Y-130384938D01*
X150776904Y-130384938D02*
X150824523Y-130432557D01*
X150824523Y-130432557D02*
X150872142Y-130527795D01*
X150872142Y-130527795D02*
X150872142Y-130670652D01*
X150872142Y-130670652D02*
X150824523Y-130765890D01*
X150824523Y-130765890D02*
X150776904Y-130813509D01*
X150776904Y-130813509D02*
X150681666Y-130861128D01*
X150681666Y-130861128D02*
X150300714Y-130861128D01*
X151824523Y-131337319D02*
X151253095Y-131337319D01*
X151538809Y-131337319D02*
X151538809Y-130337319D01*
X151538809Y-130337319D02*
X151443571Y-130480176D01*
X151443571Y-130480176D02*
X151348333Y-130575414D01*
X151348333Y-130575414D02*
X151253095Y-130623033D01*
X152395952Y-130765890D02*
X152300714Y-130718271D01*
X152300714Y-130718271D02*
X152253095Y-130670652D01*
X152253095Y-130670652D02*
X152205476Y-130575414D01*
X152205476Y-130575414D02*
X152205476Y-130527795D01*
X152205476Y-130527795D02*
X152253095Y-130432557D01*
X152253095Y-130432557D02*
X152300714Y-130384938D01*
X152300714Y-130384938D02*
X152395952Y-130337319D01*
X152395952Y-130337319D02*
X152586428Y-130337319D01*
X152586428Y-130337319D02*
X152681666Y-130384938D01*
X152681666Y-130384938D02*
X152729285Y-130432557D01*
X152729285Y-130432557D02*
X152776904Y-130527795D01*
X152776904Y-130527795D02*
X152776904Y-130575414D01*
X152776904Y-130575414D02*
X152729285Y-130670652D01*
X152729285Y-130670652D02*
X152681666Y-130718271D01*
X152681666Y-130718271D02*
X152586428Y-130765890D01*
X152586428Y-130765890D02*
X152395952Y-130765890D01*
X152395952Y-130765890D02*
X152300714Y-130813509D01*
X152300714Y-130813509D02*
X152253095Y-130861128D01*
X152253095Y-130861128D02*
X152205476Y-130956366D01*
X152205476Y-130956366D02*
X152205476Y-131146842D01*
X152205476Y-131146842D02*
X152253095Y-131242080D01*
X152253095Y-131242080D02*
X152300714Y-131289700D01*
X152300714Y-131289700D02*
X152395952Y-131337319D01*
X152395952Y-131337319D02*
X152586428Y-131337319D01*
X152586428Y-131337319D02*
X152681666Y-131289700D01*
X152681666Y-131289700D02*
X152729285Y-131242080D01*
X152729285Y-131242080D02*
X152776904Y-131146842D01*
X152776904Y-131146842D02*
X152776904Y-130956366D01*
X152776904Y-130956366D02*
X152729285Y-130861128D01*
X152729285Y-130861128D02*
X152681666Y-130813509D01*
X152681666Y-130813509D02*
X152586428Y-130765890D01*
X156577142Y-119379580D02*
X156529523Y-119427200D01*
X156529523Y-119427200D02*
X156386666Y-119474819D01*
X156386666Y-119474819D02*
X156291428Y-119474819D01*
X156291428Y-119474819D02*
X156148571Y-119427200D01*
X156148571Y-119427200D02*
X156053333Y-119331961D01*
X156053333Y-119331961D02*
X156005714Y-119236723D01*
X156005714Y-119236723D02*
X155958095Y-119046247D01*
X155958095Y-119046247D02*
X155958095Y-118903390D01*
X155958095Y-118903390D02*
X156005714Y-118712914D01*
X156005714Y-118712914D02*
X156053333Y-118617676D01*
X156053333Y-118617676D02*
X156148571Y-118522438D01*
X156148571Y-118522438D02*
X156291428Y-118474819D01*
X156291428Y-118474819D02*
X156386666Y-118474819D01*
X156386666Y-118474819D02*
X156529523Y-118522438D01*
X156529523Y-118522438D02*
X156577142Y-118570057D01*
X156958095Y-118570057D02*
X157005714Y-118522438D01*
X157005714Y-118522438D02*
X157100952Y-118474819D01*
X157100952Y-118474819D02*
X157339047Y-118474819D01*
X157339047Y-118474819D02*
X157434285Y-118522438D01*
X157434285Y-118522438D02*
X157481904Y-118570057D01*
X157481904Y-118570057D02*
X157529523Y-118665295D01*
X157529523Y-118665295D02*
X157529523Y-118760533D01*
X157529523Y-118760533D02*
X157481904Y-118903390D01*
X157481904Y-118903390D02*
X156910476Y-119474819D01*
X156910476Y-119474819D02*
X157529523Y-119474819D01*
X158386666Y-118808152D02*
X158386666Y-119474819D01*
X158148571Y-118427200D02*
X157910476Y-119141485D01*
X157910476Y-119141485D02*
X158529523Y-119141485D01*
X179347142Y-120804819D02*
X179013809Y-120328628D01*
X178775714Y-120804819D02*
X178775714Y-119804819D01*
X178775714Y-119804819D02*
X179156666Y-119804819D01*
X179156666Y-119804819D02*
X179251904Y-119852438D01*
X179251904Y-119852438D02*
X179299523Y-119900057D01*
X179299523Y-119900057D02*
X179347142Y-119995295D01*
X179347142Y-119995295D02*
X179347142Y-120138152D01*
X179347142Y-120138152D02*
X179299523Y-120233390D01*
X179299523Y-120233390D02*
X179251904Y-120281009D01*
X179251904Y-120281009D02*
X179156666Y-120328628D01*
X179156666Y-120328628D02*
X178775714Y-120328628D01*
X180299523Y-120804819D02*
X179728095Y-120804819D01*
X180013809Y-120804819D02*
X180013809Y-119804819D01*
X180013809Y-119804819D02*
X179918571Y-119947676D01*
X179918571Y-119947676D02*
X179823333Y-120042914D01*
X179823333Y-120042914D02*
X179728095Y-120090533D01*
X181251904Y-120804819D02*
X180680476Y-120804819D01*
X180966190Y-120804819D02*
X180966190Y-119804819D01*
X180966190Y-119804819D02*
X180870952Y-119947676D01*
X180870952Y-119947676D02*
X180775714Y-120042914D01*
X180775714Y-120042914D02*
X180680476Y-120090533D01*
D12*
X173729913Y-124552582D02*
X173898272Y-124720941D01*
X173662569Y-124821956D02*
X173898272Y-124720941D01*
X173898272Y-124720941D02*
X173999287Y-124485238D01*
X173931943Y-124956643D02*
X173898272Y-124720941D01*
X173898272Y-124720941D02*
X174133974Y-124754612D01*
D11*
X184380595Y-131194819D02*
X184380595Y-132004342D01*
X184380595Y-132004342D02*
X184428214Y-132099580D01*
X184428214Y-132099580D02*
X184475833Y-132147200D01*
X184475833Y-132147200D02*
X184571071Y-132194819D01*
X184571071Y-132194819D02*
X184761547Y-132194819D01*
X184761547Y-132194819D02*
X184856785Y-132147200D01*
X184856785Y-132147200D02*
X184904404Y-132099580D01*
X184904404Y-132099580D02*
X184952023Y-132004342D01*
X184952023Y-132004342D02*
X184952023Y-131194819D01*
X185856785Y-131528152D02*
X185856785Y-132194819D01*
X185618690Y-131147200D02*
X185380595Y-131861485D01*
X185380595Y-131861485D02*
X185999642Y-131861485D01*
X156997142Y-135344319D02*
X156663809Y-134868128D01*
X156425714Y-135344319D02*
X156425714Y-134344319D01*
X156425714Y-134344319D02*
X156806666Y-134344319D01*
X156806666Y-134344319D02*
X156901904Y-134391938D01*
X156901904Y-134391938D02*
X156949523Y-134439557D01*
X156949523Y-134439557D02*
X156997142Y-134534795D01*
X156997142Y-134534795D02*
X156997142Y-134677652D01*
X156997142Y-134677652D02*
X156949523Y-134772890D01*
X156949523Y-134772890D02*
X156901904Y-134820509D01*
X156901904Y-134820509D02*
X156806666Y-134868128D01*
X156806666Y-134868128D02*
X156425714Y-134868128D01*
X157949523Y-135344319D02*
X157378095Y-135344319D01*
X157663809Y-135344319D02*
X157663809Y-134344319D01*
X157663809Y-134344319D02*
X157568571Y-134487176D01*
X157568571Y-134487176D02*
X157473333Y-134582414D01*
X157473333Y-134582414D02*
X157378095Y-134630033D01*
X158806666Y-134344319D02*
X158616190Y-134344319D01*
X158616190Y-134344319D02*
X158520952Y-134391938D01*
X158520952Y-134391938D02*
X158473333Y-134439557D01*
X158473333Y-134439557D02*
X158378095Y-134582414D01*
X158378095Y-134582414D02*
X158330476Y-134772890D01*
X158330476Y-134772890D02*
X158330476Y-135153842D01*
X158330476Y-135153842D02*
X158378095Y-135249080D01*
X158378095Y-135249080D02*
X158425714Y-135296700D01*
X158425714Y-135296700D02*
X158520952Y-135344319D01*
X158520952Y-135344319D02*
X158711428Y-135344319D01*
X158711428Y-135344319D02*
X158806666Y-135296700D01*
X158806666Y-135296700D02*
X158854285Y-135249080D01*
X158854285Y-135249080D02*
X158901904Y-135153842D01*
X158901904Y-135153842D02*
X158901904Y-134915747D01*
X158901904Y-134915747D02*
X158854285Y-134820509D01*
X158854285Y-134820509D02*
X158806666Y-134772890D01*
X158806666Y-134772890D02*
X158711428Y-134725271D01*
X158711428Y-134725271D02*
X158520952Y-134725271D01*
X158520952Y-134725271D02*
X158425714Y-134772890D01*
X158425714Y-134772890D02*
X158378095Y-134820509D01*
X158378095Y-134820509D02*
X158330476Y-134915747D01*
X155707900Y-135078719D02*
X155707900Y-135316814D01*
X155469805Y-135221576D02*
X155707900Y-135316814D01*
X155707900Y-135316814D02*
X155945995Y-135221576D01*
X155565043Y-135507290D02*
X155707900Y-135316814D01*
X155707900Y-135316814D02*
X155850757Y-135507290D01*
X155707900Y-135078719D02*
X155707900Y-135316814D01*
X155469805Y-135221576D02*
X155707900Y-135316814D01*
X155707900Y-135316814D02*
X155945995Y-135221576D01*
X155565043Y-135507290D02*
X155707900Y-135316814D01*
X155707900Y-135316814D02*
X155850757Y-135507290D01*
X187038095Y-123794819D02*
X187038095Y-124604342D01*
X187038095Y-124604342D02*
X187085714Y-124699580D01*
X187085714Y-124699580D02*
X187133333Y-124747200D01*
X187133333Y-124747200D02*
X187228571Y-124794819D01*
X187228571Y-124794819D02*
X187419047Y-124794819D01*
X187419047Y-124794819D02*
X187514285Y-124747200D01*
X187514285Y-124747200D02*
X187561904Y-124699580D01*
X187561904Y-124699580D02*
X187609523Y-124604342D01*
X187609523Y-124604342D02*
X187609523Y-123794819D01*
X188609523Y-124794819D02*
X188038095Y-124794819D01*
X188323809Y-124794819D02*
X188323809Y-123794819D01*
X188323809Y-123794819D02*
X188228571Y-123937676D01*
X188228571Y-123937676D02*
X188133333Y-124032914D01*
X188133333Y-124032914D02*
X188038095Y-124080533D01*
X176143333Y-113764819D02*
X175667143Y-113764819D01*
X175667143Y-113764819D02*
X175667143Y-112764819D01*
X177000476Y-113764819D02*
X176429048Y-113764819D01*
X176714762Y-113764819D02*
X176714762Y-112764819D01*
X176714762Y-112764819D02*
X176619524Y-112907676D01*
X176619524Y-112907676D02*
X176524286Y-113002914D01*
X176524286Y-113002914D02*
X176429048Y-113050533D01*
X185185833Y-130287319D02*
X184852500Y-129811128D01*
X184614405Y-130287319D02*
X184614405Y-129287319D01*
X184614405Y-129287319D02*
X184995357Y-129287319D01*
X184995357Y-129287319D02*
X185090595Y-129334938D01*
X185090595Y-129334938D02*
X185138214Y-129382557D01*
X185138214Y-129382557D02*
X185185833Y-129477795D01*
X185185833Y-129477795D02*
X185185833Y-129620652D01*
X185185833Y-129620652D02*
X185138214Y-129715890D01*
X185138214Y-129715890D02*
X185090595Y-129763509D01*
X185090595Y-129763509D02*
X184995357Y-129811128D01*
X184995357Y-129811128D02*
X184614405Y-129811128D01*
X185566786Y-129382557D02*
X185614405Y-129334938D01*
X185614405Y-129334938D02*
X185709643Y-129287319D01*
X185709643Y-129287319D02*
X185947738Y-129287319D01*
X185947738Y-129287319D02*
X186042976Y-129334938D01*
X186042976Y-129334938D02*
X186090595Y-129382557D01*
X186090595Y-129382557D02*
X186138214Y-129477795D01*
X186138214Y-129477795D02*
X186138214Y-129573033D01*
X186138214Y-129573033D02*
X186090595Y-129715890D01*
X186090595Y-129715890D02*
X185519167Y-130287319D01*
X185519167Y-130287319D02*
X186138214Y-130287319D01*
X175487142Y-112144819D02*
X175153809Y-111668628D01*
X174915714Y-112144819D02*
X174915714Y-111144819D01*
X174915714Y-111144819D02*
X175296666Y-111144819D01*
X175296666Y-111144819D02*
X175391904Y-111192438D01*
X175391904Y-111192438D02*
X175439523Y-111240057D01*
X175439523Y-111240057D02*
X175487142Y-111335295D01*
X175487142Y-111335295D02*
X175487142Y-111478152D01*
X175487142Y-111478152D02*
X175439523Y-111573390D01*
X175439523Y-111573390D02*
X175391904Y-111621009D01*
X175391904Y-111621009D02*
X175296666Y-111668628D01*
X175296666Y-111668628D02*
X174915714Y-111668628D01*
X175868095Y-111240057D02*
X175915714Y-111192438D01*
X175915714Y-111192438D02*
X176010952Y-111144819D01*
X176010952Y-111144819D02*
X176249047Y-111144819D01*
X176249047Y-111144819D02*
X176344285Y-111192438D01*
X176344285Y-111192438D02*
X176391904Y-111240057D01*
X176391904Y-111240057D02*
X176439523Y-111335295D01*
X176439523Y-111335295D02*
X176439523Y-111430533D01*
X176439523Y-111430533D02*
X176391904Y-111573390D01*
X176391904Y-111573390D02*
X175820476Y-112144819D01*
X175820476Y-112144819D02*
X176439523Y-112144819D01*
X176820476Y-111240057D02*
X176868095Y-111192438D01*
X176868095Y-111192438D02*
X176963333Y-111144819D01*
X176963333Y-111144819D02*
X177201428Y-111144819D01*
X177201428Y-111144819D02*
X177296666Y-111192438D01*
X177296666Y-111192438D02*
X177344285Y-111240057D01*
X177344285Y-111240057D02*
X177391904Y-111335295D01*
X177391904Y-111335295D02*
X177391904Y-111430533D01*
X177391904Y-111430533D02*
X177344285Y-111573390D01*
X177344285Y-111573390D02*
X176772857Y-112144819D01*
X176772857Y-112144819D02*
X177391904Y-112144819D01*
X163716666Y-108778819D02*
X163716666Y-109493104D01*
X163716666Y-109493104D02*
X163669047Y-109635961D01*
X163669047Y-109635961D02*
X163573809Y-109731200D01*
X163573809Y-109731200D02*
X163430952Y-109778819D01*
X163430952Y-109778819D02*
X163335714Y-109778819D01*
X164716666Y-109778819D02*
X164145238Y-109778819D01*
X164430952Y-109778819D02*
X164430952Y-108778819D01*
X164430952Y-108778819D02*
X164335714Y-108921676D01*
X164335714Y-108921676D02*
X164240476Y-109016914D01*
X164240476Y-109016914D02*
X164145238Y-109064533D01*
X182323333Y-104314819D02*
X181990000Y-103838628D01*
X181751905Y-104314819D02*
X181751905Y-103314819D01*
X181751905Y-103314819D02*
X182132857Y-103314819D01*
X182132857Y-103314819D02*
X182228095Y-103362438D01*
X182228095Y-103362438D02*
X182275714Y-103410057D01*
X182275714Y-103410057D02*
X182323333Y-103505295D01*
X182323333Y-103505295D02*
X182323333Y-103648152D01*
X182323333Y-103648152D02*
X182275714Y-103743390D01*
X182275714Y-103743390D02*
X182228095Y-103791009D01*
X182228095Y-103791009D02*
X182132857Y-103838628D01*
X182132857Y-103838628D02*
X181751905Y-103838628D01*
X182656667Y-103314819D02*
X183323333Y-103314819D01*
X183323333Y-103314819D02*
X182894762Y-104314819D01*
X160370476Y-114464819D02*
X161037142Y-115464819D01*
X161037142Y-114464819D02*
X160370476Y-115464819D01*
X161370476Y-114560057D02*
X161418095Y-114512438D01*
X161418095Y-114512438D02*
X161513333Y-114464819D01*
X161513333Y-114464819D02*
X161751428Y-114464819D01*
X161751428Y-114464819D02*
X161846666Y-114512438D01*
X161846666Y-114512438D02*
X161894285Y-114560057D01*
X161894285Y-114560057D02*
X161941904Y-114655295D01*
X161941904Y-114655295D02*
X161941904Y-114750533D01*
X161941904Y-114750533D02*
X161894285Y-114893390D01*
X161894285Y-114893390D02*
X161322857Y-115464819D01*
X161322857Y-115464819D02*
X161941904Y-115464819D01*
D12*
X162815380Y-115235425D02*
X162577285Y-115235425D01*
X162672523Y-114997330D02*
X162577285Y-115235425D01*
X162577285Y-115235425D02*
X162672523Y-115473520D01*
X162386809Y-115092568D02*
X162577285Y-115235425D01*
X162577285Y-115235425D02*
X162386809Y-115378282D01*
D11*
X186598095Y-120144819D02*
X186598095Y-120954342D01*
X186598095Y-120954342D02*
X186645714Y-121049580D01*
X186645714Y-121049580D02*
X186693333Y-121097200D01*
X186693333Y-121097200D02*
X186788571Y-121144819D01*
X186788571Y-121144819D02*
X186979047Y-121144819D01*
X186979047Y-121144819D02*
X187074285Y-121097200D01*
X187074285Y-121097200D02*
X187121904Y-121049580D01*
X187121904Y-121049580D02*
X187169523Y-120954342D01*
X187169523Y-120954342D02*
X187169523Y-120144819D01*
X188074285Y-120144819D02*
X187883809Y-120144819D01*
X187883809Y-120144819D02*
X187788571Y-120192438D01*
X187788571Y-120192438D02*
X187740952Y-120240057D01*
X187740952Y-120240057D02*
X187645714Y-120382914D01*
X187645714Y-120382914D02*
X187598095Y-120573390D01*
X187598095Y-120573390D02*
X187598095Y-120954342D01*
X187598095Y-120954342D02*
X187645714Y-121049580D01*
X187645714Y-121049580D02*
X187693333Y-121097200D01*
X187693333Y-121097200D02*
X187788571Y-121144819D01*
X187788571Y-121144819D02*
X187979047Y-121144819D01*
X187979047Y-121144819D02*
X188074285Y-121097200D01*
X188074285Y-121097200D02*
X188121904Y-121049580D01*
X188121904Y-121049580D02*
X188169523Y-120954342D01*
X188169523Y-120954342D02*
X188169523Y-120716247D01*
X188169523Y-120716247D02*
X188121904Y-120621009D01*
X188121904Y-120621009D02*
X188074285Y-120573390D01*
X188074285Y-120573390D02*
X187979047Y-120525771D01*
X187979047Y-120525771D02*
X187788571Y-120525771D01*
X187788571Y-120525771D02*
X187693333Y-120573390D01*
X187693333Y-120573390D02*
X187645714Y-120621009D01*
X187645714Y-120621009D02*
X187598095Y-120716247D01*
X182368519Y-123739999D02*
X182606614Y-123739999D01*
X182511376Y-123978094D02*
X182606614Y-123739999D01*
X182606614Y-123739999D02*
X182511376Y-123501904D01*
X182797090Y-123882856D02*
X182606614Y-123739999D01*
X182606614Y-123739999D02*
X182797090Y-123597142D01*
X162443333Y-121264819D02*
X162110000Y-120788628D01*
X161871905Y-121264819D02*
X161871905Y-120264819D01*
X161871905Y-120264819D02*
X162252857Y-120264819D01*
X162252857Y-120264819D02*
X162348095Y-120312438D01*
X162348095Y-120312438D02*
X162395714Y-120360057D01*
X162395714Y-120360057D02*
X162443333Y-120455295D01*
X162443333Y-120455295D02*
X162443333Y-120598152D01*
X162443333Y-120598152D02*
X162395714Y-120693390D01*
X162395714Y-120693390D02*
X162348095Y-120741009D01*
X162348095Y-120741009D02*
X162252857Y-120788628D01*
X162252857Y-120788628D02*
X161871905Y-120788628D01*
X163014762Y-120693390D02*
X162919524Y-120645771D01*
X162919524Y-120645771D02*
X162871905Y-120598152D01*
X162871905Y-120598152D02*
X162824286Y-120502914D01*
X162824286Y-120502914D02*
X162824286Y-120455295D01*
X162824286Y-120455295D02*
X162871905Y-120360057D01*
X162871905Y-120360057D02*
X162919524Y-120312438D01*
X162919524Y-120312438D02*
X163014762Y-120264819D01*
X163014762Y-120264819D02*
X163205238Y-120264819D01*
X163205238Y-120264819D02*
X163300476Y-120312438D01*
X163300476Y-120312438D02*
X163348095Y-120360057D01*
X163348095Y-120360057D02*
X163395714Y-120455295D01*
X163395714Y-120455295D02*
X163395714Y-120502914D01*
X163395714Y-120502914D02*
X163348095Y-120598152D01*
X163348095Y-120598152D02*
X163300476Y-120645771D01*
X163300476Y-120645771D02*
X163205238Y-120693390D01*
X163205238Y-120693390D02*
X163014762Y-120693390D01*
X163014762Y-120693390D02*
X162919524Y-120741009D01*
X162919524Y-120741009D02*
X162871905Y-120788628D01*
X162871905Y-120788628D02*
X162824286Y-120883866D01*
X162824286Y-120883866D02*
X162824286Y-121074342D01*
X162824286Y-121074342D02*
X162871905Y-121169580D01*
X162871905Y-121169580D02*
X162919524Y-121217200D01*
X162919524Y-121217200D02*
X163014762Y-121264819D01*
X163014762Y-121264819D02*
X163205238Y-121264819D01*
X163205238Y-121264819D02*
X163300476Y-121217200D01*
X163300476Y-121217200D02*
X163348095Y-121169580D01*
X163348095Y-121169580D02*
X163395714Y-121074342D01*
X163395714Y-121074342D02*
X163395714Y-120883866D01*
X163395714Y-120883866D02*
X163348095Y-120788628D01*
X163348095Y-120788628D02*
X163300476Y-120741009D01*
X163300476Y-120741009D02*
X163205238Y-120693390D01*
X150992142Y-126354819D02*
X150658809Y-125878628D01*
X150420714Y-126354819D02*
X150420714Y-125354819D01*
X150420714Y-125354819D02*
X150801666Y-125354819D01*
X150801666Y-125354819D02*
X150896904Y-125402438D01*
X150896904Y-125402438D02*
X150944523Y-125450057D01*
X150944523Y-125450057D02*
X150992142Y-125545295D01*
X150992142Y-125545295D02*
X150992142Y-125688152D01*
X150992142Y-125688152D02*
X150944523Y-125783390D01*
X150944523Y-125783390D02*
X150896904Y-125831009D01*
X150896904Y-125831009D02*
X150801666Y-125878628D01*
X150801666Y-125878628D02*
X150420714Y-125878628D01*
X151944523Y-126354819D02*
X151373095Y-126354819D01*
X151658809Y-126354819D02*
X151658809Y-125354819D01*
X151658809Y-125354819D02*
X151563571Y-125497676D01*
X151563571Y-125497676D02*
X151468333Y-125592914D01*
X151468333Y-125592914D02*
X151373095Y-125640533D01*
X152277857Y-125354819D02*
X152944523Y-125354819D01*
X152944523Y-125354819D02*
X152515952Y-126354819D01*
X175913333Y-118364819D02*
X175437143Y-118364819D01*
X175437143Y-118364819D02*
X175437143Y-117364819D01*
X176675238Y-117698152D02*
X176675238Y-118364819D01*
X176437143Y-117317200D02*
X176199048Y-118031485D01*
X176199048Y-118031485D02*
X176818095Y-118031485D01*
X152218095Y-106034819D02*
X152218095Y-106844342D01*
X152218095Y-106844342D02*
X152265714Y-106939580D01*
X152265714Y-106939580D02*
X152313333Y-106987200D01*
X152313333Y-106987200D02*
X152408571Y-107034819D01*
X152408571Y-107034819D02*
X152599047Y-107034819D01*
X152599047Y-107034819D02*
X152694285Y-106987200D01*
X152694285Y-106987200D02*
X152741904Y-106939580D01*
X152741904Y-106939580D02*
X152789523Y-106844342D01*
X152789523Y-106844342D02*
X152789523Y-106034819D01*
X153170476Y-106034819D02*
X153837142Y-106034819D01*
X153837142Y-106034819D02*
X153408571Y-107034819D01*
X183610595Y-110334819D02*
X183610595Y-111144342D01*
X183610595Y-111144342D02*
X183658214Y-111239580D01*
X183658214Y-111239580D02*
X183705833Y-111287200D01*
X183705833Y-111287200D02*
X183801071Y-111334819D01*
X183801071Y-111334819D02*
X183991547Y-111334819D01*
X183991547Y-111334819D02*
X184086785Y-111287200D01*
X184086785Y-111287200D02*
X184134404Y-111239580D01*
X184134404Y-111239580D02*
X184182023Y-111144342D01*
X184182023Y-111144342D02*
X184182023Y-110334819D01*
X185134404Y-110334819D02*
X184658214Y-110334819D01*
X184658214Y-110334819D02*
X184610595Y-110811009D01*
X184610595Y-110811009D02*
X184658214Y-110763390D01*
X184658214Y-110763390D02*
X184753452Y-110715771D01*
X184753452Y-110715771D02*
X184991547Y-110715771D01*
X184991547Y-110715771D02*
X185086785Y-110763390D01*
X185086785Y-110763390D02*
X185134404Y-110811009D01*
X185134404Y-110811009D02*
X185182023Y-110906247D01*
X185182023Y-110906247D02*
X185182023Y-111144342D01*
X185182023Y-111144342D02*
X185134404Y-111239580D01*
X185134404Y-111239580D02*
X185086785Y-111287200D01*
X185086785Y-111287200D02*
X184991547Y-111334819D01*
X184991547Y-111334819D02*
X184753452Y-111334819D01*
X184753452Y-111334819D02*
X184658214Y-111287200D01*
X184658214Y-111287200D02*
X184610595Y-111239580D01*
X181394350Y-110263419D02*
X181394350Y-110501514D01*
X181156255Y-110406276D02*
X181394350Y-110501514D01*
X181394350Y-110501514D02*
X181632445Y-110406276D01*
X181251493Y-110691990D02*
X181394350Y-110501514D01*
X181394350Y-110501514D02*
X181537207Y-110691990D01*
X181394350Y-110263419D02*
X181394350Y-110501514D01*
X181156255Y-110406276D02*
X181394350Y-110501514D01*
X181394350Y-110501514D02*
X181632445Y-110406276D01*
X181251493Y-110691990D02*
X181394350Y-110501514D01*
X181394350Y-110501514D02*
X181537207Y-110691990D01*
X179605833Y-125447319D02*
X179272500Y-124971128D01*
X179034405Y-125447319D02*
X179034405Y-124447319D01*
X179034405Y-124447319D02*
X179415357Y-124447319D01*
X179415357Y-124447319D02*
X179510595Y-124494938D01*
X179510595Y-124494938D02*
X179558214Y-124542557D01*
X179558214Y-124542557D02*
X179605833Y-124637795D01*
X179605833Y-124637795D02*
X179605833Y-124780652D01*
X179605833Y-124780652D02*
X179558214Y-124875890D01*
X179558214Y-124875890D02*
X179510595Y-124923509D01*
X179510595Y-124923509D02*
X179415357Y-124971128D01*
X179415357Y-124971128D02*
X179034405Y-124971128D01*
X179939167Y-124447319D02*
X180558214Y-124447319D01*
X180558214Y-124447319D02*
X180224881Y-124828271D01*
X180224881Y-124828271D02*
X180367738Y-124828271D01*
X180367738Y-124828271D02*
X180462976Y-124875890D01*
X180462976Y-124875890D02*
X180510595Y-124923509D01*
X180510595Y-124923509D02*
X180558214Y-125018747D01*
X180558214Y-125018747D02*
X180558214Y-125256842D01*
X180558214Y-125256842D02*
X180510595Y-125352080D01*
X180510595Y-125352080D02*
X180462976Y-125399700D01*
X180462976Y-125399700D02*
X180367738Y-125447319D01*
X180367738Y-125447319D02*
X180082024Y-125447319D01*
X180082024Y-125447319D02*
X179986786Y-125399700D01*
X179986786Y-125399700D02*
X179939167Y-125352080D01*
X153087142Y-119464819D02*
X152753809Y-118988628D01*
X152515714Y-119464819D02*
X152515714Y-118464819D01*
X152515714Y-118464819D02*
X152896666Y-118464819D01*
X152896666Y-118464819D02*
X152991904Y-118512438D01*
X152991904Y-118512438D02*
X153039523Y-118560057D01*
X153039523Y-118560057D02*
X153087142Y-118655295D01*
X153087142Y-118655295D02*
X153087142Y-118798152D01*
X153087142Y-118798152D02*
X153039523Y-118893390D01*
X153039523Y-118893390D02*
X152991904Y-118941009D01*
X152991904Y-118941009D02*
X152896666Y-118988628D01*
X152896666Y-118988628D02*
X152515714Y-118988628D01*
X154039523Y-119464819D02*
X153468095Y-119464819D01*
X153753809Y-119464819D02*
X153753809Y-118464819D01*
X153753809Y-118464819D02*
X153658571Y-118607676D01*
X153658571Y-118607676D02*
X153563333Y-118702914D01*
X153563333Y-118702914D02*
X153468095Y-118750533D01*
X154372857Y-118464819D02*
X154991904Y-118464819D01*
X154991904Y-118464819D02*
X154658571Y-118845771D01*
X154658571Y-118845771D02*
X154801428Y-118845771D01*
X154801428Y-118845771D02*
X154896666Y-118893390D01*
X154896666Y-118893390D02*
X154944285Y-118941009D01*
X154944285Y-118941009D02*
X154991904Y-119036247D01*
X154991904Y-119036247D02*
X154991904Y-119274342D01*
X154991904Y-119274342D02*
X154944285Y-119369580D01*
X154944285Y-119369580D02*
X154896666Y-119417200D01*
X154896666Y-119417200D02*
X154801428Y-119464819D01*
X154801428Y-119464819D02*
X154515714Y-119464819D01*
X154515714Y-119464819D02*
X154420476Y-119417200D01*
X154420476Y-119417200D02*
X154372857Y-119369580D01*
X155712900Y-119409219D02*
X155712900Y-119647314D01*
X155474805Y-119552076D02*
X155712900Y-119647314D01*
X155712900Y-119647314D02*
X155950995Y-119552076D01*
X155570043Y-119837790D02*
X155712900Y-119647314D01*
X155712900Y-119647314D02*
X155855757Y-119837790D01*
X155712900Y-119409219D02*
X155712900Y-119647314D01*
X155474805Y-119552076D02*
X155712900Y-119647314D01*
X155712900Y-119647314D02*
X155950995Y-119552076D01*
X155570043Y-119837790D02*
X155712900Y-119647314D01*
X155712900Y-119647314D02*
X155855757Y-119837790D01*
X181955833Y-125312080D02*
X181908214Y-125359700D01*
X181908214Y-125359700D02*
X181765357Y-125407319D01*
X181765357Y-125407319D02*
X181670119Y-125407319D01*
X181670119Y-125407319D02*
X181527262Y-125359700D01*
X181527262Y-125359700D02*
X181432024Y-125264461D01*
X181432024Y-125264461D02*
X181384405Y-125169223D01*
X181384405Y-125169223D02*
X181336786Y-124978747D01*
X181336786Y-124978747D02*
X181336786Y-124835890D01*
X181336786Y-124835890D02*
X181384405Y-124645414D01*
X181384405Y-124645414D02*
X181432024Y-124550176D01*
X181432024Y-124550176D02*
X181527262Y-124454938D01*
X181527262Y-124454938D02*
X181670119Y-124407319D01*
X181670119Y-124407319D02*
X181765357Y-124407319D01*
X181765357Y-124407319D02*
X181908214Y-124454938D01*
X181908214Y-124454938D02*
X181955833Y-124502557D01*
X182527262Y-124835890D02*
X182432024Y-124788271D01*
X182432024Y-124788271D02*
X182384405Y-124740652D01*
X182384405Y-124740652D02*
X182336786Y-124645414D01*
X182336786Y-124645414D02*
X182336786Y-124597795D01*
X182336786Y-124597795D02*
X182384405Y-124502557D01*
X182384405Y-124502557D02*
X182432024Y-124454938D01*
X182432024Y-124454938D02*
X182527262Y-124407319D01*
X182527262Y-124407319D02*
X182717738Y-124407319D01*
X182717738Y-124407319D02*
X182812976Y-124454938D01*
X182812976Y-124454938D02*
X182860595Y-124502557D01*
X182860595Y-124502557D02*
X182908214Y-124597795D01*
X182908214Y-124597795D02*
X182908214Y-124645414D01*
X182908214Y-124645414D02*
X182860595Y-124740652D01*
X182860595Y-124740652D02*
X182812976Y-124788271D01*
X182812976Y-124788271D02*
X182717738Y-124835890D01*
X182717738Y-124835890D02*
X182527262Y-124835890D01*
X182527262Y-124835890D02*
X182432024Y-124883509D01*
X182432024Y-124883509D02*
X182384405Y-124931128D01*
X182384405Y-124931128D02*
X182336786Y-125026366D01*
X182336786Y-125026366D02*
X182336786Y-125216842D01*
X182336786Y-125216842D02*
X182384405Y-125312080D01*
X182384405Y-125312080D02*
X182432024Y-125359700D01*
X182432024Y-125359700D02*
X182527262Y-125407319D01*
X182527262Y-125407319D02*
X182717738Y-125407319D01*
X182717738Y-125407319D02*
X182812976Y-125359700D01*
X182812976Y-125359700D02*
X182860595Y-125312080D01*
X182860595Y-125312080D02*
X182908214Y-125216842D01*
X182908214Y-125216842D02*
X182908214Y-125026366D01*
X182908214Y-125026366D02*
X182860595Y-124931128D01*
X182860595Y-124931128D02*
X182812976Y-124883509D01*
X182812976Y-124883509D02*
X182717738Y-124835890D01*
X158623333Y-121274819D02*
X158290000Y-120798628D01*
X158051905Y-121274819D02*
X158051905Y-120274819D01*
X158051905Y-120274819D02*
X158432857Y-120274819D01*
X158432857Y-120274819D02*
X158528095Y-120322438D01*
X158528095Y-120322438D02*
X158575714Y-120370057D01*
X158575714Y-120370057D02*
X158623333Y-120465295D01*
X158623333Y-120465295D02*
X158623333Y-120608152D01*
X158623333Y-120608152D02*
X158575714Y-120703390D01*
X158575714Y-120703390D02*
X158528095Y-120751009D01*
X158528095Y-120751009D02*
X158432857Y-120798628D01*
X158432857Y-120798628D02*
X158051905Y-120798628D01*
X159575714Y-121274819D02*
X159004286Y-121274819D01*
X159290000Y-121274819D02*
X159290000Y-120274819D01*
X159290000Y-120274819D02*
X159194762Y-120417676D01*
X159194762Y-120417676D02*
X159099524Y-120512914D01*
X159099524Y-120512914D02*
X159004286Y-120560533D01*
X179343333Y-129429580D02*
X179295714Y-129477200D01*
X179295714Y-129477200D02*
X179152857Y-129524819D01*
X179152857Y-129524819D02*
X179057619Y-129524819D01*
X179057619Y-129524819D02*
X178914762Y-129477200D01*
X178914762Y-129477200D02*
X178819524Y-129381961D01*
X178819524Y-129381961D02*
X178771905Y-129286723D01*
X178771905Y-129286723D02*
X178724286Y-129096247D01*
X178724286Y-129096247D02*
X178724286Y-128953390D01*
X178724286Y-128953390D02*
X178771905Y-128762914D01*
X178771905Y-128762914D02*
X178819524Y-128667676D01*
X178819524Y-128667676D02*
X178914762Y-128572438D01*
X178914762Y-128572438D02*
X179057619Y-128524819D01*
X179057619Y-128524819D02*
X179152857Y-128524819D01*
X179152857Y-128524819D02*
X179295714Y-128572438D01*
X179295714Y-128572438D02*
X179343333Y-128620057D01*
X179676667Y-128524819D02*
X180343333Y-128524819D01*
X180343333Y-128524819D02*
X179914762Y-129524819D01*
X150982142Y-133777319D02*
X150648809Y-133301128D01*
X150410714Y-133777319D02*
X150410714Y-132777319D01*
X150410714Y-132777319D02*
X150791666Y-132777319D01*
X150791666Y-132777319D02*
X150886904Y-132824938D01*
X150886904Y-132824938D02*
X150934523Y-132872557D01*
X150934523Y-132872557D02*
X150982142Y-132967795D01*
X150982142Y-132967795D02*
X150982142Y-133110652D01*
X150982142Y-133110652D02*
X150934523Y-133205890D01*
X150934523Y-133205890D02*
X150886904Y-133253509D01*
X150886904Y-133253509D02*
X150791666Y-133301128D01*
X150791666Y-133301128D02*
X150410714Y-133301128D01*
X151363095Y-132872557D02*
X151410714Y-132824938D01*
X151410714Y-132824938D02*
X151505952Y-132777319D01*
X151505952Y-132777319D02*
X151744047Y-132777319D01*
X151744047Y-132777319D02*
X151839285Y-132824938D01*
X151839285Y-132824938D02*
X151886904Y-132872557D01*
X151886904Y-132872557D02*
X151934523Y-132967795D01*
X151934523Y-132967795D02*
X151934523Y-133063033D01*
X151934523Y-133063033D02*
X151886904Y-133205890D01*
X151886904Y-133205890D02*
X151315476Y-133777319D01*
X151315476Y-133777319D02*
X151934523Y-133777319D01*
X152553571Y-132777319D02*
X152648809Y-132777319D01*
X152648809Y-132777319D02*
X152744047Y-132824938D01*
X152744047Y-132824938D02*
X152791666Y-132872557D01*
X152791666Y-132872557D02*
X152839285Y-132967795D01*
X152839285Y-132967795D02*
X152886904Y-133158271D01*
X152886904Y-133158271D02*
X152886904Y-133396366D01*
X152886904Y-133396366D02*
X152839285Y-133586842D01*
X152839285Y-133586842D02*
X152791666Y-133682080D01*
X152791666Y-133682080D02*
X152744047Y-133729700D01*
X152744047Y-133729700D02*
X152648809Y-133777319D01*
X152648809Y-133777319D02*
X152553571Y-133777319D01*
X152553571Y-133777319D02*
X152458333Y-133729700D01*
X152458333Y-133729700D02*
X152410714Y-133682080D01*
X152410714Y-133682080D02*
X152363095Y-133586842D01*
X152363095Y-133586842D02*
X152315476Y-133396366D01*
X152315476Y-133396366D02*
X152315476Y-133158271D01*
X152315476Y-133158271D02*
X152363095Y-132967795D01*
X152363095Y-132967795D02*
X152410714Y-132872557D01*
X152410714Y-132872557D02*
X152458333Y-132824938D01*
X152458333Y-132824938D02*
X152553571Y-132777319D01*
X178906666Y-130564819D02*
X178906666Y-131279104D01*
X178906666Y-131279104D02*
X178859047Y-131421961D01*
X178859047Y-131421961D02*
X178763809Y-131517200D01*
X178763809Y-131517200D02*
X178620952Y-131564819D01*
X178620952Y-131564819D02*
X178525714Y-131564819D01*
X179335238Y-130660057D02*
X179382857Y-130612438D01*
X179382857Y-130612438D02*
X179478095Y-130564819D01*
X179478095Y-130564819D02*
X179716190Y-130564819D01*
X179716190Y-130564819D02*
X179811428Y-130612438D01*
X179811428Y-130612438D02*
X179859047Y-130660057D01*
X179859047Y-130660057D02*
X179906666Y-130755295D01*
X179906666Y-130755295D02*
X179906666Y-130850533D01*
X179906666Y-130850533D02*
X179859047Y-130993390D01*
X179859047Y-130993390D02*
X179287619Y-131564819D01*
X179287619Y-131564819D02*
X179906666Y-131564819D01*
X185763214Y-101329580D02*
X185715595Y-101377200D01*
X185715595Y-101377200D02*
X185572738Y-101424819D01*
X185572738Y-101424819D02*
X185477500Y-101424819D01*
X185477500Y-101424819D02*
X185334643Y-101377200D01*
X185334643Y-101377200D02*
X185239405Y-101281961D01*
X185239405Y-101281961D02*
X185191786Y-101186723D01*
X185191786Y-101186723D02*
X185144167Y-100996247D01*
X185144167Y-100996247D02*
X185144167Y-100853390D01*
X185144167Y-100853390D02*
X185191786Y-100662914D01*
X185191786Y-100662914D02*
X185239405Y-100567676D01*
X185239405Y-100567676D02*
X185334643Y-100472438D01*
X185334643Y-100472438D02*
X185477500Y-100424819D01*
X185477500Y-100424819D02*
X185572738Y-100424819D01*
X185572738Y-100424819D02*
X185715595Y-100472438D01*
X185715595Y-100472438D02*
X185763214Y-100520057D01*
X186191786Y-101424819D02*
X186191786Y-100424819D01*
X186191786Y-100901009D02*
X186763214Y-100901009D01*
X186763214Y-101424819D02*
X186763214Y-100424819D01*
X187763214Y-100472438D02*
X187667976Y-100424819D01*
X187667976Y-100424819D02*
X187525119Y-100424819D01*
X187525119Y-100424819D02*
X187382262Y-100472438D01*
X187382262Y-100472438D02*
X187287024Y-100567676D01*
X187287024Y-100567676D02*
X187239405Y-100662914D01*
X187239405Y-100662914D02*
X187191786Y-100853390D01*
X187191786Y-100853390D02*
X187191786Y-100996247D01*
X187191786Y-100996247D02*
X187239405Y-101186723D01*
X187239405Y-101186723D02*
X187287024Y-101281961D01*
X187287024Y-101281961D02*
X187382262Y-101377200D01*
X187382262Y-101377200D02*
X187525119Y-101424819D01*
X187525119Y-101424819D02*
X187620357Y-101424819D01*
X187620357Y-101424819D02*
X187763214Y-101377200D01*
X187763214Y-101377200D02*
X187810833Y-101329580D01*
X187810833Y-101329580D02*
X187810833Y-100996247D01*
X187810833Y-100996247D02*
X187620357Y-100996247D01*
X156957142Y-124854319D02*
X156623809Y-124378128D01*
X156385714Y-124854319D02*
X156385714Y-123854319D01*
X156385714Y-123854319D02*
X156766666Y-123854319D01*
X156766666Y-123854319D02*
X156861904Y-123901938D01*
X156861904Y-123901938D02*
X156909523Y-123949557D01*
X156909523Y-123949557D02*
X156957142Y-124044795D01*
X156957142Y-124044795D02*
X156957142Y-124187652D01*
X156957142Y-124187652D02*
X156909523Y-124282890D01*
X156909523Y-124282890D02*
X156861904Y-124330509D01*
X156861904Y-124330509D02*
X156766666Y-124378128D01*
X156766666Y-124378128D02*
X156385714Y-124378128D01*
X157909523Y-124854319D02*
X157338095Y-124854319D01*
X157623809Y-124854319D02*
X157623809Y-123854319D01*
X157623809Y-123854319D02*
X157528571Y-123997176D01*
X157528571Y-123997176D02*
X157433333Y-124092414D01*
X157433333Y-124092414D02*
X157338095Y-124140033D01*
X158766666Y-124187652D02*
X158766666Y-124854319D01*
X158528571Y-123806700D02*
X158290476Y-124520985D01*
X158290476Y-124520985D02*
X158909523Y-124520985D01*
X155707900Y-124628719D02*
X155707900Y-124866814D01*
X155469805Y-124771576D02*
X155707900Y-124866814D01*
X155707900Y-124866814D02*
X155945995Y-124771576D01*
X155565043Y-125057290D02*
X155707900Y-124866814D01*
X155707900Y-124866814D02*
X155850757Y-125057290D01*
X155707900Y-124628719D02*
X155707900Y-124866814D01*
X155469805Y-124771576D02*
X155707900Y-124866814D01*
X155707900Y-124866814D02*
X155945995Y-124771576D01*
X155565043Y-125057290D02*
X155707900Y-124866814D01*
X155707900Y-124866814D02*
X155850757Y-125057290D01*
X186263333Y-104274819D02*
X185930000Y-103798628D01*
X185691905Y-104274819D02*
X185691905Y-103274819D01*
X185691905Y-103274819D02*
X186072857Y-103274819D01*
X186072857Y-103274819D02*
X186168095Y-103322438D01*
X186168095Y-103322438D02*
X186215714Y-103370057D01*
X186215714Y-103370057D02*
X186263333Y-103465295D01*
X186263333Y-103465295D02*
X186263333Y-103608152D01*
X186263333Y-103608152D02*
X186215714Y-103703390D01*
X186215714Y-103703390D02*
X186168095Y-103751009D01*
X186168095Y-103751009D02*
X186072857Y-103798628D01*
X186072857Y-103798628D02*
X185691905Y-103798628D01*
X187120476Y-103274819D02*
X186930000Y-103274819D01*
X186930000Y-103274819D02*
X186834762Y-103322438D01*
X186834762Y-103322438D02*
X186787143Y-103370057D01*
X186787143Y-103370057D02*
X186691905Y-103512914D01*
X186691905Y-103512914D02*
X186644286Y-103703390D01*
X186644286Y-103703390D02*
X186644286Y-104084342D01*
X186644286Y-104084342D02*
X186691905Y-104179580D01*
X186691905Y-104179580D02*
X186739524Y-104227200D01*
X186739524Y-104227200D02*
X186834762Y-104274819D01*
X186834762Y-104274819D02*
X187025238Y-104274819D01*
X187025238Y-104274819D02*
X187120476Y-104227200D01*
X187120476Y-104227200D02*
X187168095Y-104179580D01*
X187168095Y-104179580D02*
X187215714Y-104084342D01*
X187215714Y-104084342D02*
X187215714Y-103846247D01*
X187215714Y-103846247D02*
X187168095Y-103751009D01*
X187168095Y-103751009D02*
X187120476Y-103703390D01*
X187120476Y-103703390D02*
X187025238Y-103655771D01*
X187025238Y-103655771D02*
X186834762Y-103655771D01*
X186834762Y-103655771D02*
X186739524Y-103703390D01*
X186739524Y-103703390D02*
X186691905Y-103751009D01*
X186691905Y-103751009D02*
X186644286Y-103846247D01*
X156607142Y-117139580D02*
X156559523Y-117187200D01*
X156559523Y-117187200D02*
X156416666Y-117234819D01*
X156416666Y-117234819D02*
X156321428Y-117234819D01*
X156321428Y-117234819D02*
X156178571Y-117187200D01*
X156178571Y-117187200D02*
X156083333Y-117091961D01*
X156083333Y-117091961D02*
X156035714Y-116996723D01*
X156035714Y-116996723D02*
X155988095Y-116806247D01*
X155988095Y-116806247D02*
X155988095Y-116663390D01*
X155988095Y-116663390D02*
X156035714Y-116472914D01*
X156035714Y-116472914D02*
X156083333Y-116377676D01*
X156083333Y-116377676D02*
X156178571Y-116282438D01*
X156178571Y-116282438D02*
X156321428Y-116234819D01*
X156321428Y-116234819D02*
X156416666Y-116234819D01*
X156416666Y-116234819D02*
X156559523Y-116282438D01*
X156559523Y-116282438D02*
X156607142Y-116330057D01*
X156988095Y-116330057D02*
X157035714Y-116282438D01*
X157035714Y-116282438D02*
X157130952Y-116234819D01*
X157130952Y-116234819D02*
X157369047Y-116234819D01*
X157369047Y-116234819D02*
X157464285Y-116282438D01*
X157464285Y-116282438D02*
X157511904Y-116330057D01*
X157511904Y-116330057D02*
X157559523Y-116425295D01*
X157559523Y-116425295D02*
X157559523Y-116520533D01*
X157559523Y-116520533D02*
X157511904Y-116663390D01*
X157511904Y-116663390D02*
X156940476Y-117234819D01*
X156940476Y-117234819D02*
X157559523Y-117234819D01*
X158464285Y-116234819D02*
X157988095Y-116234819D01*
X157988095Y-116234819D02*
X157940476Y-116711009D01*
X157940476Y-116711009D02*
X157988095Y-116663390D01*
X157988095Y-116663390D02*
X158083333Y-116615771D01*
X158083333Y-116615771D02*
X158321428Y-116615771D01*
X158321428Y-116615771D02*
X158416666Y-116663390D01*
X158416666Y-116663390D02*
X158464285Y-116711009D01*
X158464285Y-116711009D02*
X158511904Y-116806247D01*
X158511904Y-116806247D02*
X158511904Y-117044342D01*
X158511904Y-117044342D02*
X158464285Y-117139580D01*
X158464285Y-117139580D02*
X158416666Y-117187200D01*
X158416666Y-117187200D02*
X158321428Y-117234819D01*
X158321428Y-117234819D02*
X158083333Y-117234819D01*
X158083333Y-117234819D02*
X157988095Y-117187200D01*
X157988095Y-117187200D02*
X157940476Y-117139580D01*
X188645833Y-130182080D02*
X188598214Y-130229700D01*
X188598214Y-130229700D02*
X188455357Y-130277319D01*
X188455357Y-130277319D02*
X188360119Y-130277319D01*
X188360119Y-130277319D02*
X188217262Y-130229700D01*
X188217262Y-130229700D02*
X188122024Y-130134461D01*
X188122024Y-130134461D02*
X188074405Y-130039223D01*
X188074405Y-130039223D02*
X188026786Y-129848747D01*
X188026786Y-129848747D02*
X188026786Y-129705890D01*
X188026786Y-129705890D02*
X188074405Y-129515414D01*
X188074405Y-129515414D02*
X188122024Y-129420176D01*
X188122024Y-129420176D02*
X188217262Y-129324938D01*
X188217262Y-129324938D02*
X188360119Y-129277319D01*
X188360119Y-129277319D02*
X188455357Y-129277319D01*
X188455357Y-129277319D02*
X188598214Y-129324938D01*
X188598214Y-129324938D02*
X188645833Y-129372557D01*
X189502976Y-129277319D02*
X189312500Y-129277319D01*
X189312500Y-129277319D02*
X189217262Y-129324938D01*
X189217262Y-129324938D02*
X189169643Y-129372557D01*
X189169643Y-129372557D02*
X189074405Y-129515414D01*
X189074405Y-129515414D02*
X189026786Y-129705890D01*
X189026786Y-129705890D02*
X189026786Y-130086842D01*
X189026786Y-130086842D02*
X189074405Y-130182080D01*
X189074405Y-130182080D02*
X189122024Y-130229700D01*
X189122024Y-130229700D02*
X189217262Y-130277319D01*
X189217262Y-130277319D02*
X189407738Y-130277319D01*
X189407738Y-130277319D02*
X189502976Y-130229700D01*
X189502976Y-130229700D02*
X189550595Y-130182080D01*
X189550595Y-130182080D02*
X189598214Y-130086842D01*
X189598214Y-130086842D02*
X189598214Y-129848747D01*
X189598214Y-129848747D02*
X189550595Y-129753509D01*
X189550595Y-129753509D02*
X189502976Y-129705890D01*
X189502976Y-129705890D02*
X189407738Y-129658271D01*
X189407738Y-129658271D02*
X189217262Y-129658271D01*
X189217262Y-129658271D02*
X189122024Y-129705890D01*
X189122024Y-129705890D02*
X189074405Y-129753509D01*
X189074405Y-129753509D02*
X189026786Y-129848747D01*
X187687142Y-108334819D02*
X187353809Y-107858628D01*
X187115714Y-108334819D02*
X187115714Y-107334819D01*
X187115714Y-107334819D02*
X187496666Y-107334819D01*
X187496666Y-107334819D02*
X187591904Y-107382438D01*
X187591904Y-107382438D02*
X187639523Y-107430057D01*
X187639523Y-107430057D02*
X187687142Y-107525295D01*
X187687142Y-107525295D02*
X187687142Y-107668152D01*
X187687142Y-107668152D02*
X187639523Y-107763390D01*
X187639523Y-107763390D02*
X187591904Y-107811009D01*
X187591904Y-107811009D02*
X187496666Y-107858628D01*
X187496666Y-107858628D02*
X187115714Y-107858628D01*
X188068095Y-107430057D02*
X188115714Y-107382438D01*
X188115714Y-107382438D02*
X188210952Y-107334819D01*
X188210952Y-107334819D02*
X188449047Y-107334819D01*
X188449047Y-107334819D02*
X188544285Y-107382438D01*
X188544285Y-107382438D02*
X188591904Y-107430057D01*
X188591904Y-107430057D02*
X188639523Y-107525295D01*
X188639523Y-107525295D02*
X188639523Y-107620533D01*
X188639523Y-107620533D02*
X188591904Y-107763390D01*
X188591904Y-107763390D02*
X188020476Y-108334819D01*
X188020476Y-108334819D02*
X188639523Y-108334819D01*
X189591904Y-108334819D02*
X189020476Y-108334819D01*
X189306190Y-108334819D02*
X189306190Y-107334819D01*
X189306190Y-107334819D02*
X189210952Y-107477676D01*
X189210952Y-107477676D02*
X189115714Y-107572914D01*
X189115714Y-107572914D02*
X189020476Y-107620533D01*
X181705595Y-101424819D02*
X181705595Y-100424819D01*
X181705595Y-100424819D02*
X182086547Y-100424819D01*
X182086547Y-100424819D02*
X182181785Y-100472438D01*
X182181785Y-100472438D02*
X182229404Y-100520057D01*
X182229404Y-100520057D02*
X182277023Y-100615295D01*
X182277023Y-100615295D02*
X182277023Y-100758152D01*
X182277023Y-100758152D02*
X182229404Y-100853390D01*
X182229404Y-100853390D02*
X182181785Y-100901009D01*
X182181785Y-100901009D02*
X182086547Y-100948628D01*
X182086547Y-100948628D02*
X181705595Y-100948628D01*
X183229404Y-100472438D02*
X183134166Y-100424819D01*
X183134166Y-100424819D02*
X182991309Y-100424819D01*
X182991309Y-100424819D02*
X182848452Y-100472438D01*
X182848452Y-100472438D02*
X182753214Y-100567676D01*
X182753214Y-100567676D02*
X182705595Y-100662914D01*
X182705595Y-100662914D02*
X182657976Y-100853390D01*
X182657976Y-100853390D02*
X182657976Y-100996247D01*
X182657976Y-100996247D02*
X182705595Y-101186723D01*
X182705595Y-101186723D02*
X182753214Y-101281961D01*
X182753214Y-101281961D02*
X182848452Y-101377200D01*
X182848452Y-101377200D02*
X182991309Y-101424819D01*
X182991309Y-101424819D02*
X183086547Y-101424819D01*
X183086547Y-101424819D02*
X183229404Y-101377200D01*
X183229404Y-101377200D02*
X183277023Y-101329580D01*
X183277023Y-101329580D02*
X183277023Y-100996247D01*
X183277023Y-100996247D02*
X183086547Y-100996247D01*
X151042142Y-136237319D02*
X150708809Y-135761128D01*
X150470714Y-136237319D02*
X150470714Y-135237319D01*
X150470714Y-135237319D02*
X150851666Y-135237319D01*
X150851666Y-135237319D02*
X150946904Y-135284938D01*
X150946904Y-135284938D02*
X150994523Y-135332557D01*
X150994523Y-135332557D02*
X151042142Y-135427795D01*
X151042142Y-135427795D02*
X151042142Y-135570652D01*
X151042142Y-135570652D02*
X150994523Y-135665890D01*
X150994523Y-135665890D02*
X150946904Y-135713509D01*
X150946904Y-135713509D02*
X150851666Y-135761128D01*
X150851666Y-135761128D02*
X150470714Y-135761128D01*
X151994523Y-136237319D02*
X151423095Y-136237319D01*
X151708809Y-136237319D02*
X151708809Y-135237319D01*
X151708809Y-135237319D02*
X151613571Y-135380176D01*
X151613571Y-135380176D02*
X151518333Y-135475414D01*
X151518333Y-135475414D02*
X151423095Y-135523033D01*
X152470714Y-136237319D02*
X152661190Y-136237319D01*
X152661190Y-136237319D02*
X152756428Y-136189700D01*
X152756428Y-136189700D02*
X152804047Y-136142080D01*
X152804047Y-136142080D02*
X152899285Y-135999223D01*
X152899285Y-135999223D02*
X152946904Y-135808747D01*
X152946904Y-135808747D02*
X152946904Y-135427795D01*
X152946904Y-135427795D02*
X152899285Y-135332557D01*
X152899285Y-135332557D02*
X152851666Y-135284938D01*
X152851666Y-135284938D02*
X152756428Y-135237319D01*
X152756428Y-135237319D02*
X152565952Y-135237319D01*
X152565952Y-135237319D02*
X152470714Y-135284938D01*
X152470714Y-135284938D02*
X152423095Y-135332557D01*
X152423095Y-135332557D02*
X152375476Y-135427795D01*
X152375476Y-135427795D02*
X152375476Y-135665890D01*
X152375476Y-135665890D02*
X152423095Y-135761128D01*
X152423095Y-135761128D02*
X152470714Y-135808747D01*
X152470714Y-135808747D02*
X152565952Y-135856366D01*
X152565952Y-135856366D02*
X152756428Y-135856366D01*
X152756428Y-135856366D02*
X152851666Y-135808747D01*
X152851666Y-135808747D02*
X152899285Y-135761128D01*
X152899285Y-135761128D02*
X152946904Y-135665890D01*
D13*
X173320000Y-107950000D02*
G75*
G02*
X173120000Y-107950000I-100000J0D01*
G01*
X173120000Y-107950000D02*
G75*
G02*
X173320000Y-107950000I100000J0D01*
G01*
X174420000Y-100000000D02*
X165480000Y-100000000D01*
D14*
X183332500Y-106920000D02*
X185332500Y-106920000D01*
X183332500Y-109380000D02*
X185332500Y-109380000D01*
D13*
X182532500Y-107250000D02*
G75*
G02*
X182332500Y-107250000I-100000J0D01*
G01*
X182332500Y-107250000D02*
G75*
G02*
X182532500Y-107250000I100000J0D01*
G01*
D15*
X177764165Y-122410000D02*
X177995835Y-122410000D01*
X177764165Y-123130000D02*
X177995835Y-123130000D01*
X186650000Y-117520000D02*
X182790000Y-117520000D01*
X186650000Y-119520000D02*
X182790000Y-119520000D01*
X186650000Y-119520000D02*
X186650000Y-117520000D01*
X165890000Y-116415000D02*
X165890000Y-116130000D01*
X165890000Y-124110000D02*
X165890000Y-123585000D01*
X166415000Y-115890000D02*
X166190000Y-115890000D01*
X166415000Y-124110000D02*
X165890000Y-124110000D01*
X173585000Y-115890000D02*
X174110000Y-115890000D01*
X173585000Y-124110000D02*
X174110000Y-124110000D01*
X174110000Y-115890000D02*
X174110000Y-116415000D01*
X174110000Y-124110000D02*
X174110000Y-123585000D01*
X165890000Y-115890000D02*
X165650000Y-115560000D01*
X166130000Y-115560000D01*
X165890000Y-115890000D01*
G36*
X165890000Y-115890000D02*
G01*
X165650000Y-115560000D01*
X166130000Y-115560000D01*
X165890000Y-115890000D01*
G37*
X182080000Y-121972379D02*
X182080000Y-122307621D01*
X182840000Y-121972379D02*
X182840000Y-122307621D01*
X153315000Y-131272379D02*
X153315000Y-131607621D01*
X154075000Y-131272379D02*
X154075000Y-131607621D01*
X158880000Y-119145835D02*
X158880000Y-118914165D01*
X159600000Y-119145835D02*
X159600000Y-118914165D01*
X180570000Y-121972379D02*
X180570000Y-122307621D01*
X181330000Y-121972379D02*
X181330000Y-122307621D01*
X185142500Y-132580000D02*
X184342500Y-132580000D01*
X185142500Y-132580000D02*
X185942500Y-132580000D01*
X185142500Y-135700000D02*
X184342500Y-135700000D01*
X185142500Y-135700000D02*
X185942500Y-135700000D01*
X183842500Y-132630000D02*
X183602500Y-132300000D01*
X184082500Y-132300000D01*
X183842500Y-132630000D01*
G36*
X183842500Y-132630000D02*
G01*
X183602500Y-132300000D01*
X184082500Y-132300000D01*
X183842500Y-132630000D01*
G37*
X185132500Y-125150000D02*
X184332500Y-125150000D01*
X185132500Y-125150000D02*
X185932500Y-125150000D01*
X185132500Y-128270000D02*
X184332500Y-128270000D01*
X185132500Y-128270000D02*
X185932500Y-128270000D01*
X183102500Y-125750000D02*
X182772500Y-125990000D01*
X182772500Y-125510000D01*
X183102500Y-125750000D01*
G36*
X183102500Y-125750000D02*
G01*
X182772500Y-125990000D01*
X182772500Y-125510000D01*
X183102500Y-125750000D01*
G37*
X177372500Y-115037936D02*
X177372500Y-116242064D01*
X180092500Y-115037936D02*
X180092500Y-116242064D01*
X183472500Y-129634879D02*
X183472500Y-129970121D01*
X184232500Y-129634879D02*
X184232500Y-129970121D01*
X177890000Y-110672379D02*
X177890000Y-111007621D01*
X178650000Y-110672379D02*
X178650000Y-111007621D01*
X167690000Y-110840000D02*
X168325000Y-110840000D01*
X168325000Y-110840000D02*
X168325000Y-111475000D01*
X182630121Y-104620000D02*
X182294879Y-104620000D01*
X182630121Y-105380000D02*
X182294879Y-105380000D01*
D16*
X183371300Y-121083600D02*
X183371300Y-121802987D01*
X183371300Y-123717013D02*
X183371300Y-124436400D01*
X183371300Y-124436400D02*
X183586685Y-124436400D01*
X183586685Y-121083600D02*
X183371300Y-121083600D01*
X186000715Y-124436400D02*
X186216100Y-124436400D01*
X186216100Y-121083600D02*
X186000715Y-121083600D01*
X186216100Y-121802987D02*
X186216100Y-121083600D01*
X186216100Y-124436400D02*
X186216100Y-123717013D01*
D17*
G36*
X184734201Y-121058200D02*
G01*
X184353200Y-121058200D01*
X184353200Y-120804200D01*
X184734201Y-120804200D01*
X184734201Y-121058200D01*
G37*
D15*
X160800000Y-121312379D02*
X160800000Y-121647621D01*
X161560000Y-121312379D02*
X161560000Y-121647621D01*
X153335000Y-126422379D02*
X153335000Y-126757621D01*
X154095000Y-126422379D02*
X154095000Y-126757621D01*
X176640000Y-120138748D02*
X176640000Y-120661252D01*
X178060000Y-120138748D02*
X178060000Y-120661252D01*
D16*
X152127400Y-107520000D02*
X152127400Y-108241360D01*
X152127400Y-109338640D02*
X152127400Y-109511360D01*
X152127400Y-110608640D02*
X152127400Y-110781360D01*
X152127400Y-111878640D02*
X152127400Y-112051360D01*
X152127400Y-113148640D02*
X152127400Y-113870000D01*
X152127400Y-113870000D02*
X160484000Y-113870000D01*
X160484000Y-107520000D02*
X152127400Y-107520000D01*
X160484000Y-108241360D02*
X160484000Y-107520000D01*
X160484000Y-109511360D02*
X160484000Y-109338640D01*
X160484000Y-110781360D02*
X160484000Y-110608640D01*
X160484000Y-112051360D02*
X160484000Y-111878640D01*
X160484000Y-113870000D02*
X160484000Y-113148640D01*
X150730400Y-108790000D02*
G75*
G02*
X150527200Y-108790000I-101600J0D01*
G01*
X150527200Y-108790000D02*
G75*
G02*
X150730400Y-108790000I101600J0D01*
G01*
X182251600Y-117018900D02*
X186493400Y-117018900D01*
X186493400Y-111761100D02*
X182251600Y-111761100D01*
D15*
X179422500Y-126880121D02*
X179422500Y-126544879D01*
X180182500Y-126880121D02*
X180182500Y-126544879D01*
X181792500Y-126828335D02*
X181792500Y-126596665D01*
X182512500Y-126828335D02*
X182512500Y-126596665D01*
X159610000Y-121312379D02*
X159610000Y-121647621D01*
X160370000Y-121312379D02*
X160370000Y-121647621D01*
X180672500Y-129238335D02*
X180672500Y-129006665D01*
X181392500Y-129238335D02*
X181392500Y-129006665D01*
X153285000Y-133702379D02*
X153285000Y-134037621D01*
X154045000Y-133702379D02*
X154045000Y-134037621D01*
D16*
X160880018Y-132330350D02*
X160880018Y-133612852D01*
X160880018Y-137047851D02*
X160880018Y-139930350D01*
X160880018Y-139930350D02*
X179179982Y-139930350D01*
X163547018Y-129932351D02*
X164563018Y-131126151D01*
X163547018Y-129932351D02*
X165579018Y-129932351D01*
X163912511Y-132330350D02*
X160880018Y-132330350D01*
X165579018Y-129932351D02*
X164563018Y-131126151D01*
X179179982Y-132330350D02*
X176147512Y-132330350D01*
X179179982Y-133612852D02*
X179179982Y-132330350D01*
X179179982Y-139930350D02*
X179179982Y-137047851D01*
D15*
X184817500Y-101665000D02*
X184817500Y-103135000D01*
X184817500Y-103135000D02*
X187277500Y-103135000D01*
X187277500Y-101665000D02*
X184817500Y-101665000D01*
X186620121Y-104620000D02*
X186284879Y-104620000D01*
X186620121Y-105380000D02*
X186284879Y-105380000D01*
X158880000Y-116644165D02*
X158880000Y-116875835D01*
X159600000Y-116644165D02*
X159600000Y-116875835D01*
X186892500Y-129686665D02*
X186892500Y-129918335D01*
X187612500Y-129686665D02*
X187612500Y-129918335D01*
X187710000Y-109582379D02*
X187710000Y-109917621D01*
X188470000Y-109582379D02*
X188470000Y-109917621D01*
X180807500Y-101665000D02*
X180807500Y-103135000D01*
X180807500Y-103135000D02*
X183267500Y-103135000D01*
X183267500Y-101665000D02*
X180807500Y-101665000D01*
X153315000Y-136132379D02*
X153315000Y-136467621D01*
X154075000Y-136132379D02*
X154075000Y-136467621D01*
%LPC*%
D18*
X164361000Y-100401000D02*
X164393000Y-100403000D01*
X164424000Y-100407000D01*
X164455000Y-100413000D01*
X164485000Y-100420000D01*
X164515000Y-100429000D01*
X164545000Y-100440000D01*
X164574000Y-100452000D01*
X164602000Y-100465000D01*
X164630000Y-100480000D01*
X164657000Y-100497000D01*
X164683000Y-100515000D01*
X164708000Y-100534000D01*
X164731000Y-100554000D01*
X164754000Y-100576000D01*
X164776000Y-100599000D01*
X164796000Y-100622000D01*
X164815000Y-100647000D01*
X164833000Y-100673000D01*
X164850000Y-100700000D01*
X164865000Y-100728000D01*
X164878000Y-100756000D01*
X164890000Y-100785000D01*
X164901000Y-100815000D01*
X164910000Y-100845000D01*
X164917000Y-100875000D01*
X164923000Y-100906000D01*
X164927000Y-100937000D01*
X164929000Y-100969000D01*
X164930000Y-101000000D01*
X164930000Y-101600000D01*
X164930000Y-102200000D01*
X164929000Y-102231000D01*
X164927000Y-102263000D01*
X164923000Y-102294000D01*
X164917000Y-102325000D01*
X164910000Y-102355000D01*
X164901000Y-102385000D01*
X164890000Y-102415000D01*
X164878000Y-102444000D01*
X164865000Y-102472000D01*
X164850000Y-102500000D01*
X164833000Y-102527000D01*
X164815000Y-102553000D01*
X164796000Y-102578000D01*
X164776000Y-102601000D01*
X164754000Y-102624000D01*
X164731000Y-102646000D01*
X164708000Y-102666000D01*
X164683000Y-102685000D01*
X164657000Y-102703000D01*
X164630000Y-102720000D01*
X164602000Y-102735000D01*
X164574000Y-102748000D01*
X164545000Y-102760000D01*
X164515000Y-102771000D01*
X164485000Y-102780000D01*
X164455000Y-102787000D01*
X164424000Y-102793000D01*
X164393000Y-102797000D01*
X164361000Y-102799000D01*
X164330000Y-102800000D01*
X164299000Y-102799000D01*
X164267000Y-102797000D01*
X164236000Y-102793000D01*
X164205000Y-102787000D01*
X164175000Y-102780000D01*
X164145000Y-102771000D01*
X164115000Y-102760000D01*
X164086000Y-102748000D01*
X164058000Y-102735000D01*
X164030000Y-102720000D01*
X164003000Y-102703000D01*
X163977000Y-102685000D01*
X163952000Y-102666000D01*
X163929000Y-102646000D01*
X163906000Y-102624000D01*
X163884000Y-102601000D01*
X163864000Y-102578000D01*
X163845000Y-102553000D01*
X163827000Y-102527000D01*
X163810000Y-102500000D01*
X163795000Y-102472000D01*
X163782000Y-102444000D01*
X163770000Y-102415000D01*
X163759000Y-102385000D01*
X163750000Y-102355000D01*
X163743000Y-102325000D01*
X163737000Y-102294000D01*
X163733000Y-102263000D01*
X163731000Y-102231000D01*
X163730000Y-102200000D01*
X163730000Y-101600000D01*
X163730000Y-101000000D01*
X163731000Y-100969000D01*
X163733000Y-100937000D01*
X163737000Y-100906000D01*
X163743000Y-100875000D01*
X163750000Y-100845000D01*
X163759000Y-100815000D01*
X163770000Y-100785000D01*
X163782000Y-100756000D01*
X163795000Y-100728000D01*
X163810000Y-100700000D01*
X163827000Y-100673000D01*
X163845000Y-100647000D01*
X163864000Y-100622000D01*
X163884000Y-100599000D01*
X163906000Y-100576000D01*
X163929000Y-100554000D01*
X163952000Y-100534000D01*
X163977000Y-100515000D01*
X164003000Y-100497000D01*
X164030000Y-100480000D01*
X164058000Y-100465000D01*
X164086000Y-100452000D01*
X164115000Y-100440000D01*
X164145000Y-100429000D01*
X164175000Y-100420000D01*
X164205000Y-100413000D01*
X164236000Y-100407000D01*
X164267000Y-100403000D01*
X164299000Y-100401000D01*
X164330000Y-100400000D01*
X164361000Y-100401000D01*
G36*
X164361000Y-100401000D02*
G01*
X164393000Y-100403000D01*
X164424000Y-100407000D01*
X164455000Y-100413000D01*
X164485000Y-100420000D01*
X164515000Y-100429000D01*
X164545000Y-100440000D01*
X164574000Y-100452000D01*
X164602000Y-100465000D01*
X164630000Y-100480000D01*
X164657000Y-100497000D01*
X164683000Y-100515000D01*
X164708000Y-100534000D01*
X164731000Y-100554000D01*
X164754000Y-100576000D01*
X164776000Y-100599000D01*
X164796000Y-100622000D01*
X164815000Y-100647000D01*
X164833000Y-100673000D01*
X164850000Y-100700000D01*
X164865000Y-100728000D01*
X164878000Y-100756000D01*
X164890000Y-100785000D01*
X164901000Y-100815000D01*
X164910000Y-100845000D01*
X164917000Y-100875000D01*
X164923000Y-100906000D01*
X164927000Y-100937000D01*
X164929000Y-100969000D01*
X164930000Y-101000000D01*
X164930000Y-101600000D01*
X164930000Y-102200000D01*
X164929000Y-102231000D01*
X164927000Y-102263000D01*
X164923000Y-102294000D01*
X164917000Y-102325000D01*
X164910000Y-102355000D01*
X164901000Y-102385000D01*
X164890000Y-102415000D01*
X164878000Y-102444000D01*
X164865000Y-102472000D01*
X164850000Y-102500000D01*
X164833000Y-102527000D01*
X164815000Y-102553000D01*
X164796000Y-102578000D01*
X164776000Y-102601000D01*
X164754000Y-102624000D01*
X164731000Y-102646000D01*
X164708000Y-102666000D01*
X164683000Y-102685000D01*
X164657000Y-102703000D01*
X164630000Y-102720000D01*
X164602000Y-102735000D01*
X164574000Y-102748000D01*
X164545000Y-102760000D01*
X164515000Y-102771000D01*
X164485000Y-102780000D01*
X164455000Y-102787000D01*
X164424000Y-102793000D01*
X164393000Y-102797000D01*
X164361000Y-102799000D01*
X164330000Y-102800000D01*
X164299000Y-102799000D01*
X164267000Y-102797000D01*
X164236000Y-102793000D01*
X164205000Y-102787000D01*
X164175000Y-102780000D01*
X164145000Y-102771000D01*
X164115000Y-102760000D01*
X164086000Y-102748000D01*
X164058000Y-102735000D01*
X164030000Y-102720000D01*
X164003000Y-102703000D01*
X163977000Y-102685000D01*
X163952000Y-102666000D01*
X163929000Y-102646000D01*
X163906000Y-102624000D01*
X163884000Y-102601000D01*
X163864000Y-102578000D01*
X163845000Y-102553000D01*
X163827000Y-102527000D01*
X163810000Y-102500000D01*
X163795000Y-102472000D01*
X163782000Y-102444000D01*
X163770000Y-102415000D01*
X163759000Y-102385000D01*
X163750000Y-102355000D01*
X163743000Y-102325000D01*
X163737000Y-102294000D01*
X163733000Y-102263000D01*
X163731000Y-102231000D01*
X163730000Y-102200000D01*
X163730000Y-101600000D01*
X163730000Y-101000000D01*
X163731000Y-100969000D01*
X163733000Y-100937000D01*
X163737000Y-100906000D01*
X163743000Y-100875000D01*
X163750000Y-100845000D01*
X163759000Y-100815000D01*
X163770000Y-100785000D01*
X163782000Y-100756000D01*
X163795000Y-100728000D01*
X163810000Y-100700000D01*
X163827000Y-100673000D01*
X163845000Y-100647000D01*
X163864000Y-100622000D01*
X163884000Y-100599000D01*
X163906000Y-100576000D01*
X163929000Y-100554000D01*
X163952000Y-100534000D01*
X163977000Y-100515000D01*
X164003000Y-100497000D01*
X164030000Y-100480000D01*
X164058000Y-100465000D01*
X164086000Y-100452000D01*
X164115000Y-100440000D01*
X164145000Y-100429000D01*
X164175000Y-100420000D01*
X164205000Y-100413000D01*
X164236000Y-100407000D01*
X164267000Y-100403000D01*
X164299000Y-100401000D01*
X164330000Y-100400000D01*
X164361000Y-100401000D01*
G37*
X175601000Y-104601000D02*
X175633000Y-104603000D01*
X175664000Y-104607000D01*
X175695000Y-104613000D01*
X175725000Y-104620000D01*
X175755000Y-104629000D01*
X175785000Y-104640000D01*
X175814000Y-104652000D01*
X175842000Y-104665000D01*
X175870000Y-104680000D01*
X175897000Y-104697000D01*
X175923000Y-104715000D01*
X175948000Y-104734000D01*
X175971000Y-104754000D01*
X175994000Y-104776000D01*
X176016000Y-104799000D01*
X176036000Y-104822000D01*
X176055000Y-104847000D01*
X176073000Y-104873000D01*
X176090000Y-104900000D01*
X176105000Y-104928000D01*
X176118000Y-104956000D01*
X176130000Y-104985000D01*
X176141000Y-105015000D01*
X176150000Y-105045000D01*
X176157000Y-105075000D01*
X176163000Y-105106000D01*
X176167000Y-105137000D01*
X176169000Y-105169000D01*
X176170000Y-105200000D01*
X176170000Y-106000000D01*
X176169000Y-106031000D01*
X176167000Y-106063000D01*
X176163000Y-106094000D01*
X176157000Y-106125000D01*
X176150000Y-106155000D01*
X176141000Y-106185000D01*
X176130000Y-106215000D01*
X176118000Y-106244000D01*
X176105000Y-106272000D01*
X176090000Y-106300000D01*
X176073000Y-106327000D01*
X176055000Y-106353000D01*
X176036000Y-106378000D01*
X176016000Y-106401000D01*
X175994000Y-106424000D01*
X175971000Y-106446000D01*
X175948000Y-106466000D01*
X175923000Y-106485000D01*
X175897000Y-106503000D01*
X175870000Y-106520000D01*
X175842000Y-106535000D01*
X175814000Y-106548000D01*
X175785000Y-106560000D01*
X175755000Y-106571000D01*
X175725000Y-106580000D01*
X175695000Y-106587000D01*
X175664000Y-106593000D01*
X175633000Y-106597000D01*
X175601000Y-106599000D01*
X175570000Y-106600000D01*
X175539000Y-106599000D01*
X175507000Y-106597000D01*
X175476000Y-106593000D01*
X175445000Y-106587000D01*
X175415000Y-106580000D01*
X175385000Y-106571000D01*
X175355000Y-106560000D01*
X175326000Y-106548000D01*
X175298000Y-106535000D01*
X175270000Y-106520000D01*
X175243000Y-106503000D01*
X175217000Y-106485000D01*
X175192000Y-106466000D01*
X175169000Y-106446000D01*
X175146000Y-106424000D01*
X175124000Y-106401000D01*
X175104000Y-106378000D01*
X175085000Y-106353000D01*
X175067000Y-106327000D01*
X175050000Y-106300000D01*
X175035000Y-106272000D01*
X175022000Y-106244000D01*
X175010000Y-106215000D01*
X174999000Y-106185000D01*
X174990000Y-106155000D01*
X174983000Y-106125000D01*
X174977000Y-106094000D01*
X174973000Y-106063000D01*
X174971000Y-106031000D01*
X174970000Y-106000000D01*
X174970000Y-105200000D01*
X174971000Y-105169000D01*
X174973000Y-105137000D01*
X174977000Y-105106000D01*
X174983000Y-105075000D01*
X174990000Y-105045000D01*
X174999000Y-105015000D01*
X175010000Y-104985000D01*
X175022000Y-104956000D01*
X175035000Y-104928000D01*
X175050000Y-104900000D01*
X175067000Y-104873000D01*
X175085000Y-104847000D01*
X175104000Y-104822000D01*
X175124000Y-104799000D01*
X175146000Y-104776000D01*
X175169000Y-104754000D01*
X175192000Y-104734000D01*
X175217000Y-104715000D01*
X175243000Y-104697000D01*
X175270000Y-104680000D01*
X175298000Y-104665000D01*
X175326000Y-104652000D01*
X175355000Y-104640000D01*
X175385000Y-104629000D01*
X175415000Y-104620000D01*
X175445000Y-104613000D01*
X175476000Y-104607000D01*
X175507000Y-104603000D01*
X175539000Y-104601000D01*
X175570000Y-104600000D01*
X175601000Y-104601000D01*
G36*
X175601000Y-104601000D02*
G01*
X175633000Y-104603000D01*
X175664000Y-104607000D01*
X175695000Y-104613000D01*
X175725000Y-104620000D01*
X175755000Y-104629000D01*
X175785000Y-104640000D01*
X175814000Y-104652000D01*
X175842000Y-104665000D01*
X175870000Y-104680000D01*
X175897000Y-104697000D01*
X175923000Y-104715000D01*
X175948000Y-104734000D01*
X175971000Y-104754000D01*
X175994000Y-104776000D01*
X176016000Y-104799000D01*
X176036000Y-104822000D01*
X176055000Y-104847000D01*
X176073000Y-104873000D01*
X176090000Y-104900000D01*
X176105000Y-104928000D01*
X176118000Y-104956000D01*
X176130000Y-104985000D01*
X176141000Y-105015000D01*
X176150000Y-105045000D01*
X176157000Y-105075000D01*
X176163000Y-105106000D01*
X176167000Y-105137000D01*
X176169000Y-105169000D01*
X176170000Y-105200000D01*
X176170000Y-106000000D01*
X176169000Y-106031000D01*
X176167000Y-106063000D01*
X176163000Y-106094000D01*
X176157000Y-106125000D01*
X176150000Y-106155000D01*
X176141000Y-106185000D01*
X176130000Y-106215000D01*
X176118000Y-106244000D01*
X176105000Y-106272000D01*
X176090000Y-106300000D01*
X176073000Y-106327000D01*
X176055000Y-106353000D01*
X176036000Y-106378000D01*
X176016000Y-106401000D01*
X175994000Y-106424000D01*
X175971000Y-106446000D01*
X175948000Y-106466000D01*
X175923000Y-106485000D01*
X175897000Y-106503000D01*
X175870000Y-106520000D01*
X175842000Y-106535000D01*
X175814000Y-106548000D01*
X175785000Y-106560000D01*
X175755000Y-106571000D01*
X175725000Y-106580000D01*
X175695000Y-106587000D01*
X175664000Y-106593000D01*
X175633000Y-106597000D01*
X175601000Y-106599000D01*
X175570000Y-106600000D01*
X175539000Y-106599000D01*
X175507000Y-106597000D01*
X175476000Y-106593000D01*
X175445000Y-106587000D01*
X175415000Y-106580000D01*
X175385000Y-106571000D01*
X175355000Y-106560000D01*
X175326000Y-106548000D01*
X175298000Y-106535000D01*
X175270000Y-106520000D01*
X175243000Y-106503000D01*
X175217000Y-106485000D01*
X175192000Y-106466000D01*
X175169000Y-106446000D01*
X175146000Y-106424000D01*
X175124000Y-106401000D01*
X175104000Y-106378000D01*
X175085000Y-106353000D01*
X175067000Y-106327000D01*
X175050000Y-106300000D01*
X175035000Y-106272000D01*
X175022000Y-106244000D01*
X175010000Y-106215000D01*
X174999000Y-106185000D01*
X174990000Y-106155000D01*
X174983000Y-106125000D01*
X174977000Y-106094000D01*
X174973000Y-106063000D01*
X174971000Y-106031000D01*
X174970000Y-106000000D01*
X174970000Y-105200000D01*
X174971000Y-105169000D01*
X174973000Y-105137000D01*
X174977000Y-105106000D01*
X174983000Y-105075000D01*
X174990000Y-105045000D01*
X174999000Y-105015000D01*
X175010000Y-104985000D01*
X175022000Y-104956000D01*
X175035000Y-104928000D01*
X175050000Y-104900000D01*
X175067000Y-104873000D01*
X175085000Y-104847000D01*
X175104000Y-104822000D01*
X175124000Y-104799000D01*
X175146000Y-104776000D01*
X175169000Y-104754000D01*
X175192000Y-104734000D01*
X175217000Y-104715000D01*
X175243000Y-104697000D01*
X175270000Y-104680000D01*
X175298000Y-104665000D01*
X175326000Y-104652000D01*
X175355000Y-104640000D01*
X175385000Y-104629000D01*
X175415000Y-104620000D01*
X175445000Y-104613000D01*
X175476000Y-104607000D01*
X175507000Y-104603000D01*
X175539000Y-104601000D01*
X175570000Y-104600000D01*
X175601000Y-104601000D01*
G37*
X175601000Y-100401000D02*
X175633000Y-100403000D01*
X175664000Y-100407000D01*
X175695000Y-100413000D01*
X175725000Y-100420000D01*
X175755000Y-100429000D01*
X175785000Y-100440000D01*
X175814000Y-100452000D01*
X175842000Y-100465000D01*
X175870000Y-100480000D01*
X175897000Y-100497000D01*
X175923000Y-100515000D01*
X175948000Y-100534000D01*
X175971000Y-100554000D01*
X175994000Y-100576000D01*
X176016000Y-100599000D01*
X176036000Y-100622000D01*
X176055000Y-100647000D01*
X176073000Y-100673000D01*
X176090000Y-100700000D01*
X176105000Y-100728000D01*
X176118000Y-100756000D01*
X176130000Y-100785000D01*
X176141000Y-100815000D01*
X176150000Y-100845000D01*
X176157000Y-100875000D01*
X176163000Y-100906000D01*
X176167000Y-100937000D01*
X176169000Y-100969000D01*
X176170000Y-101000000D01*
X176170000Y-102200000D01*
X176169000Y-102231000D01*
X176167000Y-102263000D01*
X176163000Y-102294000D01*
X176157000Y-102325000D01*
X176150000Y-102355000D01*
X176141000Y-102385000D01*
X176130000Y-102415000D01*
X176118000Y-102444000D01*
X176105000Y-102472000D01*
X176090000Y-102500000D01*
X176073000Y-102527000D01*
X176055000Y-102553000D01*
X176036000Y-102578000D01*
X176016000Y-102601000D01*
X175994000Y-102624000D01*
X175971000Y-102646000D01*
X175948000Y-102666000D01*
X175923000Y-102685000D01*
X175897000Y-102703000D01*
X175870000Y-102720000D01*
X175842000Y-102735000D01*
X175814000Y-102748000D01*
X175785000Y-102760000D01*
X175755000Y-102771000D01*
X175725000Y-102780000D01*
X175695000Y-102787000D01*
X175664000Y-102793000D01*
X175633000Y-102797000D01*
X175601000Y-102799000D01*
X175570000Y-102800000D01*
X175539000Y-102799000D01*
X175507000Y-102797000D01*
X175476000Y-102793000D01*
X175445000Y-102787000D01*
X175415000Y-102780000D01*
X175385000Y-102771000D01*
X175355000Y-102760000D01*
X175326000Y-102748000D01*
X175298000Y-102735000D01*
X175270000Y-102720000D01*
X175243000Y-102703000D01*
X175217000Y-102685000D01*
X175192000Y-102666000D01*
X175169000Y-102646000D01*
X175146000Y-102624000D01*
X175124000Y-102601000D01*
X175104000Y-102578000D01*
X175085000Y-102553000D01*
X175067000Y-102527000D01*
X175050000Y-102500000D01*
X175035000Y-102472000D01*
X175022000Y-102444000D01*
X175010000Y-102415000D01*
X174999000Y-102385000D01*
X174990000Y-102355000D01*
X174983000Y-102325000D01*
X174977000Y-102294000D01*
X174973000Y-102263000D01*
X174971000Y-102231000D01*
X174970000Y-102200000D01*
X174970000Y-101000000D01*
X174971000Y-100969000D01*
X174973000Y-100937000D01*
X174977000Y-100906000D01*
X174983000Y-100875000D01*
X174990000Y-100845000D01*
X174999000Y-100815000D01*
X175010000Y-100785000D01*
X175022000Y-100756000D01*
X175035000Y-100728000D01*
X175050000Y-100700000D01*
X175067000Y-100673000D01*
X175085000Y-100647000D01*
X175104000Y-100622000D01*
X175124000Y-100599000D01*
X175146000Y-100576000D01*
X175169000Y-100554000D01*
X175192000Y-100534000D01*
X175217000Y-100515000D01*
X175243000Y-100497000D01*
X175270000Y-100480000D01*
X175298000Y-100465000D01*
X175326000Y-100452000D01*
X175355000Y-100440000D01*
X175385000Y-100429000D01*
X175415000Y-100420000D01*
X175445000Y-100413000D01*
X175476000Y-100407000D01*
X175507000Y-100403000D01*
X175539000Y-100401000D01*
X175570000Y-100400000D01*
X175601000Y-100401000D01*
G36*
X175601000Y-100401000D02*
G01*
X175633000Y-100403000D01*
X175664000Y-100407000D01*
X175695000Y-100413000D01*
X175725000Y-100420000D01*
X175755000Y-100429000D01*
X175785000Y-100440000D01*
X175814000Y-100452000D01*
X175842000Y-100465000D01*
X175870000Y-100480000D01*
X175897000Y-100497000D01*
X175923000Y-100515000D01*
X175948000Y-100534000D01*
X175971000Y-100554000D01*
X175994000Y-100576000D01*
X176016000Y-100599000D01*
X176036000Y-100622000D01*
X176055000Y-100647000D01*
X176073000Y-100673000D01*
X176090000Y-100700000D01*
X176105000Y-100728000D01*
X176118000Y-100756000D01*
X176130000Y-100785000D01*
X176141000Y-100815000D01*
X176150000Y-100845000D01*
X176157000Y-100875000D01*
X176163000Y-100906000D01*
X176167000Y-100937000D01*
X176169000Y-100969000D01*
X176170000Y-101000000D01*
X176170000Y-102200000D01*
X176169000Y-102231000D01*
X176167000Y-102263000D01*
X176163000Y-102294000D01*
X176157000Y-102325000D01*
X176150000Y-102355000D01*
X176141000Y-102385000D01*
X176130000Y-102415000D01*
X176118000Y-102444000D01*
X176105000Y-102472000D01*
X176090000Y-102500000D01*
X176073000Y-102527000D01*
X176055000Y-102553000D01*
X176036000Y-102578000D01*
X176016000Y-102601000D01*
X175994000Y-102624000D01*
X175971000Y-102646000D01*
X175948000Y-102666000D01*
X175923000Y-102685000D01*
X175897000Y-102703000D01*
X175870000Y-102720000D01*
X175842000Y-102735000D01*
X175814000Y-102748000D01*
X175785000Y-102760000D01*
X175755000Y-102771000D01*
X175725000Y-102780000D01*
X175695000Y-102787000D01*
X175664000Y-102793000D01*
X175633000Y-102797000D01*
X175601000Y-102799000D01*
X175570000Y-102800000D01*
X175539000Y-102799000D01*
X175507000Y-102797000D01*
X175476000Y-102793000D01*
X175445000Y-102787000D01*
X175415000Y-102780000D01*
X175385000Y-102771000D01*
X175355000Y-102760000D01*
X175326000Y-102748000D01*
X175298000Y-102735000D01*
X175270000Y-102720000D01*
X175243000Y-102703000D01*
X175217000Y-102685000D01*
X175192000Y-102666000D01*
X175169000Y-102646000D01*
X175146000Y-102624000D01*
X175124000Y-102601000D01*
X175104000Y-102578000D01*
X175085000Y-102553000D01*
X175067000Y-102527000D01*
X175050000Y-102500000D01*
X175035000Y-102472000D01*
X175022000Y-102444000D01*
X175010000Y-102415000D01*
X174999000Y-102385000D01*
X174990000Y-102355000D01*
X174983000Y-102325000D01*
X174977000Y-102294000D01*
X174973000Y-102263000D01*
X174971000Y-102231000D01*
X174970000Y-102200000D01*
X174970000Y-101000000D01*
X174971000Y-100969000D01*
X174973000Y-100937000D01*
X174977000Y-100906000D01*
X174983000Y-100875000D01*
X174990000Y-100845000D01*
X174999000Y-100815000D01*
X175010000Y-100785000D01*
X175022000Y-100756000D01*
X175035000Y-100728000D01*
X175050000Y-100700000D01*
X175067000Y-100673000D01*
X175085000Y-100647000D01*
X175104000Y-100622000D01*
X175124000Y-100599000D01*
X175146000Y-100576000D01*
X175169000Y-100554000D01*
X175192000Y-100534000D01*
X175217000Y-100515000D01*
X175243000Y-100497000D01*
X175270000Y-100480000D01*
X175298000Y-100465000D01*
X175326000Y-100452000D01*
X175355000Y-100440000D01*
X175385000Y-100429000D01*
X175415000Y-100420000D01*
X175445000Y-100413000D01*
X175476000Y-100407000D01*
X175507000Y-100403000D01*
X175539000Y-100401000D01*
X175570000Y-100400000D01*
X175601000Y-100401000D01*
G37*
X164361000Y-104601000D02*
X164393000Y-104603000D01*
X164424000Y-104607000D01*
X164455000Y-104613000D01*
X164485000Y-104620000D01*
X164515000Y-104629000D01*
X164545000Y-104640000D01*
X164574000Y-104652000D01*
X164602000Y-104665000D01*
X164630000Y-104680000D01*
X164657000Y-104697000D01*
X164683000Y-104715000D01*
X164708000Y-104734000D01*
X164731000Y-104754000D01*
X164754000Y-104776000D01*
X164776000Y-104799000D01*
X164796000Y-104822000D01*
X164815000Y-104847000D01*
X164833000Y-104873000D01*
X164850000Y-104900000D01*
X164865000Y-104928000D01*
X164878000Y-104956000D01*
X164890000Y-104985000D01*
X164901000Y-105015000D01*
X164910000Y-105045000D01*
X164917000Y-105075000D01*
X164923000Y-105106000D01*
X164927000Y-105137000D01*
X164929000Y-105169000D01*
X164930000Y-105200000D01*
X164930000Y-106000000D01*
X164929000Y-106031000D01*
X164927000Y-106063000D01*
X164923000Y-106094000D01*
X164917000Y-106125000D01*
X164910000Y-106155000D01*
X164901000Y-106185000D01*
X164890000Y-106215000D01*
X164878000Y-106244000D01*
X164865000Y-106272000D01*
X164850000Y-106300000D01*
X164833000Y-106327000D01*
X164815000Y-106353000D01*
X164796000Y-106378000D01*
X164776000Y-106401000D01*
X164754000Y-106424000D01*
X164731000Y-106446000D01*
X164708000Y-106466000D01*
X164683000Y-106485000D01*
X164657000Y-106503000D01*
X164630000Y-106520000D01*
X164602000Y-106535000D01*
X164574000Y-106548000D01*
X164545000Y-106560000D01*
X164515000Y-106571000D01*
X164485000Y-106580000D01*
X164455000Y-106587000D01*
X164424000Y-106593000D01*
X164393000Y-106597000D01*
X164361000Y-106599000D01*
X164330000Y-106600000D01*
X164299000Y-106599000D01*
X164267000Y-106597000D01*
X164236000Y-106593000D01*
X164205000Y-106587000D01*
X164175000Y-106580000D01*
X164145000Y-106571000D01*
X164115000Y-106560000D01*
X164086000Y-106548000D01*
X164058000Y-106535000D01*
X164030000Y-106520000D01*
X164003000Y-106503000D01*
X163977000Y-106485000D01*
X163952000Y-106466000D01*
X163929000Y-106446000D01*
X163906000Y-106424000D01*
X163884000Y-106401000D01*
X163864000Y-106378000D01*
X163845000Y-106353000D01*
X163827000Y-106327000D01*
X163810000Y-106300000D01*
X163795000Y-106272000D01*
X163782000Y-106244000D01*
X163770000Y-106215000D01*
X163759000Y-106185000D01*
X163750000Y-106155000D01*
X163743000Y-106125000D01*
X163737000Y-106094000D01*
X163733000Y-106063000D01*
X163731000Y-106031000D01*
X163730000Y-106000000D01*
X163730000Y-105200000D01*
X163731000Y-105169000D01*
X163733000Y-105137000D01*
X163737000Y-105106000D01*
X163743000Y-105075000D01*
X163750000Y-105045000D01*
X163759000Y-105015000D01*
X163770000Y-104985000D01*
X163782000Y-104956000D01*
X163795000Y-104928000D01*
X163810000Y-104900000D01*
X163827000Y-104873000D01*
X163845000Y-104847000D01*
X163864000Y-104822000D01*
X163884000Y-104799000D01*
X163906000Y-104776000D01*
X163929000Y-104754000D01*
X163952000Y-104734000D01*
X163977000Y-104715000D01*
X164003000Y-104697000D01*
X164030000Y-104680000D01*
X164058000Y-104665000D01*
X164086000Y-104652000D01*
X164115000Y-104640000D01*
X164145000Y-104629000D01*
X164175000Y-104620000D01*
X164205000Y-104613000D01*
X164236000Y-104607000D01*
X164267000Y-104603000D01*
X164299000Y-104601000D01*
X164330000Y-104600000D01*
X164361000Y-104601000D01*
G36*
X164361000Y-104601000D02*
G01*
X164393000Y-104603000D01*
X164424000Y-104607000D01*
X164455000Y-104613000D01*
X164485000Y-104620000D01*
X164515000Y-104629000D01*
X164545000Y-104640000D01*
X164574000Y-104652000D01*
X164602000Y-104665000D01*
X164630000Y-104680000D01*
X164657000Y-104697000D01*
X164683000Y-104715000D01*
X164708000Y-104734000D01*
X164731000Y-104754000D01*
X164754000Y-104776000D01*
X164776000Y-104799000D01*
X164796000Y-104822000D01*
X164815000Y-104847000D01*
X164833000Y-104873000D01*
X164850000Y-104900000D01*
X164865000Y-104928000D01*
X164878000Y-104956000D01*
X164890000Y-104985000D01*
X164901000Y-105015000D01*
X164910000Y-105045000D01*
X164917000Y-105075000D01*
X164923000Y-105106000D01*
X164927000Y-105137000D01*
X164929000Y-105169000D01*
X164930000Y-105200000D01*
X164930000Y-106000000D01*
X164929000Y-106031000D01*
X164927000Y-106063000D01*
X164923000Y-106094000D01*
X164917000Y-106125000D01*
X164910000Y-106155000D01*
X164901000Y-106185000D01*
X164890000Y-106215000D01*
X164878000Y-106244000D01*
X164865000Y-106272000D01*
X164850000Y-106300000D01*
X164833000Y-106327000D01*
X164815000Y-106353000D01*
X164796000Y-106378000D01*
X164776000Y-106401000D01*
X164754000Y-106424000D01*
X164731000Y-106446000D01*
X164708000Y-106466000D01*
X164683000Y-106485000D01*
X164657000Y-106503000D01*
X164630000Y-106520000D01*
X164602000Y-106535000D01*
X164574000Y-106548000D01*
X164545000Y-106560000D01*
X164515000Y-106571000D01*
X164485000Y-106580000D01*
X164455000Y-106587000D01*
X164424000Y-106593000D01*
X164393000Y-106597000D01*
X164361000Y-106599000D01*
X164330000Y-106600000D01*
X164299000Y-106599000D01*
X164267000Y-106597000D01*
X164236000Y-106593000D01*
X164205000Y-106587000D01*
X164175000Y-106580000D01*
X164145000Y-106571000D01*
X164115000Y-106560000D01*
X164086000Y-106548000D01*
X164058000Y-106535000D01*
X164030000Y-106520000D01*
X164003000Y-106503000D01*
X163977000Y-106485000D01*
X163952000Y-106466000D01*
X163929000Y-106446000D01*
X163906000Y-106424000D01*
X163884000Y-106401000D01*
X163864000Y-106378000D01*
X163845000Y-106353000D01*
X163827000Y-106327000D01*
X163810000Y-106300000D01*
X163795000Y-106272000D01*
X163782000Y-106244000D01*
X163770000Y-106215000D01*
X163759000Y-106185000D01*
X163750000Y-106155000D01*
X163743000Y-106125000D01*
X163737000Y-106094000D01*
X163733000Y-106063000D01*
X163731000Y-106031000D01*
X163730000Y-106000000D01*
X163730000Y-105200000D01*
X163731000Y-105169000D01*
X163733000Y-105137000D01*
X163737000Y-105106000D01*
X163743000Y-105075000D01*
X163750000Y-105045000D01*
X163759000Y-105015000D01*
X163770000Y-104985000D01*
X163782000Y-104956000D01*
X163795000Y-104928000D01*
X163810000Y-104900000D01*
X163827000Y-104873000D01*
X163845000Y-104847000D01*
X163864000Y-104822000D01*
X163884000Y-104799000D01*
X163906000Y-104776000D01*
X163929000Y-104754000D01*
X163952000Y-104734000D01*
X163977000Y-104715000D01*
X164003000Y-104697000D01*
X164030000Y-104680000D01*
X164058000Y-104665000D01*
X164086000Y-104652000D01*
X164115000Y-104640000D01*
X164145000Y-104629000D01*
X164175000Y-104620000D01*
X164205000Y-104613000D01*
X164236000Y-104607000D01*
X164267000Y-104603000D01*
X164299000Y-104601000D01*
X164330000Y-104600000D01*
X164361000Y-104601000D01*
G37*
D19*
X171700000Y-106750000D03*
X170700000Y-106750000D03*
X169200000Y-106750000D03*
X168200000Y-106750000D03*
D20*
X167550000Y-106750000D03*
X166750000Y-106750000D03*
D19*
X168700000Y-106750000D03*
X169700000Y-106750000D03*
X170200000Y-106750000D03*
X171200000Y-106750000D03*
D20*
X172350000Y-106750000D03*
X173150000Y-106750000D03*
D21*
X183347500Y-107350000D03*
X183347500Y-107750000D03*
X183347500Y-108150000D03*
X183347500Y-108550000D03*
X183347500Y-108950000D03*
X185317500Y-108950000D03*
X185317500Y-108550000D03*
X185317500Y-108150000D03*
X185317500Y-107750000D03*
X185317500Y-107350000D03*
D22*
X184332500Y-108150000D03*
D23*
X177312500Y-122770000D03*
X178447500Y-122770000D03*
D24*
X156000000Y-131240500D03*
D25*
X156000000Y-132070000D03*
X156000000Y-132570000D03*
D24*
X156000000Y-133399500D03*
X157270000Y-133399500D03*
D25*
X157270000Y-132570000D03*
X157270000Y-132070000D03*
D24*
X157270000Y-131240500D03*
D26*
X185840000Y-118520000D03*
X183040000Y-118520000D03*
D27*
X166112500Y-116800000D03*
X166112500Y-117200000D03*
X166112500Y-117600000D03*
X166112500Y-118000000D03*
X166112500Y-118400000D03*
X166112500Y-118800000D03*
X166112500Y-119200000D03*
X166112500Y-119600000D03*
X166112500Y-120000000D03*
X166112500Y-120400000D03*
X166112500Y-120800000D03*
X166112500Y-121200000D03*
X166112500Y-121600000D03*
X166112500Y-122000000D03*
X166112500Y-122400000D03*
X166112500Y-122800000D03*
X166112500Y-123200000D03*
D28*
X166800000Y-123887500D03*
X167200000Y-123887500D03*
X167600000Y-123887500D03*
X168000000Y-123887500D03*
X168400000Y-123887500D03*
X168800000Y-123887500D03*
X169200000Y-123887500D03*
X169600000Y-123887500D03*
X170000000Y-123887500D03*
X170400000Y-123887500D03*
X170800000Y-123887500D03*
X171200000Y-123887500D03*
X171600000Y-123887500D03*
X172000000Y-123887500D03*
X172400000Y-123887500D03*
X172800000Y-123887500D03*
X173200000Y-123887500D03*
D27*
X173887500Y-123200000D03*
X173887500Y-122800000D03*
X173887500Y-122400000D03*
X173887500Y-122000000D03*
X173887500Y-121600000D03*
X173887500Y-121200000D03*
X173887500Y-120800000D03*
X173887500Y-120400000D03*
X173887500Y-120000000D03*
X173887500Y-119600000D03*
X173887500Y-119200000D03*
X173887500Y-118800000D03*
X173887500Y-118400000D03*
X173887500Y-118000000D03*
X173887500Y-117600000D03*
X173887500Y-117200000D03*
X173887500Y-116800000D03*
D28*
X173200000Y-116112500D03*
X172800000Y-116112500D03*
X172400000Y-116112500D03*
X172000000Y-116112500D03*
X171600000Y-116112500D03*
X171200000Y-116112500D03*
X170800000Y-116112500D03*
X170400000Y-116112500D03*
X170000000Y-116112500D03*
X169600000Y-116112500D03*
X169200000Y-116112500D03*
X168800000Y-116112500D03*
X168400000Y-116112500D03*
X168000000Y-116112500D03*
X167600000Y-116112500D03*
X167200000Y-116112500D03*
X166800000Y-116112500D03*
D29*
X170000000Y-120000000D03*
D30*
X182460000Y-121542500D03*
X182460000Y-122737500D03*
X153695000Y-130842500D03*
X153695000Y-132037500D03*
D31*
X159240000Y-119597500D03*
X159240000Y-118462500D03*
D30*
X180950000Y-121542500D03*
X180950000Y-122737500D03*
D32*
X174688440Y-125723744D03*
X176491561Y-125476256D03*
X175713745Y-124698440D03*
D33*
X184005000Y-133190000D03*
X184005000Y-134140000D03*
X184005000Y-135090000D03*
X186280000Y-135090000D03*
X186280000Y-133190000D03*
D24*
X156000000Y-136360500D03*
D25*
X156000000Y-137190000D03*
X156000000Y-137690000D03*
D24*
X156000000Y-138519500D03*
X157270000Y-138519500D03*
D25*
X157270000Y-137690000D03*
X157270000Y-137190000D03*
D24*
X157270000Y-136360500D03*
D33*
X183995000Y-125760000D03*
X183995000Y-126710000D03*
X183995000Y-127660000D03*
X186270000Y-127660000D03*
X186270000Y-125760000D03*
D34*
X178732500Y-114152500D03*
X178732500Y-117127500D03*
D30*
X183852500Y-129205000D03*
X183852500Y-130400000D03*
X178270000Y-110242500D03*
X178270000Y-111437500D03*
D35*
X168960000Y-112110000D03*
X163880000Y-113126000D03*
X163880000Y-111094000D03*
D36*
X167690000Y-111475000D03*
X167690000Y-112745000D03*
X166420000Y-111475000D03*
X166420000Y-112745000D03*
X165150000Y-111475000D03*
X165150000Y-112745000D03*
D37*
X183060000Y-105000000D03*
X181865000Y-105000000D03*
D38*
X161160000Y-116580000D03*
X161160000Y-119280000D03*
D39*
X184043699Y-123970300D03*
X184543700Y-123970300D03*
X185043700Y-123970300D03*
X185543701Y-123970300D03*
D40*
X185750000Y-123259999D03*
X185750000Y-122760000D03*
X185750000Y-122260001D03*
D39*
X185543701Y-121549700D03*
X185043700Y-121549700D03*
X184543700Y-121549700D03*
X184043699Y-121549700D03*
D40*
X183837400Y-122260001D03*
X183837400Y-122760000D03*
X183837400Y-123259999D03*
D30*
X161180000Y-120882500D03*
X161180000Y-122077500D03*
X153715000Y-125992500D03*
X153715000Y-127187500D03*
D41*
X177350000Y-119375000D03*
X177350000Y-121425000D03*
D42*
X152381400Y-108790000D03*
X152381400Y-110060000D03*
X152381400Y-111330000D03*
X152381400Y-112600000D03*
X160230000Y-112600000D03*
X160230000Y-111330000D03*
X160230000Y-110060000D03*
X160230000Y-108790000D03*
D43*
X156305700Y-110695000D03*
D44*
X181648350Y-112485000D03*
X181648350Y-113755000D03*
X181648350Y-115025000D03*
X181648350Y-116295000D03*
X187096650Y-116295000D03*
X187096650Y-115025000D03*
X187096650Y-113755000D03*
X187096650Y-112485000D03*
D45*
X179802500Y-127310000D03*
X179802500Y-126115000D03*
D24*
X156005000Y-120691000D03*
D25*
X156005000Y-121520500D03*
X156005000Y-122020500D03*
D24*
X156005000Y-122850000D03*
X157275000Y-122850000D03*
D25*
X157275000Y-122020500D03*
X157275000Y-121520500D03*
D24*
X157275000Y-120691000D03*
D31*
X182152500Y-127280000D03*
X182152500Y-126145000D03*
D30*
X159990000Y-120882500D03*
X159990000Y-122077500D03*
D31*
X181032500Y-129690000D03*
X181032500Y-128555000D03*
D30*
X153665000Y-133272500D03*
X153665000Y-134467500D03*
D46*
X164530011Y-132980351D03*
X165530012Y-132980351D03*
X166530012Y-132980351D03*
X167530010Y-132980351D03*
X168530011Y-132980351D03*
X169530011Y-132980351D03*
X170530012Y-132980351D03*
X171530010Y-132980351D03*
X172530010Y-132980351D03*
X173530011Y-132980351D03*
X174530011Y-132980351D03*
X175530012Y-132980351D03*
D47*
X161380011Y-135330352D03*
X178679989Y-135330352D03*
D48*
X185602500Y-102400000D03*
X187352500Y-102400000D03*
D24*
X156000000Y-125910500D03*
D25*
X156000000Y-126740000D03*
X156000000Y-127240000D03*
D24*
X156000000Y-128069500D03*
X157270000Y-128069500D03*
D25*
X157270000Y-127240000D03*
X157270000Y-126740000D03*
D24*
X157270000Y-125910500D03*
D37*
X187050000Y-105000000D03*
X185855000Y-105000000D03*
D49*
X159240000Y-116192500D03*
X159240000Y-117327500D03*
X187252500Y-129235000D03*
X187252500Y-130370000D03*
D30*
X188090000Y-109152500D03*
X188090000Y-110347500D03*
D48*
X181592500Y-102400000D03*
X183342500Y-102400000D03*
D30*
X153695000Y-135702500D03*
X153695000Y-136897500D03*
%LPD*%
M02*
