G04 #@! TF.GenerationSoftware,KiCad,Pcbnew,8.0.4*
G04 #@! TF.CreationDate,2024-10-04T10:02:04-04:00*
G04 #@! TF.ProjectId,BlueSTM32,426c7565-5354-44d3-9332-2e6b69636164,rev?*
G04 #@! TF.SameCoordinates,Original*
G04 #@! TF.FileFunction,Copper,L2,Inr*
G04 #@! TF.FilePolarity,Positive*
%FSLAX46Y46*%
G04 Gerber Fmt 4.6, Leading zero omitted, Abs format (unit mm)*
G04 Created by KiCad (PCBNEW 8.0.4) date 2024-10-04 10:02:04*
%MOMM*%
%LPD*%
G01*
G04 APERTURE LIST*
G04 #@! TA.AperFunction,ComponentPad*
%ADD10O,1.000000X2.500000*%
G04 #@! TD*
G04 #@! TA.AperFunction,ViaPad*
%ADD11C,0.500000*%
G04 #@! TD*
G04 #@! TA.AperFunction,ViaPad*
%ADD12C,0.600000*%
G04 #@! TD*
G04 APERTURE END LIST*
D10*
X164330000Y-101600000D03*
X175570000Y-105600000D03*
X164330000Y-105600000D03*
X175570000Y-101600000D03*
D11*
X169676600Y-108240000D03*
X169230000Y-109070000D03*
X167960000Y-109190000D03*
X170167900Y-109360000D03*
X170732100Y-108710000D03*
D12*
X160590000Y-120490000D03*
X162570000Y-118080000D03*
D11*
X170973534Y-113749940D03*
X182762500Y-135302500D03*
X175170000Y-119370000D03*
X186830000Y-123350000D03*
X152510000Y-133050000D03*
X183530000Y-120180000D03*
X164650000Y-122180000D03*
X167900000Y-111100000D03*
X188210000Y-118620000D03*
X172200000Y-125300000D03*
X155035000Y-122400000D03*
X165800000Y-115760000D03*
X153700000Y-129970000D03*
X161200000Y-122880000D03*
X187450000Y-117690000D03*
X161380000Y-108790000D03*
X188840000Y-112310000D03*
X152510000Y-135290000D03*
X186682500Y-111420000D03*
X187712500Y-125802500D03*
X174480000Y-124030000D03*
X174070000Y-108320000D03*
X178690000Y-135310000D03*
X154885000Y-121370000D03*
X155205000Y-126760000D03*
X166410000Y-136510000D03*
X157540000Y-111800000D03*
X158680000Y-103850000D03*
X158280000Y-117860000D03*
X155975000Y-134350000D03*
X179290000Y-122800000D03*
X163640000Y-134310000D03*
X176380000Y-127160000D03*
X157380000Y-109770000D03*
X156005000Y-130330000D03*
X157350000Y-103950000D03*
X155040000Y-109750000D03*
X185352500Y-116370000D03*
X165270000Y-108240000D03*
X157290000Y-102580000D03*
X171530000Y-135800000D03*
X186720000Y-122260000D03*
X157310000Y-105070000D03*
X184540000Y-124830000D03*
X159990000Y-122880000D03*
X181852500Y-111450000D03*
X182862500Y-134132500D03*
X155980000Y-103920000D03*
X165150000Y-110200000D03*
X155040000Y-111770000D03*
X170350000Y-119980000D03*
X156320000Y-110740000D03*
X154955000Y-137700000D03*
X182842500Y-126702500D03*
X186697500Y-109010000D03*
X165055000Y-114115000D03*
X165820000Y-109300000D03*
X162630000Y-120670000D03*
X178322500Y-112810000D03*
X188090000Y-103710000D03*
X164530000Y-131210000D03*
X159850000Y-125240000D03*
X165390000Y-129950000D03*
X164420000Y-126010000D03*
X158380000Y-136360000D03*
X166180000Y-125570000D03*
X166760000Y-130650000D03*
X166400000Y-137880000D03*
X168810000Y-126550000D03*
X166980000Y-135230000D03*
X171920000Y-109110000D03*
X167120000Y-109670000D03*
X177250000Y-109470000D03*
X181747500Y-108000000D03*
X181977500Y-108990000D03*
X180810000Y-108790000D03*
X180870000Y-106250000D03*
X181860000Y-122720000D03*
X175920000Y-118960000D03*
X162390000Y-121510000D03*
X158780000Y-121150000D03*
X164530000Y-128160000D03*
X164210000Y-122810000D03*
X165230000Y-125390000D03*
X159620000Y-133360000D03*
X167700000Y-126590000D03*
X163770000Y-135670000D03*
X161470000Y-123630000D03*
X151180000Y-111350000D03*
X169010000Y-124980000D03*
X162870000Y-119710000D03*
X161590000Y-112600000D03*
X164910000Y-116410000D03*
X168480000Y-125350000D03*
X163090000Y-118760000D03*
X151190000Y-110080000D03*
X162650000Y-126200000D03*
X151190000Y-108790000D03*
X172120000Y-126500000D03*
X166740000Y-114970000D03*
X170480000Y-125970000D03*
X161600000Y-111290000D03*
G04 #@! TA.AperFunction,Conductor*
G36*
X163398099Y-100220185D02*
G01*
X163443854Y-100272989D01*
X163453798Y-100342147D01*
X163445621Y-100371953D01*
X163368429Y-100558310D01*
X163368427Y-100558318D01*
X163330000Y-100751504D01*
X163330000Y-101350000D01*
X164030000Y-101350000D01*
X164030000Y-101850000D01*
X163330000Y-101850000D01*
X163330000Y-102448495D01*
X163368427Y-102641681D01*
X163368430Y-102641693D01*
X163443807Y-102823671D01*
X163443814Y-102823684D01*
X163553248Y-102987462D01*
X163553251Y-102987466D01*
X163692533Y-103126748D01*
X163692537Y-103126751D01*
X163856315Y-103236185D01*
X163856328Y-103236192D01*
X164038308Y-103311569D01*
X164080000Y-103319862D01*
X164080000Y-102366988D01*
X164089940Y-102384205D01*
X164145795Y-102440060D01*
X164214204Y-102479556D01*
X164290504Y-102500000D01*
X164369496Y-102500000D01*
X164445796Y-102479556D01*
X164514205Y-102440060D01*
X164570060Y-102384205D01*
X164580000Y-102366988D01*
X164580000Y-103319862D01*
X164621690Y-103311569D01*
X164621692Y-103311569D01*
X164803671Y-103236192D01*
X164803683Y-103236185D01*
X164936609Y-103147367D01*
X165003286Y-103126489D01*
X165070666Y-103144973D01*
X165117357Y-103196952D01*
X165129500Y-103250469D01*
X165129500Y-103949530D01*
X165109815Y-104016569D01*
X165057011Y-104062324D01*
X164987853Y-104072268D01*
X164936609Y-104052632D01*
X164803684Y-103963814D01*
X164803671Y-103963807D01*
X164621691Y-103888429D01*
X164621683Y-103888427D01*
X164580000Y-103880135D01*
X164580000Y-105033011D01*
X164570060Y-105015795D01*
X164514205Y-104959940D01*
X164445796Y-104920444D01*
X164369496Y-104900000D01*
X164290504Y-104900000D01*
X164214204Y-104920444D01*
X164145795Y-104959940D01*
X164089940Y-105015795D01*
X164080000Y-105033011D01*
X164080000Y-103880136D01*
X164079999Y-103880135D01*
X164038316Y-103888427D01*
X164038308Y-103888429D01*
X163856328Y-103963807D01*
X163856315Y-103963814D01*
X163692537Y-104073248D01*
X163692533Y-104073251D01*
X163553251Y-104212533D01*
X163553248Y-104212537D01*
X163443814Y-104376315D01*
X163443807Y-104376328D01*
X163368430Y-104558306D01*
X163368427Y-104558318D01*
X163330000Y-104751504D01*
X163330000Y-105350000D01*
X164030000Y-105350000D01*
X164030000Y-105850000D01*
X163330000Y-105850000D01*
X163330000Y-106448495D01*
X163368427Y-106641681D01*
X163368430Y-106641693D01*
X163443807Y-106823671D01*
X163443814Y-106823684D01*
X163553248Y-106987462D01*
X163553251Y-106987466D01*
X163692533Y-107126748D01*
X163692537Y-107126751D01*
X163856315Y-107236185D01*
X163856328Y-107236192D01*
X164038308Y-107311569D01*
X164080000Y-107319862D01*
X164080000Y-106166988D01*
X164089940Y-106184205D01*
X164145795Y-106240060D01*
X164214204Y-106279556D01*
X164290504Y-106300000D01*
X164369496Y-106300000D01*
X164445796Y-106279556D01*
X164514205Y-106240060D01*
X164570060Y-106184205D01*
X164580000Y-106166988D01*
X164580000Y-107319862D01*
X164621690Y-107311569D01*
X164621692Y-107311569D01*
X164803671Y-107236192D01*
X164803684Y-107236185D01*
X164967462Y-107126751D01*
X164967466Y-107126748D01*
X165106748Y-106987466D01*
X165106751Y-106987462D01*
X165216185Y-106823684D01*
X165216190Y-106823674D01*
X165231803Y-106785981D01*
X165275643Y-106731576D01*
X165341937Y-106709510D01*
X165409636Y-106726788D01*
X165411278Y-106727779D01*
X165450514Y-106751937D01*
X165571054Y-106792886D01*
X165583843Y-106794208D01*
X165597371Y-106796765D01*
X165600351Y-106796986D01*
X165600356Y-106796989D01*
X165635560Y-106799607D01*
X165638926Y-106799906D01*
X165674039Y-106803539D01*
X165674040Y-106803538D01*
X165677020Y-106803847D01*
X165690786Y-106803715D01*
X165696740Y-106804158D01*
X165809000Y-106787174D01*
X165914665Y-106745635D01*
X166008438Y-106681625D01*
X166085617Y-106598353D01*
X166142331Y-106499996D01*
X166143403Y-106496511D01*
X166146020Y-106488015D01*
X166184559Y-106429735D01*
X166248488Y-106401542D01*
X166264531Y-106400500D01*
X173635469Y-106400500D01*
X173702508Y-106420185D01*
X173748263Y-106472989D01*
X173753980Y-106488015D01*
X173757668Y-106499995D01*
X173814381Y-106598351D01*
X173814386Y-106598357D01*
X173891560Y-106681623D01*
X173891562Y-106681625D01*
X173963059Y-106730429D01*
X173985335Y-106745635D01*
X174087957Y-106785978D01*
X174091000Y-106787174D01*
X174203260Y-106804158D01*
X174209213Y-106803715D01*
X174222991Y-106803845D01*
X174225958Y-106803538D01*
X174225961Y-106803539D01*
X174260994Y-106799915D01*
X174264555Y-106799599D01*
X174302631Y-106796767D01*
X174316166Y-106794208D01*
X174320028Y-106793808D01*
X174328946Y-106792886D01*
X174449486Y-106751937D01*
X174488624Y-106727839D01*
X174556027Y-106709454D01*
X174622674Y-106730429D01*
X174667402Y-106784106D01*
X174668195Y-106785978D01*
X174683809Y-106823675D01*
X174683814Y-106823684D01*
X174793248Y-106987462D01*
X174793251Y-106987466D01*
X174932533Y-107126748D01*
X174932537Y-107126751D01*
X175096315Y-107236185D01*
X175096328Y-107236192D01*
X175278308Y-107311569D01*
X175320000Y-107319862D01*
X175320000Y-106166988D01*
X175329940Y-106184205D01*
X175385795Y-106240060D01*
X175454204Y-106279556D01*
X175530504Y-106300000D01*
X175609496Y-106300000D01*
X175685796Y-106279556D01*
X175754205Y-106240060D01*
X175810060Y-106184205D01*
X175820000Y-106166988D01*
X175820000Y-107319862D01*
X175861690Y-107311569D01*
X175861692Y-107311569D01*
X176043671Y-107236192D01*
X176043684Y-107236185D01*
X176207462Y-107126751D01*
X176207466Y-107126748D01*
X176346748Y-106987466D01*
X176346751Y-106987462D01*
X176456185Y-106823684D01*
X176456192Y-106823671D01*
X176531569Y-106641693D01*
X176531572Y-106641681D01*
X176569999Y-106448495D01*
X176570000Y-106448492D01*
X176570000Y-106249997D01*
X180114751Y-106249997D01*
X180114751Y-106250002D01*
X180133685Y-106418056D01*
X180189545Y-106577694D01*
X180189547Y-106577697D01*
X180279518Y-106720884D01*
X180279523Y-106720890D01*
X180399109Y-106840476D01*
X180399115Y-106840481D01*
X180542302Y-106930452D01*
X180542305Y-106930454D01*
X180542309Y-106930455D01*
X180542310Y-106930456D01*
X180614913Y-106955860D01*
X180701943Y-106986314D01*
X180869997Y-107005249D01*
X180870000Y-107005249D01*
X180870003Y-107005249D01*
X181038056Y-106986314D01*
X181038059Y-106986313D01*
X181197690Y-106930456D01*
X181197692Y-106930454D01*
X181197694Y-106930454D01*
X181197697Y-106930452D01*
X181340884Y-106840481D01*
X181340885Y-106840480D01*
X181340890Y-106840477D01*
X181460477Y-106720890D01*
X181537474Y-106598351D01*
X181550452Y-106577697D01*
X181550454Y-106577694D01*
X181550454Y-106577692D01*
X181550456Y-106577690D01*
X181606313Y-106418059D01*
X181606313Y-106418058D01*
X181606314Y-106418056D01*
X181625249Y-106250002D01*
X181625249Y-106249997D01*
X181606314Y-106081943D01*
X181550454Y-105922305D01*
X181550452Y-105922302D01*
X181460481Y-105779115D01*
X181460476Y-105779109D01*
X181340890Y-105659523D01*
X181340884Y-105659518D01*
X181197697Y-105569547D01*
X181197694Y-105569545D01*
X181038056Y-105513685D01*
X180870003Y-105494751D01*
X180869997Y-105494751D01*
X180701943Y-105513685D01*
X180542305Y-105569545D01*
X180542302Y-105569547D01*
X180399115Y-105659518D01*
X180399109Y-105659523D01*
X180279523Y-105779109D01*
X180279518Y-105779115D01*
X180189547Y-105922302D01*
X180189545Y-105922305D01*
X180133685Y-106081943D01*
X180114751Y-106249997D01*
X176570000Y-106249997D01*
X176570000Y-105850000D01*
X175870000Y-105850000D01*
X175870000Y-105350000D01*
X176570000Y-105350000D01*
X176570000Y-104751508D01*
X176569999Y-104751504D01*
X176531572Y-104558318D01*
X176531569Y-104558306D01*
X176456192Y-104376328D01*
X176456185Y-104376315D01*
X176346751Y-104212537D01*
X176346748Y-104212533D01*
X176207466Y-104073251D01*
X176207462Y-104073248D01*
X176043684Y-103963814D01*
X176043671Y-103963807D01*
X175861691Y-103888429D01*
X175861683Y-103888427D01*
X175820000Y-103880135D01*
X175820000Y-105033011D01*
X175810060Y-105015795D01*
X175754205Y-104959940D01*
X175685796Y-104920444D01*
X175609496Y-104900000D01*
X175530504Y-104900000D01*
X175454204Y-104920444D01*
X175385795Y-104959940D01*
X175329940Y-105015795D01*
X175320000Y-105033011D01*
X175320000Y-103880136D01*
X175319999Y-103880135D01*
X175278316Y-103888427D01*
X175278308Y-103888429D01*
X175096328Y-103963807D01*
X175096315Y-103963814D01*
X174963391Y-104052632D01*
X174896713Y-104073510D01*
X174829333Y-104055025D01*
X174782643Y-104003047D01*
X174770500Y-103949530D01*
X174770500Y-103709997D01*
X187334751Y-103709997D01*
X187334751Y-103710002D01*
X187353685Y-103878056D01*
X187409545Y-104037694D01*
X187409547Y-104037697D01*
X187499518Y-104180884D01*
X187499523Y-104180890D01*
X187619109Y-104300476D01*
X187619115Y-104300481D01*
X187762302Y-104390452D01*
X187762305Y-104390454D01*
X187762309Y-104390455D01*
X187762310Y-104390456D01*
X187834913Y-104415860D01*
X187921943Y-104446314D01*
X188089997Y-104465249D01*
X188090000Y-104465249D01*
X188090003Y-104465249D01*
X188258056Y-104446314D01*
X188258059Y-104446313D01*
X188417690Y-104390456D01*
X188417692Y-104390454D01*
X188417694Y-104390454D01*
X188417697Y-104390452D01*
X188560884Y-104300481D01*
X188560885Y-104300480D01*
X188560890Y-104300477D01*
X188680477Y-104180890D01*
X188747949Y-104073510D01*
X188770452Y-104037697D01*
X188770454Y-104037694D01*
X188770454Y-104037692D01*
X188770456Y-104037690D01*
X188826313Y-103878059D01*
X188826313Y-103878058D01*
X188826314Y-103878056D01*
X188845249Y-103710002D01*
X188845249Y-103709997D01*
X188826314Y-103541943D01*
X188770454Y-103382305D01*
X188770452Y-103382302D01*
X188680481Y-103239115D01*
X188680476Y-103239109D01*
X188560890Y-103119523D01*
X188560884Y-103119518D01*
X188417697Y-103029547D01*
X188417694Y-103029545D01*
X188258056Y-102973685D01*
X188090003Y-102954751D01*
X188089997Y-102954751D01*
X187921943Y-102973685D01*
X187762305Y-103029545D01*
X187762302Y-103029547D01*
X187619115Y-103119518D01*
X187619109Y-103119523D01*
X187499523Y-103239109D01*
X187499518Y-103239115D01*
X187409547Y-103382302D01*
X187409545Y-103382305D01*
X187353685Y-103541943D01*
X187334751Y-103709997D01*
X174770500Y-103709997D01*
X174770500Y-103250469D01*
X174790185Y-103183430D01*
X174842989Y-103137675D01*
X174912147Y-103127731D01*
X174963391Y-103147367D01*
X175096316Y-103236185D01*
X175096328Y-103236192D01*
X175278308Y-103311569D01*
X175320000Y-103319862D01*
X175320000Y-102366988D01*
X175329940Y-102384205D01*
X175385795Y-102440060D01*
X175454204Y-102479556D01*
X175530504Y-102500000D01*
X175609496Y-102500000D01*
X175685796Y-102479556D01*
X175754205Y-102440060D01*
X175810060Y-102384205D01*
X175820000Y-102366988D01*
X175820000Y-103319862D01*
X175861690Y-103311569D01*
X175861692Y-103311569D01*
X176043671Y-103236192D01*
X176043684Y-103236185D01*
X176207462Y-103126751D01*
X176207466Y-103126748D01*
X176346748Y-102987466D01*
X176346751Y-102987462D01*
X176456185Y-102823684D01*
X176456192Y-102823671D01*
X176531569Y-102641693D01*
X176531572Y-102641681D01*
X176569999Y-102448495D01*
X176570000Y-102448492D01*
X176570000Y-101850000D01*
X175870000Y-101850000D01*
X175870000Y-101350000D01*
X176570000Y-101350000D01*
X176570000Y-100751508D01*
X176569999Y-100751504D01*
X176531572Y-100558318D01*
X176531570Y-100558310D01*
X176454379Y-100371953D01*
X176446910Y-100302483D01*
X176478185Y-100240004D01*
X176538274Y-100204352D01*
X176568940Y-100200500D01*
X187960118Y-100200500D01*
X187995933Y-100200500D01*
X188004043Y-100200765D01*
X188226790Y-100215364D01*
X188242848Y-100217479D01*
X188428875Y-100254482D01*
X188457771Y-100260230D01*
X188473438Y-100264428D01*
X188585545Y-100302483D01*
X188680944Y-100334867D01*
X188695921Y-100341070D01*
X188758546Y-100371953D01*
X188892460Y-100437992D01*
X188906508Y-100446102D01*
X189088712Y-100567848D01*
X189101573Y-100577716D01*
X189206495Y-100669730D01*
X189266328Y-100722202D01*
X189277797Y-100733671D01*
X189388160Y-100859517D01*
X189422280Y-100898423D01*
X189432154Y-100911291D01*
X189553897Y-101093492D01*
X189562007Y-101107539D01*
X189658926Y-101304071D01*
X189665133Y-101319057D01*
X189735571Y-101526561D01*
X189739769Y-101542228D01*
X189782518Y-101757140D01*
X189784636Y-101773221D01*
X189799235Y-101995956D01*
X189799500Y-102004066D01*
X189799500Y-112049959D01*
X189779815Y-112116998D01*
X189727011Y-112162753D01*
X189657853Y-112172697D01*
X189594297Y-112143672D01*
X189558459Y-112090914D01*
X189520457Y-111982313D01*
X189520452Y-111982302D01*
X189430481Y-111839115D01*
X189430476Y-111839109D01*
X189310890Y-111719523D01*
X189310884Y-111719518D01*
X189167697Y-111629547D01*
X189167694Y-111629545D01*
X189008056Y-111573685D01*
X188840003Y-111554751D01*
X188839997Y-111554751D01*
X188671943Y-111573685D01*
X188512305Y-111629545D01*
X188512302Y-111629547D01*
X188369115Y-111719518D01*
X188369109Y-111719523D01*
X188249523Y-111839109D01*
X188249518Y-111839115D01*
X188159547Y-111982302D01*
X188159545Y-111982305D01*
X188103685Y-112141943D01*
X188084751Y-112309997D01*
X188084751Y-112310002D01*
X188103685Y-112478056D01*
X188159545Y-112637694D01*
X188159547Y-112637697D01*
X188249518Y-112780884D01*
X188249523Y-112780890D01*
X188369109Y-112900476D01*
X188369115Y-112900481D01*
X188512302Y-112990452D01*
X188512305Y-112990454D01*
X188512309Y-112990455D01*
X188512310Y-112990456D01*
X188578524Y-113013625D01*
X188671943Y-113046314D01*
X188839997Y-113065249D01*
X188840000Y-113065249D01*
X188840003Y-113065249D01*
X189008056Y-113046314D01*
X189008059Y-113046313D01*
X189167690Y-112990456D01*
X189167692Y-112990454D01*
X189167694Y-112990454D01*
X189167697Y-112990452D01*
X189310884Y-112900481D01*
X189310885Y-112900480D01*
X189310890Y-112900477D01*
X189430477Y-112780890D01*
X189431626Y-112779061D01*
X189520452Y-112637697D01*
X189520455Y-112637691D01*
X189520456Y-112637690D01*
X189558458Y-112529086D01*
X189599180Y-112472309D01*
X189664133Y-112446562D01*
X189732694Y-112460018D01*
X189783097Y-112508405D01*
X189799500Y-112570040D01*
X189799500Y-137995933D01*
X189799235Y-138004043D01*
X189784636Y-138226778D01*
X189782518Y-138242859D01*
X189739769Y-138457771D01*
X189735571Y-138473438D01*
X189665133Y-138680942D01*
X189658926Y-138695928D01*
X189562007Y-138892460D01*
X189553897Y-138906507D01*
X189432154Y-139088708D01*
X189422280Y-139101576D01*
X189277797Y-139266328D01*
X189266328Y-139277797D01*
X189101576Y-139422280D01*
X189088708Y-139432154D01*
X188906507Y-139553897D01*
X188892460Y-139562007D01*
X188695928Y-139658926D01*
X188680942Y-139665133D01*
X188473438Y-139735571D01*
X188457771Y-139739769D01*
X188242859Y-139782518D01*
X188226778Y-139784636D01*
X188004043Y-139799235D01*
X187995933Y-139799500D01*
X152004067Y-139799500D01*
X151995957Y-139799235D01*
X151773221Y-139784636D01*
X151757140Y-139782518D01*
X151542228Y-139739769D01*
X151526561Y-139735571D01*
X151319057Y-139665133D01*
X151304071Y-139658926D01*
X151107539Y-139562007D01*
X151093492Y-139553897D01*
X150911291Y-139432154D01*
X150898423Y-139422280D01*
X150733671Y-139277797D01*
X150722202Y-139266328D01*
X150669730Y-139206495D01*
X150577716Y-139101573D01*
X150567845Y-139088708D01*
X150446102Y-138906507D01*
X150437992Y-138892460D01*
X150435196Y-138886791D01*
X150341070Y-138695921D01*
X150334866Y-138680942D01*
X150264428Y-138473438D01*
X150260230Y-138457771D01*
X150238969Y-138350884D01*
X150217479Y-138242848D01*
X150215364Y-138226790D01*
X150200765Y-138004043D01*
X150200500Y-137995933D01*
X150200500Y-137879997D01*
X165644751Y-137879997D01*
X165644751Y-137880002D01*
X165663685Y-138048056D01*
X165719545Y-138207694D01*
X165719547Y-138207697D01*
X165809518Y-138350884D01*
X165809523Y-138350890D01*
X165929109Y-138470476D01*
X165929115Y-138470481D01*
X166072302Y-138560452D01*
X166072305Y-138560454D01*
X166072309Y-138560455D01*
X166072310Y-138560456D01*
X166144913Y-138585860D01*
X166231943Y-138616314D01*
X166399997Y-138635249D01*
X166400000Y-138635249D01*
X166400003Y-138635249D01*
X166568056Y-138616314D01*
X166568059Y-138616313D01*
X166727690Y-138560456D01*
X166727692Y-138560454D01*
X166727694Y-138560454D01*
X166727697Y-138560452D01*
X166870884Y-138470481D01*
X166870885Y-138470480D01*
X166870890Y-138470477D01*
X166990477Y-138350890D01*
X167063370Y-138234882D01*
X167080452Y-138207697D01*
X167080454Y-138207694D01*
X167080454Y-138207692D01*
X167080456Y-138207690D01*
X167136313Y-138048059D01*
X167136313Y-138048058D01*
X167136314Y-138048056D01*
X167155249Y-137880002D01*
X167155249Y-137879997D01*
X167136314Y-137711943D01*
X167080454Y-137552305D01*
X167080452Y-137552302D01*
X166990481Y-137409115D01*
X166990476Y-137409109D01*
X166870890Y-137289523D01*
X166870884Y-137289518D01*
X166727697Y-137199547D01*
X166727694Y-137199545D01*
X166568056Y-137143685D01*
X166400003Y-137124751D01*
X166399997Y-137124751D01*
X166231943Y-137143685D01*
X166072305Y-137199545D01*
X166072302Y-137199547D01*
X165929115Y-137289518D01*
X165929109Y-137289523D01*
X165809523Y-137409109D01*
X165809518Y-137409115D01*
X165719547Y-137552302D01*
X165719545Y-137552305D01*
X165663685Y-137711943D01*
X165644751Y-137879997D01*
X150200500Y-137879997D01*
X150200500Y-136359997D01*
X157624751Y-136359997D01*
X157624751Y-136360002D01*
X157643685Y-136528056D01*
X157699545Y-136687694D01*
X157699547Y-136687697D01*
X157789518Y-136830884D01*
X157789523Y-136830890D01*
X157909109Y-136950476D01*
X157909115Y-136950481D01*
X158052302Y-137040452D01*
X158052305Y-137040454D01*
X158052309Y-137040455D01*
X158052310Y-137040456D01*
X158124913Y-137065860D01*
X158211943Y-137096314D01*
X158379997Y-137115249D01*
X158380000Y-137115249D01*
X158380003Y-137115249D01*
X158548056Y-137096314D01*
X158548059Y-137096313D01*
X158707690Y-137040456D01*
X158707692Y-137040454D01*
X158707694Y-137040454D01*
X158707697Y-137040452D01*
X158850884Y-136950481D01*
X158850885Y-136950480D01*
X158850890Y-136950477D01*
X158970477Y-136830890D01*
X159060452Y-136687697D01*
X159060454Y-136687694D01*
X159060454Y-136687692D01*
X159060456Y-136687690D01*
X159116313Y-136528059D01*
X159116313Y-136528058D01*
X159116314Y-136528056D01*
X159135249Y-136360002D01*
X159135249Y-136359997D01*
X159116314Y-136191943D01*
X159069357Y-136057749D01*
X159060456Y-136032310D01*
X159060455Y-136032309D01*
X159060454Y-136032305D01*
X159060452Y-136032302D01*
X158970481Y-135889115D01*
X158970476Y-135889109D01*
X158850890Y-135769523D01*
X158850884Y-135769518D01*
X158707697Y-135679547D01*
X158707694Y-135679545D01*
X158680408Y-135669997D01*
X163014751Y-135669997D01*
X163014751Y-135670002D01*
X163033685Y-135838056D01*
X163089545Y-135997694D01*
X163089547Y-135997697D01*
X163179518Y-136140884D01*
X163179523Y-136140890D01*
X163299109Y-136260476D01*
X163299115Y-136260481D01*
X163442302Y-136350452D01*
X163442305Y-136350454D01*
X163442309Y-136350455D01*
X163442310Y-136350456D01*
X163469591Y-136360002D01*
X163601943Y-136406314D01*
X163769997Y-136425249D01*
X163770000Y-136425249D01*
X163770003Y-136425249D01*
X163938056Y-136406314D01*
X163938059Y-136406313D01*
X164097690Y-136350456D01*
X164097692Y-136350454D01*
X164097694Y-136350454D01*
X164097697Y-136350452D01*
X164240884Y-136260481D01*
X164240885Y-136260480D01*
X164240890Y-136260477D01*
X164360477Y-136140890D01*
X164360481Y-136140884D01*
X164450452Y-135997697D01*
X164450454Y-135997694D01*
X164450454Y-135997692D01*
X164450456Y-135997690D01*
X164506313Y-135838059D01*
X164506313Y-135838058D01*
X164506314Y-135838056D01*
X164525249Y-135670002D01*
X164525249Y-135669997D01*
X164506314Y-135501943D01*
X164450454Y-135342305D01*
X164450452Y-135342302D01*
X164379886Y-135229997D01*
X166224751Y-135229997D01*
X166224751Y-135230002D01*
X166243685Y-135398056D01*
X166299545Y-135557694D01*
X166299547Y-135557697D01*
X166389518Y-135700884D01*
X166389523Y-135700890D01*
X166509109Y-135820476D01*
X166509115Y-135820481D01*
X166652302Y-135910452D01*
X166652305Y-135910454D01*
X166652309Y-135910455D01*
X166652310Y-135910456D01*
X166724913Y-135935860D01*
X166811943Y-135966314D01*
X166979997Y-135985249D01*
X166980000Y-135985249D01*
X166980003Y-135985249D01*
X167148056Y-135966314D01*
X167148059Y-135966313D01*
X167307690Y-135910456D01*
X167307692Y-135910454D01*
X167307694Y-135910454D01*
X167307697Y-135910452D01*
X167450884Y-135820481D01*
X167450885Y-135820480D01*
X167450890Y-135820477D01*
X167570477Y-135700890D01*
X167583890Y-135679544D01*
X167660452Y-135557697D01*
X167660454Y-135557694D01*
X167660454Y-135557692D01*
X167660456Y-135557690D01*
X167716313Y-135398059D01*
X167716313Y-135398058D01*
X167716314Y-135398056D01*
X167727081Y-135302497D01*
X182007251Y-135302497D01*
X182007251Y-135302502D01*
X182026185Y-135470556D01*
X182082045Y-135630194D01*
X182082047Y-135630197D01*
X182172018Y-135773384D01*
X182172023Y-135773390D01*
X182291609Y-135892976D01*
X182291615Y-135892981D01*
X182434802Y-135982952D01*
X182434805Y-135982954D01*
X182434809Y-135982955D01*
X182434810Y-135982956D01*
X182476918Y-135997690D01*
X182594443Y-136038814D01*
X182762497Y-136057749D01*
X182762500Y-136057749D01*
X182762503Y-136057749D01*
X182930556Y-136038814D01*
X182930559Y-136038813D01*
X183090190Y-135982956D01*
X183090192Y-135982954D01*
X183090194Y-135982954D01*
X183090197Y-135982952D01*
X183233384Y-135892981D01*
X183233385Y-135892980D01*
X183233390Y-135892977D01*
X183352977Y-135773390D01*
X183355410Y-135769518D01*
X183442952Y-135630197D01*
X183442954Y-135630194D01*
X183442954Y-135630192D01*
X183442956Y-135630190D01*
X183498813Y-135470559D01*
X183498813Y-135470558D01*
X183498814Y-135470556D01*
X183517749Y-135302502D01*
X183517749Y-135302497D01*
X183498814Y-135134443D01*
X183468360Y-135047413D01*
X183442956Y-134974810D01*
X183442955Y-134974809D01*
X183442954Y-134974805D01*
X183442952Y-134974802D01*
X183352981Y-134831615D01*
X183352976Y-134831609D01*
X183233390Y-134712023D01*
X183233384Y-134712018D01*
X183090197Y-134622047D01*
X183090194Y-134622045D01*
X182930556Y-134566185D01*
X182762503Y-134547251D01*
X182762497Y-134547251D01*
X182594443Y-134566185D01*
X182434805Y-134622045D01*
X182434802Y-134622047D01*
X182291615Y-134712018D01*
X182291609Y-134712023D01*
X182172023Y-134831609D01*
X182172018Y-134831615D01*
X182082047Y-134974802D01*
X182082045Y-134974805D01*
X182026185Y-135134443D01*
X182007251Y-135302497D01*
X167727081Y-135302497D01*
X167735249Y-135230002D01*
X167735249Y-135229997D01*
X167716314Y-135061943D01*
X167671435Y-134933687D01*
X167660456Y-134902310D01*
X167660455Y-134902309D01*
X167660454Y-134902305D01*
X167660452Y-134902302D01*
X167570481Y-134759115D01*
X167570476Y-134759109D01*
X167450890Y-134639523D01*
X167450884Y-134639518D01*
X167307697Y-134549547D01*
X167307694Y-134549545D01*
X167148056Y-134493685D01*
X166980003Y-134474751D01*
X166979997Y-134474751D01*
X166811943Y-134493685D01*
X166652305Y-134549545D01*
X166652302Y-134549547D01*
X166509115Y-134639518D01*
X166509109Y-134639523D01*
X166389523Y-134759109D01*
X166389518Y-134759115D01*
X166299547Y-134902302D01*
X166299545Y-134902305D01*
X166243685Y-135061943D01*
X166224751Y-135229997D01*
X164379886Y-135229997D01*
X164360481Y-135199115D01*
X164360476Y-135199109D01*
X164240890Y-135079523D01*
X164240884Y-135079518D01*
X164097697Y-134989547D01*
X164097694Y-134989545D01*
X163938056Y-134933685D01*
X163770003Y-134914751D01*
X163769997Y-134914751D01*
X163601943Y-134933685D01*
X163442305Y-134989545D01*
X163442302Y-134989547D01*
X163299115Y-135079518D01*
X163299109Y-135079523D01*
X163179523Y-135199109D01*
X163179518Y-135199115D01*
X163089547Y-135342302D01*
X163089545Y-135342305D01*
X163033685Y-135501943D01*
X163014751Y-135669997D01*
X158680408Y-135669997D01*
X158548056Y-135623685D01*
X158380003Y-135604751D01*
X158379997Y-135604751D01*
X158211943Y-135623685D01*
X158052305Y-135679545D01*
X158052302Y-135679547D01*
X157909115Y-135769518D01*
X157909109Y-135769523D01*
X157789523Y-135889109D01*
X157789518Y-135889115D01*
X157699547Y-136032302D01*
X157699545Y-136032305D01*
X157643685Y-136191943D01*
X157624751Y-136359997D01*
X150200500Y-136359997D01*
X150200500Y-135289997D01*
X151754751Y-135289997D01*
X151754751Y-135290002D01*
X151773685Y-135458056D01*
X151829545Y-135617694D01*
X151829547Y-135617697D01*
X151919518Y-135760884D01*
X151919523Y-135760890D01*
X152039109Y-135880476D01*
X152039115Y-135880481D01*
X152182302Y-135970452D01*
X152182305Y-135970454D01*
X152182309Y-135970455D01*
X152182310Y-135970456D01*
X152224586Y-135985249D01*
X152341943Y-136026314D01*
X152509997Y-136045249D01*
X152510000Y-136045249D01*
X152510003Y-136045249D01*
X152678056Y-136026314D01*
X152678059Y-136026313D01*
X152837690Y-135970456D01*
X152837692Y-135970454D01*
X152837694Y-135970454D01*
X152837697Y-135970452D01*
X152980884Y-135880481D01*
X152980885Y-135880480D01*
X152980890Y-135880477D01*
X153100477Y-135760890D01*
X153138178Y-135700890D01*
X153190452Y-135617697D01*
X153190454Y-135617694D01*
X153190454Y-135617692D01*
X153190456Y-135617690D01*
X153246313Y-135458059D01*
X153246313Y-135458058D01*
X153246314Y-135458056D01*
X153265249Y-135290002D01*
X153265249Y-135289997D01*
X153246314Y-135121943D01*
X153215860Y-135034913D01*
X153190456Y-134962310D01*
X153190455Y-134962309D01*
X153190454Y-134962305D01*
X153190452Y-134962302D01*
X153100481Y-134819115D01*
X153100476Y-134819109D01*
X152980890Y-134699523D01*
X152980884Y-134699518D01*
X152837697Y-134609547D01*
X152837694Y-134609545D01*
X152678056Y-134553685D01*
X152510003Y-134534751D01*
X152509997Y-134534751D01*
X152341943Y-134553685D01*
X152182305Y-134609545D01*
X152182302Y-134609547D01*
X152039115Y-134699518D01*
X152039109Y-134699523D01*
X151919523Y-134819109D01*
X151919518Y-134819115D01*
X151829547Y-134962302D01*
X151829545Y-134962305D01*
X151773685Y-135121943D01*
X151754751Y-135289997D01*
X150200500Y-135289997D01*
X150200500Y-133049997D01*
X151754751Y-133049997D01*
X151754751Y-133050002D01*
X151773685Y-133218056D01*
X151829545Y-133377694D01*
X151829547Y-133377697D01*
X151919518Y-133520884D01*
X151919523Y-133520890D01*
X152039109Y-133640476D01*
X152039115Y-133640481D01*
X152182302Y-133730452D01*
X152182305Y-133730454D01*
X152182309Y-133730455D01*
X152182310Y-133730456D01*
X152254913Y-133755860D01*
X152341943Y-133786314D01*
X152509997Y-133805249D01*
X152510000Y-133805249D01*
X152510003Y-133805249D01*
X152678056Y-133786314D01*
X152678059Y-133786313D01*
X152837690Y-133730456D01*
X152837692Y-133730454D01*
X152837694Y-133730454D01*
X152837697Y-133730452D01*
X152980884Y-133640481D01*
X152980885Y-133640480D01*
X152980890Y-133640477D01*
X153100477Y-133520890D01*
X153190452Y-133377697D01*
X153190454Y-133377694D01*
X153190454Y-133377692D01*
X153190456Y-133377690D01*
X153196647Y-133359997D01*
X158864751Y-133359997D01*
X158864751Y-133360002D01*
X158883685Y-133528056D01*
X158939545Y-133687694D01*
X158939547Y-133687697D01*
X159029518Y-133830884D01*
X159029523Y-133830890D01*
X159149109Y-133950476D01*
X159149115Y-133950481D01*
X159292302Y-134040452D01*
X159292305Y-134040454D01*
X159292309Y-134040455D01*
X159292310Y-134040456D01*
X159364913Y-134065860D01*
X159451943Y-134096314D01*
X159619997Y-134115249D01*
X159620000Y-134115249D01*
X159620003Y-134115249D01*
X159788056Y-134096314D01*
X159788059Y-134096313D01*
X159947690Y-134040456D01*
X159947692Y-134040454D01*
X159947694Y-134040454D01*
X159947697Y-134040452D01*
X160090884Y-133950481D01*
X160090885Y-133950480D01*
X160090890Y-133950477D01*
X160210477Y-133830890D01*
X160210481Y-133830884D01*
X160300452Y-133687697D01*
X160300454Y-133687694D01*
X160300454Y-133687692D01*
X160300456Y-133687690D01*
X160356313Y-133528059D01*
X160356313Y-133528058D01*
X160356314Y-133528056D01*
X160375249Y-133360002D01*
X160375249Y-133359997D01*
X160356314Y-133191943D01*
X160325860Y-133104913D01*
X160300456Y-133032310D01*
X160300455Y-133032309D01*
X160300454Y-133032305D01*
X160300452Y-133032302D01*
X160210481Y-132889115D01*
X160210476Y-132889109D01*
X160090890Y-132769523D01*
X160090884Y-132769518D01*
X159947697Y-132679547D01*
X159947694Y-132679545D01*
X159788056Y-132623685D01*
X159620003Y-132604751D01*
X159619997Y-132604751D01*
X159451943Y-132623685D01*
X159292305Y-132679545D01*
X159292302Y-132679547D01*
X159149115Y-132769518D01*
X159149109Y-132769523D01*
X159029523Y-132889109D01*
X159029518Y-132889115D01*
X158939547Y-133032302D01*
X158939545Y-133032305D01*
X158883685Y-133191943D01*
X158864751Y-133359997D01*
X153196647Y-133359997D01*
X153246313Y-133218059D01*
X153246313Y-133218058D01*
X153246314Y-133218056D01*
X153265249Y-133050002D01*
X153265249Y-133049997D01*
X153246314Y-132881943D01*
X153190454Y-132722305D01*
X153190452Y-132722302D01*
X153100481Y-132579115D01*
X153100476Y-132579109D01*
X152980890Y-132459523D01*
X152980884Y-132459518D01*
X152837697Y-132369547D01*
X152837694Y-132369545D01*
X152678056Y-132313685D01*
X152510003Y-132294751D01*
X152509997Y-132294751D01*
X152341943Y-132313685D01*
X152182305Y-132369545D01*
X152182302Y-132369547D01*
X152039115Y-132459518D01*
X152039109Y-132459523D01*
X151919523Y-132579109D01*
X151919518Y-132579115D01*
X151829547Y-132722302D01*
X151829545Y-132722305D01*
X151773685Y-132881943D01*
X151754751Y-133049997D01*
X150200500Y-133049997D01*
X150200500Y-131209997D01*
X163774751Y-131209997D01*
X163774751Y-131210002D01*
X163793685Y-131378056D01*
X163849545Y-131537694D01*
X163849547Y-131537697D01*
X163939518Y-131680884D01*
X163939523Y-131680890D01*
X164059109Y-131800476D01*
X164059115Y-131800481D01*
X164202302Y-131890452D01*
X164202305Y-131890454D01*
X164202309Y-131890455D01*
X164202310Y-131890456D01*
X164274913Y-131915860D01*
X164361943Y-131946314D01*
X164529997Y-131965249D01*
X164530000Y-131965249D01*
X164530003Y-131965249D01*
X164698056Y-131946314D01*
X164698059Y-131946313D01*
X164857690Y-131890456D01*
X164857692Y-131890454D01*
X164857694Y-131890454D01*
X164857697Y-131890452D01*
X165000884Y-131800481D01*
X165000885Y-131800480D01*
X165000890Y-131800477D01*
X165120477Y-131680890D01*
X165210452Y-131537697D01*
X165210454Y-131537694D01*
X165210454Y-131537692D01*
X165210456Y-131537690D01*
X165266313Y-131378059D01*
X165266313Y-131378058D01*
X165266314Y-131378056D01*
X165285249Y-131210002D01*
X165285249Y-131209997D01*
X165266314Y-131041943D01*
X165210454Y-130882305D01*
X165207434Y-130876034D01*
X165210282Y-130874662D01*
X165195036Y-130820870D01*
X165215351Y-130754019D01*
X165268583Y-130708763D01*
X165332915Y-130698817D01*
X165389998Y-130705249D01*
X165390000Y-130705249D01*
X165390003Y-130705249D01*
X165558056Y-130686314D01*
X165558059Y-130686313D01*
X165717690Y-130630456D01*
X165816619Y-130568294D01*
X165883853Y-130549294D01*
X165950689Y-130569661D01*
X165995903Y-130622928D01*
X166005810Y-130659404D01*
X166023685Y-130818056D01*
X166079545Y-130977694D01*
X166079547Y-130977697D01*
X166169518Y-131120884D01*
X166169523Y-131120890D01*
X166289109Y-131240476D01*
X166289115Y-131240481D01*
X166432302Y-131330452D01*
X166432305Y-131330454D01*
X166432309Y-131330455D01*
X166432310Y-131330456D01*
X166504913Y-131355860D01*
X166591943Y-131386314D01*
X166759997Y-131405249D01*
X166760000Y-131405249D01*
X166760003Y-131405249D01*
X166928056Y-131386314D01*
X166928059Y-131386313D01*
X167087690Y-131330456D01*
X167087692Y-131330454D01*
X167087694Y-131330454D01*
X167087697Y-131330452D01*
X167230884Y-131240481D01*
X167230885Y-131240480D01*
X167230890Y-131240477D01*
X167350477Y-131120890D01*
X167400083Y-131041943D01*
X167440452Y-130977697D01*
X167440454Y-130977694D01*
X167440454Y-130977692D01*
X167440456Y-130977690D01*
X167496313Y-130818059D01*
X167496313Y-130818058D01*
X167496314Y-130818056D01*
X167515249Y-130650002D01*
X167515249Y-130649997D01*
X167496314Y-130481943D01*
X167440454Y-130322305D01*
X167440452Y-130322302D01*
X167350481Y-130179115D01*
X167350476Y-130179109D01*
X167230890Y-130059523D01*
X167230884Y-130059518D01*
X167087697Y-129969547D01*
X167087694Y-129969545D01*
X166928056Y-129913685D01*
X166760003Y-129894751D01*
X166759997Y-129894751D01*
X166591943Y-129913685D01*
X166432307Y-129969545D01*
X166333381Y-130031705D01*
X166266144Y-130050705D01*
X166199309Y-130030337D01*
X166154095Y-129977069D01*
X166144189Y-129940594D01*
X166126314Y-129781944D01*
X166077454Y-129642310D01*
X166070456Y-129622310D01*
X166070455Y-129622309D01*
X166070454Y-129622305D01*
X166070452Y-129622302D01*
X165980481Y-129479115D01*
X165980476Y-129479109D01*
X165860890Y-129359523D01*
X165860884Y-129359518D01*
X165717697Y-129269547D01*
X165717694Y-129269545D01*
X165558056Y-129213685D01*
X165390003Y-129194751D01*
X165389997Y-129194751D01*
X165221943Y-129213685D01*
X165062305Y-129269545D01*
X165062302Y-129269547D01*
X164919115Y-129359518D01*
X164919109Y-129359523D01*
X164799523Y-129479109D01*
X164799518Y-129479115D01*
X164709547Y-129622302D01*
X164709545Y-129622305D01*
X164653685Y-129781943D01*
X164634751Y-129949997D01*
X164634751Y-129950002D01*
X164653685Y-130118056D01*
X164709545Y-130277694D01*
X164712566Y-130283966D01*
X164709742Y-130285325D01*
X164724961Y-130339297D01*
X164704556Y-130406121D01*
X164651262Y-130451304D01*
X164587085Y-130461182D01*
X164530004Y-130454751D01*
X164529997Y-130454751D01*
X164361943Y-130473685D01*
X164202305Y-130529545D01*
X164202302Y-130529547D01*
X164059115Y-130619518D01*
X164059109Y-130619523D01*
X163939523Y-130739109D01*
X163939518Y-130739115D01*
X163849547Y-130882302D01*
X163849545Y-130882305D01*
X163793685Y-131041943D01*
X163774751Y-131209997D01*
X150200500Y-131209997D01*
X150200500Y-129969997D01*
X152944751Y-129969997D01*
X152944751Y-129970002D01*
X152963685Y-130138056D01*
X153019545Y-130297694D01*
X153019547Y-130297697D01*
X153109518Y-130440884D01*
X153109523Y-130440890D01*
X153229109Y-130560476D01*
X153229115Y-130560481D01*
X153372302Y-130650452D01*
X153372305Y-130650454D01*
X153372309Y-130650455D01*
X153372310Y-130650456D01*
X153444913Y-130675860D01*
X153531943Y-130706314D01*
X153699997Y-130725249D01*
X153700000Y-130725249D01*
X153700003Y-130725249D01*
X153868056Y-130706314D01*
X153889481Y-130698817D01*
X154027690Y-130650456D01*
X154027692Y-130650454D01*
X154027694Y-130650454D01*
X154027697Y-130650452D01*
X154170884Y-130560481D01*
X154170885Y-130560480D01*
X154170890Y-130560477D01*
X154290477Y-130440890D01*
X154312324Y-130406121D01*
X154380452Y-130297697D01*
X154380454Y-130297694D01*
X154380454Y-130297692D01*
X154380456Y-130297690D01*
X154436313Y-130138059D01*
X154436313Y-130138058D01*
X154436314Y-130138056D01*
X154455249Y-129970002D01*
X154455249Y-129969997D01*
X154436314Y-129801943D01*
X154380454Y-129642305D01*
X154380452Y-129642302D01*
X154290481Y-129499115D01*
X154290476Y-129499109D01*
X154170890Y-129379523D01*
X154170884Y-129379518D01*
X154027697Y-129289547D01*
X154027694Y-129289545D01*
X153868056Y-129233685D01*
X153700003Y-129214751D01*
X153699997Y-129214751D01*
X153531943Y-129233685D01*
X153372305Y-129289545D01*
X153372302Y-129289547D01*
X153229115Y-129379518D01*
X153229109Y-129379523D01*
X153109523Y-129499109D01*
X153109518Y-129499115D01*
X153019547Y-129642302D01*
X153019545Y-129642305D01*
X152963685Y-129801943D01*
X152944751Y-129969997D01*
X150200500Y-129969997D01*
X150200500Y-128159997D01*
X163774751Y-128159997D01*
X163774751Y-128160002D01*
X163793685Y-128328056D01*
X163849545Y-128487694D01*
X163849547Y-128487697D01*
X163939518Y-128630884D01*
X163939523Y-128630890D01*
X164059109Y-128750476D01*
X164059115Y-128750481D01*
X164202302Y-128840452D01*
X164202305Y-128840454D01*
X164202309Y-128840455D01*
X164202310Y-128840456D01*
X164274913Y-128865860D01*
X164361943Y-128896314D01*
X164529997Y-128915249D01*
X164530000Y-128915249D01*
X164530003Y-128915249D01*
X164698056Y-128896314D01*
X164698059Y-128896313D01*
X164857690Y-128840456D01*
X164857692Y-128840454D01*
X164857694Y-128840454D01*
X164857697Y-128840452D01*
X165000884Y-128750481D01*
X165000885Y-128750480D01*
X165000890Y-128750477D01*
X165120477Y-128630890D01*
X165210452Y-128487697D01*
X165210454Y-128487694D01*
X165210454Y-128487692D01*
X165210456Y-128487690D01*
X165266313Y-128328059D01*
X165266313Y-128328058D01*
X165266314Y-128328056D01*
X165285249Y-128160002D01*
X165285249Y-128159997D01*
X165266314Y-127991943D01*
X165210454Y-127832305D01*
X165210452Y-127832302D01*
X165120481Y-127689115D01*
X165120476Y-127689109D01*
X165000890Y-127569523D01*
X165000884Y-127569518D01*
X164857697Y-127479547D01*
X164857694Y-127479545D01*
X164698056Y-127423685D01*
X164530003Y-127404751D01*
X164529997Y-127404751D01*
X164361943Y-127423685D01*
X164202305Y-127479545D01*
X164202302Y-127479547D01*
X164059115Y-127569518D01*
X164059109Y-127569523D01*
X163939523Y-127689109D01*
X163939518Y-127689115D01*
X163849547Y-127832302D01*
X163849545Y-127832305D01*
X163793685Y-127991943D01*
X163774751Y-128159997D01*
X150200500Y-128159997D01*
X150200500Y-126199997D01*
X161894751Y-126199997D01*
X161894751Y-126200002D01*
X161913685Y-126368056D01*
X161969545Y-126527694D01*
X161969547Y-126527697D01*
X162059518Y-126670884D01*
X162059523Y-126670890D01*
X162179109Y-126790476D01*
X162179115Y-126790481D01*
X162322302Y-126880452D01*
X162322305Y-126880454D01*
X162322309Y-126880455D01*
X162322310Y-126880456D01*
X162394913Y-126905860D01*
X162481943Y-126936314D01*
X162649997Y-126955249D01*
X162650000Y-126955249D01*
X162650003Y-126955249D01*
X162818056Y-126936314D01*
X162818059Y-126936313D01*
X162977690Y-126880456D01*
X162977692Y-126880454D01*
X162977694Y-126880454D01*
X162977697Y-126880452D01*
X163120884Y-126790481D01*
X163120885Y-126790480D01*
X163120890Y-126790477D01*
X163240477Y-126670890D01*
X163284721Y-126600477D01*
X163330452Y-126527697D01*
X163330454Y-126527694D01*
X163330454Y-126527692D01*
X163330456Y-126527690D01*
X163386313Y-126368059D01*
X163386313Y-126368058D01*
X163386314Y-126368056D01*
X163405249Y-126200002D01*
X163405249Y-126199997D01*
X163386314Y-126031943D01*
X163378635Y-126009997D01*
X163664751Y-126009997D01*
X163664751Y-126010002D01*
X163683685Y-126178056D01*
X163739545Y-126337694D01*
X163739547Y-126337697D01*
X163829518Y-126480884D01*
X163829523Y-126480890D01*
X163949109Y-126600476D01*
X163949115Y-126600481D01*
X164092302Y-126690452D01*
X164092305Y-126690454D01*
X164092309Y-126690455D01*
X164092310Y-126690456D01*
X164137627Y-126706313D01*
X164251943Y-126746314D01*
X164419997Y-126765249D01*
X164420000Y-126765249D01*
X164420003Y-126765249D01*
X164588056Y-126746314D01*
X164588059Y-126746313D01*
X164747690Y-126690456D01*
X164747692Y-126690454D01*
X164747694Y-126690454D01*
X164747697Y-126690452D01*
X164890884Y-126600481D01*
X164890885Y-126600480D01*
X164890890Y-126600477D01*
X164901370Y-126589997D01*
X166944751Y-126589997D01*
X166944751Y-126590002D01*
X166963685Y-126758056D01*
X167019545Y-126917694D01*
X167019547Y-126917697D01*
X167109518Y-127060884D01*
X167109523Y-127060890D01*
X167229109Y-127180476D01*
X167229115Y-127180481D01*
X167372302Y-127270452D01*
X167372305Y-127270454D01*
X167372309Y-127270455D01*
X167372310Y-127270456D01*
X167417627Y-127286313D01*
X167531943Y-127326314D01*
X167699997Y-127345249D01*
X167700000Y-127345249D01*
X167700003Y-127345249D01*
X167868056Y-127326314D01*
X167868059Y-127326313D01*
X168027690Y-127270456D01*
X168027692Y-127270454D01*
X168027694Y-127270454D01*
X168027697Y-127270452D01*
X168170884Y-127180481D01*
X168170884Y-127180480D01*
X168170890Y-127180477D01*
X168190443Y-127160923D01*
X168251763Y-127127438D01*
X168321455Y-127132421D01*
X168344096Y-127143610D01*
X168482310Y-127230456D01*
X168596613Y-127270452D01*
X168641943Y-127286314D01*
X168809997Y-127305249D01*
X168810000Y-127305249D01*
X168810003Y-127305249D01*
X168978056Y-127286314D01*
X168978059Y-127286313D01*
X169137690Y-127230456D01*
X169137692Y-127230454D01*
X169137694Y-127230454D01*
X169137697Y-127230452D01*
X169280884Y-127140481D01*
X169280885Y-127140480D01*
X169280890Y-127140477D01*
X169400477Y-127020890D01*
X169400481Y-127020884D01*
X169490452Y-126877697D01*
X169490454Y-126877694D01*
X169490454Y-126877692D01*
X169490456Y-126877690D01*
X169546313Y-126718059D01*
X169546313Y-126718058D01*
X169546314Y-126718056D01*
X169565249Y-126550002D01*
X169565249Y-126549997D01*
X169546314Y-126381943D01*
X169513706Y-126288755D01*
X169490456Y-126222310D01*
X169490455Y-126222309D01*
X169490454Y-126222305D01*
X169490452Y-126222302D01*
X169400481Y-126079115D01*
X169400476Y-126079109D01*
X169291364Y-125969997D01*
X169724751Y-125969997D01*
X169724751Y-125970002D01*
X169743685Y-126138056D01*
X169799545Y-126297694D01*
X169799547Y-126297697D01*
X169889518Y-126440884D01*
X169889523Y-126440890D01*
X170009109Y-126560476D01*
X170009115Y-126560481D01*
X170152302Y-126650452D01*
X170152305Y-126650454D01*
X170152309Y-126650455D01*
X170152310Y-126650456D01*
X170202608Y-126668056D01*
X170311943Y-126706314D01*
X170479997Y-126725249D01*
X170480000Y-126725249D01*
X170480003Y-126725249D01*
X170648056Y-126706314D01*
X170648059Y-126706313D01*
X170807690Y-126650456D01*
X170807692Y-126650454D01*
X170807694Y-126650454D01*
X170807697Y-126650452D01*
X170950884Y-126560481D01*
X170950885Y-126560480D01*
X170950890Y-126560477D01*
X171070477Y-126440890D01*
X171148122Y-126317318D01*
X171200457Y-126271028D01*
X171269511Y-126260380D01*
X171333359Y-126288755D01*
X171371731Y-126347145D01*
X171376336Y-126397174D01*
X171364751Y-126499996D01*
X171364751Y-126500002D01*
X171383685Y-126668056D01*
X171439545Y-126827694D01*
X171439547Y-126827697D01*
X171529518Y-126970884D01*
X171529523Y-126970890D01*
X171649109Y-127090476D01*
X171649115Y-127090481D01*
X171792302Y-127180452D01*
X171792305Y-127180454D01*
X171792309Y-127180455D01*
X171792310Y-127180456D01*
X171864913Y-127205860D01*
X171951943Y-127236314D01*
X172119997Y-127255249D01*
X172120000Y-127255249D01*
X172120003Y-127255249D01*
X172288056Y-127236314D01*
X172304809Y-127230452D01*
X172447690Y-127180456D01*
X172447692Y-127180454D01*
X172447694Y-127180454D01*
X172447697Y-127180452D01*
X172590884Y-127090481D01*
X172590885Y-127090480D01*
X172590890Y-127090477D01*
X172710477Y-126970890D01*
X172732203Y-126936314D01*
X172800452Y-126827697D01*
X172800454Y-126827694D01*
X172800454Y-126827692D01*
X172800456Y-126827690D01*
X172856313Y-126668059D01*
X172856313Y-126668058D01*
X172856314Y-126668056D01*
X172875249Y-126500002D01*
X172875249Y-126499997D01*
X172856314Y-126331943D01*
X172803582Y-126181243D01*
X172800456Y-126172310D01*
X172800455Y-126172309D01*
X172800454Y-126172305D01*
X172800452Y-126172302D01*
X172710481Y-126029115D01*
X172710476Y-126029109D01*
X172709048Y-126027681D01*
X172708420Y-126026531D01*
X172706136Y-126023667D01*
X172706637Y-126023266D01*
X172675563Y-125966358D01*
X172680547Y-125896666D01*
X172709048Y-125852319D01*
X172740477Y-125820890D01*
X172758870Y-125802497D01*
X186957251Y-125802497D01*
X186957251Y-125802502D01*
X186976185Y-125970556D01*
X187032045Y-126130194D01*
X187032047Y-126130197D01*
X187122018Y-126273384D01*
X187122023Y-126273390D01*
X187241609Y-126392976D01*
X187241615Y-126392981D01*
X187384802Y-126482952D01*
X187384805Y-126482954D01*
X187384809Y-126482955D01*
X187384810Y-126482956D01*
X187433508Y-126499996D01*
X187544443Y-126538814D01*
X187712497Y-126557749D01*
X187712500Y-126557749D01*
X187712503Y-126557749D01*
X187880556Y-126538814D01*
X187880559Y-126538813D01*
X188040190Y-126482956D01*
X188040192Y-126482954D01*
X188040194Y-126482954D01*
X188040197Y-126482952D01*
X188183384Y-126392981D01*
X188183385Y-126392980D01*
X188183390Y-126392977D01*
X188302977Y-126273390D01*
X188311152Y-126260380D01*
X188392952Y-126130197D01*
X188392954Y-126130194D01*
X188392954Y-126130192D01*
X188392956Y-126130190D01*
X188448813Y-125970559D01*
X188448813Y-125970558D01*
X188448814Y-125970556D01*
X188467749Y-125802502D01*
X188467749Y-125802497D01*
X188448814Y-125634443D01*
X188408089Y-125518057D01*
X188392956Y-125474810D01*
X188392955Y-125474809D01*
X188392954Y-125474805D01*
X188392952Y-125474802D01*
X188302981Y-125331615D01*
X188302976Y-125331609D01*
X188183390Y-125212023D01*
X188183384Y-125212018D01*
X188040197Y-125122047D01*
X188040194Y-125122045D01*
X187880556Y-125066185D01*
X187712503Y-125047251D01*
X187712497Y-125047251D01*
X187544443Y-125066185D01*
X187384805Y-125122045D01*
X187384802Y-125122047D01*
X187241615Y-125212018D01*
X187241609Y-125212023D01*
X187122023Y-125331609D01*
X187122018Y-125331615D01*
X187032047Y-125474802D01*
X187032045Y-125474805D01*
X186976185Y-125634443D01*
X186957251Y-125802497D01*
X172758870Y-125802497D01*
X172790477Y-125770890D01*
X172816726Y-125729115D01*
X172880452Y-125627697D01*
X172880454Y-125627694D01*
X172880454Y-125627692D01*
X172880456Y-125627690D01*
X172936313Y-125468059D01*
X172936313Y-125468058D01*
X172936314Y-125468056D01*
X172955249Y-125300002D01*
X172955249Y-125299997D01*
X172936314Y-125131943D01*
X172897949Y-125022302D01*
X172880456Y-124972310D01*
X172880455Y-124972309D01*
X172880454Y-124972305D01*
X172880452Y-124972302D01*
X172790481Y-124829115D01*
X172790476Y-124829109D01*
X172670890Y-124709523D01*
X172670884Y-124709518D01*
X172527697Y-124619547D01*
X172527694Y-124619545D01*
X172368056Y-124563685D01*
X172200003Y-124544751D01*
X172199997Y-124544751D01*
X172031943Y-124563685D01*
X171872305Y-124619545D01*
X171872302Y-124619547D01*
X171729115Y-124709518D01*
X171729109Y-124709523D01*
X171609523Y-124829109D01*
X171609518Y-124829115D01*
X171519547Y-124972302D01*
X171519545Y-124972305D01*
X171463685Y-125131943D01*
X171444751Y-125299997D01*
X171444751Y-125300002D01*
X171463685Y-125468056D01*
X171519545Y-125627694D01*
X171519547Y-125627697D01*
X171609518Y-125770884D01*
X171609523Y-125770890D01*
X171610952Y-125772319D01*
X171611579Y-125773468D01*
X171613864Y-125776333D01*
X171613362Y-125776733D01*
X171644437Y-125833642D01*
X171639453Y-125903334D01*
X171610952Y-125947681D01*
X171529523Y-126029109D01*
X171529521Y-126029112D01*
X171451876Y-126152681D01*
X171399541Y-126198972D01*
X171330487Y-126209619D01*
X171266639Y-126181243D01*
X171228268Y-126122853D01*
X171223663Y-126072823D01*
X171226600Y-126046763D01*
X171235249Y-125970000D01*
X171234069Y-125959523D01*
X171216314Y-125801943D01*
X171178946Y-125695152D01*
X171160456Y-125642310D01*
X171160455Y-125642309D01*
X171160454Y-125642305D01*
X171160452Y-125642302D01*
X171070481Y-125499115D01*
X171070476Y-125499109D01*
X170950890Y-125379523D01*
X170950884Y-125379518D01*
X170807697Y-125289547D01*
X170807694Y-125289545D01*
X170648056Y-125233685D01*
X170480003Y-125214751D01*
X170479997Y-125214751D01*
X170311943Y-125233685D01*
X170152305Y-125289545D01*
X170152302Y-125289547D01*
X170009115Y-125379518D01*
X170009109Y-125379523D01*
X169889523Y-125499109D01*
X169889518Y-125499115D01*
X169799547Y-125642302D01*
X169799545Y-125642305D01*
X169743685Y-125801943D01*
X169724751Y-125969997D01*
X169291364Y-125969997D01*
X169280890Y-125959523D01*
X169213513Y-125917187D01*
X169167223Y-125864853D01*
X169156575Y-125795800D01*
X169184950Y-125731951D01*
X169238529Y-125695153D01*
X169337690Y-125660456D01*
X169337692Y-125660455D01*
X169337697Y-125660452D01*
X169480884Y-125570481D01*
X169480885Y-125570480D01*
X169480890Y-125570477D01*
X169600477Y-125450890D01*
X169600481Y-125450884D01*
X169690452Y-125307697D01*
X169690454Y-125307694D01*
X169690454Y-125307692D01*
X169690456Y-125307690D01*
X169746313Y-125148059D01*
X169746313Y-125148058D01*
X169746314Y-125148056D01*
X169765249Y-124980002D01*
X169765249Y-124979997D01*
X169746314Y-124811943D01*
X169690454Y-124652305D01*
X169690452Y-124652302D01*
X169600481Y-124509115D01*
X169600476Y-124509109D01*
X169480890Y-124389523D01*
X169480884Y-124389518D01*
X169337697Y-124299547D01*
X169337694Y-124299545D01*
X169178056Y-124243685D01*
X169010003Y-124224751D01*
X169009997Y-124224751D01*
X168841943Y-124243685D01*
X168682305Y-124299545D01*
X168682302Y-124299547D01*
X168539115Y-124389518D01*
X168539109Y-124389523D01*
X168419525Y-124509107D01*
X168419520Y-124509114D01*
X168388147Y-124559042D01*
X168335812Y-124605332D01*
X168318481Y-124611298D01*
X168318513Y-124611388D01*
X168311943Y-124613686D01*
X168311941Y-124613687D01*
X168256188Y-124633195D01*
X168152307Y-124669544D01*
X168152302Y-124669547D01*
X168009115Y-124759518D01*
X168009109Y-124759523D01*
X167889523Y-124879109D01*
X167889518Y-124879115D01*
X167799547Y-125022302D01*
X167799545Y-125022305D01*
X167743685Y-125181943D01*
X167724751Y-125349997D01*
X167724751Y-125350002D01*
X167743686Y-125518057D01*
X167797286Y-125671238D01*
X167800847Y-125741016D01*
X167766118Y-125801644D01*
X167704125Y-125833871D01*
X167694128Y-125835412D01*
X167531943Y-125853685D01*
X167372305Y-125909545D01*
X167372302Y-125909547D01*
X167229115Y-125999518D01*
X167229109Y-125999523D01*
X167109523Y-126119109D01*
X167109518Y-126119115D01*
X167019547Y-126262302D01*
X167019545Y-126262305D01*
X166963685Y-126421943D01*
X166944751Y-126589997D01*
X164901370Y-126589997D01*
X165010477Y-126480890D01*
X165047516Y-126421943D01*
X165100452Y-126337697D01*
X165100455Y-126337692D01*
X165102467Y-126331943D01*
X165139507Y-126226085D01*
X165180227Y-126169312D01*
X165242665Y-126143822D01*
X165293812Y-126138059D01*
X165398059Y-126126313D01*
X165398060Y-126126313D01*
X165479480Y-126097822D01*
X165529631Y-126080273D01*
X165599409Y-126076711D01*
X165658267Y-126109634D01*
X165709109Y-126160476D01*
X165709115Y-126160481D01*
X165852302Y-126250452D01*
X165852305Y-126250454D01*
X165852309Y-126250455D01*
X165852310Y-126250456D01*
X165886164Y-126262302D01*
X166011943Y-126306314D01*
X166179997Y-126325249D01*
X166180000Y-126325249D01*
X166180003Y-126325249D01*
X166348056Y-126306314D01*
X166372682Y-126297697D01*
X166507690Y-126250456D01*
X166507692Y-126250454D01*
X166507694Y-126250454D01*
X166507697Y-126250452D01*
X166650884Y-126160481D01*
X166650885Y-126160480D01*
X166650890Y-126160477D01*
X166770477Y-126040890D01*
X166778777Y-126027681D01*
X166860452Y-125897697D01*
X166860454Y-125897694D01*
X166860454Y-125897692D01*
X166860456Y-125897690D01*
X166916313Y-125738059D01*
X166916313Y-125738058D01*
X166916314Y-125738056D01*
X166935249Y-125570002D01*
X166935249Y-125569997D01*
X166916314Y-125401943D01*
X166871435Y-125273687D01*
X166860456Y-125242310D01*
X166860455Y-125242309D01*
X166860454Y-125242305D01*
X166860452Y-125242302D01*
X166770481Y-125099115D01*
X166770476Y-125099109D01*
X166650890Y-124979523D01*
X166650884Y-124979518D01*
X166507697Y-124889547D01*
X166507694Y-124889545D01*
X166348056Y-124833685D01*
X166180003Y-124814751D01*
X166179997Y-124814751D01*
X166011942Y-124833686D01*
X165880367Y-124879726D01*
X165810588Y-124883287D01*
X165751732Y-124850365D01*
X165700890Y-124799523D01*
X165700884Y-124799518D01*
X165557697Y-124709547D01*
X165557694Y-124709545D01*
X165398056Y-124653685D01*
X165230003Y-124634751D01*
X165229997Y-124634751D01*
X165061943Y-124653685D01*
X164902305Y-124709545D01*
X164902302Y-124709547D01*
X164759115Y-124799518D01*
X164759109Y-124799523D01*
X164639523Y-124919109D01*
X164639518Y-124919115D01*
X164549547Y-125062302D01*
X164549542Y-125062313D01*
X164510492Y-125173912D01*
X164469771Y-125230688D01*
X164407335Y-125256177D01*
X164251944Y-125273685D01*
X164092305Y-125329545D01*
X164092302Y-125329547D01*
X163949115Y-125419518D01*
X163949109Y-125419523D01*
X163829523Y-125539109D01*
X163829518Y-125539115D01*
X163739547Y-125682302D01*
X163739545Y-125682305D01*
X163683685Y-125841943D01*
X163664751Y-126009997D01*
X163378635Y-126009997D01*
X163347302Y-125920454D01*
X163330456Y-125872310D01*
X163330455Y-125872309D01*
X163330454Y-125872305D01*
X163330452Y-125872302D01*
X163240481Y-125729115D01*
X163240476Y-125729109D01*
X163120890Y-125609523D01*
X163120884Y-125609518D01*
X162977697Y-125519547D01*
X162977694Y-125519545D01*
X162818056Y-125463685D01*
X162650003Y-125444751D01*
X162649997Y-125444751D01*
X162481943Y-125463685D01*
X162322305Y-125519545D01*
X162322302Y-125519547D01*
X162179115Y-125609518D01*
X162179109Y-125609523D01*
X162059523Y-125729109D01*
X162059518Y-125729115D01*
X161969547Y-125872302D01*
X161969545Y-125872305D01*
X161913685Y-126031943D01*
X161894751Y-126199997D01*
X150200500Y-126199997D01*
X150200500Y-125239997D01*
X159094751Y-125239997D01*
X159094751Y-125240002D01*
X159113685Y-125408056D01*
X159169545Y-125567694D01*
X159169547Y-125567697D01*
X159259518Y-125710884D01*
X159259523Y-125710890D01*
X159379109Y-125830476D01*
X159379115Y-125830481D01*
X159522302Y-125920452D01*
X159522305Y-125920454D01*
X159522309Y-125920455D01*
X159522310Y-125920456D01*
X159545859Y-125928696D01*
X159681943Y-125976314D01*
X159849997Y-125995249D01*
X159850000Y-125995249D01*
X159850003Y-125995249D01*
X160018056Y-125976314D01*
X160034503Y-125970559D01*
X160177690Y-125920456D01*
X160177692Y-125920454D01*
X160177694Y-125920454D01*
X160177697Y-125920452D01*
X160320884Y-125830481D01*
X160320885Y-125830480D01*
X160320890Y-125830477D01*
X160440477Y-125710890D01*
X160458435Y-125682310D01*
X160530452Y-125567697D01*
X160530454Y-125567694D01*
X160530454Y-125567692D01*
X160530456Y-125567690D01*
X160586313Y-125408059D01*
X160586313Y-125408058D01*
X160586314Y-125408056D01*
X160605249Y-125240002D01*
X160605249Y-125239997D01*
X160586314Y-125071943D01*
X160530454Y-124912305D01*
X160530452Y-124912302D01*
X160440481Y-124769115D01*
X160440476Y-124769109D01*
X160320890Y-124649523D01*
X160320884Y-124649518D01*
X160177697Y-124559547D01*
X160177694Y-124559545D01*
X160018056Y-124503685D01*
X159850003Y-124484751D01*
X159849997Y-124484751D01*
X159681943Y-124503685D01*
X159522305Y-124559545D01*
X159522302Y-124559547D01*
X159379115Y-124649518D01*
X159379109Y-124649523D01*
X159259523Y-124769109D01*
X159259518Y-124769115D01*
X159169547Y-124912302D01*
X159169545Y-124912305D01*
X159113685Y-125071943D01*
X159094751Y-125239997D01*
X150200500Y-125239997D01*
X150200500Y-122399997D01*
X154279751Y-122399997D01*
X154279751Y-122400002D01*
X154298685Y-122568056D01*
X154354545Y-122727694D01*
X154354547Y-122727697D01*
X154444518Y-122870884D01*
X154444523Y-122870890D01*
X154564109Y-122990476D01*
X154564115Y-122990481D01*
X154707302Y-123080452D01*
X154707305Y-123080454D01*
X154707309Y-123080455D01*
X154707310Y-123080456D01*
X154779913Y-123105860D01*
X154866943Y-123136314D01*
X155034997Y-123155249D01*
X155035000Y-123155249D01*
X155035003Y-123155249D01*
X155203056Y-123136314D01*
X155203059Y-123136313D01*
X155362690Y-123080456D01*
X155362692Y-123080454D01*
X155362694Y-123080454D01*
X155362697Y-123080452D01*
X155505884Y-122990481D01*
X155505885Y-122990480D01*
X155505890Y-122990477D01*
X155616370Y-122879997D01*
X160444751Y-122879997D01*
X160444751Y-122880002D01*
X160463685Y-123048056D01*
X160519545Y-123207694D01*
X160519547Y-123207697D01*
X160609518Y-123350884D01*
X160609520Y-123350886D01*
X160609523Y-123350890D01*
X160659085Y-123400452D01*
X160690134Y-123431501D01*
X160723618Y-123492825D01*
X160725672Y-123533065D01*
X160714751Y-123629995D01*
X160714751Y-123630002D01*
X160733685Y-123798056D01*
X160789545Y-123957694D01*
X160789547Y-123957697D01*
X160879518Y-124100884D01*
X160879523Y-124100890D01*
X160999109Y-124220476D01*
X160999115Y-124220481D01*
X161142302Y-124310452D01*
X161142305Y-124310454D01*
X161142309Y-124310455D01*
X161142310Y-124310456D01*
X161214913Y-124335860D01*
X161301943Y-124366314D01*
X161469997Y-124385249D01*
X161470000Y-124385249D01*
X161470003Y-124385249D01*
X161638056Y-124366314D01*
X161638059Y-124366313D01*
X161797690Y-124310456D01*
X161797692Y-124310454D01*
X161797694Y-124310454D01*
X161797697Y-124310452D01*
X161940884Y-124220481D01*
X161940885Y-124220480D01*
X161940890Y-124220477D01*
X162060477Y-124100890D01*
X162069636Y-124086314D01*
X162150452Y-123957697D01*
X162150454Y-123957694D01*
X162150454Y-123957692D01*
X162150456Y-123957690D01*
X162206313Y-123798059D01*
X162206313Y-123798058D01*
X162206314Y-123798056D01*
X162225249Y-123630002D01*
X162225249Y-123629997D01*
X162206314Y-123461943D01*
X162150454Y-123302305D01*
X162150452Y-123302302D01*
X162060481Y-123159115D01*
X162060479Y-123159113D01*
X162060478Y-123159112D01*
X162060477Y-123159110D01*
X161979864Y-123078497D01*
X161946380Y-123017173D01*
X161944326Y-122976935D01*
X161955249Y-122880000D01*
X161955249Y-122879997D01*
X161947362Y-122809997D01*
X163454751Y-122809997D01*
X163454751Y-122810002D01*
X163473685Y-122978056D01*
X163529545Y-123137694D01*
X163529547Y-123137697D01*
X163619518Y-123280884D01*
X163619523Y-123280890D01*
X163739109Y-123400476D01*
X163739115Y-123400481D01*
X163882302Y-123490452D01*
X163882305Y-123490454D01*
X163882309Y-123490455D01*
X163882310Y-123490456D01*
X163954913Y-123515860D01*
X164041943Y-123546314D01*
X164209997Y-123565249D01*
X164210000Y-123565249D01*
X164210003Y-123565249D01*
X164378056Y-123546314D01*
X164378059Y-123546313D01*
X164537690Y-123490456D01*
X164537692Y-123490454D01*
X164537694Y-123490454D01*
X164537697Y-123490452D01*
X164680884Y-123400481D01*
X164680885Y-123400480D01*
X164680890Y-123400477D01*
X164800477Y-123280890D01*
X164800481Y-123280884D01*
X164890452Y-123137697D01*
X164890455Y-123137691D01*
X164890456Y-123137690D01*
X164946313Y-122978059D01*
X164951496Y-122932051D01*
X164978561Y-122867641D01*
X165008738Y-122840946D01*
X165120890Y-122770477D01*
X165171370Y-122719997D01*
X181104751Y-122719997D01*
X181104751Y-122720002D01*
X181123685Y-122888056D01*
X181179545Y-123047694D01*
X181179547Y-123047697D01*
X181269518Y-123190884D01*
X181269523Y-123190890D01*
X181389109Y-123310476D01*
X181389115Y-123310481D01*
X181532302Y-123400452D01*
X181532305Y-123400454D01*
X181532309Y-123400455D01*
X181532310Y-123400456D01*
X181604913Y-123425860D01*
X181691943Y-123456314D01*
X181859997Y-123475249D01*
X181860000Y-123475249D01*
X181860003Y-123475249D01*
X182028056Y-123456314D01*
X182028059Y-123456313D01*
X182187690Y-123400456D01*
X182187692Y-123400454D01*
X182187694Y-123400454D01*
X182187697Y-123400452D01*
X182267995Y-123349997D01*
X186074751Y-123349997D01*
X186074751Y-123350002D01*
X186093685Y-123518056D01*
X186149545Y-123677694D01*
X186149547Y-123677697D01*
X186239518Y-123820884D01*
X186239523Y-123820890D01*
X186359109Y-123940476D01*
X186359115Y-123940481D01*
X186502302Y-124030452D01*
X186502305Y-124030454D01*
X186502309Y-124030455D01*
X186502310Y-124030456D01*
X186574913Y-124055860D01*
X186661943Y-124086314D01*
X186829997Y-124105249D01*
X186830000Y-124105249D01*
X186830003Y-124105249D01*
X186998056Y-124086314D01*
X186998059Y-124086313D01*
X187157690Y-124030456D01*
X187157692Y-124030454D01*
X187157694Y-124030454D01*
X187157697Y-124030452D01*
X187300884Y-123940481D01*
X187300885Y-123940480D01*
X187300890Y-123940477D01*
X187420477Y-123820890D01*
X187510452Y-123677697D01*
X187510454Y-123677694D01*
X187510454Y-123677692D01*
X187510456Y-123677690D01*
X187566313Y-123518059D01*
X187566313Y-123518058D01*
X187566314Y-123518056D01*
X187585249Y-123350002D01*
X187585249Y-123349997D01*
X187566314Y-123181943D01*
X187516479Y-123039523D01*
X187510456Y-123022310D01*
X187510455Y-123022309D01*
X187510454Y-123022305D01*
X187510452Y-123022302D01*
X187420481Y-122879115D01*
X187420476Y-122879109D01*
X187300890Y-122759523D01*
X187300884Y-122759518D01*
X187157697Y-122669547D01*
X187157694Y-122669545D01*
X186998056Y-122613685D01*
X186830003Y-122594751D01*
X186829997Y-122594751D01*
X186661943Y-122613685D01*
X186502305Y-122669545D01*
X186502302Y-122669547D01*
X186359115Y-122759518D01*
X186359109Y-122759523D01*
X186239523Y-122879109D01*
X186239518Y-122879115D01*
X186149547Y-123022302D01*
X186149545Y-123022305D01*
X186093685Y-123181943D01*
X186074751Y-123349997D01*
X182267995Y-123349997D01*
X182330884Y-123310481D01*
X182330885Y-123310480D01*
X182330890Y-123310477D01*
X182450477Y-123190890D01*
X182483901Y-123137697D01*
X182540452Y-123047697D01*
X182540454Y-123047694D01*
X182540454Y-123047692D01*
X182540456Y-123047690D01*
X182596313Y-122888059D01*
X182596313Y-122888058D01*
X182596314Y-122888056D01*
X182615249Y-122720002D01*
X182615249Y-122719997D01*
X182596314Y-122551943D01*
X182546336Y-122409115D01*
X182540456Y-122392310D01*
X182540455Y-122392309D01*
X182540454Y-122392305D01*
X182540452Y-122392302D01*
X182450481Y-122249115D01*
X182450476Y-122249109D01*
X182330890Y-122129523D01*
X182330884Y-122129518D01*
X182187697Y-122039547D01*
X182187694Y-122039545D01*
X182028056Y-121983685D01*
X181860003Y-121964751D01*
X181859997Y-121964751D01*
X181691943Y-121983685D01*
X181532305Y-122039545D01*
X181532302Y-122039547D01*
X181389115Y-122129518D01*
X181389109Y-122129523D01*
X181269523Y-122249109D01*
X181269518Y-122249115D01*
X181179547Y-122392302D01*
X181179545Y-122392305D01*
X181123685Y-122551943D01*
X181104751Y-122719997D01*
X165171370Y-122719997D01*
X165240477Y-122650890D01*
X165246100Y-122641941D01*
X165330452Y-122507697D01*
X165330454Y-122507694D01*
X165330454Y-122507692D01*
X165330456Y-122507690D01*
X165386313Y-122348059D01*
X165386313Y-122348058D01*
X165386314Y-122348056D01*
X165405249Y-122180002D01*
X165405249Y-122179997D01*
X165386314Y-122011943D01*
X165330454Y-121852305D01*
X165330452Y-121852302D01*
X165240481Y-121709115D01*
X165240476Y-121709109D01*
X165120890Y-121589523D01*
X165120884Y-121589518D01*
X164977697Y-121499547D01*
X164977694Y-121499545D01*
X164818056Y-121443685D01*
X164650003Y-121424751D01*
X164649997Y-121424751D01*
X164481943Y-121443685D01*
X164322305Y-121499545D01*
X164322302Y-121499547D01*
X164179115Y-121589518D01*
X164179109Y-121589523D01*
X164059523Y-121709109D01*
X164059518Y-121709115D01*
X163969547Y-121852302D01*
X163969545Y-121852305D01*
X163913686Y-122011943D01*
X163908502Y-122057948D01*
X163881435Y-122122362D01*
X163851255Y-122149056D01*
X163739112Y-122219521D01*
X163739109Y-122219523D01*
X163619523Y-122339109D01*
X163619518Y-122339115D01*
X163529547Y-122482302D01*
X163529545Y-122482305D01*
X163473685Y-122641943D01*
X163454751Y-122809997D01*
X161947362Y-122809997D01*
X161936314Y-122711943D01*
X161880454Y-122552305D01*
X161880452Y-122552302D01*
X161790481Y-122409115D01*
X161790476Y-122409109D01*
X161670890Y-122289523D01*
X161670884Y-122289518D01*
X161527697Y-122199547D01*
X161527694Y-122199545D01*
X161368056Y-122143685D01*
X161200003Y-122124751D01*
X161199997Y-122124751D01*
X161031943Y-122143685D01*
X160872305Y-122199545D01*
X160872302Y-122199547D01*
X160729115Y-122289518D01*
X160729109Y-122289523D01*
X160609523Y-122409109D01*
X160609518Y-122409115D01*
X160519547Y-122552302D01*
X160519545Y-122552305D01*
X160463685Y-122711943D01*
X160444751Y-122879997D01*
X155616370Y-122879997D01*
X155625477Y-122870890D01*
X155625481Y-122870884D01*
X155715452Y-122727697D01*
X155715454Y-122727694D01*
X155715454Y-122727692D01*
X155715456Y-122727690D01*
X155771313Y-122568059D01*
X155771313Y-122568058D01*
X155771314Y-122568056D01*
X155790249Y-122400002D01*
X155790249Y-122399997D01*
X155771314Y-122231943D01*
X155715454Y-122072305D01*
X155715452Y-122072302D01*
X155625481Y-121929115D01*
X155625476Y-121929109D01*
X155505890Y-121809523D01*
X155505884Y-121809518D01*
X155362697Y-121719547D01*
X155362694Y-121719545D01*
X155203056Y-121663685D01*
X155035003Y-121644751D01*
X155034997Y-121644751D01*
X154866943Y-121663685D01*
X154707305Y-121719545D01*
X154707302Y-121719547D01*
X154564115Y-121809518D01*
X154564109Y-121809523D01*
X154444523Y-121929109D01*
X154444518Y-121929115D01*
X154354547Y-122072302D01*
X154354545Y-122072305D01*
X154298685Y-122231943D01*
X154279751Y-122399997D01*
X150200500Y-122399997D01*
X150200500Y-121149997D01*
X158024751Y-121149997D01*
X158024751Y-121150002D01*
X158043685Y-121318056D01*
X158099545Y-121477694D01*
X158099547Y-121477697D01*
X158189518Y-121620884D01*
X158189523Y-121620890D01*
X158309109Y-121740476D01*
X158309115Y-121740481D01*
X158452302Y-121830452D01*
X158452305Y-121830454D01*
X158452309Y-121830455D01*
X158452310Y-121830456D01*
X158524913Y-121855860D01*
X158611943Y-121886314D01*
X158779997Y-121905249D01*
X158780000Y-121905249D01*
X158780003Y-121905249D01*
X158948056Y-121886314D01*
X158948059Y-121886313D01*
X159107690Y-121830456D01*
X159107692Y-121830454D01*
X159107694Y-121830454D01*
X159107697Y-121830452D01*
X159250884Y-121740481D01*
X159250885Y-121740480D01*
X159250890Y-121740477D01*
X159370477Y-121620890D01*
X159370481Y-121620884D01*
X159440156Y-121509997D01*
X161634751Y-121509997D01*
X161634751Y-121510002D01*
X161653685Y-121678056D01*
X161709545Y-121837694D01*
X161709547Y-121837697D01*
X161799518Y-121980884D01*
X161799523Y-121980890D01*
X161919109Y-122100476D01*
X161919115Y-122100481D01*
X162062302Y-122190452D01*
X162062305Y-122190454D01*
X162062309Y-122190455D01*
X162062310Y-122190456D01*
X162088285Y-122199545D01*
X162221943Y-122246314D01*
X162389997Y-122265249D01*
X162390000Y-122265249D01*
X162390003Y-122265249D01*
X162558056Y-122246314D01*
X162599126Y-122231943D01*
X162717690Y-122190456D01*
X162717692Y-122190454D01*
X162717694Y-122190454D01*
X162717697Y-122190452D01*
X162860884Y-122100481D01*
X162860885Y-122100480D01*
X162860890Y-122100477D01*
X162980477Y-121980890D01*
X163013013Y-121929110D01*
X163070452Y-121837697D01*
X163070454Y-121837694D01*
X163070454Y-121837692D01*
X163070456Y-121837690D01*
X163126313Y-121678059D01*
X163126313Y-121678058D01*
X163126314Y-121678056D01*
X163145249Y-121510002D01*
X163145249Y-121509997D01*
X163126313Y-121341943D01*
X163126313Y-121341941D01*
X163124341Y-121336308D01*
X163120776Y-121266530D01*
X163153697Y-121207669D01*
X163220477Y-121140890D01*
X163233719Y-121119816D01*
X163310452Y-120997697D01*
X163310454Y-120997694D01*
X163310454Y-120997692D01*
X163310456Y-120997690D01*
X163366313Y-120838059D01*
X163366313Y-120838058D01*
X163366314Y-120838056D01*
X163385249Y-120670002D01*
X163385249Y-120669997D01*
X163366313Y-120501940D01*
X163366313Y-120501938D01*
X163333235Y-120407408D01*
X163329673Y-120337629D01*
X163362595Y-120278772D01*
X163460477Y-120180890D01*
X163461038Y-120179997D01*
X182774751Y-120179997D01*
X182774751Y-120180002D01*
X182793685Y-120348056D01*
X182849545Y-120507694D01*
X182849547Y-120507697D01*
X182939518Y-120650884D01*
X182939523Y-120650890D01*
X183059109Y-120770476D01*
X183059115Y-120770481D01*
X183202302Y-120860452D01*
X183202305Y-120860454D01*
X183202309Y-120860455D01*
X183202310Y-120860456D01*
X183274913Y-120885860D01*
X183361943Y-120916314D01*
X183529997Y-120935249D01*
X183530000Y-120935249D01*
X183530003Y-120935249D01*
X183698056Y-120916314D01*
X183706161Y-120913478D01*
X183857690Y-120860456D01*
X183857692Y-120860454D01*
X183857694Y-120860454D01*
X183857697Y-120860452D01*
X184000884Y-120770481D01*
X184000885Y-120770480D01*
X184000890Y-120770477D01*
X184120477Y-120650890D01*
X184210452Y-120507697D01*
X184210454Y-120507694D01*
X184210454Y-120507692D01*
X184210456Y-120507690D01*
X184266313Y-120348059D01*
X184266313Y-120348058D01*
X184266314Y-120348056D01*
X184285249Y-120180002D01*
X184285249Y-120179997D01*
X184266314Y-120011943D01*
X184210454Y-119852305D01*
X184210452Y-119852302D01*
X184120481Y-119709115D01*
X184120476Y-119709109D01*
X184000890Y-119589523D01*
X184000884Y-119589518D01*
X183857697Y-119499547D01*
X183857694Y-119499545D01*
X183698056Y-119443685D01*
X183530003Y-119424751D01*
X183529997Y-119424751D01*
X183361943Y-119443685D01*
X183202305Y-119499545D01*
X183202302Y-119499547D01*
X183059115Y-119589518D01*
X183059109Y-119589523D01*
X182939523Y-119709109D01*
X182939518Y-119709115D01*
X182849547Y-119852302D01*
X182849545Y-119852305D01*
X182793685Y-120011943D01*
X182774751Y-120179997D01*
X163461038Y-120179997D01*
X163495439Y-120125249D01*
X163550452Y-120037697D01*
X163550454Y-120037694D01*
X163550454Y-120037692D01*
X163550456Y-120037690D01*
X163606313Y-119878059D01*
X163606313Y-119878058D01*
X163606314Y-119878056D01*
X163625249Y-119710002D01*
X163625249Y-119709997D01*
X163606314Y-119541943D01*
X163582247Y-119473165D01*
X163570641Y-119439998D01*
X163567081Y-119370220D01*
X163567206Y-119369997D01*
X174414751Y-119369997D01*
X174414751Y-119370002D01*
X174433685Y-119538056D01*
X174489545Y-119697694D01*
X174489547Y-119697697D01*
X174579518Y-119840884D01*
X174579523Y-119840890D01*
X174699109Y-119960476D01*
X174699115Y-119960481D01*
X174842302Y-120050452D01*
X174842305Y-120050454D01*
X174842309Y-120050455D01*
X174842310Y-120050456D01*
X174914913Y-120075860D01*
X175001943Y-120106314D01*
X175169997Y-120125249D01*
X175170000Y-120125249D01*
X175170003Y-120125249D01*
X175338056Y-120106314D01*
X175352597Y-120101226D01*
X175497690Y-120050456D01*
X175497692Y-120050454D01*
X175497694Y-120050454D01*
X175497697Y-120050452D01*
X175640884Y-119960481D01*
X175640885Y-119960480D01*
X175640890Y-119960477D01*
X175760477Y-119840890D01*
X175803297Y-119772741D01*
X175855630Y-119726451D01*
X175913036Y-119716999D01*
X175913036Y-119715249D01*
X175920003Y-119715249D01*
X176088056Y-119696314D01*
X176088059Y-119696313D01*
X176247690Y-119640456D01*
X176247692Y-119640454D01*
X176247694Y-119640454D01*
X176247697Y-119640452D01*
X176390884Y-119550481D01*
X176390885Y-119550480D01*
X176390890Y-119550477D01*
X176510477Y-119430890D01*
X176510481Y-119430884D01*
X176600452Y-119287697D01*
X176600454Y-119287694D01*
X176600454Y-119287692D01*
X176600456Y-119287690D01*
X176656313Y-119128059D01*
X176656313Y-119128058D01*
X176656314Y-119128056D01*
X176675249Y-118960002D01*
X176675249Y-118959997D01*
X176656314Y-118791943D01*
X176600454Y-118632305D01*
X176600452Y-118632302D01*
X176510481Y-118489115D01*
X176510476Y-118489109D01*
X176390890Y-118369523D01*
X176390884Y-118369518D01*
X176247697Y-118279547D01*
X176247694Y-118279545D01*
X176088056Y-118223685D01*
X175920003Y-118204751D01*
X175919997Y-118204751D01*
X175751943Y-118223685D01*
X175592305Y-118279545D01*
X175592302Y-118279547D01*
X175449115Y-118369518D01*
X175449109Y-118369523D01*
X175329525Y-118489107D01*
X175329520Y-118489114D01*
X175286700Y-118557259D01*
X175234365Y-118603549D01*
X175176963Y-118613004D01*
X175176963Y-118614751D01*
X175169997Y-118614751D01*
X175001943Y-118633685D01*
X174842305Y-118689545D01*
X174842302Y-118689547D01*
X174699115Y-118779518D01*
X174699109Y-118779523D01*
X174579523Y-118899109D01*
X174579518Y-118899115D01*
X174489547Y-119042302D01*
X174489545Y-119042305D01*
X174433685Y-119201943D01*
X174414751Y-119369997D01*
X163567206Y-119369997D01*
X163600000Y-119311366D01*
X163680477Y-119230890D01*
X163693301Y-119210481D01*
X163770452Y-119087697D01*
X163770454Y-119087694D01*
X163770454Y-119087692D01*
X163770456Y-119087690D01*
X163826313Y-118928059D01*
X163826313Y-118928058D01*
X163826314Y-118928056D01*
X163845249Y-118760002D01*
X163845249Y-118759997D01*
X163826314Y-118591943D01*
X163777325Y-118451941D01*
X163770456Y-118432310D01*
X163770455Y-118432309D01*
X163770454Y-118432305D01*
X163770452Y-118432302D01*
X163680481Y-118289115D01*
X163680476Y-118289109D01*
X163560888Y-118169521D01*
X163422861Y-118082792D01*
X163376570Y-118030457D01*
X163365614Y-117991682D01*
X163355369Y-117900749D01*
X163355368Y-117900745D01*
X163342773Y-117864751D01*
X163295789Y-117730478D01*
X163270353Y-117689997D01*
X186694751Y-117689997D01*
X186694751Y-117690002D01*
X186713685Y-117858056D01*
X186769545Y-118017694D01*
X186769547Y-118017697D01*
X186859518Y-118160884D01*
X186859523Y-118160890D01*
X186979109Y-118280476D01*
X186979115Y-118280481D01*
X187122302Y-118370452D01*
X187122305Y-118370454D01*
X187122309Y-118370455D01*
X187122310Y-118370456D01*
X187281941Y-118426313D01*
X187281944Y-118426314D01*
X187350913Y-118434085D01*
X187415327Y-118461151D01*
X187454883Y-118518746D01*
X187460250Y-118571188D01*
X187454751Y-118619995D01*
X187454751Y-118620002D01*
X187473685Y-118788056D01*
X187529545Y-118947694D01*
X187529547Y-118947697D01*
X187619518Y-119090884D01*
X187619523Y-119090890D01*
X187739109Y-119210476D01*
X187739115Y-119210481D01*
X187882302Y-119300452D01*
X187882305Y-119300454D01*
X187882309Y-119300455D01*
X187882310Y-119300456D01*
X187913478Y-119311362D01*
X188041943Y-119356314D01*
X188209997Y-119375249D01*
X188210000Y-119375249D01*
X188210003Y-119375249D01*
X188378056Y-119356314D01*
X188394737Y-119350477D01*
X188537690Y-119300456D01*
X188537692Y-119300454D01*
X188537694Y-119300454D01*
X188537697Y-119300452D01*
X188680884Y-119210481D01*
X188680885Y-119210480D01*
X188680890Y-119210477D01*
X188800477Y-119090890D01*
X188800481Y-119090884D01*
X188890452Y-118947697D01*
X188890454Y-118947694D01*
X188890454Y-118947692D01*
X188890456Y-118947690D01*
X188946313Y-118788059D01*
X188946313Y-118788058D01*
X188946314Y-118788056D01*
X188965249Y-118620002D01*
X188965249Y-118619997D01*
X188946314Y-118451943D01*
X188890454Y-118292305D01*
X188890452Y-118292302D01*
X188800481Y-118149115D01*
X188800476Y-118149109D01*
X188680890Y-118029523D01*
X188680884Y-118029518D01*
X188537697Y-117939547D01*
X188537694Y-117939545D01*
X188378056Y-117883686D01*
X188309084Y-117875914D01*
X188244670Y-117848847D01*
X188205116Y-117791251D01*
X188199749Y-117738809D01*
X188205249Y-117690000D01*
X188205249Y-117689997D01*
X188186314Y-117521943D01*
X188130454Y-117362305D01*
X188130452Y-117362302D01*
X188040481Y-117219115D01*
X188040476Y-117219109D01*
X187920890Y-117099523D01*
X187920884Y-117099518D01*
X187777697Y-117009547D01*
X187777694Y-117009545D01*
X187618056Y-116953685D01*
X187450003Y-116934751D01*
X187449997Y-116934751D01*
X187281943Y-116953685D01*
X187122305Y-117009545D01*
X187122302Y-117009547D01*
X186979115Y-117099518D01*
X186979109Y-117099523D01*
X186859523Y-117219109D01*
X186859518Y-117219115D01*
X186769547Y-117362302D01*
X186769545Y-117362305D01*
X186713685Y-117521943D01*
X186694751Y-117689997D01*
X163270353Y-117689997D01*
X163199816Y-117577738D01*
X163072262Y-117450184D01*
X162919523Y-117354211D01*
X162749254Y-117294631D01*
X162749249Y-117294630D01*
X162570004Y-117274435D01*
X162569996Y-117274435D01*
X162390750Y-117294630D01*
X162390745Y-117294631D01*
X162220476Y-117354211D01*
X162067737Y-117450184D01*
X161940184Y-117577737D01*
X161844211Y-117730476D01*
X161784631Y-117900745D01*
X161784630Y-117900750D01*
X161764435Y-118079996D01*
X161764435Y-118080003D01*
X161784630Y-118259249D01*
X161784631Y-118259254D01*
X161844211Y-118429523D01*
X161933226Y-118571188D01*
X161940184Y-118582262D01*
X162067738Y-118709816D01*
X162220478Y-118805789D01*
X162271270Y-118823561D01*
X162328045Y-118864282D01*
X162351379Y-118921435D01*
X162352135Y-118921263D01*
X162353182Y-118925852D01*
X162353535Y-118926715D01*
X162353685Y-118928054D01*
X162389358Y-119030000D01*
X162392919Y-119099779D01*
X162359998Y-119158635D01*
X162279518Y-119239115D01*
X162189547Y-119382302D01*
X162189545Y-119382305D01*
X162133685Y-119541943D01*
X162114751Y-119709997D01*
X162114751Y-119710002D01*
X162133686Y-119878057D01*
X162166765Y-119972592D01*
X162170326Y-120042370D01*
X162137405Y-120101226D01*
X162039524Y-120199108D01*
X162039518Y-120199115D01*
X161949547Y-120342302D01*
X161949545Y-120342305D01*
X161893685Y-120501943D01*
X161874751Y-120669997D01*
X161874751Y-120670002D01*
X161893686Y-120838058D01*
X161895660Y-120843699D01*
X161899221Y-120913478D01*
X161866300Y-120972333D01*
X161799518Y-121039115D01*
X161709547Y-121182302D01*
X161709545Y-121182305D01*
X161653685Y-121341943D01*
X161634751Y-121509997D01*
X159440156Y-121509997D01*
X159460452Y-121477697D01*
X159460454Y-121477694D01*
X159460454Y-121477692D01*
X159460456Y-121477690D01*
X159516313Y-121318059D01*
X159516313Y-121318058D01*
X159516314Y-121318056D01*
X159535249Y-121150002D01*
X159535249Y-121149997D01*
X159516314Y-120981943D01*
X159460454Y-120822305D01*
X159460452Y-120822302D01*
X159370481Y-120679115D01*
X159370476Y-120679109D01*
X159250890Y-120559523D01*
X159250884Y-120559518D01*
X159140241Y-120489996D01*
X159784435Y-120489996D01*
X159784435Y-120490003D01*
X159804630Y-120669249D01*
X159804631Y-120669254D01*
X159864211Y-120839523D01*
X159913481Y-120917935D01*
X159960184Y-120992262D01*
X160087738Y-121119816D01*
X160121277Y-121140890D01*
X160227548Y-121207665D01*
X160240478Y-121215789D01*
X160410745Y-121275368D01*
X160410750Y-121275369D01*
X160589996Y-121295565D01*
X160590000Y-121295565D01*
X160590004Y-121295565D01*
X160769249Y-121275369D01*
X160769252Y-121275368D01*
X160769255Y-121275368D01*
X160939522Y-121215789D01*
X161092262Y-121119816D01*
X161219816Y-120992262D01*
X161315789Y-120839522D01*
X161375368Y-120669255D01*
X161375369Y-120669249D01*
X161395565Y-120490003D01*
X161395565Y-120489996D01*
X161375369Y-120310750D01*
X161375368Y-120310745D01*
X161336305Y-120199110D01*
X161315789Y-120140478D01*
X161219816Y-119987738D01*
X161092262Y-119860184D01*
X160953101Y-119772743D01*
X160939523Y-119764211D01*
X160769254Y-119704631D01*
X160769249Y-119704630D01*
X160590004Y-119684435D01*
X160589996Y-119684435D01*
X160410750Y-119704630D01*
X160410745Y-119704631D01*
X160240476Y-119764211D01*
X160087737Y-119860184D01*
X159960184Y-119987737D01*
X159864211Y-120140476D01*
X159804631Y-120310745D01*
X159804630Y-120310750D01*
X159784435Y-120489996D01*
X159140241Y-120489996D01*
X159107697Y-120469547D01*
X159107694Y-120469545D01*
X158948056Y-120413685D01*
X158780003Y-120394751D01*
X158779997Y-120394751D01*
X158611943Y-120413685D01*
X158452305Y-120469545D01*
X158452302Y-120469547D01*
X158309115Y-120559518D01*
X158309109Y-120559523D01*
X158189523Y-120679109D01*
X158189518Y-120679115D01*
X158099547Y-120822302D01*
X158099545Y-120822305D01*
X158043685Y-120981943D01*
X158024751Y-121149997D01*
X150200500Y-121149997D01*
X150200500Y-116409997D01*
X164154751Y-116409997D01*
X164154751Y-116410002D01*
X164173685Y-116578056D01*
X164229545Y-116737694D01*
X164229547Y-116737697D01*
X164319518Y-116880884D01*
X164319523Y-116880890D01*
X164439109Y-117000476D01*
X164439115Y-117000481D01*
X164582302Y-117090452D01*
X164582305Y-117090454D01*
X164582309Y-117090455D01*
X164582310Y-117090456D01*
X164654913Y-117115860D01*
X164741943Y-117146314D01*
X164909997Y-117165249D01*
X164910000Y-117165249D01*
X164910003Y-117165249D01*
X165078056Y-117146314D01*
X165078059Y-117146313D01*
X165237690Y-117090456D01*
X165237692Y-117090454D01*
X165237694Y-117090454D01*
X165237697Y-117090452D01*
X165380884Y-117000481D01*
X165380885Y-117000480D01*
X165380890Y-117000477D01*
X165500477Y-116880890D01*
X165590454Y-116737694D01*
X165590455Y-116737692D01*
X165590456Y-116737690D01*
X165640627Y-116594306D01*
X165681347Y-116537533D01*
X165746300Y-116511785D01*
X165771547Y-116512042D01*
X165800000Y-116515249D01*
X165800001Y-116515248D01*
X165800002Y-116515249D01*
X165800003Y-116515249D01*
X165968056Y-116496314D01*
X165968059Y-116496313D01*
X166127690Y-116440456D01*
X166127692Y-116440454D01*
X166127694Y-116440454D01*
X166127697Y-116440452D01*
X166270884Y-116350481D01*
X166270885Y-116350480D01*
X166270890Y-116350477D01*
X166390477Y-116230890D01*
X166480452Y-116087697D01*
X166480454Y-116087694D01*
X166480454Y-116087692D01*
X166480456Y-116087690D01*
X166536313Y-115928059D01*
X166536313Y-115928057D01*
X166536314Y-115928055D01*
X166547548Y-115828349D01*
X166574614Y-115763935D01*
X166632209Y-115724380D01*
X166684649Y-115719012D01*
X166740000Y-115725249D01*
X166740003Y-115725249D01*
X166908056Y-115706314D01*
X166931736Y-115698028D01*
X167067690Y-115650456D01*
X167067692Y-115650454D01*
X167067694Y-115650454D01*
X167067697Y-115650452D01*
X167210884Y-115560481D01*
X167210885Y-115560480D01*
X167210890Y-115560477D01*
X167330477Y-115440890D01*
X167330481Y-115440884D01*
X167420452Y-115297697D01*
X167420454Y-115297694D01*
X167420454Y-115297692D01*
X167420456Y-115297690D01*
X167476313Y-115138059D01*
X167476313Y-115138058D01*
X167476314Y-115138056D01*
X167495249Y-114970002D01*
X167495249Y-114969997D01*
X167476314Y-114801943D01*
X167420454Y-114642305D01*
X167420452Y-114642302D01*
X167330481Y-114499115D01*
X167330476Y-114499109D01*
X167210890Y-114379523D01*
X167210884Y-114379518D01*
X167067697Y-114289547D01*
X167067694Y-114289545D01*
X166908056Y-114233685D01*
X166740003Y-114214751D01*
X166739997Y-114214751D01*
X166571943Y-114233685D01*
X166412305Y-114289545D01*
X166412302Y-114289547D01*
X166269115Y-114379518D01*
X166269109Y-114379523D01*
X166149523Y-114499109D01*
X166149518Y-114499115D01*
X166059547Y-114642302D01*
X166059545Y-114642305D01*
X166003686Y-114801943D01*
X165992451Y-114901651D01*
X165965384Y-114966064D01*
X165907789Y-115005619D01*
X165855349Y-115010986D01*
X165800005Y-115004751D01*
X165799997Y-115004751D01*
X165631943Y-115023685D01*
X165472305Y-115079545D01*
X165472302Y-115079547D01*
X165329115Y-115169518D01*
X165329109Y-115169523D01*
X165209523Y-115289109D01*
X165209518Y-115289115D01*
X165119547Y-115432302D01*
X165119542Y-115432313D01*
X165069372Y-115575691D01*
X165028651Y-115632467D01*
X164963698Y-115658214D01*
X164938447Y-115657956D01*
X164910003Y-115654751D01*
X164909997Y-115654751D01*
X164741943Y-115673685D01*
X164582305Y-115729545D01*
X164582302Y-115729547D01*
X164439115Y-115819518D01*
X164439109Y-115819523D01*
X164319523Y-115939109D01*
X164319518Y-115939115D01*
X164229547Y-116082302D01*
X164229545Y-116082305D01*
X164173685Y-116241943D01*
X164154751Y-116409997D01*
X150200500Y-116409997D01*
X150200500Y-112599997D01*
X160834751Y-112599997D01*
X160834751Y-112600002D01*
X160853685Y-112768056D01*
X160909545Y-112927694D01*
X160909547Y-112927697D01*
X160999518Y-113070884D01*
X160999523Y-113070890D01*
X161119109Y-113190476D01*
X161119115Y-113190481D01*
X161262302Y-113280452D01*
X161262305Y-113280454D01*
X161262309Y-113280455D01*
X161262310Y-113280456D01*
X161309379Y-113296926D01*
X161421943Y-113336314D01*
X161589997Y-113355249D01*
X161590000Y-113355249D01*
X161590003Y-113355249D01*
X161758056Y-113336314D01*
X161779104Y-113328949D01*
X161917690Y-113280456D01*
X161917692Y-113280454D01*
X161917694Y-113280454D01*
X161917697Y-113280452D01*
X162060884Y-113190481D01*
X162060885Y-113190480D01*
X162060890Y-113190477D01*
X162180477Y-113070890D01*
X162181360Y-113069485D01*
X162188913Y-113057465D01*
X163184200Y-113057465D01*
X163184200Y-113194534D01*
X163210937Y-113328949D01*
X163210940Y-113328961D01*
X163263386Y-113455578D01*
X163263393Y-113455591D01*
X163339536Y-113569546D01*
X163339539Y-113569550D01*
X163436449Y-113666460D01*
X163436453Y-113666463D01*
X163550408Y-113742606D01*
X163550421Y-113742613D01*
X163595220Y-113761169D01*
X163677043Y-113795061D01*
X163811465Y-113821799D01*
X163811469Y-113821800D01*
X163811470Y-113821800D01*
X163948531Y-113821800D01*
X163948532Y-113821799D01*
X164082957Y-113795061D01*
X164164780Y-113761168D01*
X164234247Y-113753700D01*
X164296726Y-113784975D01*
X164332379Y-113845063D01*
X164329886Y-113914889D01*
X164329274Y-113916682D01*
X164318686Y-113946942D01*
X164299751Y-114114997D01*
X164299751Y-114115002D01*
X164318685Y-114283056D01*
X164374545Y-114442694D01*
X164374547Y-114442697D01*
X164464518Y-114585884D01*
X164464523Y-114585890D01*
X164584109Y-114705476D01*
X164584115Y-114705481D01*
X164727302Y-114795452D01*
X164727305Y-114795454D01*
X164727309Y-114795455D01*
X164727310Y-114795456D01*
X164745849Y-114801943D01*
X164886943Y-114851314D01*
X165054997Y-114870249D01*
X165055000Y-114870249D01*
X165055003Y-114870249D01*
X165223056Y-114851314D01*
X165223059Y-114851313D01*
X165382690Y-114795456D01*
X165382692Y-114795454D01*
X165382694Y-114795454D01*
X165382697Y-114795452D01*
X165525884Y-114705481D01*
X165525885Y-114705480D01*
X165525890Y-114705477D01*
X165645477Y-114585890D01*
X165700005Y-114499110D01*
X165735452Y-114442697D01*
X165735454Y-114442694D01*
X165735454Y-114442692D01*
X165735456Y-114442690D01*
X165791313Y-114283059D01*
X165791313Y-114283058D01*
X165791314Y-114283056D01*
X165810249Y-114115002D01*
X165810249Y-114114997D01*
X165791314Y-113946943D01*
X165760860Y-113859913D01*
X165735456Y-113787310D01*
X165735455Y-113787309D01*
X165735454Y-113787305D01*
X165735452Y-113787302D01*
X165711974Y-113749937D01*
X170218285Y-113749937D01*
X170218285Y-113749942D01*
X170237219Y-113917996D01*
X170293079Y-114077634D01*
X170293081Y-114077637D01*
X170383052Y-114220824D01*
X170383057Y-114220830D01*
X170502643Y-114340416D01*
X170502649Y-114340421D01*
X170645836Y-114430392D01*
X170645839Y-114430394D01*
X170645843Y-114430395D01*
X170645844Y-114430396D01*
X170718447Y-114455800D01*
X170805477Y-114486254D01*
X170973531Y-114505189D01*
X170973534Y-114505189D01*
X170973537Y-114505189D01*
X171141590Y-114486254D01*
X171141593Y-114486253D01*
X171301224Y-114430396D01*
X171301226Y-114430394D01*
X171301228Y-114430394D01*
X171301231Y-114430392D01*
X171444418Y-114340421D01*
X171444419Y-114340420D01*
X171444424Y-114340417D01*
X171564011Y-114220830D01*
X171567831Y-114214751D01*
X171653986Y-114077637D01*
X171653988Y-114077634D01*
X171653988Y-114077632D01*
X171653990Y-114077630D01*
X171709847Y-113917999D01*
X171709847Y-113917998D01*
X171709848Y-113917996D01*
X171728783Y-113749942D01*
X171728783Y-113749937D01*
X171709848Y-113581883D01*
X171661666Y-113444187D01*
X171653990Y-113422250D01*
X171653989Y-113422249D01*
X171653988Y-113422245D01*
X171653986Y-113422242D01*
X171564015Y-113279055D01*
X171564010Y-113279049D01*
X171444424Y-113159463D01*
X171444418Y-113159458D01*
X171301231Y-113069487D01*
X171301228Y-113069485D01*
X171141590Y-113013625D01*
X170973537Y-112994691D01*
X170973531Y-112994691D01*
X170805477Y-113013625D01*
X170645839Y-113069485D01*
X170645836Y-113069487D01*
X170502649Y-113159458D01*
X170502643Y-113159463D01*
X170383057Y-113279049D01*
X170383052Y-113279055D01*
X170293081Y-113422242D01*
X170293079Y-113422245D01*
X170237219Y-113581883D01*
X170218285Y-113749937D01*
X165711974Y-113749937D01*
X165645481Y-113644115D01*
X165645476Y-113644109D01*
X165525890Y-113524523D01*
X165525884Y-113524518D01*
X165382697Y-113434547D01*
X165382694Y-113434545D01*
X165223056Y-113378685D01*
X165055003Y-113359751D01*
X165054997Y-113359751D01*
X164886943Y-113378685D01*
X164779011Y-113416453D01*
X164727310Y-113434544D01*
X164727308Y-113434544D01*
X164720738Y-113436844D01*
X164719965Y-113434634D01*
X164661886Y-113444187D01*
X164597757Y-113416453D01*
X164558802Y-113358451D01*
X164555432Y-113296926D01*
X164558708Y-113280456D01*
X164575800Y-113194530D01*
X164575800Y-113057470D01*
X164549061Y-112923043D01*
X164539714Y-112900477D01*
X164502236Y-112809997D01*
X177567251Y-112809997D01*
X177567251Y-112810002D01*
X177586185Y-112978056D01*
X177642045Y-113137694D01*
X177642047Y-113137697D01*
X177732018Y-113280884D01*
X177732023Y-113280890D01*
X177851609Y-113400476D01*
X177851615Y-113400481D01*
X177994802Y-113490452D01*
X177994805Y-113490454D01*
X177994809Y-113490455D01*
X177994810Y-113490456D01*
X178067413Y-113515860D01*
X178154443Y-113546314D01*
X178322497Y-113565249D01*
X178322500Y-113565249D01*
X178322503Y-113565249D01*
X178490556Y-113546314D01*
X178490559Y-113546313D01*
X178650190Y-113490456D01*
X178650192Y-113490454D01*
X178650194Y-113490454D01*
X178650197Y-113490452D01*
X178793384Y-113400481D01*
X178793385Y-113400480D01*
X178793390Y-113400477D01*
X178912977Y-113280890D01*
X178914134Y-113279049D01*
X179002952Y-113137697D01*
X179002954Y-113137694D01*
X179002954Y-113137692D01*
X179002956Y-113137690D01*
X179058813Y-112978059D01*
X179058813Y-112978058D01*
X179058814Y-112978056D01*
X179077749Y-112810002D01*
X179077749Y-112809997D01*
X179058814Y-112641943D01*
X179027882Y-112553546D01*
X179002956Y-112482310D01*
X179002955Y-112482309D01*
X179002954Y-112482305D01*
X179002952Y-112482302D01*
X178912981Y-112339115D01*
X178912976Y-112339109D01*
X178793390Y-112219523D01*
X178793384Y-112219518D01*
X178650197Y-112129547D01*
X178650194Y-112129545D01*
X178490556Y-112073685D01*
X178322503Y-112054751D01*
X178322497Y-112054751D01*
X178154443Y-112073685D01*
X177994805Y-112129545D01*
X177994802Y-112129547D01*
X177851615Y-112219518D01*
X177851609Y-112219523D01*
X177732023Y-112339109D01*
X177732018Y-112339115D01*
X177642047Y-112482302D01*
X177642045Y-112482305D01*
X177586185Y-112641943D01*
X177567251Y-112809997D01*
X164502236Y-112809997D01*
X164496613Y-112796421D01*
X164496606Y-112796408D01*
X164420463Y-112682453D01*
X164420460Y-112682449D01*
X164323550Y-112585539D01*
X164323546Y-112585536D01*
X164209591Y-112509393D01*
X164209578Y-112509386D01*
X164082961Y-112456940D01*
X164082949Y-112456937D01*
X163948534Y-112430200D01*
X163948530Y-112430200D01*
X163811470Y-112430200D01*
X163811465Y-112430200D01*
X163677050Y-112456937D01*
X163677038Y-112456940D01*
X163550421Y-112509386D01*
X163550408Y-112509393D01*
X163436453Y-112585536D01*
X163436449Y-112585539D01*
X163339539Y-112682449D01*
X163339536Y-112682453D01*
X163263393Y-112796408D01*
X163263386Y-112796421D01*
X163210940Y-112923038D01*
X163210937Y-112923050D01*
X163184200Y-113057465D01*
X162188913Y-113057465D01*
X162270452Y-112927697D01*
X162270454Y-112927694D01*
X162270454Y-112927692D01*
X162270456Y-112927690D01*
X162326313Y-112768059D01*
X162326313Y-112768058D01*
X162326314Y-112768056D01*
X162345249Y-112600002D01*
X162345249Y-112599997D01*
X162326314Y-112431943D01*
X162270454Y-112272305D01*
X162270452Y-112272302D01*
X162180481Y-112129115D01*
X162180476Y-112129109D01*
X162089048Y-112037681D01*
X162055563Y-111976358D01*
X162060547Y-111906666D01*
X162089048Y-111862319D01*
X162136022Y-111815345D01*
X162190477Y-111760890D01*
X162216473Y-111719518D01*
X162280452Y-111617697D01*
X162280454Y-111617694D01*
X162280454Y-111617692D01*
X162280456Y-111617690D01*
X162336313Y-111458059D01*
X162336313Y-111458058D01*
X162336314Y-111458056D01*
X162355249Y-111290002D01*
X162355249Y-111289997D01*
X162336314Y-111121943D01*
X162305860Y-111034913D01*
X162302554Y-111025465D01*
X163184200Y-111025465D01*
X163184200Y-111162534D01*
X163210937Y-111296949D01*
X163210940Y-111296961D01*
X163263386Y-111423578D01*
X163263393Y-111423591D01*
X163339536Y-111537546D01*
X163339539Y-111537550D01*
X163436449Y-111634460D01*
X163436453Y-111634463D01*
X163550408Y-111710606D01*
X163550421Y-111710613D01*
X163639951Y-111747697D01*
X163677043Y-111763061D01*
X163811465Y-111789799D01*
X163811469Y-111789800D01*
X163811470Y-111789800D01*
X163948531Y-111789800D01*
X163948532Y-111789799D01*
X164082957Y-111763061D01*
X164209585Y-111710610D01*
X164323547Y-111634463D01*
X164420463Y-111537547D01*
X164496610Y-111423585D01*
X164549061Y-111296957D01*
X164575800Y-111162530D01*
X164575800Y-111025470D01*
X164549061Y-110891043D01*
X164523577Y-110829518D01*
X164496613Y-110764421D01*
X164496606Y-110764408D01*
X164420463Y-110650453D01*
X164420460Y-110650449D01*
X164323550Y-110553539D01*
X164323546Y-110553536D01*
X164209591Y-110477393D01*
X164209578Y-110477386D01*
X164082961Y-110424940D01*
X164082949Y-110424937D01*
X163948534Y-110398200D01*
X163948530Y-110398200D01*
X163811470Y-110398200D01*
X163811465Y-110398200D01*
X163677050Y-110424937D01*
X163677038Y-110424940D01*
X163550421Y-110477386D01*
X163550408Y-110477393D01*
X163436453Y-110553536D01*
X163436449Y-110553539D01*
X163339539Y-110650449D01*
X163339536Y-110650453D01*
X163263393Y-110764408D01*
X163263386Y-110764421D01*
X163210940Y-110891038D01*
X163210937Y-110891050D01*
X163184200Y-111025465D01*
X162302554Y-111025465D01*
X162280456Y-110962310D01*
X162280455Y-110962309D01*
X162280454Y-110962305D01*
X162280452Y-110962302D01*
X162190481Y-110819115D01*
X162190476Y-110819109D01*
X162070890Y-110699523D01*
X162070884Y-110699518D01*
X161927697Y-110609547D01*
X161927694Y-110609545D01*
X161768056Y-110553685D01*
X161600003Y-110534751D01*
X161599997Y-110534751D01*
X161431943Y-110553685D01*
X161272305Y-110609545D01*
X161272302Y-110609547D01*
X161129115Y-110699518D01*
X161129109Y-110699523D01*
X161009523Y-110819109D01*
X161009518Y-110819115D01*
X160919547Y-110962302D01*
X160919545Y-110962305D01*
X160863685Y-111121943D01*
X160844751Y-111289997D01*
X160844751Y-111290002D01*
X160863685Y-111458056D01*
X160919545Y-111617694D01*
X160919547Y-111617697D01*
X161009518Y-111760884D01*
X161009523Y-111760890D01*
X161100952Y-111852319D01*
X161134437Y-111913642D01*
X161129453Y-111983334D01*
X161100952Y-112027681D01*
X160999523Y-112129109D01*
X160999518Y-112129115D01*
X160909547Y-112272302D01*
X160909545Y-112272305D01*
X160853685Y-112431943D01*
X160834751Y-112599997D01*
X150200500Y-112599997D01*
X150200500Y-111552883D01*
X150220185Y-111485844D01*
X150272989Y-111440089D01*
X150342147Y-111430145D01*
X150405703Y-111459170D01*
X150441542Y-111511929D01*
X150499544Y-111677691D01*
X150499547Y-111677697D01*
X150589518Y-111820884D01*
X150589523Y-111820890D01*
X150709109Y-111940476D01*
X150709115Y-111940481D01*
X150852302Y-112030452D01*
X150852305Y-112030454D01*
X150852309Y-112030455D01*
X150852310Y-112030456D01*
X150924913Y-112055860D01*
X151011943Y-112086314D01*
X151179997Y-112105249D01*
X151180000Y-112105249D01*
X151180003Y-112105249D01*
X151348056Y-112086314D01*
X151384142Y-112073687D01*
X151507690Y-112030456D01*
X151507692Y-112030454D01*
X151507694Y-112030454D01*
X151507697Y-112030452D01*
X151650884Y-111940481D01*
X151650885Y-111940480D01*
X151650890Y-111940477D01*
X151770477Y-111820890D01*
X151773961Y-111815345D01*
X151860452Y-111677697D01*
X151860454Y-111677694D01*
X151860455Y-111677691D01*
X151860456Y-111677690D01*
X151916313Y-111518059D01*
X151916313Y-111518058D01*
X151916314Y-111518056D01*
X151935249Y-111350002D01*
X151935249Y-111349997D01*
X151916314Y-111181943D01*
X151884947Y-111092302D01*
X151860456Y-111022310D01*
X151860455Y-111022309D01*
X151860454Y-111022305D01*
X151860452Y-111022302D01*
X151770481Y-110879115D01*
X151770476Y-110879109D01*
X151699048Y-110807681D01*
X151665563Y-110746358D01*
X151670547Y-110676666D01*
X151699048Y-110632319D01*
X151722974Y-110608393D01*
X151780477Y-110550890D01*
X151806473Y-110509518D01*
X151870452Y-110407697D01*
X151870454Y-110407694D01*
X151870454Y-110407692D01*
X151870456Y-110407690D01*
X151926313Y-110248059D01*
X151926313Y-110248058D01*
X151926314Y-110248056D01*
X151945249Y-110080002D01*
X151945249Y-110079997D01*
X151926314Y-109911943D01*
X151887762Y-109801768D01*
X151870456Y-109752310D01*
X151870455Y-109752309D01*
X151870454Y-109752305D01*
X151870452Y-109752302D01*
X151780481Y-109609115D01*
X151780476Y-109609109D01*
X151694048Y-109522681D01*
X151660563Y-109461358D01*
X151665547Y-109391666D01*
X151694048Y-109347319D01*
X151734988Y-109306379D01*
X151780477Y-109260890D01*
X151838699Y-109168231D01*
X151870452Y-109117697D01*
X151870454Y-109117694D01*
X151870454Y-109117692D01*
X151870456Y-109117690D01*
X151926313Y-108958059D01*
X151926313Y-108958058D01*
X151926314Y-108958056D01*
X151945249Y-108790002D01*
X151945249Y-108789997D01*
X160624751Y-108789997D01*
X160624751Y-108790002D01*
X160643685Y-108958056D01*
X160699545Y-109117694D01*
X160699547Y-109117697D01*
X160789518Y-109260884D01*
X160789523Y-109260890D01*
X160909109Y-109380476D01*
X160909115Y-109380481D01*
X161052302Y-109470452D01*
X161052305Y-109470454D01*
X161052309Y-109470455D01*
X161052310Y-109470456D01*
X161106801Y-109489523D01*
X161211943Y-109526314D01*
X161379997Y-109545249D01*
X161380000Y-109545249D01*
X161380003Y-109545249D01*
X161548056Y-109526314D01*
X161548059Y-109526313D01*
X161707690Y-109470456D01*
X161707692Y-109470454D01*
X161707694Y-109470454D01*
X161707697Y-109470452D01*
X161850884Y-109380481D01*
X161850885Y-109380480D01*
X161850890Y-109380477D01*
X161931370Y-109299997D01*
X165064751Y-109299997D01*
X165064751Y-109300002D01*
X165083685Y-109468056D01*
X165139545Y-109627694D01*
X165139547Y-109627697D01*
X165229518Y-109770884D01*
X165229523Y-109770890D01*
X165349109Y-109890476D01*
X165349115Y-109890481D01*
X165492302Y-109980452D01*
X165492305Y-109980454D01*
X165492309Y-109980455D01*
X165492310Y-109980456D01*
X165564913Y-110005860D01*
X165651943Y-110036314D01*
X165819997Y-110055249D01*
X165820000Y-110055249D01*
X165820003Y-110055249D01*
X165988056Y-110036314D01*
X166008081Y-110029307D01*
X166147690Y-109980456D01*
X166250339Y-109915956D01*
X166317575Y-109896957D01*
X166384411Y-109917324D01*
X166429625Y-109970592D01*
X166433353Y-109979997D01*
X166439544Y-109997691D01*
X166439547Y-109997697D01*
X166529518Y-110140884D01*
X166529523Y-110140890D01*
X166649109Y-110260476D01*
X166649115Y-110260481D01*
X166792302Y-110350452D01*
X166792305Y-110350454D01*
X166792309Y-110350455D01*
X166792310Y-110350456D01*
X166864913Y-110375860D01*
X166951943Y-110406314D01*
X167119997Y-110425249D01*
X167120000Y-110425249D01*
X167120002Y-110425249D01*
X167211192Y-110414974D01*
X167280014Y-110427028D01*
X167331393Y-110474377D01*
X167349018Y-110541987D01*
X167327292Y-110608393D01*
X167312763Y-110625870D01*
X167309522Y-110629110D01*
X167309518Y-110629115D01*
X167219547Y-110772302D01*
X167219545Y-110772305D01*
X167163685Y-110931943D01*
X167144751Y-111099997D01*
X167144751Y-111100002D01*
X167163685Y-111268056D01*
X167219545Y-111427694D01*
X167219547Y-111427697D01*
X167309518Y-111570884D01*
X167309523Y-111570890D01*
X167429109Y-111690476D01*
X167429115Y-111690481D01*
X167572302Y-111780452D01*
X167572305Y-111780454D01*
X167572309Y-111780455D01*
X167572310Y-111780456D01*
X167599011Y-111789799D01*
X167731943Y-111836314D01*
X167899997Y-111855249D01*
X167900000Y-111855249D01*
X167900003Y-111855249D01*
X168068059Y-111836313D01*
X168068061Y-111836313D01*
X168117805Y-111818907D01*
X168187584Y-111815345D01*
X168248211Y-111850073D01*
X168280439Y-111912067D01*
X168280377Y-111960139D01*
X168264200Y-112041465D01*
X168264200Y-112178534D01*
X168290937Y-112312949D01*
X168290940Y-112312961D01*
X168343386Y-112439578D01*
X168343393Y-112439591D01*
X168419536Y-112553546D01*
X168419539Y-112553550D01*
X168516449Y-112650460D01*
X168516453Y-112650463D01*
X168630408Y-112726606D01*
X168630421Y-112726613D01*
X168757038Y-112779059D01*
X168757043Y-112779061D01*
X168891465Y-112805799D01*
X168891469Y-112805800D01*
X168891470Y-112805800D01*
X169028531Y-112805800D01*
X169028532Y-112805799D01*
X169162957Y-112779061D01*
X169289585Y-112726610D01*
X169403547Y-112650463D01*
X169500463Y-112553547D01*
X169576610Y-112439585D01*
X169629061Y-112312957D01*
X169655800Y-112178530D01*
X169655800Y-112041470D01*
X169629061Y-111907043D01*
X169606394Y-111852319D01*
X169576613Y-111780421D01*
X169576606Y-111780408D01*
X169500463Y-111666453D01*
X169500460Y-111666449D01*
X169403550Y-111569539D01*
X169403546Y-111569536D01*
X169289591Y-111493393D01*
X169289578Y-111493386D01*
X169162961Y-111440940D01*
X169162949Y-111440937D01*
X169057677Y-111419997D01*
X185927251Y-111419997D01*
X185927251Y-111420002D01*
X185946185Y-111588056D01*
X186002045Y-111747694D01*
X186002047Y-111747697D01*
X186092018Y-111890884D01*
X186092023Y-111890890D01*
X186211609Y-112010476D01*
X186211615Y-112010481D01*
X186354802Y-112100452D01*
X186354805Y-112100454D01*
X186354809Y-112100455D01*
X186354810Y-112100456D01*
X186368508Y-112105249D01*
X186514443Y-112156314D01*
X186682497Y-112175249D01*
X186682500Y-112175249D01*
X186682503Y-112175249D01*
X186850556Y-112156314D01*
X186891626Y-112141943D01*
X187010190Y-112100456D01*
X187010192Y-112100454D01*
X187010194Y-112100454D01*
X187010197Y-112100452D01*
X187153384Y-112010481D01*
X187153385Y-112010480D01*
X187153390Y-112010477D01*
X187272977Y-111890890D01*
X187279520Y-111880477D01*
X187362952Y-111747697D01*
X187362954Y-111747694D01*
X187362954Y-111747692D01*
X187362956Y-111747690D01*
X187418813Y-111588059D01*
X187418813Y-111588058D01*
X187418814Y-111588056D01*
X187437749Y-111420002D01*
X187437749Y-111419997D01*
X187418814Y-111251943D01*
X187373324Y-111121941D01*
X187362956Y-111092310D01*
X187362955Y-111092309D01*
X187362954Y-111092305D01*
X187362952Y-111092302D01*
X187272981Y-110949115D01*
X187272976Y-110949109D01*
X187153390Y-110829523D01*
X187153384Y-110829518D01*
X187010197Y-110739547D01*
X187010194Y-110739545D01*
X186850556Y-110683685D01*
X186682503Y-110664751D01*
X186682497Y-110664751D01*
X186514443Y-110683685D01*
X186354805Y-110739545D01*
X186354802Y-110739547D01*
X186211615Y-110829518D01*
X186211609Y-110829523D01*
X186092023Y-110949109D01*
X186092018Y-110949115D01*
X186002047Y-111092302D01*
X186002045Y-111092305D01*
X185946185Y-111251943D01*
X185927251Y-111419997D01*
X169057677Y-111419997D01*
X169028534Y-111414200D01*
X169028530Y-111414200D01*
X168891470Y-111414200D01*
X168891465Y-111414200D01*
X168775203Y-111437326D01*
X168705611Y-111431099D01*
X168650434Y-111388235D01*
X168627190Y-111322346D01*
X168633971Y-111274752D01*
X168636313Y-111268059D01*
X168655249Y-111100000D01*
X168654382Y-111092302D01*
X168636314Y-110931943D01*
X168592833Y-110807681D01*
X168580456Y-110772310D01*
X168580455Y-110772309D01*
X168580454Y-110772305D01*
X168580452Y-110772302D01*
X168490481Y-110629115D01*
X168490476Y-110629109D01*
X168370890Y-110509523D01*
X168370884Y-110509518D01*
X168227697Y-110419547D01*
X168227694Y-110419545D01*
X168068056Y-110363685D01*
X167900003Y-110344751D01*
X167899996Y-110344751D01*
X167808806Y-110355025D01*
X167739984Y-110342970D01*
X167688605Y-110295621D01*
X167670981Y-110228010D01*
X167692708Y-110161605D01*
X167707237Y-110144129D01*
X167710477Y-110140890D01*
X167800324Y-109997899D01*
X167852659Y-109951609D01*
X167919202Y-109940652D01*
X167937940Y-109942763D01*
X167959999Y-109945249D01*
X167960000Y-109945249D01*
X167960003Y-109945249D01*
X168128056Y-109926314D01*
X168153748Y-109917324D01*
X168287690Y-109870456D01*
X168287692Y-109870454D01*
X168287694Y-109870454D01*
X168287697Y-109870452D01*
X168430884Y-109780481D01*
X168430885Y-109780480D01*
X168430890Y-109780477D01*
X168550477Y-109660890D01*
X168550480Y-109660884D01*
X168554820Y-109655444D01*
X168556644Y-109656898D01*
X168600720Y-109617891D01*
X168669771Y-109607224D01*
X168733627Y-109635582D01*
X168741089Y-109642457D01*
X168759107Y-109660475D01*
X168759115Y-109660481D01*
X168902302Y-109750452D01*
X168902305Y-109750454D01*
X168902309Y-109750455D01*
X168902310Y-109750456D01*
X168927562Y-109759292D01*
X169061943Y-109806314D01*
X169229997Y-109825249D01*
X169230000Y-109825249D01*
X169230003Y-109825249D01*
X169398054Y-109806314D01*
X169398055Y-109806313D01*
X169398059Y-109806313D01*
X169439923Y-109791663D01*
X169509698Y-109788101D01*
X169570326Y-109822829D01*
X169577111Y-109830578D01*
X169697009Y-109950476D01*
X169697015Y-109950481D01*
X169840202Y-110040452D01*
X169840205Y-110040454D01*
X169840209Y-110040455D01*
X169840210Y-110040456D01*
X169912813Y-110065860D01*
X169999843Y-110096314D01*
X170167897Y-110115249D01*
X170167900Y-110115249D01*
X170167903Y-110115249D01*
X170335956Y-110096314D01*
X170336293Y-110096196D01*
X170495590Y-110040456D01*
X170495592Y-110040454D01*
X170495594Y-110040454D01*
X170495597Y-110040452D01*
X170638784Y-109950481D01*
X170638785Y-109950480D01*
X170638790Y-109950477D01*
X170758377Y-109830890D01*
X170758573Y-109830578D01*
X170848352Y-109687697D01*
X170848354Y-109687694D01*
X170848354Y-109687692D01*
X170848356Y-109687690D01*
X170904213Y-109528059D01*
X170905243Y-109518911D01*
X170932305Y-109454497D01*
X170987510Y-109415747D01*
X171059790Y-109390456D01*
X171062833Y-109388544D01*
X171065079Y-109387909D01*
X171066066Y-109387434D01*
X171066149Y-109387606D01*
X171130069Y-109369542D01*
X171196905Y-109389908D01*
X171234378Y-109432710D01*
X171235838Y-109431794D01*
X171329518Y-109580884D01*
X171329523Y-109580890D01*
X171449109Y-109700476D01*
X171449115Y-109700481D01*
X171592302Y-109790452D01*
X171592305Y-109790454D01*
X171592309Y-109790455D01*
X171592310Y-109790456D01*
X171613004Y-109797697D01*
X171751943Y-109846314D01*
X171919997Y-109865249D01*
X171920000Y-109865249D01*
X171920003Y-109865249D01*
X172088056Y-109846314D01*
X172088059Y-109846313D01*
X172247690Y-109790456D01*
X172247692Y-109790454D01*
X172247694Y-109790454D01*
X172247697Y-109790452D01*
X172390884Y-109700481D01*
X172390885Y-109700480D01*
X172390890Y-109700477D01*
X172510477Y-109580890D01*
X172535611Y-109540890D01*
X172580156Y-109469997D01*
X176494751Y-109469997D01*
X176494751Y-109470002D01*
X176513685Y-109638056D01*
X176569545Y-109797694D01*
X176569547Y-109797697D01*
X176659518Y-109940884D01*
X176659523Y-109940890D01*
X176779109Y-110060476D01*
X176779115Y-110060481D01*
X176922302Y-110150452D01*
X176922305Y-110150454D01*
X176922309Y-110150455D01*
X176922310Y-110150456D01*
X176989752Y-110174055D01*
X177081943Y-110206314D01*
X177249997Y-110225249D01*
X177250000Y-110225249D01*
X177250003Y-110225249D01*
X177418056Y-110206314D01*
X177450084Y-110195107D01*
X177577690Y-110150456D01*
X177577692Y-110150454D01*
X177577694Y-110150454D01*
X177577697Y-110150452D01*
X177720884Y-110060481D01*
X177720885Y-110060480D01*
X177720890Y-110060477D01*
X177840477Y-109940890D01*
X177840627Y-109940652D01*
X177930452Y-109797697D01*
X177930454Y-109797694D01*
X177930454Y-109797692D01*
X177930456Y-109797690D01*
X177986313Y-109638059D01*
X177986313Y-109638058D01*
X177986314Y-109638056D01*
X178005249Y-109470002D01*
X178005249Y-109469997D01*
X177986314Y-109301943D01*
X177930454Y-109142305D01*
X177930452Y-109142302D01*
X177840481Y-108999115D01*
X177840476Y-108999109D01*
X177720890Y-108879523D01*
X177720884Y-108879518D01*
X177578413Y-108789997D01*
X180054751Y-108789997D01*
X180054751Y-108790002D01*
X180073685Y-108958056D01*
X180129545Y-109117694D01*
X180129547Y-109117697D01*
X180219518Y-109260884D01*
X180219523Y-109260890D01*
X180339109Y-109380476D01*
X180339115Y-109380481D01*
X180482302Y-109470452D01*
X180482305Y-109470454D01*
X180482309Y-109470455D01*
X180482310Y-109470456D01*
X180536801Y-109489523D01*
X180641943Y-109526314D01*
X180809997Y-109545249D01*
X180810000Y-109545249D01*
X180810003Y-109545249D01*
X180978056Y-109526314D01*
X180978059Y-109526313D01*
X181137690Y-109470456D01*
X181215762Y-109421399D01*
X181282997Y-109402399D01*
X181349833Y-109422766D01*
X181382210Y-109455810D01*
X181382676Y-109455440D01*
X181386301Y-109459985D01*
X181386728Y-109460421D01*
X181387022Y-109460889D01*
X181506609Y-109580476D01*
X181506615Y-109580481D01*
X181649802Y-109670452D01*
X181649805Y-109670454D01*
X181649809Y-109670455D01*
X181649810Y-109670456D01*
X181699062Y-109687690D01*
X181809443Y-109726314D01*
X181977497Y-109745249D01*
X181977500Y-109745249D01*
X181977503Y-109745249D01*
X182145556Y-109726314D01*
X182145559Y-109726313D01*
X182305190Y-109670456D01*
X182305192Y-109670454D01*
X182305194Y-109670454D01*
X182305197Y-109670452D01*
X182448384Y-109580481D01*
X182448385Y-109580480D01*
X182448390Y-109580477D01*
X182567977Y-109460890D01*
X182571169Y-109455810D01*
X182657952Y-109317697D01*
X182657954Y-109317694D01*
X182657954Y-109317692D01*
X182657956Y-109317690D01*
X182713813Y-109158059D01*
X182713813Y-109158058D01*
X182713814Y-109158056D01*
X182732749Y-108990002D01*
X182732749Y-108989997D01*
X182713814Y-108821943D01*
X182657954Y-108662305D01*
X182657952Y-108662302D01*
X182567981Y-108519115D01*
X182567976Y-108519109D01*
X182469726Y-108420859D01*
X182436241Y-108359536D01*
X182440365Y-108292224D01*
X182483813Y-108168059D01*
X182498767Y-108035341D01*
X182502749Y-108000002D01*
X182502749Y-107999997D01*
X182483814Y-107831943D01*
X182427954Y-107672305D01*
X182427952Y-107672302D01*
X182337981Y-107529115D01*
X182337976Y-107529109D01*
X182218390Y-107409523D01*
X182218384Y-107409518D01*
X182075197Y-107319547D01*
X182075194Y-107319545D01*
X181915556Y-107263685D01*
X181747503Y-107244751D01*
X181747497Y-107244751D01*
X181579443Y-107263685D01*
X181419805Y-107319545D01*
X181419802Y-107319547D01*
X181276615Y-107409518D01*
X181276609Y-107409523D01*
X181157023Y-107529109D01*
X181157018Y-107529115D01*
X181067047Y-107672302D01*
X181067045Y-107672305D01*
X181011185Y-107831943D01*
X180999983Y-107931372D01*
X180972916Y-107995786D01*
X180915321Y-108035341D01*
X180862881Y-108040708D01*
X180810005Y-108034751D01*
X180809997Y-108034751D01*
X180641943Y-108053685D01*
X180482305Y-108109545D01*
X180482302Y-108109547D01*
X180339115Y-108199518D01*
X180339109Y-108199523D01*
X180219523Y-108319109D01*
X180219518Y-108319115D01*
X180129547Y-108462302D01*
X180129545Y-108462305D01*
X180073685Y-108621943D01*
X180054751Y-108789997D01*
X177578413Y-108789997D01*
X177577697Y-108789547D01*
X177577694Y-108789545D01*
X177418056Y-108733685D01*
X177250003Y-108714751D01*
X177249997Y-108714751D01*
X177081943Y-108733685D01*
X176922305Y-108789545D01*
X176922302Y-108789547D01*
X176779115Y-108879518D01*
X176779109Y-108879523D01*
X176659523Y-108999109D01*
X176659518Y-108999115D01*
X176569547Y-109142302D01*
X176569545Y-109142305D01*
X176513685Y-109301943D01*
X176494751Y-109469997D01*
X172580156Y-109469997D01*
X172600452Y-109437697D01*
X172600454Y-109437694D01*
X172600454Y-109437692D01*
X172600456Y-109437690D01*
X172656313Y-109278059D01*
X172656313Y-109278058D01*
X172656314Y-109278056D01*
X172675249Y-109110002D01*
X172675249Y-109109997D01*
X172656314Y-108941943D01*
X172605334Y-108796252D01*
X172600456Y-108782310D01*
X172600455Y-108782309D01*
X172600454Y-108782305D01*
X172600452Y-108782302D01*
X172510481Y-108639115D01*
X172510476Y-108639109D01*
X172390890Y-108519523D01*
X172390884Y-108519518D01*
X172247697Y-108429547D01*
X172247694Y-108429545D01*
X172088056Y-108373685D01*
X171920003Y-108354751D01*
X171919997Y-108354751D01*
X171751943Y-108373685D01*
X171592308Y-108429544D01*
X171589262Y-108431459D01*
X171587012Y-108432094D01*
X171586038Y-108432564D01*
X171585955Y-108432393D01*
X171522025Y-108450458D01*
X171455190Y-108430089D01*
X171417721Y-108387289D01*
X171416262Y-108388206D01*
X171322581Y-108239115D01*
X171322576Y-108239109D01*
X171202990Y-108119523D01*
X171202984Y-108119518D01*
X171059797Y-108029547D01*
X171059794Y-108029545D01*
X170900156Y-107973685D01*
X170732103Y-107954751D01*
X170732097Y-107954751D01*
X170564042Y-107973686D01*
X170515810Y-107990563D01*
X170446031Y-107994124D01*
X170385404Y-107959395D01*
X170360279Y-107918488D01*
X170360079Y-107918585D01*
X170359137Y-107916630D01*
X170357815Y-107914477D01*
X170357056Y-107912308D01*
X170267081Y-107769115D01*
X170267076Y-107769109D01*
X170147490Y-107649523D01*
X170147484Y-107649518D01*
X170004297Y-107559547D01*
X170004294Y-107559545D01*
X169844656Y-107503685D01*
X169676603Y-107484751D01*
X169676597Y-107484751D01*
X169508543Y-107503685D01*
X169348905Y-107559545D01*
X169348902Y-107559547D01*
X169205715Y-107649518D01*
X169205709Y-107649523D01*
X169086123Y-107769109D01*
X169086118Y-107769115D01*
X168996147Y-107912302D01*
X168996145Y-107912305D01*
X168940285Y-108071943D01*
X168921351Y-108239997D01*
X168921351Y-108240005D01*
X168927103Y-108291061D01*
X168915048Y-108359883D01*
X168869855Y-108409937D01*
X168759109Y-108479523D01*
X168639521Y-108599111D01*
X168635176Y-108604560D01*
X168633360Y-108603112D01*
X168589216Y-108642137D01*
X168520160Y-108652766D01*
X168456319Y-108624373D01*
X168448907Y-108617540D01*
X168430890Y-108599523D01*
X168430884Y-108599518D01*
X168287697Y-108509547D01*
X168287694Y-108509545D01*
X168128056Y-108453685D01*
X167960003Y-108434751D01*
X167959997Y-108434751D01*
X167791943Y-108453685D01*
X167632305Y-108509545D01*
X167632302Y-108509547D01*
X167489115Y-108599518D01*
X167489109Y-108599523D01*
X167369521Y-108719111D01*
X167279675Y-108862100D01*
X167227341Y-108908390D01*
X167160800Y-108919347D01*
X167120005Y-108914751D01*
X167119997Y-108914751D01*
X166951943Y-108933685D01*
X166792307Y-108989545D01*
X166689661Y-109054043D01*
X166622425Y-109073043D01*
X166555589Y-109052676D01*
X166510375Y-108999408D01*
X166506647Y-108990003D01*
X166500455Y-108972308D01*
X166500452Y-108972302D01*
X166410481Y-108829115D01*
X166410476Y-108829109D01*
X166290890Y-108709523D01*
X166290884Y-108709518D01*
X166147697Y-108619547D01*
X166147694Y-108619545D01*
X165988056Y-108563685D01*
X165820003Y-108544751D01*
X165819997Y-108544751D01*
X165651943Y-108563685D01*
X165492305Y-108619545D01*
X165492302Y-108619547D01*
X165349115Y-108709518D01*
X165349109Y-108709523D01*
X165229523Y-108829109D01*
X165229518Y-108829115D01*
X165139547Y-108972302D01*
X165139545Y-108972305D01*
X165083685Y-109131943D01*
X165064751Y-109299997D01*
X161931370Y-109299997D01*
X161970477Y-109260890D01*
X162028699Y-109168231D01*
X162060452Y-109117697D01*
X162060454Y-109117694D01*
X162060454Y-109117692D01*
X162060456Y-109117690D01*
X162116313Y-108958059D01*
X162116313Y-108958058D01*
X162116314Y-108958056D01*
X162135249Y-108790002D01*
X162135249Y-108789997D01*
X162116314Y-108621943D01*
X162060454Y-108462305D01*
X162060452Y-108462302D01*
X161970481Y-108319115D01*
X161970476Y-108319109D01*
X161850890Y-108199523D01*
X161850884Y-108199518D01*
X161707697Y-108109547D01*
X161707694Y-108109545D01*
X161548056Y-108053685D01*
X161380003Y-108034751D01*
X161379997Y-108034751D01*
X161211943Y-108053685D01*
X161052305Y-108109545D01*
X161052302Y-108109547D01*
X160909115Y-108199518D01*
X160909109Y-108199523D01*
X160789523Y-108319109D01*
X160789518Y-108319115D01*
X160699547Y-108462302D01*
X160699545Y-108462305D01*
X160643685Y-108621943D01*
X160624751Y-108789997D01*
X151945249Y-108789997D01*
X151926314Y-108621943D01*
X151870454Y-108462305D01*
X151870452Y-108462302D01*
X151780481Y-108319115D01*
X151780476Y-108319109D01*
X151660890Y-108199523D01*
X151660884Y-108199518D01*
X151517697Y-108109547D01*
X151517694Y-108109545D01*
X151358056Y-108053685D01*
X151190003Y-108034751D01*
X151189997Y-108034751D01*
X151021943Y-108053685D01*
X150862305Y-108109545D01*
X150862302Y-108109547D01*
X150719115Y-108199518D01*
X150719109Y-108199523D01*
X150599523Y-108319109D01*
X150599518Y-108319115D01*
X150509547Y-108462302D01*
X150509545Y-108462305D01*
X150453685Y-108621943D01*
X150447720Y-108674893D01*
X150420653Y-108739307D01*
X150363059Y-108778862D01*
X150293222Y-108780999D01*
X150233315Y-108745041D01*
X150202359Y-108682403D01*
X150200500Y-108661009D01*
X150200500Y-102004066D01*
X150200765Y-101995956D01*
X150209224Y-101866894D01*
X150215364Y-101773207D01*
X150217479Y-101757153D01*
X150260230Y-101542226D01*
X150264428Y-101526561D01*
X150317680Y-101369685D01*
X150334868Y-101319049D01*
X150341067Y-101304083D01*
X150437995Y-101107533D01*
X150446098Y-101093498D01*
X150567853Y-100911279D01*
X150577710Y-100898433D01*
X150722207Y-100733665D01*
X150733665Y-100722207D01*
X150898433Y-100577710D01*
X150911279Y-100567853D01*
X151093498Y-100446098D01*
X151107533Y-100437995D01*
X151304083Y-100341067D01*
X151319049Y-100334868D01*
X151525945Y-100264637D01*
X151526561Y-100264428D01*
X151542228Y-100260230D01*
X151757153Y-100217479D01*
X151773209Y-100215364D01*
X151978058Y-100201938D01*
X151995958Y-100200765D01*
X152004067Y-100200500D01*
X152039882Y-100200500D01*
X163331060Y-100200500D01*
X163398099Y-100220185D01*
G37*
G04 #@! TD.AperFunction*
M02*
