%TF.GenerationSoftware,KiCad,Pcbnew,8.0.4*%
%TF.CreationDate,2024-10-04T10:02:08-04:00*%
%TF.ProjectId,BlueSTM32,426c7565-5354-44d3-9332-2e6b69636164,rev?*%
%TF.SameCoordinates,Original*%
%TF.FileFunction,Drillmap*%
%TF.FilePolarity,Positive*%
%FSLAX45Y45*%
G04 Gerber Fmt 4.5, Leading zero omitted, Abs format (unit mm)*
G04 Created by KiCad (PCBNEW 8.0.4) date 2024-10-04 10:02:08*
%MOMM*%
%LPD*%
G01*
G04 APERTURE LIST*
%ADD10C,0.010000*%
%ADD11C,0.200000*%
%ADD12C,0.100000*%
G04 APERTURE END LIST*
D10*
X19000000Y-13800000D02*
G75*
G02*
X18800000Y-14000000I-200000J0D01*
G01*
X18800000Y-10000000D02*
X17647000Y-10000000D01*
X15200000Y-14000000D02*
G75*
G02*
X15000000Y-13800000I0J200000D01*
G01*
X18800000Y-14000000D02*
X15200000Y-14000000D01*
X15000000Y-10200000D02*
G75*
G02*
X15200000Y-10000000I200000J0D01*
G01*
X15000000Y-13800000D02*
X15000000Y-10200000D01*
X18800000Y-10000000D02*
G75*
G02*
X19000000Y-10200000I0J-200000D01*
G01*
X16359000Y-10000000D02*
X15200000Y-10000000D01*
X19000000Y-10200000D02*
X19000000Y-13800000D01*
X17457000Y-10620000D02*
G75*
G02*
X17424500Y-10660000I-36250J-3750D01*
G01*
X17424500Y-10660000D02*
G75*
G02*
X17392000Y-10632000I-2250J30250D01*
G01*
X17377000Y-10620000D02*
G75*
G02*
X17392000Y-10632000I1500J-13500D01*
G01*
X16598000Y-10632000D02*
G75*
G02*
X16613000Y-10620000I13500J-1500D01*
G01*
X16598000Y-10632000D02*
G75*
G02*
X16565500Y-10660000I-30250J2250D01*
G01*
X16565500Y-10660000D02*
G75*
G02*
X16533000Y-10620000I3750J36250D01*
G01*
X17647000Y-10000000D02*
X17457000Y-10000000D01*
X17457000Y-10000000D02*
X17457000Y-10620000D01*
X17377000Y-10620000D02*
X16613000Y-10620000D01*
X16533000Y-10620000D02*
X16533000Y-10000000D01*
X16533000Y-10000000D02*
X16359000Y-10000000D01*
D11*
D12*
X15104250Y-11121250D02*
X15131750Y-11148750D01*
X15131750Y-11121250D02*
X15104250Y-11148750D01*
X15105250Y-10865250D02*
X15132750Y-10892750D01*
X15132750Y-10865250D02*
X15105250Y-10892750D01*
X15105250Y-10994250D02*
X15132750Y-11021750D01*
X15132750Y-10994250D02*
X15105250Y-11021750D01*
X15237250Y-13291250D02*
X15264750Y-13318750D01*
X15264750Y-13291250D02*
X15237250Y-13318750D01*
X15237250Y-13515250D02*
X15264750Y-13542750D01*
X15264750Y-13515250D02*
X15237250Y-13542750D01*
X15356250Y-12983250D02*
X15383750Y-13010750D01*
X15383750Y-12983250D02*
X15356250Y-13010750D01*
X15474750Y-12123250D02*
X15502250Y-12150750D01*
X15502250Y-12123250D02*
X15474750Y-12150750D01*
X15481750Y-13756250D02*
X15509250Y-13783750D01*
X15509250Y-13756250D02*
X15481750Y-13783750D01*
X15489750Y-12226250D02*
X15517250Y-12253750D01*
X15517250Y-12226250D02*
X15489750Y-12253750D01*
X15490250Y-10961250D02*
X15517750Y-10988750D01*
X15517750Y-10961250D02*
X15490250Y-10988750D01*
X15490250Y-11163250D02*
X15517750Y-11190750D01*
X15517750Y-11163250D02*
X15490250Y-11190750D01*
X15506750Y-12662250D02*
X15534250Y-12689750D01*
X15534250Y-12662250D02*
X15506750Y-12689750D01*
X15583750Y-13421250D02*
X15611250Y-13448750D01*
X15611250Y-13421250D02*
X15583750Y-13448750D01*
X15584250Y-10378250D02*
X15611750Y-10405750D01*
X15611750Y-10378250D02*
X15584250Y-10405750D01*
X15586750Y-13019250D02*
X15614250Y-13046750D01*
X15614250Y-13019250D02*
X15586750Y-13046750D01*
X15618250Y-11060250D02*
X15645750Y-11087750D01*
X15645750Y-11060250D02*
X15618250Y-11087750D01*
X15715250Y-10244250D02*
X15742750Y-10271750D01*
X15742750Y-10244250D02*
X15715250Y-10271750D01*
X15717250Y-10493250D02*
X15744750Y-10520750D01*
X15744750Y-10493250D02*
X15717250Y-10520750D01*
X15721250Y-10381250D02*
X15748750Y-10408750D01*
X15748750Y-10381250D02*
X15721250Y-10408750D01*
X15724250Y-10963250D02*
X15751750Y-10990750D01*
X15751750Y-10963250D02*
X15724250Y-10990750D01*
X15740250Y-11166250D02*
X15767750Y-11193750D01*
X15767750Y-11166250D02*
X15740250Y-11193750D01*
X15814250Y-11772250D02*
X15841750Y-11799750D01*
X15841750Y-11772250D02*
X15814250Y-11799750D01*
X15824250Y-13622250D02*
X15851750Y-13649750D01*
X15851750Y-13622250D02*
X15824250Y-13649750D01*
X15854250Y-10371250D02*
X15881750Y-10398750D01*
X15881750Y-10371250D02*
X15854250Y-10398750D01*
X15864250Y-12101250D02*
X15891750Y-12128750D01*
X15891750Y-12101250D02*
X15864250Y-12128750D01*
X15948250Y-13322250D02*
X15975750Y-13349750D01*
X15975750Y-13322250D02*
X15948250Y-13349750D01*
X15971250Y-12510250D02*
X15998750Y-12537750D01*
X15998750Y-12510250D02*
X15971250Y-12537750D01*
X15985250Y-12274250D02*
X16012750Y-12301750D01*
X16012750Y-12274250D02*
X15985250Y-12301750D01*
X16106250Y-12274250D02*
X16133750Y-12301750D01*
X16133750Y-12274250D02*
X16106250Y-12301750D01*
X16124250Y-10865250D02*
X16151750Y-10892750D01*
X16151750Y-10865250D02*
X16124250Y-10892750D01*
X16133250Y-12349250D02*
X16160750Y-12376750D01*
X16160750Y-12349250D02*
X16133250Y-12376750D01*
X16145250Y-11246250D02*
X16172750Y-11273750D01*
X16172750Y-11246250D02*
X16145250Y-11273750D01*
X16146250Y-11115250D02*
X16173750Y-11142750D01*
X16173750Y-11115250D02*
X16146250Y-11142750D01*
X16225250Y-12137250D02*
X16252750Y-12164750D01*
X16252750Y-12137250D02*
X16225250Y-12164750D01*
X16249250Y-12053250D02*
X16276750Y-12080750D01*
X16276750Y-12053250D02*
X16249250Y-12080750D01*
X16251250Y-12606250D02*
X16278750Y-12633750D01*
X16278750Y-12606250D02*
X16251250Y-12633750D01*
X16273250Y-11957250D02*
X16300750Y-11984750D01*
X16300750Y-11957250D02*
X16273250Y-11984750D01*
X16295250Y-11862250D02*
X16322750Y-11889750D01*
X16322750Y-11862250D02*
X16295250Y-11889750D01*
X16350250Y-13417250D02*
X16377750Y-13444750D01*
X16377750Y-13417250D02*
X16350250Y-13444750D01*
X16363250Y-13553250D02*
X16390750Y-13580750D01*
X16390750Y-13553250D02*
X16363250Y-13580750D01*
X16407250Y-12267250D02*
X16434750Y-12294750D01*
X16434750Y-12267250D02*
X16407250Y-12294750D01*
X16428250Y-12587250D02*
X16455750Y-12614750D01*
X16455750Y-12587250D02*
X16428250Y-12614750D01*
X16439250Y-12802250D02*
X16466750Y-12829750D01*
X16466750Y-12802250D02*
X16439250Y-12829750D01*
X16439250Y-13107250D02*
X16466750Y-13134750D01*
X16466750Y-13107250D02*
X16439250Y-13134750D01*
X16451250Y-12204250D02*
X16478750Y-12231750D01*
X16478750Y-12204250D02*
X16451250Y-12231750D01*
X16477250Y-11627250D02*
X16504750Y-11654750D01*
X16504750Y-11627250D02*
X16477250Y-11654750D01*
X16491750Y-11397750D02*
X16519250Y-11425250D01*
X16519250Y-11397750D02*
X16491750Y-11425250D01*
X16501250Y-11006250D02*
X16528750Y-11033750D01*
X16528750Y-11006250D02*
X16501250Y-11033750D01*
X16509250Y-12525250D02*
X16536750Y-12552750D01*
X16536750Y-12525250D02*
X16509250Y-12552750D01*
X16513250Y-10810250D02*
X16540750Y-10837750D01*
X16540750Y-10810250D02*
X16513250Y-10837750D01*
X16525250Y-12981250D02*
X16552750Y-13008750D01*
X16552750Y-12981250D02*
X16525250Y-13008750D01*
X16566250Y-11562250D02*
X16593750Y-11589750D01*
X16593750Y-11562250D02*
X16566250Y-11589750D01*
X16568250Y-10916250D02*
X16595750Y-10943750D01*
X16595750Y-10916250D02*
X16568250Y-10943750D01*
X16604250Y-12543250D02*
X16631750Y-12570750D01*
X16631750Y-12543250D02*
X16604250Y-12570750D01*
X16626250Y-13774250D02*
X16653750Y-13801750D01*
X16653750Y-13774250D02*
X16626250Y-13801750D01*
X16627250Y-13637250D02*
X16654750Y-13664750D01*
X16654750Y-13637250D02*
X16627250Y-13664750D01*
X16660250Y-11483250D02*
X16687750Y-11510750D01*
X16687750Y-11483250D02*
X16660250Y-11510750D01*
X16662250Y-13051250D02*
X16689750Y-13078750D01*
X16689750Y-13051250D02*
X16662250Y-13078750D01*
X16684250Y-13509250D02*
X16711750Y-13536750D01*
X16711750Y-13509250D02*
X16684250Y-13536750D01*
X16698250Y-10953250D02*
X16725750Y-10980750D01*
X16725750Y-10953250D02*
X16698250Y-10980750D01*
X16756250Y-12645250D02*
X16783750Y-12672750D01*
X16783750Y-12645250D02*
X16756250Y-12672750D01*
X16776250Y-11096250D02*
X16803750Y-11123750D01*
X16803750Y-11096250D02*
X16776250Y-11123750D01*
X16782250Y-10905250D02*
X16809750Y-10932750D01*
X16809750Y-10905250D02*
X16782250Y-10932750D01*
X16834250Y-12521250D02*
X16861750Y-12548750D01*
X16861750Y-12521250D02*
X16834250Y-12548750D01*
X16867250Y-12641250D02*
X16894750Y-12668750D01*
X16894750Y-12641250D02*
X16867250Y-12668750D01*
X16887250Y-12484250D02*
X16914750Y-12511750D01*
X16914750Y-12484250D02*
X16887250Y-12511750D01*
X16909250Y-10893250D02*
X16936750Y-10920750D01*
X16936750Y-10893250D02*
X16909250Y-10920750D01*
X16953910Y-10810250D02*
X16981410Y-10837750D01*
X16981410Y-10810250D02*
X16953910Y-10837750D01*
X17003040Y-10922250D02*
X17030540Y-10949750D01*
X17030540Y-10922250D02*
X17003040Y-10949750D01*
X17021250Y-11984250D02*
X17048750Y-12011750D01*
X17048750Y-11984250D02*
X17021250Y-12011750D01*
X17034250Y-12583250D02*
X17061750Y-12610750D01*
X17061750Y-12583250D02*
X17034250Y-12610750D01*
X17059460Y-10857250D02*
X17086960Y-10884750D01*
X17086960Y-10857250D02*
X17059460Y-10884750D01*
X17083603Y-11361244D02*
X17111103Y-11388744D01*
X17111103Y-11361244D02*
X17083603Y-11388744D01*
X17139250Y-13566250D02*
X17166750Y-13593750D01*
X17166750Y-13566250D02*
X17139250Y-13593750D01*
X17178250Y-10897250D02*
X17205750Y-10924750D01*
X17205750Y-10897250D02*
X17178250Y-10924750D01*
X17198250Y-12636250D02*
X17225750Y-12663750D01*
X17225750Y-12636250D02*
X17198250Y-12663750D01*
X17206250Y-12516250D02*
X17233750Y-12543750D01*
X17233750Y-12516250D02*
X17206250Y-12543750D01*
X17393250Y-10818250D02*
X17420750Y-10845750D01*
X17420750Y-10818250D02*
X17393250Y-10845750D01*
X17434250Y-12389250D02*
X17461750Y-12416750D01*
X17461750Y-12389250D02*
X17434250Y-12416750D01*
X17503250Y-11923250D02*
X17530750Y-11950750D01*
X17530750Y-11923250D02*
X17503250Y-11950750D01*
X17578250Y-11882250D02*
X17605750Y-11909750D01*
X17605750Y-11882250D02*
X17578250Y-11909750D01*
X17624250Y-12702250D02*
X17651750Y-12729750D01*
X17651750Y-12702250D02*
X17624250Y-12729750D01*
X17711250Y-10933250D02*
X17738750Y-10960750D01*
X17738750Y-10933250D02*
X17711250Y-10960750D01*
X17818500Y-11267250D02*
X17846000Y-11294750D01*
X17846000Y-11267250D02*
X17818500Y-11294750D01*
X17855250Y-13517250D02*
X17882750Y-13544750D01*
X17882750Y-13517250D02*
X17855250Y-13544750D01*
X17915250Y-12266250D02*
X17942750Y-12293750D01*
X17942750Y-12266250D02*
X17915250Y-12293750D01*
X18067250Y-10865250D02*
X18094750Y-10892750D01*
X18094750Y-10865250D02*
X18067250Y-10892750D01*
X18073250Y-10611250D02*
X18100750Y-10638750D01*
X18100750Y-10611250D02*
X18073250Y-10638750D01*
X18161000Y-10786250D02*
X18188500Y-10813750D01*
X18188500Y-10786250D02*
X18161000Y-10813750D01*
X18171500Y-11131250D02*
X18199000Y-11158750D01*
X18199000Y-11131250D02*
X18171500Y-11158750D01*
X18172250Y-12258250D02*
X18199750Y-12285750D01*
X18199750Y-12258250D02*
X18172250Y-12285750D01*
X18184000Y-10885250D02*
X18211500Y-10912750D01*
X18211500Y-10885250D02*
X18184000Y-10912750D01*
X18262500Y-13516500D02*
X18290000Y-13544000D01*
X18290000Y-13516500D02*
X18262500Y-13544000D01*
X18270500Y-12656500D02*
X18298000Y-12684000D01*
X18298000Y-12656500D02*
X18270500Y-12684000D01*
X18272500Y-13399500D02*
X18300000Y-13427000D01*
X18300000Y-13399500D02*
X18272500Y-13427000D01*
X18339250Y-12004250D02*
X18366750Y-12031750D01*
X18366750Y-12004250D02*
X18339250Y-12031750D01*
X18440250Y-12469250D02*
X18467750Y-12496750D01*
X18467750Y-12469250D02*
X18440250Y-12496750D01*
X18521500Y-11623250D02*
X18549000Y-11650750D01*
X18549000Y-11623250D02*
X18521500Y-11650750D01*
X18654500Y-11128250D02*
X18682000Y-11155750D01*
X18682000Y-11128250D02*
X18654500Y-11155750D01*
X18656000Y-10887250D02*
X18683500Y-10914750D01*
X18683500Y-10887250D02*
X18656000Y-10914750D01*
X18658250Y-12212250D02*
X18685750Y-12239750D01*
X18685750Y-12212250D02*
X18658250Y-12239750D01*
X18669250Y-12321250D02*
X18696750Y-12348750D01*
X18696750Y-12321250D02*
X18669250Y-12348750D01*
X18731250Y-11755250D02*
X18758750Y-11782750D01*
X18758750Y-11755250D02*
X18731250Y-11782750D01*
X18757500Y-12566500D02*
X18785000Y-12594000D01*
X18785000Y-12566500D02*
X18757500Y-12594000D01*
X18795250Y-10357250D02*
X18822750Y-10384750D01*
X18822750Y-10357250D02*
X18795250Y-10384750D01*
X18807250Y-11848250D02*
X18834750Y-11875750D01*
X18834750Y-11848250D02*
X18807250Y-11875750D01*
X18870250Y-11217250D02*
X18897750Y-11244750D01*
X18897750Y-11217250D02*
X18870250Y-11244750D01*
X16074000Y-12049000D02*
G75*
G02*
X16044000Y-12049000I-15000J0D01*
G01*
X16044000Y-12049000D02*
G75*
G02*
X16074000Y-12049000I15000J0D01*
G01*
X16272000Y-11808000D02*
G75*
G02*
X16242000Y-11808000I-15000J0D01*
G01*
X16242000Y-11808000D02*
G75*
G02*
X16272000Y-11808000I15000J0D01*
G01*
X16433000Y-10130000D02*
X16433000Y-10190000D01*
X16403000Y-10160000D02*
X16463000Y-10160000D01*
X16463000Y-10220000D02*
X16463000Y-10100000D01*
X16403000Y-10100000D02*
G75*
G02*
X16463000Y-10100000I30000J0D01*
G01*
X16403000Y-10100000D02*
X16403000Y-10220000D01*
X16403000Y-10220000D02*
G75*
G03*
X16463000Y-10220000I30000J0D01*
G01*
X16433000Y-10530000D02*
X16433000Y-10590000D01*
X16403000Y-10560000D02*
X16463000Y-10560000D01*
X16463000Y-10600000D02*
X16463000Y-10520000D01*
X16403000Y-10520000D02*
G75*
G02*
X16463000Y-10520000I30000J0D01*
G01*
X16403000Y-10520000D02*
X16403000Y-10600000D01*
X16403000Y-10600000D02*
G75*
G03*
X16463000Y-10600000I30000J0D01*
G01*
X17557000Y-10130000D02*
X17557000Y-10190000D01*
X17527000Y-10160000D02*
X17587000Y-10160000D01*
X17587000Y-10220000D02*
X17587000Y-10100000D01*
X17527000Y-10100000D02*
G75*
G02*
X17587000Y-10100000I30000J0D01*
G01*
X17527000Y-10100000D02*
X17527000Y-10220000D01*
X17527000Y-10220000D02*
G75*
G03*
X17587000Y-10220000I30000J0D01*
G01*
X17557000Y-10530000D02*
X17557000Y-10590000D01*
X17527000Y-10560000D02*
X17587000Y-10560000D01*
X17587000Y-10600000D02*
X17587000Y-10520000D01*
X17527000Y-10520000D02*
G75*
G02*
X17587000Y-10520000I30000J0D01*
G01*
X17527000Y-10520000D02*
X17527000Y-10600000D01*
X17527000Y-10600000D02*
G75*
G03*
X17587000Y-10600000I30000J0D01*
G01*
D11*
X15260277Y-14311984D02*
X15260277Y-14111984D01*
X15260277Y-14111984D02*
X15307896Y-14111984D01*
X15307896Y-14111984D02*
X15336467Y-14121508D01*
X15336467Y-14121508D02*
X15355515Y-14140555D01*
X15355515Y-14140555D02*
X15365039Y-14159603D01*
X15365039Y-14159603D02*
X15374562Y-14197698D01*
X15374562Y-14197698D02*
X15374562Y-14226269D01*
X15374562Y-14226269D02*
X15365039Y-14264365D01*
X15365039Y-14264365D02*
X15355515Y-14283412D01*
X15355515Y-14283412D02*
X15336467Y-14302460D01*
X15336467Y-14302460D02*
X15307896Y-14311984D01*
X15307896Y-14311984D02*
X15260277Y-14311984D01*
X15460277Y-14311984D02*
X15460277Y-14178650D01*
X15460277Y-14216746D02*
X15469801Y-14197698D01*
X15469801Y-14197698D02*
X15479324Y-14188174D01*
X15479324Y-14188174D02*
X15498372Y-14178650D01*
X15498372Y-14178650D02*
X15517420Y-14178650D01*
X15584086Y-14311984D02*
X15584086Y-14178650D01*
X15584086Y-14111984D02*
X15574562Y-14121508D01*
X15574562Y-14121508D02*
X15584086Y-14131031D01*
X15584086Y-14131031D02*
X15593610Y-14121508D01*
X15593610Y-14121508D02*
X15584086Y-14111984D01*
X15584086Y-14111984D02*
X15584086Y-14131031D01*
X15707896Y-14311984D02*
X15688848Y-14302460D01*
X15688848Y-14302460D02*
X15679324Y-14283412D01*
X15679324Y-14283412D02*
X15679324Y-14111984D01*
X15812658Y-14311984D02*
X15793610Y-14302460D01*
X15793610Y-14302460D02*
X15784086Y-14283412D01*
X15784086Y-14283412D02*
X15784086Y-14111984D01*
X16041229Y-14311984D02*
X16041229Y-14111984D01*
X16041229Y-14111984D02*
X16107896Y-14254841D01*
X16107896Y-14254841D02*
X16174562Y-14111984D01*
X16174562Y-14111984D02*
X16174562Y-14311984D01*
X16355515Y-14311984D02*
X16355515Y-14207222D01*
X16355515Y-14207222D02*
X16345991Y-14188174D01*
X16345991Y-14188174D02*
X16326943Y-14178650D01*
X16326943Y-14178650D02*
X16288848Y-14178650D01*
X16288848Y-14178650D02*
X16269801Y-14188174D01*
X16355515Y-14302460D02*
X16336467Y-14311984D01*
X16336467Y-14311984D02*
X16288848Y-14311984D01*
X16288848Y-14311984D02*
X16269801Y-14302460D01*
X16269801Y-14302460D02*
X16260277Y-14283412D01*
X16260277Y-14283412D02*
X16260277Y-14264365D01*
X16260277Y-14264365D02*
X16269801Y-14245317D01*
X16269801Y-14245317D02*
X16288848Y-14235793D01*
X16288848Y-14235793D02*
X16336467Y-14235793D01*
X16336467Y-14235793D02*
X16355515Y-14226269D01*
X16450753Y-14178650D02*
X16450753Y-14378650D01*
X16450753Y-14188174D02*
X16469801Y-14178650D01*
X16469801Y-14178650D02*
X16507896Y-14178650D01*
X16507896Y-14178650D02*
X16526943Y-14188174D01*
X16526943Y-14188174D02*
X16536467Y-14197698D01*
X16536467Y-14197698D02*
X16545991Y-14216746D01*
X16545991Y-14216746D02*
X16545991Y-14273888D01*
X16545991Y-14273888D02*
X16536467Y-14292936D01*
X16536467Y-14292936D02*
X16526943Y-14302460D01*
X16526943Y-14302460D02*
X16507896Y-14311984D01*
X16507896Y-14311984D02*
X16469801Y-14311984D01*
X16469801Y-14311984D02*
X16450753Y-14302460D01*
X16631705Y-14292936D02*
X16641229Y-14302460D01*
X16641229Y-14302460D02*
X16631705Y-14311984D01*
X16631705Y-14311984D02*
X16622182Y-14302460D01*
X16622182Y-14302460D02*
X16631705Y-14292936D01*
X16631705Y-14292936D02*
X16631705Y-14311984D01*
X16631705Y-14188174D02*
X16641229Y-14197698D01*
X16641229Y-14197698D02*
X16631705Y-14207222D01*
X16631705Y-14207222D02*
X16622182Y-14197698D01*
X16622182Y-14197698D02*
X16631705Y-14188174D01*
X16631705Y-14188174D02*
X16631705Y-14207222D01*
D12*
X14972000Y-14626750D02*
X14999500Y-14654250D01*
X14999500Y-14626750D02*
X14972000Y-14654250D01*
D11*
X15298372Y-14531984D02*
X15317420Y-14531984D01*
X15317420Y-14531984D02*
X15336467Y-14541508D01*
X15336467Y-14541508D02*
X15345991Y-14551031D01*
X15345991Y-14551031D02*
X15355515Y-14570079D01*
X15355515Y-14570079D02*
X15365039Y-14608174D01*
X15365039Y-14608174D02*
X15365039Y-14655793D01*
X15365039Y-14655793D02*
X15355515Y-14693888D01*
X15355515Y-14693888D02*
X15345991Y-14712936D01*
X15345991Y-14712936D02*
X15336467Y-14722460D01*
X15336467Y-14722460D02*
X15317420Y-14731984D01*
X15317420Y-14731984D02*
X15298372Y-14731984D01*
X15298372Y-14731984D02*
X15279324Y-14722460D01*
X15279324Y-14722460D02*
X15269801Y-14712936D01*
X15269801Y-14712936D02*
X15260277Y-14693888D01*
X15260277Y-14693888D02*
X15250753Y-14655793D01*
X15250753Y-14655793D02*
X15250753Y-14608174D01*
X15250753Y-14608174D02*
X15260277Y-14570079D01*
X15260277Y-14570079D02*
X15269801Y-14551031D01*
X15269801Y-14551031D02*
X15279324Y-14541508D01*
X15279324Y-14541508D02*
X15298372Y-14531984D01*
X15450753Y-14712936D02*
X15460277Y-14722460D01*
X15460277Y-14722460D02*
X15450753Y-14731984D01*
X15450753Y-14731984D02*
X15441229Y-14722460D01*
X15441229Y-14722460D02*
X15450753Y-14712936D01*
X15450753Y-14712936D02*
X15450753Y-14731984D01*
X15536467Y-14551031D02*
X15545991Y-14541508D01*
X15545991Y-14541508D02*
X15565039Y-14531984D01*
X15565039Y-14531984D02*
X15612658Y-14531984D01*
X15612658Y-14531984D02*
X15631705Y-14541508D01*
X15631705Y-14541508D02*
X15641229Y-14551031D01*
X15641229Y-14551031D02*
X15650753Y-14570079D01*
X15650753Y-14570079D02*
X15650753Y-14589127D01*
X15650753Y-14589127D02*
X15641229Y-14617698D01*
X15641229Y-14617698D02*
X15526943Y-14731984D01*
X15526943Y-14731984D02*
X15650753Y-14731984D01*
X15717420Y-14531984D02*
X15850753Y-14531984D01*
X15850753Y-14531984D02*
X15765039Y-14731984D01*
X16022182Y-14531984D02*
X15926943Y-14531984D01*
X15926943Y-14531984D02*
X15917420Y-14627222D01*
X15917420Y-14627222D02*
X15926943Y-14617698D01*
X15926943Y-14617698D02*
X15945991Y-14608174D01*
X15945991Y-14608174D02*
X15993610Y-14608174D01*
X15993610Y-14608174D02*
X16012658Y-14617698D01*
X16012658Y-14617698D02*
X16022182Y-14627222D01*
X16022182Y-14627222D02*
X16031705Y-14646269D01*
X16031705Y-14646269D02*
X16031705Y-14693888D01*
X16031705Y-14693888D02*
X16022182Y-14712936D01*
X16022182Y-14712936D02*
X16012658Y-14722460D01*
X16012658Y-14722460D02*
X15993610Y-14731984D01*
X15993610Y-14731984D02*
X15945991Y-14731984D01*
X15945991Y-14731984D02*
X15926943Y-14722460D01*
X15926943Y-14722460D02*
X15917420Y-14712936D01*
X16117420Y-14731984D02*
X16117420Y-14598650D01*
X16117420Y-14617698D02*
X16126943Y-14608174D01*
X16126943Y-14608174D02*
X16145991Y-14598650D01*
X16145991Y-14598650D02*
X16174563Y-14598650D01*
X16174563Y-14598650D02*
X16193610Y-14608174D01*
X16193610Y-14608174D02*
X16203134Y-14627222D01*
X16203134Y-14627222D02*
X16203134Y-14731984D01*
X16203134Y-14627222D02*
X16212658Y-14608174D01*
X16212658Y-14608174D02*
X16231705Y-14598650D01*
X16231705Y-14598650D02*
X16260277Y-14598650D01*
X16260277Y-14598650D02*
X16279324Y-14608174D01*
X16279324Y-14608174D02*
X16288848Y-14627222D01*
X16288848Y-14627222D02*
X16288848Y-14731984D01*
X16384086Y-14731984D02*
X16384086Y-14598650D01*
X16384086Y-14617698D02*
X16393610Y-14608174D01*
X16393610Y-14608174D02*
X16412658Y-14598650D01*
X16412658Y-14598650D02*
X16441229Y-14598650D01*
X16441229Y-14598650D02*
X16460277Y-14608174D01*
X16460277Y-14608174D02*
X16469801Y-14627222D01*
X16469801Y-14627222D02*
X16469801Y-14731984D01*
X16469801Y-14627222D02*
X16479324Y-14608174D01*
X16479324Y-14608174D02*
X16498372Y-14598650D01*
X16498372Y-14598650D02*
X16526943Y-14598650D01*
X16526943Y-14598650D02*
X16545991Y-14608174D01*
X16545991Y-14608174D02*
X16555515Y-14627222D01*
X16555515Y-14627222D02*
X16555515Y-14731984D01*
X16945991Y-14522460D02*
X16774563Y-14779603D01*
X17203134Y-14531984D02*
X17222182Y-14531984D01*
X17222182Y-14531984D02*
X17241229Y-14541508D01*
X17241229Y-14541508D02*
X17250753Y-14551031D01*
X17250753Y-14551031D02*
X17260277Y-14570079D01*
X17260277Y-14570079D02*
X17269801Y-14608174D01*
X17269801Y-14608174D02*
X17269801Y-14655793D01*
X17269801Y-14655793D02*
X17260277Y-14693888D01*
X17260277Y-14693888D02*
X17250753Y-14712936D01*
X17250753Y-14712936D02*
X17241229Y-14722460D01*
X17241229Y-14722460D02*
X17222182Y-14731984D01*
X17222182Y-14731984D02*
X17203134Y-14731984D01*
X17203134Y-14731984D02*
X17184087Y-14722460D01*
X17184087Y-14722460D02*
X17174563Y-14712936D01*
X17174563Y-14712936D02*
X17165039Y-14693888D01*
X17165039Y-14693888D02*
X17155515Y-14655793D01*
X17155515Y-14655793D02*
X17155515Y-14608174D01*
X17155515Y-14608174D02*
X17165039Y-14570079D01*
X17165039Y-14570079D02*
X17174563Y-14551031D01*
X17174563Y-14551031D02*
X17184087Y-14541508D01*
X17184087Y-14541508D02*
X17203134Y-14531984D01*
X17355515Y-14712936D02*
X17365039Y-14722460D01*
X17365039Y-14722460D02*
X17355515Y-14731984D01*
X17355515Y-14731984D02*
X17345991Y-14722460D01*
X17345991Y-14722460D02*
X17355515Y-14712936D01*
X17355515Y-14712936D02*
X17355515Y-14731984D01*
X17488848Y-14531984D02*
X17507896Y-14531984D01*
X17507896Y-14531984D02*
X17526944Y-14541508D01*
X17526944Y-14541508D02*
X17536468Y-14551031D01*
X17536468Y-14551031D02*
X17545991Y-14570079D01*
X17545991Y-14570079D02*
X17555515Y-14608174D01*
X17555515Y-14608174D02*
X17555515Y-14655793D01*
X17555515Y-14655793D02*
X17545991Y-14693888D01*
X17545991Y-14693888D02*
X17536468Y-14712936D01*
X17536468Y-14712936D02*
X17526944Y-14722460D01*
X17526944Y-14722460D02*
X17507896Y-14731984D01*
X17507896Y-14731984D02*
X17488848Y-14731984D01*
X17488848Y-14731984D02*
X17469801Y-14722460D01*
X17469801Y-14722460D02*
X17460277Y-14712936D01*
X17460277Y-14712936D02*
X17450753Y-14693888D01*
X17450753Y-14693888D02*
X17441229Y-14655793D01*
X17441229Y-14655793D02*
X17441229Y-14608174D01*
X17441229Y-14608174D02*
X17450753Y-14570079D01*
X17450753Y-14570079D02*
X17460277Y-14551031D01*
X17460277Y-14551031D02*
X17469801Y-14541508D01*
X17469801Y-14541508D02*
X17488848Y-14531984D01*
X17745991Y-14731984D02*
X17631706Y-14731984D01*
X17688848Y-14731984D02*
X17688848Y-14531984D01*
X17688848Y-14531984D02*
X17669801Y-14560555D01*
X17669801Y-14560555D02*
X17650753Y-14579603D01*
X17650753Y-14579603D02*
X17631706Y-14589127D01*
X17869801Y-14531984D02*
X17888849Y-14531984D01*
X17888849Y-14531984D02*
X17907896Y-14541508D01*
X17907896Y-14541508D02*
X17917420Y-14551031D01*
X17917420Y-14551031D02*
X17926944Y-14570079D01*
X17926944Y-14570079D02*
X17936468Y-14608174D01*
X17936468Y-14608174D02*
X17936468Y-14655793D01*
X17936468Y-14655793D02*
X17926944Y-14693888D01*
X17926944Y-14693888D02*
X17917420Y-14712936D01*
X17917420Y-14712936D02*
X17907896Y-14722460D01*
X17907896Y-14722460D02*
X17888849Y-14731984D01*
X17888849Y-14731984D02*
X17869801Y-14731984D01*
X17869801Y-14731984D02*
X17850753Y-14722460D01*
X17850753Y-14722460D02*
X17841229Y-14712936D01*
X17841229Y-14712936D02*
X17831706Y-14693888D01*
X17831706Y-14693888D02*
X17822182Y-14655793D01*
X17822182Y-14655793D02*
X17822182Y-14608174D01*
X17822182Y-14608174D02*
X17831706Y-14570079D01*
X17831706Y-14570079D02*
X17841229Y-14551031D01*
X17841229Y-14551031D02*
X17850753Y-14541508D01*
X17850753Y-14541508D02*
X17869801Y-14531984D01*
X18050753Y-14617698D02*
X18031706Y-14608174D01*
X18031706Y-14608174D02*
X18022182Y-14598650D01*
X18022182Y-14598650D02*
X18012658Y-14579603D01*
X18012658Y-14579603D02*
X18012658Y-14570079D01*
X18012658Y-14570079D02*
X18022182Y-14551031D01*
X18022182Y-14551031D02*
X18031706Y-14541508D01*
X18031706Y-14541508D02*
X18050753Y-14531984D01*
X18050753Y-14531984D02*
X18088849Y-14531984D01*
X18088849Y-14531984D02*
X18107896Y-14541508D01*
X18107896Y-14541508D02*
X18117420Y-14551031D01*
X18117420Y-14551031D02*
X18126944Y-14570079D01*
X18126944Y-14570079D02*
X18126944Y-14579603D01*
X18126944Y-14579603D02*
X18117420Y-14598650D01*
X18117420Y-14598650D02*
X18107896Y-14608174D01*
X18107896Y-14608174D02*
X18088849Y-14617698D01*
X18088849Y-14617698D02*
X18050753Y-14617698D01*
X18050753Y-14617698D02*
X18031706Y-14627222D01*
X18031706Y-14627222D02*
X18022182Y-14636746D01*
X18022182Y-14636746D02*
X18012658Y-14655793D01*
X18012658Y-14655793D02*
X18012658Y-14693888D01*
X18012658Y-14693888D02*
X18022182Y-14712936D01*
X18022182Y-14712936D02*
X18031706Y-14722460D01*
X18031706Y-14722460D02*
X18050753Y-14731984D01*
X18050753Y-14731984D02*
X18088849Y-14731984D01*
X18088849Y-14731984D02*
X18107896Y-14722460D01*
X18107896Y-14722460D02*
X18117420Y-14712936D01*
X18117420Y-14712936D02*
X18126944Y-14693888D01*
X18126944Y-14693888D02*
X18126944Y-14655793D01*
X18126944Y-14655793D02*
X18117420Y-14636746D01*
X18117420Y-14636746D02*
X18107896Y-14627222D01*
X18107896Y-14627222D02*
X18088849Y-14617698D01*
X18203134Y-14531984D02*
X18203134Y-14570079D01*
X18279325Y-14531984D02*
X18279325Y-14570079D01*
X18574563Y-14808174D02*
X18565039Y-14798650D01*
X18565039Y-14798650D02*
X18545991Y-14770079D01*
X18545991Y-14770079D02*
X18536468Y-14751031D01*
X18536468Y-14751031D02*
X18526944Y-14722460D01*
X18526944Y-14722460D02*
X18517420Y-14674841D01*
X18517420Y-14674841D02*
X18517420Y-14636746D01*
X18517420Y-14636746D02*
X18526944Y-14589127D01*
X18526944Y-14589127D02*
X18536468Y-14560555D01*
X18536468Y-14560555D02*
X18545991Y-14541508D01*
X18545991Y-14541508D02*
X18565039Y-14512936D01*
X18565039Y-14512936D02*
X18574563Y-14503412D01*
X18755515Y-14731984D02*
X18641230Y-14731984D01*
X18698372Y-14731984D02*
X18698372Y-14531984D01*
X18698372Y-14531984D02*
X18679325Y-14560555D01*
X18679325Y-14560555D02*
X18660277Y-14579603D01*
X18660277Y-14579603D02*
X18641230Y-14589127D01*
X18879325Y-14531984D02*
X18898372Y-14531984D01*
X18898372Y-14531984D02*
X18917420Y-14541508D01*
X18917420Y-14541508D02*
X18926944Y-14551031D01*
X18926944Y-14551031D02*
X18936468Y-14570079D01*
X18936468Y-14570079D02*
X18945991Y-14608174D01*
X18945991Y-14608174D02*
X18945991Y-14655793D01*
X18945991Y-14655793D02*
X18936468Y-14693888D01*
X18936468Y-14693888D02*
X18926944Y-14712936D01*
X18926944Y-14712936D02*
X18917420Y-14722460D01*
X18917420Y-14722460D02*
X18898372Y-14731984D01*
X18898372Y-14731984D02*
X18879325Y-14731984D01*
X18879325Y-14731984D02*
X18860277Y-14722460D01*
X18860277Y-14722460D02*
X18850753Y-14712936D01*
X18850753Y-14712936D02*
X18841230Y-14693888D01*
X18841230Y-14693888D02*
X18831706Y-14655793D01*
X18831706Y-14655793D02*
X18831706Y-14608174D01*
X18831706Y-14608174D02*
X18841230Y-14570079D01*
X18841230Y-14570079D02*
X18850753Y-14551031D01*
X18850753Y-14551031D02*
X18860277Y-14541508D01*
X18860277Y-14541508D02*
X18879325Y-14531984D01*
X19012658Y-14531984D02*
X19145991Y-14531984D01*
X19145991Y-14531984D02*
X19060277Y-14731984D01*
X19374563Y-14731984D02*
X19374563Y-14531984D01*
X19460277Y-14731984D02*
X19460277Y-14627222D01*
X19460277Y-14627222D02*
X19450753Y-14608174D01*
X19450753Y-14608174D02*
X19431706Y-14598650D01*
X19431706Y-14598650D02*
X19403134Y-14598650D01*
X19403134Y-14598650D02*
X19384087Y-14608174D01*
X19384087Y-14608174D02*
X19374563Y-14617698D01*
X19584087Y-14731984D02*
X19565039Y-14722460D01*
X19565039Y-14722460D02*
X19555515Y-14712936D01*
X19555515Y-14712936D02*
X19545992Y-14693888D01*
X19545992Y-14693888D02*
X19545992Y-14636746D01*
X19545992Y-14636746D02*
X19555515Y-14617698D01*
X19555515Y-14617698D02*
X19565039Y-14608174D01*
X19565039Y-14608174D02*
X19584087Y-14598650D01*
X19584087Y-14598650D02*
X19612658Y-14598650D01*
X19612658Y-14598650D02*
X19631706Y-14608174D01*
X19631706Y-14608174D02*
X19641230Y-14617698D01*
X19641230Y-14617698D02*
X19650753Y-14636746D01*
X19650753Y-14636746D02*
X19650753Y-14693888D01*
X19650753Y-14693888D02*
X19641230Y-14712936D01*
X19641230Y-14712936D02*
X19631706Y-14722460D01*
X19631706Y-14722460D02*
X19612658Y-14731984D01*
X19612658Y-14731984D02*
X19584087Y-14731984D01*
X19765039Y-14731984D02*
X19745992Y-14722460D01*
X19745992Y-14722460D02*
X19736468Y-14703412D01*
X19736468Y-14703412D02*
X19736468Y-14531984D01*
X19917420Y-14722460D02*
X19898373Y-14731984D01*
X19898373Y-14731984D02*
X19860277Y-14731984D01*
X19860277Y-14731984D02*
X19841230Y-14722460D01*
X19841230Y-14722460D02*
X19831706Y-14703412D01*
X19831706Y-14703412D02*
X19831706Y-14627222D01*
X19831706Y-14627222D02*
X19841230Y-14608174D01*
X19841230Y-14608174D02*
X19860277Y-14598650D01*
X19860277Y-14598650D02*
X19898373Y-14598650D01*
X19898373Y-14598650D02*
X19917420Y-14608174D01*
X19917420Y-14608174D02*
X19926944Y-14627222D01*
X19926944Y-14627222D02*
X19926944Y-14646269D01*
X19926944Y-14646269D02*
X19831706Y-14665317D01*
X20003134Y-14722460D02*
X20022182Y-14731984D01*
X20022182Y-14731984D02*
X20060277Y-14731984D01*
X20060277Y-14731984D02*
X20079325Y-14722460D01*
X20079325Y-14722460D02*
X20088849Y-14703412D01*
X20088849Y-14703412D02*
X20088849Y-14693888D01*
X20088849Y-14693888D02*
X20079325Y-14674841D01*
X20079325Y-14674841D02*
X20060277Y-14665317D01*
X20060277Y-14665317D02*
X20031706Y-14665317D01*
X20031706Y-14665317D02*
X20012658Y-14655793D01*
X20012658Y-14655793D02*
X20003134Y-14636746D01*
X20003134Y-14636746D02*
X20003134Y-14627222D01*
X20003134Y-14627222D02*
X20012658Y-14608174D01*
X20012658Y-14608174D02*
X20031706Y-14598650D01*
X20031706Y-14598650D02*
X20060277Y-14598650D01*
X20060277Y-14598650D02*
X20079325Y-14608174D01*
X20155515Y-14808174D02*
X20165039Y-14798650D01*
X20165039Y-14798650D02*
X20184087Y-14770079D01*
X20184087Y-14770079D02*
X20193611Y-14751031D01*
X20193611Y-14751031D02*
X20203134Y-14722460D01*
X20203134Y-14722460D02*
X20212658Y-14674841D01*
X20212658Y-14674841D02*
X20212658Y-14636746D01*
X20212658Y-14636746D02*
X20203134Y-14589127D01*
X20203134Y-14589127D02*
X20193611Y-14560555D01*
X20193611Y-14560555D02*
X20184087Y-14541508D01*
X20184087Y-14541508D02*
X20165039Y-14512936D01*
X20165039Y-14512936D02*
X20155515Y-14503412D01*
D12*
X14999500Y-14904500D02*
G75*
G02*
X14969500Y-14904500I-15000J0D01*
G01*
X14969500Y-14904500D02*
G75*
G02*
X14999500Y-14904500I15000J0D01*
G01*
D11*
X15298372Y-14795984D02*
X15317420Y-14795984D01*
X15317420Y-14795984D02*
X15336467Y-14805508D01*
X15336467Y-14805508D02*
X15345991Y-14815031D01*
X15345991Y-14815031D02*
X15355515Y-14834079D01*
X15355515Y-14834079D02*
X15365039Y-14872174D01*
X15365039Y-14872174D02*
X15365039Y-14919793D01*
X15365039Y-14919793D02*
X15355515Y-14957888D01*
X15355515Y-14957888D02*
X15345991Y-14976936D01*
X15345991Y-14976936D02*
X15336467Y-14986460D01*
X15336467Y-14986460D02*
X15317420Y-14995984D01*
X15317420Y-14995984D02*
X15298372Y-14995984D01*
X15298372Y-14995984D02*
X15279324Y-14986460D01*
X15279324Y-14986460D02*
X15269801Y-14976936D01*
X15269801Y-14976936D02*
X15260277Y-14957888D01*
X15260277Y-14957888D02*
X15250753Y-14919793D01*
X15250753Y-14919793D02*
X15250753Y-14872174D01*
X15250753Y-14872174D02*
X15260277Y-14834079D01*
X15260277Y-14834079D02*
X15269801Y-14815031D01*
X15269801Y-14815031D02*
X15279324Y-14805508D01*
X15279324Y-14805508D02*
X15298372Y-14795984D01*
X15450753Y-14976936D02*
X15460277Y-14986460D01*
X15460277Y-14986460D02*
X15450753Y-14995984D01*
X15450753Y-14995984D02*
X15441229Y-14986460D01*
X15441229Y-14986460D02*
X15450753Y-14976936D01*
X15450753Y-14976936D02*
X15450753Y-14995984D01*
X15526943Y-14795984D02*
X15650753Y-14795984D01*
X15650753Y-14795984D02*
X15584086Y-14872174D01*
X15584086Y-14872174D02*
X15612658Y-14872174D01*
X15612658Y-14872174D02*
X15631705Y-14881698D01*
X15631705Y-14881698D02*
X15641229Y-14891222D01*
X15641229Y-14891222D02*
X15650753Y-14910269D01*
X15650753Y-14910269D02*
X15650753Y-14957888D01*
X15650753Y-14957888D02*
X15641229Y-14976936D01*
X15641229Y-14976936D02*
X15631705Y-14986460D01*
X15631705Y-14986460D02*
X15612658Y-14995984D01*
X15612658Y-14995984D02*
X15555515Y-14995984D01*
X15555515Y-14995984D02*
X15536467Y-14986460D01*
X15536467Y-14986460D02*
X15526943Y-14976936D01*
X15774562Y-14795984D02*
X15793610Y-14795984D01*
X15793610Y-14795984D02*
X15812658Y-14805508D01*
X15812658Y-14805508D02*
X15822182Y-14815031D01*
X15822182Y-14815031D02*
X15831705Y-14834079D01*
X15831705Y-14834079D02*
X15841229Y-14872174D01*
X15841229Y-14872174D02*
X15841229Y-14919793D01*
X15841229Y-14919793D02*
X15831705Y-14957888D01*
X15831705Y-14957888D02*
X15822182Y-14976936D01*
X15822182Y-14976936D02*
X15812658Y-14986460D01*
X15812658Y-14986460D02*
X15793610Y-14995984D01*
X15793610Y-14995984D02*
X15774562Y-14995984D01*
X15774562Y-14995984D02*
X15755515Y-14986460D01*
X15755515Y-14986460D02*
X15745991Y-14976936D01*
X15745991Y-14976936D02*
X15736467Y-14957888D01*
X15736467Y-14957888D02*
X15726943Y-14919793D01*
X15726943Y-14919793D02*
X15726943Y-14872174D01*
X15726943Y-14872174D02*
X15736467Y-14834079D01*
X15736467Y-14834079D02*
X15745991Y-14815031D01*
X15745991Y-14815031D02*
X15755515Y-14805508D01*
X15755515Y-14805508D02*
X15774562Y-14795984D01*
X15965039Y-14795984D02*
X15984086Y-14795984D01*
X15984086Y-14795984D02*
X16003134Y-14805508D01*
X16003134Y-14805508D02*
X16012658Y-14815031D01*
X16012658Y-14815031D02*
X16022182Y-14834079D01*
X16022182Y-14834079D02*
X16031705Y-14872174D01*
X16031705Y-14872174D02*
X16031705Y-14919793D01*
X16031705Y-14919793D02*
X16022182Y-14957888D01*
X16022182Y-14957888D02*
X16012658Y-14976936D01*
X16012658Y-14976936D02*
X16003134Y-14986460D01*
X16003134Y-14986460D02*
X15984086Y-14995984D01*
X15984086Y-14995984D02*
X15965039Y-14995984D01*
X15965039Y-14995984D02*
X15945991Y-14986460D01*
X15945991Y-14986460D02*
X15936467Y-14976936D01*
X15936467Y-14976936D02*
X15926943Y-14957888D01*
X15926943Y-14957888D02*
X15917420Y-14919793D01*
X15917420Y-14919793D02*
X15917420Y-14872174D01*
X15917420Y-14872174D02*
X15926943Y-14834079D01*
X15926943Y-14834079D02*
X15936467Y-14815031D01*
X15936467Y-14815031D02*
X15945991Y-14805508D01*
X15945991Y-14805508D02*
X15965039Y-14795984D01*
X16117420Y-14995984D02*
X16117420Y-14862650D01*
X16117420Y-14881698D02*
X16126943Y-14872174D01*
X16126943Y-14872174D02*
X16145991Y-14862650D01*
X16145991Y-14862650D02*
X16174563Y-14862650D01*
X16174563Y-14862650D02*
X16193610Y-14872174D01*
X16193610Y-14872174D02*
X16203134Y-14891222D01*
X16203134Y-14891222D02*
X16203134Y-14995984D01*
X16203134Y-14891222D02*
X16212658Y-14872174D01*
X16212658Y-14872174D02*
X16231705Y-14862650D01*
X16231705Y-14862650D02*
X16260277Y-14862650D01*
X16260277Y-14862650D02*
X16279324Y-14872174D01*
X16279324Y-14872174D02*
X16288848Y-14891222D01*
X16288848Y-14891222D02*
X16288848Y-14995984D01*
X16384086Y-14995984D02*
X16384086Y-14862650D01*
X16384086Y-14881698D02*
X16393610Y-14872174D01*
X16393610Y-14872174D02*
X16412658Y-14862650D01*
X16412658Y-14862650D02*
X16441229Y-14862650D01*
X16441229Y-14862650D02*
X16460277Y-14872174D01*
X16460277Y-14872174D02*
X16469801Y-14891222D01*
X16469801Y-14891222D02*
X16469801Y-14995984D01*
X16469801Y-14891222D02*
X16479324Y-14872174D01*
X16479324Y-14872174D02*
X16498372Y-14862650D01*
X16498372Y-14862650D02*
X16526943Y-14862650D01*
X16526943Y-14862650D02*
X16545991Y-14872174D01*
X16545991Y-14872174D02*
X16555515Y-14891222D01*
X16555515Y-14891222D02*
X16555515Y-14995984D01*
X16945991Y-14786460D02*
X16774563Y-15043603D01*
X17203134Y-14795984D02*
X17222182Y-14795984D01*
X17222182Y-14795984D02*
X17241229Y-14805508D01*
X17241229Y-14805508D02*
X17250753Y-14815031D01*
X17250753Y-14815031D02*
X17260277Y-14834079D01*
X17260277Y-14834079D02*
X17269801Y-14872174D01*
X17269801Y-14872174D02*
X17269801Y-14919793D01*
X17269801Y-14919793D02*
X17260277Y-14957888D01*
X17260277Y-14957888D02*
X17250753Y-14976936D01*
X17250753Y-14976936D02*
X17241229Y-14986460D01*
X17241229Y-14986460D02*
X17222182Y-14995984D01*
X17222182Y-14995984D02*
X17203134Y-14995984D01*
X17203134Y-14995984D02*
X17184087Y-14986460D01*
X17184087Y-14986460D02*
X17174563Y-14976936D01*
X17174563Y-14976936D02*
X17165039Y-14957888D01*
X17165039Y-14957888D02*
X17155515Y-14919793D01*
X17155515Y-14919793D02*
X17155515Y-14872174D01*
X17155515Y-14872174D02*
X17165039Y-14834079D01*
X17165039Y-14834079D02*
X17174563Y-14815031D01*
X17174563Y-14815031D02*
X17184087Y-14805508D01*
X17184087Y-14805508D02*
X17203134Y-14795984D01*
X17355515Y-14976936D02*
X17365039Y-14986460D01*
X17365039Y-14986460D02*
X17355515Y-14995984D01*
X17355515Y-14995984D02*
X17345991Y-14986460D01*
X17345991Y-14986460D02*
X17355515Y-14976936D01*
X17355515Y-14976936D02*
X17355515Y-14995984D01*
X17488848Y-14795984D02*
X17507896Y-14795984D01*
X17507896Y-14795984D02*
X17526944Y-14805508D01*
X17526944Y-14805508D02*
X17536468Y-14815031D01*
X17536468Y-14815031D02*
X17545991Y-14834079D01*
X17545991Y-14834079D02*
X17555515Y-14872174D01*
X17555515Y-14872174D02*
X17555515Y-14919793D01*
X17555515Y-14919793D02*
X17545991Y-14957888D01*
X17545991Y-14957888D02*
X17536468Y-14976936D01*
X17536468Y-14976936D02*
X17526944Y-14986460D01*
X17526944Y-14986460D02*
X17507896Y-14995984D01*
X17507896Y-14995984D02*
X17488848Y-14995984D01*
X17488848Y-14995984D02*
X17469801Y-14986460D01*
X17469801Y-14986460D02*
X17460277Y-14976936D01*
X17460277Y-14976936D02*
X17450753Y-14957888D01*
X17450753Y-14957888D02*
X17441229Y-14919793D01*
X17441229Y-14919793D02*
X17441229Y-14872174D01*
X17441229Y-14872174D02*
X17450753Y-14834079D01*
X17450753Y-14834079D02*
X17460277Y-14815031D01*
X17460277Y-14815031D02*
X17469801Y-14805508D01*
X17469801Y-14805508D02*
X17488848Y-14795984D01*
X17745991Y-14995984D02*
X17631706Y-14995984D01*
X17688848Y-14995984D02*
X17688848Y-14795984D01*
X17688848Y-14795984D02*
X17669801Y-14824555D01*
X17669801Y-14824555D02*
X17650753Y-14843603D01*
X17650753Y-14843603D02*
X17631706Y-14853127D01*
X17936468Y-14995984D02*
X17822182Y-14995984D01*
X17879325Y-14995984D02*
X17879325Y-14795984D01*
X17879325Y-14795984D02*
X17860277Y-14824555D01*
X17860277Y-14824555D02*
X17841229Y-14843603D01*
X17841229Y-14843603D02*
X17822182Y-14853127D01*
X18050753Y-14881698D02*
X18031706Y-14872174D01*
X18031706Y-14872174D02*
X18022182Y-14862650D01*
X18022182Y-14862650D02*
X18012658Y-14843603D01*
X18012658Y-14843603D02*
X18012658Y-14834079D01*
X18012658Y-14834079D02*
X18022182Y-14815031D01*
X18022182Y-14815031D02*
X18031706Y-14805508D01*
X18031706Y-14805508D02*
X18050753Y-14795984D01*
X18050753Y-14795984D02*
X18088849Y-14795984D01*
X18088849Y-14795984D02*
X18107896Y-14805508D01*
X18107896Y-14805508D02*
X18117420Y-14815031D01*
X18117420Y-14815031D02*
X18126944Y-14834079D01*
X18126944Y-14834079D02*
X18126944Y-14843603D01*
X18126944Y-14843603D02*
X18117420Y-14862650D01*
X18117420Y-14862650D02*
X18107896Y-14872174D01*
X18107896Y-14872174D02*
X18088849Y-14881698D01*
X18088849Y-14881698D02*
X18050753Y-14881698D01*
X18050753Y-14881698D02*
X18031706Y-14891222D01*
X18031706Y-14891222D02*
X18022182Y-14900746D01*
X18022182Y-14900746D02*
X18012658Y-14919793D01*
X18012658Y-14919793D02*
X18012658Y-14957888D01*
X18012658Y-14957888D02*
X18022182Y-14976936D01*
X18022182Y-14976936D02*
X18031706Y-14986460D01*
X18031706Y-14986460D02*
X18050753Y-14995984D01*
X18050753Y-14995984D02*
X18088849Y-14995984D01*
X18088849Y-14995984D02*
X18107896Y-14986460D01*
X18107896Y-14986460D02*
X18117420Y-14976936D01*
X18117420Y-14976936D02*
X18126944Y-14957888D01*
X18126944Y-14957888D02*
X18126944Y-14919793D01*
X18126944Y-14919793D02*
X18117420Y-14900746D01*
X18117420Y-14900746D02*
X18107896Y-14891222D01*
X18107896Y-14891222D02*
X18088849Y-14881698D01*
X18203134Y-14795984D02*
X18203134Y-14834079D01*
X18279325Y-14795984D02*
X18279325Y-14834079D01*
X18574563Y-15072174D02*
X18565039Y-15062650D01*
X18565039Y-15062650D02*
X18545991Y-15034079D01*
X18545991Y-15034079D02*
X18536468Y-15015031D01*
X18536468Y-15015031D02*
X18526944Y-14986460D01*
X18526944Y-14986460D02*
X18517420Y-14938841D01*
X18517420Y-14938841D02*
X18517420Y-14900746D01*
X18517420Y-14900746D02*
X18526944Y-14853127D01*
X18526944Y-14853127D02*
X18536468Y-14824555D01*
X18536468Y-14824555D02*
X18545991Y-14805508D01*
X18545991Y-14805508D02*
X18565039Y-14776936D01*
X18565039Y-14776936D02*
X18574563Y-14767412D01*
X18641230Y-14815031D02*
X18650753Y-14805508D01*
X18650753Y-14805508D02*
X18669801Y-14795984D01*
X18669801Y-14795984D02*
X18717420Y-14795984D01*
X18717420Y-14795984D02*
X18736468Y-14805508D01*
X18736468Y-14805508D02*
X18745991Y-14815031D01*
X18745991Y-14815031D02*
X18755515Y-14834079D01*
X18755515Y-14834079D02*
X18755515Y-14853127D01*
X18755515Y-14853127D02*
X18745991Y-14881698D01*
X18745991Y-14881698D02*
X18631706Y-14995984D01*
X18631706Y-14995984D02*
X18755515Y-14995984D01*
X18993611Y-14995984D02*
X18993611Y-14795984D01*
X19079325Y-14995984D02*
X19079325Y-14891222D01*
X19079325Y-14891222D02*
X19069801Y-14872174D01*
X19069801Y-14872174D02*
X19050753Y-14862650D01*
X19050753Y-14862650D02*
X19022182Y-14862650D01*
X19022182Y-14862650D02*
X19003134Y-14872174D01*
X19003134Y-14872174D02*
X18993611Y-14881698D01*
X19203134Y-14995984D02*
X19184087Y-14986460D01*
X19184087Y-14986460D02*
X19174563Y-14976936D01*
X19174563Y-14976936D02*
X19165039Y-14957888D01*
X19165039Y-14957888D02*
X19165039Y-14900746D01*
X19165039Y-14900746D02*
X19174563Y-14881698D01*
X19174563Y-14881698D02*
X19184087Y-14872174D01*
X19184087Y-14872174D02*
X19203134Y-14862650D01*
X19203134Y-14862650D02*
X19231706Y-14862650D01*
X19231706Y-14862650D02*
X19250753Y-14872174D01*
X19250753Y-14872174D02*
X19260277Y-14881698D01*
X19260277Y-14881698D02*
X19269801Y-14900746D01*
X19269801Y-14900746D02*
X19269801Y-14957888D01*
X19269801Y-14957888D02*
X19260277Y-14976936D01*
X19260277Y-14976936D02*
X19250753Y-14986460D01*
X19250753Y-14986460D02*
X19231706Y-14995984D01*
X19231706Y-14995984D02*
X19203134Y-14995984D01*
X19384087Y-14995984D02*
X19365039Y-14986460D01*
X19365039Y-14986460D02*
X19355515Y-14967412D01*
X19355515Y-14967412D02*
X19355515Y-14795984D01*
X19536468Y-14986460D02*
X19517420Y-14995984D01*
X19517420Y-14995984D02*
X19479325Y-14995984D01*
X19479325Y-14995984D02*
X19460277Y-14986460D01*
X19460277Y-14986460D02*
X19450753Y-14967412D01*
X19450753Y-14967412D02*
X19450753Y-14891222D01*
X19450753Y-14891222D02*
X19460277Y-14872174D01*
X19460277Y-14872174D02*
X19479325Y-14862650D01*
X19479325Y-14862650D02*
X19517420Y-14862650D01*
X19517420Y-14862650D02*
X19536468Y-14872174D01*
X19536468Y-14872174D02*
X19545992Y-14891222D01*
X19545992Y-14891222D02*
X19545992Y-14910269D01*
X19545992Y-14910269D02*
X19450753Y-14929317D01*
X19622182Y-14986460D02*
X19641230Y-14995984D01*
X19641230Y-14995984D02*
X19679325Y-14995984D01*
X19679325Y-14995984D02*
X19698373Y-14986460D01*
X19698373Y-14986460D02*
X19707896Y-14967412D01*
X19707896Y-14967412D02*
X19707896Y-14957888D01*
X19707896Y-14957888D02*
X19698373Y-14938841D01*
X19698373Y-14938841D02*
X19679325Y-14929317D01*
X19679325Y-14929317D02*
X19650753Y-14929317D01*
X19650753Y-14929317D02*
X19631706Y-14919793D01*
X19631706Y-14919793D02*
X19622182Y-14900746D01*
X19622182Y-14900746D02*
X19622182Y-14891222D01*
X19622182Y-14891222D02*
X19631706Y-14872174D01*
X19631706Y-14872174D02*
X19650753Y-14862650D01*
X19650753Y-14862650D02*
X19679325Y-14862650D01*
X19679325Y-14862650D02*
X19698373Y-14872174D01*
X19774563Y-15072174D02*
X19784087Y-15062650D01*
X19784087Y-15062650D02*
X19803134Y-15034079D01*
X19803134Y-15034079D02*
X19812658Y-15015031D01*
X19812658Y-15015031D02*
X19822182Y-14986460D01*
X19822182Y-14986460D02*
X19831706Y-14938841D01*
X19831706Y-14938841D02*
X19831706Y-14900746D01*
X19831706Y-14900746D02*
X19822182Y-14853127D01*
X19822182Y-14853127D02*
X19812658Y-14824555D01*
X19812658Y-14824555D02*
X19803134Y-14805508D01*
X19803134Y-14805508D02*
X19784087Y-14776936D01*
X19784087Y-14776936D02*
X19774563Y-14767412D01*
D12*
X14969500Y-15138500D02*
X14969500Y-15198500D01*
X14939500Y-15168500D02*
X14999500Y-15168500D01*
D11*
X15298372Y-15059984D02*
X15317420Y-15059984D01*
X15317420Y-15059984D02*
X15336467Y-15069508D01*
X15336467Y-15069508D02*
X15345991Y-15079031D01*
X15345991Y-15079031D02*
X15355515Y-15098079D01*
X15355515Y-15098079D02*
X15365039Y-15136174D01*
X15365039Y-15136174D02*
X15365039Y-15183793D01*
X15365039Y-15183793D02*
X15355515Y-15221888D01*
X15355515Y-15221888D02*
X15345991Y-15240936D01*
X15345991Y-15240936D02*
X15336467Y-15250460D01*
X15336467Y-15250460D02*
X15317420Y-15259984D01*
X15317420Y-15259984D02*
X15298372Y-15259984D01*
X15298372Y-15259984D02*
X15279324Y-15250460D01*
X15279324Y-15250460D02*
X15269801Y-15240936D01*
X15269801Y-15240936D02*
X15260277Y-15221888D01*
X15260277Y-15221888D02*
X15250753Y-15183793D01*
X15250753Y-15183793D02*
X15250753Y-15136174D01*
X15250753Y-15136174D02*
X15260277Y-15098079D01*
X15260277Y-15098079D02*
X15269801Y-15079031D01*
X15269801Y-15079031D02*
X15279324Y-15069508D01*
X15279324Y-15069508D02*
X15298372Y-15059984D01*
X15450753Y-15240936D02*
X15460277Y-15250460D01*
X15460277Y-15250460D02*
X15450753Y-15259984D01*
X15450753Y-15259984D02*
X15441229Y-15250460D01*
X15441229Y-15250460D02*
X15450753Y-15240936D01*
X15450753Y-15240936D02*
X15450753Y-15259984D01*
X15631705Y-15059984D02*
X15593610Y-15059984D01*
X15593610Y-15059984D02*
X15574562Y-15069508D01*
X15574562Y-15069508D02*
X15565039Y-15079031D01*
X15565039Y-15079031D02*
X15545991Y-15107603D01*
X15545991Y-15107603D02*
X15536467Y-15145698D01*
X15536467Y-15145698D02*
X15536467Y-15221888D01*
X15536467Y-15221888D02*
X15545991Y-15240936D01*
X15545991Y-15240936D02*
X15555515Y-15250460D01*
X15555515Y-15250460D02*
X15574562Y-15259984D01*
X15574562Y-15259984D02*
X15612658Y-15259984D01*
X15612658Y-15259984D02*
X15631705Y-15250460D01*
X15631705Y-15250460D02*
X15641229Y-15240936D01*
X15641229Y-15240936D02*
X15650753Y-15221888D01*
X15650753Y-15221888D02*
X15650753Y-15174269D01*
X15650753Y-15174269D02*
X15641229Y-15155222D01*
X15641229Y-15155222D02*
X15631705Y-15145698D01*
X15631705Y-15145698D02*
X15612658Y-15136174D01*
X15612658Y-15136174D02*
X15574562Y-15136174D01*
X15574562Y-15136174D02*
X15555515Y-15145698D01*
X15555515Y-15145698D02*
X15545991Y-15155222D01*
X15545991Y-15155222D02*
X15536467Y-15174269D01*
X15774562Y-15059984D02*
X15793610Y-15059984D01*
X15793610Y-15059984D02*
X15812658Y-15069508D01*
X15812658Y-15069508D02*
X15822182Y-15079031D01*
X15822182Y-15079031D02*
X15831705Y-15098079D01*
X15831705Y-15098079D02*
X15841229Y-15136174D01*
X15841229Y-15136174D02*
X15841229Y-15183793D01*
X15841229Y-15183793D02*
X15831705Y-15221888D01*
X15831705Y-15221888D02*
X15822182Y-15240936D01*
X15822182Y-15240936D02*
X15812658Y-15250460D01*
X15812658Y-15250460D02*
X15793610Y-15259984D01*
X15793610Y-15259984D02*
X15774562Y-15259984D01*
X15774562Y-15259984D02*
X15755515Y-15250460D01*
X15755515Y-15250460D02*
X15745991Y-15240936D01*
X15745991Y-15240936D02*
X15736467Y-15221888D01*
X15736467Y-15221888D02*
X15726943Y-15183793D01*
X15726943Y-15183793D02*
X15726943Y-15136174D01*
X15726943Y-15136174D02*
X15736467Y-15098079D01*
X15736467Y-15098079D02*
X15745991Y-15079031D01*
X15745991Y-15079031D02*
X15755515Y-15069508D01*
X15755515Y-15069508D02*
X15774562Y-15059984D01*
X15965039Y-15059984D02*
X15984086Y-15059984D01*
X15984086Y-15059984D02*
X16003134Y-15069508D01*
X16003134Y-15069508D02*
X16012658Y-15079031D01*
X16012658Y-15079031D02*
X16022182Y-15098079D01*
X16022182Y-15098079D02*
X16031705Y-15136174D01*
X16031705Y-15136174D02*
X16031705Y-15183793D01*
X16031705Y-15183793D02*
X16022182Y-15221888D01*
X16022182Y-15221888D02*
X16012658Y-15240936D01*
X16012658Y-15240936D02*
X16003134Y-15250460D01*
X16003134Y-15250460D02*
X15984086Y-15259984D01*
X15984086Y-15259984D02*
X15965039Y-15259984D01*
X15965039Y-15259984D02*
X15945991Y-15250460D01*
X15945991Y-15250460D02*
X15936467Y-15240936D01*
X15936467Y-15240936D02*
X15926943Y-15221888D01*
X15926943Y-15221888D02*
X15917420Y-15183793D01*
X15917420Y-15183793D02*
X15917420Y-15136174D01*
X15917420Y-15136174D02*
X15926943Y-15098079D01*
X15926943Y-15098079D02*
X15936467Y-15079031D01*
X15936467Y-15079031D02*
X15945991Y-15069508D01*
X15945991Y-15069508D02*
X15965039Y-15059984D01*
X16117420Y-15259984D02*
X16117420Y-15126650D01*
X16117420Y-15145698D02*
X16126943Y-15136174D01*
X16126943Y-15136174D02*
X16145991Y-15126650D01*
X16145991Y-15126650D02*
X16174563Y-15126650D01*
X16174563Y-15126650D02*
X16193610Y-15136174D01*
X16193610Y-15136174D02*
X16203134Y-15155222D01*
X16203134Y-15155222D02*
X16203134Y-15259984D01*
X16203134Y-15155222D02*
X16212658Y-15136174D01*
X16212658Y-15136174D02*
X16231705Y-15126650D01*
X16231705Y-15126650D02*
X16260277Y-15126650D01*
X16260277Y-15126650D02*
X16279324Y-15136174D01*
X16279324Y-15136174D02*
X16288848Y-15155222D01*
X16288848Y-15155222D02*
X16288848Y-15259984D01*
X16384086Y-15259984D02*
X16384086Y-15126650D01*
X16384086Y-15145698D02*
X16393610Y-15136174D01*
X16393610Y-15136174D02*
X16412658Y-15126650D01*
X16412658Y-15126650D02*
X16441229Y-15126650D01*
X16441229Y-15126650D02*
X16460277Y-15136174D01*
X16460277Y-15136174D02*
X16469801Y-15155222D01*
X16469801Y-15155222D02*
X16469801Y-15259984D01*
X16469801Y-15155222D02*
X16479324Y-15136174D01*
X16479324Y-15136174D02*
X16498372Y-15126650D01*
X16498372Y-15126650D02*
X16526943Y-15126650D01*
X16526943Y-15126650D02*
X16545991Y-15136174D01*
X16545991Y-15136174D02*
X16555515Y-15155222D01*
X16555515Y-15155222D02*
X16555515Y-15259984D01*
X16945991Y-15050460D02*
X16774563Y-15307603D01*
X17203134Y-15059984D02*
X17222182Y-15059984D01*
X17222182Y-15059984D02*
X17241229Y-15069508D01*
X17241229Y-15069508D02*
X17250753Y-15079031D01*
X17250753Y-15079031D02*
X17260277Y-15098079D01*
X17260277Y-15098079D02*
X17269801Y-15136174D01*
X17269801Y-15136174D02*
X17269801Y-15183793D01*
X17269801Y-15183793D02*
X17260277Y-15221888D01*
X17260277Y-15221888D02*
X17250753Y-15240936D01*
X17250753Y-15240936D02*
X17241229Y-15250460D01*
X17241229Y-15250460D02*
X17222182Y-15259984D01*
X17222182Y-15259984D02*
X17203134Y-15259984D01*
X17203134Y-15259984D02*
X17184087Y-15250460D01*
X17184087Y-15250460D02*
X17174563Y-15240936D01*
X17174563Y-15240936D02*
X17165039Y-15221888D01*
X17165039Y-15221888D02*
X17155515Y-15183793D01*
X17155515Y-15183793D02*
X17155515Y-15136174D01*
X17155515Y-15136174D02*
X17165039Y-15098079D01*
X17165039Y-15098079D02*
X17174563Y-15079031D01*
X17174563Y-15079031D02*
X17184087Y-15069508D01*
X17184087Y-15069508D02*
X17203134Y-15059984D01*
X17355515Y-15240936D02*
X17365039Y-15250460D01*
X17365039Y-15250460D02*
X17355515Y-15259984D01*
X17355515Y-15259984D02*
X17345991Y-15250460D01*
X17345991Y-15250460D02*
X17355515Y-15240936D01*
X17355515Y-15240936D02*
X17355515Y-15259984D01*
X17488848Y-15059984D02*
X17507896Y-15059984D01*
X17507896Y-15059984D02*
X17526944Y-15069508D01*
X17526944Y-15069508D02*
X17536468Y-15079031D01*
X17536468Y-15079031D02*
X17545991Y-15098079D01*
X17545991Y-15098079D02*
X17555515Y-15136174D01*
X17555515Y-15136174D02*
X17555515Y-15183793D01*
X17555515Y-15183793D02*
X17545991Y-15221888D01*
X17545991Y-15221888D02*
X17536468Y-15240936D01*
X17536468Y-15240936D02*
X17526944Y-15250460D01*
X17526944Y-15250460D02*
X17507896Y-15259984D01*
X17507896Y-15259984D02*
X17488848Y-15259984D01*
X17488848Y-15259984D02*
X17469801Y-15250460D01*
X17469801Y-15250460D02*
X17460277Y-15240936D01*
X17460277Y-15240936D02*
X17450753Y-15221888D01*
X17450753Y-15221888D02*
X17441229Y-15183793D01*
X17441229Y-15183793D02*
X17441229Y-15136174D01*
X17441229Y-15136174D02*
X17450753Y-15098079D01*
X17450753Y-15098079D02*
X17460277Y-15079031D01*
X17460277Y-15079031D02*
X17469801Y-15069508D01*
X17469801Y-15069508D02*
X17488848Y-15059984D01*
X17631706Y-15079031D02*
X17641229Y-15069508D01*
X17641229Y-15069508D02*
X17660277Y-15059984D01*
X17660277Y-15059984D02*
X17707896Y-15059984D01*
X17707896Y-15059984D02*
X17726944Y-15069508D01*
X17726944Y-15069508D02*
X17736468Y-15079031D01*
X17736468Y-15079031D02*
X17745991Y-15098079D01*
X17745991Y-15098079D02*
X17745991Y-15117127D01*
X17745991Y-15117127D02*
X17736468Y-15145698D01*
X17736468Y-15145698D02*
X17622182Y-15259984D01*
X17622182Y-15259984D02*
X17745991Y-15259984D01*
X17812658Y-15059984D02*
X17936468Y-15059984D01*
X17936468Y-15059984D02*
X17869801Y-15136174D01*
X17869801Y-15136174D02*
X17898372Y-15136174D01*
X17898372Y-15136174D02*
X17917420Y-15145698D01*
X17917420Y-15145698D02*
X17926944Y-15155222D01*
X17926944Y-15155222D02*
X17936468Y-15174269D01*
X17936468Y-15174269D02*
X17936468Y-15221888D01*
X17936468Y-15221888D02*
X17926944Y-15240936D01*
X17926944Y-15240936D02*
X17917420Y-15250460D01*
X17917420Y-15250460D02*
X17898372Y-15259984D01*
X17898372Y-15259984D02*
X17841229Y-15259984D01*
X17841229Y-15259984D02*
X17822182Y-15250460D01*
X17822182Y-15250460D02*
X17812658Y-15240936D01*
X18107896Y-15059984D02*
X18069801Y-15059984D01*
X18069801Y-15059984D02*
X18050753Y-15069508D01*
X18050753Y-15069508D02*
X18041229Y-15079031D01*
X18041229Y-15079031D02*
X18022182Y-15107603D01*
X18022182Y-15107603D02*
X18012658Y-15145698D01*
X18012658Y-15145698D02*
X18012658Y-15221888D01*
X18012658Y-15221888D02*
X18022182Y-15240936D01*
X18022182Y-15240936D02*
X18031706Y-15250460D01*
X18031706Y-15250460D02*
X18050753Y-15259984D01*
X18050753Y-15259984D02*
X18088849Y-15259984D01*
X18088849Y-15259984D02*
X18107896Y-15250460D01*
X18107896Y-15250460D02*
X18117420Y-15240936D01*
X18117420Y-15240936D02*
X18126944Y-15221888D01*
X18126944Y-15221888D02*
X18126944Y-15174269D01*
X18126944Y-15174269D02*
X18117420Y-15155222D01*
X18117420Y-15155222D02*
X18107896Y-15145698D01*
X18107896Y-15145698D02*
X18088849Y-15136174D01*
X18088849Y-15136174D02*
X18050753Y-15136174D01*
X18050753Y-15136174D02*
X18031706Y-15145698D01*
X18031706Y-15145698D02*
X18022182Y-15155222D01*
X18022182Y-15155222D02*
X18012658Y-15174269D01*
X18203134Y-15059984D02*
X18203134Y-15098079D01*
X18279325Y-15059984D02*
X18279325Y-15098079D01*
X18574563Y-15336174D02*
X18565039Y-15326650D01*
X18565039Y-15326650D02*
X18545991Y-15298079D01*
X18545991Y-15298079D02*
X18536468Y-15279031D01*
X18536468Y-15279031D02*
X18526944Y-15250460D01*
X18526944Y-15250460D02*
X18517420Y-15202841D01*
X18517420Y-15202841D02*
X18517420Y-15164746D01*
X18517420Y-15164746D02*
X18526944Y-15117127D01*
X18526944Y-15117127D02*
X18536468Y-15088555D01*
X18536468Y-15088555D02*
X18545991Y-15069508D01*
X18545991Y-15069508D02*
X18565039Y-15040936D01*
X18565039Y-15040936D02*
X18574563Y-15031412D01*
X18688849Y-15059984D02*
X18707896Y-15059984D01*
X18707896Y-15059984D02*
X18726944Y-15069508D01*
X18726944Y-15069508D02*
X18736468Y-15079031D01*
X18736468Y-15079031D02*
X18745991Y-15098079D01*
X18745991Y-15098079D02*
X18755515Y-15136174D01*
X18755515Y-15136174D02*
X18755515Y-15183793D01*
X18755515Y-15183793D02*
X18745991Y-15221888D01*
X18745991Y-15221888D02*
X18736468Y-15240936D01*
X18736468Y-15240936D02*
X18726944Y-15250460D01*
X18726944Y-15250460D02*
X18707896Y-15259984D01*
X18707896Y-15259984D02*
X18688849Y-15259984D01*
X18688849Y-15259984D02*
X18669801Y-15250460D01*
X18669801Y-15250460D02*
X18660277Y-15240936D01*
X18660277Y-15240936D02*
X18650753Y-15221888D01*
X18650753Y-15221888D02*
X18641230Y-15183793D01*
X18641230Y-15183793D02*
X18641230Y-15136174D01*
X18641230Y-15136174D02*
X18650753Y-15098079D01*
X18650753Y-15098079D02*
X18660277Y-15079031D01*
X18660277Y-15079031D02*
X18669801Y-15069508D01*
X18669801Y-15069508D02*
X18688849Y-15059984D01*
X18993611Y-15259984D02*
X18993611Y-15059984D01*
X19079325Y-15259984D02*
X19079325Y-15155222D01*
X19079325Y-15155222D02*
X19069801Y-15136174D01*
X19069801Y-15136174D02*
X19050753Y-15126650D01*
X19050753Y-15126650D02*
X19022182Y-15126650D01*
X19022182Y-15126650D02*
X19003134Y-15136174D01*
X19003134Y-15136174D02*
X18993611Y-15145698D01*
X19203134Y-15259984D02*
X19184087Y-15250460D01*
X19184087Y-15250460D02*
X19174563Y-15240936D01*
X19174563Y-15240936D02*
X19165039Y-15221888D01*
X19165039Y-15221888D02*
X19165039Y-15164746D01*
X19165039Y-15164746D02*
X19174563Y-15145698D01*
X19174563Y-15145698D02*
X19184087Y-15136174D01*
X19184087Y-15136174D02*
X19203134Y-15126650D01*
X19203134Y-15126650D02*
X19231706Y-15126650D01*
X19231706Y-15126650D02*
X19250753Y-15136174D01*
X19250753Y-15136174D02*
X19260277Y-15145698D01*
X19260277Y-15145698D02*
X19269801Y-15164746D01*
X19269801Y-15164746D02*
X19269801Y-15221888D01*
X19269801Y-15221888D02*
X19260277Y-15240936D01*
X19260277Y-15240936D02*
X19250753Y-15250460D01*
X19250753Y-15250460D02*
X19231706Y-15259984D01*
X19231706Y-15259984D02*
X19203134Y-15259984D01*
X19384087Y-15259984D02*
X19365039Y-15250460D01*
X19365039Y-15250460D02*
X19355515Y-15231412D01*
X19355515Y-15231412D02*
X19355515Y-15059984D01*
X19536468Y-15250460D02*
X19517420Y-15259984D01*
X19517420Y-15259984D02*
X19479325Y-15259984D01*
X19479325Y-15259984D02*
X19460277Y-15250460D01*
X19460277Y-15250460D02*
X19450753Y-15231412D01*
X19450753Y-15231412D02*
X19450753Y-15155222D01*
X19450753Y-15155222D02*
X19460277Y-15136174D01*
X19460277Y-15136174D02*
X19479325Y-15126650D01*
X19479325Y-15126650D02*
X19517420Y-15126650D01*
X19517420Y-15126650D02*
X19536468Y-15136174D01*
X19536468Y-15136174D02*
X19545992Y-15155222D01*
X19545992Y-15155222D02*
X19545992Y-15174269D01*
X19545992Y-15174269D02*
X19450753Y-15193317D01*
X19622182Y-15250460D02*
X19641230Y-15259984D01*
X19641230Y-15259984D02*
X19679325Y-15259984D01*
X19679325Y-15259984D02*
X19698373Y-15250460D01*
X19698373Y-15250460D02*
X19707896Y-15231412D01*
X19707896Y-15231412D02*
X19707896Y-15221888D01*
X19707896Y-15221888D02*
X19698373Y-15202841D01*
X19698373Y-15202841D02*
X19679325Y-15193317D01*
X19679325Y-15193317D02*
X19650753Y-15193317D01*
X19650753Y-15193317D02*
X19631706Y-15183793D01*
X19631706Y-15183793D02*
X19622182Y-15164746D01*
X19622182Y-15164746D02*
X19622182Y-15155222D01*
X19622182Y-15155222D02*
X19631706Y-15136174D01*
X19631706Y-15136174D02*
X19650753Y-15126650D01*
X19650753Y-15126650D02*
X19679325Y-15126650D01*
X19679325Y-15126650D02*
X19698373Y-15136174D01*
X19945992Y-15183793D02*
X20098373Y-15183793D01*
X20022182Y-15259984D02*
X20022182Y-15107603D01*
X20431706Y-15126650D02*
X20431706Y-15259984D01*
X20384087Y-15050460D02*
X20336468Y-15193317D01*
X20336468Y-15193317D02*
X20460277Y-15193317D01*
X20679325Y-15250460D02*
X20698373Y-15259984D01*
X20698373Y-15259984D02*
X20736468Y-15259984D01*
X20736468Y-15259984D02*
X20755516Y-15250460D01*
X20755516Y-15250460D02*
X20765039Y-15231412D01*
X20765039Y-15231412D02*
X20765039Y-15221888D01*
X20765039Y-15221888D02*
X20755516Y-15202841D01*
X20755516Y-15202841D02*
X20736468Y-15193317D01*
X20736468Y-15193317D02*
X20707896Y-15193317D01*
X20707896Y-15193317D02*
X20688849Y-15183793D01*
X20688849Y-15183793D02*
X20679325Y-15164746D01*
X20679325Y-15164746D02*
X20679325Y-15155222D01*
X20679325Y-15155222D02*
X20688849Y-15136174D01*
X20688849Y-15136174D02*
X20707896Y-15126650D01*
X20707896Y-15126650D02*
X20736468Y-15126650D01*
X20736468Y-15126650D02*
X20755516Y-15136174D01*
X20879325Y-15259984D02*
X20860277Y-15250460D01*
X20860277Y-15250460D02*
X20850754Y-15231412D01*
X20850754Y-15231412D02*
X20850754Y-15059984D01*
X20984087Y-15259984D02*
X20965039Y-15250460D01*
X20965039Y-15250460D02*
X20955516Y-15240936D01*
X20955516Y-15240936D02*
X20945992Y-15221888D01*
X20945992Y-15221888D02*
X20945992Y-15164746D01*
X20945992Y-15164746D02*
X20955516Y-15145698D01*
X20955516Y-15145698D02*
X20965039Y-15136174D01*
X20965039Y-15136174D02*
X20984087Y-15126650D01*
X20984087Y-15126650D02*
X21012658Y-15126650D01*
X21012658Y-15126650D02*
X21031706Y-15136174D01*
X21031706Y-15136174D02*
X21041230Y-15145698D01*
X21041230Y-15145698D02*
X21050754Y-15164746D01*
X21050754Y-15164746D02*
X21050754Y-15221888D01*
X21050754Y-15221888D02*
X21041230Y-15240936D01*
X21041230Y-15240936D02*
X21031706Y-15250460D01*
X21031706Y-15250460D02*
X21012658Y-15259984D01*
X21012658Y-15259984D02*
X20984087Y-15259984D01*
X21107897Y-15126650D02*
X21184087Y-15126650D01*
X21136468Y-15059984D02*
X21136468Y-15231412D01*
X21136468Y-15231412D02*
X21145992Y-15250460D01*
X21145992Y-15250460D02*
X21165039Y-15259984D01*
X21165039Y-15259984D02*
X21184087Y-15259984D01*
X21241230Y-15250460D02*
X21260277Y-15259984D01*
X21260277Y-15259984D02*
X21298373Y-15259984D01*
X21298373Y-15259984D02*
X21317420Y-15250460D01*
X21317420Y-15250460D02*
X21326944Y-15231412D01*
X21326944Y-15231412D02*
X21326944Y-15221888D01*
X21326944Y-15221888D02*
X21317420Y-15202841D01*
X21317420Y-15202841D02*
X21298373Y-15193317D01*
X21298373Y-15193317D02*
X21269801Y-15193317D01*
X21269801Y-15193317D02*
X21250754Y-15183793D01*
X21250754Y-15183793D02*
X21241230Y-15164746D01*
X21241230Y-15164746D02*
X21241230Y-15155222D01*
X21241230Y-15155222D02*
X21250754Y-15136174D01*
X21250754Y-15136174D02*
X21269801Y-15126650D01*
X21269801Y-15126650D02*
X21298373Y-15126650D01*
X21298373Y-15126650D02*
X21317420Y-15136174D01*
X21393611Y-15336174D02*
X21403135Y-15326650D01*
X21403135Y-15326650D02*
X21422182Y-15298079D01*
X21422182Y-15298079D02*
X21431706Y-15279031D01*
X21431706Y-15279031D02*
X21441230Y-15250460D01*
X21441230Y-15250460D02*
X21450754Y-15202841D01*
X21450754Y-15202841D02*
X21450754Y-15164746D01*
X21450754Y-15164746D02*
X21441230Y-15117127D01*
X21441230Y-15117127D02*
X21431706Y-15088555D01*
X21431706Y-15088555D02*
X21422182Y-15069508D01*
X21422182Y-15069508D02*
X21403135Y-15040936D01*
X21403135Y-15040936D02*
X21393611Y-15031412D01*
M02*
