G04 #@! TF.GenerationSoftware,KiCad,Pcbnew,8.0.4*
G04 #@! TF.CreationDate,2024-10-04T00:04:43-04:00*
G04 #@! TF.ProjectId,BlueSTM32,426c7565-5354-44d3-9332-2e6b69636164,rev?*
G04 #@! TF.SameCoordinates,Original*
G04 #@! TF.FileFunction,Copper,L4,Bot*
G04 #@! TF.FilePolarity,Positive*
%FSLAX46Y46*%
G04 Gerber Fmt 4.6, Leading zero omitted, Abs format (unit mm)*
G04 Created by KiCad (PCBNEW 8.0.4) date 2024-10-04 00:04:43*
%MOMM*%
%LPD*%
G01*
G04 APERTURE LIST*
G04 Aperture macros list*
%AMRoundRect*
0 Rectangle with rounded corners*
0 $1 Rounding radius*
0 $2 $3 $4 $5 $6 $7 $8 $9 X,Y pos of 4 corners*
0 Add a 4 corners polygon primitive as box body*
4,1,4,$2,$3,$4,$5,$6,$7,$8,$9,$2,$3,0*
0 Add four circle primitives for the rounded corners*
1,1,$1+$1,$2,$3*
1,1,$1+$1,$4,$5*
1,1,$1+$1,$6,$7*
1,1,$1+$1,$8,$9*
0 Add four rect primitives between the rounded corners*
20,1,$1+$1,$2,$3,$4,$5,0*
20,1,$1+$1,$4,$5,$6,$7,0*
20,1,$1+$1,$6,$7,$8,$9,0*
20,1,$1+$1,$8,$9,$2,$3,0*%
G04 Aperture macros list end*
G04 #@! TA.AperFunction,EtchedComponent*
%ADD10C,0.010000*%
G04 #@! TD*
G04 #@! TA.AperFunction,SMDPad,CuDef*
%ADD11C,4.000000*%
G04 #@! TD*
G04 #@! TA.AperFunction,SMDPad,CuDef*
%ADD12RoundRect,0.160000X-0.197500X-0.160000X0.197500X-0.160000X0.197500X0.160000X-0.197500X0.160000X0*%
G04 #@! TD*
G04 #@! TA.AperFunction,SMDPad,CuDef*
%ADD13RoundRect,0.160000X0.197500X0.160000X-0.197500X0.160000X-0.197500X-0.160000X0.197500X-0.160000X0*%
G04 #@! TD*
G04 #@! TA.AperFunction,SMDPad,CuDef*
%ADD14RoundRect,0.160000X0.160000X-0.197500X0.160000X0.197500X-0.160000X0.197500X-0.160000X-0.197500X0*%
G04 #@! TD*
G04 #@! TA.AperFunction,SMDPad,CuDef*
%ADD15RoundRect,0.160000X-0.160000X0.197500X-0.160000X-0.197500X0.160000X-0.197500X0.160000X0.197500X0*%
G04 #@! TD*
G04 #@! TA.AperFunction,SMDPad,CuDef*
%ADD16RoundRect,0.155000X-0.155000X0.212500X-0.155000X-0.212500X0.155000X-0.212500X0.155000X0.212500X0*%
G04 #@! TD*
G04 #@! TA.AperFunction,SMDPad,CuDef*
%ADD17RoundRect,0.155000X0.155000X-0.212500X0.155000X0.212500X-0.155000X0.212500X-0.155000X-0.212500X0*%
G04 #@! TD*
G04 #@! TA.AperFunction,SMDPad,CuDef*
%ADD18RoundRect,0.155000X0.212500X0.155000X-0.212500X0.155000X-0.212500X-0.155000X0.212500X-0.155000X0*%
G04 #@! TD*
G04 #@! TA.AperFunction,SMDPad,CuDef*
%ADD19RoundRect,0.155000X-0.212500X-0.155000X0.212500X-0.155000X0.212500X0.155000X-0.212500X0.155000X0*%
G04 #@! TD*
G04 #@! TA.AperFunction,SMDPad,CuDef*
%ADD20RoundRect,0.237500X0.237500X-0.300000X0.237500X0.300000X-0.237500X0.300000X-0.237500X-0.300000X0*%
G04 #@! TD*
G04 #@! TA.AperFunction,SMDPad,CuDef*
%ADD21RoundRect,0.237500X-0.237500X0.300000X-0.237500X-0.300000X0.237500X-0.300000X0.237500X0.300000X0*%
G04 #@! TD*
G04 #@! TA.AperFunction,ComponentPad*
%ADD22O,0.950000X1.900000*%
G04 #@! TD*
G04 #@! TA.AperFunction,ComponentPad*
%ADD23O,0.800000X1.600000*%
G04 #@! TD*
G04 #@! TA.AperFunction,ViaPad*
%ADD24C,0.400000*%
G04 #@! TD*
G04 #@! TA.AperFunction,ViaPad*
%ADD25C,0.500000*%
G04 #@! TD*
G04 #@! TA.AperFunction,ViaPad*
%ADD26C,0.350000*%
G04 #@! TD*
G04 #@! TA.AperFunction,ViaPad*
%ADD27C,0.600000*%
G04 #@! TD*
G04 #@! TA.AperFunction,Conductor*
%ADD28C,0.200000*%
G04 #@! TD*
G04 #@! TA.AperFunction,Conductor*
%ADD29C,0.500000*%
G04 #@! TD*
G04 #@! TA.AperFunction,Conductor*
%ADD30C,0.250000*%
G04 #@! TD*
G04 APERTURE END LIST*
D10*
X175596000Y-104701000D02*
X175622000Y-104703000D01*
X175648000Y-104706000D01*
X175674000Y-104711000D01*
X175699000Y-104717000D01*
X175725000Y-104724000D01*
X175749000Y-104733000D01*
X175773000Y-104743000D01*
X175797000Y-104754000D01*
X175820000Y-104767000D01*
X175842000Y-104781000D01*
X175864000Y-104795000D01*
X175885000Y-104811000D01*
X175905000Y-104828000D01*
X175924000Y-104846000D01*
X175942000Y-104865000D01*
X175959000Y-104885000D01*
X175975000Y-104906000D01*
X175989000Y-104928000D01*
X176003000Y-104950000D01*
X176016000Y-104973000D01*
X176027000Y-104997000D01*
X176037000Y-105021000D01*
X176046000Y-105045000D01*
X176053000Y-105071000D01*
X176059000Y-105096000D01*
X176064000Y-105122000D01*
X176067000Y-105148000D01*
X176069000Y-105174000D01*
X176070000Y-105200000D01*
X176070000Y-106000000D01*
X176069000Y-106026000D01*
X176067000Y-106052000D01*
X176064000Y-106078000D01*
X176059000Y-106104000D01*
X176053000Y-106129000D01*
X176046000Y-106155000D01*
X176037000Y-106179000D01*
X176027000Y-106203000D01*
X176016000Y-106227000D01*
X176003000Y-106250000D01*
X175989000Y-106272000D01*
X175975000Y-106294000D01*
X175959000Y-106315000D01*
X175942000Y-106335000D01*
X175924000Y-106354000D01*
X175905000Y-106372000D01*
X175885000Y-106389000D01*
X175864000Y-106405000D01*
X175842000Y-106419000D01*
X175820000Y-106433000D01*
X175797000Y-106446000D01*
X175773000Y-106457000D01*
X175749000Y-106467000D01*
X175725000Y-106476000D01*
X175699000Y-106483000D01*
X175674000Y-106489000D01*
X175648000Y-106494000D01*
X175622000Y-106497000D01*
X175596000Y-106499000D01*
X175570000Y-106500000D01*
X175544000Y-106499000D01*
X175518000Y-106497000D01*
X175492000Y-106494000D01*
X175466000Y-106489000D01*
X175441000Y-106483000D01*
X175415000Y-106476000D01*
X175391000Y-106467000D01*
X175367000Y-106457000D01*
X175343000Y-106446000D01*
X175320000Y-106433000D01*
X175298000Y-106419000D01*
X175276000Y-106405000D01*
X175255000Y-106389000D01*
X175235000Y-106372000D01*
X175216000Y-106354000D01*
X175198000Y-106335000D01*
X175181000Y-106315000D01*
X175165000Y-106294000D01*
X175151000Y-106272000D01*
X175137000Y-106250000D01*
X175124000Y-106227000D01*
X175113000Y-106203000D01*
X175103000Y-106179000D01*
X175094000Y-106155000D01*
X175087000Y-106129000D01*
X175081000Y-106104000D01*
X175076000Y-106078000D01*
X175073000Y-106052000D01*
X175071000Y-106026000D01*
X175070000Y-106000000D01*
X175070000Y-105200000D01*
X175071000Y-105174000D01*
X175073000Y-105148000D01*
X175076000Y-105122000D01*
X175081000Y-105096000D01*
X175087000Y-105071000D01*
X175094000Y-105045000D01*
X175103000Y-105021000D01*
X175113000Y-104997000D01*
X175124000Y-104973000D01*
X175137000Y-104950000D01*
X175151000Y-104928000D01*
X175165000Y-104906000D01*
X175181000Y-104885000D01*
X175198000Y-104865000D01*
X175216000Y-104846000D01*
X175235000Y-104828000D01*
X175255000Y-104811000D01*
X175276000Y-104795000D01*
X175298000Y-104781000D01*
X175320000Y-104767000D01*
X175343000Y-104754000D01*
X175367000Y-104743000D01*
X175391000Y-104733000D01*
X175415000Y-104724000D01*
X175441000Y-104717000D01*
X175466000Y-104711000D01*
X175492000Y-104706000D01*
X175518000Y-104703000D01*
X175544000Y-104701000D01*
X175570000Y-104700000D01*
X175596000Y-104701000D01*
G04 #@! TA.AperFunction,EtchedComponent*
G36*
X175596000Y-104701000D02*
G01*
X175622000Y-104703000D01*
X175648000Y-104706000D01*
X175674000Y-104711000D01*
X175699000Y-104717000D01*
X175725000Y-104724000D01*
X175749000Y-104733000D01*
X175773000Y-104743000D01*
X175797000Y-104754000D01*
X175820000Y-104767000D01*
X175842000Y-104781000D01*
X175864000Y-104795000D01*
X175885000Y-104811000D01*
X175905000Y-104828000D01*
X175924000Y-104846000D01*
X175942000Y-104865000D01*
X175959000Y-104885000D01*
X175975000Y-104906000D01*
X175989000Y-104928000D01*
X176003000Y-104950000D01*
X176016000Y-104973000D01*
X176027000Y-104997000D01*
X176037000Y-105021000D01*
X176046000Y-105045000D01*
X176053000Y-105071000D01*
X176059000Y-105096000D01*
X176064000Y-105122000D01*
X176067000Y-105148000D01*
X176069000Y-105174000D01*
X176070000Y-105200000D01*
X176070000Y-106000000D01*
X176069000Y-106026000D01*
X176067000Y-106052000D01*
X176064000Y-106078000D01*
X176059000Y-106104000D01*
X176053000Y-106129000D01*
X176046000Y-106155000D01*
X176037000Y-106179000D01*
X176027000Y-106203000D01*
X176016000Y-106227000D01*
X176003000Y-106250000D01*
X175989000Y-106272000D01*
X175975000Y-106294000D01*
X175959000Y-106315000D01*
X175942000Y-106335000D01*
X175924000Y-106354000D01*
X175905000Y-106372000D01*
X175885000Y-106389000D01*
X175864000Y-106405000D01*
X175842000Y-106419000D01*
X175820000Y-106433000D01*
X175797000Y-106446000D01*
X175773000Y-106457000D01*
X175749000Y-106467000D01*
X175725000Y-106476000D01*
X175699000Y-106483000D01*
X175674000Y-106489000D01*
X175648000Y-106494000D01*
X175622000Y-106497000D01*
X175596000Y-106499000D01*
X175570000Y-106500000D01*
X175544000Y-106499000D01*
X175518000Y-106497000D01*
X175492000Y-106494000D01*
X175466000Y-106489000D01*
X175441000Y-106483000D01*
X175415000Y-106476000D01*
X175391000Y-106467000D01*
X175367000Y-106457000D01*
X175343000Y-106446000D01*
X175320000Y-106433000D01*
X175298000Y-106419000D01*
X175276000Y-106405000D01*
X175255000Y-106389000D01*
X175235000Y-106372000D01*
X175216000Y-106354000D01*
X175198000Y-106335000D01*
X175181000Y-106315000D01*
X175165000Y-106294000D01*
X175151000Y-106272000D01*
X175137000Y-106250000D01*
X175124000Y-106227000D01*
X175113000Y-106203000D01*
X175103000Y-106179000D01*
X175094000Y-106155000D01*
X175087000Y-106129000D01*
X175081000Y-106104000D01*
X175076000Y-106078000D01*
X175073000Y-106052000D01*
X175071000Y-106026000D01*
X175070000Y-106000000D01*
X175070000Y-105200000D01*
X175071000Y-105174000D01*
X175073000Y-105148000D01*
X175076000Y-105122000D01*
X175081000Y-105096000D01*
X175087000Y-105071000D01*
X175094000Y-105045000D01*
X175103000Y-105021000D01*
X175113000Y-104997000D01*
X175124000Y-104973000D01*
X175137000Y-104950000D01*
X175151000Y-104928000D01*
X175165000Y-104906000D01*
X175181000Y-104885000D01*
X175198000Y-104865000D01*
X175216000Y-104846000D01*
X175235000Y-104828000D01*
X175255000Y-104811000D01*
X175276000Y-104795000D01*
X175298000Y-104781000D01*
X175320000Y-104767000D01*
X175343000Y-104754000D01*
X175367000Y-104743000D01*
X175391000Y-104733000D01*
X175415000Y-104724000D01*
X175441000Y-104717000D01*
X175466000Y-104711000D01*
X175492000Y-104706000D01*
X175518000Y-104703000D01*
X175544000Y-104701000D01*
X175570000Y-104700000D01*
X175596000Y-104701000D01*
G37*
G04 #@! TD.AperFunction*
X175596000Y-100501000D02*
X175622000Y-100503000D01*
X175648000Y-100506000D01*
X175674000Y-100511000D01*
X175699000Y-100517000D01*
X175725000Y-100524000D01*
X175749000Y-100533000D01*
X175773000Y-100543000D01*
X175797000Y-100554000D01*
X175820000Y-100567000D01*
X175842000Y-100581000D01*
X175864000Y-100595000D01*
X175885000Y-100611000D01*
X175905000Y-100628000D01*
X175924000Y-100646000D01*
X175942000Y-100665000D01*
X175959000Y-100685000D01*
X175975000Y-100706000D01*
X175989000Y-100728000D01*
X176003000Y-100750000D01*
X176016000Y-100773000D01*
X176027000Y-100797000D01*
X176037000Y-100821000D01*
X176046000Y-100845000D01*
X176053000Y-100871000D01*
X176059000Y-100896000D01*
X176064000Y-100922000D01*
X176067000Y-100948000D01*
X176069000Y-100974000D01*
X176070000Y-101000000D01*
X176070000Y-102200000D01*
X176069000Y-102226000D01*
X176067000Y-102252000D01*
X176064000Y-102278000D01*
X176059000Y-102304000D01*
X176053000Y-102329000D01*
X176046000Y-102355000D01*
X176037000Y-102379000D01*
X176027000Y-102403000D01*
X176016000Y-102427000D01*
X176003000Y-102450000D01*
X175989000Y-102472000D01*
X175975000Y-102494000D01*
X175959000Y-102515000D01*
X175942000Y-102535000D01*
X175924000Y-102554000D01*
X175905000Y-102572000D01*
X175885000Y-102589000D01*
X175864000Y-102605000D01*
X175842000Y-102619000D01*
X175820000Y-102633000D01*
X175797000Y-102646000D01*
X175773000Y-102657000D01*
X175749000Y-102667000D01*
X175725000Y-102676000D01*
X175699000Y-102683000D01*
X175674000Y-102689000D01*
X175648000Y-102694000D01*
X175622000Y-102697000D01*
X175596000Y-102699000D01*
X175570000Y-102700000D01*
X175544000Y-102699000D01*
X175518000Y-102697000D01*
X175492000Y-102694000D01*
X175466000Y-102689000D01*
X175441000Y-102683000D01*
X175415000Y-102676000D01*
X175391000Y-102667000D01*
X175367000Y-102657000D01*
X175343000Y-102646000D01*
X175320000Y-102633000D01*
X175298000Y-102619000D01*
X175276000Y-102605000D01*
X175255000Y-102589000D01*
X175235000Y-102572000D01*
X175216000Y-102554000D01*
X175198000Y-102535000D01*
X175181000Y-102515000D01*
X175165000Y-102494000D01*
X175151000Y-102472000D01*
X175137000Y-102450000D01*
X175124000Y-102427000D01*
X175113000Y-102403000D01*
X175103000Y-102379000D01*
X175094000Y-102355000D01*
X175087000Y-102329000D01*
X175081000Y-102304000D01*
X175076000Y-102278000D01*
X175073000Y-102252000D01*
X175071000Y-102226000D01*
X175070000Y-102200000D01*
X175070000Y-101000000D01*
X175071000Y-100974000D01*
X175073000Y-100948000D01*
X175076000Y-100922000D01*
X175081000Y-100896000D01*
X175087000Y-100871000D01*
X175094000Y-100845000D01*
X175103000Y-100821000D01*
X175113000Y-100797000D01*
X175124000Y-100773000D01*
X175137000Y-100750000D01*
X175151000Y-100728000D01*
X175165000Y-100706000D01*
X175181000Y-100685000D01*
X175198000Y-100665000D01*
X175216000Y-100646000D01*
X175235000Y-100628000D01*
X175255000Y-100611000D01*
X175276000Y-100595000D01*
X175298000Y-100581000D01*
X175320000Y-100567000D01*
X175343000Y-100554000D01*
X175367000Y-100543000D01*
X175391000Y-100533000D01*
X175415000Y-100524000D01*
X175441000Y-100517000D01*
X175466000Y-100511000D01*
X175492000Y-100506000D01*
X175518000Y-100503000D01*
X175544000Y-100501000D01*
X175570000Y-100500000D01*
X175596000Y-100501000D01*
G04 #@! TA.AperFunction,EtchedComponent*
G36*
X175596000Y-100501000D02*
G01*
X175622000Y-100503000D01*
X175648000Y-100506000D01*
X175674000Y-100511000D01*
X175699000Y-100517000D01*
X175725000Y-100524000D01*
X175749000Y-100533000D01*
X175773000Y-100543000D01*
X175797000Y-100554000D01*
X175820000Y-100567000D01*
X175842000Y-100581000D01*
X175864000Y-100595000D01*
X175885000Y-100611000D01*
X175905000Y-100628000D01*
X175924000Y-100646000D01*
X175942000Y-100665000D01*
X175959000Y-100685000D01*
X175975000Y-100706000D01*
X175989000Y-100728000D01*
X176003000Y-100750000D01*
X176016000Y-100773000D01*
X176027000Y-100797000D01*
X176037000Y-100821000D01*
X176046000Y-100845000D01*
X176053000Y-100871000D01*
X176059000Y-100896000D01*
X176064000Y-100922000D01*
X176067000Y-100948000D01*
X176069000Y-100974000D01*
X176070000Y-101000000D01*
X176070000Y-102200000D01*
X176069000Y-102226000D01*
X176067000Y-102252000D01*
X176064000Y-102278000D01*
X176059000Y-102304000D01*
X176053000Y-102329000D01*
X176046000Y-102355000D01*
X176037000Y-102379000D01*
X176027000Y-102403000D01*
X176016000Y-102427000D01*
X176003000Y-102450000D01*
X175989000Y-102472000D01*
X175975000Y-102494000D01*
X175959000Y-102515000D01*
X175942000Y-102535000D01*
X175924000Y-102554000D01*
X175905000Y-102572000D01*
X175885000Y-102589000D01*
X175864000Y-102605000D01*
X175842000Y-102619000D01*
X175820000Y-102633000D01*
X175797000Y-102646000D01*
X175773000Y-102657000D01*
X175749000Y-102667000D01*
X175725000Y-102676000D01*
X175699000Y-102683000D01*
X175674000Y-102689000D01*
X175648000Y-102694000D01*
X175622000Y-102697000D01*
X175596000Y-102699000D01*
X175570000Y-102700000D01*
X175544000Y-102699000D01*
X175518000Y-102697000D01*
X175492000Y-102694000D01*
X175466000Y-102689000D01*
X175441000Y-102683000D01*
X175415000Y-102676000D01*
X175391000Y-102667000D01*
X175367000Y-102657000D01*
X175343000Y-102646000D01*
X175320000Y-102633000D01*
X175298000Y-102619000D01*
X175276000Y-102605000D01*
X175255000Y-102589000D01*
X175235000Y-102572000D01*
X175216000Y-102554000D01*
X175198000Y-102535000D01*
X175181000Y-102515000D01*
X175165000Y-102494000D01*
X175151000Y-102472000D01*
X175137000Y-102450000D01*
X175124000Y-102427000D01*
X175113000Y-102403000D01*
X175103000Y-102379000D01*
X175094000Y-102355000D01*
X175087000Y-102329000D01*
X175081000Y-102304000D01*
X175076000Y-102278000D01*
X175073000Y-102252000D01*
X175071000Y-102226000D01*
X175070000Y-102200000D01*
X175070000Y-101000000D01*
X175071000Y-100974000D01*
X175073000Y-100948000D01*
X175076000Y-100922000D01*
X175081000Y-100896000D01*
X175087000Y-100871000D01*
X175094000Y-100845000D01*
X175103000Y-100821000D01*
X175113000Y-100797000D01*
X175124000Y-100773000D01*
X175137000Y-100750000D01*
X175151000Y-100728000D01*
X175165000Y-100706000D01*
X175181000Y-100685000D01*
X175198000Y-100665000D01*
X175216000Y-100646000D01*
X175235000Y-100628000D01*
X175255000Y-100611000D01*
X175276000Y-100595000D01*
X175298000Y-100581000D01*
X175320000Y-100567000D01*
X175343000Y-100554000D01*
X175367000Y-100543000D01*
X175391000Y-100533000D01*
X175415000Y-100524000D01*
X175441000Y-100517000D01*
X175466000Y-100511000D01*
X175492000Y-100506000D01*
X175518000Y-100503000D01*
X175544000Y-100501000D01*
X175570000Y-100500000D01*
X175596000Y-100501000D01*
G37*
G04 #@! TD.AperFunction*
X164356000Y-104701000D02*
X164382000Y-104703000D01*
X164408000Y-104706000D01*
X164434000Y-104711000D01*
X164459000Y-104717000D01*
X164485000Y-104724000D01*
X164509000Y-104733000D01*
X164533000Y-104743000D01*
X164557000Y-104754000D01*
X164580000Y-104767000D01*
X164602000Y-104781000D01*
X164624000Y-104795000D01*
X164645000Y-104811000D01*
X164665000Y-104828000D01*
X164684000Y-104846000D01*
X164702000Y-104865000D01*
X164719000Y-104885000D01*
X164735000Y-104906000D01*
X164749000Y-104928000D01*
X164763000Y-104950000D01*
X164776000Y-104973000D01*
X164787000Y-104997000D01*
X164797000Y-105021000D01*
X164806000Y-105045000D01*
X164813000Y-105071000D01*
X164819000Y-105096000D01*
X164824000Y-105122000D01*
X164827000Y-105148000D01*
X164829000Y-105174000D01*
X164830000Y-105200000D01*
X164830000Y-106000000D01*
X164829000Y-106026000D01*
X164827000Y-106052000D01*
X164824000Y-106078000D01*
X164819000Y-106104000D01*
X164813000Y-106129000D01*
X164806000Y-106155000D01*
X164797000Y-106179000D01*
X164787000Y-106203000D01*
X164776000Y-106227000D01*
X164763000Y-106250000D01*
X164749000Y-106272000D01*
X164735000Y-106294000D01*
X164719000Y-106315000D01*
X164702000Y-106335000D01*
X164684000Y-106354000D01*
X164665000Y-106372000D01*
X164645000Y-106389000D01*
X164624000Y-106405000D01*
X164602000Y-106419000D01*
X164580000Y-106433000D01*
X164557000Y-106446000D01*
X164533000Y-106457000D01*
X164509000Y-106467000D01*
X164485000Y-106476000D01*
X164459000Y-106483000D01*
X164434000Y-106489000D01*
X164408000Y-106494000D01*
X164382000Y-106497000D01*
X164356000Y-106499000D01*
X164330000Y-106500000D01*
X164304000Y-106499000D01*
X164278000Y-106497000D01*
X164252000Y-106494000D01*
X164226000Y-106489000D01*
X164201000Y-106483000D01*
X164175000Y-106476000D01*
X164151000Y-106467000D01*
X164127000Y-106457000D01*
X164103000Y-106446000D01*
X164080000Y-106433000D01*
X164058000Y-106419000D01*
X164036000Y-106405000D01*
X164015000Y-106389000D01*
X163995000Y-106372000D01*
X163976000Y-106354000D01*
X163958000Y-106335000D01*
X163941000Y-106315000D01*
X163925000Y-106294000D01*
X163911000Y-106272000D01*
X163897000Y-106250000D01*
X163884000Y-106227000D01*
X163873000Y-106203000D01*
X163863000Y-106179000D01*
X163854000Y-106155000D01*
X163847000Y-106129000D01*
X163841000Y-106104000D01*
X163836000Y-106078000D01*
X163833000Y-106052000D01*
X163831000Y-106026000D01*
X163830000Y-106000000D01*
X163830000Y-105200000D01*
X163831000Y-105174000D01*
X163833000Y-105148000D01*
X163836000Y-105122000D01*
X163841000Y-105096000D01*
X163847000Y-105071000D01*
X163854000Y-105045000D01*
X163863000Y-105021000D01*
X163873000Y-104997000D01*
X163884000Y-104973000D01*
X163897000Y-104950000D01*
X163911000Y-104928000D01*
X163925000Y-104906000D01*
X163941000Y-104885000D01*
X163958000Y-104865000D01*
X163976000Y-104846000D01*
X163995000Y-104828000D01*
X164015000Y-104811000D01*
X164036000Y-104795000D01*
X164058000Y-104781000D01*
X164080000Y-104767000D01*
X164103000Y-104754000D01*
X164127000Y-104743000D01*
X164151000Y-104733000D01*
X164175000Y-104724000D01*
X164201000Y-104717000D01*
X164226000Y-104711000D01*
X164252000Y-104706000D01*
X164278000Y-104703000D01*
X164304000Y-104701000D01*
X164330000Y-104700000D01*
X164356000Y-104701000D01*
G04 #@! TA.AperFunction,EtchedComponent*
G36*
X164356000Y-104701000D02*
G01*
X164382000Y-104703000D01*
X164408000Y-104706000D01*
X164434000Y-104711000D01*
X164459000Y-104717000D01*
X164485000Y-104724000D01*
X164509000Y-104733000D01*
X164533000Y-104743000D01*
X164557000Y-104754000D01*
X164580000Y-104767000D01*
X164602000Y-104781000D01*
X164624000Y-104795000D01*
X164645000Y-104811000D01*
X164665000Y-104828000D01*
X164684000Y-104846000D01*
X164702000Y-104865000D01*
X164719000Y-104885000D01*
X164735000Y-104906000D01*
X164749000Y-104928000D01*
X164763000Y-104950000D01*
X164776000Y-104973000D01*
X164787000Y-104997000D01*
X164797000Y-105021000D01*
X164806000Y-105045000D01*
X164813000Y-105071000D01*
X164819000Y-105096000D01*
X164824000Y-105122000D01*
X164827000Y-105148000D01*
X164829000Y-105174000D01*
X164830000Y-105200000D01*
X164830000Y-106000000D01*
X164829000Y-106026000D01*
X164827000Y-106052000D01*
X164824000Y-106078000D01*
X164819000Y-106104000D01*
X164813000Y-106129000D01*
X164806000Y-106155000D01*
X164797000Y-106179000D01*
X164787000Y-106203000D01*
X164776000Y-106227000D01*
X164763000Y-106250000D01*
X164749000Y-106272000D01*
X164735000Y-106294000D01*
X164719000Y-106315000D01*
X164702000Y-106335000D01*
X164684000Y-106354000D01*
X164665000Y-106372000D01*
X164645000Y-106389000D01*
X164624000Y-106405000D01*
X164602000Y-106419000D01*
X164580000Y-106433000D01*
X164557000Y-106446000D01*
X164533000Y-106457000D01*
X164509000Y-106467000D01*
X164485000Y-106476000D01*
X164459000Y-106483000D01*
X164434000Y-106489000D01*
X164408000Y-106494000D01*
X164382000Y-106497000D01*
X164356000Y-106499000D01*
X164330000Y-106500000D01*
X164304000Y-106499000D01*
X164278000Y-106497000D01*
X164252000Y-106494000D01*
X164226000Y-106489000D01*
X164201000Y-106483000D01*
X164175000Y-106476000D01*
X164151000Y-106467000D01*
X164127000Y-106457000D01*
X164103000Y-106446000D01*
X164080000Y-106433000D01*
X164058000Y-106419000D01*
X164036000Y-106405000D01*
X164015000Y-106389000D01*
X163995000Y-106372000D01*
X163976000Y-106354000D01*
X163958000Y-106335000D01*
X163941000Y-106315000D01*
X163925000Y-106294000D01*
X163911000Y-106272000D01*
X163897000Y-106250000D01*
X163884000Y-106227000D01*
X163873000Y-106203000D01*
X163863000Y-106179000D01*
X163854000Y-106155000D01*
X163847000Y-106129000D01*
X163841000Y-106104000D01*
X163836000Y-106078000D01*
X163833000Y-106052000D01*
X163831000Y-106026000D01*
X163830000Y-106000000D01*
X163830000Y-105200000D01*
X163831000Y-105174000D01*
X163833000Y-105148000D01*
X163836000Y-105122000D01*
X163841000Y-105096000D01*
X163847000Y-105071000D01*
X163854000Y-105045000D01*
X163863000Y-105021000D01*
X163873000Y-104997000D01*
X163884000Y-104973000D01*
X163897000Y-104950000D01*
X163911000Y-104928000D01*
X163925000Y-104906000D01*
X163941000Y-104885000D01*
X163958000Y-104865000D01*
X163976000Y-104846000D01*
X163995000Y-104828000D01*
X164015000Y-104811000D01*
X164036000Y-104795000D01*
X164058000Y-104781000D01*
X164080000Y-104767000D01*
X164103000Y-104754000D01*
X164127000Y-104743000D01*
X164151000Y-104733000D01*
X164175000Y-104724000D01*
X164201000Y-104717000D01*
X164226000Y-104711000D01*
X164252000Y-104706000D01*
X164278000Y-104703000D01*
X164304000Y-104701000D01*
X164330000Y-104700000D01*
X164356000Y-104701000D01*
G37*
G04 #@! TD.AperFunction*
X164356000Y-100501000D02*
X164382000Y-100503000D01*
X164408000Y-100506000D01*
X164434000Y-100511000D01*
X164459000Y-100517000D01*
X164485000Y-100524000D01*
X164509000Y-100533000D01*
X164533000Y-100543000D01*
X164557000Y-100554000D01*
X164580000Y-100567000D01*
X164602000Y-100581000D01*
X164624000Y-100595000D01*
X164645000Y-100611000D01*
X164665000Y-100628000D01*
X164684000Y-100646000D01*
X164702000Y-100665000D01*
X164719000Y-100685000D01*
X164735000Y-100706000D01*
X164749000Y-100728000D01*
X164763000Y-100750000D01*
X164776000Y-100773000D01*
X164787000Y-100797000D01*
X164797000Y-100821000D01*
X164806000Y-100845000D01*
X164813000Y-100871000D01*
X164819000Y-100896000D01*
X164824000Y-100922000D01*
X164827000Y-100948000D01*
X164829000Y-100974000D01*
X164830000Y-101000000D01*
X164830000Y-102200000D01*
X164829000Y-102226000D01*
X164827000Y-102252000D01*
X164824000Y-102278000D01*
X164819000Y-102304000D01*
X164813000Y-102329000D01*
X164806000Y-102355000D01*
X164797000Y-102379000D01*
X164787000Y-102403000D01*
X164776000Y-102427000D01*
X164763000Y-102450000D01*
X164749000Y-102472000D01*
X164735000Y-102494000D01*
X164719000Y-102515000D01*
X164702000Y-102535000D01*
X164684000Y-102554000D01*
X164665000Y-102572000D01*
X164645000Y-102589000D01*
X164624000Y-102605000D01*
X164602000Y-102619000D01*
X164580000Y-102633000D01*
X164557000Y-102646000D01*
X164533000Y-102657000D01*
X164509000Y-102667000D01*
X164485000Y-102676000D01*
X164459000Y-102683000D01*
X164434000Y-102689000D01*
X164408000Y-102694000D01*
X164382000Y-102697000D01*
X164356000Y-102699000D01*
X164330000Y-102700000D01*
X164304000Y-102699000D01*
X164278000Y-102697000D01*
X164252000Y-102694000D01*
X164226000Y-102689000D01*
X164201000Y-102683000D01*
X164175000Y-102676000D01*
X164151000Y-102667000D01*
X164127000Y-102657000D01*
X164103000Y-102646000D01*
X164080000Y-102633000D01*
X164058000Y-102619000D01*
X164036000Y-102605000D01*
X164015000Y-102589000D01*
X163995000Y-102572000D01*
X163976000Y-102554000D01*
X163958000Y-102535000D01*
X163941000Y-102515000D01*
X163925000Y-102494000D01*
X163911000Y-102472000D01*
X163897000Y-102450000D01*
X163884000Y-102427000D01*
X163873000Y-102403000D01*
X163863000Y-102379000D01*
X163854000Y-102355000D01*
X163847000Y-102329000D01*
X163841000Y-102304000D01*
X163836000Y-102278000D01*
X163833000Y-102252000D01*
X163831000Y-102226000D01*
X163830000Y-102200000D01*
X163830000Y-101000000D01*
X163831000Y-100974000D01*
X163833000Y-100948000D01*
X163836000Y-100922000D01*
X163841000Y-100896000D01*
X163847000Y-100871000D01*
X163854000Y-100845000D01*
X163863000Y-100821000D01*
X163873000Y-100797000D01*
X163884000Y-100773000D01*
X163897000Y-100750000D01*
X163911000Y-100728000D01*
X163925000Y-100706000D01*
X163941000Y-100685000D01*
X163958000Y-100665000D01*
X163976000Y-100646000D01*
X163995000Y-100628000D01*
X164015000Y-100611000D01*
X164036000Y-100595000D01*
X164058000Y-100581000D01*
X164080000Y-100567000D01*
X164103000Y-100554000D01*
X164127000Y-100543000D01*
X164151000Y-100533000D01*
X164175000Y-100524000D01*
X164201000Y-100517000D01*
X164226000Y-100511000D01*
X164252000Y-100506000D01*
X164278000Y-100503000D01*
X164304000Y-100501000D01*
X164330000Y-100500000D01*
X164356000Y-100501000D01*
G04 #@! TA.AperFunction,EtchedComponent*
G36*
X164356000Y-100501000D02*
G01*
X164382000Y-100503000D01*
X164408000Y-100506000D01*
X164434000Y-100511000D01*
X164459000Y-100517000D01*
X164485000Y-100524000D01*
X164509000Y-100533000D01*
X164533000Y-100543000D01*
X164557000Y-100554000D01*
X164580000Y-100567000D01*
X164602000Y-100581000D01*
X164624000Y-100595000D01*
X164645000Y-100611000D01*
X164665000Y-100628000D01*
X164684000Y-100646000D01*
X164702000Y-100665000D01*
X164719000Y-100685000D01*
X164735000Y-100706000D01*
X164749000Y-100728000D01*
X164763000Y-100750000D01*
X164776000Y-100773000D01*
X164787000Y-100797000D01*
X164797000Y-100821000D01*
X164806000Y-100845000D01*
X164813000Y-100871000D01*
X164819000Y-100896000D01*
X164824000Y-100922000D01*
X164827000Y-100948000D01*
X164829000Y-100974000D01*
X164830000Y-101000000D01*
X164830000Y-102200000D01*
X164829000Y-102226000D01*
X164827000Y-102252000D01*
X164824000Y-102278000D01*
X164819000Y-102304000D01*
X164813000Y-102329000D01*
X164806000Y-102355000D01*
X164797000Y-102379000D01*
X164787000Y-102403000D01*
X164776000Y-102427000D01*
X164763000Y-102450000D01*
X164749000Y-102472000D01*
X164735000Y-102494000D01*
X164719000Y-102515000D01*
X164702000Y-102535000D01*
X164684000Y-102554000D01*
X164665000Y-102572000D01*
X164645000Y-102589000D01*
X164624000Y-102605000D01*
X164602000Y-102619000D01*
X164580000Y-102633000D01*
X164557000Y-102646000D01*
X164533000Y-102657000D01*
X164509000Y-102667000D01*
X164485000Y-102676000D01*
X164459000Y-102683000D01*
X164434000Y-102689000D01*
X164408000Y-102694000D01*
X164382000Y-102697000D01*
X164356000Y-102699000D01*
X164330000Y-102700000D01*
X164304000Y-102699000D01*
X164278000Y-102697000D01*
X164252000Y-102694000D01*
X164226000Y-102689000D01*
X164201000Y-102683000D01*
X164175000Y-102676000D01*
X164151000Y-102667000D01*
X164127000Y-102657000D01*
X164103000Y-102646000D01*
X164080000Y-102633000D01*
X164058000Y-102619000D01*
X164036000Y-102605000D01*
X164015000Y-102589000D01*
X163995000Y-102572000D01*
X163976000Y-102554000D01*
X163958000Y-102535000D01*
X163941000Y-102515000D01*
X163925000Y-102494000D01*
X163911000Y-102472000D01*
X163897000Y-102450000D01*
X163884000Y-102427000D01*
X163873000Y-102403000D01*
X163863000Y-102379000D01*
X163854000Y-102355000D01*
X163847000Y-102329000D01*
X163841000Y-102304000D01*
X163836000Y-102278000D01*
X163833000Y-102252000D01*
X163831000Y-102226000D01*
X163830000Y-102200000D01*
X163830000Y-101000000D01*
X163831000Y-100974000D01*
X163833000Y-100948000D01*
X163836000Y-100922000D01*
X163841000Y-100896000D01*
X163847000Y-100871000D01*
X163854000Y-100845000D01*
X163863000Y-100821000D01*
X163873000Y-100797000D01*
X163884000Y-100773000D01*
X163897000Y-100750000D01*
X163911000Y-100728000D01*
X163925000Y-100706000D01*
X163941000Y-100685000D01*
X163958000Y-100665000D01*
X163976000Y-100646000D01*
X163995000Y-100628000D01*
X164015000Y-100611000D01*
X164036000Y-100595000D01*
X164058000Y-100581000D01*
X164080000Y-100567000D01*
X164103000Y-100554000D01*
X164127000Y-100543000D01*
X164151000Y-100533000D01*
X164175000Y-100524000D01*
X164201000Y-100517000D01*
X164226000Y-100511000D01*
X164252000Y-100506000D01*
X164278000Y-100503000D01*
X164304000Y-100501000D01*
X164330000Y-100500000D01*
X164356000Y-100501000D01*
G37*
G04 #@! TD.AperFunction*
D11*
X157320000Y-103960000D03*
X183010000Y-103930000D03*
D12*
X171772500Y-108300000D03*
X172967500Y-108300000D03*
D13*
X168067500Y-108320000D03*
X166872500Y-108320000D03*
D14*
X185137500Y-108727500D03*
X185137500Y-107532500D03*
D15*
X183927500Y-107522500D03*
X183927500Y-108717500D03*
D16*
X172810000Y-118287500D03*
X172810000Y-117152500D03*
D17*
X172810000Y-121712500D03*
X172810000Y-122847500D03*
X170370000Y-121712500D03*
X170370000Y-122847500D03*
D16*
X170370000Y-118297500D03*
X170370000Y-117162500D03*
X167890000Y-118287500D03*
X167890000Y-117152500D03*
D17*
X167900000Y-121712500D03*
X167900000Y-122847500D03*
D16*
X172810000Y-120577500D03*
X172810000Y-119442500D03*
D18*
X184565000Y-125852500D03*
X185700000Y-125852500D03*
D16*
X184080000Y-123337500D03*
X184080000Y-122202500D03*
X185440000Y-123337500D03*
X185440000Y-122202500D03*
D19*
X185710000Y-135132500D03*
X184575000Y-135132500D03*
D20*
X182252500Y-112497500D03*
X182252500Y-114222500D03*
D21*
X185162500Y-114222500D03*
X185162500Y-112497500D03*
D16*
X187802500Y-113937500D03*
X187802500Y-112802500D03*
D17*
X179692500Y-112792500D03*
X179692500Y-113927500D03*
D16*
X167900000Y-120577500D03*
X167900000Y-119442500D03*
D22*
X164330000Y-101600000D03*
D23*
X175570000Y-105600000D03*
X164330000Y-105600000D03*
D22*
X175570000Y-101600000D03*
D24*
X178690000Y-135310000D03*
X171530000Y-135800000D03*
X166410000Y-136510000D03*
X163640000Y-134310000D03*
X153700000Y-129970000D03*
X152510000Y-135290000D03*
X152510000Y-133050000D03*
X165820000Y-109300000D03*
X165055000Y-114115000D03*
X151190000Y-108790000D03*
X162650000Y-126200000D03*
X161600000Y-111290000D03*
X166740000Y-114970000D03*
X164910000Y-116410000D03*
X151180000Y-111350000D03*
X161470000Y-123630000D03*
X168480000Y-125350000D03*
X169010000Y-124980000D03*
X170480000Y-125970000D03*
X172120000Y-126500000D03*
X161590000Y-112600000D03*
X163170000Y-118900000D03*
X163282407Y-119506319D03*
X151190000Y-110080000D03*
X168810000Y-126550000D03*
X166980000Y-135230000D03*
X166180000Y-125570000D03*
X166760000Y-130650000D03*
X165390000Y-129950000D03*
X164420000Y-126010000D03*
X159620000Y-133360000D03*
X165230000Y-125390000D03*
X158780000Y-121150000D03*
X162320000Y-121560000D03*
X164530000Y-128160000D03*
X164100000Y-123380000D03*
X167700000Y-126590000D03*
X163770000Y-135670000D03*
X164530000Y-131210000D03*
X159920000Y-124760000D03*
X166400000Y-137880000D03*
X158380000Y-136360000D03*
X154885000Y-121370000D03*
X155035000Y-122400000D03*
X155205000Y-126760000D03*
X156005000Y-130330000D03*
X155975000Y-134350000D03*
X154955000Y-137700000D03*
X170350000Y-119980000D03*
X163212917Y-120282917D03*
X169210000Y-109600000D03*
D25*
X157540000Y-111800000D03*
X155040000Y-111770000D03*
X156320000Y-110740000D03*
X157380000Y-109770000D03*
X155040000Y-109750000D03*
X161380000Y-108790000D03*
X171460000Y-114080000D03*
X165800000Y-115760000D03*
X164910000Y-121800000D03*
X172200000Y-125300000D03*
X175170000Y-119370000D03*
X186830000Y-123350000D03*
X183530000Y-120180000D03*
X188840000Y-112310000D03*
X187450000Y-117690000D03*
X188210000Y-118620000D03*
D26*
X161200000Y-122880000D03*
X159990000Y-122880000D03*
X157310000Y-105070000D03*
X158680000Y-103850000D03*
X155980000Y-103920000D03*
X157290000Y-102580000D03*
X157350000Y-103950000D03*
X188090000Y-103710000D03*
X165150000Y-110200000D03*
X158280000Y-117860000D03*
X179290000Y-122800000D03*
X175920000Y-118960000D03*
X181860000Y-122720000D03*
X176380000Y-127160000D03*
X174480000Y-124030000D03*
X186720000Y-122260000D03*
X184540000Y-124830000D03*
X182842500Y-126702500D03*
X187712500Y-125802500D03*
X182762500Y-135302500D03*
X182862500Y-134132500D03*
X169175000Y-108120000D03*
X169725000Y-108120000D03*
X170160000Y-109590000D03*
X170740000Y-109270000D03*
D27*
X177250000Y-109470000D03*
X167120000Y-109670000D03*
X182310000Y-106180000D03*
X180810000Y-108790000D03*
X171500000Y-109210000D03*
X174070000Y-108320000D03*
X166020000Y-108300000D03*
X168260000Y-109240000D03*
X186697500Y-109010000D03*
X181977500Y-108990000D03*
X181747500Y-108000000D03*
X181852500Y-111450000D03*
X178322500Y-112810000D03*
X185352500Y-116370000D03*
X186682500Y-111420000D03*
D28*
X170146863Y-109539706D02*
G75*
G02*
X170159971Y-109571421I-31763J-31694D01*
G01*
X169212500Y-108157500D02*
G75*
G02*
X169249986Y-108248033I-90500J-90500D01*
G01*
X169250000Y-108418921D02*
G75*
G03*
X169408346Y-108801169I540600J21D01*
G01*
X169687500Y-108157500D02*
G75*
G03*
X169650014Y-108248033I90500J-90500D01*
G01*
X170263479Y-109090636D02*
G75*
G03*
X170322297Y-109114996I58821J58836D01*
G01*
X169650000Y-108336078D02*
G75*
G03*
X169749745Y-108576926I340600J-22D01*
G01*
X170434252Y-109192500D02*
G75*
G03*
X170621353Y-109270033I187148J187100D01*
G01*
X170381107Y-109139355D02*
G75*
G03*
X170322297Y-109115007I-58807J-58845D01*
G01*
X161849327Y-111539327D02*
G75*
G02*
X162090029Y-112120362I-581027J-581073D01*
G01*
X163842415Y-114213139D02*
G75*
G03*
X165669638Y-114969968I1827185J1827239D01*
G01*
X162090000Y-112120362D02*
G75*
G03*
X162330654Y-112701414I821700J-38D01*
G01*
X150880000Y-109100000D02*
G75*
G03*
X150570003Y-109848406I748400J-748400D01*
G01*
X150570000Y-113126036D02*
G75*
G03*
X152163800Y-116973784I5441600J36D01*
G01*
X158871593Y-123681593D02*
G75*
G03*
X159930000Y-124120004I1058407J1058393D01*
G01*
X162622928Y-126192928D02*
G75*
G03*
X162640000Y-126200012I17072J17028D01*
G01*
X160988406Y-124558406D02*
G75*
G03*
X159930000Y-124119996I-1058406J-1058394D01*
G01*
X160763628Y-118271446D02*
G75*
G03*
X162281091Y-118900011I1517472J1517446D01*
G01*
X153060857Y-110568675D02*
G75*
G03*
X151881091Y-110079994I-1179757J-1179725D01*
G01*
X161590000Y-113195000D02*
G75*
G03*
X162010740Y-114210716I1436400J0D01*
G01*
X164070000Y-119150000D02*
G75*
G02*
X163780294Y-119269998I-289700J289700D01*
G01*
X164190000Y-118860294D02*
G75*
G02*
X164070002Y-119150002I-409700J-6D01*
G01*
X163685828Y-119270000D02*
G75*
G03*
X163400557Y-119388150I-28J-403400D01*
G01*
X163256619Y-115456619D02*
G75*
G02*
X164189989Y-117710000I-2253419J-2253381D01*
G01*
X159572653Y-123134405D02*
G75*
G03*
X160769124Y-123629973I1196447J1196505D01*
G01*
X151180000Y-113045876D02*
G75*
G03*
X152379154Y-115940928I4094200J-24D01*
G01*
X167260000Y-129926036D02*
G75*
G02*
X165666200Y-133773785I-5441600J36D01*
G01*
X167480000Y-126810000D02*
G75*
G03*
X167260011Y-127341126I531100J-531100D01*
G01*
X160063847Y-133100000D02*
G75*
G03*
X159749986Y-133229986I-47J-443800D01*
G01*
X165685000Y-125845000D02*
G75*
G02*
X166140014Y-126943467I-1098500J-1098500D01*
G01*
X165300000Y-132260000D02*
G75*
G02*
X163272060Y-133099984I-2027900J2027900D01*
G01*
X166140000Y-130232060D02*
G75*
G02*
X165300012Y-132260012I-2867900J-40D01*
G01*
X163450000Y-126316324D02*
G75*
G03*
X163990007Y-127619993I1843700J24D01*
G01*
X163775000Y-123705000D02*
G75*
G03*
X163450008Y-124489619I784600J-784600D01*
G01*
X162115000Y-121355000D02*
G75*
G03*
X161620086Y-121150006I-494900J-494900D01*
G01*
X177950330Y-119490330D02*
G75*
G03*
X176670000Y-118960012I-1280330J-1280370D01*
G01*
X180939583Y-122479583D02*
G75*
G03*
X181520000Y-122720010I580417J580383D01*
G01*
X181202444Y-107287555D02*
G75*
G03*
X180810003Y-108235000I947456J-947445D01*
G01*
X184927499Y-109329999D02*
G75*
G02*
X184420515Y-109540005I-506999J506999D01*
G01*
X185137500Y-108923750D02*
G75*
G02*
X184998708Y-109258747I-473800J50D01*
G01*
X182252500Y-109265000D02*
G75*
G03*
X182916408Y-109539996I663900J663900D01*
G01*
X182562643Y-107522500D02*
G75*
G03*
X181986237Y-107761237I-43J-815100D01*
G01*
D29*
X176860000Y-109860000D02*
G75*
G02*
X175918456Y-110249982I-941500J941500D01*
G01*
X167410000Y-109960000D02*
G75*
G03*
X168110121Y-110249991I700100J700100D01*
G01*
D28*
X168067500Y-108911381D02*
G75*
G03*
X168163745Y-109143755I328600J-19D01*
G01*
X171772500Y-108744813D02*
G75*
G02*
X171636246Y-109073746I-465200J13D01*
G01*
X168645000Y-126715000D02*
G75*
G03*
X168480019Y-127113345I398300J-398300D01*
G01*
X168480000Y-132669339D02*
G75*
G02*
X167729988Y-134479988I-2560700J39D01*
G01*
D30*
X159140000Y-137120000D02*
G75*
G03*
X160974802Y-137879999I1834800J1834800D01*
G01*
D28*
X166470000Y-125860000D02*
G75*
G02*
X166759991Y-126560121I-700100J-700100D01*
G01*
X165310000Y-129813431D02*
G75*
G03*
X165350009Y-129909991I136600J31D01*
G01*
X164865000Y-126455000D02*
G75*
G02*
X165309990Y-127529325I-1074300J-1074300D01*
G01*
D30*
X159920000Y-124805000D02*
G75*
G03*
X159951827Y-124881811I108600J0D01*
G01*
X163911281Y-128841281D02*
G75*
G02*
X164530011Y-130335000I-1493681J-1493719D01*
G01*
D29*
X187980000Y-103820000D02*
G75*
G02*
X187714436Y-103930015I-265600J265600D01*
G01*
X179840000Y-114075000D02*
G75*
G03*
X180196096Y-114222501I356100J356100D01*
G01*
X179781772Y-114016772D02*
G75*
G03*
X179566250Y-113927466I-215572J-215528D01*
G01*
X179350727Y-113838227D02*
G75*
G03*
X179566250Y-113927534I215573J215527D01*
G01*
D28*
X164259231Y-119670000D02*
G75*
G03*
X163519363Y-119976446I-31J-1046300D01*
G01*
X167786250Y-119556250D02*
G75*
G02*
X167511633Y-119670014I-274650J274650D01*
G01*
X165820000Y-112809063D02*
G75*
G02*
X165437511Y-113732511I-1305900J-37D01*
G01*
D29*
X181269276Y-111450000D02*
G75*
G03*
X180967507Y-111575007I24J-426800D01*
G01*
X185714094Y-123265905D02*
G75*
G02*
X185541250Y-123337546I-172894J172805D01*
G01*
X185440000Y-123633750D02*
G75*
G02*
X185230492Y-124139453I-715200J50D01*
G01*
X180845428Y-112497500D02*
G75*
G03*
X180847451Y-112492549I-28J2900D01*
G01*
X180847500Y-112492500D02*
G75*
G03*
X180859571Y-112497512I12100J12100D01*
G01*
D28*
X170370000Y-119945857D02*
G75*
G02*
X170360012Y-119970012I-34100J-43D01*
G01*
X166862500Y-108310000D02*
G75*
G03*
X166838357Y-108300017I-24100J-24100D01*
G01*
D29*
X185600398Y-134712898D02*
G75*
G02*
X185710001Y-134977500I-264598J-264602D01*
G01*
D28*
X170350000Y-121678357D02*
G75*
G03*
X170359988Y-121702512I34100J-43D01*
G01*
X170390606Y-119990606D02*
G75*
G03*
X170365000Y-119979996I-25606J-25594D01*
G01*
D29*
X185440000Y-123438750D02*
G75*
G03*
X185338750Y-123337500I-101300J-50D01*
G01*
X185541250Y-123337500D02*
G75*
G03*
X185440000Y-123438750I-50J-101200D01*
G01*
X180196096Y-112497500D02*
G75*
G03*
X179840001Y-112645001I4J-503600D01*
G01*
D28*
X185125000Y-107532500D02*
G75*
G03*
X185103657Y-107541334I0J-30200D01*
G01*
X172426250Y-118287500D02*
G75*
G03*
X171771113Y-118558818I-50J-926500D01*
G01*
D29*
X180967500Y-111575000D02*
G75*
G03*
X180842490Y-111876776I301800J-301800D01*
G01*
D28*
X170051250Y-120278750D02*
G75*
G02*
X169330003Y-120577502I-721250J721250D01*
G01*
X168928852Y-118558852D02*
G75*
G03*
X168273750Y-118287478I-655152J-655148D01*
G01*
X185249168Y-107561668D02*
G75*
G03*
X185178750Y-107532539I-70368J-70432D01*
G01*
X174060000Y-108310000D02*
G75*
G03*
X174035857Y-108300017I-24100J-24100D01*
G01*
D29*
X187660000Y-114080000D02*
G75*
G02*
X187315974Y-114222489I-344000J344000D01*
G01*
X185365000Y-134477500D02*
G75*
G03*
X184532096Y-134132502I-832900J-832900D01*
G01*
X184023475Y-126394024D02*
G75*
G02*
X183278750Y-126702535I-744775J744724D01*
G01*
X180842500Y-112480428D02*
G75*
G03*
X180847508Y-112492492I17100J28D01*
G01*
X185257500Y-114317500D02*
G75*
G02*
X185352550Y-114546850I-229300J-229400D01*
G01*
D28*
X170678750Y-120278750D02*
G75*
G03*
X171399996Y-120577502I721250J721250D01*
G01*
D29*
X183558539Y-113803539D02*
G75*
G03*
X184570000Y-114222506I1011461J1011439D01*
G01*
X185257500Y-114317500D02*
G75*
G03*
X185028149Y-114222521I-229300J-229300D01*
G01*
X185296850Y-114222500D02*
G75*
G03*
X185257535Y-114317465I-50J-55600D01*
G01*
X180859571Y-112497500D02*
X180845428Y-112497500D01*
X185338750Y-123337500D02*
X185541250Y-123337500D01*
D28*
X185150000Y-107532500D02*
X185125000Y-107532500D01*
D29*
X185028149Y-114222500D02*
X185296850Y-114222500D01*
D28*
X172810000Y-124258664D02*
G75*
G02*
X172505010Y-124995010I-1041300J-36D01*
G01*
D29*
X183805000Y-120455000D02*
G75*
G02*
X184079996Y-121118908I-663900J-663900D01*
G01*
X183052708Y-135132500D02*
G75*
G03*
X182847498Y-135217498I-8J-290200D01*
G01*
D28*
X172201004Y-114821004D02*
G75*
G02*
X172809977Y-116291250I-1470204J-1470196D01*
G01*
D29*
X187650000Y-112650000D02*
G75*
G03*
X187281832Y-112497487I-368200J-368200D01*
G01*
D28*
X166945896Y-116905896D02*
G75*
G03*
X167541250Y-117152523I595404J595396D01*
G01*
X165433750Y-122323750D02*
G75*
G03*
X166698194Y-122847502I1264450J1264450D01*
G01*
D29*
X186275000Y-112497500D02*
G75*
G03*
X186682500Y-112090000I0J407500D01*
G01*
X186682500Y-112090000D02*
G75*
G03*
X187090000Y-112497500I407500J0D01*
G01*
D28*
X175133750Y-119406250D02*
G75*
G02*
X175046234Y-119442514I-87550J87550D01*
G01*
D29*
X187687500Y-125827500D02*
G75*
G02*
X187627144Y-125852518I-60400J60400D01*
G01*
X187090000Y-112497500D02*
X186275000Y-112497500D01*
D28*
X165437500Y-113732500D02*
X165055000Y-114115000D01*
X165820000Y-109300000D02*
X165820000Y-112809063D01*
X151190000Y-108790000D02*
X150880000Y-109100000D01*
X152163792Y-116973792D02*
X158871593Y-123681593D01*
X150570000Y-109848406D02*
X150570000Y-113126036D01*
X162622928Y-126192928D02*
X160988406Y-124558406D01*
X162640000Y-126200000D02*
X162650000Y-126200000D01*
X161849327Y-111539327D02*
X161600000Y-111290000D01*
X163842415Y-114213139D02*
X162330672Y-112701396D01*
X166740000Y-114970000D02*
X165669638Y-114970000D01*
X162010728Y-114210728D02*
X163256619Y-115456619D01*
X161590000Y-113195000D02*
X161590000Y-112600000D01*
X164190000Y-118860294D02*
X164190000Y-117710000D01*
X163780294Y-119270000D02*
X163685828Y-119270000D01*
X163400566Y-119388159D02*
X163282407Y-119506319D01*
X151180000Y-113045876D02*
X151180000Y-111350000D01*
X159572653Y-123134405D02*
X152379165Y-115940917D01*
X160769124Y-123630000D02*
X161470000Y-123630000D01*
X163450000Y-126316324D02*
X163450000Y-124489619D01*
X164100000Y-123380000D02*
X163775000Y-123705000D01*
X163990000Y-127620000D02*
X164530000Y-128160000D01*
X160763628Y-118271446D02*
X153060857Y-110568675D01*
X151190000Y-110080000D02*
X151881091Y-110080000D01*
X162281091Y-118900000D02*
X163170000Y-118900000D01*
X167786250Y-119556250D02*
X167900000Y-119442500D01*
X164259231Y-119670000D02*
X167511633Y-119670000D01*
X163519375Y-119976458D02*
X163212917Y-120282917D01*
X161620086Y-121150000D02*
X158780000Y-121150000D01*
X162115000Y-121355000D02*
X162320000Y-121560000D01*
X166180000Y-125570000D02*
X166470000Y-125860000D01*
X166760000Y-126560121D02*
X166760000Y-130650000D01*
X159620000Y-133360000D02*
X159750000Y-133230000D01*
X166140000Y-126943467D02*
X166140000Y-130232060D01*
X160063847Y-133100000D02*
X163272060Y-133100000D01*
X165685000Y-125845000D02*
X165230000Y-125390000D01*
X165350000Y-129910000D02*
X165390000Y-129950000D01*
X165310000Y-129813431D02*
X165310000Y-127529325D01*
X164865000Y-126455000D02*
X164420000Y-126010000D01*
X165666207Y-133773792D02*
X163770000Y-135670000D01*
X167700000Y-126590000D02*
X167480000Y-126810000D01*
X167260000Y-129926036D02*
X167260000Y-127341126D01*
D30*
X159951819Y-124881819D02*
X163911281Y-128841281D01*
X159920000Y-124760000D02*
X159920000Y-124805000D01*
X164530000Y-130335000D02*
X164530000Y-131210000D01*
X160974802Y-137880000D02*
X166400000Y-137880000D01*
X159140000Y-137120000D02*
X158380000Y-136360000D01*
D28*
X170360000Y-119970000D02*
X170350000Y-119980000D01*
X170370000Y-119945857D02*
X170370000Y-118297500D01*
X171771147Y-118558852D02*
X170350000Y-119980000D01*
X172426250Y-118287500D02*
X172810000Y-118287500D01*
X168928852Y-118558852D02*
X170350000Y-119980000D01*
X167890000Y-118287500D02*
X168273750Y-118287500D01*
X167900000Y-120577500D02*
X169330003Y-120577500D01*
X170051250Y-120278750D02*
X170350000Y-119980000D01*
X172810000Y-120577500D02*
X171399996Y-120577500D01*
X170390606Y-119990606D02*
X170678750Y-120278750D01*
X170365000Y-119980000D02*
X170350000Y-119980000D01*
X170360000Y-121702500D02*
X170370000Y-121712500D01*
X170350000Y-121678357D02*
X170350000Y-119980000D01*
X172810000Y-121712500D02*
X172810000Y-120577500D01*
X172810000Y-121712500D02*
X167900000Y-121712500D01*
X167900000Y-120577500D02*
X167900000Y-121712500D01*
X167890000Y-118287500D02*
X172810000Y-118287500D01*
X175170000Y-119370000D02*
X175133750Y-119406250D01*
X175046234Y-119442500D02*
X172810000Y-119442500D01*
X171460000Y-114080000D02*
X172201004Y-114821004D01*
X172810000Y-117152500D02*
X172810000Y-116291250D01*
X172810000Y-117152500D02*
X167890000Y-117152500D01*
X166945896Y-116905896D02*
X165800000Y-115760000D01*
X167541250Y-117152500D02*
X167890000Y-117152500D01*
X172505000Y-124995000D02*
X172200000Y-125300000D01*
X172810000Y-124258664D02*
X172810000Y-122847500D01*
X164910000Y-121800000D02*
X165433750Y-122323750D01*
X167900000Y-122847500D02*
X166698194Y-122847500D01*
X167900000Y-122847500D02*
X172810000Y-122847500D01*
X176670000Y-118960000D02*
X175920000Y-118960000D01*
X177950330Y-119490330D02*
X180939583Y-122479583D01*
X181860000Y-122720000D02*
X181520000Y-122720000D01*
D29*
X184080000Y-121118908D02*
X184080000Y-122202500D01*
X183530000Y-120180000D02*
X183805000Y-120455000D01*
X185230519Y-124139480D02*
X184540000Y-124830000D01*
X185440000Y-123633750D02*
X185440000Y-123438750D01*
X185714094Y-123265905D02*
X186720000Y-122260000D01*
X185338750Y-123337500D02*
X184080000Y-123337500D01*
X184080000Y-122202500D02*
X185440000Y-122202500D01*
X187714436Y-103930000D02*
X183010000Y-103930000D01*
X188090000Y-103710000D02*
X187980000Y-103820000D01*
X185710000Y-134977500D02*
X185710000Y-135132500D01*
X185600398Y-134712898D02*
X185365000Y-134477500D01*
X184532096Y-134132500D02*
X182862500Y-134132500D01*
X184023475Y-126394024D02*
X184565000Y-125852500D01*
X182842500Y-126702500D02*
X183278750Y-126702500D01*
X187712500Y-125802500D02*
X187687500Y-125827500D01*
X187627144Y-125852500D02*
X185700000Y-125852500D01*
X182762500Y-135302500D02*
X182847500Y-135217500D01*
X183052708Y-135132500D02*
X184575000Y-135132500D01*
D28*
X170621353Y-109270000D02*
X170740000Y-109270000D01*
X169650000Y-108248033D02*
X169650000Y-108336078D01*
X170263479Y-109090636D02*
X169749757Y-108576914D01*
X169687500Y-108157500D02*
X169725000Y-108120000D01*
X170434252Y-109192500D02*
X170381107Y-109139355D01*
X170160000Y-109571421D02*
X170160000Y-109590000D01*
X170146863Y-109539706D02*
X169408336Y-108801179D01*
X169175000Y-108120000D02*
X169212500Y-108157500D01*
X169250000Y-108248033D02*
X169250000Y-108418921D01*
D29*
X177250000Y-109470000D02*
X176860000Y-109860000D01*
X175918456Y-110250000D02*
X168110121Y-110250000D01*
X167120000Y-109670000D02*
X167410000Y-109960000D01*
D28*
X182310000Y-106180000D02*
X181202444Y-107287555D01*
X180810000Y-108235000D02*
X180810000Y-108790000D01*
X171636250Y-109073750D02*
X171500000Y-109210000D01*
X171772500Y-108744813D02*
X171772500Y-108300000D01*
X174070000Y-108320000D02*
X174060000Y-108310000D01*
X174035857Y-108300000D02*
X172967500Y-108300000D01*
X168067500Y-108911381D02*
X168067500Y-108320000D01*
X168260000Y-109240000D02*
X168163750Y-109143750D01*
X166862500Y-108310000D02*
X166872500Y-108320000D01*
X166838357Y-108300000D02*
X166020000Y-108300000D01*
X185150000Y-107532500D02*
X185178750Y-107532500D01*
X186697500Y-109010000D02*
X185249168Y-107561668D01*
X185103661Y-107541338D02*
X183927500Y-108717500D01*
X182562643Y-107522500D02*
X183927500Y-107522500D01*
X181747500Y-108000000D02*
X181986250Y-107761250D01*
X184927499Y-109329999D02*
X184998730Y-109258769D01*
X185137500Y-108923750D02*
X185137500Y-108727500D01*
X184420515Y-109540000D02*
X182916408Y-109540000D01*
X181977500Y-108990000D02*
X182252500Y-109265000D01*
D29*
X180842500Y-111876776D02*
X180842500Y-112480428D01*
X181269276Y-111450000D02*
X181852500Y-111450000D01*
X180845428Y-112497500D02*
X180196096Y-112497500D01*
X180859571Y-112497500D02*
X182252500Y-112497500D01*
X179350727Y-113838227D02*
X178322500Y-112810000D01*
X179840000Y-114075000D02*
X179781772Y-114016772D01*
X180196096Y-114222500D02*
X182252500Y-114222500D01*
X179840000Y-112645000D02*
X179692500Y-112792500D01*
X182252500Y-112497500D02*
X183558539Y-113803539D01*
X184570000Y-114222500D02*
X185028149Y-114222500D01*
X187660000Y-114080000D02*
X187802500Y-113937500D01*
X187315974Y-114222500D02*
X185296850Y-114222500D01*
X185352500Y-114546850D02*
X185352500Y-116370000D01*
X186682500Y-111420000D02*
X186682500Y-112090000D01*
X187281832Y-112497500D02*
X187090000Y-112497500D01*
X186275000Y-112497500D02*
X185162500Y-112497500D01*
X187650000Y-112650000D02*
X187802500Y-112802500D01*
D28*
X167730000Y-134480000D02*
X166980000Y-135230000D01*
X168645000Y-126715000D02*
X168810000Y-126550000D01*
X168480000Y-127113345D02*
X168480000Y-132669339D01*
M02*
