G04 #@! TF.GenerationSoftware,KiCad,Pcbnew,8.0.4*
G04 #@! TF.CreationDate,2024-10-04T00:04:43-04:00*
G04 #@! TF.ProjectId,BlueSTM32,426c7565-5354-44d3-9332-2e6b69636164,rev?*
G04 #@! TF.SameCoordinates,Original*
G04 #@! TF.FileFunction,Paste,Top*
G04 #@! TF.FilePolarity,Positive*
%FSLAX46Y46*%
G04 Gerber Fmt 4.6, Leading zero omitted, Abs format (unit mm)*
G04 Created by KiCad (PCBNEW 8.0.4) date 2024-10-04 00:04:43*
%MOMM*%
%LPD*%
G01*
G04 APERTURE LIST*
G04 Aperture macros list*
%AMRoundRect*
0 Rectangle with rounded corners*
0 $1 Rounding radius*
0 $2 $3 $4 $5 $6 $7 $8 $9 X,Y pos of 4 corners*
0 Add a 4 corners polygon primitive as box body*
4,1,4,$2,$3,$4,$5,$6,$7,$8,$9,$2,$3,0*
0 Add four circle primitives for the rounded corners*
1,1,$1+$1,$2,$3*
1,1,$1+$1,$4,$5*
1,1,$1+$1,$6,$7*
1,1,$1+$1,$8,$9*
0 Add four rect primitives between the rounded corners*
20,1,$1+$1,$2,$3,$4,$5,0*
20,1,$1+$1,$4,$5,$6,$7,0*
20,1,$1+$1,$6,$7,$8,$9,0*
20,1,$1+$1,$8,$9,$2,$3,0*%
G04 Aperture macros list end*
%ADD10C,0.000000*%
%ADD11C,0.010000*%
%ADD12R,0.576580X0.351536*%
%ADD13R,0.351536X0.576580*%
%ADD14RoundRect,0.150000X-0.512500X-0.150000X0.512500X-0.150000X0.512500X0.150000X-0.512500X0.150000X0*%
%ADD15RoundRect,0.200000X-0.017678X-0.300520X0.300520X0.017678X0.017678X0.300520X-0.300520X-0.017678X0*%
%ADD16RoundRect,0.300000X-0.700000X0.300000X-0.700000X-0.300000X0.700000X-0.300000X0.700000X0.300000X0*%
%ADD17RoundRect,0.062500X-0.062500X-0.400000X0.062500X-0.400000X0.062500X0.400000X-0.062500X0.400000X0*%
%ADD18RoundRect,0.062500X-0.400000X-0.062500X0.400000X-0.062500X0.400000X0.062500X-0.400000X0.062500X0*%
%ADD19RoundRect,0.249999X-0.395001X-0.395001X0.395001X-0.395001X0.395001X0.395001X-0.395001X0.395001X0*%
%ADD20R,0.863600X0.431800*%
%ADD21R,4.343400X3.454400*%
%ADD22R,1.460500X0.533400*%
%ADD23R,0.760000X0.220000*%
%ADD24RoundRect,0.160000X-0.160000X0.197500X-0.160000X-0.197500X0.160000X-0.197500X0.160000X0.197500X0*%
%ADD25R,0.736600X0.965200*%
%ADD26R,0.736600X0.355600*%
%ADD27RoundRect,0.160000X0.197500X0.160000X-0.197500X0.160000X-0.197500X-0.160000X0.197500X-0.160000X0*%
%ADD28RoundRect,0.160000X0.160000X-0.197500X0.160000X0.197500X-0.160000X0.197500X-0.160000X-0.197500X0*%
%ADD29RoundRect,0.250000X-0.450000X0.325000X-0.450000X-0.325000X0.450000X-0.325000X0.450000X0.325000X0*%
%ADD30RoundRect,0.250001X-1.074999X0.462499X-1.074999X-0.462499X1.074999X-0.462499X1.074999X0.462499X0*%
%ADD31R,2.100000X2.799999*%
%ADD32R,0.600000X1.900000*%
%ADD33RoundRect,0.250000X0.300000X0.300000X-0.300000X0.300000X-0.300000X-0.300000X0.300000X-0.300000X0*%
%ADD34RoundRect,0.237500X-0.287500X-0.237500X0.287500X-0.237500X0.287500X0.237500X-0.287500X0.237500X0*%
%ADD35RoundRect,0.155000X-0.212500X-0.155000X0.212500X-0.155000X0.212500X0.155000X-0.212500X0.155000X0*%
%ADD36RoundRect,0.155000X-0.155000X0.212500X-0.155000X-0.212500X0.155000X-0.212500X0.155000X0.212500X0*%
%ADD37RoundRect,0.155000X0.155000X-0.212500X0.155000X0.212500X-0.155000X0.212500X-0.155000X-0.212500X0*%
%ADD38R,0.300000X1.100000*%
%ADD39R,0.600000X1.100000*%
G04 APERTURE END LIST*
D10*
G36*
X155481800Y-110595000D02*
G01*
X154234000Y-110595000D01*
X154234000Y-109067800D01*
X155481800Y-109067800D01*
X155481800Y-110595000D01*
G37*
G36*
X155481800Y-112322200D02*
G01*
X154234000Y-112322200D01*
X154234000Y-110795000D01*
X155481800Y-110795000D01*
X155481800Y-112322200D01*
G37*
G36*
X156929600Y-110595000D02*
G01*
X155681800Y-110595000D01*
X155681800Y-109067800D01*
X156929600Y-109067800D01*
X156929600Y-110595000D01*
G37*
G36*
X156929600Y-112322200D02*
G01*
X155681800Y-112322200D01*
X155681800Y-110795000D01*
X156929600Y-110795000D01*
X156929600Y-112322200D01*
G37*
G36*
X158377400Y-110595000D02*
G01*
X157129600Y-110595000D01*
X157129600Y-109067800D01*
X158377400Y-109067800D01*
X158377400Y-110595000D01*
G37*
G36*
X158377400Y-112322200D02*
G01*
X157129600Y-112322200D01*
X157129600Y-110795000D01*
X158377400Y-110795000D01*
X158377400Y-112322200D01*
G37*
D11*
X184617500Y-108625000D02*
X184047500Y-108625000D01*
X184047500Y-107675000D01*
X184617500Y-107675000D01*
X184617500Y-108625000D01*
G36*
X184617500Y-108625000D02*
G01*
X184047500Y-108625000D01*
X184047500Y-107675000D01*
X184617500Y-107675000D01*
X184617500Y-108625000D01*
G37*
D12*
X183837400Y-123259999D03*
X183837400Y-122760000D03*
X183837400Y-122260001D03*
D13*
X184043699Y-121549700D03*
X184543700Y-121549700D03*
X185043700Y-121549700D03*
X185543701Y-121549700D03*
D12*
X185750000Y-122260001D03*
X185750000Y-122760000D03*
X185750000Y-123259999D03*
D13*
X185543701Y-123970300D03*
X185043700Y-123970300D03*
X184543700Y-123970300D03*
X184043699Y-123970300D03*
D14*
X186270000Y-125760000D03*
X186270000Y-127660000D03*
X183995000Y-127660000D03*
X183995000Y-126710000D03*
X183995000Y-125760000D03*
D15*
X175713745Y-124698440D03*
X176491561Y-125476256D03*
X175466257Y-126501561D03*
X174688440Y-125723744D03*
D16*
X161160000Y-119280000D03*
X161160000Y-116580000D03*
D17*
X166800000Y-116112500D03*
X167200000Y-116112500D03*
X167600000Y-116112500D03*
X168000000Y-116112500D03*
X168400000Y-116112500D03*
X168800000Y-116112500D03*
X169200000Y-116112500D03*
X169600000Y-116112500D03*
X170000000Y-116112500D03*
X170400000Y-116112500D03*
X170800000Y-116112500D03*
X171200000Y-116112500D03*
X171600000Y-116112500D03*
X172000000Y-116112500D03*
X172400000Y-116112500D03*
X172800000Y-116112500D03*
X173200000Y-116112500D03*
D18*
X173887500Y-116800000D03*
X173887500Y-117200000D03*
X173887500Y-117600000D03*
X173887500Y-118000000D03*
X173887500Y-118400000D03*
X173887500Y-118800000D03*
X173887500Y-119200000D03*
X173887500Y-119600000D03*
X173887500Y-120000000D03*
X173887500Y-120400000D03*
X173887500Y-120800000D03*
X173887500Y-121200000D03*
X173887500Y-121600000D03*
X173887500Y-122000000D03*
X173887500Y-122400000D03*
X173887500Y-122800000D03*
X173887500Y-123200000D03*
D17*
X173200000Y-123887500D03*
X172800000Y-123887500D03*
X172400000Y-123887500D03*
X172000000Y-123887500D03*
X171600000Y-123887500D03*
X171200000Y-123887500D03*
X170800000Y-123887500D03*
X170400000Y-123887500D03*
X170000000Y-123887500D03*
X169600000Y-123887500D03*
X169200000Y-123887500D03*
X168800000Y-123887500D03*
X168400000Y-123887500D03*
X168000000Y-123887500D03*
X167600000Y-123887500D03*
X167200000Y-123887500D03*
X166800000Y-123887500D03*
D18*
X166112500Y-123200000D03*
X166112500Y-122800000D03*
X166112500Y-122400000D03*
X166112500Y-122000000D03*
X166112500Y-121600000D03*
X166112500Y-121200000D03*
X166112500Y-120800000D03*
X166112500Y-120400000D03*
X166112500Y-120000000D03*
X166112500Y-119600000D03*
X166112500Y-119200000D03*
X166112500Y-118800000D03*
X166112500Y-118400000D03*
X166112500Y-118000000D03*
X166112500Y-117600000D03*
X166112500Y-117200000D03*
X166112500Y-116800000D03*
D19*
X172400000Y-122400000D03*
X172400000Y-120800000D03*
X172400000Y-119200000D03*
X172400000Y-117600000D03*
X170800000Y-122400000D03*
X170800000Y-120800000D03*
X170800000Y-119200000D03*
X170800000Y-117600000D03*
X169200000Y-122400000D03*
X169200000Y-120800000D03*
X169200000Y-119200000D03*
X169200000Y-117600000D03*
X167600000Y-122400000D03*
X167600000Y-120800000D03*
X167600000Y-119200000D03*
X167600000Y-117600000D03*
D20*
X152381400Y-108790000D03*
X152381400Y-110060000D03*
X152381400Y-111330000D03*
X152381400Y-112600000D03*
X160230000Y-112600000D03*
X160230000Y-111330000D03*
X160230000Y-110060000D03*
X160230000Y-108790000D03*
D21*
X156305700Y-110695000D03*
D22*
X181648350Y-112485000D03*
X181648350Y-113755000D03*
X181648350Y-115025000D03*
X181648350Y-116295000D03*
X187096650Y-116295000D03*
X187096650Y-115025000D03*
X187096650Y-113755000D03*
X187096650Y-112485000D03*
D14*
X186280000Y-133190000D03*
X186280000Y-135090000D03*
X184005000Y-135090000D03*
X184005000Y-134140000D03*
X184005000Y-133190000D03*
D23*
X185317500Y-107350000D03*
X185317500Y-107750000D03*
X185317500Y-108150000D03*
X185317500Y-108550000D03*
X185317500Y-108950000D03*
X183347500Y-108950000D03*
X183347500Y-108550000D03*
X183347500Y-108150000D03*
X183347500Y-107750000D03*
X183347500Y-107350000D03*
D24*
X178270000Y-110242500D03*
X178270000Y-111437500D03*
X188090000Y-109152500D03*
X188090000Y-110347500D03*
X153665000Y-134467500D03*
X153665000Y-133272500D03*
X153695000Y-135702500D03*
X153695000Y-136897500D03*
X153695000Y-130842500D03*
X153695000Y-132037500D03*
X153715000Y-125992500D03*
X153715000Y-127187500D03*
D25*
X156000000Y-136360500D03*
D26*
X156000000Y-137190000D03*
X156000000Y-137690000D03*
D25*
X156000000Y-138519500D03*
X157270000Y-138519500D03*
D26*
X157270000Y-137690000D03*
X157270000Y-137190000D03*
D25*
X157270000Y-136360500D03*
X156000000Y-131240500D03*
D26*
X156000000Y-132070000D03*
X156000000Y-132570000D03*
D25*
X156000000Y-133399500D03*
X157270000Y-133399500D03*
D26*
X157270000Y-132570000D03*
X157270000Y-132070000D03*
D25*
X157270000Y-131240500D03*
X156000000Y-125910500D03*
D26*
X156000000Y-126740000D03*
X156000000Y-127240000D03*
D25*
X156000000Y-128069500D03*
X157270000Y-128069500D03*
D26*
X157270000Y-127240000D03*
X157270000Y-126740000D03*
D25*
X157270000Y-125910500D03*
X156005000Y-120691000D03*
D26*
X156005000Y-121520500D03*
X156005000Y-122020500D03*
D25*
X156005000Y-122850000D03*
X157275000Y-122850000D03*
D26*
X157275000Y-122020500D03*
X157275000Y-121520500D03*
D25*
X157275000Y-120691000D03*
D24*
X182460000Y-121542500D03*
X182460000Y-122737500D03*
X180950000Y-121542500D03*
X180950000Y-122737500D03*
X161180000Y-122077500D03*
X161180000Y-120882500D03*
D27*
X183060000Y-105000000D03*
X181865000Y-105000000D03*
X187050000Y-105000000D03*
X185855000Y-105000000D03*
D28*
X179802500Y-126115000D03*
X179802500Y-127310000D03*
D24*
X183852500Y-130400000D03*
X183852500Y-129205000D03*
X159990000Y-122077500D03*
X159990000Y-120882500D03*
D29*
X177350000Y-121425000D03*
X177350000Y-119375000D03*
D30*
X178732500Y-117127500D03*
X178732500Y-114152500D03*
D31*
X178679989Y-135330352D03*
X161380011Y-135330352D03*
D32*
X175530012Y-132980351D03*
X174530011Y-132980351D03*
X173530011Y-132980351D03*
X172530010Y-132980351D03*
X171530010Y-132980351D03*
X170530012Y-132980351D03*
X169530011Y-132980351D03*
X168530011Y-132980351D03*
X167530010Y-132980351D03*
X166530012Y-132980351D03*
X165530012Y-132980351D03*
X164530011Y-132980351D03*
D33*
X183040000Y-118520000D03*
X185840000Y-118520000D03*
D34*
X181592500Y-102400000D03*
X183342500Y-102400000D03*
X185602500Y-102400000D03*
X187352500Y-102400000D03*
D35*
X178447500Y-122770000D03*
X177312500Y-122770000D03*
D36*
X159240000Y-117327500D03*
X159240000Y-116192500D03*
D37*
X159240000Y-118462500D03*
X159240000Y-119597500D03*
X182152500Y-126145000D03*
X182152500Y-127280000D03*
X181032500Y-128555000D03*
X181032500Y-129690000D03*
D36*
X187252500Y-130370000D03*
X187252500Y-129235000D03*
D38*
X171700000Y-106750000D03*
X170700000Y-106750000D03*
X169200000Y-106750000D03*
X168200000Y-106750000D03*
D39*
X167550000Y-106750000D03*
X166750000Y-106750000D03*
D38*
X168700000Y-106750000D03*
X169700000Y-106750000D03*
X170200000Y-106750000D03*
X171200000Y-106750000D03*
D39*
X172350000Y-106750000D03*
X173150000Y-106750000D03*
M02*
