G04 #@! TF.GenerationSoftware,KiCad,Pcbnew,8.0.4*
G04 #@! TF.CreationDate,2024-10-04T00:04:43-04:00*
G04 #@! TF.ProjectId,BlueSTM32,426c7565-5354-44d3-9332-2e6b69636164,rev?*
G04 #@! TF.SameCoordinates,Original*
G04 #@! TF.FileFunction,Copper,L3,Inr*
G04 #@! TF.FilePolarity,Positive*
%FSLAX46Y46*%
G04 Gerber Fmt 4.6, Leading zero omitted, Abs format (unit mm)*
G04 Created by KiCad (PCBNEW 8.0.4) date 2024-10-04 00:04:43*
%MOMM*%
%LPD*%
G01*
G04 APERTURE LIST*
G04 #@! TA.AperFunction,ComponentPad*
%ADD10O,0.950000X1.900000*%
G04 #@! TD*
G04 #@! TA.AperFunction,ComponentPad*
%ADD11O,0.800000X1.600000*%
G04 #@! TD*
G04 #@! TA.AperFunction,ViaPad*
%ADD12C,0.400000*%
G04 #@! TD*
G04 #@! TA.AperFunction,ViaPad*
%ADD13C,0.500000*%
G04 #@! TD*
G04 #@! TA.AperFunction,ViaPad*
%ADD14C,0.350000*%
G04 #@! TD*
G04 #@! TA.AperFunction,ViaPad*
%ADD15C,0.600000*%
G04 #@! TD*
G04 #@! TA.AperFunction,Conductor*
%ADD16C,0.200000*%
G04 #@! TD*
G04 APERTURE END LIST*
D10*
X164330000Y-101600000D03*
D11*
X175570000Y-105600000D03*
X164330000Y-105600000D03*
D10*
X175570000Y-101600000D03*
D12*
X178690000Y-135310000D03*
X171530000Y-135800000D03*
X166410000Y-136510000D03*
X163640000Y-134310000D03*
X153700000Y-129970000D03*
X152510000Y-135290000D03*
X152510000Y-133050000D03*
X165820000Y-109300000D03*
X165055000Y-114115000D03*
X151190000Y-108790000D03*
X162650000Y-126200000D03*
X161600000Y-111290000D03*
X166740000Y-114970000D03*
X164910000Y-116410000D03*
X151180000Y-111350000D03*
X161470000Y-123630000D03*
X168480000Y-125350000D03*
X169010000Y-124980000D03*
X170480000Y-125970000D03*
X172120000Y-126500000D03*
X161590000Y-112600000D03*
X163170000Y-118900000D03*
X163282407Y-119506319D03*
X151190000Y-110080000D03*
X168810000Y-126550000D03*
X166980000Y-135230000D03*
X166180000Y-125570000D03*
X166760000Y-130650000D03*
X165390000Y-129950000D03*
X164420000Y-126010000D03*
X159620000Y-133360000D03*
X165230000Y-125390000D03*
X158780000Y-121150000D03*
X162320000Y-121560000D03*
X164530000Y-128160000D03*
X164100000Y-123380000D03*
X167700000Y-126590000D03*
X163770000Y-135670000D03*
X164530000Y-131210000D03*
X159920000Y-124760000D03*
X166400000Y-137880000D03*
X158380000Y-136360000D03*
X154885000Y-121370000D03*
X155035000Y-122400000D03*
X155205000Y-126760000D03*
X156005000Y-130330000D03*
X155975000Y-134350000D03*
X154955000Y-137700000D03*
X170350000Y-119980000D03*
X163212917Y-120282917D03*
X169210000Y-109600000D03*
D13*
X157540000Y-111800000D03*
X155040000Y-111770000D03*
X156320000Y-110740000D03*
X157380000Y-109770000D03*
X155040000Y-109750000D03*
X161380000Y-108790000D03*
X171460000Y-114080000D03*
X165800000Y-115760000D03*
X164910000Y-121800000D03*
X172200000Y-125300000D03*
X175170000Y-119370000D03*
X186830000Y-123350000D03*
X183530000Y-120180000D03*
X188840000Y-112310000D03*
X187450000Y-117690000D03*
X188210000Y-118620000D03*
D14*
X161200000Y-122880000D03*
X159990000Y-122880000D03*
X157310000Y-105070000D03*
X158680000Y-103850000D03*
X155980000Y-103920000D03*
X157290000Y-102580000D03*
X157350000Y-103950000D03*
X188090000Y-103710000D03*
X165150000Y-110200000D03*
X158280000Y-117860000D03*
X179290000Y-122800000D03*
X175920000Y-118960000D03*
X181860000Y-122720000D03*
X176380000Y-127160000D03*
X174480000Y-124030000D03*
X186720000Y-122260000D03*
X184540000Y-124830000D03*
X182842500Y-126702500D03*
X187712500Y-125802500D03*
X182762500Y-135302500D03*
X182862500Y-134132500D03*
X169175000Y-108120000D03*
X169725000Y-108120000D03*
X170160000Y-109590000D03*
X170740000Y-109270000D03*
D15*
X177250000Y-109470000D03*
X167120000Y-109670000D03*
X182310000Y-106180000D03*
X180810000Y-108790000D03*
X171500000Y-109210000D03*
X174070000Y-108320000D03*
X166020000Y-108300000D03*
X168260000Y-109240000D03*
X186697500Y-109010000D03*
X181977500Y-108990000D03*
X181747500Y-108000000D03*
X181852500Y-111450000D03*
X178322500Y-112810000D03*
X185352500Y-116370000D03*
X186682500Y-111420000D03*
D16*
X163667083Y-120282917D02*
X163212917Y-120282917D01*
X164110000Y-115060000D02*
X164110000Y-119840000D01*
X164110000Y-119840000D02*
X163667083Y-120282917D01*
X165055000Y-114115000D02*
X164110000Y-115060000D01*
X163540000Y-127090000D02*
X162650000Y-126200000D01*
X171530000Y-127090000D02*
X163540000Y-127090000D01*
X172120000Y-126500000D02*
X171530000Y-127090000D01*
X169510000Y-117740000D02*
X166740000Y-114970000D01*
X169510000Y-125000000D02*
X169510000Y-117740000D01*
X170480000Y-125970000D02*
X169510000Y-125000000D01*
X168480000Y-119217818D02*
X168480000Y-125350000D01*
X165672182Y-116410000D02*
X168480000Y-119217818D01*
X164910000Y-116410000D02*
X165672182Y-116410000D01*
X161730000Y-123890000D02*
X161470000Y-123630000D01*
X165207107Y-123890000D02*
X161730000Y-123890000D01*
X167167107Y-125850000D02*
X165207107Y-123890000D01*
X168687107Y-125850000D02*
X167167107Y-125850000D01*
X169010000Y-125527107D02*
X168687107Y-125850000D01*
X169010000Y-124980000D02*
X169010000Y-125527107D01*
G04 #@! TA.AperFunction,Conductor*
G36*
X163642611Y-100220185D02*
G01*
X163688366Y-100272989D01*
X163698310Y-100342147D01*
X163669285Y-100405703D01*
X163663253Y-100412181D01*
X163572282Y-100503151D01*
X163572279Y-100503155D01*
X163465521Y-100662929D01*
X163465520Y-100662931D01*
X163391989Y-100840452D01*
X163391986Y-100840464D01*
X163354500Y-101028917D01*
X163354500Y-102171082D01*
X163391986Y-102359535D01*
X163391989Y-102359547D01*
X163465520Y-102537068D01*
X163465521Y-102537070D01*
X163572279Y-102696844D01*
X163572282Y-102696848D01*
X163708151Y-102832717D01*
X163708155Y-102832720D01*
X163867927Y-102939477D01*
X163867928Y-102939477D01*
X163867929Y-102939478D01*
X163867931Y-102939479D01*
X164045452Y-103013010D01*
X164045457Y-103013012D01*
X164153485Y-103034500D01*
X164233917Y-103050499D01*
X164233920Y-103050500D01*
X164233922Y-103050500D01*
X164426080Y-103050500D01*
X164426081Y-103050499D01*
X164614543Y-103013012D01*
X164792073Y-102939477D01*
X164936610Y-102842899D01*
X165003286Y-102822022D01*
X165070666Y-102840506D01*
X165117357Y-102892485D01*
X165129500Y-102946002D01*
X165129500Y-104426638D01*
X165109815Y-104493677D01*
X165057011Y-104539432D01*
X164987853Y-104549376D01*
X164924297Y-104520351D01*
X164917819Y-104514319D01*
X164904038Y-104500538D01*
X164904034Y-104500535D01*
X164756553Y-104401990D01*
X164756540Y-104401983D01*
X164592667Y-104334106D01*
X164592658Y-104334103D01*
X164418694Y-104299500D01*
X164418691Y-104299500D01*
X164241309Y-104299500D01*
X164241306Y-104299500D01*
X164067341Y-104334103D01*
X164067332Y-104334106D01*
X163903459Y-104401983D01*
X163903446Y-104401990D01*
X163755965Y-104500535D01*
X163755961Y-104500538D01*
X163630538Y-104625961D01*
X163630535Y-104625965D01*
X163531990Y-104773446D01*
X163531983Y-104773459D01*
X163464106Y-104937332D01*
X163464103Y-104937341D01*
X163429500Y-105111304D01*
X163429500Y-106088695D01*
X163464103Y-106262658D01*
X163464106Y-106262667D01*
X163531983Y-106426540D01*
X163531990Y-106426553D01*
X163630535Y-106574034D01*
X163630538Y-106574038D01*
X163755961Y-106699461D01*
X163755965Y-106699464D01*
X163903446Y-106798009D01*
X163903459Y-106798016D01*
X164026363Y-106848923D01*
X164067334Y-106865894D01*
X164067336Y-106865894D01*
X164067341Y-106865896D01*
X164241304Y-106900499D01*
X164241307Y-106900500D01*
X164241309Y-106900500D01*
X164418693Y-106900500D01*
X164418694Y-106900499D01*
X164476682Y-106888964D01*
X164592658Y-106865896D01*
X164592661Y-106865894D01*
X164592666Y-106865894D01*
X164732535Y-106807958D01*
X164756540Y-106798016D01*
X164756540Y-106798015D01*
X164756547Y-106798013D01*
X164904035Y-106699464D01*
X165029464Y-106574035D01*
X165030220Y-106572902D01*
X165030771Y-106572442D01*
X165033328Y-106569327D01*
X165033918Y-106569811D01*
X165083826Y-106528093D01*
X165153150Y-106519377D01*
X165216181Y-106549525D01*
X165237715Y-106574854D01*
X165251271Y-106595997D01*
X165251272Y-106595998D01*
X165342108Y-106685192D01*
X165450514Y-106751937D01*
X165571054Y-106792886D01*
X165583843Y-106794208D01*
X165597371Y-106796765D01*
X165600351Y-106796986D01*
X165600356Y-106796989D01*
X165635560Y-106799607D01*
X165638926Y-106799906D01*
X165674039Y-106803539D01*
X165674040Y-106803538D01*
X165677020Y-106803847D01*
X165690786Y-106803715D01*
X165696740Y-106804158D01*
X165809000Y-106787174D01*
X165914665Y-106745635D01*
X166008438Y-106681625D01*
X166085617Y-106598353D01*
X166142331Y-106499996D01*
X166143403Y-106496511D01*
X166146020Y-106488015D01*
X166184559Y-106429735D01*
X166248488Y-106401542D01*
X166264531Y-106400500D01*
X173635469Y-106400500D01*
X173702508Y-106420185D01*
X173748263Y-106472989D01*
X173753980Y-106488015D01*
X173757668Y-106499995D01*
X173814381Y-106598351D01*
X173814386Y-106598357D01*
X173891560Y-106681623D01*
X173891562Y-106681625D01*
X173985335Y-106745635D01*
X174091000Y-106787174D01*
X174203260Y-106804158D01*
X174209213Y-106803715D01*
X174222991Y-106803845D01*
X174225958Y-106803538D01*
X174225961Y-106803539D01*
X174260994Y-106799915D01*
X174264555Y-106799599D01*
X174302631Y-106796767D01*
X174316166Y-106794208D01*
X174320028Y-106793808D01*
X174328946Y-106792886D01*
X174449486Y-106751937D01*
X174557892Y-106685192D01*
X174648728Y-106595998D01*
X174662282Y-106574856D01*
X174715036Y-106529045D01*
X174784184Y-106519026D01*
X174847771Y-106547982D01*
X174866643Y-106569350D01*
X174866672Y-106569327D01*
X174867309Y-106570103D01*
X174869773Y-106572893D01*
X174870537Y-106574037D01*
X174995961Y-106699461D01*
X174995965Y-106699464D01*
X175143446Y-106798009D01*
X175143459Y-106798016D01*
X175266363Y-106848923D01*
X175307334Y-106865894D01*
X175307336Y-106865894D01*
X175307341Y-106865896D01*
X175481304Y-106900499D01*
X175481307Y-106900500D01*
X175481309Y-106900500D01*
X175658693Y-106900500D01*
X175658694Y-106900499D01*
X175716682Y-106888964D01*
X175832658Y-106865896D01*
X175832661Y-106865894D01*
X175832666Y-106865894D01*
X175972535Y-106807958D01*
X175996540Y-106798016D01*
X175996540Y-106798015D01*
X175996547Y-106798013D01*
X176144035Y-106699464D01*
X176269464Y-106574035D01*
X176368013Y-106426547D01*
X176435894Y-106262666D01*
X176437648Y-106253851D01*
X176452338Y-106179996D01*
X181504435Y-106179996D01*
X181504435Y-106180003D01*
X181524630Y-106359249D01*
X181524631Y-106359254D01*
X181584211Y-106529523D01*
X181627459Y-106598351D01*
X181680184Y-106682262D01*
X181807738Y-106809816D01*
X181896984Y-106865893D01*
X181952060Y-106900500D01*
X181960478Y-106905789D01*
X182130745Y-106965368D01*
X182130750Y-106965369D01*
X182309996Y-106985565D01*
X182310000Y-106985565D01*
X182310004Y-106985565D01*
X182489249Y-106965369D01*
X182489252Y-106965368D01*
X182489255Y-106965368D01*
X182659522Y-106905789D01*
X182812262Y-106809816D01*
X182939816Y-106682262D01*
X183035789Y-106529522D01*
X183095368Y-106359255D01*
X183095369Y-106359249D01*
X183115565Y-106180003D01*
X183115565Y-106179996D01*
X183095369Y-106000750D01*
X183095368Y-106000745D01*
X183035788Y-105830476D01*
X182939815Y-105677737D01*
X182812262Y-105550184D01*
X182659523Y-105454211D01*
X182489254Y-105394631D01*
X182489249Y-105394630D01*
X182310004Y-105374435D01*
X182309996Y-105374435D01*
X182130750Y-105394630D01*
X182130745Y-105394631D01*
X181960476Y-105454211D01*
X181807737Y-105550184D01*
X181680184Y-105677737D01*
X181584211Y-105830476D01*
X181524631Y-106000745D01*
X181524630Y-106000750D01*
X181504435Y-106179996D01*
X176452338Y-106179996D01*
X176470499Y-106088695D01*
X176470500Y-106088693D01*
X176470500Y-105111306D01*
X176470499Y-105111304D01*
X176435896Y-104937341D01*
X176435893Y-104937332D01*
X176368016Y-104773459D01*
X176368009Y-104773446D01*
X176269464Y-104625965D01*
X176269461Y-104625961D01*
X176144038Y-104500538D01*
X176144034Y-104500535D01*
X175996553Y-104401990D01*
X175996540Y-104401983D01*
X175832667Y-104334106D01*
X175832658Y-104334103D01*
X175658694Y-104299500D01*
X175658691Y-104299500D01*
X175481309Y-104299500D01*
X175481306Y-104299500D01*
X175307341Y-104334103D01*
X175307332Y-104334106D01*
X175143459Y-104401983D01*
X175143446Y-104401990D01*
X174995965Y-104500535D01*
X174995961Y-104500538D01*
X174982181Y-104514319D01*
X174920858Y-104547804D01*
X174851166Y-104542820D01*
X174795233Y-104500948D01*
X174770816Y-104435484D01*
X174770500Y-104426638D01*
X174770500Y-103709999D01*
X187409539Y-103709999D01*
X187409539Y-103710000D01*
X187429311Y-103872842D01*
X187429312Y-103872845D01*
X187487482Y-104026226D01*
X187580668Y-104161229D01*
X187580670Y-104161231D01*
X187580672Y-104161233D01*
X187703451Y-104270006D01*
X187703452Y-104270006D01*
X187703454Y-104270008D01*
X187848705Y-104346242D01*
X187848707Y-104346242D01*
X187848708Y-104346243D01*
X188007978Y-104385500D01*
X188007979Y-104385500D01*
X188172022Y-104385500D01*
X188331291Y-104346243D01*
X188331291Y-104346242D01*
X188331295Y-104346242D01*
X188476546Y-104270008D01*
X188599332Y-104161229D01*
X188692518Y-104026226D01*
X188750688Y-103872845D01*
X188770461Y-103710000D01*
X188750688Y-103547155D01*
X188692518Y-103393774D01*
X188689907Y-103389992D01*
X188599333Y-103258773D01*
X188599332Y-103258771D01*
X188599329Y-103258768D01*
X188599327Y-103258766D01*
X188476548Y-103149993D01*
X188331291Y-103073756D01*
X188172022Y-103034500D01*
X188172021Y-103034500D01*
X188007979Y-103034500D01*
X188007978Y-103034500D01*
X187848708Y-103073756D01*
X187703451Y-103149993D01*
X187580672Y-103258766D01*
X187580666Y-103258773D01*
X187487483Y-103393771D01*
X187429312Y-103547154D01*
X187429311Y-103547157D01*
X187409539Y-103709999D01*
X174770500Y-103709999D01*
X174770500Y-102946002D01*
X174790185Y-102878963D01*
X174842989Y-102833208D01*
X174912147Y-102823264D01*
X174963389Y-102842899D01*
X175107927Y-102939477D01*
X175107930Y-102939478D01*
X175107931Y-102939479D01*
X175285452Y-103013010D01*
X175285457Y-103013012D01*
X175393485Y-103034500D01*
X175473917Y-103050499D01*
X175473920Y-103050500D01*
X175473922Y-103050500D01*
X175666080Y-103050500D01*
X175666081Y-103050499D01*
X175854543Y-103013012D01*
X176032073Y-102939477D01*
X176191845Y-102832720D01*
X176327720Y-102696845D01*
X176434477Y-102537073D01*
X176508012Y-102359543D01*
X176545500Y-102171078D01*
X176545500Y-101028922D01*
X176545500Y-101028919D01*
X176545499Y-101028917D01*
X176522102Y-100911291D01*
X176508012Y-100840457D01*
X176461249Y-100727561D01*
X176434479Y-100662931D01*
X176434478Y-100662929D01*
X176369499Y-100565682D01*
X176327720Y-100503155D01*
X176327717Y-100503151D01*
X176236747Y-100412181D01*
X176203262Y-100350858D01*
X176208246Y-100281166D01*
X176250118Y-100225233D01*
X176315582Y-100200816D01*
X176324428Y-100200500D01*
X176430118Y-100200500D01*
X187960118Y-100200500D01*
X187995933Y-100200500D01*
X188004043Y-100200765D01*
X188226790Y-100215364D01*
X188242848Y-100217479D01*
X188428875Y-100254482D01*
X188457771Y-100260230D01*
X188473438Y-100264428D01*
X188626569Y-100316409D01*
X188680944Y-100334867D01*
X188695921Y-100341070D01*
X188886791Y-100435196D01*
X188892460Y-100437992D01*
X188906508Y-100446102D01*
X189088712Y-100567848D01*
X189101573Y-100577716D01*
X189198740Y-100662929D01*
X189266328Y-100722202D01*
X189277797Y-100733671D01*
X189388160Y-100859517D01*
X189422280Y-100898423D01*
X189432154Y-100911291D01*
X189553897Y-101093492D01*
X189562007Y-101107539D01*
X189658926Y-101304071D01*
X189665133Y-101319057D01*
X189735571Y-101526561D01*
X189739769Y-101542228D01*
X189782518Y-101757140D01*
X189784636Y-101773221D01*
X189799235Y-101995956D01*
X189799500Y-102004066D01*
X189799500Y-137995933D01*
X189799235Y-138004043D01*
X189784636Y-138226778D01*
X189782518Y-138242859D01*
X189739769Y-138457771D01*
X189735571Y-138473438D01*
X189665133Y-138680942D01*
X189658926Y-138695928D01*
X189562007Y-138892460D01*
X189553897Y-138906507D01*
X189432154Y-139088708D01*
X189422280Y-139101576D01*
X189277797Y-139266328D01*
X189266328Y-139277797D01*
X189101576Y-139422280D01*
X189088708Y-139432154D01*
X188906507Y-139553897D01*
X188892460Y-139562007D01*
X188695928Y-139658926D01*
X188680942Y-139665133D01*
X188473438Y-139735571D01*
X188457771Y-139739769D01*
X188242859Y-139782518D01*
X188226778Y-139784636D01*
X188004043Y-139799235D01*
X187995933Y-139799500D01*
X152004067Y-139799500D01*
X151995957Y-139799235D01*
X151773221Y-139784636D01*
X151757140Y-139782518D01*
X151542228Y-139739769D01*
X151526561Y-139735571D01*
X151319057Y-139665133D01*
X151304071Y-139658926D01*
X151107539Y-139562007D01*
X151093492Y-139553897D01*
X150911291Y-139432154D01*
X150898423Y-139422280D01*
X150733671Y-139277797D01*
X150722202Y-139266328D01*
X150669730Y-139206495D01*
X150577716Y-139101573D01*
X150567845Y-139088708D01*
X150446102Y-138906507D01*
X150437992Y-138892460D01*
X150435196Y-138886791D01*
X150341070Y-138695921D01*
X150334866Y-138680942D01*
X150264428Y-138473438D01*
X150260230Y-138457771D01*
X150238381Y-138347929D01*
X150217479Y-138242848D01*
X150215364Y-138226790D01*
X150200765Y-138004043D01*
X150200500Y-137995933D01*
X150200500Y-137700000D01*
X154249355Y-137700000D01*
X154269859Y-137868869D01*
X154269860Y-137868874D01*
X154330182Y-138027931D01*
X154392475Y-138118177D01*
X154426817Y-138167929D01*
X154502392Y-138234882D01*
X154554150Y-138280736D01*
X154682172Y-138347927D01*
X154704775Y-138359790D01*
X154869944Y-138400500D01*
X155040056Y-138400500D01*
X155205225Y-138359790D01*
X155284692Y-138318081D01*
X155355849Y-138280736D01*
X155355850Y-138280734D01*
X155355852Y-138280734D01*
X155483183Y-138167929D01*
X155579818Y-138027930D01*
X155635920Y-137880000D01*
X165694355Y-137880000D01*
X165714859Y-138048869D01*
X165714860Y-138048874D01*
X165775182Y-138207931D01*
X165825435Y-138280734D01*
X165871817Y-138347929D01*
X165931158Y-138400500D01*
X165999150Y-138460736D01*
X166149773Y-138539789D01*
X166149775Y-138539790D01*
X166314944Y-138580500D01*
X166485056Y-138580500D01*
X166650225Y-138539790D01*
X166776647Y-138473438D01*
X166800849Y-138460736D01*
X166800850Y-138460734D01*
X166800852Y-138460734D01*
X166928183Y-138347929D01*
X167024818Y-138207930D01*
X167085140Y-138048872D01*
X167105645Y-137880000D01*
X167085140Y-137711128D01*
X167024818Y-137552070D01*
X166928183Y-137412071D01*
X166800852Y-137299266D01*
X166800850Y-137299265D01*
X166795238Y-137294293D01*
X166796411Y-137292968D01*
X166758369Y-137246014D01*
X166750717Y-137176564D01*
X166781826Y-137114003D01*
X166805361Y-137095986D01*
X166804678Y-137094996D01*
X166810847Y-137090737D01*
X166810848Y-137090736D01*
X166810852Y-137090734D01*
X166938183Y-136977929D01*
X167034818Y-136837930D01*
X167095140Y-136678872D01*
X167115645Y-136510000D01*
X167095140Y-136341128D01*
X167034818Y-136182070D01*
X167004349Y-136137929D01*
X166992865Y-136121291D01*
X166970982Y-136054937D01*
X166988447Y-135987285D01*
X167039715Y-135939815D01*
X167065237Y-135930455D01*
X167230225Y-135889790D01*
X167310830Y-135847485D01*
X167380849Y-135810736D01*
X167380850Y-135810734D01*
X167380852Y-135810734D01*
X167392968Y-135800000D01*
X170824355Y-135800000D01*
X170844859Y-135968869D01*
X170844860Y-135968874D01*
X170905182Y-136127931D01*
X170948805Y-136191128D01*
X171001817Y-136267929D01*
X171071643Y-136329789D01*
X171129150Y-136380736D01*
X171279773Y-136459789D01*
X171279775Y-136459790D01*
X171444944Y-136500500D01*
X171615056Y-136500500D01*
X171780225Y-136459790D01*
X171859692Y-136418081D01*
X171930849Y-136380736D01*
X171930850Y-136380734D01*
X171930852Y-136380734D01*
X172058183Y-136267929D01*
X172154818Y-136127930D01*
X172215140Y-135968872D01*
X172235645Y-135800000D01*
X172215140Y-135631128D01*
X172154818Y-135472070D01*
X172058183Y-135332071D01*
X172033270Y-135310000D01*
X177984355Y-135310000D01*
X178004859Y-135478869D01*
X178004860Y-135478874D01*
X178065182Y-135637931D01*
X178108171Y-135700210D01*
X178161817Y-135777929D01*
X178230608Y-135838872D01*
X178289150Y-135890736D01*
X178438020Y-135968869D01*
X178439775Y-135969790D01*
X178604944Y-136010500D01*
X178775056Y-136010500D01*
X178940225Y-135969790D01*
X179088305Y-135892071D01*
X179090849Y-135890736D01*
X179090850Y-135890734D01*
X179090852Y-135890734D01*
X179218183Y-135777929D01*
X179314818Y-135637930D01*
X179375140Y-135478872D01*
X179395645Y-135310000D01*
X179375140Y-135141128D01*
X179314818Y-134982070D01*
X179308238Y-134972538D01*
X179274702Y-134923953D01*
X179218183Y-134842071D01*
X179090852Y-134729266D01*
X179090849Y-134729263D01*
X178940226Y-134650210D01*
X178775056Y-134609500D01*
X178604944Y-134609500D01*
X178439773Y-134650210D01*
X178289150Y-134729263D01*
X178161816Y-134842072D01*
X178065182Y-134982068D01*
X178004860Y-135141125D01*
X178004859Y-135141130D01*
X177984355Y-135310000D01*
X172033270Y-135310000D01*
X171930852Y-135219266D01*
X171930849Y-135219263D01*
X171780226Y-135140210D01*
X171615056Y-135099500D01*
X171444944Y-135099500D01*
X171279773Y-135140210D01*
X171129150Y-135219263D01*
X171001816Y-135332072D01*
X170905182Y-135472068D01*
X170844860Y-135631125D01*
X170844859Y-135631130D01*
X170824355Y-135800000D01*
X167392968Y-135800000D01*
X167508183Y-135697929D01*
X167604818Y-135557930D01*
X167665140Y-135398872D01*
X167685645Y-135230000D01*
X167665140Y-135061128D01*
X167604818Y-134902070D01*
X167596993Y-134890734D01*
X167546738Y-134817927D01*
X167508183Y-134762071D01*
X167380852Y-134649266D01*
X167380849Y-134649263D01*
X167230226Y-134570210D01*
X167065056Y-134529500D01*
X166894944Y-134529500D01*
X166729773Y-134570210D01*
X166579150Y-134649263D01*
X166451816Y-134762072D01*
X166355182Y-134902068D01*
X166294860Y-135061125D01*
X166294859Y-135061130D01*
X166274355Y-135230000D01*
X166294859Y-135398869D01*
X166294860Y-135398874D01*
X166355182Y-135557931D01*
X166397134Y-135618708D01*
X166419017Y-135685062D01*
X166401552Y-135752714D01*
X166350284Y-135800184D01*
X166324759Y-135809545D01*
X166159773Y-135850210D01*
X166009150Y-135929263D01*
X165881816Y-136042072D01*
X165785182Y-136182068D01*
X165724860Y-136341125D01*
X165724859Y-136341130D01*
X165704355Y-136510000D01*
X165724859Y-136678869D01*
X165724860Y-136678874D01*
X165785182Y-136837931D01*
X165847475Y-136928177D01*
X165881817Y-136977929D01*
X166009148Y-137090734D01*
X166009149Y-137090734D01*
X166014762Y-137095707D01*
X166013587Y-137097032D01*
X166051628Y-137143980D01*
X166059283Y-137213429D01*
X166028176Y-137275992D01*
X166004641Y-137294018D01*
X166005322Y-137295004D01*
X165999152Y-137299262D01*
X165871816Y-137412072D01*
X165775182Y-137552068D01*
X165714860Y-137711125D01*
X165714859Y-137711130D01*
X165694355Y-137880000D01*
X155635920Y-137880000D01*
X155640140Y-137868872D01*
X155660645Y-137700000D01*
X155640140Y-137531128D01*
X155579818Y-137372070D01*
X155483183Y-137232071D01*
X155355852Y-137119266D01*
X155355849Y-137119263D01*
X155205226Y-137040210D01*
X155040056Y-136999500D01*
X154869944Y-136999500D01*
X154704773Y-137040210D01*
X154554150Y-137119263D01*
X154426816Y-137232072D01*
X154330182Y-137372068D01*
X154269860Y-137531125D01*
X154269859Y-137531130D01*
X154249355Y-137700000D01*
X150200500Y-137700000D01*
X150200500Y-136360000D01*
X157674355Y-136360000D01*
X157694859Y-136528869D01*
X157694860Y-136528874D01*
X157755182Y-136687931D01*
X157817475Y-136778177D01*
X157851817Y-136827929D01*
X157957505Y-136921560D01*
X157979150Y-136940736D01*
X158091116Y-136999500D01*
X158129775Y-137019790D01*
X158294944Y-137060500D01*
X158465056Y-137060500D01*
X158630225Y-137019790D01*
X158709987Y-136977927D01*
X158780849Y-136940736D01*
X158780850Y-136940734D01*
X158780852Y-136940734D01*
X158908183Y-136827929D01*
X159004818Y-136687930D01*
X159065140Y-136528872D01*
X159085645Y-136360000D01*
X159065140Y-136191128D01*
X159004818Y-136032070D01*
X158981253Y-135997931D01*
X158961193Y-135968869D01*
X158908183Y-135892071D01*
X158780852Y-135779266D01*
X158780849Y-135779263D01*
X158630226Y-135700210D01*
X158465056Y-135659500D01*
X158294944Y-135659500D01*
X158129773Y-135700210D01*
X157979150Y-135779263D01*
X157851816Y-135892072D01*
X157755182Y-136032068D01*
X157694860Y-136191125D01*
X157694859Y-136191130D01*
X157674355Y-136360000D01*
X150200500Y-136360000D01*
X150200500Y-134350000D01*
X155269355Y-134350000D01*
X155289859Y-134518869D01*
X155289860Y-134518874D01*
X155350182Y-134677931D01*
X155385615Y-134729263D01*
X155446817Y-134817929D01*
X155509639Y-134873584D01*
X155574150Y-134930736D01*
X155724773Y-135009789D01*
X155724775Y-135009790D01*
X155889944Y-135050500D01*
X156060056Y-135050500D01*
X156225225Y-135009790D01*
X156304692Y-134968081D01*
X156375849Y-134930736D01*
X156375850Y-134930734D01*
X156375852Y-134930734D01*
X156503183Y-134817929D01*
X156599818Y-134677930D01*
X156660140Y-134518872D01*
X156680645Y-134350000D01*
X156675788Y-134310000D01*
X162934355Y-134310000D01*
X162954859Y-134478869D01*
X162954860Y-134478874D01*
X163015182Y-134637931D01*
X163077475Y-134728177D01*
X163111817Y-134777929D01*
X163239148Y-134890734D01*
X163302443Y-134923954D01*
X163352655Y-134972538D01*
X163368630Y-135040557D01*
X163345295Y-135106415D01*
X163327045Y-135126565D01*
X163241816Y-135202071D01*
X163145182Y-135342068D01*
X163084860Y-135501125D01*
X163084859Y-135501130D01*
X163064355Y-135670000D01*
X163084859Y-135838869D01*
X163084860Y-135838874D01*
X163145182Y-135997931D01*
X163175651Y-136042072D01*
X163241817Y-136137929D01*
X163301869Y-136191130D01*
X163369150Y-136250736D01*
X163519773Y-136329789D01*
X163519775Y-136329790D01*
X163684944Y-136370500D01*
X163855056Y-136370500D01*
X164020225Y-136329790D01*
X164138094Y-136267927D01*
X164170849Y-136250736D01*
X164170850Y-136250734D01*
X164170852Y-136250734D01*
X164298183Y-136137929D01*
X164394818Y-135997930D01*
X164455140Y-135838872D01*
X164475645Y-135670000D01*
X164455140Y-135501128D01*
X164394818Y-135342070D01*
X164298183Y-135202071D01*
X164170852Y-135089266D01*
X164170850Y-135089265D01*
X164170849Y-135089264D01*
X164107556Y-135056045D01*
X164057344Y-135007461D01*
X164041369Y-134939442D01*
X164064704Y-134873584D01*
X164082949Y-134853438D01*
X164168183Y-134777929D01*
X164264818Y-134637930D01*
X164325140Y-134478872D01*
X164345645Y-134310000D01*
X164325140Y-134141128D01*
X164321867Y-134132499D01*
X182182039Y-134132499D01*
X182182039Y-134132500D01*
X182201811Y-134295342D01*
X182201812Y-134295345D01*
X182259983Y-134448728D01*
X182308398Y-134518869D01*
X182353168Y-134583729D01*
X182353170Y-134583731D01*
X182353172Y-134583733D01*
X182475951Y-134692506D01*
X182475952Y-134692506D01*
X182475954Y-134692508D01*
X182621205Y-134768742D01*
X182621207Y-134768742D01*
X182621208Y-134768743D01*
X182780478Y-134808000D01*
X182780479Y-134808000D01*
X182944522Y-134808000D01*
X183103791Y-134768743D01*
X183103791Y-134768742D01*
X183103795Y-134768742D01*
X183249046Y-134692508D01*
X183371832Y-134583729D01*
X183465018Y-134448726D01*
X183523188Y-134295345D01*
X183542961Y-134132500D01*
X183523188Y-133969655D01*
X183465018Y-133816274D01*
X183371832Y-133681271D01*
X183371829Y-133681268D01*
X183371827Y-133681266D01*
X183249048Y-133572493D01*
X183103791Y-133496256D01*
X182944522Y-133457000D01*
X182944521Y-133457000D01*
X182780479Y-133457000D01*
X182780478Y-133457000D01*
X182621208Y-133496256D01*
X182475951Y-133572493D01*
X182353172Y-133681266D01*
X182353166Y-133681273D01*
X182259983Y-133816271D01*
X182201812Y-133969654D01*
X182201811Y-133969657D01*
X182182039Y-134132499D01*
X164321867Y-134132499D01*
X164264817Y-133982068D01*
X164195793Y-133882071D01*
X164168183Y-133842071D01*
X164040852Y-133729266D01*
X164040849Y-133729263D01*
X163890226Y-133650210D01*
X163725056Y-133609500D01*
X163554944Y-133609500D01*
X163389773Y-133650210D01*
X163239150Y-133729263D01*
X163111816Y-133842072D01*
X163015182Y-133982068D01*
X162954860Y-134141125D01*
X162954859Y-134141130D01*
X162934355Y-134310000D01*
X156675788Y-134310000D01*
X156660140Y-134181128D01*
X156599818Y-134022070D01*
X156598244Y-134019790D01*
X156543675Y-133940734D01*
X156503183Y-133882071D01*
X156375852Y-133769266D01*
X156375849Y-133769263D01*
X156225226Y-133690210D01*
X156060056Y-133649500D01*
X155889944Y-133649500D01*
X155724773Y-133690210D01*
X155574150Y-133769263D01*
X155446816Y-133882072D01*
X155350182Y-134022068D01*
X155289860Y-134181125D01*
X155289859Y-134181130D01*
X155269355Y-134350000D01*
X150200500Y-134350000D01*
X150200500Y-133360000D01*
X158914355Y-133360000D01*
X158934859Y-133528869D01*
X158934860Y-133528874D01*
X158995182Y-133687931D01*
X159051325Y-133769266D01*
X159091817Y-133827929D01*
X159197505Y-133921560D01*
X159219150Y-133940736D01*
X159369773Y-134019789D01*
X159369775Y-134019790D01*
X159534944Y-134060500D01*
X159705056Y-134060500D01*
X159870225Y-134019790D01*
X159949692Y-133978081D01*
X160020849Y-133940736D01*
X160020850Y-133940734D01*
X160020852Y-133940734D01*
X160148183Y-133827929D01*
X160244818Y-133687930D01*
X160305140Y-133528872D01*
X160325645Y-133360000D01*
X160305140Y-133191128D01*
X160244818Y-133032070D01*
X160148183Y-132892071D01*
X160020852Y-132779266D01*
X160020849Y-132779263D01*
X159870226Y-132700210D01*
X159705056Y-132659500D01*
X159534944Y-132659500D01*
X159369773Y-132700210D01*
X159219150Y-132779263D01*
X159091816Y-132892072D01*
X158995182Y-133032068D01*
X158934860Y-133191125D01*
X158934859Y-133191130D01*
X158914355Y-133360000D01*
X150200500Y-133360000D01*
X150200500Y-131210000D01*
X163824355Y-131210000D01*
X163844859Y-131378869D01*
X163844860Y-131378874D01*
X163905182Y-131537931D01*
X163967475Y-131628177D01*
X164001817Y-131677929D01*
X164107505Y-131771560D01*
X164129150Y-131790736D01*
X164279773Y-131869789D01*
X164279775Y-131869790D01*
X164444944Y-131910500D01*
X164615056Y-131910500D01*
X164780225Y-131869790D01*
X164859692Y-131828081D01*
X164930849Y-131790736D01*
X164930850Y-131790734D01*
X164930852Y-131790734D01*
X165058183Y-131677929D01*
X165154818Y-131537930D01*
X165215140Y-131378872D01*
X165235645Y-131210000D01*
X165215140Y-131041128D01*
X165154818Y-130882070D01*
X165117164Y-130827519D01*
X165095282Y-130761167D01*
X165112747Y-130693516D01*
X165164014Y-130646045D01*
X165232808Y-130633828D01*
X165248888Y-130636683D01*
X165304944Y-130650500D01*
X165475056Y-130650500D01*
X165640225Y-130609790D01*
X165790852Y-130530734D01*
X165857610Y-130471592D01*
X165920843Y-130441870D01*
X165990106Y-130451054D01*
X166043410Y-130496226D01*
X166063830Y-130563045D01*
X166062933Y-130579353D01*
X166054355Y-130649999D01*
X166074859Y-130818869D01*
X166074860Y-130818874D01*
X166135182Y-130977931D01*
X166178805Y-131041128D01*
X166231817Y-131117929D01*
X166335744Y-131210000D01*
X166359150Y-131230736D01*
X166509773Y-131309789D01*
X166509775Y-131309790D01*
X166674944Y-131350500D01*
X166845056Y-131350500D01*
X167010225Y-131309790D01*
X167089692Y-131268081D01*
X167160849Y-131230736D01*
X167160850Y-131230734D01*
X167160852Y-131230734D01*
X167288183Y-131117929D01*
X167384818Y-130977930D01*
X167445140Y-130818872D01*
X167465645Y-130650000D01*
X167445140Y-130481128D01*
X167384818Y-130322070D01*
X167288183Y-130182071D01*
X167160852Y-130069266D01*
X167160849Y-130069263D01*
X167010226Y-129990210D01*
X166845056Y-129949500D01*
X166674944Y-129949500D01*
X166509773Y-129990210D01*
X166359150Y-130069263D01*
X166292388Y-130128409D01*
X166229154Y-130158129D01*
X166159891Y-130148945D01*
X166106588Y-130103772D01*
X166086169Y-130036952D01*
X166087065Y-130020661D01*
X166095645Y-129950000D01*
X166075140Y-129781128D01*
X166063056Y-129749266D01*
X166014817Y-129622068D01*
X165980476Y-129572318D01*
X165918183Y-129482071D01*
X165790852Y-129369266D01*
X165790849Y-129369263D01*
X165640226Y-129290210D01*
X165475056Y-129249500D01*
X165304944Y-129249500D01*
X165139773Y-129290210D01*
X164989150Y-129369263D01*
X164861816Y-129482072D01*
X164765182Y-129622068D01*
X164704860Y-129781125D01*
X164704859Y-129781130D01*
X164684355Y-129950000D01*
X164704859Y-130118869D01*
X164704860Y-130118874D01*
X164765182Y-130277931D01*
X164802834Y-130332478D01*
X164824717Y-130398832D01*
X164807252Y-130466484D01*
X164755984Y-130513954D01*
X164687191Y-130526171D01*
X164671111Y-130523315D01*
X164615059Y-130509500D01*
X164615056Y-130509500D01*
X164444944Y-130509500D01*
X164279773Y-130550210D01*
X164129150Y-130629263D01*
X164001816Y-130742072D01*
X163905182Y-130882068D01*
X163844860Y-131041125D01*
X163844859Y-131041130D01*
X163824355Y-131210000D01*
X150200500Y-131210000D01*
X150200500Y-130330000D01*
X155299355Y-130330000D01*
X155319859Y-130498869D01*
X155319860Y-130498874D01*
X155380182Y-130657931D01*
X155404745Y-130693516D01*
X155476817Y-130797929D01*
X155571791Y-130882068D01*
X155604150Y-130910736D01*
X155754773Y-130989789D01*
X155754775Y-130989790D01*
X155919944Y-131030500D01*
X156090056Y-131030500D01*
X156255225Y-130989790D01*
X156334692Y-130948081D01*
X156405849Y-130910736D01*
X156405850Y-130910734D01*
X156405852Y-130910734D01*
X156533183Y-130797929D01*
X156629818Y-130657930D01*
X156690140Y-130498872D01*
X156710645Y-130330000D01*
X156690140Y-130161128D01*
X156677731Y-130128409D01*
X156629817Y-130002068D01*
X156593531Y-129949500D01*
X156533183Y-129862071D01*
X156405852Y-129749266D01*
X156405849Y-129749263D01*
X156255226Y-129670210D01*
X156090056Y-129629500D01*
X155919944Y-129629500D01*
X155754773Y-129670210D01*
X155604150Y-129749263D01*
X155476816Y-129862072D01*
X155380182Y-130002068D01*
X155319860Y-130161125D01*
X155319859Y-130161130D01*
X155299355Y-130330000D01*
X150200500Y-130330000D01*
X150200500Y-126760000D01*
X154499355Y-126760000D01*
X154519859Y-126928869D01*
X154519860Y-126928874D01*
X154580182Y-127087931D01*
X154625598Y-127153726D01*
X154676817Y-127227929D01*
X154782505Y-127321560D01*
X154804150Y-127340736D01*
X154954773Y-127419789D01*
X154954775Y-127419790D01*
X155119944Y-127460500D01*
X155290056Y-127460500D01*
X155455225Y-127419790D01*
X155534848Y-127378000D01*
X155605849Y-127340736D01*
X155605850Y-127340734D01*
X155605852Y-127340734D01*
X155733183Y-127227929D01*
X155829818Y-127087930D01*
X155890140Y-126928872D01*
X155910645Y-126760000D01*
X155890140Y-126591128D01*
X155829818Y-126432070D01*
X155828790Y-126430581D01*
X155771687Y-126347853D01*
X155733183Y-126292071D01*
X155638316Y-126208026D01*
X155605849Y-126179263D01*
X155455226Y-126100210D01*
X155290056Y-126059500D01*
X155119944Y-126059500D01*
X154954773Y-126100210D01*
X154804150Y-126179263D01*
X154676816Y-126292072D01*
X154580182Y-126432068D01*
X154519860Y-126591125D01*
X154519859Y-126591130D01*
X154499355Y-126760000D01*
X150200500Y-126760000D01*
X150200500Y-124760000D01*
X159214355Y-124760000D01*
X159234859Y-124928869D01*
X159234860Y-124928874D01*
X159295182Y-125087931D01*
X159335421Y-125146226D01*
X159391817Y-125227929D01*
X159491745Y-125316457D01*
X159519150Y-125340736D01*
X159669773Y-125419789D01*
X159669775Y-125419790D01*
X159834944Y-125460500D01*
X160005056Y-125460500D01*
X160170225Y-125419790D01*
X160249692Y-125378081D01*
X160320849Y-125340736D01*
X160320850Y-125340734D01*
X160320852Y-125340734D01*
X160448183Y-125227929D01*
X160544818Y-125087930D01*
X160605140Y-124928872D01*
X160625645Y-124760000D01*
X160605140Y-124591128D01*
X160604714Y-124590006D01*
X160544817Y-124432068D01*
X160508025Y-124378766D01*
X160448183Y-124292071D01*
X160320852Y-124179266D01*
X160320849Y-124179263D01*
X160170226Y-124100210D01*
X160005056Y-124059500D01*
X159834944Y-124059500D01*
X159669773Y-124100210D01*
X159519150Y-124179263D01*
X159391816Y-124292072D01*
X159295182Y-124432068D01*
X159234860Y-124591125D01*
X159234859Y-124591130D01*
X159214355Y-124760000D01*
X150200500Y-124760000D01*
X150200500Y-123630000D01*
X160764355Y-123630000D01*
X160784859Y-123798869D01*
X160784860Y-123798874D01*
X160845182Y-123957931D01*
X160894928Y-124029999D01*
X160941817Y-124097929D01*
X161069148Y-124210734D01*
X161219775Y-124289790D01*
X161266869Y-124301397D01*
X161324877Y-124334113D01*
X161361284Y-124370520D01*
X161361286Y-124370521D01*
X161361290Y-124370524D01*
X161498209Y-124449573D01*
X161498216Y-124449577D01*
X161650943Y-124490501D01*
X161650945Y-124490501D01*
X161816654Y-124490501D01*
X161816670Y-124490500D01*
X164907010Y-124490500D01*
X164974049Y-124510185D01*
X164994691Y-124526819D01*
X165003779Y-124535907D01*
X165037264Y-124597230D01*
X165032280Y-124666922D01*
X164990408Y-124722855D01*
X164973725Y-124733384D01*
X164829149Y-124809265D01*
X164701816Y-124922072D01*
X164605182Y-125062068D01*
X164605182Y-125062069D01*
X164542200Y-125228141D01*
X164539399Y-125227078D01*
X164511159Y-125275567D01*
X164448935Y-125307347D01*
X164425930Y-125309500D01*
X164334944Y-125309500D01*
X164169773Y-125350210D01*
X164019150Y-125429263D01*
X163891816Y-125542072D01*
X163795182Y-125682068D01*
X163734860Y-125841125D01*
X163734859Y-125841130D01*
X163714355Y-126010000D01*
X163727030Y-126114391D01*
X163715569Y-126183314D01*
X163668665Y-126235100D01*
X163601210Y-126253307D01*
X163534619Y-126232154D01*
X163516253Y-126217018D01*
X163356880Y-126057645D01*
X163328619Y-126013934D01*
X163304550Y-125950469D01*
X163274818Y-125872070D01*
X163252826Y-125840210D01*
X163224726Y-125799500D01*
X163178183Y-125732071D01*
X163083316Y-125648026D01*
X163050849Y-125619263D01*
X162900226Y-125540210D01*
X162735056Y-125499500D01*
X162564944Y-125499500D01*
X162399773Y-125540210D01*
X162249150Y-125619263D01*
X162121816Y-125732072D01*
X162025182Y-125872068D01*
X161964860Y-126031125D01*
X161964859Y-126031130D01*
X161944355Y-126200000D01*
X161964859Y-126368869D01*
X161964860Y-126368874D01*
X162025182Y-126527931D01*
X162068805Y-126591128D01*
X162121817Y-126667929D01*
X162249148Y-126780734D01*
X162399775Y-126859790D01*
X162446871Y-126871397D01*
X162504878Y-126904113D01*
X163055139Y-127454374D01*
X163055149Y-127454385D01*
X163059479Y-127458715D01*
X163059480Y-127458716D01*
X163171284Y-127570520D01*
X163171286Y-127570521D01*
X163171290Y-127570524D01*
X163241790Y-127611227D01*
X163241794Y-127611228D01*
X163241795Y-127611229D01*
X163275005Y-127630403D01*
X163308212Y-127649576D01*
X163308214Y-127649576D01*
X163308215Y-127649577D01*
X163460943Y-127690500D01*
X163779228Y-127690500D01*
X163846267Y-127710185D01*
X163892022Y-127762989D01*
X163901966Y-127832147D01*
X163895170Y-127858471D01*
X163844860Y-127991125D01*
X163844859Y-127991130D01*
X163824355Y-128160000D01*
X163844859Y-128328869D01*
X163844860Y-128328874D01*
X163905182Y-128487931D01*
X163967475Y-128578177D01*
X164001817Y-128627929D01*
X164107505Y-128721560D01*
X164129150Y-128740736D01*
X164279773Y-128819789D01*
X164279775Y-128819790D01*
X164444944Y-128860500D01*
X164615056Y-128860500D01*
X164780225Y-128819790D01*
X164859692Y-128778081D01*
X164930849Y-128740736D01*
X164930850Y-128740734D01*
X164930852Y-128740734D01*
X165058183Y-128627929D01*
X165154818Y-128487930D01*
X165215140Y-128328872D01*
X165235645Y-128160000D01*
X165215140Y-127991128D01*
X165164829Y-127858469D01*
X165159463Y-127788808D01*
X165192611Y-127727302D01*
X165253749Y-127693480D01*
X165280772Y-127690500D01*
X171443331Y-127690500D01*
X171443347Y-127690501D01*
X171450943Y-127690501D01*
X171609054Y-127690501D01*
X171609057Y-127690501D01*
X171761785Y-127649577D01*
X171828205Y-127611229D01*
X171828209Y-127611227D01*
X171898709Y-127570524D01*
X171898708Y-127570524D01*
X171898716Y-127570520D01*
X172010520Y-127458716D01*
X172010520Y-127458714D01*
X172020724Y-127448511D01*
X172020728Y-127448506D01*
X172265122Y-127204111D01*
X172323124Y-127171398D01*
X172369377Y-127159999D01*
X175699539Y-127159999D01*
X175699539Y-127160000D01*
X175719311Y-127322842D01*
X175719312Y-127322845D01*
X175770841Y-127458716D01*
X175777483Y-127476228D01*
X175870666Y-127611226D01*
X175870669Y-127611230D01*
X175993451Y-127720006D01*
X175993452Y-127720006D01*
X175993454Y-127720008D01*
X176138705Y-127796242D01*
X176138707Y-127796242D01*
X176138708Y-127796243D01*
X176297978Y-127835500D01*
X176297979Y-127835500D01*
X176462022Y-127835500D01*
X176621291Y-127796243D01*
X176621291Y-127796242D01*
X176621295Y-127796242D01*
X176766546Y-127720008D01*
X176889332Y-127611229D01*
X176982518Y-127476226D01*
X177040688Y-127322845D01*
X177060461Y-127160000D01*
X177040688Y-126997155D01*
X176982518Y-126843774D01*
X176889332Y-126708771D01*
X176889329Y-126708768D01*
X176889327Y-126708766D01*
X176882253Y-126702499D01*
X182162039Y-126702499D01*
X182162039Y-126702500D01*
X182181811Y-126865342D01*
X182181812Y-126865345D01*
X182239982Y-127018726D01*
X182333168Y-127153729D01*
X182333170Y-127153731D01*
X182333172Y-127153733D01*
X182455951Y-127262506D01*
X182455952Y-127262506D01*
X182455954Y-127262508D01*
X182601205Y-127338742D01*
X182601207Y-127338742D01*
X182601208Y-127338743D01*
X182760478Y-127378000D01*
X182760479Y-127378000D01*
X182924522Y-127378000D01*
X183083791Y-127338743D01*
X183083791Y-127338742D01*
X183083795Y-127338742D01*
X183229046Y-127262508D01*
X183351832Y-127153729D01*
X183445018Y-127018726D01*
X183503188Y-126865345D01*
X183522961Y-126702500D01*
X183503188Y-126539655D01*
X183445018Y-126386274D01*
X183351832Y-126251271D01*
X183351829Y-126251268D01*
X183351827Y-126251266D01*
X183229048Y-126142493D01*
X183148485Y-126100210D01*
X183083795Y-126066258D01*
X183083794Y-126066257D01*
X183083791Y-126066256D01*
X182924522Y-126027000D01*
X182924521Y-126027000D01*
X182760479Y-126027000D01*
X182760478Y-126027000D01*
X182601208Y-126066256D01*
X182455951Y-126142493D01*
X182333172Y-126251266D01*
X182333166Y-126251273D01*
X182239983Y-126386271D01*
X182181812Y-126539654D01*
X182181811Y-126539657D01*
X182162039Y-126702499D01*
X176882253Y-126702499D01*
X176766548Y-126599993D01*
X176621291Y-126523756D01*
X176462022Y-126484500D01*
X176462021Y-126484500D01*
X176297979Y-126484500D01*
X176297978Y-126484500D01*
X176138708Y-126523756D01*
X175993451Y-126599993D01*
X175870672Y-126708766D01*
X175870666Y-126708773D01*
X175777483Y-126843771D01*
X175719312Y-126997154D01*
X175719311Y-126997157D01*
X175699539Y-127159999D01*
X172369377Y-127159999D01*
X172370225Y-127159790D01*
X172520852Y-127080734D01*
X172648183Y-126967929D01*
X172744818Y-126827930D01*
X172805140Y-126668872D01*
X172825645Y-126500000D01*
X172805140Y-126331128D01*
X172804909Y-126330520D01*
X172768722Y-126235100D01*
X172744818Y-126172070D01*
X172730091Y-126150735D01*
X172683711Y-126083542D01*
X172648183Y-126032071D01*
X172520852Y-125919266D01*
X172520849Y-125919263D01*
X172370226Y-125840210D01*
X172205056Y-125799500D01*
X172034944Y-125799500D01*
X171869773Y-125840210D01*
X171719150Y-125919263D01*
X171602638Y-126022484D01*
X171592882Y-126031128D01*
X171591816Y-126032072D01*
X171495182Y-126172068D01*
X171495182Y-126172069D01*
X171441381Y-126313932D01*
X171413121Y-126357641D01*
X171317584Y-126453180D01*
X171256261Y-126486666D01*
X171229902Y-126489500D01*
X171208849Y-126489500D01*
X171141810Y-126469815D01*
X171096055Y-126417011D01*
X171086111Y-126347853D01*
X171102774Y-126305331D01*
X171101331Y-126304574D01*
X171104817Y-126297931D01*
X171104816Y-126297931D01*
X171104818Y-126297930D01*
X171165140Y-126138872D01*
X171185645Y-125970000D01*
X171165140Y-125801128D01*
X171104818Y-125642070D01*
X171089077Y-125619266D01*
X171035793Y-125542071D01*
X171008183Y-125502071D01*
X170881690Y-125390008D01*
X170880849Y-125389263D01*
X170730226Y-125310210D01*
X170683126Y-125298601D01*
X170625120Y-125265885D01*
X170189234Y-124829999D01*
X183859539Y-124829999D01*
X183859539Y-124830000D01*
X183879311Y-124992842D01*
X183879312Y-124992845D01*
X183937483Y-125146228D01*
X183994024Y-125228141D01*
X184030668Y-125281229D01*
X184030670Y-125281231D01*
X184030672Y-125281233D01*
X184153451Y-125390006D01*
X184153452Y-125390006D01*
X184153454Y-125390008D01*
X184298705Y-125466242D01*
X184298707Y-125466242D01*
X184298708Y-125466243D01*
X184457978Y-125505500D01*
X184457979Y-125505500D01*
X184622022Y-125505500D01*
X184781291Y-125466243D01*
X184781291Y-125466242D01*
X184781295Y-125466242D01*
X184926546Y-125390008D01*
X185049332Y-125281229D01*
X185142518Y-125146226D01*
X185200688Y-124992845D01*
X185220461Y-124830000D01*
X185217943Y-124809266D01*
X185200688Y-124667157D01*
X185200688Y-124667155D01*
X185142518Y-124513774D01*
X185049332Y-124378771D01*
X185049329Y-124378768D01*
X185049327Y-124378766D01*
X184926548Y-124269993D01*
X184781291Y-124193756D01*
X184622022Y-124154500D01*
X184622021Y-124154500D01*
X184457979Y-124154500D01*
X184457978Y-124154500D01*
X184298708Y-124193756D01*
X184153451Y-124269993D01*
X184030672Y-124378766D01*
X184030666Y-124378773D01*
X183937483Y-124513771D01*
X183879312Y-124667154D01*
X183879311Y-124667157D01*
X183859539Y-124829999D01*
X170189234Y-124829999D01*
X170146819Y-124787584D01*
X170113334Y-124726261D01*
X170110500Y-124699903D01*
X170110500Y-124029999D01*
X173799539Y-124029999D01*
X173799539Y-124030000D01*
X173819311Y-124192842D01*
X173819312Y-124192845D01*
X173877483Y-124346228D01*
X173936736Y-124432070D01*
X173970668Y-124481229D01*
X173970670Y-124481231D01*
X173970672Y-124481233D01*
X174093451Y-124590006D01*
X174093452Y-124590006D01*
X174093454Y-124590008D01*
X174238705Y-124666242D01*
X174238707Y-124666242D01*
X174238708Y-124666243D01*
X174397978Y-124705500D01*
X174397979Y-124705500D01*
X174562022Y-124705500D01*
X174721291Y-124666243D01*
X174721291Y-124666242D01*
X174721295Y-124666242D01*
X174866546Y-124590008D01*
X174989332Y-124481229D01*
X175082518Y-124346226D01*
X175140688Y-124192845D01*
X175160461Y-124030000D01*
X175140688Y-123867155D01*
X175082518Y-123713774D01*
X174989332Y-123578771D01*
X174989329Y-123578768D01*
X174989327Y-123578766D01*
X174866548Y-123469993D01*
X174802241Y-123436242D01*
X174721295Y-123393758D01*
X174721294Y-123393757D01*
X174721291Y-123393756D01*
X174562022Y-123354500D01*
X174562021Y-123354500D01*
X174397979Y-123354500D01*
X174397978Y-123354500D01*
X174238708Y-123393756D01*
X174093451Y-123469993D01*
X173970672Y-123578766D01*
X173970666Y-123578773D01*
X173877483Y-123713771D01*
X173819312Y-123867154D01*
X173819311Y-123867157D01*
X173799539Y-124029999D01*
X170110500Y-124029999D01*
X170110500Y-122799999D01*
X178609539Y-122799999D01*
X178609539Y-122800000D01*
X178629311Y-122962842D01*
X178629312Y-122962845D01*
X178687483Y-123116228D01*
X178742702Y-123196226D01*
X178780668Y-123251229D01*
X178780670Y-123251231D01*
X178780672Y-123251233D01*
X178903451Y-123360006D01*
X178903452Y-123360006D01*
X178903454Y-123360008D01*
X179048705Y-123436242D01*
X179048707Y-123436242D01*
X179048708Y-123436243D01*
X179207978Y-123475500D01*
X179207979Y-123475500D01*
X179372022Y-123475500D01*
X179531291Y-123436243D01*
X179531291Y-123436242D01*
X179531295Y-123436242D01*
X179676546Y-123360008D01*
X179799332Y-123251229D01*
X179892518Y-123116226D01*
X179950688Y-122962845D01*
X179970461Y-122800000D01*
X179960747Y-122719999D01*
X181179539Y-122719999D01*
X181179539Y-122720000D01*
X181199311Y-122882842D01*
X181199312Y-122882845D01*
X181219281Y-122935500D01*
X181257483Y-123036228D01*
X181268418Y-123052070D01*
X181350668Y-123171229D01*
X181350670Y-123171231D01*
X181350672Y-123171233D01*
X181473451Y-123280006D01*
X181473452Y-123280006D01*
X181473454Y-123280008D01*
X181618705Y-123356242D01*
X181618707Y-123356242D01*
X181618708Y-123356243D01*
X181777978Y-123395500D01*
X181777979Y-123395500D01*
X181942022Y-123395500D01*
X182101291Y-123356243D01*
X182101291Y-123356242D01*
X182101295Y-123356242D01*
X182246546Y-123280008D01*
X182369332Y-123171229D01*
X182462518Y-123036226D01*
X182520688Y-122882845D01*
X182540461Y-122720000D01*
X182540115Y-122717154D01*
X182523004Y-122576228D01*
X182520688Y-122557155D01*
X182462518Y-122403774D01*
X182369332Y-122268771D01*
X182369329Y-122268768D01*
X182369327Y-122268766D01*
X182359431Y-122259999D01*
X186039539Y-122259999D01*
X186039539Y-122260000D01*
X186059311Y-122422842D01*
X186059312Y-122422845D01*
X186112758Y-122563771D01*
X186117483Y-122576228D01*
X186159538Y-122637155D01*
X186210668Y-122711229D01*
X186210670Y-122711231D01*
X186210672Y-122711233D01*
X186333451Y-122820006D01*
X186333452Y-122820006D01*
X186333454Y-122820008D01*
X186478705Y-122896242D01*
X186478707Y-122896242D01*
X186478708Y-122896243D01*
X186637978Y-122935500D01*
X186637979Y-122935500D01*
X186802022Y-122935500D01*
X186961291Y-122896243D01*
X186961291Y-122896242D01*
X186961295Y-122896242D01*
X187106546Y-122820008D01*
X187229332Y-122711229D01*
X187322518Y-122576226D01*
X187380688Y-122422845D01*
X187400461Y-122260000D01*
X187395578Y-122219789D01*
X187380688Y-122097157D01*
X187380688Y-122097155D01*
X187322518Y-121943774D01*
X187229332Y-121808771D01*
X187229329Y-121808768D01*
X187229327Y-121808766D01*
X187106548Y-121699993D01*
X186961291Y-121623756D01*
X186802022Y-121584500D01*
X186802021Y-121584500D01*
X186637979Y-121584500D01*
X186637978Y-121584500D01*
X186478708Y-121623756D01*
X186333451Y-121699993D01*
X186210672Y-121808766D01*
X186210666Y-121808773D01*
X186117483Y-121943771D01*
X186059312Y-122097154D01*
X186059311Y-122097157D01*
X186039539Y-122259999D01*
X182359431Y-122259999D01*
X182246548Y-122159993D01*
X182178922Y-122124500D01*
X182101295Y-122083758D01*
X182101294Y-122083757D01*
X182101291Y-122083756D01*
X181942022Y-122044500D01*
X181942021Y-122044500D01*
X181777979Y-122044500D01*
X181777978Y-122044500D01*
X181618708Y-122083756D01*
X181473451Y-122159993D01*
X181350672Y-122268766D01*
X181350666Y-122268773D01*
X181257483Y-122403771D01*
X181199312Y-122557154D01*
X181199311Y-122557157D01*
X181179539Y-122719999D01*
X179960747Y-122719999D01*
X179950688Y-122637155D01*
X179892518Y-122483774D01*
X179799332Y-122348771D01*
X179799329Y-122348768D01*
X179799327Y-122348766D01*
X179676548Y-122239993D01*
X179531291Y-122163756D01*
X179372022Y-122124500D01*
X179372021Y-122124500D01*
X179207979Y-122124500D01*
X179207978Y-122124500D01*
X179048708Y-122163756D01*
X178903451Y-122239993D01*
X178780672Y-122348766D01*
X178780666Y-122348773D01*
X178687483Y-122483771D01*
X178629312Y-122637154D01*
X178629311Y-122637157D01*
X178609539Y-122799999D01*
X170110500Y-122799999D01*
X170110500Y-120800707D01*
X170130185Y-120733668D01*
X170182989Y-120687913D01*
X170252147Y-120677969D01*
X170264166Y-120680308D01*
X170264944Y-120680500D01*
X170264947Y-120680500D01*
X170435056Y-120680500D01*
X170600225Y-120639790D01*
X170734602Y-120569263D01*
X170750849Y-120560736D01*
X170750850Y-120560734D01*
X170750852Y-120560734D01*
X170878183Y-120447929D01*
X170974818Y-120307930D01*
X171035140Y-120148872D01*
X171055645Y-119980000D01*
X171035140Y-119811128D01*
X170974818Y-119652070D01*
X170963380Y-119635500D01*
X170936282Y-119596242D01*
X170878183Y-119512071D01*
X170764360Y-119411233D01*
X170750849Y-119399263D01*
X170600226Y-119320210D01*
X170435056Y-119279500D01*
X170264944Y-119279500D01*
X170264939Y-119279500D01*
X170264166Y-119279691D01*
X170263581Y-119279665D01*
X170257497Y-119280404D01*
X170257374Y-119279391D01*
X170194364Y-119276617D01*
X170137305Y-119236293D01*
X170111105Y-119171522D01*
X170110500Y-119159292D01*
X170110500Y-118959999D01*
X175239539Y-118959999D01*
X175239539Y-118960000D01*
X175259311Y-119122842D01*
X175259312Y-119122845D01*
X175315037Y-119269780D01*
X175317483Y-119276228D01*
X175359740Y-119337447D01*
X175410668Y-119411229D01*
X175410670Y-119411231D01*
X175410672Y-119411233D01*
X175533451Y-119520006D01*
X175533452Y-119520006D01*
X175533454Y-119520008D01*
X175678705Y-119596242D01*
X175678707Y-119596242D01*
X175678708Y-119596243D01*
X175837978Y-119635500D01*
X175837979Y-119635500D01*
X176002022Y-119635500D01*
X176161291Y-119596243D01*
X176161291Y-119596242D01*
X176161295Y-119596242D01*
X176306546Y-119520008D01*
X176429332Y-119411229D01*
X176522518Y-119276226D01*
X176580688Y-119122845D01*
X176600461Y-118960000D01*
X176580688Y-118797155D01*
X176522518Y-118643774D01*
X176429332Y-118508771D01*
X176429329Y-118508768D01*
X176429327Y-118508766D01*
X176306548Y-118399993D01*
X176161291Y-118323756D01*
X176002022Y-118284500D01*
X176002021Y-118284500D01*
X175837979Y-118284500D01*
X175837978Y-118284500D01*
X175678708Y-118323756D01*
X175533451Y-118399993D01*
X175410672Y-118508766D01*
X175410666Y-118508773D01*
X175317483Y-118643771D01*
X175259312Y-118797154D01*
X175259311Y-118797157D01*
X175239539Y-118959999D01*
X170110500Y-118959999D01*
X170110500Y-117829060D01*
X170110501Y-117829047D01*
X170110501Y-117660944D01*
X170069576Y-117508214D01*
X170069573Y-117508209D01*
X169990524Y-117371290D01*
X169990518Y-117371282D01*
X168989232Y-116369996D01*
X184546935Y-116369996D01*
X184546935Y-116370003D01*
X184567130Y-116549249D01*
X184567131Y-116549254D01*
X184626711Y-116719523D01*
X184722684Y-116872262D01*
X184850238Y-116999816D01*
X184889847Y-117024704D01*
X184981497Y-117082292D01*
X185002978Y-117095789D01*
X185045020Y-117110500D01*
X185173245Y-117155368D01*
X185173250Y-117155369D01*
X185352496Y-117175565D01*
X185352500Y-117175565D01*
X185352504Y-117175565D01*
X185531749Y-117155369D01*
X185531752Y-117155368D01*
X185531755Y-117155368D01*
X185702022Y-117095789D01*
X185854762Y-116999816D01*
X185982316Y-116872262D01*
X186078289Y-116719522D01*
X186137868Y-116549255D01*
X186158065Y-116370000D01*
X186137868Y-116190745D01*
X186078289Y-116020478D01*
X185982316Y-115867738D01*
X185854762Y-115740184D01*
X185805929Y-115709500D01*
X185702023Y-115644211D01*
X185531754Y-115584631D01*
X185531749Y-115584630D01*
X185352504Y-115564435D01*
X185352496Y-115564435D01*
X185173250Y-115584630D01*
X185173245Y-115584631D01*
X185002976Y-115644211D01*
X184850237Y-115740184D01*
X184722684Y-115867737D01*
X184626711Y-116020476D01*
X184567131Y-116190745D01*
X184567130Y-116190750D01*
X184546935Y-116369996D01*
X168989232Y-116369996D01*
X167446880Y-114827645D01*
X167418619Y-114783934D01*
X167415151Y-114774790D01*
X167364818Y-114642070D01*
X167268183Y-114502071D01*
X167140852Y-114389266D01*
X167140849Y-114389263D01*
X166990226Y-114310210D01*
X166825056Y-114269500D01*
X166654944Y-114269500D01*
X166489773Y-114310210D01*
X166339150Y-114389263D01*
X166211816Y-114502072D01*
X166115182Y-114642068D01*
X166054860Y-114801125D01*
X166054859Y-114801130D01*
X166034355Y-114970000D01*
X166054859Y-115138869D01*
X166054860Y-115138874D01*
X166115182Y-115297931D01*
X166122640Y-115308735D01*
X166211817Y-115437929D01*
X166339148Y-115550734D01*
X166489775Y-115629790D01*
X166536871Y-115641397D01*
X166594878Y-115674113D01*
X168873181Y-117952416D01*
X168906666Y-118013739D01*
X168909500Y-118040097D01*
X168909500Y-118498721D01*
X168889815Y-118565760D01*
X168837011Y-118611515D01*
X168767853Y-118621459D01*
X168704297Y-118592434D01*
X168697819Y-118586402D01*
X166159772Y-116048355D01*
X166159770Y-116048352D01*
X166040899Y-115929481D01*
X166040891Y-115929475D01*
X165933958Y-115867738D01*
X165933957Y-115867737D01*
X165933957Y-115867738D01*
X165903967Y-115850423D01*
X165751239Y-115809499D01*
X165593125Y-115809499D01*
X165585529Y-115809499D01*
X165585513Y-115809500D01*
X165303754Y-115809500D01*
X165246128Y-115795296D01*
X165202459Y-115772376D01*
X165160224Y-115750209D01*
X164995056Y-115709500D01*
X164834500Y-115709500D01*
X164767461Y-115689815D01*
X164721706Y-115637011D01*
X164710500Y-115585500D01*
X164710500Y-115360096D01*
X164730185Y-115293057D01*
X164746815Y-115272419D01*
X165200122Y-114819111D01*
X165258124Y-114786398D01*
X165305225Y-114774790D01*
X165455852Y-114695734D01*
X165583183Y-114582929D01*
X165679818Y-114442930D01*
X165740140Y-114283872D01*
X165760645Y-114115000D01*
X165740140Y-113946128D01*
X165679818Y-113787070D01*
X165583183Y-113647071D01*
X165455852Y-113534266D01*
X165455849Y-113534263D01*
X165305226Y-113455210D01*
X165140056Y-113414500D01*
X164969944Y-113414500D01*
X164804774Y-113455209D01*
X164714449Y-113502616D01*
X164645941Y-113516340D01*
X164580888Y-113490848D01*
X164539944Y-113434232D01*
X164536109Y-113364467D01*
X164542262Y-113345371D01*
X164549061Y-113328957D01*
X164575800Y-113194530D01*
X164575800Y-113057470D01*
X164549061Y-112923043D01*
X164549059Y-112923038D01*
X164502236Y-112809996D01*
X177516935Y-112809996D01*
X177516935Y-112810003D01*
X177537130Y-112989249D01*
X177537131Y-112989254D01*
X177596711Y-113159523D01*
X177685293Y-113300500D01*
X177692684Y-113312262D01*
X177820238Y-113439816D01*
X177845344Y-113455591D01*
X177920183Y-113502616D01*
X177972978Y-113535789D01*
X178143245Y-113595368D01*
X178143250Y-113595369D01*
X178322496Y-113615565D01*
X178322500Y-113615565D01*
X178322504Y-113615565D01*
X178501749Y-113595369D01*
X178501752Y-113595368D01*
X178501755Y-113595368D01*
X178672022Y-113535789D01*
X178824762Y-113439816D01*
X178952316Y-113312262D01*
X179048289Y-113159522D01*
X179107868Y-112989255D01*
X179107869Y-112989249D01*
X179128065Y-112810003D01*
X179128065Y-112809996D01*
X179107869Y-112630750D01*
X179107868Y-112630745D01*
X179065404Y-112509390D01*
X179048289Y-112460478D01*
X179046065Y-112456939D01*
X178985454Y-112360477D01*
X178952316Y-112307738D01*
X178824762Y-112180184D01*
X178748191Y-112132071D01*
X178672023Y-112084211D01*
X178501754Y-112024631D01*
X178501749Y-112024630D01*
X178322504Y-112004435D01*
X178322496Y-112004435D01*
X178143250Y-112024630D01*
X178143245Y-112024631D01*
X177972976Y-112084211D01*
X177820237Y-112180184D01*
X177692684Y-112307737D01*
X177596711Y-112460476D01*
X177537131Y-112630745D01*
X177537130Y-112630750D01*
X177516935Y-112809996D01*
X164502236Y-112809996D01*
X164496613Y-112796421D01*
X164496606Y-112796408D01*
X164420463Y-112682453D01*
X164420460Y-112682449D01*
X164323550Y-112585539D01*
X164323546Y-112585536D01*
X164209591Y-112509393D01*
X164209578Y-112509386D01*
X164082961Y-112456940D01*
X164082949Y-112456937D01*
X163948534Y-112430200D01*
X163948530Y-112430200D01*
X163811470Y-112430200D01*
X163811465Y-112430200D01*
X163677050Y-112456937D01*
X163677038Y-112456940D01*
X163550421Y-112509386D01*
X163550408Y-112509393D01*
X163436453Y-112585536D01*
X163436449Y-112585539D01*
X163339539Y-112682449D01*
X163339536Y-112682453D01*
X163263393Y-112796408D01*
X163263386Y-112796421D01*
X163210940Y-112923038D01*
X163210937Y-112923050D01*
X163184200Y-113057465D01*
X163184200Y-113194534D01*
X163210937Y-113328949D01*
X163210940Y-113328961D01*
X163263386Y-113455578D01*
X163263393Y-113455591D01*
X163339536Y-113569546D01*
X163339539Y-113569550D01*
X163436449Y-113666460D01*
X163436453Y-113666463D01*
X163550408Y-113742606D01*
X163550421Y-113742613D01*
X163657746Y-113787068D01*
X163677043Y-113795061D01*
X163811465Y-113821799D01*
X163811469Y-113821800D01*
X163811470Y-113821800D01*
X163948531Y-113821800D01*
X163948532Y-113821799D01*
X164082957Y-113795061D01*
X164209585Y-113742610D01*
X164209590Y-113742606D01*
X164214960Y-113739737D01*
X164216197Y-113742053D01*
X164271967Y-113724554D01*
X164339358Y-113742999D01*
X164386079Y-113794950D01*
X164397296Y-113863913D01*
X164390196Y-113892504D01*
X164376380Y-113928934D01*
X164348119Y-113972644D01*
X163741286Y-114579478D01*
X163629481Y-114691282D01*
X163629477Y-114691287D01*
X163602386Y-114738213D01*
X163602385Y-114738215D01*
X163550423Y-114828215D01*
X163509499Y-114980943D01*
X163509499Y-114980945D01*
X163509499Y-115149046D01*
X163509500Y-115149059D01*
X163509500Y-118103940D01*
X163489815Y-118170979D01*
X163437011Y-118216734D01*
X163367853Y-118226678D01*
X163355825Y-118224337D01*
X163255056Y-118199500D01*
X163084944Y-118199500D01*
X162919773Y-118240210D01*
X162769150Y-118319263D01*
X162641816Y-118432072D01*
X162545182Y-118572068D01*
X162484860Y-118731125D01*
X162484859Y-118731130D01*
X162464355Y-118900000D01*
X162484859Y-119068869D01*
X162484860Y-119068874D01*
X162545182Y-119227931D01*
X162574069Y-119269780D01*
X162595952Y-119336134D01*
X162595115Y-119355166D01*
X162578554Y-119491557D01*
X162576762Y-119506319D01*
X162577461Y-119512072D01*
X162597266Y-119675188D01*
X162597268Y-119675196D01*
X162639422Y-119786347D01*
X162644789Y-119856010D01*
X162625531Y-119900756D01*
X162588099Y-119954986D01*
X162527777Y-120114042D01*
X162527776Y-120114047D01*
X162507272Y-120282917D01*
X162527776Y-120451786D01*
X162527777Y-120451791D01*
X162588099Y-120610848D01*
X162646708Y-120695757D01*
X162668591Y-120762112D01*
X162651126Y-120829763D01*
X162599858Y-120877233D01*
X162531064Y-120889450D01*
X162514984Y-120886594D01*
X162405057Y-120859500D01*
X162405056Y-120859500D01*
X162234944Y-120859500D01*
X162069773Y-120900210D01*
X161919150Y-120979263D01*
X161791816Y-121092072D01*
X161695182Y-121232068D01*
X161634860Y-121391125D01*
X161634859Y-121391130D01*
X161614355Y-121560000D01*
X161634859Y-121728869D01*
X161634860Y-121728874D01*
X161695182Y-121887931D01*
X161738533Y-121950734D01*
X161791817Y-122027929D01*
X161869960Y-122097157D01*
X161919150Y-122140736D01*
X162069773Y-122219789D01*
X162069775Y-122219790D01*
X162234944Y-122260500D01*
X162405056Y-122260500D01*
X162570225Y-122219790D01*
X162676988Y-122163756D01*
X162720849Y-122140736D01*
X162720850Y-122140734D01*
X162720852Y-122140734D01*
X162848183Y-122027929D01*
X162944818Y-121887930D01*
X163005140Y-121728872D01*
X163025645Y-121560000D01*
X163005140Y-121391128D01*
X162944818Y-121232070D01*
X162886208Y-121147159D01*
X162864325Y-121080805D01*
X162881790Y-121013153D01*
X162933058Y-120965683D01*
X163001851Y-120953466D01*
X163017925Y-120956320D01*
X163127861Y-120983417D01*
X163297973Y-120983417D01*
X163463142Y-120942707D01*
X163549043Y-120897621D01*
X163606669Y-120883418D01*
X163746137Y-120883418D01*
X163746140Y-120883418D01*
X163898868Y-120842494D01*
X163991061Y-120789266D01*
X164035799Y-120763437D01*
X164147603Y-120651633D01*
X164147603Y-120651631D01*
X164157807Y-120641428D01*
X164157811Y-120641423D01*
X164468506Y-120330728D01*
X164468511Y-120330724D01*
X164478714Y-120320520D01*
X164478716Y-120320520D01*
X164590520Y-120208716D01*
X164646358Y-120112001D01*
X164669577Y-120071785D01*
X164710500Y-119919058D01*
X164710500Y-119760943D01*
X164710500Y-117234500D01*
X164730185Y-117167461D01*
X164782989Y-117121706D01*
X164834500Y-117110500D01*
X164995056Y-117110500D01*
X165160225Y-117069790D01*
X165246128Y-117024703D01*
X165303754Y-117010500D01*
X165372085Y-117010500D01*
X165439124Y-117030185D01*
X165459766Y-117046819D01*
X167843181Y-119430234D01*
X167876666Y-119491557D01*
X167879500Y-119517915D01*
X167879500Y-124948199D01*
X167859815Y-125015238D01*
X167857551Y-125018638D01*
X167855182Y-125022069D01*
X167799281Y-125169471D01*
X167757103Y-125225174D01*
X167691506Y-125249231D01*
X167683339Y-125249500D01*
X167467205Y-125249500D01*
X167400166Y-125229815D01*
X167379524Y-125213181D01*
X165694697Y-123528355D01*
X165694695Y-123528352D01*
X165575824Y-123409481D01*
X165575823Y-123409480D01*
X165480594Y-123354500D01*
X165438892Y-123330423D01*
X165286164Y-123289499D01*
X165128050Y-123289499D01*
X165120454Y-123289499D01*
X165120438Y-123289500D01*
X164900454Y-123289500D01*
X164833415Y-123269815D01*
X164787660Y-123217011D01*
X164784512Y-123209471D01*
X164760785Y-123146910D01*
X164724818Y-123052070D01*
X164722880Y-123049263D01*
X164690476Y-123002318D01*
X164628183Y-122912071D01*
X164501681Y-122800000D01*
X164500849Y-122799263D01*
X164350226Y-122720210D01*
X164185056Y-122679500D01*
X164014944Y-122679500D01*
X163849773Y-122720210D01*
X163699150Y-122799263D01*
X163571816Y-122912072D01*
X163475182Y-123052068D01*
X163475182Y-123052069D01*
X163415488Y-123209471D01*
X163373310Y-123265174D01*
X163307713Y-123289231D01*
X163299546Y-123289500D01*
X162151221Y-123289500D01*
X162084182Y-123269815D01*
X162049171Y-123235940D01*
X162021758Y-123196226D01*
X161998183Y-123162071D01*
X161946437Y-123116228D01*
X161870849Y-123049263D01*
X161720226Y-122970210D01*
X161555056Y-122929500D01*
X161384944Y-122929500D01*
X161219773Y-122970210D01*
X161069150Y-123049263D01*
X160941816Y-123162072D01*
X160845182Y-123302068D01*
X160784860Y-123461125D01*
X160784859Y-123461130D01*
X160764355Y-123630000D01*
X150200500Y-123630000D01*
X150200500Y-122879999D01*
X159309539Y-122879999D01*
X159309539Y-122880000D01*
X159329311Y-123042842D01*
X159329312Y-123042845D01*
X159378003Y-123171233D01*
X159387483Y-123196228D01*
X159460540Y-123302068D01*
X159480668Y-123331229D01*
X159480670Y-123331231D01*
X159480672Y-123331233D01*
X159603451Y-123440006D01*
X159603452Y-123440006D01*
X159603454Y-123440008D01*
X159748705Y-123516242D01*
X159748707Y-123516242D01*
X159748708Y-123516243D01*
X159907978Y-123555500D01*
X159907979Y-123555500D01*
X160072022Y-123555500D01*
X160231291Y-123516243D01*
X160231291Y-123516242D01*
X160231295Y-123516242D01*
X160376546Y-123440008D01*
X160499332Y-123331229D01*
X160592518Y-123196226D01*
X160650688Y-123042845D01*
X160670461Y-122880000D01*
X160650688Y-122717155D01*
X160592518Y-122563774D01*
X160499332Y-122428771D01*
X160499329Y-122428768D01*
X160499327Y-122428766D01*
X160376548Y-122319993D01*
X160278953Y-122268771D01*
X160231295Y-122243758D01*
X160231294Y-122243757D01*
X160231291Y-122243756D01*
X160072022Y-122204500D01*
X160072021Y-122204500D01*
X159907979Y-122204500D01*
X159907978Y-122204500D01*
X159748708Y-122243756D01*
X159603451Y-122319993D01*
X159480672Y-122428766D01*
X159480666Y-122428773D01*
X159387483Y-122563771D01*
X159329312Y-122717154D01*
X159329311Y-122717157D01*
X159309539Y-122879999D01*
X150200500Y-122879999D01*
X150200500Y-121370000D01*
X154179355Y-121370000D01*
X154199859Y-121538869D01*
X154199860Y-121538874D01*
X154260182Y-121697931D01*
X154322475Y-121788177D01*
X154356817Y-121837929D01*
X154413257Y-121887930D01*
X154484150Y-121950736D01*
X154631225Y-122027927D01*
X154634775Y-122029790D01*
X154799944Y-122070500D01*
X154970056Y-122070500D01*
X155135225Y-122029790D01*
X155214692Y-121988081D01*
X155285849Y-121950736D01*
X155285850Y-121950734D01*
X155285852Y-121950734D01*
X155413183Y-121837929D01*
X155509818Y-121697930D01*
X155570140Y-121538872D01*
X155590645Y-121370000D01*
X155570140Y-121201128D01*
X155550750Y-121150000D01*
X158074355Y-121150000D01*
X158094859Y-121318869D01*
X158094860Y-121318874D01*
X158155182Y-121477931D01*
X158197249Y-121538874D01*
X158251817Y-121617929D01*
X158357505Y-121711560D01*
X158379150Y-121730736D01*
X158527824Y-121808766D01*
X158529775Y-121809790D01*
X158694944Y-121850500D01*
X158865056Y-121850500D01*
X159030225Y-121809790D01*
X159109692Y-121768081D01*
X159180849Y-121730736D01*
X159180850Y-121730734D01*
X159180852Y-121730734D01*
X159308183Y-121617929D01*
X159404818Y-121477930D01*
X159465140Y-121318872D01*
X159485645Y-121150000D01*
X159465140Y-120981128D01*
X159455732Y-120956322D01*
X159433471Y-120897622D01*
X159404818Y-120822070D01*
X159308183Y-120682071D01*
X159180852Y-120569266D01*
X159180849Y-120569263D01*
X159030226Y-120490210D01*
X158865056Y-120449500D01*
X158694944Y-120449500D01*
X158529773Y-120490210D01*
X158379150Y-120569263D01*
X158251816Y-120682072D01*
X158155182Y-120822068D01*
X158094860Y-120981125D01*
X158094859Y-120981130D01*
X158074355Y-121150000D01*
X155550750Y-121150000D01*
X155509818Y-121042070D01*
X155413183Y-120902071D01*
X155318316Y-120818026D01*
X155285849Y-120789263D01*
X155135226Y-120710210D01*
X154970056Y-120669500D01*
X154799944Y-120669500D01*
X154634773Y-120710210D01*
X154484150Y-120789263D01*
X154356816Y-120902072D01*
X154260182Y-121042068D01*
X154199860Y-121201125D01*
X154199859Y-121201130D01*
X154179355Y-121370000D01*
X150200500Y-121370000D01*
X150200500Y-117859999D01*
X157599539Y-117859999D01*
X157599539Y-117860000D01*
X157619311Y-118022842D01*
X157619312Y-118022845D01*
X157650067Y-118103940D01*
X157677483Y-118176228D01*
X157721647Y-118240210D01*
X157770668Y-118311229D01*
X157770670Y-118311231D01*
X157770672Y-118311233D01*
X157893451Y-118420006D01*
X157893452Y-118420006D01*
X157893454Y-118420008D01*
X158038705Y-118496242D01*
X158038707Y-118496242D01*
X158038708Y-118496243D01*
X158197978Y-118535500D01*
X158197979Y-118535500D01*
X158362022Y-118535500D01*
X158521291Y-118496243D01*
X158521291Y-118496242D01*
X158521295Y-118496242D01*
X158666546Y-118420008D01*
X158789332Y-118311229D01*
X158882518Y-118176226D01*
X158940688Y-118022845D01*
X158960461Y-117860000D01*
X158940688Y-117697155D01*
X158882518Y-117543774D01*
X158789332Y-117408771D01*
X158789329Y-117408768D01*
X158789327Y-117408766D01*
X158666548Y-117299993D01*
X158521291Y-117223756D01*
X158362022Y-117184500D01*
X158362021Y-117184500D01*
X158197979Y-117184500D01*
X158197978Y-117184500D01*
X158038708Y-117223756D01*
X157893451Y-117299993D01*
X157770672Y-117408766D01*
X157770666Y-117408773D01*
X157677483Y-117543771D01*
X157619312Y-117697154D01*
X157619311Y-117697157D01*
X157599539Y-117859999D01*
X150200500Y-117859999D01*
X150200500Y-112600000D01*
X160884355Y-112600000D01*
X160904859Y-112768869D01*
X160904860Y-112768874D01*
X160965182Y-112927931D01*
X161007508Y-112989249D01*
X161061817Y-113067929D01*
X161165205Y-113159522D01*
X161189150Y-113180736D01*
X161339773Y-113259789D01*
X161339775Y-113259790D01*
X161504944Y-113300500D01*
X161675056Y-113300500D01*
X161840225Y-113259790D01*
X161964559Y-113194534D01*
X161990849Y-113180736D01*
X161990850Y-113180734D01*
X161990852Y-113180734D01*
X162118183Y-113067929D01*
X162214818Y-112927930D01*
X162275140Y-112768872D01*
X162295645Y-112600000D01*
X162275140Y-112431128D01*
X162214818Y-112272070D01*
X162214003Y-112270890D01*
X162150252Y-112178531D01*
X162118183Y-112132071D01*
X162113246Y-112127697D01*
X162016790Y-112042244D01*
X162016301Y-112041465D01*
X168264200Y-112041465D01*
X168264200Y-112178534D01*
X168290937Y-112312949D01*
X168290940Y-112312961D01*
X168343386Y-112439578D01*
X168343393Y-112439591D01*
X168419536Y-112553546D01*
X168419539Y-112553550D01*
X168516449Y-112650460D01*
X168516453Y-112650463D01*
X168630408Y-112726606D01*
X168630421Y-112726613D01*
X168732449Y-112768874D01*
X168757043Y-112779061D01*
X168891465Y-112805799D01*
X168891469Y-112805800D01*
X168891470Y-112805800D01*
X169028531Y-112805800D01*
X169028532Y-112805799D01*
X169162957Y-112779061D01*
X169289585Y-112726610D01*
X169403547Y-112650463D01*
X169500463Y-112553547D01*
X169576610Y-112439585D01*
X169629061Y-112312957D01*
X169655800Y-112178530D01*
X169655800Y-112041470D01*
X169629061Y-111907043D01*
X169629020Y-111906944D01*
X169576613Y-111780421D01*
X169576606Y-111780408D01*
X169500463Y-111666453D01*
X169500460Y-111666449D01*
X169403550Y-111569539D01*
X169403546Y-111569536D01*
X169289591Y-111493393D01*
X169289578Y-111493386D01*
X169184824Y-111449996D01*
X181046935Y-111449996D01*
X181046935Y-111450003D01*
X181067130Y-111629249D01*
X181067131Y-111629254D01*
X181126711Y-111799523D01*
X181194209Y-111906944D01*
X181222684Y-111952262D01*
X181350238Y-112079816D01*
X181502978Y-112175789D01*
X181673245Y-112235368D01*
X181673250Y-112235369D01*
X181852496Y-112255565D01*
X181852500Y-112255565D01*
X181852504Y-112255565D01*
X182031749Y-112235369D01*
X182031752Y-112235368D01*
X182031755Y-112235368D01*
X182202022Y-112175789D01*
X182354762Y-112079816D01*
X182482316Y-111952262D01*
X182578289Y-111799522D01*
X182637868Y-111629255D01*
X182639144Y-111617930D01*
X182658065Y-111450003D01*
X182658065Y-111449996D01*
X182637869Y-111270750D01*
X182637868Y-111270745D01*
X182606510Y-111181130D01*
X182578289Y-111100478D01*
X182571419Y-111089545D01*
X182482315Y-110947737D01*
X182354762Y-110820184D01*
X182202023Y-110724211D01*
X182031754Y-110664631D01*
X182031749Y-110664630D01*
X181852504Y-110644435D01*
X181852496Y-110644435D01*
X181673250Y-110664630D01*
X181673245Y-110664631D01*
X181502976Y-110724211D01*
X181350237Y-110820184D01*
X181222684Y-110947737D01*
X181126711Y-111100476D01*
X181067131Y-111270745D01*
X181067130Y-111270750D01*
X181046935Y-111449996D01*
X169184824Y-111449996D01*
X169162961Y-111440940D01*
X169162949Y-111440937D01*
X169028534Y-111414200D01*
X169028530Y-111414200D01*
X168891470Y-111414200D01*
X168891465Y-111414200D01*
X168757050Y-111440937D01*
X168757038Y-111440940D01*
X168630421Y-111493386D01*
X168630408Y-111493393D01*
X168516453Y-111569536D01*
X168516449Y-111569539D01*
X168419539Y-111666449D01*
X168419536Y-111666453D01*
X168343393Y-111780408D01*
X168343386Y-111780421D01*
X168290940Y-111907038D01*
X168290937Y-111907050D01*
X168264200Y-112041465D01*
X162016301Y-112041465D01*
X161979663Y-111983055D01*
X161980431Y-111913189D01*
X162016788Y-111856615D01*
X162128183Y-111757929D01*
X162224818Y-111617930D01*
X162285140Y-111458872D01*
X162305645Y-111290000D01*
X162285140Y-111121128D01*
X162284540Y-111119547D01*
X162248860Y-111025465D01*
X163184200Y-111025465D01*
X163184200Y-111162534D01*
X163210937Y-111296949D01*
X163210940Y-111296961D01*
X163263386Y-111423578D01*
X163263393Y-111423591D01*
X163339536Y-111537546D01*
X163339539Y-111537550D01*
X163436449Y-111634460D01*
X163436453Y-111634463D01*
X163550408Y-111710606D01*
X163550421Y-111710613D01*
X163677038Y-111763059D01*
X163677043Y-111763061D01*
X163811465Y-111789799D01*
X163811469Y-111789800D01*
X163811470Y-111789800D01*
X163948531Y-111789800D01*
X163948532Y-111789799D01*
X164082957Y-111763061D01*
X164209585Y-111710610D01*
X164323547Y-111634463D01*
X164420463Y-111537547D01*
X164496610Y-111423585D01*
X164549061Y-111296957D01*
X164575800Y-111162530D01*
X164575800Y-111025470D01*
X164549061Y-110891043D01*
X164544895Y-110880987D01*
X164537429Y-110811519D01*
X164568704Y-110749040D01*
X164628794Y-110713388D01*
X164698619Y-110715883D01*
X164741683Y-110740720D01*
X164763454Y-110760008D01*
X164908705Y-110836242D01*
X164908707Y-110836242D01*
X164908708Y-110836243D01*
X165067978Y-110875500D01*
X165067979Y-110875500D01*
X165232022Y-110875500D01*
X165391291Y-110836243D01*
X165391291Y-110836242D01*
X165391295Y-110836242D01*
X165536546Y-110760008D01*
X165659332Y-110651229D01*
X165752518Y-110516226D01*
X165810688Y-110362845D01*
X165830461Y-110200000D01*
X165822350Y-110133201D01*
X165833810Y-110064278D01*
X165880714Y-110012492D01*
X165915767Y-109997859D01*
X166070225Y-109959790D01*
X166199069Y-109892166D01*
X166267576Y-109878441D01*
X166332629Y-109903933D01*
X166373574Y-109960549D01*
X166373735Y-109961008D01*
X166394209Y-110019519D01*
X166419359Y-110059545D01*
X166490184Y-110172262D01*
X166617738Y-110299816D01*
X166770478Y-110395789D01*
X166869545Y-110430454D01*
X166940745Y-110455368D01*
X166940750Y-110455369D01*
X167119996Y-110475565D01*
X167120000Y-110475565D01*
X167120004Y-110475565D01*
X167299249Y-110455369D01*
X167299252Y-110455368D01*
X167299255Y-110455368D01*
X167469522Y-110395789D01*
X167622262Y-110299816D01*
X167749816Y-110172262D01*
X167832515Y-110040646D01*
X167884849Y-109994357D01*
X167953902Y-109983709D01*
X167978463Y-109989578D01*
X168080745Y-110025368D01*
X168080750Y-110025369D01*
X168259996Y-110045565D01*
X168260000Y-110045565D01*
X168260004Y-110045565D01*
X168439249Y-110025369D01*
X168439252Y-110025368D01*
X168439255Y-110025368D01*
X168609522Y-109965789D01*
X168762262Y-109869816D01*
X168889816Y-109742262D01*
X168985789Y-109589522D01*
X169045368Y-109419255D01*
X169048748Y-109389255D01*
X169065565Y-109240003D01*
X169065565Y-109239996D01*
X169045369Y-109060750D01*
X169045368Y-109060745D01*
X169010275Y-108960455D01*
X169006714Y-108890676D01*
X169041443Y-108830048D01*
X169103436Y-108797821D01*
X169127317Y-108795500D01*
X169257020Y-108795500D01*
X169257021Y-108795500D01*
X169416295Y-108756242D01*
X169416298Y-108756240D01*
X169420324Y-108755248D01*
X169479676Y-108755248D01*
X169483701Y-108756240D01*
X169483705Y-108756242D01*
X169642979Y-108795500D01*
X169642980Y-108795500D01*
X169717153Y-108795500D01*
X169784192Y-108815185D01*
X169829947Y-108867989D01*
X169839891Y-108937147D01*
X169810866Y-109000703D01*
X169779505Y-109025552D01*
X169779628Y-109025730D01*
X169776930Y-109027591D01*
X169774780Y-109029296D01*
X169773452Y-109029992D01*
X169650672Y-109138766D01*
X169650666Y-109138773D01*
X169557483Y-109273771D01*
X169499312Y-109427154D01*
X169499311Y-109427157D01*
X169479539Y-109589999D01*
X169479539Y-109590000D01*
X169499311Y-109752842D01*
X169499312Y-109752845D01*
X169556612Y-109903933D01*
X169557483Y-109906228D01*
X169619012Y-109995368D01*
X169650668Y-110041229D01*
X169650670Y-110041231D01*
X169650672Y-110041233D01*
X169773451Y-110150006D01*
X169773452Y-110150006D01*
X169773454Y-110150008D01*
X169918705Y-110226242D01*
X169918707Y-110226242D01*
X169918708Y-110226243D01*
X170077978Y-110265500D01*
X170077979Y-110265500D01*
X170242022Y-110265500D01*
X170401291Y-110226243D01*
X170401291Y-110226242D01*
X170401295Y-110226242D01*
X170546546Y-110150008D01*
X170669332Y-110041229D01*
X170698439Y-109999059D01*
X170752722Y-109955070D01*
X170800489Y-109945500D01*
X170822022Y-109945500D01*
X170861839Y-109935685D01*
X170981295Y-109906242D01*
X170984671Y-109904469D01*
X170987422Y-109903918D01*
X170988307Y-109903583D01*
X170988362Y-109903730D01*
X171053178Y-109890742D01*
X171108273Y-109909270D01*
X171122256Y-109918056D01*
X171150478Y-109935789D01*
X171300877Y-109988416D01*
X171320745Y-109995368D01*
X171320750Y-109995369D01*
X171499996Y-110015565D01*
X171500000Y-110015565D01*
X171500004Y-110015565D01*
X171679249Y-109995369D01*
X171679252Y-109995368D01*
X171679255Y-109995368D01*
X171849522Y-109935789D01*
X172002262Y-109839816D01*
X172129816Y-109712262D01*
X172225789Y-109559522D01*
X172257116Y-109469996D01*
X176444435Y-109469996D01*
X176444435Y-109470003D01*
X176464630Y-109649249D01*
X176464631Y-109649254D01*
X176524211Y-109819523D01*
X176612347Y-109959790D01*
X176620184Y-109972262D01*
X176747738Y-110099816D01*
X176900478Y-110195789D01*
X177052186Y-110248874D01*
X177070745Y-110255368D01*
X177070750Y-110255369D01*
X177249996Y-110275565D01*
X177250000Y-110275565D01*
X177250004Y-110275565D01*
X177429249Y-110255369D01*
X177429252Y-110255368D01*
X177429255Y-110255368D01*
X177599522Y-110195789D01*
X177752262Y-110099816D01*
X177879816Y-109972262D01*
X177975789Y-109819522D01*
X178035368Y-109649255D01*
X178038685Y-109619815D01*
X178055565Y-109470003D01*
X178055565Y-109469996D01*
X178035369Y-109290750D01*
X178035368Y-109290745D01*
X178029429Y-109273771D01*
X177975789Y-109120478D01*
X177966295Y-109105369D01*
X177925337Y-109040184D01*
X177879816Y-108967738D01*
X177752262Y-108840184D01*
X177672389Y-108789996D01*
X180004435Y-108789996D01*
X180004435Y-108790003D01*
X180024630Y-108969249D01*
X180024631Y-108969254D01*
X180084211Y-109139523D01*
X180147347Y-109240003D01*
X180180184Y-109292262D01*
X180307738Y-109419816D01*
X180343529Y-109442305D01*
X180454864Y-109512262D01*
X180460478Y-109515789D01*
X180585460Y-109559522D01*
X180630745Y-109575368D01*
X180630750Y-109575369D01*
X180809996Y-109595565D01*
X180810000Y-109595565D01*
X180810004Y-109595565D01*
X180989249Y-109575369D01*
X180989252Y-109575368D01*
X180989255Y-109575368D01*
X181159522Y-109515789D01*
X181205794Y-109486713D01*
X181273030Y-109467713D01*
X181339865Y-109488080D01*
X181359448Y-109504026D01*
X181475238Y-109619816D01*
X181522090Y-109649255D01*
X181622364Y-109712262D01*
X181627978Y-109715789D01*
X181733878Y-109752845D01*
X181798245Y-109775368D01*
X181798250Y-109775369D01*
X181977496Y-109795565D01*
X181977500Y-109795565D01*
X181977504Y-109795565D01*
X182156749Y-109775369D01*
X182156752Y-109775368D01*
X182156755Y-109775368D01*
X182327022Y-109715789D01*
X182479762Y-109619816D01*
X182607316Y-109492262D01*
X182703289Y-109339522D01*
X182762868Y-109169255D01*
X182763965Y-109159518D01*
X182780812Y-109009996D01*
X185891935Y-109009996D01*
X185891935Y-109010003D01*
X185912130Y-109189249D01*
X185912131Y-109189254D01*
X185971711Y-109359523D01*
X186051631Y-109486714D01*
X186067684Y-109512262D01*
X186195238Y-109639816D01*
X186285580Y-109696582D01*
X186316146Y-109715788D01*
X186347978Y-109735789D01*
X186461091Y-109775369D01*
X186518245Y-109795368D01*
X186518250Y-109795369D01*
X186697496Y-109815565D01*
X186697500Y-109815565D01*
X186697504Y-109815565D01*
X186876749Y-109795369D01*
X186876752Y-109795368D01*
X186876755Y-109795368D01*
X187047022Y-109735789D01*
X187199762Y-109639816D01*
X187327316Y-109512262D01*
X187423289Y-109359522D01*
X187482868Y-109189255D01*
X187483965Y-109179518D01*
X187503065Y-109010003D01*
X187503065Y-109009996D01*
X187482869Y-108830750D01*
X187482868Y-108830745D01*
X187450323Y-108737738D01*
X187423289Y-108660478D01*
X187416402Y-108649518D01*
X187375657Y-108584672D01*
X187327316Y-108507738D01*
X187199762Y-108380184D01*
X187167932Y-108360184D01*
X187047023Y-108284211D01*
X186876754Y-108224631D01*
X186876749Y-108224630D01*
X186697504Y-108204435D01*
X186697496Y-108204435D01*
X186518250Y-108224630D01*
X186518245Y-108224631D01*
X186347976Y-108284211D01*
X186195237Y-108380184D01*
X186067684Y-108507737D01*
X185971711Y-108660476D01*
X185912131Y-108830745D01*
X185912130Y-108830750D01*
X185891935Y-109009996D01*
X182780812Y-109009996D01*
X182783065Y-108990003D01*
X182783065Y-108989996D01*
X182762869Y-108810750D01*
X182762868Y-108810745D01*
X182744607Y-108758558D01*
X182703289Y-108640478D01*
X182684606Y-108610745D01*
X182619882Y-108507737D01*
X182607316Y-108487738D01*
X182527297Y-108407719D01*
X182493812Y-108346396D01*
X182497937Y-108279083D01*
X182532866Y-108179262D01*
X182532869Y-108179249D01*
X182553065Y-108000003D01*
X182553065Y-107999996D01*
X182532869Y-107820750D01*
X182532868Y-107820745D01*
X182526929Y-107803771D01*
X182473289Y-107650478D01*
X182377316Y-107497738D01*
X182249762Y-107370184D01*
X182097023Y-107274211D01*
X181926754Y-107214631D01*
X181926749Y-107214630D01*
X181747504Y-107194435D01*
X181747496Y-107194435D01*
X181568250Y-107214630D01*
X181568245Y-107214631D01*
X181397976Y-107274211D01*
X181245237Y-107370184D01*
X181117684Y-107497737D01*
X181021710Y-107650478D01*
X180962130Y-107820750D01*
X180955895Y-107876090D01*
X180928828Y-107940503D01*
X180871233Y-107980058D01*
X180818793Y-107985425D01*
X180810005Y-107984435D01*
X180809996Y-107984435D01*
X180630750Y-108004630D01*
X180630745Y-108004631D01*
X180460476Y-108064211D01*
X180307737Y-108160184D01*
X180180184Y-108287737D01*
X180084211Y-108440476D01*
X180024631Y-108610745D01*
X180024630Y-108610750D01*
X180004435Y-108789996D01*
X177672389Y-108789996D01*
X177599523Y-108744211D01*
X177429254Y-108684631D01*
X177429249Y-108684630D01*
X177250004Y-108664435D01*
X177249996Y-108664435D01*
X177070750Y-108684630D01*
X177070745Y-108684631D01*
X176900476Y-108744211D01*
X176747737Y-108840184D01*
X176620184Y-108967737D01*
X176524211Y-109120476D01*
X176464631Y-109290745D01*
X176464630Y-109290750D01*
X176444435Y-109469996D01*
X172257116Y-109469996D01*
X172285368Y-109389255D01*
X172288718Y-109359522D01*
X172305565Y-109210003D01*
X172305565Y-109209996D01*
X172285369Y-109030750D01*
X172285368Y-109030745D01*
X172263321Y-108967738D01*
X172225789Y-108860478D01*
X172213037Y-108840184D01*
X172160293Y-108756242D01*
X172129816Y-108707738D01*
X172002262Y-108580184D01*
X171926915Y-108532840D01*
X171849523Y-108484211D01*
X171679254Y-108424631D01*
X171679249Y-108424630D01*
X171500004Y-108404435D01*
X171499996Y-108404435D01*
X171320750Y-108424630D01*
X171320745Y-108424631D01*
X171150476Y-108484211D01*
X170997738Y-108580184D01*
X170992295Y-108584525D01*
X170990726Y-108582557D01*
X170939601Y-108610455D01*
X170883604Y-108609678D01*
X170822022Y-108594500D01*
X170822021Y-108594500D01*
X170657979Y-108594500D01*
X170657978Y-108594500D01*
X170498705Y-108633757D01*
X170498704Y-108633758D01*
X170461932Y-108653057D01*
X170393423Y-108666781D01*
X170328371Y-108641288D01*
X170287427Y-108584672D01*
X170283593Y-108514907D01*
X170302256Y-108472823D01*
X170327518Y-108436226D01*
X170371598Y-108319996D01*
X173264435Y-108319996D01*
X173264435Y-108320003D01*
X173284630Y-108499249D01*
X173284631Y-108499254D01*
X173344211Y-108669523D01*
X173435737Y-108815185D01*
X173440184Y-108822262D01*
X173567738Y-108949816D01*
X173631695Y-108990003D01*
X173711557Y-109040184D01*
X173720478Y-109045789D01*
X173845531Y-109089547D01*
X173890745Y-109105368D01*
X173890750Y-109105369D01*
X174069996Y-109125565D01*
X174070000Y-109125565D01*
X174070004Y-109125565D01*
X174249249Y-109105369D01*
X174249252Y-109105368D01*
X174249255Y-109105368D01*
X174419522Y-109045789D01*
X174572262Y-108949816D01*
X174699816Y-108822262D01*
X174795789Y-108669522D01*
X174855368Y-108499255D01*
X174857621Y-108479262D01*
X174875565Y-108320003D01*
X174875565Y-108319996D01*
X174855369Y-108140750D01*
X174855368Y-108140745D01*
X174837437Y-108089500D01*
X174795789Y-107970478D01*
X174776954Y-107940503D01*
X174736481Y-107876090D01*
X174699816Y-107817738D01*
X174572262Y-107690184D01*
X174538187Y-107668773D01*
X174419523Y-107594211D01*
X174249254Y-107534631D01*
X174249249Y-107534630D01*
X174070004Y-107514435D01*
X174069996Y-107514435D01*
X173890750Y-107534630D01*
X173890745Y-107534631D01*
X173720476Y-107594211D01*
X173567737Y-107690184D01*
X173440184Y-107817737D01*
X173344211Y-107970476D01*
X173284631Y-108140745D01*
X173284630Y-108140750D01*
X173264435Y-108319996D01*
X170371598Y-108319996D01*
X170385688Y-108282845D01*
X170405461Y-108120000D01*
X170385688Y-107957155D01*
X170327518Y-107803774D01*
X170234332Y-107668771D01*
X170234329Y-107668768D01*
X170234327Y-107668766D01*
X170111548Y-107559993D01*
X169999998Y-107501447D01*
X169966295Y-107483758D01*
X169966294Y-107483757D01*
X169966291Y-107483756D01*
X169807022Y-107444500D01*
X169807021Y-107444500D01*
X169642979Y-107444500D01*
X169642978Y-107444500D01*
X169479675Y-107484751D01*
X169420325Y-107484751D01*
X169257022Y-107444500D01*
X169257021Y-107444500D01*
X169092979Y-107444500D01*
X169092978Y-107444500D01*
X168933708Y-107483756D01*
X168788451Y-107559993D01*
X168665672Y-107668766D01*
X168665666Y-107668773D01*
X168572483Y-107803771D01*
X168514312Y-107957154D01*
X168514311Y-107957157D01*
X168494539Y-108119999D01*
X168494539Y-108120000D01*
X168514311Y-108282842D01*
X168516107Y-108290127D01*
X168514408Y-108290545D01*
X168519052Y-108350871D01*
X168485900Y-108412375D01*
X168424760Y-108446192D01*
X168383862Y-108448390D01*
X168260004Y-108434435D01*
X168259996Y-108434435D01*
X168080750Y-108454630D01*
X168080745Y-108454631D01*
X167910476Y-108514211D01*
X167757737Y-108610184D01*
X167630182Y-108737739D01*
X167547484Y-108869352D01*
X167495149Y-108915642D01*
X167426096Y-108926290D01*
X167401537Y-108920421D01*
X167299257Y-108884632D01*
X167299249Y-108884630D01*
X167120004Y-108864435D01*
X167119996Y-108864435D01*
X166940750Y-108884630D01*
X166940742Y-108884632D01*
X166835965Y-108921295D01*
X166766186Y-108924856D01*
X166705559Y-108890127D01*
X166673332Y-108828133D01*
X166679738Y-108758558D01*
X166690015Y-108738284D01*
X166733222Y-108669522D01*
X166745788Y-108649524D01*
X166748670Y-108641288D01*
X166805368Y-108479255D01*
X166805369Y-108479249D01*
X166825565Y-108300003D01*
X166825565Y-108299996D01*
X166805369Y-108120750D01*
X166805368Y-108120745D01*
X166764738Y-108004631D01*
X166745789Y-107950478D01*
X166739521Y-107940503D01*
X166662382Y-107817737D01*
X166649816Y-107797738D01*
X166522262Y-107670184D01*
X166490897Y-107650476D01*
X166369523Y-107574211D01*
X166199254Y-107514631D01*
X166199249Y-107514630D01*
X166020004Y-107494435D01*
X166019996Y-107494435D01*
X165840750Y-107514630D01*
X165840745Y-107514631D01*
X165670476Y-107574211D01*
X165517737Y-107670184D01*
X165390184Y-107797737D01*
X165294211Y-107950476D01*
X165234631Y-108120745D01*
X165234630Y-108120750D01*
X165214435Y-108299996D01*
X165214435Y-108300003D01*
X165234630Y-108479249D01*
X165234633Y-108479262D01*
X165294209Y-108649518D01*
X165294213Y-108649527D01*
X165311087Y-108676382D01*
X165330087Y-108743619D01*
X165309719Y-108810454D01*
X165296266Y-108825992D01*
X165296791Y-108826457D01*
X165291815Y-108832073D01*
X165195182Y-108972068D01*
X165134860Y-109131125D01*
X165134859Y-109131130D01*
X165114355Y-109300000D01*
X165126233Y-109397823D01*
X165114773Y-109466747D01*
X165067869Y-109518533D01*
X165032813Y-109533167D01*
X164908708Y-109563757D01*
X164908707Y-109563757D01*
X164908705Y-109563758D01*
X164848102Y-109595565D01*
X164763451Y-109639993D01*
X164640672Y-109748766D01*
X164640666Y-109748773D01*
X164547483Y-109883771D01*
X164489312Y-110037154D01*
X164489311Y-110037157D01*
X164469539Y-110199999D01*
X164469539Y-110200000D01*
X164489311Y-110362842D01*
X164489312Y-110362845D01*
X164502720Y-110398200D01*
X164504997Y-110404202D01*
X164510364Y-110473866D01*
X164477217Y-110535372D01*
X164416079Y-110569193D01*
X164346361Y-110564592D01*
X164320164Y-110551276D01*
X164209591Y-110477393D01*
X164209578Y-110477386D01*
X164082961Y-110424940D01*
X164082949Y-110424937D01*
X163948534Y-110398200D01*
X163948530Y-110398200D01*
X163811470Y-110398200D01*
X163811465Y-110398200D01*
X163677050Y-110424937D01*
X163677038Y-110424940D01*
X163550421Y-110477386D01*
X163550408Y-110477393D01*
X163436453Y-110553536D01*
X163436449Y-110553539D01*
X163339539Y-110650449D01*
X163339536Y-110650453D01*
X163263393Y-110764408D01*
X163263386Y-110764421D01*
X163210940Y-110891038D01*
X163210937Y-110891050D01*
X163184200Y-111025465D01*
X162248860Y-111025465D01*
X162236270Y-110992267D01*
X162224818Y-110962070D01*
X162214925Y-110947738D01*
X162168851Y-110880988D01*
X162128183Y-110822071D01*
X162033316Y-110738026D01*
X162000849Y-110709263D01*
X161850226Y-110630210D01*
X161685056Y-110589500D01*
X161514944Y-110589500D01*
X161349773Y-110630210D01*
X161199150Y-110709263D01*
X161071816Y-110822072D01*
X160975182Y-110962068D01*
X160914860Y-111121125D01*
X160914859Y-111121130D01*
X160894355Y-111290000D01*
X160914859Y-111458869D01*
X160914860Y-111458874D01*
X160975182Y-111617931D01*
X161071818Y-111757930D01*
X161173209Y-111847755D01*
X161210336Y-111906944D01*
X161209568Y-111976810D01*
X161173210Y-112033385D01*
X161061816Y-112132071D01*
X160965182Y-112272068D01*
X160904860Y-112431125D01*
X160904859Y-112431130D01*
X160884355Y-112600000D01*
X150200500Y-112600000D01*
X150200500Y-111350000D01*
X150474355Y-111350000D01*
X150494859Y-111518869D01*
X150494860Y-111518874D01*
X150555182Y-111677931D01*
X150610400Y-111757927D01*
X150651817Y-111817929D01*
X150711422Y-111870734D01*
X150779150Y-111930736D01*
X150878836Y-111983055D01*
X150929775Y-112009790D01*
X151094944Y-112050500D01*
X151265056Y-112050500D01*
X151430225Y-112009790D01*
X151509742Y-111968056D01*
X151580849Y-111930736D01*
X151580850Y-111930734D01*
X151580852Y-111930734D01*
X151708183Y-111817929D01*
X151804818Y-111677930D01*
X151865140Y-111518872D01*
X151885645Y-111350000D01*
X151865140Y-111181128D01*
X151864529Y-111179518D01*
X151830408Y-111089547D01*
X151804818Y-111022070D01*
X151775900Y-110980176D01*
X151726120Y-110908057D01*
X151708183Y-110882071D01*
X151656453Y-110836242D01*
X151629365Y-110812244D01*
X151592238Y-110753055D01*
X151593006Y-110683190D01*
X151629364Y-110626614D01*
X151714405Y-110551276D01*
X151718182Y-110547930D01*
X151726851Y-110535372D01*
X151814818Y-110407930D01*
X151875140Y-110248872D01*
X151895645Y-110080000D01*
X151875140Y-109911128D01*
X151814818Y-109752070D01*
X151813389Y-109750000D01*
X151813387Y-109749997D01*
X154284751Y-109749997D01*
X154284751Y-109750002D01*
X154303685Y-109918056D01*
X154359545Y-110077694D01*
X154359547Y-110077697D01*
X154449518Y-110220884D01*
X154449523Y-110220890D01*
X154569109Y-110340476D01*
X154569115Y-110340481D01*
X154712302Y-110430452D01*
X154712305Y-110430454D01*
X154712309Y-110430455D01*
X154712310Y-110430456D01*
X154769456Y-110450452D01*
X154871943Y-110486314D01*
X155039997Y-110505249D01*
X155040000Y-110505249D01*
X155040003Y-110505249D01*
X155208056Y-110486314D01*
X155208059Y-110486313D01*
X155367690Y-110430456D01*
X155407966Y-110405148D01*
X155475200Y-110386148D01*
X155542036Y-110406514D01*
X155587251Y-110459782D01*
X155596490Y-110529038D01*
X155590980Y-110551094D01*
X155583687Y-110571937D01*
X155583686Y-110571940D01*
X155564751Y-110739997D01*
X155564751Y-110740002D01*
X155583686Y-110908057D01*
X155608921Y-110980176D01*
X155612482Y-111049955D01*
X155577753Y-111110582D01*
X155515759Y-111142809D01*
X155446184Y-111136403D01*
X155425907Y-111126124D01*
X155367692Y-111089545D01*
X155367691Y-111089544D01*
X155367690Y-111089544D01*
X155293795Y-111063687D01*
X155208056Y-111033685D01*
X155040003Y-111014751D01*
X155039997Y-111014751D01*
X154871943Y-111033685D01*
X154712305Y-111089545D01*
X154712302Y-111089547D01*
X154569115Y-111179518D01*
X154569109Y-111179523D01*
X154449523Y-111299109D01*
X154449518Y-111299115D01*
X154359547Y-111442302D01*
X154359545Y-111442305D01*
X154303685Y-111601943D01*
X154284751Y-111769997D01*
X154284751Y-111770002D01*
X154303685Y-111938056D01*
X154359545Y-112097694D01*
X154359547Y-112097697D01*
X154449518Y-112240884D01*
X154449523Y-112240890D01*
X154569109Y-112360476D01*
X154569115Y-112360481D01*
X154712302Y-112450452D01*
X154712305Y-112450454D01*
X154712309Y-112450455D01*
X154712310Y-112450456D01*
X154784913Y-112475860D01*
X154871943Y-112506314D01*
X155039997Y-112525249D01*
X155040000Y-112525249D01*
X155040003Y-112525249D01*
X155208056Y-112506314D01*
X155281954Y-112480456D01*
X155367690Y-112450456D01*
X155367692Y-112450454D01*
X155367694Y-112450454D01*
X155367697Y-112450452D01*
X155510884Y-112360481D01*
X155510885Y-112360480D01*
X155510890Y-112360477D01*
X155630477Y-112240890D01*
X155633947Y-112235368D01*
X155720452Y-112097697D01*
X155720454Y-112097694D01*
X155720454Y-112097692D01*
X155720456Y-112097690D01*
X155776313Y-111938059D01*
X155776313Y-111938058D01*
X155776314Y-111938056D01*
X155795249Y-111770002D01*
X155795249Y-111769997D01*
X155776313Y-111601940D01*
X155776313Y-111601938D01*
X155751079Y-111529824D01*
X155747517Y-111460045D01*
X155782245Y-111399418D01*
X155844239Y-111367190D01*
X155913814Y-111373595D01*
X155934093Y-111383876D01*
X155992307Y-111420454D01*
X155992305Y-111420454D01*
X155992309Y-111420455D01*
X155992310Y-111420456D01*
X156064913Y-111445860D01*
X156151943Y-111476314D01*
X156319997Y-111495249D01*
X156320000Y-111495249D01*
X156320003Y-111495249D01*
X156488056Y-111476314D01*
X156499522Y-111472302D01*
X156647690Y-111420456D01*
X156647692Y-111420454D01*
X156647694Y-111420454D01*
X156653966Y-111417434D01*
X156655271Y-111420145D01*
X156709565Y-111404745D01*
X156776421Y-111425046D01*
X156821688Y-111478268D01*
X156830995Y-111547515D01*
X156825467Y-111569693D01*
X156803686Y-111631940D01*
X156784751Y-111799997D01*
X156784751Y-111800002D01*
X156803685Y-111968056D01*
X156859545Y-112127694D01*
X156859547Y-112127697D01*
X156949518Y-112270884D01*
X156949523Y-112270890D01*
X157069109Y-112390476D01*
X157069115Y-112390481D01*
X157212302Y-112480452D01*
X157212305Y-112480454D01*
X157212309Y-112480455D01*
X157212310Y-112480456D01*
X157284913Y-112505860D01*
X157371943Y-112536314D01*
X157539997Y-112555249D01*
X157540000Y-112555249D01*
X157540003Y-112555249D01*
X157708056Y-112536314D01*
X157739678Y-112525249D01*
X157867690Y-112480456D01*
X157867692Y-112480454D01*
X157867694Y-112480454D01*
X157867697Y-112480452D01*
X158010884Y-112390481D01*
X158010885Y-112390480D01*
X158010890Y-112390477D01*
X158130477Y-112270890D01*
X158130481Y-112270884D01*
X158220452Y-112127697D01*
X158220454Y-112127694D01*
X158220454Y-112127692D01*
X158220456Y-112127690D01*
X158276313Y-111968059D01*
X158276313Y-111968058D01*
X158276314Y-111968056D01*
X158295249Y-111800002D01*
X158295249Y-111799997D01*
X158276314Y-111631943D01*
X158236748Y-111518869D01*
X158220456Y-111472310D01*
X158220455Y-111472309D01*
X158220454Y-111472305D01*
X158220452Y-111472302D01*
X158130481Y-111329115D01*
X158130476Y-111329109D01*
X158010890Y-111209523D01*
X158010884Y-111209518D01*
X157867697Y-111119547D01*
X157867694Y-111119545D01*
X157708056Y-111063685D01*
X157540003Y-111044751D01*
X157539997Y-111044751D01*
X157371943Y-111063685D01*
X157212305Y-111119545D01*
X157206034Y-111122566D01*
X157204744Y-111119887D01*
X157150214Y-111135252D01*
X157083395Y-111114833D01*
X157038222Y-111061530D01*
X157029037Y-110992267D01*
X157034533Y-110970304D01*
X157056313Y-110908060D01*
X157056313Y-110908059D01*
X157075249Y-110740002D01*
X157075249Y-110739997D01*
X157064183Y-110641785D01*
X157076237Y-110572963D01*
X157123586Y-110521583D01*
X157191197Y-110503959D01*
X157204998Y-110505729D01*
X157205021Y-110505534D01*
X157379997Y-110525249D01*
X157380000Y-110525249D01*
X157380003Y-110525249D01*
X157548056Y-110506314D01*
X157554786Y-110503959D01*
X157707690Y-110450456D01*
X157707692Y-110450454D01*
X157707694Y-110450454D01*
X157707697Y-110450452D01*
X157850884Y-110360481D01*
X157850885Y-110360480D01*
X157850890Y-110360477D01*
X157970477Y-110240890D01*
X157970481Y-110240884D01*
X158060452Y-110097697D01*
X158060454Y-110097694D01*
X158060454Y-110097692D01*
X158060456Y-110097690D01*
X158116313Y-109938059D01*
X158116313Y-109938058D01*
X158116314Y-109938056D01*
X158135249Y-109770002D01*
X158135249Y-109769997D01*
X158116314Y-109601943D01*
X158077935Y-109492262D01*
X158060456Y-109442310D01*
X158060455Y-109442309D01*
X158060454Y-109442305D01*
X158060452Y-109442302D01*
X157970481Y-109299115D01*
X157970476Y-109299109D01*
X157850890Y-109179523D01*
X157850884Y-109179518D01*
X157707697Y-109089547D01*
X157707694Y-109089545D01*
X157548056Y-109033685D01*
X157380003Y-109014751D01*
X157379997Y-109014751D01*
X157211943Y-109033685D01*
X157052305Y-109089545D01*
X157052302Y-109089547D01*
X156909115Y-109179518D01*
X156909109Y-109179523D01*
X156789523Y-109299109D01*
X156789518Y-109299115D01*
X156699547Y-109442302D01*
X156699545Y-109442305D01*
X156643685Y-109601943D01*
X156624751Y-109769997D01*
X156624751Y-109770004D01*
X156635816Y-109868215D01*
X156623761Y-109937037D01*
X156576412Y-109988416D01*
X156508801Y-110006040D01*
X156495001Y-110004270D01*
X156494979Y-110004466D01*
X156320003Y-109984751D01*
X156319997Y-109984751D01*
X156151943Y-110003685D01*
X155992305Y-110059545D01*
X155992304Y-110059546D01*
X155952032Y-110084851D01*
X155884795Y-110103851D01*
X155817960Y-110083483D01*
X155772747Y-110030215D01*
X155763510Y-109960958D01*
X155769020Y-109938900D01*
X155776313Y-109918059D01*
X155792996Y-109769997D01*
X155795249Y-109750002D01*
X155795249Y-109749997D01*
X155776314Y-109581943D01*
X155727454Y-109442310D01*
X155720456Y-109422310D01*
X155720455Y-109422309D01*
X155720454Y-109422305D01*
X155720452Y-109422302D01*
X155630481Y-109279115D01*
X155630476Y-109279109D01*
X155510890Y-109159523D01*
X155510884Y-109159518D01*
X155367697Y-109069547D01*
X155367694Y-109069545D01*
X155208056Y-109013685D01*
X155040003Y-108994751D01*
X155039997Y-108994751D01*
X154871943Y-109013685D01*
X154712305Y-109069545D01*
X154712302Y-109069547D01*
X154569115Y-109159518D01*
X154569109Y-109159523D01*
X154449523Y-109279109D01*
X154449518Y-109279115D01*
X154359547Y-109422302D01*
X154359545Y-109422305D01*
X154303685Y-109581943D01*
X154284751Y-109749997D01*
X151813387Y-109749997D01*
X151743849Y-109649255D01*
X151718183Y-109612071D01*
X151623075Y-109527813D01*
X151585951Y-109468627D01*
X151586718Y-109398761D01*
X151623075Y-109342186D01*
X151718183Y-109257929D01*
X151814818Y-109117930D01*
X151875140Y-108958872D01*
X151895645Y-108790000D01*
X151875140Y-108621128D01*
X151865041Y-108594500D01*
X151814817Y-108462068D01*
X151758296Y-108380184D01*
X151718183Y-108322071D01*
X151608196Y-108224631D01*
X151590849Y-108209263D01*
X151440226Y-108130210D01*
X151275056Y-108089500D01*
X151104944Y-108089500D01*
X150939773Y-108130210D01*
X150789150Y-108209263D01*
X150661816Y-108322072D01*
X150565182Y-108462068D01*
X150504860Y-108621125D01*
X150504859Y-108621130D01*
X150484355Y-108790000D01*
X150504859Y-108958869D01*
X150504860Y-108958874D01*
X150565182Y-109117931D01*
X150600609Y-109169255D01*
X150649443Y-109240003D01*
X150661818Y-109257930D01*
X150756922Y-109342185D01*
X150794049Y-109401374D01*
X150793281Y-109471239D01*
X150756922Y-109527815D01*
X150661818Y-109612069D01*
X150565182Y-109752068D01*
X150504860Y-109911125D01*
X150504859Y-109911130D01*
X150484355Y-110080000D01*
X150504859Y-110248869D01*
X150504860Y-110248874D01*
X150565182Y-110407931D01*
X150611867Y-110475565D01*
X150661817Y-110547929D01*
X150740634Y-110617755D01*
X150777761Y-110676944D01*
X150776993Y-110746809D01*
X150740634Y-110803385D01*
X150651818Y-110882069D01*
X150555182Y-111022068D01*
X150494860Y-111181125D01*
X150494859Y-111181130D01*
X150474355Y-111350000D01*
X150200500Y-111350000D01*
X150200500Y-103919999D01*
X155299539Y-103919999D01*
X155299539Y-103920000D01*
X155319311Y-104082842D01*
X155319312Y-104082845D01*
X155350934Y-104166226D01*
X155377483Y-104236228D01*
X155421157Y-104299500D01*
X155470668Y-104371229D01*
X155470670Y-104371231D01*
X155470672Y-104371233D01*
X155593451Y-104480006D01*
X155593452Y-104480006D01*
X155593454Y-104480008D01*
X155738705Y-104556242D01*
X155738707Y-104556242D01*
X155738708Y-104556243D01*
X155897978Y-104595500D01*
X155897979Y-104595500D01*
X156062022Y-104595500D01*
X156221291Y-104556243D01*
X156221291Y-104556242D01*
X156221295Y-104556242D01*
X156366546Y-104480008D01*
X156489332Y-104371229D01*
X156552596Y-104279574D01*
X156606879Y-104235585D01*
X156676327Y-104227925D01*
X156738892Y-104259028D01*
X156756696Y-104279575D01*
X156840668Y-104401229D01*
X156840671Y-104401231D01*
X156845642Y-104406843D01*
X156844140Y-104408173D01*
X156875806Y-104458663D01*
X156875034Y-104528528D01*
X156838679Y-104585095D01*
X156800669Y-104618769D01*
X156800666Y-104618773D01*
X156707483Y-104753771D01*
X156649312Y-104907154D01*
X156649311Y-104907157D01*
X156629539Y-105069999D01*
X156629539Y-105070000D01*
X156649311Y-105232842D01*
X156649312Y-105232845D01*
X156707483Y-105386228D01*
X156713284Y-105394632D01*
X156800668Y-105521229D01*
X156800670Y-105521231D01*
X156800672Y-105521233D01*
X156923451Y-105630006D01*
X156923452Y-105630006D01*
X156923454Y-105630008D01*
X157068705Y-105706242D01*
X157068707Y-105706242D01*
X157068708Y-105706243D01*
X157227978Y-105745500D01*
X157227979Y-105745500D01*
X157392022Y-105745500D01*
X157551291Y-105706243D01*
X157551291Y-105706242D01*
X157551295Y-105706242D01*
X157696546Y-105630008D01*
X157819332Y-105521229D01*
X157912518Y-105386226D01*
X157970688Y-105232845D01*
X157990461Y-105070000D01*
X157970688Y-104907155D01*
X157912518Y-104753774D01*
X157819332Y-104618771D01*
X157819328Y-104618767D01*
X157814358Y-104613157D01*
X157815860Y-104611825D01*
X157784196Y-104561350D01*
X157784960Y-104491485D01*
X157821319Y-104434905D01*
X157859332Y-104401229D01*
X157947463Y-104273548D01*
X158001745Y-104229560D01*
X158071193Y-104221900D01*
X158133758Y-104253003D01*
X158151561Y-104273549D01*
X158170664Y-104301224D01*
X158170672Y-104301233D01*
X158293451Y-104410006D01*
X158293452Y-104410006D01*
X158293454Y-104410008D01*
X158438705Y-104486242D01*
X158438707Y-104486242D01*
X158438708Y-104486243D01*
X158597978Y-104525500D01*
X158597979Y-104525500D01*
X158762022Y-104525500D01*
X158921291Y-104486243D01*
X158921291Y-104486242D01*
X158921295Y-104486242D01*
X159066546Y-104410008D01*
X159189332Y-104301229D01*
X159282518Y-104166226D01*
X159340688Y-104012845D01*
X159360461Y-103850000D01*
X159340688Y-103687155D01*
X159282518Y-103533774D01*
X159189332Y-103398771D01*
X159189329Y-103398768D01*
X159189327Y-103398766D01*
X159066548Y-103289993D01*
X158921291Y-103213756D01*
X158762022Y-103174500D01*
X158762021Y-103174500D01*
X158597979Y-103174500D01*
X158597978Y-103174500D01*
X158438708Y-103213756D01*
X158293451Y-103289993D01*
X158170672Y-103398766D01*
X158170669Y-103398769D01*
X158082537Y-103526450D01*
X158028253Y-103570440D01*
X157958805Y-103578099D01*
X157896240Y-103546995D01*
X157878437Y-103526450D01*
X157859332Y-103498771D01*
X157859330Y-103498769D01*
X157859327Y-103498766D01*
X157736546Y-103389992D01*
X157736544Y-103389990D01*
X157677593Y-103359050D01*
X157627380Y-103310465D01*
X157611406Y-103242446D01*
X157634742Y-103176588D01*
X157670997Y-103145176D01*
X157670372Y-103144270D01*
X157676539Y-103140011D01*
X157676546Y-103140008D01*
X157799332Y-103031229D01*
X157892518Y-102896226D01*
X157950688Y-102742845D01*
X157970461Y-102580000D01*
X157950688Y-102417155D01*
X157892518Y-102263774D01*
X157799332Y-102128771D01*
X157799329Y-102128768D01*
X157799327Y-102128766D01*
X157676548Y-102019993D01*
X157531291Y-101943756D01*
X157372022Y-101904500D01*
X157372021Y-101904500D01*
X157207979Y-101904500D01*
X157207978Y-101904500D01*
X157048708Y-101943756D01*
X156903451Y-102019993D01*
X156780672Y-102128766D01*
X156780666Y-102128773D01*
X156687483Y-102263771D01*
X156629312Y-102417154D01*
X156629311Y-102417157D01*
X156609539Y-102579999D01*
X156609539Y-102580000D01*
X156629311Y-102742842D01*
X156629312Y-102742845D01*
X156687482Y-102896226D01*
X156780668Y-103031229D01*
X156780670Y-103031231D01*
X156780672Y-103031233D01*
X156903453Y-103140007D01*
X156903455Y-103140009D01*
X156962406Y-103170949D01*
X157012618Y-103219533D01*
X157028593Y-103287552D01*
X157005258Y-103353410D01*
X156969004Y-103384826D01*
X156969628Y-103385730D01*
X156963453Y-103389992D01*
X156840672Y-103498766D01*
X156840664Y-103498775D01*
X156777402Y-103590425D01*
X156723119Y-103634415D01*
X156653670Y-103642074D01*
X156591106Y-103610970D01*
X156573303Y-103590424D01*
X156543438Y-103547157D01*
X156489332Y-103468771D01*
X156489329Y-103468768D01*
X156489327Y-103468766D01*
X156366548Y-103359993D01*
X156221291Y-103283756D01*
X156062022Y-103244500D01*
X156062021Y-103244500D01*
X155897979Y-103244500D01*
X155897978Y-103244500D01*
X155738708Y-103283756D01*
X155593451Y-103359993D01*
X155470672Y-103468766D01*
X155470666Y-103468773D01*
X155377483Y-103603771D01*
X155319312Y-103757154D01*
X155319311Y-103757157D01*
X155299539Y-103919999D01*
X150200500Y-103919999D01*
X150200500Y-102004066D01*
X150200765Y-101995956D01*
X150209224Y-101866894D01*
X150215364Y-101773207D01*
X150217479Y-101757153D01*
X150260230Y-101542226D01*
X150264428Y-101526561D01*
X150326349Y-101344148D01*
X150334868Y-101319049D01*
X150341067Y-101304083D01*
X150437995Y-101107533D01*
X150446098Y-101093498D01*
X150567853Y-100911279D01*
X150577710Y-100898433D01*
X150722207Y-100733665D01*
X150733665Y-100722207D01*
X150898433Y-100577710D01*
X150911279Y-100567853D01*
X151093498Y-100446098D01*
X151107533Y-100437995D01*
X151304083Y-100341067D01*
X151319049Y-100334868D01*
X151525945Y-100264637D01*
X151526561Y-100264428D01*
X151542228Y-100260230D01*
X151757153Y-100217479D01*
X151773209Y-100215364D01*
X151978058Y-100201938D01*
X151995958Y-100200765D01*
X152004067Y-100200500D01*
X152039882Y-100200500D01*
X163550118Y-100200500D01*
X163575572Y-100200500D01*
X163642611Y-100220185D01*
G37*
G04 #@! TD.AperFunction*
M02*
